<?xml version="1.0" encoding="UTF-8"?>
<svg id="Layer_1" data-name="Layer 1" xmlns="http://www.w3.org/2000/svg" version="1.1" viewBox="0 0 150 150">
  <defs>
    <style>
      .cls-1 {
        fill: #fff;
      }

      .cls-1, .cls-2 {
        stroke-width: 0px;
      }

      .cls-2 {
        fill: #00a79d;
      }
    </style>
  </defs>
  <rect class="cls-2" x="19.79" y="19.79" width="110.41" height="110.41" rx="10.53" ry="10.53"/>
  <path class="cls-1" d="M86.1,63.54l2.44-4.93h5.66l-6.26,24.68c-.11.46-.2.9-.26,1.33-.06.43-.09.83-.09,1.2,0,1.31.36,2.31,1.09,3,.73.69,1.79,1.03,3.19,1.03s2.83-.38,4.39-1.14c1.56-.76,3.08-1.84,4.56-3.24,2.29-2.17,4.07-4.83,5.36-7.99,1.29-3.16,1.93-6.49,1.93-10.01,0-7.4-2.72-13.4-8.16-18-5.44-4.6-12.58-6.9-21.4-6.9-3.8,0-7.31.4-10.54,1.2-3.23.8-6.24,2.03-9.04,3.69-5.46,3.26-9.68,7.54-12.68,12.83-3,5.3-4.5,11.15-4.5,17.55,0,5.06.88,9.46,2.64,13.2,1.76,3.74,4.51,7.03,8.25,9.86,2.86,2.2,6.24,3.89,10.13,5.08,3.9,1.19,8.01,1.78,12.32,1.78,4.83,0,9.52-.7,14.08-2.1,4.56-1.4,8.73-3.41,12.53-6.04l2.36,3.51c-4.23,3.17-8.72,5.56-13.48,7.16-4.76,1.6-9.75,2.4-14.98,2.4s-10.4-.67-14.91-2.01c-4.51-1.34-8.51-3.34-12-6-4.4-3.37-7.69-7.28-9.86-11.74-2.17-4.46-3.26-9.51-3.26-15.17,0-4.71.74-9.18,2.23-13.41,1.49-4.23,3.64-8.07,6.47-11.53,4.17-5.08,9.19-8.94,15.06-11.57,5.87-2.63,12.38-3.94,19.52-3.94,4.66,0,9.08.64,13.28,1.93s7.81,3.1,10.84,5.44c3.71,2.86,6.54,6.16,8.46,9.9,1.93,3.74,2.89,7.79,2.89,12.13,0,5-.91,9.5-2.72,13.5-1.81,4-4.45,7.37-7.91,10.11-1.94,1.54-4.08,2.73-6.41,3.56-2.33.83-4.71,1.24-7.13,1.24-2.83,0-4.96-.56-6.41-1.69-1.44-1.13-2.16-2.81-2.16-5.04v-.81c-1.57,2.54-3.41,4.42-5.53,5.64-2.11,1.21-4.57,1.82-7.37,1.82-4.37,0-7.71-1.21-10.01-3.64-2.3-2.43-3.45-5.96-3.45-10.58,0-6.71,1.97-12.34,5.91-16.88,3.94-4.54,8.78-6.81,14.53-6.81,2.43,0,4.51.54,6.24,1.61,1.73,1.07,3.11,2.68,4.14,4.82ZM82.07,79.78l2.53-10.11c-.49-2.51-1.46-4.46-2.94-5.83-1.47-1.37-3.32-2.06-5.55-2.06-3.94,0-7.26,1.86-9.94,5.57-2.69,3.71-4.03,8.27-4.03,13.67,0,3,.69,5.31,2.08,6.94,1.39,1.63,3.35,2.44,5.89,2.44,2.77,0,5.26-.99,7.48-2.96,2.21-1.97,3.71-4.53,4.48-7.67Z"/>
</svg>