<?xml version="1.0" encoding="UTF-8"?>
<svg id="Layer_1" data-name="Layer 1" xmlns="http://www.w3.org/2000/svg" version="1.1" viewBox="0 0 500 500">
  <defs>
    <style>
      .cls-1 {
        fill: #52c0ac;
      }

      .cls-1, .cls-2, .cls-3, .cls-4 {
        stroke-width: 0px;
      }

      .cls-2 {
        fill: #585ba8;
      }

      .cls-3 {
        fill: #585ca8;
      }

      .cls-4 {
        fill: #595ca9;
      }
    </style>
  </defs>
  <path class="cls-3" d="M428.9,208.74c.57-.18.83-.33,1.1-.33,8.02-.02,16.05-.02,24.07-.02.37,0,.73.11,1.17.18.07.4.18.76.2,1.12.23,5.81.06,78.45-.19,80.66-.43.51-1.03.38-1.57.38-7.65.01-15.29,0-22.94,0-.47,0-.93-.07-1.36-.1-.73-.76-.46-1.66-.47-2.47-.02-7.74,0-15.48-.02-23.22,0-.92.15-1.87-.23-2.71-2.54-.41-29.38-.4-31.79,0-.51.82-.28,1.79-.28,2.7-.02,7.55,0,15.1-.02,22.65,0,.93.15,1.88-.25,2.94-2.84.43-5.74.13-8.63.18-2.83.06-5.66.01-8.49.01h-8.66c-.77-1.12-.47-2.19-.47-3.2-.02-11.33-.01-22.65-.01-33.98,0-13.87,0-27.75,0-41.62v-2.85c.49-.67.97-.7,1.44-.7,7.93,0,15.86,0,23.79,0,.36,0,.72.13,1.22.23.18,2.57.06,5.12.08,7.65.02,2.55,0,5.1,0,7.65s-.04,5.1.01,7.65c.05,2.53-.24,5.07.2,7.65.42.11.77.26,1.12.29,2.57.17,28.91.02,30.58-.16.68-.92.38-2,.39-3,.03-8.21.01-16.42.01-24.63v-2.96Z"/>
  <path class="cls-3" d="M107.78,208.88c.99-.65,1.76-.5,2.5-.5,12.93,0,25.85-.03,38.78,0,4.34.01,8.67.28,12.91,1.37,3.77.97,7.34,2.42,10.62,4.54,6.72,4.34,10.65,10.53,12.11,18.34,1.08,5.81.58,11.47-1.78,16.91-1.8,4.13-4.55,7.59-7.93,10.54-1.56,1.36-3.2,2.62-4.95,4.04.22.99,1.01,1.7,1.6,2.5,5.39,7.27,10.81,14.53,16.22,21.79.44.59.84,1.21,1.2,1.75-.09.23-.1.34-.16.4-.05.06-.15.1-.23.1-9.52,0-19.05,0-28.49,0-.93-.71-1.39-1.66-1.98-2.51-4.39-6.37-8.79-12.73-13.1-19.15-.9-1.33-1.89-1.92-3.48-1.81-1.78.12-3.58.03-5.38.03-.56,0-1.12-.03-1.77.41-.32,2.44-.09,4.97-.13,7.5-.04,2.55,0,5.09-.01,7.64,0,2.53.05,5.06-.05,7.73-3.05.46-5.95.16-8.84.21-2.83.05-5.66.01-8.49.01s-5.84,0-8.54,0c-.7-.61-.61-1.2-.61-1.76-.01-1.04,0-2.08,0-3.11,0-24.53,0-49.06,0-73.59v-3.4ZM134.49,230.28c-.35,4.27-.24,16.8.14,18.87.39.34.87.28,1.33.28,4.15,0,8.3.01,12.46-.02.84,0,1.71-.07,2.53-.25,3.01-.65,5.53-2.06,6.57-5.16,1.12-3.34,1.18-6.67-.77-9.8-.25-.4-.59-.74-.91-1.08-2-2.13-4.55-2.98-7.39-3.01-4.25-.05-8.49-.02-12.74-.01-.36,0-.72.1-1.22.18Z"/>
  <path class="cls-2" d="M193.53,208.66c2.72-.39,23.61-.38,26.04-.01.45.93.23,1.98.23,2.98.02,13.11.02,26.22,0,39.34,0,1.99.13,3.96.55,5.9,1.02,4.72,3.63,9.11,10.61,10.23,2.76.44,5.47.34,8.14-.29,4.03-.95,6.83-3.44,8.47-7.25,1.1-2.57,1.41-5.27,1.43-8.02.03-3.77.01-7.55.01-11.32,0-9.43,0-18.87,0-28.3,0-1.03,0-2.06,0-2.89.56-.74,1.15-.64,1.7-.64,7.64,0,15.28,0,22.92,0,.55,0,1.14-.11,1.66.34.44.63.25,1.41.25,2.14.01,13.49.03,26.98,0,40.47-.01,5.02-.51,9.99-2.13,14.78-3.39,10.02-9.94,17.23-19.58,21.53-7.92,3.53-16.26,4.61-24.88,3.84-4.16-.37-8.23-1.14-12.12-2.62-11.51-4.37-18.74-12.62-21.93-24.46-1.04-3.85-1.46-7.8-1.48-11.76-.06-14.15-.03-28.3-.03-42.45,0-.46.08-.93.13-1.53Z"/>
  <path class="cls-2" d="M336.51,290.51c-2.71.29-23.53.31-26.1.07-.64-.6-.43-1.4-.43-2.13-.02-6.51,0-13.02,0-19.53,0-11.6,0-23.2,0-34.81,0-1.02-.03-2.05-.05-2.91-.83-.72-1.62-.5-2.34-.5-6.51-.02-13.02,0-19.53-.02-.93,0-1.87.15-2.77-.17-.09-.09-.16-.16-.21-.23-.05-.07-.1-.17-.1-.25-.03-6.6-.06-13.2-.08-19.8,0-.46.06-.92.08-1.22.53-.68,1.14-.53,1.68-.55.66-.03,1.32-.01,1.98-.01,23.2,0,46.41,0,69.61,0,1.12,0,2.23.04,3.45.06.51,2.57.19,5.01.25,7.43.06,2.36.02,4.72.01,7.07,0,2.44-.02,4.87-.03,7.15-.82.75-1.61.52-2.33.52-6.6.02-13.21.01-19.81.01-.94,0-1.87,0-2.63,0-.81.64-.63,1.34-.64,1.98-.01,4.81,0,9.62,0,14.43,0,13.39,0,26.79,0,40.18v3.22Z"/>
  <path class="cls-3" d="M45.41,208.77c2.92-.47,31.36-.63,49.8-.32.65.01,1.31-.06,1.93.27.09.29.24.55.24.81.02,6.7.02,13.39,0,20.09,0,.26-.14.52-.26.97-2.04.24-4.1.08-6.14.11-2.07.03-4.15,0-6.22,0s-4.15,0-6.22,0c-2.06,0-4.12.03-6.2.04-.58,1.1-.35,2.16-.36,3.16-.02,10.84-.01,21.69-.01,32.53,0,7.07,0,14.15,0,21.22,0,.92.14,1.87-.12,2.6-.21.22-.26.31-.34.35-.08.04-.18.06-.27.06-8.2.02-16.41.04-24.61.05-.27,0-.54-.1-.77-.14-.55-.47-.43-1.07-.43-1.61-.01-2.92,0-5.85,0-8.77,0-22.63,0-45.27,0-67.9v-3.53Z"/>
  <path class="cls-4" d="M35.18,230.62H10.58c-.49-.3-.58-.67-.58-1.04,0-6.69,0-13.39,0-20.08,0-.26.13-.53.24-.96,1.64-.35,3.33-.12,5-.16,1.7-.04,3.39,0,5.09,0h4.81c1.7,0,3.39-.03,5.09,0,1.67.04,3.36-.19,4.97.16.42,2.54.42,19.56-.02,22.07Z"/>
  <path class="cls-1" d="M464.75,290.58c-.3-2.53-.32-18.81-.07-21.39.32-.44.79-.49,1.26-.49,7.54,0,15.07,0,22.61,0,.36,0,.72.1.92.13.22.19.31.24.36.31.05.08.08.18.08.27.04,6.31.08,12.62.1,18.92,0,.65-.06,1.3-.09,1.84-.39.56-.86.59-1.33.59-7.54,0-15.07,0-22.61,0-.36,0-.72-.11-1.23-.19Z"/>
</svg>