<?xml version="1.0" encoding="UTF-8"?>
<svg id="Layer_1" data-name="Layer 1" xmlns="http://www.w3.org/2000/svg" version="1.1" viewBox="0 0 500 500">
  <defs>
    <style>
      .cls-1 {
        fill: #010101;
      }

      .cls-1, .cls-2, .cls-3, .cls-4, .cls-5, .cls-6 {
        stroke-width: 0px;
      }

      .cls-2 {
        fill: #050505;
      }

      .cls-3 {
        fill: #020202;
      }

      .cls-4 {
        fill: #fff;
      }

      .cls-5 {
        fill: #030303;
      }

      .cls-6 {
        fill: #0374b1;
      }
    </style>
  </defs>
  <rect class="cls-4" x="377.65" y="194.82" width="106.31" height="106.31"/>
  <g>
    <path class="cls-6" d="M375.95,309.93c-.08-.07-.15-.19-.24-.21-3.49-.82-5.51-4.01-5.69-7.91-.02-.46,0-.91,0-1.37,0-33.62.05-67.24-.05-100.86-.02-5.73,4.49-9.51,9.57-9.5,33.71.06,67.41.03,101.12.03,4.96,0,7.95,2.31,9.23,7.13.02.07.09.12.13.18v104.99c-.68,2.38-2.02,4.26-4.09,5.64-1.48.99-3.13,1.47-4.82,1.89h-105.14ZM431.9,244.09c0-2.65-.03-5,.02-7.34.02-.79-.19-1.03-1.01-1.03-4.72.04-9.44.04-14.17,0-.89,0-1.05.26-1.05,1.08.02,18.29.02,36.58,0,54.87,0,.85.15,1.16,1.1,1.15,4.99-.05,9.98-.05,14.97,0,.91,0,1.12-.25,1.12-1.13-.03-8.63-.01-17.26-.03-25.9,0-1.83.11-3.65.47-5.44.86-4.23,2.69-7.87,7.02-9.4,7.02-2.47,12.51-.31,14.6,7.2.58,2.1.78,4.25.77,6.43,0,9.05,0,18.1-.02,27.15,0,.81.14,1.1,1.04,1.09,5.03-.05,10.05-.05,15.08,0,.87,0,1.06-.23,1.06-1.07-.03-10.38-.02-20.76-.02-31.14,0-3.81-.27-7.59-1.16-11.31-1.51-6.3-4.9-11.01-11.35-12.97-5.27-1.6-10.65-1.83-16-.49-4.96,1.24-9.29,3.56-12.44,8.25ZM387.15,264.16c0,9.17.02,18.33-.02,27.5,0,.96.25,1.18,1.19,1.17,4.99-.05,9.98-.04,14.97,0,.78,0,1.03-.16,1.02-.99-.02-18.37-.02-36.74,0-55.11,0-.81-.23-1-1.02-1-4.99.04-9.98.04-14.97,0-.93,0-1.21.19-1.2,1.17.04,9.09.02,18.18.02,27.27ZM395.66,226.45c5.95.03,10.68-4.62,10.74-10.55.06-5.99-4.63-10.75-10.62-10.78-5.95-.03-10.68,4.62-10.74,10.55-.06,5.99,4.64,10.75,10.62,10.78Z"/>
    <path class="cls-5" d="M335.72,242.67v-1.54c0-10.95,0-21.91-.02-32.86,0-.82.15-1.08,1.03-1.07,5.06.05,10.13.04,15.2,0,.72,0,.95.14.95.92-.02,27.92-.02,55.83,0,83.75,0,.84-.27.97-1.02.96-4.65-.04-9.29-.05-13.94,0-.96.01-1.1-.31-1.08-1.14.06-1.84.02-3.69.02-5.82-2.16,2.42-4.47,4.23-7.23,5.25-9.98,3.65-19.73,3.8-28.76-2.63-5.72-4.07-8.89-9.86-10.25-16.65-1.57-7.86-1.03-15.55,2.86-22.68,5.09-9.34,13.12-14.04,23.79-14.11,5.44-.04,10.55,1.1,15.03,4.38,1.2.87,2.25,1.91,3.42,3.24ZM306,264.41c.05.5.13,1.33.21,2.16.77,8.2,5.99,13.49,14.18,14.04,6.16.41,11.85-2.14,14.78-8.36.98-2.08,1.46-4.3,1.63-6.58.25-3.5-.22-6.91-1.81-10.07-2.96-5.9-8.78-8.04-14.85-7.66-5.68.36-9.97,2.95-12.46,8.17-1.2,2.51-1.58,5.21-1.68,8.29Z"/>
    <path class="cls-3" d="M227.18,235.75c-2.56,2.9-4.96,5.62-7.37,8.35-4.94,5.59-9.86,11.19-14.83,16.75-.52.59-.56.91-.06,1.56,7.58,9.71,15.13,19.44,22.69,29.17.27.35.54.71.94,1.23h-1.14c-6.06,0-12.11-.01-18.17.02-.72,0-1.15-.21-1.58-.8-6.63-8.99-13.29-17.96-19.94-26.94-.13-.17-.26-.34-.57-.73v1.32c0,8.63-.02,17.27.03,25.9,0,1.09-.34,1.26-1.32,1.25-4.84-.05-9.68-.06-14.51,0-1.05.01-1.38-.17-1.37-1.31.04-27.69.04-55.38.01-83.07,0-.94.13-1.27,1.2-1.26,4.87.07,9.75.07,14.63,0,1.06-.01,1.37.18,1.37,1.32-.05,16.17-.03,32.33-.03,48.5v1.46c.35-.37.58-.59.78-.82,6.12-6.98,12.24-13.96,18.33-20.96.61-.7,1.2-.96,2.12-.96,5.83.04,11.66.02,17.48.02.37,0,.73,0,1.3,0Z"/>
    <path class="cls-3" d="M117.65,244.06c2.49-3.83,5.84-5.96,9.69-7.4,5.75-2.14,11.62-2.19,17.47-.57,7.04,1.96,10.87,6.98,12.6,13.82.78,3.1,1.16,6.27,1.16,9.47.01,10.8,0,21.6.04,32.4,0,.86-.21,1.05-1.06,1.05-5.03-.04-10.05-.05-15.08,0-.86,0-1.05-.21-1.05-1.05.03-8.97.02-17.95.02-26.92,0-2.17-.19-4.32-.65-6.45-2.06-9.5-10.36-9.65-15.64-6.85-3.7,1.96-5.33,5.46-6.11,9.4-.36,1.79-.46,3.61-.45,5.44.01,8.44,0,16.88.03,25.33,0,.88-.2,1.12-1.1,1.11-5.03-.05-10.05-.04-15.08,0-.79,0-1-.18-1-.99.03-18.37.02-36.73,0-55.1,0-.76.13-1.02.97-1.02,4.76.04,9.52.04,14.28,0,.82,0,1.01.22.99,1.01-.05,2.34-.02,4.68-.02,7.32Z"/>
    <path class="cls-2" d="M263.73,269.46c-6.4,0-12.8.03-19.19-.03-1.11-.01-1.23.36-1.15,1.28.48,5.26,5.4,10.45,10.7,11.14,6.83.88,12.6-1.17,17.15-6.39.36-.41.54-.46.97-.1,3.15,2.58,6.31,5.14,9.5,7.67.62.49.56.78.09,1.32-2.92,3.31-6.54,5.54-10.69,6.89-8.71,2.83-17.53,3.43-26.27.29-8.74-3.15-14.06-9.58-16.41-18.43-1.97-7.43-1.99-14.89.92-22.13,3.15-7.83,9.13-12.55,17.17-14.63,7.47-1.94,15-2.13,22.27.87,7.62,3.15,11.99,9.18,14.11,16.94,1.29,4.72,1.73,9.54,1.22,14.44-.08.82-.43.88-1.08.87-6.44-.02-12.87,0-19.31,0ZM255.53,258.57h10.27q2.04,0,1.83-2c-.6-5.68-5.5-10.1-11.19-10.1-6.55,0-11.59,4.32-12.94,11.03-.16.81-.11,1.11.85,1.09,3.73-.06,7.46-.02,11.18-.02Z"/>
    <path class="cls-1" d="M10.02,250.01c0-13.88.01-27.77-.02-41.65,0-.95.21-1.18,1.17-1.17,4.95.05,9.9.05,14.85,0,.95-.01,1.17.22,1.17,1.17-.03,22.02-.02,44.04-.05,66.07,0,1.03.25,1.29,1.28,1.28,10.63-.04,21.25-.01,31.88-.05.95,0,1.18.22,1.17,1.17-.05,5.02-.04,10.04,0,15.06,0,.75-.2.93-.94.93-16.53-.02-33.06-.03-49.59,0-.9,0-.93-.36-.93-1.05.02-13.92.01-27.84.01-41.76Z"/>
    <path class="cls-1" d="M72.88,264.39c0-9.17.02-18.33-.03-27.5,0-.96.24-1.17,1.18-1.16,4.99.05,9.98.05,14.97,0,.87,0,1.04.23,1.04,1.06-.03,18.33-.03,36.67,0,55,0,.86-.22,1.05-1.06,1.04-5.03-.04-10.06-.05-15.08,0-.87,0-1.05-.23-1.04-1.06.03-9.13.02-18.26.02-27.38Z"/>
    <path class="cls-2" d="M81.5,226.09c-5.59.06-10.3-4.58-10.39-10.23-.09-5.61,4.68-10.4,10.34-10.4,5.63,0,10.3,4.65,10.33,10.29.03,5.6-4.62,10.28-10.28,10.34Z"/>
  </g>
</svg>