<?xml version="1.0" encoding="UTF-8"?>
<svg id="Layer_1" data-name="Layer 1" xmlns="http://www.w3.org/2000/svg" version="1.1" viewBox="0 0 500 500">
  <defs>
    <style>
      .cls-1 {
        fill: #644b9e;
        stroke-width: 0px;
      }
    </style>
  </defs>
  <path class="cls-1" d="M135.43,324.74h-4.57c-13.43,0-26.87,0-40.3,0-.82,0-1.65-.02-2.47,0-2.48.09-2.55.1-2.56,2.62-.04,6.82-.01,13.64-.02,20.47,0,.94.03,1.88,0,2.82-.08,2.23-.1,2.3-2.46,2.31-8.13.03-16.26.03-24.39,0-2.6,0-2.64-.06-2.65-2.83-.03-7.29,0-14.59-.01-21.88,0-3.49-.03-3.51-3.45-3.51-12.26-.01-24.51,0-36.77,0-.82,0-1.65.02-2.47,0-2.63-.07-2.68-.08-2.76-2.81-.19-6.34-.29-12.69-.52-19.03-.06-1.74.39-3.13,1.48-4.53,23.48-30.03,46.92-60.09,70.37-90.15.99-1.27,1.95-2.57,3.22-4.25-1.24-.18-1.99-.38-2.75-.39-4.6-.03-9.19-.06-13.79,0-8.12.1-16.25.31-24.37.38-8.84.08-17.68.05-26.51.07-3.62,0-3.39.18-3.4-3.51,0-6.7-.01-13.41,0-20.11,0-3.91-.43-3.9,3.78-3.9,11.08-.01,22.15-.05,33.23-.06,5.45,0,4.68.17,4.71-4.8.03-7.29,0-14.59.02-21.88.01-2.67.06-2.71,2.76-2.72,8.01-.03,16.03-.03,24.04,0,2.65,0,2.7.06,2.71,2.77.03,7.65,0,15.29.02,22.94,0,3.23.04,3.27,3.34,3.27,11.9,0,23.8-.03,35.71-.04.82,0,1.65-.02,2.47,0,2.23.09,2.24.1,2.31,2.47.04,1.18,0,2.35,0,3.53,0,4.82-.09,9.65.04,14.47.06,2.12-.51,3.82-1.82,5.5-9.23,11.75-18.39,23.56-27.58,35.34-14.33,18.37-28.66,36.74-42.98,55.12-.56.72-1.05,1.5-1.95,2.79,1.73.04,2.95.09,4.18.09,17.91,0,35.82.06,53.74-.05,2.71-.02,4.16.61,5.25,3.33,3.47,8.7,8.38,16.56,14.87,23.39.63.67,1.18,1.42,2.34,2.81Z"/>
  <path class="cls-1" d="M158.67,275.28c.89,4.34,2.95,7.55,5.49,10.48,5.06,5.83,11.69,8.75,19.21,9.32,9.23.69,18.35-.4,27.14-3.47,3.35-1.17,6.59-2.63,9.06-5.3,1.07-1.16,1.88-.97,2.96-.03,5.67,4.96,11.4,9.85,17.07,14.82,1.85,1.62,1.85,1.73.35,3.69-4.28,5.61-9.64,9.97-15.8,13.35-14.09,7.71-29.19,11.18-45.21,10.1-8.22-.55-15.84-3.41-22.99-7.48-11.33-6.44-20.34-15.2-26.31-26.84-3.26-6.34-4.68-13.17-5.32-20.31-.81-8.93-.08-17.62,2.38-26.15,2.83-9.82,7.24-18.84,14.38-26.38,5.62-5.94,12.48-10.01,19.9-13.13,8.33-3.5,17.06-5.4,26.15-5.07,11.36.41,22.12,3.23,31.94,9.04,6.4,3.78,11.3,9.18,15.39,15.32,8.23,12.38,12.55,25.95,12.24,40.88-.02,1.17-.17,2.34-.36,3.5-.53,3.22-.55,3.24-3.63,3.26-16.85.12-33.69.26-50.54.35-9.9.06-19.8.05-29.7.06-1.15,0-2.3,0-3.8,0ZM184.17,249.38c6.83,0,13.66,0,20.49,0,5.7,0,5.09.31,3.68-4.95-1.89-7.04-6.1-12.21-13.48-14.02-8.12-1.99-16.2-1.74-23.74,2.13-5.77,2.96-9.8,7.65-11.27,14.17-.56,2.47-.43,2.65,2.06,2.66,7.42.03,14.84.01,22.26.01Z"/>
  <path class="cls-1" d="M402,275.44c.83,4.15,2.9,7.35,5.42,10.28,5.04,5.84,11.67,8.79,19.19,9.35,9.47.7,18.81-.41,27.8-3.69,3.12-1.14,6.11-2.54,8.42-5.02,1.01-1.08,1.82-1.15,2.96-.15,5.66,4.97,11.39,9.86,17.06,14.83,1.92,1.69,1.93,1.8.23,3.97-4.25,5.46-9.52,9.77-15.58,13.08-14.09,7.71-29.18,11.19-45.21,10.13-8.23-.54-15.86-3.39-22.99-7.46-11.2-6.38-20.2-14.99-26.16-26.51-3.33-6.44-4.88-13.34-5.52-20.61-.95-10.63.27-20.88,3.86-30.85,2.69-7.45,6.33-14.4,11.65-20.4,5.92-6.69,13.31-11.2,21.42-14.57,8.23-3.42,16.86-5.28,25.82-4.95,11.37.41,22.12,3.22,31.95,9.01,6.41,3.77,11.31,9.17,15.4,15.3,8.25,12.37,12.57,25.94,12.27,40.87-.03,1.4-.25,2.81-.48,4.19-.43,2.55-.46,2.6-3.1,2.61-6.36.03-12.73-.02-19.09.02-20.85.12-41.7.27-62.56.41-.8,0-1.61.09-2.76.16ZM402.87,249.38h3.98c13.78,0,27.56,0,41.34,0,5.56,0,4.82.09,3.49-4.83-1.74-6.43-5.28-11.58-12.05-13.65-8.92-2.73-17.78-2.45-26,2.1-6.09,3.38-10.13,8.61-10.76,16.37Z"/>
  <path class="cls-1" d="M319.18,261.63c0-13.99-.05-27.98.01-41.97.09-18.1.27-36.2.41-54.3,0-.47.03-.94,0-1.41-.09-1.51.63-2.09,2.11-2.06,4,.07,8.01,0,12.01.08,4,.08,7.99.32,11.99.38,1.65.02,2.36.63,2.29,2.29-.07,1.64,0,3.29.01,4.94.27,24.68.53,49.36.81,74.05.19,16.57.39,33.14.59,49.71,0,.59.01,1.18.05,1.76.15,2.64.27,2.78,2.86,2.92,2.59.14,5.17.26,7.76.33,2,.06,3.15.86,3.77,2.92,1.5,5,4.21,9.41,7.16,13.69,1.13,1.64,2.08,3.4,3.05,5.14.56.99.29,1.69-.77,2.28-7.82,4.33-15.97,7.63-25.11,7.26-12.83-.52-21.87-6.98-27.72-18.18-1.05-2.01-1.46-4.14-1.45-6.45.07-14.46.03-28.92.03-43.39.04,0,.07,0,.11,0Z"/>
  <path class="cls-1" d="M258.36,261.88c0-13.99-.05-27.99.01-41.98.09-18.22.27-36.44.41-54.66.03-3.3.04-3.38,3.3-3.33,7.42.11,14.83.28,22.24.47,2.9.07,2.95.13,2.98,3.02.23,17.75.44,35.5.65,53.25.27,23.04.51,46.08.79,69.12.03,2.46.24,4.92.34,7.39.11,2.71.13,2.75,2.76,2.91,2.94.18,5.87.37,8.81.52,1.28.07,1.83.68,2,1.95.96,6.96,3.43,13.39,6.79,19.52,1.52,2.77,1.52,2.94-1.23,4.17-3.53,1.58-7.06,3.37-10.79,4.28-14.46,3.52-27.56-1.19-35.77-13.42-2.34-3.48-3.54-7.22-3.48-11.58.2-13.87.08-27.75.08-41.63.04,0,.07,0,.11,0Z"/>
</svg>