<?xml version="1.0" encoding="UTF-8"?>
<svg id="Layer_1" data-name="Layer 1" xmlns="http://www.w3.org/2000/svg" version="1.1" viewBox="0 0 500 500">
  <defs>
    <style>
      .cls-1 {
        fill: #fff;
      }

      .cls-1, .cls-2 {
        stroke-width: 0px;
      }

      .cls-2 {
        fill: #4d72aa;
      }
    </style>
  </defs>
  <rect class="cls-2" x="10" y="190.48" width="480" height="119.04" rx="12.22" ry="12.22"/>
  <g>
    <path class="cls-1" d="M389.58,230.01c-1.8.04-3.6-.09-5.39.05-2.72.21-5.25.99-7.21,3.05-1.11,1.17-1.91,2.54-2.6,3.99-.89,1.87-1.7,3.77-2.65,5.62-1.03,2.01-2.59,3.16-4.88,3.32-1.17.08-1.23.08-1.23-1.07,0-4.63,0-9.26,0-13.89,0-1.03-.01-1.04-1.05-1.04-3.4,0-6.79,0-10.19,0-1.32,0-1.24-.11-1.24,1.21,0,6.26,0,12.53,0,18.79s0,12.53,0,18.79c0,1.14,0,1.15,1.18,1.15,3.4,0,6.79,0,10.19,0,1.1,0,1.1,0,1.11-1.11,0-4.19,0-8.38,0-12.57,0-2.13,0-2.09,2.13-2.14.82-.02,1.27.24,1.69.96,2.75,4.67,5.55,9.31,8.33,13.96.31.52.57.94,1.35.93,4.24-.05,8.47-.02,12.71-.03.83,0,.84-.03.4-.75-1.94-3.16-3.9-6.31-5.85-9.46-2.01-3.25-4.02-6.51-6.05-9.76-.26-.41-.31-.67.09-.99.68-.54,1-1.33,1.34-2.1.45-1.02.86-2.06,1.38-3.05,1.04-1.98,2.61-3.19,4.96-3.12.48.01.96-.03,1.44,0,.58.05.76-.17.75-.75-.02-3.07-.02-6.14,0-9.22,0-.52-.09-.81-.72-.79Z"/>
    <path class="cls-1" d="M332.28,268.85c0,1.12,0,1.13,1.08,1.13,3.44,0,6.88,0,10.31,0,1.03,0,1.04,0,1.04-1.04,0-4.55,0-9.1,0-13.65,0-3.95,0-7.9,0-11.86,0-1.2-.02-2.39-.23-3.57-.65-3.68-2.48-6.51-5.79-8.33-2.93-1.61-6.15-2.18-9.42-2.43-2.42-.19-4.85-.27-7.3-.09-3.51.26-6.95.91-10.38,1.63-.72.15-.98.43-.96,1.19.05,2.59.01,5.19.02,7.78,0,.93.23,1.14,1.13.89.65-.18,1.26-.5,1.89-.74,3.92-1.48,7.9-2.51,12.15-1.88,1.39.2,2.76.41,4.03,1.05,1.66.84,2.41,2.24,2.46,4.07.01.42-.06.7-.55.73-.28.02-.55.11-.83.12-3.19.16-6.36.53-9.52,1-2.94.44-5.77,1.24-8.35,2.75-2.78,1.62-4.67,3.93-5.4,7.13-.37,1.61-.48,3.24-.34,4.87.39,4.6,2.59,8.04,6.72,10.19,2.05,1.06,4.25,1.22,6.52,1.21,3.86-.02,7.14-1.44,10.07-3.84.37-.3.74-.61,1.11-.92.33-.28.54-.34.54.22-.01.8,0,1.6,0,2.39ZM331.77,260.03c-2.74,2.21-5.78,2.92-9.18,1.86-1.65-.51-2.45-1.7-2.59-3.35-.31-3.42.77-4.99,4.05-6.05,1.68-.54,3.42-.71,5.16-.91.79-.09,1.58-.16,2.37-.25.51-.06.71.12.7.65-.03,1.19,0,2.39,0,3.59,0,1.12-.02,2.23,0,3.35.01.48-.14.83-.52,1.13Z"/>
    <path class="cls-1" d="M418.34,239.89c0-1.18,0-1.18,1.15-1.19,3.44,0,6.88,0,10.31,0,.92,0,.94-.02.95-.93.01-2.2,0-4.39,0-6.59,0-1.15-.01-1.15-1.22-1.16-5.8,0-11.59,0-17.39,0-5.84,0-11.67,0-17.51,0-1.32,0-1.2-.09-1.2,1.25,0,2.04,0,4.07,0,6.11,0,1.37-.16,1.32,1.27,1.32,3.24,0,6.48,0,9.71,0,1.68,0,1.45.02,1.45,1.4,0,7.22,0,14.45,0,21.67,0,2.43.02,4.87-.01,7.3,0,.63.11.92.84.92,3.6-.03,7.2-.03,10.79,0,.69,0,.94-.23.86-.89-.03-.24,0-.48,0-.72,0-9.5,0-19,0-28.5Z"/>
    <path class="cls-1" d="M447.19,252.34c4.2,0,8.39,0,12.59,0,3.64,0,7.27,0,10.91,0,.68,0,1.36-.01,2.04,0,.47.01.75-.1.75-.65,0-3.71.08-7.42-.94-11.04-1.67-5.9-5.39-9.72-11.44-11.16-3.95-.94-7.93-.95-11.87-.14-6.65,1.37-11.4,5.16-13.96,11.49-1.78,4.4-1.98,9-1.31,13.64,1.05,7.33,5.1,12.28,12.06,14.84,3.45,1.27,7.04,1.64,10.69,1.69,4.93.07,9.68-.75,14.25-2.59,2.22-.89,1.77-.35,1.8-2.71.03-2.47.01-4.95,0-7.42,0-.83-.3-1.06-1.11-.9-.45.09-.77.4-1.14.64-4.99,3.34-10.41,4.67-16.38,3.59-4.5-.81-7.31-3.71-7.92-8.22-.13-.98-.07-1.07.97-1.07ZM446.19,243.9c.47-3.76,2.85-7.02,7.36-7.01.88,0,1.76-.04,2.62.17,2.64.62,3.99,2.46,4.6,4.96.13.54.22,1.09.27,1.65.11,1.19.09,1.2-1.08,1.2-2.12,0-4.23,0-6.35,0-2.2,0-4.39,0-6.59,0-.91,0-.95-.03-.84-.95Z"/>
    <path class="cls-1" d="M294.96,238.79c3.28,0,6.55,0,9.83,0,1.09,0,1.09,0,1.1-1.12,0-2.15,0-4.31,0-6.46,0-1.28.05-1.17-1.16-1.17-5.79,0-11.59,0-17.38,0-5.87,0-11.75,0-17.62,0-1.04,0-1.05,0-1.05,1.03,0,2.23,0,4.47,0,6.7,0,1,.01,1.02.95,1.02,3.28,0,6.55,0,9.83,0,1.73,0,1.54-.19,1.54,1.53,0,9.46,0,18.91,0,28.37,0,1.29,0,1.29,1.32,1.29,3.28,0,6.55,0,9.83,0,1.57,0,1.43.18,1.43-1.39,0-9.46,0-18.91,0-28.37,0-1.59-.16-1.43,1.39-1.44Z"/>
    <path class="cls-1" d="M153.68,254.17c.73-.1,1.14.21,1.51.84,2.78,4.7,5.6,9.37,8.38,14.07.39.66.8.93,1.6.92,4.08-.05,8.15-.02,12.23-.02.2,0,.4,0,.6,0,.39.01.37-.19.24-.44-.09-.18-.21-.34-.32-.51-1.91-3.08-3.81-6.17-5.72-9.25-1.99-3.22-3.98-6.44-5.97-9.66-.19-.31-.57-.6-.07-1,.81-.65,1.16-1.59,1.56-2.51.45-1.02.88-2.06,1.42-3.02,1.01-1.79,2.51-2.85,4.66-2.82.52,0,1.04-.03,1.56,0,.58.05.76-.18.75-.75-.02-3.07-.02-6.14,0-9.22,0-.52-.08-.81-.71-.79-1.8.04-3.6-.09-5.39.05-2.76.22-5.32,1.02-7.29,3.14-1.1,1.19-1.89,2.56-2.57,4.01-.86,1.84-1.67,3.7-2.59,5.51-1.03,2.03-2.6,3.15-4.88,3.31-1.17.08-1.23.08-1.23-1.07,0-4.63,0-9.26,0-13.88,0-1.03-.01-1.04-1.05-1.04-3.4,0-6.79,0-10.19,0-1.31,0-1.24-.12-1.24,1.21,0,6.26,0,12.53,0,18.79s0,12.53,0,18.79c0,1.15,0,1.15,1.18,1.15,3.4,0,6.79,0,10.19,0,1.1,0,1.11,0,1.11-1.1,0-4.15,0-8.3,0-12.45,0-.71-.31-1.6.16-2.07.47-.47,1.37-.09,2.07-.18Z"/>
    <path class="cls-1" d="M208.44,230.15c-2.73-.98-5.56-1.38-8.76-1.34-1.54-.08-3.36.13-5.16.49-6.84,1.4-11.6,5.29-13.87,11.94-1.9,5.59-1.94,11.3-.19,16.91,2.04,6.56,6.49,10.72,13.23,12.34,3.94.95,7.92.98,11.86.17,6.6-1.35,11.27-5.15,13.55-11.52,2.16-6.04,2.13-12.21,0-18.26-1.83-5.22-5.42-8.84-10.67-10.73ZM207.25,255.85c-.42,1.96-1.2,3.83-2.92,5.06-3.22,2.32-9.72,2.21-11.45-4.25-.57-2.13-.82-4.29-.73-6.45-.08-2.28.1-4.5.73-6.66.22-.77.53-1.5.89-2.21,1.42-2.8,3.82-3.8,6.96-3.56,3.98.31,5.66,2.87,6.48,6.45.88,3.84.87,7.75.05,11.61Z"/>
    <path class="cls-1" d="M226.47,249.93c0,6.31,0,12.61,0,18.92,0,1.12,0,1.13,1.07,1.13,3.44,0,6.87,0,10.31,0,1.07,0,1.08,0,1.08-1.12,0-4.99,0-9.98,0-14.96,0-.96.01-.98.99-.98,3.56,0,7.11,0,10.67,0,1.24,0,1.24,0,1.24,1.23,0,4.95,0,9.9,0,14.84,0,.97.02.98.99.98,3.52,0,7.03,0,10.55,0,.92,0,.94-.02.94-.91,0-12.69,0-25.38,0-38.07,0-.95-.02-.96-1.01-.96-3.48,0-6.95,0-10.43,0-1.03,0-1.04.01-1.04,1.06,0,3.87,0,7.74,0,11.61,0,1.25.12,1.19-1.14,1.19-3.56,0-7.11,0-10.67,0-1.08,0-1.09,0-1.09-1.1,0-3.87,0-7.74,0-11.61,0-1.28.07-1.14-1.18-1.14-3.4,0-6.79,0-10.19,0-.2,0-.4,0-.6,0-.35,0-.5.16-.5.51,0,.28,0,.56,0,.84,0,6.19,0,12.37,0,18.56Z"/>
  </g>
  <path class="cls-1" d="M32.47,211.9c-6.23,6.23-6.23,16.27-6.23,36.33v3.55c0,20.06,0,30.1,6.23,36.33,6.23,6.23,16.27,6.23,36.33,6.23h3.55c20.06,0,30.1,0,36.33-6.23,6.23-6.23,6.23-16.27,6.23-36.33v-3.55c0-20.06,0-30.1-6.23-36.33-6.23-6.23-16.27-6.23-36.33-6.23h-3.55c-20.06,0-30.1,0-36.33,6.23ZM41.2,232.63h10.12c.33,16.92,7.8,24.09,13.71,25.57v-25.57h9.53v14.59c5.84-.63,11.97-7.28,14.04-14.59h9.53c-.78,3.79-2.33,7.39-4.57,10.55-2.23,3.17-5.09,5.84-8.4,7.85,3.7,1.84,6.96,4.43,9.58,7.63,2.62,3.19,4.53,6.9,5.61,10.89h-10.49c-.97-3.46-2.93-6.56-5.66-8.91-2.72-2.35-6.08-3.84-9.64-4.28v13.19h-1.15c-20.21,0-31.74-13.86-32.22-36.91Z"/>
</svg>