<?xml version="1.0" encoding="UTF-8"?>
<svg id="Layer_1" data-name="Layer 1" xmlns="http://www.w3.org/2000/svg" version="1.1" viewBox="0 0 500 500">
  <defs>
    <style>
      .cls-1 {
        fill: #12519f;
        stroke-width: 0px;
      }
    </style>
  </defs>
  <path class="cls-1" d="M10,186.08c4.78.33,9.25,1.57,13.03,4.65,5.22,4.25,7.95,9.72,7.95,16.5,0,14.22-.08,28.43.03,42.65.06,8.27,3.02,15.29,10.3,19.77,12.35,7.59,30.64,2.36,33.59-15.33.23-1.37.3-2.77.3-4.16.02-14.37-.01-28.73.02-43.1.02-9.01,6.02-17.14,14.64-19.81,1.92-.59,3.95-.84,6.08-1.27.07.76.15,1.2.15,1.63-.01,21.5.3,43.01-.15,64.5-.41,19.56-13.32,34.4-32.26,38.09-9.84,1.92-19.61,1.53-28.96-2.36-13.25-5.52-21.04-15.54-23.72-29.55-.44-2.28-.67-4.61-.99-6.91,0-21.76,0-43.51,0-65.27Z"/>
  <path class="cls-1" d="M489.93,272.42v18.66c-.61,0-1.14,0-1.67,0-17.85,0-35.7.01-53.55,0-15.08,0-28.24-11.49-30.38-26.43-1.41-9.85,1.62-18.17,8.53-25.2.28-.28.57-.55.85-.84.07-.07.1-.17.21-.34-1.05-1.15-2.14-2.29-3.17-3.49-9.88-11.54-8.43-27.94.9-38.14,6.23-6.81,13.93-10.25,23.23-10.22,17.7.06,35.4.02,53.1.02q1.98,0,1.98,1.94c0,4.94-.05,9.88.03,14.82.02,1.4-.43,1.76-1.79,1.75-16.9-.04-33.8-.03-50.7-.02-5.82,0-10.59,3.52-11.99,8.78-2.03,7.63,3.64,14.83,11.79,14.86,10.95.04,21.9.01,32.85.01q2.27,0,2.27,2.3c0,4.74,0,9.48,0,14.22q0,1.98-1.94,1.99c-10.8,0-21.6-.03-32.4.02-5.4.03-9.45,2.5-11.7,7.39-2.27,4.93-1.6,9.67,1.96,13.81,2.35,2.73,5.46,4.12,9.12,4.12,16.85,0,33.7,0,50.55,0h1.9Z"/>
  <path class="cls-1" d="M125,256.99c0-10.48-.14-20.96.03-31.43.31-18.85,12.95-34.21,31.39-38.13,11.34-2.41,22.51-1.73,32.98,3.6,11.53,5.87,18.33,15.44,20.6,28.11.65,3.61.88,7.33.9,11,.08,19.76.02,39.51.07,59.27,0,1.47-.44,1.84-1.86,1.82-5.7-.07-11.4-.03-17.1-.03-1.99,0-2,0-2-1.97,0-20.51,0-41.01,0-61.52,0-6.31-1.74-12.05-6.24-16.64-6.21-6.32-13.9-7.91-22.22-5.72-8.21,2.16-13.06,7.93-15.07,16.06-.46,1.86-.63,3.84-.63,5.77-.04,20.7-.04,41.41,0,62.11,0,1.49-.33,1.97-1.88,1.95-5.7-.09-11.4-.08-17.1,0-1.48.02-1.97-.35-1.96-1.91.07-10.78.04-21.55.04-32.33.02,0,.03,0,.05,0Z"/>
  <path class="cls-1" d="M289.24,204.55v-18.26h85.77v18.22h-32.33v2.25c0,27.49,0,54.97,0,82.46,0,1.96,0,1.97-1.95,1.97-5.7,0-11.4-.05-17.1.03-1.46.02-1.84-.44-1.83-1.86.04-27.34.03-54.68.03-82.01,0-.5-.03-1,0-1.5.07-.93-.27-1.43-1.28-1.32-.35.04-.7,0-1.05,0-9.45,0-18.9,0-28.35,0h-1.92Z"/>
  <path class="cls-1" d="M239.64,186.25h20.75c.03.59.08,1.12.08,1.65,0,33.83,0,67.66.03,101.48,0,1.42-.36,1.88-1.83,1.86-5.75-.08-11.5-.08-17.25,0-1.49.02-1.81-.48-1.81-1.88.04-33.83.03-67.66.03-101.48v-1.63Z"/>
</svg>