<?xml version="1.0" encoding="UTF-8"?>
<svg id="Layer_1" data-name="Layer 1" xmlns="http://www.w3.org/2000/svg" version="1.1" viewBox="0 0 500 500">
  <defs>
    <style>
      .cls-1 {
        fill: #f4f3f3;
      }

      .cls-1, .cls-2, .cls-3 {
        stroke-width: 0px;
      }

      .cls-2 {
        fill: #f04b38;
      }

      .cls-3 {
        fill: #2a272a;
      }
    </style>
  </defs>
  <rect class="cls-3" x="16.11" y="213.71" width="130.75" height="72.58" rx="7.81" ry="7.81" transform="translate(-61.6 29.39) rotate(-14.91)"/>
  <path class="cls-2" d="M233.42,249.21c0-10.68,0-21.36,0-32.04,0-.62.05-1.25,0-1.87-.14-1.55.42-2.23,2.11-2.2,4.27.09,8.54.1,12.81,0,1.68-.04,2.14.58,2.12,2.16-.06,7.05-.03,14.1-.03,21.15,0,.73.07,1.46-.01,2.18-.19,1.72.67,2.09,2.21,2.08,8.96-.05,17.92,0,26.87-.03,2.13,0,2.18-.06,2.19-2.33.02-7.46,0-14.93.01-22.39,0-2.75.03-2.77,2.68-2.78,3.75-.02,7.5,0,11.25,0,3.31,0,3.32.01,3.33,3.18.01,3.42,0,6.84,0,10.26,0,18.04,0,36.08,0,54.12,0,.62.01,1.24,0,1.87-.05,2.69-.07,2.74-2.85,2.75-3.96.02-7.92.02-11.87,0-2.5-.01-2.53-.04-2.53-2.62-.02-7.67,0-15.34,0-23.02,0-.73-.04-1.45,0-2.18.07-1.22-.5-1.61-1.68-1.61-9.27.03-18.54.04-27.81,0-1.66,0-1.81.85-1.8,2.15.03,7.46.02,14.93.02,22.39,0,.73,0,1.45,0,2.18-.03,2.68-.04,2.7-2.77,2.71-3.65.01-7.29,0-10.94,0-3.28,0-3.3,0-3.3-3.16,0-6.84,0-13.69,0-20.53,0-4.15,0-8.29,0-12.44Z"/>
  <path class="cls-2" d="M489.26,270.29c0,4.81-.01,9.25,0,13.7,0,1.11-.58,1.42-1.57,1.35-.52-.04-1.04,0-1.56,0-15.21,0-30.42,0-45.63,0-.52,0-1.04-.02-1.56,0-1.01.05-1.58-.34-1.56-1.42.01-.62-.01-1.24-.01-1.87,0-21.88,0-43.76,0-65.64,0-.41.05-.84,0-1.24-.22-1.71.65-2.06,2.19-2.05,15.84.04,31.67.02,47.51.03,2.15,0,2.18.05,2.2,2.26.03,3.53.02,7.05,0,10.58-.01,2.54-.03,2.57-2.52,2.57-9.48.01-18.96,0-28.44,0-.73,0-1.46.03-2.19,0-1.22-.06-1.68.59-1.68,1.7,0,3.11,0,6.22,0,9.33,0,.98.44,1.56,1.5,1.53.73-.02,1.46,0,2.19,0,9.27,0,18.54,0,27.82,0,2.69,0,2.7.03,2.71,2.75.01,3.21.02,6.43,0,9.64-.02,2.55-.04,2.59-2.57,2.6-9.27.02-18.54,0-27.82,0-3.71,0-3.74,0-3.83,3.7-.06,2.69-.05,5.39,0,8.09.04,2.31.07,2.36,2.55,2.36,9.9.02,19.79,0,29.69,0,.72,0,1.44,0,2.58,0Z"/>
  <path class="cls-2" d="M369.16,237.94c0,6.64.08,13.27-.02,19.9-.13,8.2-2.7,15.43-8.84,21.18-2.7,2.53-5.8,4.4-9.3,5.51-9.27,2.93-18.67,3.08-27.96.35-10.72-3.15-16.7-10.69-18.84-21.44-.47-2.35-.65-4.71-.65-7.1,0-13.37,0-26.75,0-40.12,0-.52.02-1.04,0-1.55-.02-1,.38-1.53,1.47-1.53,4.79.02,9.58.03,14.37,0,1.28,0,1.57.67,1.55,1.77-.04,1.66,0,3.32,0,4.98,0,12.34.06,24.67-.03,37.01-.04,5.63,3.47,11.97,9.73,13.7,3.8,1.05,7.59,1.07,11.36,0,5.4-1.54,9.11-6.09,9.65-11.77.14-1.44.13-2.9.14-4.35,0-12.86,0-25.71,0-38.57,0-2.72.03-2.74,2.72-2.75,4.06-.02,8.12-.02,12.19,0,2.4.01,2.44.04,2.45,2.39.02,7.46,0,14.93,0,22.39Z"/>
  <path class="cls-2" d="M162.29,265.23c.62.32,1.2.07,1.8-.11,2.39-.7,4.82-1.32,7.18-2.09,2.83-.93,4.88-.74,7.45,1.57,11.49,10.35,29.03,4.92,33.13-10.06.51-1.86,1.41-2.73,3.21-3.16,4.32-1.05,8.6-2.23,13.11-3.42.77,4.53.12,8.69-1.27,12.69-4.85,13.96-14.75,22.61-29.26,24.88-17.37,2.73-33.12-6.67-39.48-22.29-7.94-19.49,1.98-41.92,23.27-48.52,11.34-3.51,22.21-1.6,32.01,5.33,1.83,1.29,1.82,1.49.07,2.92-3.14,2.56-6.34,5.04-9.41,7.68-1.19,1.03-2.12,1.17-3.6.53-9.09-3.95-18.14-1.94-24.46,5.71-4.03,4.88-5.58,10.65-3.94,16.88.5,1.91-.03,2.89-1.35,3.94-2.52,2-5,4.05-7.48,6.1-.45.37-1.08.66-.99,1.42Z"/>
  <path class="cls-2" d="M403.47,213.14c8.75,0,17.5,0,26.25,0,2.69,0,2.71.03,2.72,2.76.02,3.52-.06,7.05.03,10.57.04,1.65-.59,2.13-2.19,2.11-5-.08-10-.03-15-.03-3.45,0-3.47.01-3.47,3.38,0,16.48,0,32.97,0,49.45,0,.62-.05,1.25,0,1.87.17,1.68-.65,2.13-2.21,2.1-4.16-.07-8.33,0-12.5-.03-2.24-.02-2.29-.05-2.31-2.22-.04-3.42-.01-6.84-.01-10.26,0-13.37,0-26.75,0-40.12,0-.62.01-1.24,0-1.87-.06-2.22-.06-2.27-2.25-2.28-5-.03-10-.01-15-.01-.62,0-1.25-.02-1.87,0-1.06.04-1.51-.47-1.51-1.49,0-4.15.02-8.29,0-12.44,0-1.29.74-1.52,1.82-1.5,2.39.04,4.79.01,7.19.01,6.77,0,13.54,0,20.31,0Z"/>
  <path class="cls-1" d="M62.27,254.05c7.72.43,12.53,6.45,13.53,13.15,1.04,7.01-2.58,13.33-9.07,16.04-4.32,1.81-8.94,2.65-13.44,3.89-5.7,1.58-11.41,3.09-17.12,4.63-.3.08-.59.2-.89.27-2.66.58-2.92.43-3.62-2.21-1.53-5.79-3.04-11.58-4.59-17.36-2.83-10.57-5.69-21.13-8.53-31.7-.19-.7-.23-1.45-.5-2.11-.57-1.42-.11-2.03,1.36-2.41,9.34-2.39,18.66-4.87,27.99-7.3,4.58-1.19,9.1-1.14,13.27,1.32,8.24,4.86,9.37,16.28,2.34,22.81-.21.2-.36.48-.72.98ZM62.69,268.57c-.11-4.34-3.71-7.3-7.87-6.37-4.75,1.06-9.43,2.45-14.16,3.6-1.61.39-1.97,1.21-1.55,2.69.8,2.78,1.58,5.57,2.27,8.38.37,1.49,1.06,1.71,2.48,1.26,3.06-.97,6.18-1.77,9.3-2.57,2.01-.52,4.07-.81,5.95-1.74,2.26-1.11,3.37-2.98,3.58-5.24ZM32.82,244.72c.78,2.96,1.58,5.95,2.33,8.94.34,1.35.9,1.84,2.43,1.41,4.39-1.25,8.86-2.24,13.26-3.49,3.49-.99,5.15-3.92,4.33-7.17-.77-3.04-3.54-4.74-7.03-3.99-3.75.81-7.45,1.86-11.15,2.87-1.38.38-2.9.4-4.17,1.43Z"/>
  <path class="cls-1" d="M85.22,220.42c-.23-1.34.42-1.78,1.3-2.01,1.51-.38,3.03-.68,4.54-1.09,11.91-3.18,23.81-6.38,35.72-9.57.5-.13,1.01-.25,1.51-.34,1.11-.19,1.66.19,1.92,1.39.52,2.42,1.17,4.82,1.96,7.16.46,1.36.02,1.92-1.2,2.25-2.5.67-5,1.34-7.5,2.01-1.41.38-2.82.71-4.22,1.13-2.84.85-2.84.86-2.04,3.82,3.48,12.85,6.97,25.69,10.44,38.54.13.5.09,1.08.32,1.51.82,1.52-.05,2.15-1.31,2.41-3.06.62-6.02,1.55-8.99,2.45-1.15.35-1.62-.02-1.94-1.22-1.5-5.68-3.14-11.33-4.67-17-2.02-7.46-3.97-14.95-5.98-22.41-1.07-3.96-1.11-3.98-5.16-2.95-3.42.87-6.83,1.77-10.21,2.76-1.41.41-2.11.13-2.46-1.35-.62-2.61-1.4-5.18-2.04-7.5Z"/>
  <path class="cls-1" d="M68.96,223.33c3.51-1.21,7.02-2.09,10.52-2.98,1.16-.29,1.64-.08,1.97,1.14,3.57,13.47,7.21,26.91,10.83,40.37,1.02,3.79,2.05,7.57,3.04,11.37.66,2.53.53,2.65-2.12,3.31-2.51.62-5.03,1.24-7.5,2.02-1.41.45-2.03.24-2.41-1.3-1.1-4.4-2.4-8.75-3.58-13.14-2.83-10.47-5.68-20.93-8.42-31.43-.8-3.07-1.97-6.06-2.33-9.37Z"/>
  <path class="cls-3" d="M62.69,268.57c-.21,2.27-1.32,4.13-3.58,5.24-1.88.93-3.95,1.23-5.95,1.74-3.11.8-6.23,1.61-9.3,2.57-1.42.45-2.11.23-2.48-1.26-.69-2.81-1.47-5.6-2.27-8.38-.43-1.48-.06-2.3,1.55-2.69,4.73-1.15,9.41-2.53,14.16-3.6,4.16-.93,7.76,2.03,7.87,6.37Z"/>
  <path class="cls-3" d="M32.82,244.72c1.27-1.03,2.79-1.05,4.17-1.43,3.7-1.01,7.4-2.06,11.15-2.87,3.49-.75,6.25.95,7.03,3.99.83,3.25-.84,6.18-4.33,7.17-4.39,1.25-8.86,2.24-13.26,3.49-1.53.44-2.09-.06-2.43-1.41-.75-2.99-1.55-5.98-2.33-8.94Z"/>
</svg>