<?xml version="1.0" encoding="UTF-8"?>
<svg id="Layer_1" data-name="Layer 1" xmlns="http://www.w3.org/2000/svg" version="1.1" viewBox="0 0 500 500">
  <defs>
    <style>
      .cls-1 {
        fill: #ba2f2a;
      }

      .cls-1, .cls-2 {
        stroke-width: 0px;
      }

      .cls-2 {
        fill: #ba2e2a;
      }
    </style>
  </defs>
  <path class="cls-1" d="M127.53,241.98c-.25,17.75-7.01,32.47-20.66,43.97-1.84,1.55-1.47,1.31-.36,2.94,1.46,2.14,3.21,4.06,5.2,5.74,2.16,1.82,4.66,2.94,7.46,3.14,4.77.33,8.71-1.96,10.24-7.15q.6-2.02,2.6-2.03c1.65,0,3.3.05,4.95-.02,1.06-.04,1.53.24,1.58,1.41.58,12.74-8.55,23.93-21.26,25.84-11.98,1.8-21.79-2.01-29.2-11.65-1.19-1.55-2.32-3.16-3.3-4.85-.65-1.11-1.19-1.46-2.57-1.11-4.57,1.16-9.25,1.71-13.98,1.61-16.76-.34-30.99-6.58-42.56-18.6-10.65-11.07-15.7-24.44-15.67-39.79.07-27.55,19.49-49.81,44.86-55.88,19.58-4.69,37.19-.12,52.58,12.63,10.94,9.06,17.24,20.91,19.47,34.89.47,2.93.76,5.91.63,8.91ZM95.65,271.23c.57-.29.65-.6.77-.89,2.68-6.44,3.77-13.22,4.19-20.11.44-7.2.39-14.4-.45-21.57-.76-6.48-2.15-12.8-5.19-18.64-3.29-6.31-8.19-10.87-15.05-13.02-6.97-2.18-14.06-2.29-21.12-.37-8.7,2.36-14.18,8.26-17.53,16.36-2.72,6.59-3.81,13.54-4.21,20.59-.4,7.2-.42,14.4.42,21.58.68,5.77,1.85,11.42,4.26,16.75,3.32,7.36,8.58,12.67,16.48,14.99,5.58,1.64,11.28,1.85,17,.84.97-.17,2.06-.08,2.91-.95-2.15-4.25-4.42-8.45-7.71-11.98-3.98-4.28-8.79-6.37-14.73-5.73-1.35.15-2.84,1.38-3.92.5-1-.81-1.36-2.41-1.99-3.67-1.59-3.16-1.6-3.19,1.52-5.08,5.02-3.05,10.52-4.28,16.35-4.5,10.35-.39,18.87,3.16,25.32,11.35.92,1.17,1.78,2.38,2.67,3.57Z"/>
  <path class="cls-1" d="M200.52,284.1c-.87.21-1.17.91-1.64,1.42-5.93,6.42-13.21,10.12-21.94,11.06-3.94.42-7.82.33-11.7-.45-9.49-1.9-15.03-7.81-17.44-16.96-1.09-4.13-1.2-8.36-1.22-12.59-.06-12.06-.02-24.13-.03-36.19,0-1.25-.02-2.51-.18-3.75-.29-2.24-1.49-3.47-3.68-4.03-2.24-.57-4.53-.33-6.8-.39-1.7-.04-1.73-.04-1.74-1.61-.02-2.43.06-4.86-.03-7.28-.04-1.23.34-1.63,1.58-1.6,3.85.07,7.7.02,11.54.02,6.91,0,13.82-.01,20.73,0,2.77,0,2.41-.33,2.41,2.33.01,17.7,0,35.41,0,53.11,0,1.57.08,3.11.38,4.67.97,5.08,3.86,8.4,8.99,9.28,7.14,1.22,13.37-.56,18.19-6.27,1.21-1.43,1.76-2.97,1.75-4.91-.08-13.32-.04-26.63-.05-39.95,0-1.02.03-2.04-.09-3.05-.31-2.58-1.54-3.81-4.13-4.42-2.18-.52-4.38-.27-6.57-.31-2.12-.04-1.95.08-1.95-1.87,0-2.35.07-4.7-.03-7.05-.05-1.24.36-1.6,1.58-1.59,5.58.06,11.15.02,16.73.02,5.42,0,10.84,0,16.26,0,2.05,0,2.07.02,2.07,2.02,0,5.48,0,10.97,0,16.45,0,12.85,0,25.7,0,38.54,0,1.33,0,2.67.1,3.99.25,3.24,1.9,5.15,5.06,5.93.61.15,1.23.25,1.84.35.92.16,2.09-.37,2.71.26.7.72.25,1.93.28,2.92.04,2.04-.06,4.08.04,6.11.06,1.27-.36,1.79-1.64,1.97-4.03.57-8.06,1.24-12.08,1.88-5.65.9-11.3,1.79-16.95,2.7-1.98.32-1.99.34-2-1.61-.02-2.43.01-4.86-.02-7.29,0-.6.22-1.25-.38-1.91Z"/>
  <path class="cls-1" d="M487.35,278.89c1.05,1.79,1.57,3.78,2.47,5.59.42.85.06,1.48-.45,2.13-2.21,2.85-5,5-8.29,6.39-5.9,2.5-12.01,2.93-18.17,1.13-5.41-1.58-8.95-5-9.82-10.77-.02-.13-.16-.25-.25-.39-.76-.14-.83.54-1.09.96-4.63,7.56-11.59,11.36-20.21,12.58-4.17.59-8.29.45-12.39-.44-10.59-2.3-16.44-9.51-16.57-20.29-.1-7.89,3.19-13.85,9.94-17.95,4.46-2.71,9.36-4.32,14.25-5.99,5.4-1.84,10.89-3.48,15.94-6.22,3.13-1.7,5.93-3.8,8.12-6.66.69-.91,1.03-1.84,1.01-3.01-.04-2.75-.19-5.46-.86-8.14-1.77-7.17-6.02-8.35-11.53-8.26-5.3.09-9.05,2.63-11.27,7.45-.78,1.7-1.59,3.4-2.53,5.02-3.22,5.57-10.87,7.51-16.41,4.21-3.36-2-4.94-6.33-3.91-10.74.97-4.13,3.59-7.05,6.98-9.38,3.34-2.29,7.07-3.72,10.97-4.65,7.84-1.87,15.8-2.29,23.84-1.67,4.56.35,9.04.98,13.35,2.52,8.98,3.2,13.67,9.74,14.92,19,.36,2.65.42,5.3.42,7.96,0,10.42,0,20.83,0,31.25,0,1.02-.05,2.04.06,3.05.57,5.48,3.74,7.32,9.04,6.19.83-.18,1.61-.56,2.47-.87ZM451.84,249.62c-4.91,4.31-10.73,6.12-16.01,8.93-1.66.88-3.23,1.9-4.72,3.06-4.84,3.77-5.85,9.5-4.27,14.79.92,3.05,3.08,5.02,6.14,5.95,5.62,1.71,11.56-.35,14.93-5.17,1.87-2.68,2.91-5.68,3.41-8.89.94-6.06.23-12.14.51-18.67Z"/>
  <path class="cls-1" d="M325.77,252.46c-.37,15.69-6.11,28.41-19.32,37.09-9.17,6.02-19.4,8.27-30.29,6.96-15.67-1.88-27.77-9.54-34.63-23.79-7.78-16.16-6.59-32.08,4.3-46.66,6.18-8.28,14.78-13.19,24.86-15.35,12.57-2.7,24.56-1,35.48,5.87,11.87,7.47,18.17,18.44,19.34,32.37.1,1.25.18,2.5.26,3.51ZM299.06,251.78c.15-3.53-.1-7.05-.5-10.54-.49-4.36-1.44-8.61-3.33-12.62-5.15-10.92-20.83-11.18-26.74-1.67-1.71,2.75-3.05,5.65-3.79,8.78-2.62,10.98-2.55,22.02-.35,33.04.89,4.47,2.59,8.64,5.48,12.3,5.73,7.28,18.63,6.91,23.64-.91,1.45-2.26,2.52-4.67,3.25-7.24,1.95-6.92,2.28-14.02,2.35-21.14Z"/>
  <path class="cls-2" d="M362.23,228.95c.98-.83,1-1.84,1.35-2.68,2.96-7.14,7.76-12.43,15.19-15.05,3.94-1.39,7.95-1.68,12-.36,4.79,1.56,7.84,5.37,8.25,10.35.17,2.03.13,4.05-.33,6.07-1.47,6.4-6.66,9.6-13.58,8.3-2.37-.44-4.34-1.73-6.37-2.92-2.13-1.26-4.38-2.03-6.93-1.69-2.4.32-4.28,1.47-5.74,3.33-1.91,2.42-2.85,5.26-2.86,8.29-.06,11.36-.02,22.71.01,34.07,0,.77.17,1.55.33,2.31.68,3.18,2.32,4.71,5.47,5.31,2.41.45,4.84.38,7.28.39,2.2,0,2.09-.22,2.09,1.97,0,2.43-.03,4.86.01,7.28.01.88-.25,1.33-1.2,1.24-.47-.04-.94,0-1.41,0-15.55,0-31.09,0-46.64,0-.24,0-.47,0-.71,0-2.22,0-2.01.11-2.01-2.05,0-2.27-.01-4.54,0-6.81.01-1.6.03-1.62,1.71-1.63,2.04-.01,4.08.01,6.1-.37,3.11-.58,4.44-1.92,5-5.05.28-1.55.33-3.11.33-4.68,0-14.96,0-29.92,0-44.88,0-.63,0-1.26-.06-1.88-.33-3.08-1.75-4.56-4.79-5.24-2.1-.47-4.22-.32-6.33-.33-.9,0-1.26-.27-1.24-1.2.04-2.66.06-5.33,0-7.99-.02-1.07.42-1.4,1.39-1.3.31.03.63,0,.94,0,9.58,0,19.16,0,28.74,0,2.29,0,2.07-.17,2.25,1.89.4,4.44.87,8.88,1.31,13.31.06.6,0,1.23.46,1.98Z"/>
</svg>