<?xml version="1.0" encoding="UTF-8"?>
<svg id="Layer_1" xmlns="http://www.w3.org/2000/svg" xmlns:xlink="http://www.w3.org/1999/xlink" viewBox="0 0 500 500">
  <defs>
    <style>
      .cls-1 {
        fill: url(#linear-gradient-2);
      }

      .cls-2 {
        fill: url(#linear-gradient);
      }
    </style>
    <linearGradient id="linear-gradient" x1="18.92" y1="194.26" x2="110.71" y2="300.12" gradientUnits="userSpaceOnUse">
      <stop offset="0" stop-color="#a3265f"/>
      <stop offset="1" stop-color="#e71d32"/>
    </linearGradient>
    <linearGradient id="linear-gradient-2" x1="198.95" y1="224.11" x2="493.46" y2="264.09" xlink:href="#linear-gradient"/>
  </defs>
  <path class="cls-2" d="M68.55,250.05h1.74c9.15,0,18.31.01,27.46,0,8.08-.01,14.41-6.76,14.51-14.46.1-7.12-5.61-14.41-13.98-14.73-.68-.03-1.35-.07-2.03-.07-28.06,0-56.11,0-84.17,0h-1.72c-.05-.33-.15-.61-.14-.89.3-6.01,1.48-11.8,4.05-17.29,2.45-5.24,5.76-9.86,10.02-13.78,5.32-4.9,11.48-8.33,18.5-10.16,3.33-.87,6.7-1.36,10.15-1.37,14.57-.03,29.15-.16,43.72-.14,7.8.01,15.4,1.26,22.67,4.23,6.17,2.52,11.78,5.94,16.76,10.36,8,7.1,13.69,15.71,16.97,25.9,1.31,4.08,2.14,8.25,2.54,12.52.29,3.09.34,6.17.13,9.25-.48,6.93-2.11,13.59-4.97,19.94-2.38,5.29-5.47,10.12-9.29,14.48-4.81,5.51-10.48,9.95-16.96,13.35-5.9,3.1-12.17,5.07-18.75,6.02-3.14.45-6.31.73-9.49.54-6.81-.41-12.83-2.79-17.96-7.36-4.91-4.38-7.97-9.81-9.24-16.24-.27-1.4-.41-2.85-.44-4.28-.1-4.82-.13-9.65-.18-14.47,0-.41.04-.82.07-1.36ZM15.58,322.6c5.57-.66,10.82-2.36,15.71-5.09,8.5-4.76,14.78-11.6,18.8-20.49,2.33-5.15,3.69-10.56,3.73-16.2.1-14.74.03-29.48.03-44.23,0-.32-.07-.64-.12-1.09-1.44.1-2.78.18-4.12.3-6.07.55-11.76,2.33-17.04,5.35-8.1,4.63-14.16,11.16-18.17,19.6-2.69,5.67-4.08,11.66-4.13,17.9-.1,14.28-.03,28.55-.03,42.83,0,.41.04.82.07,1.29,1.84.14,3.56.03,5.28-.17Z"/>
  <path class="cls-1" d="M480,250.47c3.21,4.6,6.45,9.23,9.79,14.01-.46.06-.73.12-1,.12-1.48,0-2.97,0-4.45,0-2.3,0-4.05-.94-5.29-2.91-3.32-5.26-6.67-10.5-10.01-15.75-.09-.14-.16-.29-.33-.62.64-.01,1.16-.01,1.68-.04,2.84-.13,5.53-.71,7.86-2.47,1.6-1.21,2.43-2.85,2.79-4.81.27-1.5.09-2.95-.29-4.38-.53-1.99-1.81-3.42-3.58-4.41-1.77-1-3.73-1.42-5.72-1.47-3.18-.08-6.36-.02-9.54-.02-.33,0-.65.08-1.1.13,0,.57,0,1.07,0,1.57,0,9.49,0,18.98,0,28.48,0,1.37-.13,2.7-.88,3.9-1.01,1.62-2.44,2.56-4.34,2.72-.87.07-1.75.01-2.73.01-.03-.51-.06-.93-.06-1.34,0-12.12.02-24.24-.02-36.36-.01-3,2.54-5.89,5.77-5.82,4.96.11,9.92-.02,14.87.13,3.2.1,6.24,1.03,9.02,2.69,2.93,1.75,4.91,4.24,5.96,7.46,1.09,3.31,1.1,6.66.1,9.99-1.18,3.92-3.77,6.64-7.39,8.43-.3.15-.62.28-.92.43-.07.03-.1.13-.21.29ZM332.87,249.79c3.27-1.62,5.76-3.97,7.1-7.43.82-2.12,1.14-4.33,1.04-6.59-.23-5.3-2.49-9.4-7.11-12.12-2.65-1.55-5.55-2.38-8.57-2.47-5.16-.17-10.34-.14-15.51-.09-2.81.03-5.14,2.57-5.14,5.43,0,12.29,0,24.57,0,36.86,0,.37.05.74.09,1.23.67,0,1.25-.01,1.83,0,3.75.09,6-3.11,5.97-6.01-.12-9.74-.05-19.49-.04-29.24,0-.49.04-.99.06-1.51.37-.05.61-.11.86-.11,3.26,0,6.53-.1,9.79.04,1.54.06,3.1.44,4.57.92,2.15.69,3.7,2.17,4.55,4.31.51,1.28.61,2.62.56,3.99-.12,2.94-1.39,5.17-4,6.59-2.17,1.18-4.5,1.67-6.95,1.71-.44,0-.87.04-1.42.06.17.34.25.53.36.71,3.31,5.21,6.63,10.42,9.95,15.64,1.17,1.85,2.83,2.87,5.04,2.9,1.61.02,3.22,0,4.83,0,.23,0,.46-.06.87-.13-3.32-4.75-6.54-9.36-9.87-14.13.48-.23.81-.39,1.14-.56ZM433.68,221.06c-8.39,0-16.78.04-25.17-.03-2.38-.02-5.31,2.21-5.31,5.4,0,12.33,0,24.66,0,36.99,0,.36.06.73.1,1.1h32.39c.27-1.29.03-2.44-.54-3.5-1.13-2.09-2.9-3.1-5.28-3.09-5.72.01-11.44,0-17.16,0-.49,0-.98-.04-1.49-.07v-12.15c.54,0,1,0,1.46,0,4.58,0,9.15,0,13.73,0,1.32,0,2.49-.39,3.55-1.16,1.71-1.26,2.58-3.47,2.07-5.41-6.9-.07-13.83.04-20.82-.06v-11.42c.52,0,.98,0,1.43,0,5.51,0,11.02-.02,16.53,0,3.95.02,6.33-3.59,5.57-6.53-.39-.02-.72-.06-1.05-.06ZM248.08,264.6c2.7-.03,4.56-1.32,5.63-3.78.77-1.78,1.57-3.56,2.27-5.37.29-.76.69-1.03,1.48-1.03,6.61.02,13.22.03,19.83,0,.76,0,1.15.28,1.42.96.75,1.84,1.57,3.65,2.34,5.48.69,1.65,1.81,2.87,3.53,3.41,2.05.64,4.14.29,6.37.29-.16-.41-.24-.64-.34-.86-2.48-5.51-4.96-11.03-7.44-16.54-3.32-7.36-6.65-14.72-9.95-22.08-1.32-2.93-3.03-4.08-6.21-4.01-2.29.05-3.95,1.12-4.93,3.18-.73,1.53-1.4,3.08-2.1,4.62-4.94,10.99-9.88,21.98-14.83,32.96-.38.84-.75,1.69-1.24,2.78,1.56,0,2.87.01,4.17,0ZM275.56,247.98c-.93.34-13.8.47-16.31.16.14-.45.24-.87.41-1.27,2.02-4.75,4.06-9.49,6.09-14.23.48-1.12.96-2.23,1.44-3.35.1,0,.2-.02.3-.03,2.69,6.24,5.38,12.47,8.07,18.72ZM204.39,264.49c.59-.04,1.22-.37,1.72-.72,1.22-.83,1.63-2.07,1.63-3.52-.01-10.3,0-20.59,0-30.89,0-.49.04-.98.06-1.48.28-.06.45-.13.61-.13,3.89.05,7.8-.1,11.67.22,4.06.34,7.24,2.49,7.94,6.9.13.83.15,1.69.09,2.53-.19,2.65-1.33,4.79-3.65,6.19-1.28.77-2.69,1.28-4.17,1.41-1.72.15-3.46.14-5.19.21-.44.02-.88.05-1.31.08-.03.3-.06.43-.04.55.55,3.02,2.5,4.71,5.35,5.45,2.75.71,5.47.41,8.12-.53,3.72-1.32,6.33-3.81,7.76-7.51,1.07-2.77,1.47-5.65,1.15-8.6-.52-4.76-2.74-8.48-6.92-10.93-2.64-1.55-5.53-2.45-8.55-2.55-5.25-.17-10.51-.1-15.76-.09-.53,0-1.1.16-1.59.37-2.45,1.06-3.57,3.03-3.58,5.63-.02,12.03-.01,24.07,0,36.1,0,.41.04.83.06,1.34,1.66,0,3.14.07,4.61-.03ZM388.22,264.59c.19,0,.38-.12.55-.17.2-2.73-.92-4.87-3.1-5.96-1.16-.58-2.44-.69-3.7-.69-4.87-.02-9.74,0-14.61-.01-.45,0-.89-.04-1.41-.07v-13.09c0-5.89,0-11.77,0-17.66,0-1.08-.13-2.11-.73-3.04-1.67-2.61-3.67-3.25-7.22-2.64v43.34c10.15,0,20.19,0,30.22,0Z"/>
</svg>