<?xml version="1.0" encoding="UTF-8"?>
<svg id="Layer_1" data-name="Layer 1" xmlns="http://www.w3.org/2000/svg" version="1.1" viewBox="0 0 500 500">
  <defs>
    <style>
      .cls-1 {
        fill: #6e479c;
      }

      .cls-1, .cls-2, .cls-3 {
        stroke-width: 0px;
      }

      .cls-2 {
        fill: #6f489d;
      }

      .cls-3 {
        fill: #6e469c;
      }
    </style>
  </defs>
  <path class="cls-3" d="M421.43,371.87c-2.03,1.44-3.76,2.67-5.48,3.91-4.24,3.03-8.48,6.04-12.69,9.1-.73.53-1.46.76-2.36.75-7.29-.03-14.58-.01-21.88-.02-.28,0-.57,0-.85,0-.47,0-.69-.23-.68-.7,0-.33,0-.66,0-.99,0-3.41,0-6.82,0-10.23,0-.46.11-.93-.13-1.45-.43.13-.67.5-.95.78-3.85,3.85-7.71,7.69-11.53,11.57-.71.72-1.42,1.06-2.47,1.06-13.68-.04-27.37-.03-41.05,0-.97,0-1.68-.27-2.36-.97-3.82-3.88-7.69-7.72-11.54-11.56-.33-.33-.6-.73-1.17-.98-.51,1.47-.68,3-.99,4.49-.54,2.54-1.01,5.1-1.52,7.65-.27,1.34-.28,1.35-1.62,1.35-6.96,0-13.92,0-20.88,0-4.88,0-9.75-.02-14.63.02-1.06,0-1.86-.28-2.67-.99-4.46-3.96-8.96-7.87-13.46-11.79-.3-.26-.53-.67-1.1-.66-.12,1.61-.24,3.19-.34,4.78-.14,2.27-.26,4.54-.4,6.8-.03.42-.1.85-.13,1.27-.03.42-.27.57-.65.56-.33,0-.66,0-.99,0-13.4,0-26.8,0-40.2,0-1.66,0-1.69,0-1.88-1.63-.45-3.89-.87-7.79-1.3-11.71-.59-.06-.74.42-.99.71-3.31,3.84-6.62,7.67-9.88,11.54-.67.8-1.37,1.1-2.42,1.1-21.17-.03-42.33-.03-63.5-.01-1.02,0-1.95-.2-2.89-.58-3.55-1.45-7.11-2.86-10.67-4.27-.47-.19-.92-.51-1.66-.41,0,1.24,0,2.49,0,3.74-.01,1.36.3,1.51-1.43,1.51-11.03,0-22.07,0-33.1,0-.74,0-1.37-.16-2.01-.55-13.17-7.93-26.35-15.84-39.53-23.75-.54-.32-1-.71-1.44-1.15-7.69-7.71-15.38-15.42-23.1-23.1-.62-.62-.88-1.22-.87-2.1.02-35.7.02-71.39.02-107.09,0-.19.02-.38,0-.57-.06-.64.15-1.01.87-.92.23.03.47,0,.71,0,16.38,0,32.77,0,49.15-.02.97,0,1.65.27,2.35.97,7.63,7.7,15.32,15.35,22.96,23.04.56.56,1.13.74,1.88.73,2.51-.03,5.02-.01,7.53-.01,34,0,68,0,102,0,2.11,0,1.78.24,1.78-1.82.01-7.05,0-14.11,0-21.16,0-.33.02-.66,0-.99-.03-.56.24-.76.77-.73.33.02.66,0,.99,0,29.93,0,59.85,0,89.78,0,1.92,0,1.7-.24,1.7,1.77,0,6.91,0,13.82,0,20.74,0,.24,0,.47,0,.71.01,1.54-.19,1.48,1.42,1.48,2.56,0,5.11,0,7.67,0,4.78,0,9.57,0,14.35,0,1.23,0,1.24.01,1.24,1.24,0,4.02,0,8.04,0,12.08.58.07.77-.39,1.04-.67,3.93-3.91,7.86-7.81,11.74-11.76.65-.66,1.31-.92,2.23-.92,8.24.03,16.48,0,24.72.04.97,0,1.66-.26,2.36-.96,7.58-7.62,15.19-15.21,22.77-22.83.69-.7,1.38-.97,2.36-.96,16.38.03,32.77.02,49.15.02,1.7,0,1.57-.22,1.57,1.63,0,6.91,0,13.82,0,20.73,0,.09,0,.19,0,.28q0,2.06,2.13,2.06c6.72,0,13.45,0,20.17,0,2.27,0,4.55.02,6.82-.01.71-.01,1.23.16,1.75.69,7.75,7.79,15.51,15.56,23.3,23.31.63.63.68,1.28.68,2.04,0,24.38,0,48.76,0,73.14,0,2.04-.07,4.08.03,6.11.06,1.27-.34,2.02-1.43,2.74-11.49,7.59-22.94,15.25-34.4,22.89-1.5,1-3.01,1.98-4.49,3-.57.39-1.14.6-1.84.6-8.43-.02-16.86,0-25.29-.01-1.11,0-1.12-.02-1.12-1.22,0-3.6,0-7.2,0-10.79,0-.46,0-.92,0-1.73ZM133.35,349.92c15.1,0,30.21,0,45.31.02.98,0,1.67-.27,2.36-.97,5.73-5.78,11.49-11.54,17.28-17.27.7-.69.97-1.37.97-2.35-.03-12.17-.02-24.33-.02-36.5,0-9.8,0-19.6,0-29.4,0-1.29-.01-1.31-1.18-1.31-9.28,0-18.56,0-27.84,0-1.09,0-1.09.02-1.11,1.08,0,.33,0,.66,0,.99,0,17.85,0,35.69,0,53.54,0,.33,0,.66,0,.99-.03.99-.03,1.01-1.05,1.02-2.75.01-5.49,0-8.24,0-1.96,0-1.71.18-1.72-1.77,0-17.99,0-35.98,0-53.97,0-.38-.02-.76,0-1.14.03-.54-.18-.79-.74-.75-.33.02-.66,0-.99,0-8.9,0-17.8,0-26.71,0-1.96,0-1.71-.2-1.71,1.76,0,17.94,0,35.88,0,53.83,0,.33,0,.66,0,.99-.03,1.01-.03,1.03-1.03,1.04-2.75.01-5.49,0-8.24,0-1.92,0-1.74.17-1.74-1.77,0-17.99,0-35.98,0-53.97,0-.43-.01-.85,0-1.28,0-.4-.16-.62-.58-.61-.28,0-.57,0-.85,0-9.09,0-18.18,0-27.27,0-.28,0-.57,0-.85,0-.41,0-.6.21-.59.61,0,.24,0,.47,0,.71,0,28.36,0,56.71,0,85.07,0,1.47-.08,1.38,1.39,1.38.24,0,.47,0,.71,0,14.82,0,29.64,0,44.46,0ZM393.95,293.68v54.24c0,.38.03.76,0,1.14-.07.71.28.92.93.87.28-.03.57,0,.85,0,8.85,0,17.71,0,26.56,0,2.03,0,1.9.37,1.9-1.88,0-17.94,0-35.88,0-53.82,0-.43.01-.85,0-1.28-.01-.49.24-.67.7-.65.33.01.66,0,.99,0,6.96,0,13.92,0,20.88,0q2.04,0,2.04,2c0,18.08,0,36.16,0,54.24,0,1.48-.06,1.39,1.39,1.39,9.18,0,18.37,0,27.55,0,1.25,0,1.25-.01,1.27-1.24,0-.14,0-.28,0-.43,0-21.82,0-43.64.02-65.46,0-1.09-.35-1.84-1.11-2.6-5.72-5.66-11.41-11.35-17.07-17.07-.73-.74-1.46-1-2.48-1-10.89.03-21.78.02-32.67.02-1.54,0-1.53.18-1.53-1.55,0-7.15,0-14.29,0-21.44,0-.33-.02-.66,0-.99.03-.56-.24-.76-.77-.73-.28.02-.57,0-.85,0-8.95,0-17.9,0-26.84,0-2.01,0-1.76-.21-1.76,1.72,0,18.18,0,36.35,0,54.53ZM57.89,349.92c4.5,0,9,0,13.49,0,1.18,0,2.37-.03,3.55.01.68.02.96-.24.91-.9-.02-.24,0-.47,0-.71,0-8.99,0-17.99,0-26.98,0-.24-.01-.47,0-.71.04-.58-.16-.91-.8-.86-.33.03-.66,0-.99,0-5.73,0-11.46,0-17.19,0-1.47,0-2.94,0-4.4,0-1.26,0-1.27-.01-1.28-1.22,0-.95,0-1.89,0-2.84,0-7.39,0-14.77,0-22.16,0-1.25.01-1.25,1.21-1.27.33,0,.66,0,.99,0,7.1,0,14.2,0,21.31,0,1.12,0,1.15-.02,1.15-1.05,0-9.33,0-18.65,0-27.98,0-1.09-.02-1.09-1.09-1.12-.28,0-.57,0-.85,0-7.15,0-14.3,0-21.45,0-1.25,0-1.25-.01-1.27-1.22,0-.28,0-.57,0-.85,0-6.96,0-13.92,0-20.88,0-.33-.02-.66,0-.99.03-.53-.18-.8-.74-.76-.24.02-.47,0-.71,0-9.09,0-18.18,0-27.27,0-.28,0-.57,0-.85,0-.4,0-.63.16-.63.57,0,.28,0,.57,0,.85,0,30.2,0,60.41-.02,90.61,0,.88.27,1.49.89,2.11,5.84,5.81,11.66,11.64,17.46,17.49.62.62,1.22.89,2.11.88,5.49-.04,10.99-.02,16.48-.02ZM251.34,284.14c0,15.05,0,30.11-.01,45.16,0,.9.2,1.59.87,2.26,5.85,5.8,11.66,11.64,17.46,17.49.61.62,1.22.9,2.1.89,3.79-.05,7.58-.02,11.36-.02,7.24,0,14.49,0,21.73,0,1.3,0,1.31-.01,1.31-1.32,0-2.65,0-5.3,0-7.95,0-6.53,0-13.07,0-19.6,0-1.26-.01-1.26-1.21-1.28-.28,0-.57,0-.85,0-6.91,0-13.83,0-20.74,0-.38,0-.76,0-1.14,0-.47,0-.69-.23-.69-.69,0-.28,0-.57,0-.85,0-8.14,0-16.28,0-24.43,0-1.72-.05-1.51,1.55-1.51,7.24,0,14.49,0,21.73,0,1.33,0,1.34,0,1.34-1.27,0-9.18,0-18.37,0-27.55,0-1.31-.01-1.32-1.3-1.32-5.45,0-10.89,0-16.34,0-1.94,0-3.88,0-5.82,0-1.14,0-1.14-.02-1.17-1.2,0-.28,0-.57,0-.85,0-6.96,0-13.92,0-20.88,0-2.06.16-1.77-1.71-1.77-8.95,0-17.9,0-26.85,0-1.84,0-1.65-.17-1.65,1.69,0,15.01,0,30.01,0,45.02ZM317.19,305.94c0,7.81.01,15.62-.02,23.44,0,.92.25,1.58.91,2.23,5.78,5.74,11.53,11.5,17.25,17.3.72.73,1.43,1.04,2.47,1.04,14.54-.03,29.07-.02,43.61-.03,1.75,0,1.62.2,1.62-1.58,0-9,0-17.99,0-26.99,0-.24-.02-.48,0-.71.07-.71-.28-.93-.93-.88-.33.03-.66,0-.99,0-10.65,0-21.31,0-31.96,0-.38,0-.76-.01-1.14,0-.48.02-.7-.2-.68-.68,0-.24,0-.47,0-.71,0-8.24,0-16.48,0-24.71,0-1.48-.1-1.38,1.39-1.38.24,0,.47,0,.71,0,10.7,0,21.4,0,32.1,0,1.69,0,1.5.11,1.5-1.55,0-9,0-17.99,0-26.99,0-.28-.02-.57,0-.85.03-.54-.19-.79-.75-.76-.28.02-.57,0-.85,0-14.58,0-29.17,0-43.75-.02-.92,0-1.58.25-2.23.91-5.76,5.82-11.55,11.61-17.37,17.38-.66.65-.92,1.31-.92,2.23.03,7.76.02,15.53.02,23.29ZM210.26,306.06c0,6.81,0,13.63,0,20.44,0,7.38,0,14.76,0,22.15,0,1.25.02,1.25,1.23,1.27.09,0,.19,0,.28,0,9.04,0,18.08,0,27.12,0,1.64,0,1.51.13,1.51-1.55,0-28.2,0-56.41,0-84.61,0-1.76.17-1.61-1.59-1.62-8.99,0-17.99,0-26.98,0-1.85,0-1.58-.08-1.58,1.61,0,14.1,0,28.2,0,42.31ZM225.27,251.12c4.63,0,9.27,0,13.9,0,1.22,0,1.23-.01,1.23-1.25,0-3.78,0-7.56,0-11.35,0-1.06-.02-1.08-1.11-1.08-9.32,0-18.63,0-27.95,0-1.06,0-1.08.02-1.08,1.11,0,3.78,0,7.56,0,11.35,0,1.21.01,1.22,1.25,1.22,4.59,0,9.17,0,13.76,0Z"/>
  <path class="cls-1" d="M365.25,89.2c18.04,0,36.08,0,54.12,0,.33,0,.66,0,.99,0q1.03.02,1.06,1c0,.24,0,.47,0,.71,0,24.52,0,49.05.03,73.57,0,1.14-.35,1.91-1.14,2.71-13.91,13.88-27.8,27.78-41.67,41.7-.76.76-1.51,1.09-2.59,1.08-6.25-.05-12.5,0-18.75-.05-1.17,0-2.01.28-2.86,1.15-3.83,3.94-7.75,7.78-11.61,11.69-.68.69-1.38.99-2.36.98-3.6-.05-7.2-.02-10.8-.02-1.52,0-1.52.17-1.51-1.57.01-3.55,0-7.1,0-10.65,0-1.67.09-1.56-1.52-1.56-7.2,0-14.4,0-21.59,0-1.76,0-1.56.18-1.56-1.62,0-32,0-64.01,0-96.01,0-.86.1-1.69.31-2.52,1.63-6.46,3.24-12.93,4.86-19.39.3-1.19.3-1.2,1.61-1.2,18.33,0,36.65,0,54.98,0ZM344.92,196.13c.47-.55.79-.96,1.16-1.33,4.67-4.7,9.37-9.38,14.02-14.09.65-.66,1.29-.94,2.22-.93,9.18.03,18.37,0,27.55.04.98,0,1.66-.29,2.34-.98,5.69-5.75,11.41-11.48,17.16-17.18.77-.76,1.07-1.52,1.07-2.6-.03-19.03-.02-38.05-.02-57.08,0-2,.22-1.75-1.72-1.75-28.97,0-57.94,0-86.91,0-2.08,0-1.83-.3-1.83,1.78,0,25.32,0,50.64,0,75.96,0,.24,0,.47,0,.71q.02,1.09,1.09,1.11c.28,0,.57,0,.85,0,7.01,0,14.01,0,21.02,0,.33,0,.66.02.99,0,.56-.04.76.25.74.77-.01.33,0,.66,0,.99,0,4.31,0,8.61,0,12.92,0,.45-.1.92.27,1.66Z"/>
  <path class="cls-2" d="M380.26,138.62c0-4.92,0-9.83,0-14.75,0-.33.02-.66,0-.99-.04-.55.21-.75.75-.74,1.09.02,2.18,0,3.26,0,2.03,0,4.07.02,6.1-.01.66,0,.99.19.91.88-.03.23,0,.47,0,.71,0,9.93,0,19.86,0,29.79,0,1.76.19,1.58-1.6,1.58-2.7,0-5.39,0-8.09,0-1.31,0-1.32,0-1.32-1.29,0-5.06,0-10.12,0-15.18Z"/>
  <path class="cls-3" d="M361.07,138.76c0,4.87,0,9.74,0,14.61,0,.33-.02.66,0,.99.03.55-.21.74-.76.73-1.42-.02-2.84,0-4.26,0-1.7,0-3.41-.02-5.11,0-.59,0-.9-.16-.83-.8.03-.28,0-.57,0-.85,0-9.88,0-19.77,0-29.65,0-.14,0-.28,0-.43.01-1.22.01-1.23,1.24-1.23,2.79,0,5.58,0,8.37,0,1.32,0,1.33,0,1.34,1.29,0,5.11,0,10.21,0,15.32Z"/>
</svg>