<?xml version="1.0" encoding="UTF-8"?>
<svg id="Layer_1" data-name="Layer 1" xmlns="http://www.w3.org/2000/svg" version="1.1" viewBox="0 0 500 500">
  <defs>
    <style>
      .cls-1 {
        fill: #242424;
      }

      .cls-1, .cls-2, .cls-3, .cls-4, .cls-5, .cls-6, .cls-7, .cls-8 {
        stroke-width: 0px;
      }

      .cls-2 {
        fill: #f04a23;
      }

      .cls-3 {
        fill: #242423;
      }

      .cls-4 {
        fill: #f04b24;
      }

      .cls-5 {
        fill: #252524;
      }

      .cls-9 {
        fill: #fff;
        stroke: #231f20;
        stroke-miterlimit: 10;
      }

      .cls-6 {
        fill: #f04b23;
      }

      .cls-7 {
        fill: #252424;
      }

      .cls-8 {
        fill: #f04d24;
      }
    </style>
  </defs>
  <circle class="cls-9" cx="92.08" cy="249.87" r="72.03"/>
  <g>
    <path class="cls-2" d="M175.33,249.95c.01,45.71-36.91,82.84-82.67,82.84-45.94,0-83.1-37.45-82.65-83.62.44-45.42,37.38-82.01,82.79-81.95,45.56.07,82.54,37.12,82.54,82.73ZM95.23,231.02c-.02-.15-.03-.19-.02-.23,1.76-8.28,3.51-16.57,5.27-24.85.17-.78.2-.78,1.04-.6,5.4,1.15,10.79,2.32,16.19,3.46.68.14.91.44,1.01,1.16.64,4.61,4.98,7.81,9.72,7.16,4.43-.61,7.77-4.73,7.28-9.39-.36-3.42-2.81-6.4-6.08-7.33-3.5-.99-7.09.04-9.12,2.97-.91,1.31-1.75,1.57-3.07,1.07-.12-.04-.24-.06-.37-.09-5.69-1.21-11.37-2.43-17.06-3.63-1.86-.39-2.72.17-3.1,1.99-1.93,9.11-3.87,18.21-5.8,27.32-.22,1.06-.22,1.08-1.26,1.14-2.19.13-4.37.3-6.55.62-8.79,1.28-17.02,4.06-24.4,9.1-.54.37-.89.38-1.4-.05-2.71-2.22-5.84-3.11-9.32-2.68-5.75.71-10.66,5.71-10.43,12.3.15,4.51,2.32,7.94,6.26,10.18.63.36.8.71.71,1.39-.31,2.14-.22,4.29.13,6.42.95,5.92,3.83,10.84,7.94,15.09,4.69,4.84,10.34,8.21,16.58,10.63,6.18,2.4,12.59,3.69,19.2,4.11,7.96.5,15.76-.33,23.38-2.62,7.1-2.13,13.61-5.41,19.15-10.44,3.19-2.89,5.83-6.22,7.62-10.15,1.93-4.23,2.71-8.67,2.08-13.31-.07-.51.07-.77.52-.97.31-.13.59-.33.87-.51,5.74-3.71,7.37-11.23,3.67-16.88-3.9-5.96-11.96-7.23-17.64-2.79-.85.66-.85.67-1.68.1-5.9-4-12.41-6.56-19.33-8.12-3.92-.88-7.89-1.37-11.96-1.56Z"/>
    <path class="cls-5" d="M411.12,239.03c.19-.51.11-.97.11-1.42,0-7.94,0-15.88,0-23.81,0-.89,0-1.77.3-2.63.88-2.56,3.48-4.31,6.06-4.06,2.82.27,4.98,2.27,5.44,5,.09.54.13,1.08.13,1.63,0,24.86,0,49.73.01,74.59,0,2.07-.45,3.93-2.07,5.36-3.08,2.71-7.93,1.56-9.46-2.25-.11-.27-.2-.55-.29-.82-.41-.07-.53.26-.73.43-3.67,3.33-8,5.15-12.93,5.34-10.84.42-18.91-4.5-24.63-13.39-6.98-10.84-6.87-25.57.14-36.44,3.91-6.06,9.23-10.36,16.27-12.27,5.86-1.59,11.6-1.3,17.07,1.56,1.27.67,2.44,1.5,3.52,2.44.3.26.57.6,1.05.72ZM379.83,265.23c.13,5.76,1.9,11.17,6.44,15.37,3.93,3.64,8.56,4.93,13.78,3.45,4.43-1.26,7.51-4.22,9.69-8.16,2.24-4.06,3.06-8.44,2.65-13.05-.47-5.36-2.44-10.04-6.45-13.74-2.46-2.27-5.36-3.64-8.72-3.87-4.79-.33-8.75,1.5-11.94,4.98-3.8,4.14-5.4,9.15-5.47,15.01Z"/>
    <path class="cls-1" d="M349.49,239.17c0-.53,0-.94,0-1.34,0-8.19,0-16.38,0-24.57,0-2.55,1.12-4.47,3.45-5.57,3.74-1.78,8.08.78,8.44,4.95.03.29.03.59.03.89,0,25.08,0,50.15,0,75.23,0,1.86-.53,3.46-1.9,4.78-2.88,2.78-7.8,1.87-9.47-1.78-.17-.37-.31-.76-.5-1.23-.51.44-.95.82-1.39,1.18-3.61,2.96-7.75,4.55-12.41,4.71-10.2.34-17.94-4.17-23.71-12.31-3.31-4.67-5.09-9.94-5.64-15.63-.83-8.66,1.13-16.59,6.29-23.63,4.08-5.56,9.44-9.36,16.25-10.84,6.54-1.42,12.74-.63,18.3,3.4.38.27.72.59,1.09.87.35.27.59.69,1.18.9ZM350.84,264.99c.02-1.4-.08-2.78-.33-4.16-.94-5.07-3.1-9.46-7.29-12.61-4.65-3.49-9.71-4.05-14.98-1.49-3.81,1.85-6.35,4.96-8.06,8.75-2.04,4.52-2.51,9.26-1.54,14.09.92,4.58,2.98,8.57,6.63,11.63,2.75,2.3,5.94,3.54,9.53,3.44,4.47-.12,8.1-2.1,10.98-5.45,3.5-4.08,5.01-8.89,5.06-14.2Z"/>
    <path class="cls-7" d="M258.2,268.9c.33,2.4,1.15,4.59,2.29,6.67,1.88,3.43,4.47,6.15,8.1,7.69,5.1,2.16,9.97,1.34,14.61-1.42,1.23-.73,2.36-1.62,3.43-2.57,1.12-.99,2.35-1.79,3.85-2.07,2.6-.49,4.88.51,6.2,2.66,1.3,2.14,1.2,4.87-.38,6.88-1.9,2.42-4.27,4.3-6.92,5.84-3.7,2.16-7.72,3.24-11.98,3.64-3.89.37-7.67.07-11.36-1.18-6.67-2.26-11.67-6.62-15.3-12.58-2.72-4.46-4.26-9.32-4.68-14.53-.75-9.28,1.63-17.63,7.63-24.81,4.19-5.02,9.51-8.3,15.99-9.43,6.53-1.14,12.68.07,18.27,3.66,7.26,4.65,11.55,11.41,13.54,19.69.46,1.91.74,3.91.37,5.89-.72,3.91-4.44,6.14-7.72,5.91-.37-.03-.75-.08-1.13-.08-11.23,0-22.46,0-33.69,0-.33,0-.67-.07-1.14.14ZM289.36,258.35c.01-.14.05-.23.03-.3-1.27-4.01-3.44-7.42-6.88-9.88-5.01-3.58-10.3-3.89-15.65-.85-3.65,2.08-6.02,5.33-7.57,9.19-.23.57-.57,1.13-.49,1.83h30.58Z"/>
    <path class="cls-3" d="M479.43,245.4c-.15.5-.08,1.01-.08,1.51,0,13.72,0,27.43,0,41.15,0,.55-.02,1.1-.03,1.65-.03,2.86-2.62,5.69-6.28,5.67-3.11-.02-5.67-2.73-5.68-5.97-.02-12.16,0-24.31-.01-36.47,0-2.19,0-4.39,0-6.58,0-.93-.02-.94-.98-.94-1.35,0-2.7.04-4.05-.01-3.28-.12-5.54-2.79-5.15-6.04.27-2.29,2.15-4.19,4.48-4.49,1.55-.2,3.12-.06,4.67-.1,1.07-.02,1.08-.01,1.08-1.13,0-2.36-.01-4.73,0-7.09.02-2.84,1.49-4.99,3.91-5.93,3.87-1.5,7.65,1.41,7.96,4.98.2,2.32.03,4.64.09,6.96.02.66-.31,1.49.17,1.93.47.43,1.29.12,1.96.14,1.05.03,2.11-.01,3.17,0,2.7.05,4.92,1.96,5.29,4.53.39,2.72-1.15,5.06-3.84,5.9-.41.13-.82.18-1.24.18-1.39,0-2.79,0-4.18.02-.41,0-.84-.1-1.24.12Z"/>
    <path class="cls-5" d="M220.49,241.1c2.98-3.44,6.62-5.67,10.93-6.85,3.3-.9,6.64-1.11,10.03-.61,3.09.45,5.39,3.31,5.13,6.36-.26,3.12-2.75,5.42-5.93,5.4-1.64,0-3.27-.21-4.92.02-6.23.87-10.59,4.28-13.36,9.81-1.4,2.79-2.02,5.8-2.03,8.92-.03,8.36,0,16.71-.01,25.07,0,2.72-1.64,4.94-4.16,5.7-3.78,1.14-7.51-1.55-7.71-5.57,0-.17,0-.34,0-.51,0-16.01,0-32.02,0-48.03,0-2.4,1.02-4.25,3.12-5.4,3.93-2.16,8.59.51,8.77,5,0,.2-.07.41.18.69Z"/>
    <path class="cls-7" d="M437.46,267.49c0-7.13,0-14.27,0-21.4,0-2.93,1.66-5.16,4.36-5.95,3.55-1.04,7.28,1.56,7.52,5.24.02.29.02.59.02.89,0,14.17,0,28.34,0,42.51,0,2.27-.76,4.13-2.69,5.4-1.88,1.24-3.88,1.36-5.89.37-2-.99-3.12-2.67-3.31-4.89-.08-.92-.03-1.86-.03-2.78,0-6.46,0-12.92,0-19.38Z"/>
    <path class="cls-4" d="M443.48,213.77c5.81.03,10.45,4.7,10.41,10.51-.05,6.08-5.12,10.49-10.52,10.4-5.78-.09-10.48-4.68-10.41-10.52.08-6.37,5.31-10.54,10.53-10.39Z"/>
    <path class="cls-6" d="M65.17,258.56c0-4.77,3.82-8.55,8.62-8.54,4.7.02,8.52,3.86,8.51,8.54-.01,4.76-3.84,8.61-8.59,8.63-4.74.03-8.54-3.82-8.54-8.64Z"/>
    <path class="cls-4" d="M111.68,267.29c-4.77.02-8.73-3.88-8.65-8.67.09-5.03,4.04-8.48,8.56-8.52,4.66-.04,8.58,3.84,8.61,8.47.03,4.71-3.86,8.7-8.52,8.72Z"/>
    <path class="cls-8" d="M92.95,287.78c-4.73-.15-9.28-.63-13.66-2.21-2.03-.74-3.95-1.68-5.66-3.03-.46-.36-.91-.75-1.31-1.19-.85-.93-.82-2.21.02-3.07.8-.81,2.06-.91,2.98-.16.78.64,1.52,1.33,2.41,1.84,2.37,1.37,4.93,2.14,7.6,2.63,5.85,1.08,11.66.95,17.42-.58,2.71-.72,5.25-1.79,7.33-3.77.93-.88,2.28-.82,3.07,0,.81.85.83,2.29-.05,3.21-1.23,1.29-2.72,2.26-4.32,3.04-3.13,1.54-6.47,2.36-9.91,2.82-2.01.26-4.03.37-5.93.46Z"/>
  </g>
</svg>