<?xml version="1.0" encoding="UTF-8"?>
<svg id="Layer_1" data-name="Layer 1" xmlns="http://www.w3.org/2000/svg" version="1.1" viewBox="0 0 500 500">
  <defs>
    <style>
      .cls-1 {
        fill: #e73248;
      }

      .cls-1, .cls-2 {
        stroke-width: 0px;
      }

      .cls-2 {
        fill: #301746;
      }
    </style>
  </defs>
  <path class="cls-1" d="M438.82,173.29c-25.88.11-49.78-22.28-48.86-51.91.73-23.44,20.13-48.75,50.76-48.04,29.62.68,49.71,23.4,49.27,50.97-.46,28.68-24,49.91-51.17,48.98Z"/>
  <path class="cls-1" d="M109.84,377.42c.84,23.98-19.26,49.62-50.02,49.3-29.2-.31-49.92-22.41-49.82-50.43.1-28.66,23.54-49.84,50.62-49.65,26.95.19,50.51,22.97,49.22,50.78Z"/>
  <path class="cls-2" d="M339.11,211.74c.32-3.37.55-5.81.8-8.51,1.64-.16,2.96-.4,4.28-.41,6.16-.04,12.31-.02,18.31-.02,1.61,5.14,2.11,82.36.7,93.82-7.52,1.36-15.18.29-23.13.62-.37-3.1-.68-5.7-1.06-8.82-2.2,1.65-3.97,3.02-5.79,4.34-10.05,7.34-21.01,9.42-33.06,5.94-21.91-6.33-37.06-25.2-37.26-47.93-.24-26.42,18.04-45.16,39.73-50.09,11.97-2.72,22.59.05,32.04,7.73,1.21.99,2.51,1.88,4.43,3.31ZM339.48,250.65c.22-14.67-11.02-26.25-25.38-26.97-12.86-.64-27.23,9.82-27.37,25.66-.14,15.03,11.17,26.8,26.05,26.94,14.54.14,26.49-11.33,26.71-25.63Z"/>
  <path class="cls-2" d="M187.15,72.87c27.05.78,50.38,21.6,49.9,51.33-.46,28.25-22.32,49.85-50.82,49.57-29.68-.29-50.44-23.78-49.92-51.15.55-28.92,23.28-49.28,50.84-49.75ZM160.51,123.22c-.04,14.5,11.59,26.38,25.91,26.48,14.68.1,26.62-11.88,26.56-26.64-.06-14.58-11.58-25.51-26.34-25.96-12.64-.39-26.63,11.02-26.13,26.13Z"/>
  <path class="cls-2" d="M405.33,391.09c8.53,6.58,17.08,10.74,26.75,12.35,6.16,1.03,12.31,1.09,18.33-.76,1.71-.52,3.5-1.22,4.88-2.31,3.75-2.93,3.46-7.46-.95-9.26-4.38-1.79-9.18-2.55-13.8-3.75-7.05-1.83-14.19-3.37-21.13-5.57-5.25-1.66-9.9-4.64-13.59-8.91-6.13-7.1-7.58-24.12.75-33.12,6.18-6.68,13.76-10.68,22.44-12.3,16.25-3.04,31.8-.23,46.63,6.89.36.17.56.69,1.3,1.63-1.95,6.52-4.01,13.45-6.08,20.38-5.05-1.89-9.67-3.84-14.42-5.35-7.52-2.39-15.31-2.73-23.08-1.73-5.95.77-9.26,3.11-8.81,5.95.7,4.47,4.65,5.31,8.15,6.14,4.88,1.16,9.93,1.62,14.77,2.9,6.15,1.62,12.46,3.11,18.18,5.77,18.17,8.44,21.95,29.7,8.37,44.55-7.07,7.73-16.19,10.96-26.15,12.07-17.99,2.01-34.35-2.5-49.77-13.25,2.33-7.19,4.61-14.23,7.22-22.32Z"/>
  <path class="cls-2" d="M228.29,211.39c-3.08,6.83-6.07,13.47-9.25,20.51-1.86-1.24-3.47-2.42-5.18-3.45-8.95-5.37-18.55-6.59-28.33-3.2-12.13,4.21-18.93,17.01-16.49,29.78,2.31,12.08,12.87,20.94,25.25,21.2,9.35.2,11-.31,24.81-7.64,3.03,6.59,6.04,13.16,8.98,19.56-8.83,12.87-43.19,19.23-64.73,1.27-22.73-18.95-24.07-51.68-6.5-72.41,20.37-24.03,57.15-20.66,71.42-5.61Z"/>
  <path class="cls-1" d="M313.14,88.12c19.49-.09,35.51,15.7,35.48,35.12-.04,19.73-15.21,35.52-35.14,35.49-22.05-.03-35.49-17.11-35.49-35.13,0-21.35,17-35.43,35.15-35.49Z"/>
  <path class="cls-1" d="M24.86,249.83c-.37-17.63,14.12-35.18,35.41-35.13,19.48.05,35.31,15.26,35.1,35.48-.23,22.24-17.81,35.28-35.46,35.14-21.02-.16-35.52-17.49-35.05-35.5Z"/>
  <path class="cls-1" d="M475.13,250.36c.28,17.61-14.24,35.12-35.56,34.97-19.54-.13-35.26-15.48-34.95-35.63.36-22.55,18.28-35.04,35.61-35.04,19.44,0,34.97,16.05,34.9,35.7Z"/>
  <path class="cls-1" d="M186.65,411.92c-19.45.03-35.37-15.85-35.26-35.33.11-18.88,14.36-35.31,35.34-35.26,21.64.06,35.38,16.84,35.27,35.32-.13,21.54-17.38,35.34-35.35,35.26Z"/>
  <path class="cls-2" d="M297.68,399.94h54.9v22.66c-5.08,1.34-66.5,1.84-78.02.66-1.37-4.76-1.69-84.82-.32-93.24h23.26c.36,7.72.13,15.42.17,23.1.04,7.56,0,15.12,0,22.68v24.16Z"/>
  <path class="cls-2" d="M21.31,76.77c1.67-.13,3.44-.38,5.21-.4,5.45-.05,10.89-.02,16.99-.02v70.49c19,.3,37.39-.04,56.14.2v23.02H21.42c-1.36-5.42-1.49-86.59-.12-93.29Z"/>
</svg>