<?xml version="1.0" encoding="UTF-8"?>
<svg id="Layer_1" data-name="Layer 1" xmlns="http://www.w3.org/2000/svg" version="1.1" viewBox="0 0 500 500">
  <defs>
    <style>
      .cls-1 {
        fill: #39b773;
      }

      .cls-1, .cls-2, .cls-3, .cls-4 {
        stroke-width: 0px;
      }

      .cls-2 {
        fill: #424246;
      }

      .cls-3 {
        fill: #424347;
      }

      .cls-4 {
        fill: #424346;
      }
    </style>
  </defs>
  <path class="cls-1" d="M468.64,322.26c-.38-.45-.95-.31-1.43-.4-9.68-1.84-16.42-10-16.37-19.87.05-9.54,6.99-17.75,16.45-19.45,9.41-1.69,18.77,3.61,22.22,12.56.14.35.13.79.5,1.03v11.99c-.16.36-.32.71-.47,1.08-2.5,6.3-7.01,10.4-13.52,12.29-1.08.31-2.2.52-3.3.78h-4.08Z"/>
  <path class="cls-3" d="M123.69,270.5c0,15.86-.01,31.73.03,47.59,0,1.09-.27,1.38-1.37,1.37-9.88-.04-19.76-.04-29.64,0-1.02,0-1.23-.27-1.23-1.25.03-23.1.01-46.19.05-69.29,0-1.16-.28-1.45-1.44-1.44-9.2.05-18.4.05-27.6,0-1.17,0-1.53.22-1.53,1.48.04,23.02.02,46.03.06,69.05,0,1.13-.23,1.47-1.42,1.46-9.84-.05-19.68-.05-29.52,0-1.15,0-1.35-.35-1.35-1.4.03-23.02.02-46.03.02-69.05,0-1.72.19-1.5-1.56-1.5-5.32,0-10.64-.02-15.96.02-.89,0-1.23-.16-1.23-1.16.05-7.91.05-15.82,0-23.73,0-1.02.37-1.15,1.24-1.15,5.44.03,10.88,0,16.32.04.92,0,1.22-.2,1.21-1.18-.01-4.11-.28-8.24.36-12.32,2.1-13.41,9.53-22.69,22.03-27.91,3.99-1.66,8.21-2.33,12.52-2.34,8.88-.03,17.76,0,26.64-.03.99,0,1.26.23,1.26,1.23-.04,8.19-.04,16.38,0,24.57,0,1.02-.28,1.23-1.26,1.22-6.32-.05-12.64-.03-18.96-.02-5.58,0-10.03,4.16-10.32,9.71-.11,2.07-.02,4.15-.06,6.23-.01.62.19.89.82.82.28-.03.56,0,.84,0,19.88,0,39.76.01,59.64-.03,1.16,0,1.44.28,1.43,1.43-.04,15.86-.03,31.73-.03,47.59Z"/>
  <path class="cls-2" d="M354.68,235.67c1.42-2.81,2.98-5.44,5.14-7.68,4.17-4.31,9.24-6.71,15.26-6.64,13.6.16,27.19.16,40.79.13.99,0,1.17.32,1.16,1.21-.04,4.31-.02,8.63-.02,13.02.38-.18.39-.51.51-.76,3.5-7.63,9.23-12.4,17.69-13.51,3.02-.4,6.07-.08,9.11-.09,1.8,0,3.59.11,5.39.13.61,0,.93.07.93.83-.03,8.39-.03,16.78,0,25.17,0,.99-.58.84-1.16.84-5.4.02-10.8-.09-16.2.08-8.65.27-16.25,8.23-16.26,16.91-.02,17.54-.02,35.08.03,52.62,0,1.3-.39,1.53-1.58,1.52-9.72-.05-19.44-.05-29.16,0-1.16,0-1.52-.2-1.51-1.46.05-22.73.02-45.47.06-68.2,0-1.22-.3-1.53-1.51-1.5-4.08.1-8.16-.04-12.24.11-8.21.31-15.45,7.22-16.28,15.36-.1,1-.15,1.99-.15,2.99,0,17.1-.01,34.2.03,51.3,0,1.2-.33,1.41-1.45,1.4-9.84-.05-19.68-.04-29.52,0-.96,0-1.28-.18-1.28-1.22.03-31.84.03-63.69,0-95.53,0-1.03.3-1.23,1.27-1.23,9.92.04,19.84.04,29.76,0,1.05,0,1.22.33,1.21,1.28-.05,4.3-.02,8.61-.02,12.91Z"/>
  <path class="cls-4" d="M282.29,277.96c-10.84,0-21.68,0-32.52,0-1.64,0-1.65,0-1.41,1.67,1.07,7.55,5.57,12.16,12.64,14.39,4.69,1.48,9.5,1.88,14.27.4,4.17-1.29,7.21-4.03,9.13-7.94.36-.74.68-.85,1.42-.63,8.79,2.59,17.59,5.16,26.4,7.69.95.27.96.63.59,1.4-6.76,14.41-17.9,23.17-33.73,25.36-7.76,1.08-15.66,1.11-23.4-.44-15.02-3.01-26.12-11.44-33.31-24.92-3.69-6.92-5.26-14.39-5.31-22.23-.04-6.29,0-12.57,2.03-18.6,6.19-18.42,18.79-29.78,38-33.21,9.92-1.77,19.89-1.25,29.32,2.74,16.18,6.85,25.93,19.03,29.24,36.27,1.11,5.77.5,11.63.62,17.45,0,.47-.18.64-.63.61-.28-.02-.56,0-.84,0-10.84,0-21.68,0-32.52,0ZM266.29,258.99c5.68,0,11.35-.02,17.03.02.89,0,1.08-.28.97-1.08-.61-4.37-2.54-8.01-5.91-10.88-4.82-4.09-10.56-4.37-16.33-3.49-7.38,1.12-12.48,6.72-13.63,14.12-.19,1.2.15,1.35,1.21,1.34,5.56-.05,11.11-.02,16.67-.02Z"/>
  <path class="cls-2" d="M174.99,277.46c2.6-8.53,5.19-17.06,7.79-25.59,2.98-9.79,5.97-19.58,8.92-29.38.24-.8.6-1.01,1.42-1.01,9.92.03,19.84.02,29.76.02,1.35,0,1.36,0,.91,1.26-8.83,24.79-17.67,49.58-26.5,74.37-2.53,7.09-5.06,14.17-7.56,21.27-.26.75-.56,1.05-1.41,1.04-8.96-.04-17.92-.03-26.88,0-.8,0-1.17-.2-1.45-.99-11.31-31.81-22.64-63.62-33.97-95.42-.07-.19-.1-.39-.19-.56-.45-.83-.11-.99.71-.98,5.12.03,10.24.01,15.36.01,4.88,0,9.76.02,14.64-.02.84,0,1.23.2,1.49,1.06,5.43,17.95,10.89,35.89,16.35,53.84.11.37.25.72.38,1.08.08,0,.16,0,.24,0Z"/>
</svg>