<?xml version="1.0" encoding="UTF-8"?>
<svg id="Layer_1" data-name="Layer 1" xmlns="http://www.w3.org/2000/svg" version="1.1" xmlns:xlink="http://www.w3.org/1999/xlink" viewBox="0 0 500 500">
  <defs>
    <style>
      .cls-1 {
        fill: url(#linear-gradient);
      }

      .cls-1, .cls-2, .cls-3 {
        stroke-width: 0px;
      }

      .cls-2 {
        fill: #000;
      }

      .cls-3 {
        fill: #fff;
      }
    </style>
    <linearGradient id="linear-gradient" x1="157.78" y1="322.24" x2="328.8" y2="35.23" gradientUnits="userSpaceOnUse">
      <stop offset="0" stop-color="#f9b218"/>
      <stop offset=".12" stop-color="#f6a526"/>
      <stop offset=".34" stop-color="#ef6a4a"/>
      <stop offset=".52" stop-color="#e74456"/>
      <stop offset=".7" stop-color="#cc307b"/>
      <stop offset=".84" stop-color="#9f449a"/>
      <stop offset=".99" stop-color="#5b469a"/>
    </linearGradient>
  </defs>
  <g>
    <path class="cls-2" d="M272.47,482.66c-.65-.18-1.3-.38-1.95-.55-2.46-.64-4.74-1.65-6.72-3.27-3.01-2.46-4.5-5.68-4.75-9.52-.21-3.28.55-6.34,2.08-9.23,1.84-3.47,4.3-6.48,7.08-9.2,4.18-4.1,8.47-8.07,12.73-12.09,1.06-1,2.17-1.97,3.22-2.98.28-.27.63-.64.64-.98.02-1.63-.06-3.27-.1-4.9-.1-.04-.19-.09-.29-.13-.31.4-.62.79-.93,1.19-2.44,3.15-5.48,5.48-9.26,6.8-6.81,2.39-13.49.25-17.65-5.66-.65-.93-1.21-1.91-1.89-2.99-.24.41-.42.76-.63,1.09-.9,1.37-1.69,2.85-2.75,4.08-6.08,7.03-15.97,5.06-20.07-1.97-.68-1.17-1.05-2.52-1.53-3.79-.17-.46-.24-.95-.4-1.62-.33.51-.58.87-.81,1.25-1.78,2.86-3.88,5.42-6.7,7.34-2.74,1.86-5.74,3.04-9.06,3.21-5.29.26-9.49-1.88-12.71-6.02-1.9-2.45-3.12-5.25-4.02-8.2-.11-.35-.22-.69-.39-1.24-.22.45-.37.73-.49,1.02-1.39,3.41-3.18,6.58-5.63,9.35-.73.82-1.53,1.57-2.34,2.3-5.06,4.52-11.08,2.93-14.67.05-2-1.61-3.4-3.68-4.48-5.98-1.41-3-2.22-6.18-2.74-9.44-.19-1.21-.35-2.42-.73-3.67-.21.44-.44.88-.64,1.32-1.9,4.13-4.16,8.03-7.18,11.46-4.29,4.88-9.55,8.07-16.04,8.94-6.06.81-11.94.1-17.51-2.52-.74-.35-1.42-.82-2.07-1.33-1.08-.85-1.42-2-1.06-3.31.66-2.39,1.83-4.47,3.77-6.07,1.22-1.01,2.27-1.12,3.65-.33.67.39,1.28.88,1.92,1.32.86.6,1.7,1.24,2.61,1.76.79.45,1.63.83,2.5,1.1,3.04.94,5.71-.18,7.11-3.03,1.25-2.54,1.25-5.2.45-7.88-.59-1.95-1.61-3.68-2.87-5.26-2.77-3.49-6.31-6.2-9.6-9.38-.33.51-.61.91-.86,1.32-3.83,6.39-7.63,12.79-11.49,19.16-2.09,3.45-4.51,6.66-7.4,9.5-1.54,1.51-3.21,2.86-5.14,3.85-1.48.76-3.03,1.26-4.72,1.23-2.74-.06-4.82-1.23-6.21-3.61-1.03-1.76-1.65-3.68-1.94-5.67-.39-2.66-.82-5.35-.82-8.03,0-6.35.21-12.7.39-19.05.13-4.34.36-8.68.53-13.02.01-.33-.12-.67-.23-1.28-.63.54-1.1.87-1.49,1.28-2.59,2.81-4.63,6-6.46,9.33-3.9,7.14-6.59,14.74-8.7,22.57-1.19,4.41-2.33,8.83-2.89,13.38-.08.63-.15,1.27-.21,1.91-.09,1.05-.69,1.64-1.68,1.91-1.57.43-3.17.35-4.77.2-.68-.06-1.36-.18-2.02-.37-1.47-.43-2.36-1.5-2.96-2.85-.77-1.74-1.01-3.6-1.08-5.48-.08-2.06-.11-4.11-.09-6.17.08-14.36.18-28.71.27-43.07,0-.32,0-.64.03-.96.11-.98.51-1.58,1.5-1.67,1.12-.1,2.3-.09,3.39.16,1.64.38,3.22,1.01,4.81,1.55,1.44.49,1.98,1.47,1.96,3.04-.1,8.18-.1,16.37-.14,24.55,0,.48,0,.95.25,1.46.2-.49.41-.97.59-1.46,1.57-4.19,3.05-8.42,4.73-12.56,1.62-3.99,3.68-7.76,6.44-11.11,1.37-1.67,2.91-3.17,4.8-4.25,2.12-1.21,4.39-1.97,6.82-1.32,2.94.79,5.58,2.28,7.88,4.28,1.42,1.23,2.07,2.87,2,4.77-.14,3.79-.28,7.58-.42,11.38-.27,7.54-.69,15.08-.14,22.62.1,1.35.36,2.72.76,4.02.48,1.58,1.44,1.89,2.83.97.75-.5,1.47-1.12,2.02-1.83,1.21-1.55,2.39-3.12,3.43-4.79,4.05-6.52,7.82-13.21,11.34-20.03.08-.16.15-.33.25-.55-.2-.29-.38-.6-.61-.87-3.14-3.82-3.53-8.02-1.64-12.47,1.82-4.27,4.89-7.22,9.46-8.45,1.8-.48,3.62-.46,5.43-.05,2.73.62,4.2,2.6,3.85,5.45-.18,1.48-.57,2.97-1.12,4.35-1.15,2.85-2.75,5.46-4.7,7.85-.22.27-.43.56-.7.91.42.33.76.62,1.11.89,3.28,2.48,6.61,4.9,9.83,7.46,1.75,1.39,3.44,2.89,4.92,4.55,3.3,3.69,4.82,8.02,4.03,13.02-.03.18-.04.36-.04.55,0,.08.04.16.1.36.3-.25.59-.44.83-.68,4.38-4.43,7.27-9.69,8.66-15.76.14-.62.22-1.26.23-1.9.05-9.14.09-18.29.12-27.43,0-.41,0-.81,0-1.3-.42-.06-.77-.14-1.11-.15-3.88-.13-7.77-.23-11.65-.37-1.72-.06-2.19-.48-2.26-2.21-.09-2.28.47-4.44,1.65-6.41.47-.78,1.14-1.09,2.07-1.04,3.06.16,6.12.28,9.18.4.9.03,1.81,0,2.79,0,.04-.39.09-.74.1-1.09.19-4.7.36-9.41.56-14.11.03-.68.12-1.37.31-2.03.31-1.13,1.1-1.77,2.29-1.84.5-.03,1.02-.05,1.5.03,2.75.48,5.46,1.09,8.02,2.25.29.13.57.29.85.45.73.44,1.06,1.05,1.02,1.93-.17,3.42-.32,6.85-.44,10.28-.05,1.5,0,3.01,0,4.67,1.77.13,3.63.27,5.48.38,3.33.2,6.66.37,9.99.56.23.01.46.02.68.05,1.8.2,2.34.79,2.25,2.57-.08,1.52-.45,2.97-1.21,4.32-.49.86-1.14,1.31-2.2,1.32-4.57.03-9.14.14-13.71.22-.5,0-.99,0-1.62,0-.1,1.4-.24,2.7-.27,4.01-.3,11.1-.6,22.21-.84,33.32-.08,3.57.16,7.14,1.08,10.61.36,1.35.88,2.71,1.56,3.92,1.11,1.98,2.65,2.39,4.62,1.23,1.09-.64,2.12-1.47,2.95-2.41,3.25-3.68,5.19-8.04,6.15-12.82.3-1.51.19-3.1.28-4.65.33-5.63,1.11-11.18,3.01-16.52,1.2-3.4,3-6.46,5.24-9.26,2.19-2.74,4.87-4.86,8.33-5.71,5.9-1.45,10.81.28,14.76,4.84.15.17.29.35.43.53.14.17.29.34.64.76.06-.66.1-1.07.12-1.48.09-1.96,1.15-3.04,3.09-3.08,2.51-.05,4.91.47,7.19,1.49,2.03.91,2.42,1.73,2.33,3.98-.14,3.33-.24,6.67-.31,10.01-.13,6.4-.28,12.8-.29,19.2,0,3.88.16,7.78,1.03,11.59.26,1.15.62,2.31,1.16,3.35,1.54,3.04,4.76,3.5,7.11,1.04,2.12-2.22,3.18-4.99,3.77-7.94.15-.77-.13-1.62-.23-2.44-.54-4.14-.5-8.3-.24-12.46.32-5.23,1.32-10.32,3.28-15.2,1.36-3.37,3.03-6.56,5.46-9.29,2.5-2.82,5.53-4.75,9.35-5.25,5.29-.69,9.59,1.16,13.04,5.14.33.38.63.78,1.12,1.37.05-.55.1-.92.1-1.28.04-2.02,1.06-3.18,3.07-3.27,1.08-.05,2.2.04,3.26.27,1.46.33,2.89.81,4.31,1.31,1.47.52,2.05,1.57,2.02,3.18-.18,8.5-.3,17-.41,25.51-.05,4.16-.01,8.32,0,12.48,0,.31.04.61.07.97,3.87-3.16,12.42-21.29,14.19-30.03-.09-.1-.19-.25-.32-.36-3.01-2.37-3.99-5.42-3.19-9.13.42-1.92,1.16-3.65,2.49-5.11,2.1-2.3,4.77-2.99,7.73-2.51,2.96.48,4.56,2.51,4.55,5.6,0,1.22-.23,2.44-.37,3.82.89-.13,1.73-.22,2.56-.37,3.37-.62,6.72-1.33,10.1-1.85,1.23-.19,2.56-.12,3.8.1,2.64.47,4.51,2.73,4.53,5.43.01,1.22-.18,2.46-.42,3.66-.88,4.52-1.99,9.01-2.7,13.56-.97,6.17-1.09,12.38.4,18.52.51,2.1,1.25,4.12,2.8,5.72,1.59,1.64,3.72,1.92,5.59.62.8-.56,1.55-1.32,2.07-2.14.68-1.07,1.14-2.28,1.64-3.45.55-1.29.59-2.59.34-4.01-.93-5.2-.94-10.45-.48-15.71.4-4.48,1.22-8.87,2.85-13.07,1.35-3.48,3.15-6.7,5.59-9.54,2.49-2.9,5.54-4.88,9.41-5.41,5.22-.71,9.51,1.05,12.97,4.96.39.44.76.9,1.35,1.62.01-.78.02-1.29.03-1.8.05-1.69,1.01-2.76,2.7-2.84,2.84-.14,5.54.46,8.08,1.73,1.3.65,1.9,1.64,1.85,3.2-.26,8.59-.48,17.18-.6,25.78-.05,3.74.08,7.5.32,11.23.13,2.08.62,4.15,1.04,6.2.15.74.52,1.47.92,2.12,1.3,2.1,3.87,2.59,5.8,1.05.81-.64,1.53-1.45,2.12-2.31,2.38-3.49,3.69-7.42,4.48-11.54.07-.35.05-.73.05-1.09.11-11.34.21-22.68.32-34.01.03-2.79.73-3.53,3.46-3.16,2.25.3,4.47.88,6.68,1.44,1.17.3,1.79,1.22,1.95,2.41.07.5.04,1,.04,1.51,0,5.81-.02,11.61-.03,17.42,0,.43,0,.86,0,1.3.09.01.18.03.26.04.18-.49.37-.98.54-1.48,1.55-4.54,3.03-9.1,4.66-13.6.79-2.18,1.75-4.32,2.83-6.38,1.36-2.59,2.72-3.14,5.64-2.72,2.11.3,4.09.97,5.88,2.13,1.91,1.24,3.08,2.96,3.29,5.27.06.64.13,1.27.15,1.91.11,4.2.14,8.41.33,12.61.17,3.88.51,7.75,1.01,11.66.1-.2.27-.39.3-.6,1.47-9.53,4.41-18.64,7.94-27.58.35-.89.69-1.79,1.13-2.64,1.11-2.17,2.77-3.1,5.16-2.74,3.21.48,6.16,1.69,8.8,3.57,1.6,1.13,2.39,2.7,2.3,4.71-.16,3.56-.25,7.13-.39,10.69-.26,6.58-.25,13.16.1,19.74.15,2.83.44,5.67,1.38,8.35.48,1.36,1.09,2.74,1.94,3.89,1.64,2.23,4.25,2.17,5.85-.1.77-1.1,1.36-2.39,1.79-3.67.65-1.94,1.08-3.96,1.63-5.94.18-.66.39-1.32.69-1.93.49-.98,1.17-1.32,2.1-1.17.83.13,1.53.82,1.58,1.82.07,1.55.15,3.12-.05,4.65-.35,2.72-1.04,5.38-2.15,7.91-.42.96-.91,1.9-1.47,2.78-3.22,5.05-8.57,6.68-14.08,4.32-3.06-1.31-5.27-3.56-6.9-6.42-1.65-2.9-2.5-6.07-3-9.34-.77-4.98-1.05-10-1.07-15.03-.02-4.25.11-8.5.17-12.75,0-.48,0-.95,0-1.43-.1-.02-.2-.05-.31-.07-.18.33-.38.65-.53.99-3.77,8.28-6.31,16.93-7.65,25.93-.58,3.84-1.09,7.69-1.01,11.59.03,1.22-.61,1.95-1.67,2.42-2.77,1.23-6.81.47-8.93-1.69-1.1-1.13-1.9-2.44-2.34-3.97-.98-3.44-1.48-6.97-1.87-10.51-.84-7.54-1.38-15.11-1.48-22.7,0-.48-.14-.96-.22-1.48-.9.1-1.17.73-1.43,1.28-1.12,2.35-2.33,4.66-3.26,7.09-1.93,5.04-3.44,10.22-4.2,15.57-.34,2.39-.53,4.82-.66,7.23-.18,3.29-.22,6.58-.35,9.87-.03.73-.11,1.46-.26,2.17-.22,1.03-.85,1.71-1.91,1.91-3.15.61-6.27.6-9.33-.48-.3-.11-.58-.26-.88-.39-1.17-.49-1.77-1.34-1.85-2.63-.1-1.68-.27-3.35-.43-5.26-.26.4-.43.63-.57.87-.72,1.21-1.35,2.5-2.18,3.64-3.16,4.29-7.85,5.7-12.88,3.91-4.47-1.59-7.21-4.81-8.58-9.29-.17-.55-.3-1.11-.52-1.93-.38.6-.65,1-.89,1.41-2.27,3.83-5.26,6.9-9.32,8.81-3.4,1.6-6.95,2.21-10.67,1.3-4.29-1.05-7.35-3.72-9.62-7.41-.21-.35-.42-.7-.64-1.05-.02-.02-.07-.03-.19-.07-.22.37-.44.76-.66,1.15-1.26,2.21-2.86,4.13-4.96,5.59-3.18,2.21-6.59,2.76-10.29,1.5-3.99-1.37-6.93-3.98-9.03-7.59-1.68-2.89-2.52-6.06-3.01-9.33-.93-6.26-.55-12.5.42-18.71.45-2.88,1.1-5.74,1.65-8.6.07-.39.08-.79.13-1.38-3.27-.18-6.39.15-9.56.17-.15.33-.29.61-.39.9-4.99,14-12.19,26.74-21.8,38.09-.67.79-.94,1.56-.92,2.59.11,5.67.3,11.34.2,17-.1,6.01-.95,11.93-2.96,17.63-2.27,6.42-6.56,10.87-13.02,13.14-.76.27-1.55.47-2.33.7h-5.76ZM227.24,404.73c-.28-2.86-.47-5.73-.86-8.57-.31-2.27-1.04-4.45-2.37-6.37-2.5-3.62-7.11-4.22-10.35-1.23-1.02.94-1.85,2.14-2.58,3.33-1.12,1.84-1.77,3.91-2.24,6.01-1.52,6.79-1.83,13.66-1.04,20.57.29,2.5.85,4.95,1.88,7.27.61,1.39,1.38,2.69,2.55,3.69,1.46,1.25,3.12,1.68,4.97,1.08,1.9-.62,3.3-1.91,4.49-3.46,1.58-2.06,2.57-4.41,3.32-6.87,1.54-5.03,2.02-10.2,2.22-15.45ZM364.16,411.24c.15,2.41.28,4.83.48,7.24.09,1.09.3,2.17.53,3.24.51,2.38,1.25,4.68,2.77,6.64,2.11,2.73,4.97,3.2,7.84,1.31,1.72-1.13,3.02-2.68,3.9-4.51.85-1.76,1.63-3.58,2.2-5.44,1.86-6.06,2.19-12.29,1.78-18.57-.15-2.27-.53-4.53-.98-6.76-.39-1.93-1.16-3.75-2.47-5.28-1.76-2.06-3.98-2.8-6.63-2.24-1.88.4-3.3,1.49-4.48,2.95-1.54,1.92-2.47,4.15-3.11,6.5-1.34,4.88-1.69,9.88-1.84,14.92ZM264.53,411.62c0,1.55-.1,3.11.02,4.66.22,3.01.67,6.01,1.83,8.81.54,1.29,1.22,2.57,2.09,3.66,1.8,2.24,4.35,2.63,6.88,1.27,1.27-.68,2.29-1.66,3.17-2.78,1.23-1.56,2.07-3.33,2.73-5.19,1.48-4.16,2.32-8.45,2.59-12.85.29-4.61.37-9.23-.45-13.8-.39-2.17-.97-4.28-2.31-6.1-1.53-2.07-3.59-2.86-6.12-2.5-2.43.35-4.15,1.78-5.56,3.67-1.24,1.66-2.08,3.54-2.74,5.49-1.72,5.08-2.21,10.34-2.15,15.66ZM285.32,444.37c-.27.2-.42.29-.54.4-3.66,3.64-7.25,7.35-10.37,11.48-2.08,2.74-3.93,5.61-5.09,8.87-.68,1.91-1.11,3.86-.97,5.9.25,3.57,2.88,6.18,6.32,6.08,2.75-.08,5.1-1.17,6.58-3.57.8-1.31,1.42-2.76,1.91-4.22,1.17-3.53,1.71-7.2,1.9-10.89.23-4.28.24-8.58.34-12.87,0-.34-.04-.69-.07-1.18Z"/>
    <path class="cls-2" d="M10,380.61c.17-.52.4-1.02.51-1.55,2.61-12.54,9.22-22.42,19.81-29.62,1.02-.69,2.15-1.2,3.22-1.81,2.1-1.21,4.33-1.28,6.64-.83,1.99.39,3.87,1.07,5.57,2.19,1.39.91,2.12,2.06,2.12,3.85-.06,21.49-.02,42.97-.08,64.46,0,3.7-.19,7.41-.53,11.09-.5,5.3-2.04,10.29-5.16,14.7-1.8,2.55-4.08,4.56-6.89,5.93-.8.39-1.71.66-2.6.77-1.06.14-1.54-.36-1.49-1.45.04-.76.25-1.52.44-2.27.61-2.43,1.33-4.84,1.84-7.3.37-1.78.55-3.61.66-5.43.18-2.96.3-5.94.31-8.91.12-21.81.21-43.61.31-65.42,0-.87.02-1.74-.02-2.61-.02-.49-.16-.97-.29-1.71-.56.37-1.03.57-1.33.9-1.38,1.52-2.87,2.97-4.04,4.64-3.79,5.4-6,11.46-6.97,17.97-.6,4.01-.63,8.01.2,11.99.5,2.4,1.48,4.6,2.78,6.66.44.69.89,1.4,1.18,2.16.63,1.6-.17,2.7-1.84,2.49-.94-.12-1.9-.36-2.75-.77-5.9-2.81-9.6-7.41-11.06-13.81-.13-.56-.37-1.1-.56-1.66,0-1.55,0-3.11,0-4.66Z"/>
  </g>
  <g>
    <rect class="cls-3" x="128.38" y="45.11" width="243.23" height="251.15"/>
    <path class="cls-1" d="M286.95,167.47c0,20.37-16.61,36.93-36.93,36.93s-36.93-16.56-36.93-36.93,16.56-36.93,36.93-36.93,36.93,16.56,36.93,36.93ZM340.84,167.47c0,16.12,1.33,50.77-4.45,65.3-3.86,9.69-11.32,17.15-21.06,21.06-14.58,5.78-49.19,4.45-65.3,4.45s-50.77,1.29-65.3-4.45c-9.69-3.86-17.15-11.32-21.06-21.06-5.78-14.58-4.45-49.19-4.45-65.3s-1.29-50.77,4.45-65.3c3.86-9.69,11.32-17.15,21.06-21.06,14.58-5.78,49.19-4.45,65.3-4.45s50.77-1.29,65.3,4.45c9.69,3.86,17.15,11.32,21.06,21.06,5.78,14.58,4.45,49.19,4.45,65.3ZM306.82,167.47c0-31.44-25.36-56.8-56.8-56.8s-56.8,25.36-56.8,56.8,25.36,56.8,56.8,56.8,56.8-25.36,56.8-56.8ZM322.4,108.35c0-7.32-5.93-13.25-13.25-13.25s-13.25,5.93-13.25,13.25,5.88,13.25,13.25,13.25,13.25-5.88,13.25-13.25ZM400.04,86.29v162.37c0,38.03-30.83,68.86-68.86,68.86h-162.37c-38.03,0-68.86-30.83-68.86-68.86V86.29c0-38.03,30.83-68.86,68.86-68.86h162.37c38.03,0,68.86,30.83,68.86,68.86ZM360.02,121.79c-.84-17.75-4.89-33.47-17.9-46.42-12.95-12.95-28.67-17.01-46.42-17.9-18.29-1.04-73.11-1.04-91.4,0-17.7.84-33.42,4.89-46.42,17.85-13,12.95-17,28.67-17.9,46.42-1.04,18.29-1.04,73.11,0,91.4.84,17.75,4.89,33.47,17.9,46.42,13,12.95,28.67,17.01,46.42,17.9,18.29,1.04,73.11,1.04,91.4,0,17.75-.84,33.47-4.89,46.42-17.9,12.95-12.95,17.01-28.67,17.9-46.42,1.04-18.29,1.04-73.06,0-91.35Z"/>
  </g>
</svg>