<?xml version="1.0" encoding="UTF-8"?>
<svg id="Layer_1" data-name="Layer 1" xmlns="http://www.w3.org/2000/svg" version="1.1" viewBox="0 0 500 500">
  <defs>
    <style>
      .cls-1 {
        fill: #219cd7;
      }

      .cls-1, .cls-2, .cls-3, .cls-4, .cls-5, .cls-6 {
        stroke-width: 0px;
      }

      .cls-2 {
        fill: #249cd8;
      }

      .cls-3 {
        fill: #263f82;
      }

      .cls-4 {
        fill: #239cd8;
      }

      .cls-5 {
        fill: #26326d;
      }

      .cls-6 {
        fill: #253f82;
      }
    </style>
  </defs>
  <path class="cls-3" d="M182.42,266.1c-2.1,0-4.21,0-6.31,0-2.84,0-3.72.65-4.23,3.52-.73,4.13-1.34,8.28-2.01,12.42-.28,1.76-.53,3.53-.9,5.27-.48,2.25-1.56,3.09-3.87,3.1-3.58.02-7.15,0-10.73,0-2.9,0-3.72-.96-3.27-3.89.61-3.99,1.25-7.97,1.88-11.96,1.57-9.94,3.13-19.88,4.69-29.82,1.18-7.51,2.33-15.02,3.53-22.52.13-.82.41-1.63.71-2.4.54-1.35,1.56-2.08,3.04-2.07,10.57.01,21.14-.2,31.7.13,6.2.19,11.82,2.47,15.14,8.17,1.28,2.2,2.21,4.84,2.45,7.36.65,6.98-.77,13.7-4.06,19.91-4.5,8.49-11.85,12.43-21.29,12.77-2.15.08-4.31.01-6.47.01h0ZM174.56,252.07c3.72,0,7.2.19,10.63-.08,1.75-.14,3.65-.79,5.09-1.78,4.11-2.81,5.08-7.15,4.8-11.78-.21-3.61-2.83-6.21-6.54-6.46-3.54-.24-7.11-.05-10.82-.05-1.05,6.68-2.09,13.33-3.16,20.15Z"/>
  <path class="cls-2" d="M369.31,217.75c5.1,0,10.21-.17,15.3.05,5.33.23,10.21,1.84,14,5.9,2.38,2.55,3.84,5.62,4.08,9.02.67,9.47-1.23,18.29-7.6,25.69-3.88,4.51-9.01,6.93-14.85,7.39-5.28.41-10.61.25-15.91.33-2.48.03-3.31.53-3.82,3.01-.73,3.54-1.25,7.11-1.83,10.68-.36,2.22-.64,4.46-1.01,6.68-.49,2.98-1.64,3.92-4.67,3.92-3.52,0-7.05.01-10.57,0-2.33,0-3.22-1.08-2.86-3.4,2.81-18.01,5.61-36.02,8.43-54.03.59-3.78,1.19-7.55,1.85-11.32.55-3.09,1.65-3.95,4.81-3.95,4.89,0,9.78,0,14.67,0v.03ZM363.02,252.09c3.46,0,6.76.02,10.06-.02.83,0,1.74-.04,2.47-.36,1.47-.64,3.04-1.27,4.22-2.3,3.07-2.69,3.86-6.37,3.84-10.27-.02-3.8-2.61-6.88-6.39-7.15-3.6-.26-7.23-.06-11.03-.06-1.05,6.68-2.1,13.32-3.18,20.16Z"/>
  <path class="cls-6" d="M255.42,247.97c.23-1.15.48-2.3.69-3.46.35-1.97.79-2.38,2.8-2.38,3.42,0,6.84,0,10.25,0,2.33,0,3,.8,2.64,3.1-.96,6.06-1.92,12.12-2.89,18.17-1.22,7.61-2.46,15.21-3.7,22.81-.12.72-.28,1.44-.47,2.14-.38,1.46-1.28,2.17-2.86,2.14-3.57-.05-7.15,0-10.73-.02-1.61,0-2.08-.48-2-2.1.06-1.24.24-2.48.43-4.26-1.1.75-1.9,1.17-2.54,1.76-6.66,6.11-14.47,7.55-22.87,4.96-8.39-2.59-13.7-10.08-13.61-19.16.1-10.57,3.95-19.62,12.76-25.95,6.97-5,14.84-6.43,23.23-4.62,3.5.75,6.26,2.64,7.76,6.06.14.31.41.56.62.84l.47-.05ZM253.45,264.64c.09-5.54-3.77-10.02-9.26-10.78-7.5-1.03-15,4.09-16.76,11.46-1.49,6.2,2.15,12.11,8.25,13.43,8.53,1.84,17.63-5.39,17.77-14.12Z"/>
  <path class="cls-4" d="M437.49,284.38c-.85.66-1.77,1.24-2.53,1.98-7.1,6.86-20.06,7.26-27.21,2.15-5.2-3.71-8.25-8.78-8.6-15.06-.57-10.23,2.68-19.23,10.53-26.03,7.36-6.38,16.07-8.35,25.61-6.22,3.39.76,6.03,2.66,7.49,5.95.1.23.27.44.43.64.06.07.18.09.6.29.24-1.02.52-1.97.67-2.94.42-2.74.64-2.95,3.38-2.95,3.36,0,6.73-.01,10.09,0,1.99,0,2.56.47,2.3,2.44-.55,4.31-1.27,8.6-1.95,12.89-1.45,9.1-2.97,18.19-4.37,27.3-.86,5.56-.88,5.66-6.41,5.66-2.63,0-5.26.02-7.89,0-1.63-.02-2.18-.63-2.05-2.25.09-1.19.26-2.37.39-3.55-.16-.1-.33-.2-.49-.3ZM441.96,264.44c-.03-5.39-3.84-9.8-9.14-10.57-6.41-.93-13.05,2.56-15.82,8.46-2.04,4.33-2.19,8.67.94,12.57,2.85,3.54,6.72,4.58,11.15,3.93,6.99-1.02,12.9-7.6,12.87-14.39Z"/>
  <path class="cls-3" d="M304.53,269.6c2.89-4.15,5.61-8.06,8.33-11.97,3.08-4.44,6.19-8.86,9.23-13.33,1.14-1.68,2.57-2.44,4.63-2.36,3.36.12,6.73-.03,10.09.09.95.03,2.49.42,2.66.98.28.91-.06,2.29-.62,3.15-2.57,3.9-5.31,7.68-7.99,11.5-11.04,15.72-22.1,31.42-33.08,47.18-1.32,1.89-2.83,2.74-5.12,2.67-3.68-.11-7.36.03-11.04-.08-.77-.02-1.84-.46-2.19-1.04-.29-.48.1-1.62.53-2.23,3.87-5.55,7.79-11.08,11.78-16.55,1-1.37,1.36-2.51.75-4.25-4.32-12.25-8.48-24.56-12.71-36.84-1.11-3.23-.22-4.52,3.2-4.53,3.15,0,6.31,0,9.46,0,2.95,0,3.79.66,4.64,3.42,2.44,7.96,4.9,15.91,7.45,24.19Z"/>
  <path class="cls-2" d="M470.6,290.54c-2,0-4,.03-5.99-.01-1.48-.03-1.98-.67-1.74-2.12,2.47-15.41,4.96-30.82,7.42-46.23,1.18-7.34,2.35-14.69,3.47-22.04.25-1.62,1.18-2.31,2.66-2.32,3.84-.04,7.68-.05,11.52,0,1.74.02,2.27.62,2,2.39-.97,6.32-2.01,12.62-3.01,18.93-1.96,12.37-3.91,24.74-5.86,37.1-.64,4.04-1.26,8.07-1.91,12.11-.23,1.43-.99,2.25-2.55,2.21-2-.05-4-.01-5.99-.01Z"/>
  <g>
    <path class="cls-6" d="M24.86,197.78c.17-1.03.46-2.59,1.93-3.96,1.47-1.37,3.98-1.73,5.71-1.73h36.38c5.39,0,16.86,1.27,22.95,6.7,6.09,5.43,10.24,14.93,3.34,34.11-6.9,19.18-24.33,23.43-32.91,23.43h-18.03s-1.62.2-2.44,1.62c-.81,1.42-1.57,3.3-1.93,5.38s-4.36,28.11-4.36,28.11c0,0-.05,1.73-.91,2.64s-2.13.81-3.35.81H12.04s-1.47-.37-1.83-1.33-.22-2.41,0-4.18c.35-2.85,10.86-68.73,14.64-91.62Z"/>
    <path class="cls-1" d="M45.54,226.6c.25-2.13.84-4.39,2.13-5.68,1.46-1.46,3.15-1.52,8.73-1.42s24,0,27.1,0c8.46,0,16.82,1.85,20.53,6.62,3.7,4.77,5.92,12.99,2.22,24.76,0,0-3.01,10.78-10.56,16.93-5.63,4.59-11.6,6.25-14.45,6.71-2.84.46-10.93.19-12.65.19s-2.84-.3-4.23,1.08c-1.95,1.94-1.97,4.67-2.37,7.54-.53,3.84-2.53,17.56-2.73,18.98-.2,1.42-.47,3.63-1.23,4.56-.88,1.07-2.99,1.03-4.06,1.03s-13.75-.03-17.77-.03c-3.73,0-2.64-3.77-2.42-5.45s11.77-75.82,11.77-75.82Z"/>
    <path class="cls-5" d="M83.5,219.5c-3.1,0-21.52.1-27.1,0-5.58-.1-7.27-.04-8.73,1.42-1.29,1.29-1.88,3.55-2.13,5.68,0,0-7.16,45.95-10.31,66.32.24-.75.27-1.47.27-1.47,0,0,4.01-26.03,4.36-28.11.36-2.08,1.12-3.96,1.93-5.38s2.44-1.62,2.44-1.62h18.03c8.58,0,26.01-4.25,32.91-23.43,1.47-4.08,2.43-7.72,2.99-10.97-4.1-1.71-9.36-2.44-14.65-2.44Z"/>
  </g>
</svg>