<?xml version="1.0" encoding="UTF-8"?>
<svg id="Layer_1" data-name="Layer 1" xmlns="http://www.w3.org/2000/svg" version="1.1" viewBox="0 0 500 500">
  <defs>
    <style>
      .cls-1 {
        fill: #58595c;
      }

      .cls-1, .cls-2, .cls-3 {
        stroke-width: 0px;
      }

      .cls-2 {
        fill: #5a5b5d;
      }

      .cls-3 {
        fill: #f26925;
      }
    </style>
  </defs>
  <path class="cls-1" d="M198.01,208.74c-.04.19-.11.39-.11.58,0,9.26,0,18.51,0,27.87.92-.8,1.74-1.6,2.64-2.29,4.14-3.17,8.88-4.16,14-3.77,10.21.78,17.54,8.22,20.04,17.87,2.37,9.17,2.27,18.34-.85,27.31-2.46,7.06-7.18,12.15-14.65,14.04-7.71,1.95-14.73.54-20.71-4.97-.11-.1-.2-.25-.51-.13,0,1.21-.03,2.47.01,3.73.02.62-.18.83-.82.82-2.72-.03-5.44-.03-8.16,0-.66,0-.85-.24-.78-.83.02-.2,0-.4,0-.6,0-24.31,0-48.62-.02-72.93,0-.92.25-1.43,1.07-1.86,2.5-1.32,4.96-2.73,7.43-4.12.29-.16.72-.23.7-.7.24,0,.48,0,.72,0ZM197.87,261.08c0,4.07,0,8.14,0,12.21,0,.51,0,1,.28,1.5,3.11,5.33,10.71,8.47,16.74,6.89,4.99-1.31,7.96-4.72,9.5-9.42,2.4-7.33,2.32-14.76.19-22.12-1.03-3.57-2.99-6.64-6.42-8.44-6.81-3.57-15.46-1.28-20.01,5.54-.29.44-.28.9-.28,1.38,0,4.15,0,8.3,0,12.45Z"/>
  <path class="cls-3" d="M10,258.8c4.6.01,9.2.03,13.8.03,12.2,0,24.4.01,36.61-.02.97,0,1.27.2,1.27,1.22-.04,9.94-.04,19.88,0,29.81,0,1.11-.2,1.16-1.13.64-7.85-4.42-15.73-8.78-23.58-13.19-.83-.47-1.44-.45-2.26.01-7.89,4.44-15.8,8.83-23.71,13.23-.31.17-.59.43-.99.37v-32.1Z"/>
  <path class="cls-2" d="M310.62,208.74c-.02,3.51-.05,7.02-.06,10.53-.01,4.07.02,8.14-.02,12.21,0,.79.23,1,1.01.99,4-.04,8,0,12-.04.88,0,1.26.13,1.22,1.15-.09,2.15-.06,4.31,0,6.46.02.8-.22,1.01-1.01,1-4-.04-8,0-12-.04-.88,0-1.22.14-1.22,1.14.03,10.93,0,21.87,0,32.8,0,1.32.22,2.61.71,3.85.85,2.14,2.23,3.12,4.53,3.22,1.91.08,3.73-.3,5.47-1.04.61-.26.89-.24,1.11.43.7,2.15,1.43,4.3,2.19,6.43.18.5.06.69-.4.89-4.71,2.09-9.62,3.01-14.72,2.06-4.78-.89-7.7-4.29-8.42-9.34-.19-1.35-.28-2.69-.28-4.05,0-11.69-.02-23.38.03-35.08,0-1.15-.35-1.36-1.39-1.32-2.32.07-4.64,0-6.96.04-.74.01-1.06-.13-1.04-.97.06-2.27.04-4.55,0-6.82-.01-.64.18-.81.81-.81,2.52.03,5.04-.02,7.56.03.8.02,1-.23,1-1.01-.03-5.31.02-10.62-.05-15.92-.01-1.03.34-1.56,1.21-2.02,2.43-1.29,4.81-2.66,7.21-4.01.31-.18.84-.18.76-.76.24,0,.48,0,.72,0Z"/>
  <path class="cls-3" d="M10,232.45c16.93,0,33.85,0,50.78-.04.8,0,.9.29.89.97-.04,1.6-.08,3.2.01,4.79.06,1.02-.28,1.23-1.26,1.23-14.25-.03-28.49-.02-42.74-.02-2.56,0-5.12.01-7.68.02v-6.95Z"/>
  <path class="cls-3" d="M10,245.63c16.85,0,33.69,0,50.54-.03.87,0,1.19.16,1.14,1.09-.09,1.55-.09,3.12,0,4.67.06,1.02-.27,1.23-1.26,1.23-15.05-.03-30.09-.02-45.14-.02-1.76,0-3.52,0-5.28,0v-6.95Z"/>
  <path class="cls-2" d="M369.16,256.5c0-2.93.13-5.68-.38-8.41-.9-4.78-3.84-7.56-8.7-8.2-7.03-.92-13.38.9-19.19,4.8-.88.59-1.1.44-1.38-.47-.64-2.05-1.32-4.09-2.08-6.09-.29-.76-.16-1.14.51-1.54,6.99-4.2,14.54-6.02,22.68-5.39,3.93.3,7.66,1.16,10.89,3.53,4.08,2.98,5.81,7.25,6.57,12.04.3,1.9.32,3.81.32,5.73,0,12.02-.01,24.03.02,36.05,0,.99-.24,1.29-1.25,1.25-2.36-.08-4.72-.05-7.08,0-.73.01-.98-.18-.95-.93.06-1.35.02-2.7.02-4.19-1.05.82-1.96,1.63-2.97,2.29-7.8,5.09-16.02,5.69-24.34,1.65-5.69-2.76-8.27-7.84-8.9-13.98-.29-2.84-.17-5.66.54-8.43,1.29-5.06,4.54-8.48,9.12-10.77,4.72-2.35,9.71-2.97,14.91-2.46,4.06.4,7.87,1.56,11.63,3.53ZM369.17,270.12c0-1.36-.05-2.71.02-4.07.04-.75-.25-1.13-.88-1.49-4.21-2.38-8.75-3.39-13.54-3.3-3.29.06-6.42.9-9.08,2.89-3.53,2.65-4.23,6.36-3.32,10.39.92,4.07,3.69,6.55,7.71,7.45,6.64,1.49,12.35-.41,17.26-5.04,1.29-1.22,2.16-2.46,1.86-4.32-.13-.82-.02-1.67-.02-2.51Z"/>
  <path class="cls-2" d="M461.76,255.13c-2.74,2.84-5.36,5.58-8.01,8.28-.46.47-.43.98-.43,1.54,0,7.82-.02,15.65.03,23.47,0,1.07-.23,1.42-1.36,1.38-2.44-.09-4.88-.08-7.32,0-.98.03-1.19-.29-1.19-1.21.03-9.58.02-19.16.02-28.74,0-14.69,0-29.38-.02-44.06,0-.87.24-1.35,1.02-1.77,2.91-1.56,5.77-3.19,8.82-4.89v43.04c1.25-1.32,2.28-2.4,3.3-3.48,4.88-5.17,9.77-10.33,14.64-15.51.47-.51.93-.75,1.64-.74,3.5.04,7,.02,10.78.02-1.78,1.85-3.37,3.51-4.97,5.16-3.11,3.22-6.21,6.45-9.35,9.63-.56.57-.67.98-.28,1.72,6.85,13.17,13.67,26.37,20.5,39.55q.65,1.25-.73,1.25c-2.76,0-5.52-.04-8.28.02-.81.02-1.19-.27-1.54-.96-5.55-10.89-11.12-21.77-16.69-32.65-.16-.32-.34-.63-.58-1.07Z"/>
  <path class="cls-2" d="M164.4,284.35c-3.19,3.88-7,6.21-11.7,6.62-6.59.57-12.9-.24-17.87-5.25-3.2-3.23-4.47-7.37-5.22-11.71-.48-2.8-.61-5.63-.61-8.46,0-10.7,0-21.39-.03-32.09,0-.87.24-1.05,1.06-1.04,2.48.05,4.96.07,7.44,0,1.02-.03,1.33.19,1.33,1.28-.05,11.02-.05,22.03-.02,33.05,0,2.92.2,5.83,1.4,8.55,1.85,4.21,5.22,6.3,9.7,6.69,2.2.19,4.39-.04,6.51-.71,4.34-1.38,6.55-4.59,7.52-8.82.41-1.79.51-3.63.51-5.47,0-11.1.01-22.19-.03-33.29,0-1.07.27-1.33,1.31-1.29,2.52.08,5.04.06,7.56,0,.82-.02.98.26.98,1.01-.02,18.44-.02,36.88,0,55.32,0,.75-.16,1.04-.99,1.02-2.64-.06-5.28-.05-7.92,0-.76.01-.96-.23-.93-.96.05-1.39.02-2.78.02-4.48Z"/>
  <path class="cls-2" d="M99.25,291.16c-7.95-.16-14.81-2.84-20.28-8.75-.66-.71-.73-1.07.1-1.72,1.86-1.45,3.63-3.01,5.38-4.58.59-.54.9-.46,1.42.07,2.95,3.05,6.41,5.28,10.68,5.95,3.2.5,6.34.31,9.38-1.06,4.27-1.91,5.33-7.04,2.18-10.54-2.38-2.65-5.49-4.04-8.71-5.29-4.13-1.6-8.28-3.14-12.07-5.48-3.74-2.3-6.88-5.13-7.93-9.6-1.63-6.99.76-13.43,8.25-16.91,8.63-4,21.8-2.92,29.33,5.64.6.69.6.99-.12,1.55-1.73,1.35-3.42,2.76-5.07,4.2-.61.53-.93.62-1.6-.01-4.34-4.09-9.52-5.51-15.35-4.48-1.89.33-3.72,1.03-4.99,2.61-2.27,2.79-1.27,6.8,2.14,8.88,3.56,2.17,7.46,3.57,11.33,5.08,3.84,1.5,7.5,3.35,10.76,5.92,3.61,2.85,5.15,6.68,5.42,11.14.63,10.29-6.68,15.5-14.5,16.86-1.89.33-3.8.53-5.73.53Z"/>
  <path class="cls-2" d="M264.71,291.15c-7.95-.18-14.8-2.86-20.26-8.78-.62-.67-.67-1.04.09-1.65,1.87-1.5,3.69-3.06,5.46-4.67.57-.52.83-.4,1.31.09,3.01,3.04,6.47,5.33,10.79,5.99,3.21.49,6.37.32,9.38-1.09,4.35-2.05,5.29-7.07,2.03-10.64-2.34-2.57-5.39-3.91-8.52-5.14-3.71-1.46-7.48-2.78-10.94-4.8-2.88-1.68-5.66-3.5-7.47-6.41-3.65-5.89-3.24-15.66,5.54-20.31,8.45-4.47,22.48-3.8,30.32,5.09.62.7.65,1.05-.1,1.64-1.73,1.35-3.41,2.77-5.06,4.22-.66.59-1.01.47-1.64-.1-5.03-4.52-10.77-5.96-17.29-3.81-2.36.78-3.92,2.32-4.15,4.87-.26,2.78,1.13,4.73,3.45,6.08,2.76,1.6,5.66,2.91,8.67,4.01,4.2,1.54,8.26,3.34,11.97,5.91,3.65,2.52,5.91,5.86,6.51,10.26.88,6.43-.79,11.85-6.39,15.66-2.9,1.97-6.18,2.91-9.63,3.31-1.35.16-2.7.33-4.08.27Z"/>
  <path class="cls-2" d="M398.71,261.65c.05,4.13.5,8.54,2.4,12.71,3.38,7.45,10.73,8.99,17.07,6.54,2.98-1.16,4.8-3.52,5.86-6.43.36-.98.7-1.02,1.59-.69,2.32.85,4.67,1.6,7.04,2.32.81.25.92.57.64,1.33-2.92,7.91-8.65,12.29-16.92,13.47-4.55.65-9.04.29-13.28-1.55-6.52-2.83-10.38-8.04-12.51-14.62-1.84-5.69-2.21-11.55-1.77-17.49.37-4.93,1.3-9.71,3.66-14.11,3.8-7.09,9.63-11.18,17.76-11.89,4.96-.43,9.75.05,14.18,2.45,4.16,2.26,6.79,5.82,8.47,10.17.2.52.08.67-.4.84-2.63.93-5.25,1.9-7.86,2.87-.45.17-.74.3-1-.32-2.03-4.86-5.75-7.2-10.98-7.06-5.54.15-9.42,2.84-11.64,7.91-1.85,4.22-2.27,8.68-2.29,13.57Z"/>
</svg>