<?xml version="1.0" encoding="UTF-8"?>
<svg id="Layer_1" data-name="Layer 1" xmlns="http://www.w3.org/2000/svg" version="1.1" xmlns:xlink="http://www.w3.org/1999/xlink" viewBox="0 0 500 500">
  <defs>
    <style>
      .cls-1 {
        fill: url(#linear-gradient);
      }

      .cls-1, .cls-2, .cls-3, .cls-4, .cls-5 {
        stroke-width: 0px;
      }

      .cls-2 {
        fill: #333;
      }

      .cls-3 {
        fill: #74a442;
      }

      .cls-4 {
        fill: url(#linear-gradient-2);
      }

      .cls-5 {
        fill: url(#linear-gradient-3);
      }
    </style>
    <linearGradient id="linear-gradient" x1="26.56" y1="241.67" x2="57.71" y2="289.85" gradientUnits="userSpaceOnUse">
      <stop offset="0" stop-color="#74a442"/>
      <stop offset=".31" stop-color="#6f9e40"/>
      <stop offset=".69" stop-color="#628f3d"/>
      <stop offset="1" stop-color="#537e3a"/>
    </linearGradient>
    <linearGradient id="linear-gradient-2" x1="28.44" y1="258.13" x2="92.32" y2="213.15" gradientUnits="userSpaceOnUse">
      <stop offset="0" stop-color="#537e3a"/>
      <stop offset=".34" stop-color="#65933e"/>
      <stop offset=".68" stop-color="#709f41"/>
      <stop offset="1" stop-color="#74a442"/>
    </linearGradient>
    <linearGradient id="linear-gradient-3" x1="100.94" y1="228.63" x2="86.44" y2="249.59" gradientUnits="userSpaceOnUse">
      <stop offset="0" stop-color="#4f7a38"/>
      <stop offset=".03" stop-color="#517c38"/>
      <stop offset=".37" stop-color="#64923d"/>
      <stop offset=".7" stop-color="#709f40"/>
      <stop offset="1" stop-color="#74a442"/>
    </linearGradient>
  </defs>
  <g>
    <path class="cls-3" d="M54.9,230.4c3,.02,5.82.86,8.58,1.95,4.92,1.94,9.4,4.64,13.29,8.23,1.72,1.58,3.22,3.36,4.17,5.54.8,1.85.76,3.63-.22,5.41-.72,1.3-1.58,2.51-2.58,3.59-5.05,5.44-11,9.58-17.96,12.23-1.97.75-4.01,1.26-6.15,1.21-2.37-.05-4.26-1.01-5.67-2.94-1.48-2.04-2.27-4.37-2.83-6.78-1.07-4.61-1.17-9.27-.73-13.97.24-2.58.75-5.09,1.61-7.54.46-1.33,1.07-2.58,1.86-3.75,1.43-2.13,3.41-3.19,5.98-3.17.22,0,.44,0,.67,0Z"/>
    <path class="cls-1" d="M86.19,270.44s-21.22,27.42-53.86,28.81c-29.48,1.26-21.65-64.97-20.68-73.7s5.63-27.99,22.71-27.28c0,0-10.17,13.96-7.8,43.02,1.83,22.38,7.2,44.35,18.24,46.1,12.33,1.96,26.15-5.93,41.39-16.96Z"/>
    <path class="cls-4" d="M120.22,250.04s7.53-11.65-7.99-26.13c-15.05-14.04-52.76-35.23-67.19-32.1-16.19,3.52-17.63,22.97-18.62,34.76-1.8,21.34,2.66,43.02,7.57,49.89,0,0-9.44-30.34-.32-53.64,5.21-13.3,17.69-12.61,29.35-8.64,9.24,3.15,18.75,6.39,22.89,8.29,9.36,4.3,26.76,12.29,34.31,27.57Z"/>
    <path class="cls-5" d="M65.01,214.95s16.87,5.86,25.02,14.15,18.23,17.3,8.41,28.63-23.31,24.61-39.72,32.85c-16.42,8.24-26.81,8.54-26.81,8.54,0,0,5.33,10.94,18.59,9.19,13.27-1.75,36.41-12.55,53.47-25.37,17.06-12.82,21.03-22.28,16.69-32.21-4.34-9.93-20.97-26.9-55.64-35.79Z"/>
  </g>
  <path class="cls-2" d="M298.2,261.45c0,6.54,0,13.08,0,19.62,0,1.35.09,1.2-1.17,1.2-4.63,0-9.25,0-13.88,0-1.08,0-1.08.13-1.08-1.08,0-12.27,0-24.53,0-36.8,0-1.22-.09-2.43-.28-3.64-.43-2.71-1.93-4.61-4.25-6.01-3.41-2.06-9.42-2.33-13.06.66-2.06,1.69-3.18,3.84-3.43,6.45-.08.88-.08,1.77-.08,2.66,0,12.12,0,24.24,0,36.36,0,.22,0,.44,0,.67-.03.71-.03.73-.77.73-4.89,0-9.77,0-14.66,0-.72,0-.72-.02-.74-.74,0-.18,0-.37,0-.55,0-11.2,0-22.39,0-33.59,0-3.63.21-7.22,1.16-10.75.79-2.95,2.04-5.67,4.06-8.01,1.32-1.54,2.95-2.68,4.68-3.68,6.47-3.72,13.44-5.21,20.86-4.64,2.76.21,5.48.78,8.12,1.63,2.27.74,4.31,1.92,6.09,3.52.32.29.55.5,1.01.1,2.6-2.27,5.77-3.37,9.04-4.18,2.01-.49,4.05-.84,6.1-1.06,1.62-.17,3.26-.15,4.88-.03,3.96.3,7.79,1.19,11.43,2.83,2.19.99,4.33,2.08,6.21,3.59,3.12,2.51,4.87,5.87,5.88,9.66.71,2.68,1.11,5.42,1.13,8.19.03,7.94.03,15.89.04,23.83,0,4.29,0,8.57,0,12.86,0,1.16-.02,1-1.04,1-2.11,0-4.22,0-6.33,0-.93,0-1.84-.11-2.75-.32-3.1-.71-5.47-3.1-5.67-7.01-.02-.48-.01-.96-.01-1.44,0-9.98,0-19.95,0-29.93,0-1.64-.15-3.24-.69-4.79-.47-1.35-1.25-2.47-2.38-3.38-2.53-2.05-5.42-2.71-8.6-2.55-2.35.12-4.48.82-6.35,2.28-1.98,1.54-3.01,3.6-3.31,6.04-.13,1.06-.15,2.14-.16,3.21-.01,5.69,0,11.38,0,17.07Z"/>
  <path class="cls-2" d="M199.62,242.2c0,5.73,0,11.45,0,17.18,0,1.14.04,2.3.19,3.43.39,2.85,1.9,4.92,4.39,6.42,4.06,2.45,10.49,1.9,13.82-1.43,1.53-1.53,2.35-3.38,2.6-5.48.12-1.02.14-2.06.14-3.1.01-9.72,0-19.43.01-29.15,0-.85-.01-1.71.14-2.54.57-3.04,3.14-5.34,6.25-5.74,1.26-.16,2.51-.13,3.77-.14,1.78-.01,3.55.01,5.33-.01.48,0,.69.16.64.64,0,.07,0,.15,0,.22,0,12.12,0,24.23-.04,36.35,0,3.74-.55,7.42-1.82,10.96-1.48,4.13-4.04,7.31-8.09,9.23-1.63.77-3.26,1.56-4.96,2.16-4.51,1.59-9.15,2.41-13.93,1.99-6.04-.53-11.71-2.3-16.84-5.59-2.95-1.89-4.69-4.74-5.87-7.97-.88-2.4-1.34-4.89-1.62-7.42-.21-1.88-.23-3.76-.23-5.64-.01-11.23,0-22.46,0-33.69,0-1.42-.12-1.23,1.25-1.23,4.48,0,8.96,0,13.43,0,1.6,0,1.44-.23,1.44,1.38,0,6.39,0,12.78,0,19.17Z"/>
  <path class="cls-2" d="M411.14,243c0-12.67,0-25.34,0-38q0-1.19,1.16-1.19c2.44,0,4.88.05,7.32-.01,4.16-.11,7.33,3.41,7.32,7.37-.04,23.34-.02,46.68-.02,70.02,0,1.21.1,1.09-1.04,1.09-4.55,0-9.1,0-13.65,0-1.12,0-1.09.17-1.09-1.05,0-7.39,0-14.77,0-22.16,0-5.36,0-10.71,0-16.07Z"/>
  <path class="cls-2" d="M142.62,264.09c.04-4.37-.13-9.65.09-14.93.29-6.69,2.17-12.8,6.6-18.01,3.27-3.84,7.41-6.25,12.13-7.76,3.04-.97,6.17-1.44,9.36-1.59,1.59-.07,3.17-.18,4.77-.15.78.02.8.02.8.82,0,4.87,0,9.75,0,14.62,0,.7-.02.71-.76.72-1.52,0-3.03-.02-4.55,0-2.07.04-4.12.24-6.09.95-3.77,1.37-5.76,4.17-6.51,7.98-.33,1.67-.42,3.36-.42,5.06,0,9.75,0,19.5,0,29.25,0,1.43.14,1.21-1.25,1.21-4.33,0-8.66,0-12.98,0-1.26,0-1.17.15-1.17-1.21,0-5.35,0-10.71,0-16.97Z"/>
  <path class="cls-2" d="M401.4,243.22c-.93-5.04-2.79-9.68-5.88-13.79-2.25-2.99-4.92-5.53-8.34-7.13-4.83-2.27-9.87-2.55-15.03-1.45-4.37.93-7.75,3.32-10.34,6.9-.36.5-.72,1-1.24,1.72,0-6.02,0-11.78,0-17.54,0-.77-.01-1.54-.15-2.32-.47-2.72-4.16-5.93-7.4-5.82-2.33.08-4.66,0-6.99.02-1.46,0-1.25-.17-1.25,1.21,0,16.37,0,32.73,0,49.1,0,2.26.09,4.5.43,6.73.5,3.35,1.51,6.52,3.21,9.46,3.22,5.54,8.1,8.97,14.11,10.92,3,.97,6.09,1.44,9.23,1.66,2.67.19,5.32.07,7.97-.22,2.58-.29,5.05-1.03,7.5-1.86,3.3-1.12,6.12-2.96,8.18-5.8,4.33-5.95,6.59-12.65,6.81-19.98.12-3.95-.09-7.89-.81-11.8ZM386.74,252.95c-.08,4.32-1.21,8.37-3.4,12.09-1.75,2.99-4.49,4.51-7.88,4.87-1.88.2-3.76.17-5.62-.29-3.51-.86-5.74-3.2-7.24-6.32-.93-1.94-1.35-4.04-1.65-6.16-.2-1.39-.19-2.8-.35-4.31-.14-4.37.52-8.69,2.63-12.72,1.37-2.61,3.23-4.71,6.15-5.55,3.35-.96,6.69-1.08,9.91.56,2.37,1.21,3.93,3.2,5.17,5.46,1.24,2.26,1.8,4.73,2.07,7.28.18,1.69.23,3.39.2,5.08Z"/>
  <path class="cls-2" d="M490,253.69c-.03-2.29.02-4.57-.18-6.86-.28-3.24-.82-6.43-1.83-9.52-2.59-7.9-7.8-13.25-15.73-15.84-5.07-1.66-10.27-1.97-15.55-1.23-8.29,1.16-14.45,5.42-18.47,12.75-2.83,5.16-3.93,10.76-4.15,16.57-.15,4.03.09,8.04.84,12.01.98,5.21,2.94,9.93,6.62,13.86,2.86,3.05,6.18,5.36,10.15,6.68,5.26,1.75,10.65,2,16.09,1.13,4.83-.78,9.19-2.71,12.95-5.85,4.1-3.44,6.82-7.8,8.35-12.91.26-.89.24-.9-.7-.91-2.55,0-5.11.06-7.66-.02-2.28-.08-4.49.31-6.71.65-.4.06-.67.28-.93.55-.7.71-1.42,1.4-2.11,2.12-1.19,1.23-2.64,1.99-4.29,2.4-2.26.57-4.55.56-6.83.19-2.04-.33-3.95-1.02-5.39-2.58-.95-1.03-1.82-2.13-2.49-3.38-1.17-2.19-1.8-4.5-1.74-6.99q.02-.75.81-.76c.18,0,.37,0,.56,0h18.43c6.11,0,12.21,0,18.32,0,1.53,0,1.58-.05,1.66-1.59,0-.15,0-.3,0-.44ZM472.67,245.69c-3.62,0-7.25,0-10.87,0-3.55,0-7.1,0-10.65,0-.98,0-.96,0-.82-1,.25-1.68.61-3.32,1.26-4.9,1.27-3.09,3.56-4.99,6.76-5.82,2.76-.72,5.5-.56,8.19.29,2.25.72,3.88,2.24,5.02,4.27,1.11,1.99,1.61,4.17,1.81,6.43.06.7.03.72-.7.72Z"/>
</svg>