<?xml version="1.0" encoding="UTF-8"?>
<svg id="Layer_1" data-name="Layer 1" xmlns="http://www.w3.org/2000/svg" version="1.1" viewBox="0 0 500 500">
  <defs>
    <style>
      .cls-1 {
        fill: #9d1d22;
      }

      .cls-1, .cls-2 {
        stroke-width: 0px;
      }

      .cls-2 {
        fill: #0d1931;
      }
    </style>
  </defs>
  <g>
    <g>
      <path class="cls-2" d="M10,312.52c0-17.1,12.81-29.91,30.42-29.91,7.86,0,13.82,1.6,19.24,5.46.34.25.5.76.5,1.43,0,1.6-.84,4.08-1.55,5.84-1.26,3.11-2.86,5.97-4.37,5.97-.25,0-.46-.04-.71-.21-3.7-2.65-8.49-3.99-12.94-3.99-7.9,0-14.96,6.3-14.96,15.42s6.97,15.75,14.87,15.84c6.6-.04,10.21-2.52,11.26-6.97h-11.01c-1.72,0-1.76-3.07-1.76-6.13s.04-6.09,1.76-6.09h26.05c1.3,0,1.34,2.39,1.34,3.87,0,17.06-9.07,29.45-27.56,29.45s-30.59-12.86-30.59-29.95Z"/>
      <path class="cls-2" d="M74.28,286.6c0-4.92,2.69-7.86,8.44-7.86s8.44,2.94,8.44,7.86-2.69,7.81-8.44,7.81-8.44-2.94-8.44-7.81ZM75.67,340.29v-40.16c0-1.72,3.53-1.72,7.1-1.72s6.97,0,6.97,1.72v40.16c0,1.72-3.49,1.72-7.02,1.72s-7.06,0-7.06-1.72Z"/>
      <path class="cls-2" d="M116.25,341.72l-21.01-41.09c-.13-.29-.21-.5-.21-.71,0-1.51,3.28-1.51,6.6-1.51,3.78,0,7.52,0,8.15,1.34l8.91,19.49,8.99-19.49c.67-1.34,4.41-1.34,8.15-1.34,3.32,0,6.55,0,6.55,1.47,0,.21-.04.42-.21.71l-20.96,41.13c-.42.8-1.47.8-2.48.8s-2.1,0-2.48-.8Z"/>
      <path class="cls-2" d="M144.61,320c0-12.52,8.44-22.06,20.96-22.06,13.15,0,19.07,9.87,19.07,22.27,0,1.89-.04,3.78-1.3,3.78h-24.75c.59,3.95,4.2,6.51,8.44,6.51,3.91,0,7.31-.92,10.63-2.94.21-.13.42-.17.63-.17,1.22,0,2.14,2.02,2.98,4.29.71,1.81,1.34,3.66,1.34,4.96,0,.71-.17,1.26-.67,1.51-5.21,3.11-10.63,4.33-16.55,4.33-12.81,0-20.8-9.79-20.8-22.48ZM165.57,309.58c-4.29,0-6.81,3.36-7.14,6.47h12.77c-.08-3.36-1.34-6.47-5.63-6.47Z"/>
      <path class="cls-2" d="M188.98,334.07c-.21-.25-.29-.5-.29-.84,0-1.34,1.34-3.32,2.77-5.29,1.72-2.35,3.66-4.62,4.92-4.62.21,0,.38.08.55.21,2.61,2.27,8.15,5.13,12.81,5.13,5.25,0,7.44-1.72,7.44-3.87,0-2.48-3.53-3.99-7.73-5.76-7.39-3.03-18.15-7.52-18.15-18.61,0-10.25,8.74-17.81,21.97-17.81,7.86,0,14.87,2.69,18.91,6.18.25.21.34.59.34,1.01,0,1.34-1.13,3.57-2.35,5.42-1.64,2.56-3.57,5.17-5.17,5.17-.29,0-.59-.08-.84-.25-2.44-1.85-6.89-3.49-10.88-3.49-4.49,0-6.34,1.43-6.34,3.4,0,2.1,3.15,3.32,7.02,4.92,7.48,3.02,18.91,7.65,18.91,19.83,0,10.25-10.13,17.73-23.11,17.73-7.98,0-16.26-3.28-20.75-8.44Z"/>
      <path class="cls-2" d="M237.84,320c0-12.52,8.44-22.06,20.96-22.06,13.15,0,19.07,9.87,19.07,22.27,0,1.89-.04,3.78-1.3,3.78h-24.75c.59,3.95,4.2,6.51,8.44,6.51,3.91,0,7.31-.92,10.63-2.94.21-.13.42-.17.63-.17,1.22,0,2.14,2.02,2.98,4.29.71,1.81,1.34,3.66,1.34,4.96,0,.71-.17,1.26-.67,1.51-5.21,3.11-10.63,4.33-16.55,4.33-12.81,0-20.8-9.79-20.8-22.48ZM258.8,309.58c-4.29,0-6.81,3.36-7.14,6.47h12.77c-.08-3.36-1.34-6.47-5.63-6.47Z"/>
      <path class="cls-2" d="M286.28,340.29v-40.16c0-1.68,3.32-1.68,6.64-1.68s6.64,0,6.64,1.68v4.54c2.73-3.78,6.26-6.72,11.51-6.72,8.78,0,14.66,6.68,14.66,17.81v24.54c0,1.72-3.49,1.72-7.06,1.72s-7.06,0-7.06-1.72v-23.61c0-2.9-1.6-5.46-5.04-5.46-3.99,0-6.22,3.07-6.22,6.64v22.43c0,1.72-3.53,1.72-7.06,1.72s-7.02,0-7.02-1.72Z"/>
      <path class="cls-2" d="M332.87,320.21c0-12.27,7.14-22.27,17.86-22.27,3.99,0,8.36,1.81,11.3,6.05v-24.03c0-1.72,3.49-1.72,7.02-1.72s7.02,0,7.02,1.72v60.37c0,1.68-3.32,1.68-6.6,1.68s-6.64,0-6.64-1.68v-4.5c-3.15,4.5-7.77,6.64-12.1,6.64-10.71,0-17.86-10-17.86-22.27ZM362.83,320.21c0-4.96-3.28-8.99-7.98-8.99s-7.9,4.03-7.9,8.99,3.28,8.95,7.9,8.95,7.98-3.99,7.98-8.95Z"/>
      <path class="cls-2" d="M384.42,312.52c0-17.1,12.81-29.91,30.42-29.91,7.86,0,13.82,1.6,19.24,5.46.34.25.5.76.5,1.43,0,1.6-.84,4.08-1.55,5.84-1.26,3.11-2.86,5.97-4.37,5.97-.25,0-.46-.04-.71-.21-3.7-2.65-8.49-3.99-12.94-3.99-7.9,0-14.96,6.3-14.96,15.42s6.97,15.75,14.87,15.84c6.6-.04,10.21-2.52,11.26-6.97h-11.01c-1.72,0-1.76-3.07-1.76-6.13s.04-6.09,1.76-6.09h26.05c1.3,0,1.34,2.39,1.34,3.87,0,17.06-9.07,29.45-27.56,29.45s-30.59-12.86-30.59-29.95Z"/>
      <path class="cls-2" d="M446.39,320.21c0-12.31,8.36-22.27,21.76-22.27s21.85,9.96,21.85,22.27-8.4,22.27-21.85,22.27-21.76-10-21.76-22.27ZM475.93,320.21c0-4.96-3.11-8.99-7.77-8.99s-7.73,3.99-7.73,8.99,3.11,8.95,7.73,8.95,7.77-4.03,7.77-8.95Z"/>
    </g>
    <g>
      <path class="cls-2" d="M100.11,372.94c-.09-.11-.12-.21-.12-.36,0-.57.57-1.41,1.18-2.25.73-1,1.55-1.96,2.09-1.96.09,0,.16.04.23.09,1.11.96,3.46,2.18,5.45,2.18,2.23,0,3.16-.73,3.16-1.64,0-1.05-1.5-1.7-3.29-2.45-3.14-1.29-7.71-3.2-7.71-7.91,0-4.36,3.71-7.57,9.34-7.57,3.34,0,6.32,1.14,8.03,2.62.11.09.14.25.14.43,0,.57-.48,1.52-1,2.3-.7,1.09-1.52,2.2-2.2,2.2-.13,0-.25-.04-.36-.11-1.04-.79-2.93-1.48-4.62-1.48-1.91,0-2.7.61-2.7,1.45,0,.89,1.34,1.41,2.98,2.09,3.18,1.29,8.03,3.25,8.03,8.43,0,4.36-4.3,7.53-9.82,7.53-3.39,0-6.91-1.39-8.82-3.59Z"/>
      <path class="cls-2" d="M122.57,375.58v-23.59c0-.71,1.52-.73,3.07-.73s3.05.02,3.05.73v8.37h10.71v-8.37c0-.71,1.54-.73,3.05-.73s3.07.02,3.07.73v23.57c0,.73-1.54.75-3.07.75s-3.05-.02-3.05-.73v-9.28h-10.71v9.27c0,.73-1.52.75-3.05.75s-3.07-.02-3.07-.73Z"/>
      <path class="cls-2" d="M151.08,375.56v-23.57c0-.71,1.52-.73,3.07-.73s3.05.02,3.05.73v23.57c0,.73-1.52.75-3.05.75s-3.07-.02-3.07-.75Z"/>
      <path class="cls-2" d="M182.43,376.31l-13.5-13.03v12.28c0,.75-1.52.75-3.05.75s-3.05,0-3.05-.73v-24.01c0-.54.43-.54.88-.54s.86,0,1.12.23l13.46,13.32v-12.59c0-.73,1.52-.73,3.05-.73s3.07,0,3.07.73v24c0,.55-.41.55-.86.55s-.88,0-1.12-.23Z"/>
      <path class="cls-2" d="M189.95,375.64v-23.68c0-.29.21-.5.48-.5l16.28-.02c.77,0,.79,1.46.79,2.95s-.02,2.98-.79,2.98h-10.64v3.45h8.8c.73,0,.75,1.3.75,2.59s-.02,2.61-.75,2.61h-8.8v4.21l10.62-.02c.79,0,.8,1.48.8,2.98s-.02,2.96-.79,2.96h-16.28c-.27,0-.48-.25-.48-.52Z"/>
      <path class="cls-2" d="M218.44,375.64v-23.68c0-.29.21-.52.48-.52h8.14c3.73,0,7.73,2.09,7.73,6.66,0,1.32-.54,3-1.7,3.82,2.12.96,3.89,3.52,3.89,6.11,0,6-4.52,8.12-8.91,8.12h-9.16c-.27,0-.48-.25-.48-.52ZM228.79,358.75c0-.96-.77-1.73-1.7-1.73h-2.54v3.45h2.54c.93,0,1.7-.77,1.7-1.71ZM230.28,367.94c0-1.45-1.12-2.29-2.61-2.29h-3.11v4.55h3.11c1.48,0,2.61-.84,2.61-2.27Z"/>
      <path class="cls-2" d="M240.7,375.58v-23.62c0-.29.21-.52.48-.52h10.27c4.12,0,7.77,3.2,7.77,8.14,0,3.09-1.46,5.52-3.61,6.8l4.79,8.98c.05.11.09.21.09.3,0,.64-1.43.64-2.84.64-1.62,0-3.25,0-3.52-.54l-4.04-8.05h-3.27v7.86c0,.71-1.54.73-3.07.73s-3.05-.02-3.05-.73ZM252.75,359.6c0-1.23-.98-2.23-2.21-2.23h-3.71v4.46h3.71c1.23,0,2.21-1,2.21-2.23Z"/>
      <path class="cls-2" d="M263.71,375.56v-23.57c0-.71,1.52-.73,3.07-.73s3.05.02,3.05.73v23.57c0,.73-1.52.75-3.05.75s-3.07-.02-3.07-.75Z"/>
      <path class="cls-2" d="M273.59,363.78c0-7.27,5.45-12.71,12.93-12.71,3.34,0,5.87.68,8.18,2.32.14.11.21.32.21.61,0,.68-.36,1.73-.66,2.48-.54,1.32-1.21,2.54-1.86,2.54-.11,0-.2-.02-.3-.09-1.57-1.12-3.61-1.7-5.5-1.7-3.36,0-6.36,2.68-6.36,6.55s2.96,6.7,6.32,6.73c2.8-.02,4.34-1.07,4.78-2.96h-4.68c-.73,0-.75-1.3-.75-2.61s.02-2.59.75-2.59h11.07c.55,0,.57,1.02.57,1.64,0,7.25-3.86,12.52-11.71,12.52s-13-5.46-13-12.73Z"/>
      <path class="cls-2" d="M301.72,375.58v-23.59c0-.71,1.52-.73,3.07-.73s3.05.02,3.05.73v8.37h10.71v-8.37c0-.71,1.54-.73,3.05-.73s3.07.02,3.07.73v23.57c0,.73-1.54.75-3.07.75s-3.05-.02-3.05-.73v-9.28h-10.71v9.27c0,.73-1.52.75-3.05.75s-3.07-.02-3.07-.73Z"/>
      <path class="cls-2" d="M335.23,375.58v-18.21h-6.55c-.71,0-.71-1.48-.71-2.98s0-2.95.73-2.95h19.21c.73,0,.73,1.46.73,2.95s0,2.98-.73,2.98h-6.55v18.19c0,.75-1.54.75-3.07.75s-3.05,0-3.05-.73Z"/>
      <path class="cls-2" d="M352,375.64v-23.62c0-.73,1.52-.73,3.07-.73s3.05,0,3.05.73v18.19l10.64.02c.79,0,.79,1.46.79,2.96s0,2.96-.8,2.96h-16.27c-.27,0-.48-.25-.48-.52Z"/>
      <path class="cls-2" d="M372.92,375.58v-9.03l-7.98-14.35c-.05-.11-.09-.21-.09-.3,0-.62,1.52-.64,3.04-.64,1.7,0,3.39,0,3.68.59l4.43,8.32,4.43-8.34c.25-.57,1.96-.57,3.66-.57,1.52,0,3.02,0,3.02.64,0,.09-.04.2-.09.3l-7.96,14.37v9c0,.75-1.54.75-3.07.75s-3.05,0-3.05-.73Z"/>
    </g>
  </g>
  <g>
    <rect class="cls-1" x="243.67" y="123.45" width="13.45" height="37.68" rx="3.15" ry="3.15"/>
    <rect class="cls-1" x="243.67" y="207.54" width="13.45" height="46.84" rx="3.15" ry="3.15"/>
    <rect class="cls-1" x="272.04" y="177.24" width="37.68" height="13.45" rx="3.15" ry="3.15"/>
    <path class="cls-1" d="M257.08,183.28s0-.02,0-.04c-.02-.21-.05-.42-.1-.63,0-.01,0-.02,0-.04-.26-1.24-.86-2.42-1.82-3.38l-33.83-33.83c-1.23-1.23-3.23-1.23-4.46,0l-5.05,5.05c-1.23,1.23-1.23,3.23,0,4.46l22.36,22.36h-40.74c-1.74,0-3.15,1.41-3.15,3.15v7.14c0,1.74,1.41,3.15,3.15,3.15h40.73l-22.35,22.35c-1.23,1.23-1.23,3.23,0,4.46l5.05,5.05c1.23,1.23,3.23,1.23,4.46,0l33.83-33.83c.16-.16.31-.32.45-.49.06-.08.12-.16.18-.24.07-.1.15-.19.21-.29.06-.1.12-.19.18-.29.05-.09.11-.18.16-.27.05-.1.1-.2.15-.3.05-.1.09-.19.14-.29.04-.1.07-.2.11-.3.04-.11.08-.21.11-.32.03-.1.05-.2.08-.3.03-.11.06-.22.08-.33.02-.12.04-.24.05-.36.01-.1.03-.2.04-.3.02-.22.03-.45.03-.67,0-.23-.01-.45-.03-.68Z"/>
    <rect class="cls-1" x="261.94" y="150.7" width="27.83" height="13.45" rx="3.15" ry="3.15" transform="translate(-30.52 241.16) rotate(-45)"/>
    <rect class="cls-1" x="269.13" y="196.12" width="13.45" height="27.83" rx="3.15" ry="3.15" transform="translate(-67.72 256.58) rotate(-45)"/>
  </g>
</svg>