<?xml version="1.0" encoding="UTF-8"?>
<svg id="Layer_1" data-name="Layer 1" xmlns="http://www.w3.org/2000/svg" version="1.1" viewBox="0 0 500 500">
  <defs>
    <style>
      .cls-1 {
        fill: #ed3959;
      }

      .cls-1, .cls-2, .cls-3, .cls-4, .cls-5, .cls-6, .cls-7, .cls-8, .cls-9, .cls-10, .cls-11, .cls-12, .cls-13, .cls-14 {
        stroke-width: 0px;
      }

      .cls-2 {
        fill: #6cc9d2;
      }

      .cls-3 {
        fill: #6dcad3;
      }

      .cls-4 {
        fill: #6fc8d1;
      }

      .cls-5 {
        fill: #080706;
      }

      .cls-6 {
        fill: #0e0c0c;
      }

      .cls-7 {
        fill: #e63f59;
      }

      .cls-8 {
        fill: #ed3858;
      }

      .cls-9 {
        fill: #111010;
      }

      .cls-10 {
        fill: #70c5ce;
      }

      .cls-11 {
        fill: #0c0b0b;
      }

      .cls-12 {
        fill: #eb3958;
      }

      .cls-13 {
        fill: #030303;
      }

      .cls-14 {
        fill: #070707;
      }
    </style>
  </defs>
  <path class="cls-13" d="M212.25,161.78c.13.12.27.21.43.27-.01,9.82-.02,19.63-.03,29.45,0,6.06,0,12.13,0,18.19,0,.76-.04,1.53-.15,2.29-.03.2-.36.47-.59.51-.25.05-.55-.11-.83-.19-3.24-.94-6.55-1.63-9.9-1.86-5.48-.38-10.94-.23-16.35.99-13.42,3.04-24.21,10.07-32.28,21.2-6.88,9.49-10.11,20.2-10.11,31.89,0,3.08.41,6.13.97,9.16,1.84,10.11,6.28,18.91,13.2,26.47,3.6,3.93,7.68,7.27,12.26,9.99.56.33,1.09.84,1.84.69l-.03-.02c.04.43.32.55.69.54.65.61,1.3,1.22,1.95,1.83.25.41.45.85.76,1.21,2.33,2.7,4.89,5.17,7.72,7.34,8.94,6.85,18.99,10.71,30.28,11.2,5.3.23,10.58-.07,15.73-1.43,12.73-3.35,23.07-10.27,30.75-21.01,5.95-8.33,9.31-17.62,9.82-27.88.1-1.92.14-3.84.14-5.77,0-82.36,0-164.72,0-247.07,0-.87,0-1.73,0-2.6,0-.29.02-.58.04-.86.03-.41.33-.73.72-.74.86-.02,1.73-.04,2.59-.04,13.37,0,26.75,0,40.12,0,.96,0,1.92-.04,2.88-.07.06.08.14.14.23.17.25,1.41.45,2.84.77,4.24,1.9,8.29,4.9,16.16,9.07,23.58,6.66,11.84,15.55,21.68,26.66,29.5.32.23.65.39,1.06.31l-.04-.02c.11.64.52.82,1.11.69l-.03-.04c-.07.52.3.59.68.66,1.07.94,2.14,1.89,3.21,2.83.2.69.78,1.08,1.25,1.55,9.16,9.01,19.78,15.73,31.83,20.16,3.86,1.42,7.78,2.7,11.87,3.31.06.15.16.28.3.38-.02,1.06-.06,2.12-.06,3.17,0,12.42,0,24.83,0,37.25,0,2.5,0,5,0,7.51,0,.48-.01.97-.13,1.42-.06.23-.34.49-.57.55-.46.12-.95.16-1.42.14-1.73-.08-3.45-.23-5.18-.3-2.79-.12-5.56-.27-8.34-.55-3.54-.35-7.07-.82-10.57-1.42-6.72-1.15-13.34-2.77-19.86-4.82-14.59-4.6-28.17-11.27-40.78-19.93-.39-.27-.8-.53-1.2-.79-.26-.17-.65-.02-.65.25-.03.96-.07,1.92-.07,2.88,0,40.9,0,81.8,0,122.71,0,2.79-.09,5.58-.07,8.37.03,3.19-.4,6.34-.77,9.48-.47,4.1-1.21,8.17-2.17,12.19-2.76,11.58-7.08,22.53-13.14,32.79-7.43,12.56-16.83,23.4-28.26,32.48-9.87,7.84-20.69,13.98-32.53,18.31-8.69,3.18-17.61,5.4-26.83,6.39-4.69.5-9.37.9-14.09.93-2.41.01-4.8-.24-7.2-.35-4.81-.24-9.56-.89-14.29-1.75-7.4-1.35-14.56-3.46-21.56-6.2-6.19-2.43-12.11-5.39-17.8-8.84-.57-.34-1.09-.81-1.83-.75-1.1-.91-2.2-1.82-3.3-2.73-.15-.46-.42-.79-.94-.84l.04.03c-.14-.63-.45-1.09-1.14-1.19l-.14.08.12-.11c0-.42-.29-.68-.54-.97-1.19-1.38-2.4-2.75-3.56-4.16-10.2-12.42-17.55-26.34-22.03-41.77-1.66-5.72-2.87-11.55-3.63-17.47-.42-3.25-.74-6.5-.89-9.76-.33-7.02-.01-14.02.93-21.01,1-7.45,2.61-14.75,5.05-21.85,9.15-26.62,25.64-47.5,49.47-62.47,16.21-10.19,33.93-15.96,53.06-17.34,2.11-.15,4.21-.36,6.31-.55Z"/>
  <path class="cls-8" d="M133.45,363.88c.74-.06,1.26.41,1.83.75,5.68,3.44,11.61,6.41,17.8,8.84,6.99,2.74,14.16,4.85,21.56,6.2,4.73.86,9.48,1.51,14.29,1.75,2.4.12,4.79.37,7.2.35,4.72-.03,9.4-.42,14.09-.93,9.22-.99,18.14-3.21,26.83-6.39,11.84-4.33,22.66-10.47,32.53-18.31,11.43-9.08,20.83-19.92,28.26-32.48,6.07-10.25,10.38-21.21,13.14-32.79.96-4.02,1.7-8.09,2.17-12.19.36-3.14.79-6.3.77-9.48-.02-2.79.07-5.58.07-8.37,0-40.9,0-81.8,0-122.71,0-.96.04-1.92.07-2.88,0-.27.39-.42.65-.25.41.25.81.51,1.2.79,12.61,8.66,26.19,15.33,40.78,19.93,6.51,2.05,13.13,3.67,19.86,4.82,3.5.6,7.02,1.07,10.57,1.42,2.78.28,5.56.43,8.34.55,1.73.07,3.45.22,5.18.3.47.02.97-.02,1.42-.14.23-.06.51-.33.57-.55.12-.46.13-.95.13-1.42.01-2.5,0-5,0-7.51,0-12.42,0-24.83,0-37.25,0-1.06.04-2.12.06-3.17,1.76-.15,3.41.51,5.12.72,3.63.45,7.24.93,10.9.98.48,0,.96,0,1.44.02.56.02.92.34.94.85.02.58.03,1.15.03,1.73,0,2.21,0,4.43,0,6.64,0,17.23,0,34.45,0,51.68,0,2.82.16,2.65-2.65,2.65-5.2,0-10.36-.47-15.53-1.06-13.93-1.59-27.33-5.15-40.28-10.48-9.63-3.96-18.73-8.92-27.36-14.76-.64-.43-1.27-.87-1.92-1.29-.48-.31-.99-.04-1,.53-.02.96-.02,1.92-.02,2.89,0,40.8,0,81.61,0,122.41,0,2.41-.01,4.81-.06,7.22-.16,8.99-1.58,17.79-3.89,26.46-4.45,16.71-12.25,31.71-23.37,44.93-15.6,18.56-35.15,31.12-58.43,37.83-4.98,1.44-10.08,2.4-15.22,3.16-8.33,1.24-16.69,1.41-25.04.88-8.65-.55-17.14-2.16-25.45-4.67-15.96-4.83-30.25-12.71-42.89-23.57-1.67-1.43-3.44-2.78-4.72-4.62Z"/>
  <path class="cls-3" d="M314.87,25.43c-.96.02-1.92.07-2.88.07-13.37,0-26.75,0-40.12,0-.86,0-1.73.01-2.59.04-.39.01-.69.34-.72.74-.02.29-.03.58-.04.86,0,.87,0,1.73,0,2.6,0,82.36,0,164.72,0,247.07,0,1.92-.05,3.85-.14,5.77-.51,10.26-3.86,19.55-9.82,27.88-7.68,10.74-18.02,17.66-30.75,21.01-5.16,1.36-10.43,1.65-15.73,1.43-11.29-.48-21.34-4.35-30.28-11.2-2.84-2.17-5.39-4.64-7.72-7.34-.31-.36-.51-.8-.76-1.21.6-.11,1.12.14,1.66.34,3.69,1.35,7.41,2.62,11.29,3.37.66.13,1.32.21,1.98.31.76.12,1.51.26,2.27.34,3.74.36,7.48.39,11.22-.01.47-.05.94-.23,1.41-.27,3.76-.26,7.39-1.2,10.9-2.49,4.6-1.7,9.04-3.79,13.02-6.71,1.86-1.36,3.72-2.72,5.36-4.35,2.32-2.3,4.68-4.55,6.64-7.2,3.16-4.28,5.72-8.86,7.54-13.85,1.02-2.79,1.97-5.62,2.43-8.56.35-2.27.89-4.52.81-6.85-.07-2.02,0-4.04,0-6.06,0-82.19,0-164.37,0-246.56,0-.96-.02-1.93.01-2.89.03-1.26.46-1.65,1.8-1.7.38-.01.77,0,1.15,0,19.15,0,38.3,0,57.45,0,.76,0,1.54.04,2.29.16,1,.16,1.34.58,1.36,1.53.02.67.03,1.35,0,2.02-.16,5.21.32,6.78.94,11.71Z"/>
  <path class="cls-2" d="M212.25,161.78c-2.1.18-4.21.4-6.31.55-19.13,1.38-36.85,7.15-53.06,17.34-23.83,14.97-40.32,35.85-49.47,62.47-2.44,7.1-4.04,14.4-5.05,21.85-.94,6.98-1.26,13.98-.93,21.01.15,3.26.48,6.51.89,9.76.76,5.92,1.97,11.74,3.63,17.47,4.48,15.43,11.83,29.36,22.03,41.77,1.16,1.41,2.37,2.78,3.56,4.16.25.29.54.55.54.97-.48.29-.92.16-1.32-.16-2.31-1.88-4.69-3.65-6.97-5.57-3.54-2.99-6.75-6.29-9.97-9.59-1.67-1.72-3.23-3.55-4.74-5.42-2.95-3.66-5.74-7.45-8.2-11.47-2.71-4.42-5.28-8.9-7.43-13.64-2.27-5-4.14-10.12-5.79-15.33-1.07-3.38-1.85-6.83-2.6-10.3-.67-3.09-.91-6.25-1.57-9.34-.14-.65-.08-1.34-.12-2.01-.06-1.15-.03-2.29-.38-3.43-.19-.62-.14-1.33-.14-2,0-4.52,0-9.04,0-13.56,0-.96,0-1.92.34-2.85.13-.35.13-.76.14-1.14.02-2.89.63-5.7,1.08-8.54,1-6.36,2.57-12.56,4.64-18.65,2.16-6.38,4.91-12.51,8.12-18.42,3.16-5.84,6.89-11.31,10.98-16.53,1.6-2.04,3.24-4.05,5.09-5.88,1.16-1.15,2.11-2.5,3.28-3.63,4.41-4.28,8.99-8.36,13.97-12,2.72-1.99,5.46-3.93,8.33-5.67,5.75-3.49,11.73-6.56,18-9.05,5.08-2.02,10.28-3.71,15.61-4.94,2.51-.58,4.99-1.39,7.59-1.53,1.81-.73,3.82-.33,5.66-.98.52-.18,1.14-.1,1.72-.13.67-.04,1.38.07,2.01-.12,1.98-.57,4-.44,6.01-.46,3.46-.04,6.93-.03,10.39,0,1.82.02,3.63-.02,5.44.43,1.1.27,2.3.12,3.45.21,1.09.08,1.6.6,1.6,1.64,0,4.23-.04,8.46-.06,12.69Z"/>
  <path class="cls-1" d="M170.7,310.81c-.76.16-1.28-.35-1.84-.69-4.58-2.72-8.67-6.06-12.26-9.99-6.92-7.57-11.36-16.37-13.2-26.47-.55-3.03-.97-6.08-.97-9.16,0-11.69,3.23-22.39,10.11-31.89,8.07-11.13,18.86-18.16,32.28-21.2,5.41-1.23,10.87-1.38,16.35-.99,3.35.23,6.66.92,9.9,1.86.28.08.57.24.83.19.23-.05.56-.31.59-.51.11-.75.15-1.52.15-2.29.01-6.06,0-12.13,0-18.19,0-9.82.02-19.63.03-29.45,2.88-.32,5.76-.13,8.64.02,1.44.08,2.88.2,4.31.35,1.62.17,3.24.39,4.86.61.43.06.63.39.65.81.02.48.03.96.03,1.44,0,20.01,0,40.02,0,60.03,0,.66-.08,1.33-.17,1.99-.02.13-.25.33-.39.33-.47,0-.95-.02-1.41-.12-1.59-.34-3.19-.69-4.77-1.09-2.63-.66-5.34-.62-8.02-.91-1.71-.18-3.45-.04-5.18.14-2.87.3-5.72.63-8.54,1.27-7.34,1.65-14,4.73-19.99,9.23-10.72,8.06-17.57,18.69-20.51,31.78-.95,4.23-1.42,8.55-1.23,12.89.43,9.79,3.07,18.93,8.37,27.23.41.65.87,1.27,1.25,1.94.12.22.08.54.11.81Z"/>
  <path class="cls-14" d="M396.18,452.64c.16,1,.81,1.62,1.29,2.32,7.27,10.53,14.54,21.05,21.81,31.57.49.71.99,1.42,1.47,2.14.34.5.1.97-.51.97-2.7.01-5.39,0-8.09,0-3.08,0-6.16,0-9.24,0-.74,0-1.28-.28-1.7-.88-2.2-3.16-4.41-6.31-6.61-9.46-3.04-4.33-6.07-8.66-9.12-12.99-.33-.47-.67-.93-1.04-1.38-.19-.23-.42-.31-.69-.06-1.49,1.37-2.98,2.73-4.48,4.08-.38.34-.6.73-.61,1.25,0,.67-.01,1.35-.01,2.02,0,4.62,0,9.24,0,13.86,0,.67,0,1.35-.01,2.02-.02.78-.3,1.11-.99,1.11-5.39.01-10.78.01-16.17,0-.71,0-1.03-.33-1.05-1.06-.03-.77-.02-1.54-.02-2.31,0-23.2,0-46.39,0-69.59,0-3.77-.42-3.22,3.18-3.24,4.23-.03,8.47,0,12.71,0,.58,0,1.16-.02,1.73.06.22.03.54.33.56.52.07.86.06,1.73.06,2.6,0,9.43,0,18.87,0,28.3,0,.87,0,1.73.02,2.6,0,.16.09.36.21.45.3.22.56,0,.76-.19.56-.52,1.1-1.08,1.65-1.62,4.44-4.41,8.88-8.81,13.32-13.22.55-.54,1.11-1.07,1.65-1.61.29-.28.61-.46,1.02-.45.1,0,.19,0,.29,0,6.74,0,13.47.02,20.21.02.26,0,.38.06.37.31,0,.09.02.2-.03.26-.17.23-.34.46-.54.67-.47.48-.96.94-1.45,1.41-6.07,5.91-12.14,11.82-18.2,17.73-.61.6-1.2,1.22-1.77,1.8Z"/>
  <path class="cls-14" d="M188.8,464.65c-1.51,1.4-3.05,2.83-4.62,4.25-.55.5-.7,1.1-.7,1.81.02,1.92,0,3.85,0,5.77,0,3.56,0,7.12,0,10.68,0,.48,0,.97-.1,1.43-.05.23-.32.45-.54.59-.14.09-.37.05-.57.05-5.2,0-10.39,0-15.59,0-.19,0-.38-.01-.58-.02-.37-.03-.73-.36-.75-.72-.03-.48-.06-.96-.06-1.44,0-24.06,0-48.11,0-72.17,0-.48,0-.97.08-1.44.02-.14.25-.29.42-.36.17-.07.37-.06.56-.06,5.29,0,10.58,0,15.88,0,1.09,0,1.24.17,1.24,1.39.01,2.69,0,5.39,0,8.08,0,7.79,0,15.59,0,23.38,0,.48.02.96.05,1.44,0,.07.07.19.13.2.17.03.42.1.52.02.52-.42,1.01-.88,1.49-1.35,4.72-4.67,9.42-9.35,14.14-14.03.41-.41.84-.79,1.23-1.21.36-.38.79-.5,1.29-.5,1.92,0,3.85,0,5.77,0,4.81,0,9.62.01,14.43.03.15,0,.37.12.41.23.05.14,0,.39-.1.51-.38.44-.78.85-1.19,1.25-6.13,5.98-12.27,11.95-18.4,17.93-.75.74-1.46,1.52-2.19,2.28.14,1.22,1.05,2.02,1.69,2.95,7.25,10.53,14.53,21.04,21.8,31.56.38.55.75,1.11,1.12,1.68.21.32-.07.76-.5.78-.19,0-.38,0-.58,0-5.39,0-10.78,0-16.17,0-.38,0-.79.05-1.15-.05-.35-.09-.73-.28-.96-.55-.5-.58-.93-1.22-1.37-1.85-4.91-7.01-9.81-14.02-14.73-21.03-.38-.54-.67-1.18-1.43-1.52Z"/>
  <path class="cls-5" d="M324.41,489.25c-.54.06-1.09.13-1.63.19-.95,0-1.91-.05-2.86,0-2.51.11-5.02.06-7.48-.37-5.79-1-11.02-3.37-15.39-7.34-8.82-8.01-12.32-18-10.04-29.66,2.6-13.26,12.91-21.6,23.07-24,.38-.09.74-.17,1-.5.84-.07,1.69-.06,2.51-.21,2.32-.44,4.65-.39,6.99-.29.48.43,1.09.28,1.64.36.85.13,1.72.16,2.56.34,4.27.91,8.2,2.6,11.77,5.14,11.15,7.95,16.12,21.93,11.65,35.16-3.68,10.9-11.36,17.74-22.49,20.67-.46.12-.96.11-1.3.51ZM318.01,473.38c8.22.12,15.26-6.42,15.25-15.06-.01-8.27-6.46-15.02-15.27-15.11-8.27-.08-14.97,6.77-15.12,14.98-.14,7.52,6.01,15.19,15.14,15.19Z"/>
  <path class="cls-11" d="M287.57,413.16c-.16.75-.25,1.41-.45,2.05-1.29,4.12-2.61,8.23-3.92,12.35-.12.37-.28.72-.4,1.08-.14.41-.44.61-.85.62-1.44.02-2.89.02-4.33.02-3.08,0-6.16.01-9.24.02-.39,0-.73.33-.74.7-.02.87-.04,1.73-.04,2.6,0,17.8,0,35.6,0,53.4,0,3.59.33,3.24-3.24,3.24-4.14,0-8.27,0-12.41,0-.58,0-1.15,0-1.73,0-1.13-.02-1.41-.27-1.43-1.3-.02-.77,0-1.54,0-2.31,0-17.41.01-34.83-.02-52.24,0-1.41.38-2.87-.31-4.23-1.31-.4-2.65-.18-3.98-.19-3.85-.04-7.7,0-11.55-.02-.67,0-1.35-.03-2.01-.11-.25-.03-.56-.18-.58-.54-.02-.29-.07-.57-.07-.86,0-4.33.02-8.66-.01-12.99,0-1.36.44-1.43,1.56-1.43.19,0,.38,0,.58,0,17.8,0,35.6,0,53.4,0,.57,0,1.13.09,1.79.14Z"/>
  <path class="cls-13" d="M97.23,458.99c0-9.33,0-18.66,0-27.99,0-2.04-.02-2.05-2.11-2.06-4.52-.01-9.04,0-13.56,0-.67,0-1.35-.02-2.02-.04-.37-.01-.77-.37-.79-.7-.02-.29-.04-.57-.04-.86,0-4.33,0-8.66,0-12.98,0-.29-.01-.59.06-.86.04-.16.24-.37.39-.38.67-.06,1.34-.09,2.01-.09,17.41,0,34.82,0,52.22,0,.58,0,1.15,0,1.73.02.66.02.92.31.75.86-.11.37-.26.72-.37,1.09-1.39,4.39-2.77,8.78-4.17,13.17-.3.96-.48,1.11-1.4,1.11-2.21.01-4.42,0-6.64,0-2.21,0-4.42.02-6.63.03-.4,0-.76.32-.77.68-.02.86-.04,1.73-.04,2.59,0,17.79,0,35.58,0,53.38,0,3.67.42,3.26-3.18,3.27-4.42.01-8.85,0-13.27,0-.48,0-.96-.01-1.44-.04-.35-.02-.68-.38-.69-.78-.03-.58-.04-1.15-.04-1.73,0-9.23,0-18.47,0-27.7Z"/>
  <path class="cls-9" d="M139.43,463.36c0-7.79,0-15.58,0-23.38,0-.67-.01-1.35.07-2.02.03-.21.3-.47.53-.57.25-.11.57-.06.86-.06,5.1,0,10.2,0,15.3,0,.29,0,.57.04.86.05.35.01.54.29.59.54.09.47.08.96.08,1.44,0,15.87,0,31.75,0,47.62,0,.48-.03.96-.06,1.44-.03.4-.36.75-.71.77-.29.02-.57.04-.86.04-5,0-10.01,0-15.01,0-.38,0-.77-.02-1.14-.11-.15-.03-.37-.24-.38-.39-.07-.67-.11-1.34-.11-2.01,0-7.79,0-15.58,0-23.38Z"/>
  <path class="cls-12" d="M352.66,83.23c-.41.08-.74-.08-1.06-.31-11.11-7.82-19.99-17.66-26.66-29.5-4.17-7.41-7.17-15.29-9.07-23.58-.32-1.4-.52-2.83-.77-4.24,1.05-.04,2.11-.1,3.16-.11,3.84-.01,7.68,0,11.52,0,.67,0,1.34.02,2.01.05.36.02.66.36.69.77.01.19.03.38.03.57,0,.58.02,1.15,0,1.73-.19,6.38.86,12.62,2.42,18.77,3.16,12.45,8.77,23.7,16.82,33.73.42.52.77,1.09,1.12,1.66.05.08-.14.3-.22.46Z"/>
  <path class="cls-4" d="M402.54,112.37c-4.09-.61-8.01-1.89-11.87-3.31-12.05-4.43-22.67-11.15-31.83-20.16-.47-.46-1.05-.86-1.25-1.55.37.07.8.03,1.1.21,6.12,3.69,12.75,6.19,19.56,8.18,3.01.88,6.05,1.81,9.23,2.03,1.8.81,3.79.37,5.66.93,1.07.32,2.29.15,3.44.18,1.63.04,3.26.05,4.9.11.73.03,1.23.57,1.28,1.3.03.38.03.77.03,1.15,0,2.88.02,5.76,0,8.64,0,.76-.15,1.52-.23,2.28Z"/>
  <path class="cls-10" d="M311.08,427.58c-.26.32-.62.41-1,.5-10.17,2.4-20.48,10.74-23.07,24-2.28,11.66,1.22,21.66,10.04,29.66,4.37,3.97,9.59,6.34,15.39,7.34,2.46.42,4.97.48,7.48.37.95-.04,1.91,0,2.86,0-.14.11-.27.3-.42.32-3.74.34-7.5.29-11.22-.03-4.3-.37-8.5-1.37-12.37-3.41-4.4-2.32-8.05-5.49-11.04-9.46-2.58-3.42-4.38-7.19-5.3-11.37-.7-3.19-1.16-6.45-.75-9.69.75-5.87,2.64-11.29,6.33-16.09,4.39-5.7,10.05-9.39,16.87-11.33,1.99-.57,4.06-1.19,6.21-.8Z"/>
  <path class="cls-7" d="M324.41,489.25c.34-.4.84-.39,1.3-.51,11.13-2.93,18.81-9.77,22.49-20.67,4.47-13.23-.5-27.21-11.65-35.16-3.56-2.54-7.5-4.23-11.77-5.14-.84-.18-1.71-.21-2.56-.34-.55-.09-1.16.06-1.64-.36,8.49-.39,16.12,1.89,22.69,7.36,5.57,4.64,9.14,10.53,10.56,17.67,3.34,16.85-6.94,31.13-20.7,35.75-2.81.94-5.68,1.76-8.72,1.39Z"/>
  <path class="cls-6" d="M148.59,431c-4.59.31-9.23-3.92-9.18-9.09.04-4.77,4.31-8.93,9.09-8.95,4.12-.02,9.19,3.24,9.17,9.14-.01,4.97-4.06,8.88-9.08,8.89Z"/>
  <path class="cls-2" d="M128.11,359.16c.69.1,1,.56,1.14,1.19-1.02-.18-1.13-.29-1.14-1.19Z"/>
  <path class="cls-12" d="M353.73,83.9c-.59.12-1-.05-1.11-.69.19-.12.36-.31.63-.11.28.21.47.45.48.8Z"/>
  <path class="cls-2" d="M129.22,360.32c.52.05.79.37.94.84-.52-.05-.93-.21-.94-.84Z"/>
  <path class="cls-12" d="M354.38,84.52c-.38-.07-.74-.14-.68-.66.42.02.6.29.68.66Z"/>
  <path class="cls-1" d="M171.36,311.33c-.38,0-.65-.11-.69-.54.49-.15.59.2.69.54Z"/>
</svg>