<?xml version="1.0" encoding="UTF-8"?>
<svg id="Layer_1" data-name="Layer 1" xmlns="http://www.w3.org/2000/svg" version="1.1" viewBox="0 0 500 500">
  <defs>
    <style>
      .cls-1 {
        fill: #000;
        stroke-width: 0px;
      }
    </style>
  </defs>
  <path class="cls-1" d="M428.18,272.2c-3.12-3.21-5.95-6.12-9.04-9.3,5.18-5.04,10.62-10.32,16.05-15.6-.06-.18-.11-.37-.17-.55h-23.02v-12.98h22.88c.1-.2.21-.41.31-.61-5.37-5.09-10.74-10.18-16.31-15.45,3.24-2.93,6.35-5.74,9.31-8.41,4.93,4.69,10.27,9.77,15.86,15.08v-22.92h13.58v22.65c5.4-5.23,10.72-10.38,15.76-15.27,3.23,3.03,6.28,5.89,9.5,8.91-5.5,5.2-10.86,10.27-16.23,15.34l.11.51h23.22v12.96h-23.14c-.12.2-.23.4-.35.6,5.21,5.46,10.76,10.58,16.04,15.74-2.96,3.04-5.83,5.98-8.75,8.98-7.55-7.54-15.09-15.06-22.77-22.73-7.79,7.85-15.33,15.46-22.86,23.05Z"/>
  <path class="cls-1" d="M294.84,269.33c.39,8.15,4.72,14.69,12.44,16.53,7.47,1.78,17.82-.05,21.41-9.13h12.87c-.46,5.14-2.81,9.25-6.23,12.62-10.58,10.43-28.47,12.06-40.85,3.85-7.08-4.69-10.55-11.68-11.97-19.76-1.42-8.07-.69-15.95,3.04-23.38,6.67-13.3,20.14-18.22,33.9-15.18,12.85,2.85,20.07,12.54,21.94,24.48.44,2.84.46,5.75.65,8.63.02.36-.08.72-.17,1.34h-47.03ZM296.19,258.21h31.81c-1.87-8.17-8.84-12.77-18.11-12.11-6.39.45-13.11,6.35-13.7,12.11Z"/>
  <path class="cls-1" d="M408.88,269.41h-47.6c-.2,7.84,4.81,14.48,12.23,16.39,7.51,1.93,17.84.14,21.56-9.13h12.95c-.27,1.24-.42,2.37-.75,3.44-2,6.45-6.3,11.1-12.14,14.12-11.88,6.12-23.72,5.82-34.97-1.58-5.95-3.92-9.2-9.91-10.73-16.82-1.87-8.46-1.64-16.76,1.98-24.78,4.95-10.95,15.31-17.42,27.33-17.04,7.07.22,13.55,2.07,19.1,6.7,4.75,3.96,7.65,9.09,9.05,14.95,1.04,4.35,1.33,8.87,2.02,13.75ZM362.35,258.29h31.83c-.87-6.51-7.59-12.1-14.51-12.19-9.18-.12-16.18,4.73-17.32,12.19Z"/>
  <path class="cls-1" d="M166.12,296.45h-13v-84.49h12.96v53.13l.51.19c8.12-9.85,16.25-19.7,24.37-29.55h16.17c-8.88,10.33-17.48,20.33-26.19,30.46,8.64,10.05,17.17,19.96,25.99,30.22h-16.17c-7.94-9.59-16.04-19.38-24.13-29.16-.17.05-.33.09-.5.14v29.06Z"/>
  <path class="cls-1" d="M102.9,296.47h-12.76v-60.65h12.78v7.34c.19.05.38.09.57.14.55-.65,1.1-1.3,1.66-1.95,4.78-5.54,11.06-7.43,18.1-7.32,11.52.18,19.13,7.93,21.4,18.94.71,3.46,1.05,7.04,1.1,10.58.14,10.31.05,20.62.05,30.93,0,.65-.09,1.3-.14,2.01h-12.82c0-.99,0-1.86,0-2.72,0-9.79.05-19.58-.04-29.37-.02-2.43-.31-4.89-.78-7.27-2.15-10.85-11.49-12.81-19.23-10.27-6.22,2.04-8.7,7.13-9.42,13.1-.5,4.17-.41,8.43-.45,12.65-.06,7.12-.02,14.24-.02,21.36,0,.79,0,1.59,0,2.52Z"/>
  <path class="cls-1" d="M10,211.97h13.74v72.19h38.04v12.3H10v-84.5Z"/>
  <path class="cls-1" d="M225.96,220.12v15.47h15.48v10.62h-15.44c-.06,1.1-.13,1.9-.13,2.69,0,9.05,0,18.1,0,27.14,0,.81.03,1.63.13,2.44.51,4.18,2.49,6.01,6.71,6.11,2.65.06,5.31.01,8.12.01v11.99c-3.96,0-7.87.07-11.77-.03-1.61-.04-3.26-.28-4.81-.73-6.82-1.98-11.03-7.55-11.35-15.06-.15-3.55-.08-7.12-.09-10.68,0-15.72,0-31.45,0-47.17,0-.88,0-1.75,0-2.81h13.15Z"/>
  <path class="cls-1" d="M280.78,234.45v11.93c-1.25-.08-2.34-.18-3.44-.2-7.8-.13-12.86,3.43-14.98,10.93-.84,2.95-1.34,6.09-1.4,9.16-.18,9.19-.07,18.39-.07,27.58,0,.8,0,1.61,0,2.58h-12.91v-60.59h12.64v6.65c.15.1.29.2.44.3,4.74-7.18,11.27-9.89,19.72-8.34Z"/>
  <path class="cls-1" d="M81.75,296.47h-12.57v-60.66h12.57v60.66Z"/>
  <path class="cls-1" d="M444.43,265.71h13.17v30.81h-13.17v-30.81Z"/>
  <path class="cls-1" d="M67.18,220.14c0-4.51,3.79-8.24,8.39-8.25,4.56,0,8.36,3.75,8.39,8.29.04,4.67-3.73,8.33-8.53,8.29-4.6-.03-8.25-3.72-8.25-8.34Z"/>
</svg>