<?xml version="1.0" encoding="UTF-8"?>
<svg id="Layer_1" data-name="Layer 1" xmlns="http://www.w3.org/2000/svg" version="1.1" viewBox="0 0 500 500">
  <defs>
    <style>
      .cls-1 {
        fill: #27b7e9;
        stroke-width: 0px;
      }
    </style>
  </defs>
  <path class="cls-1" d="M432.78,317.91c-.65-.09-1.29-.22-1.94-.27-7.15-.54-13.78-2.54-19.5-7.01-3.46-2.71-6.3-5.99-8.4-9.87-.19-.36-.38-.71-.64-1.18-.43.23-.82.42-1.19.65-6.25,3.84-12.7,7.28-19.54,9.96-6.97,2.74-14.14,4.76-21.54,5.96-5.73.93-11.49,1.37-17.29,1.15-4.79-.18-9.45-1.05-13.87-3.01-4.8-2.13-8.72-5.32-11.59-9.74-.36-.56-.74-1.11-1.11-1.66-.05-.08-.15-.12-.29-.23-1.37,1.11-2.74,2.25-4.15,3.34-5.66,4.34-11.8,7.73-18.74,9.58-2.98.79-6.02,1.29-9.09,1.32-2.08.02-4.22-.17-6.23-.66-4.55-1.11-7.47-4.13-8.8-8.57-1.04-3.47-1.11-7.03-.83-10.63.55-6.96,2.36-13.67,3.94-20.43.93-3.98,1.69-8,1.97-12.08.15-2.15-.05-4.3-.84-6.34-.96-2.45-3.08-3.55-5.66-3.01-2.54.53-4.4,2.1-6.12,3.89-2.53,2.64-4.65,5.59-6.5,8.72-3.13,5.29-6,10.7-7.97,16.56-1.5,4.47-2.6,9.01-3,13.73-.33,3.89-.4,7.77.11,11.63.21,1.61.71,3.18,1.09,4.77.12.49.28.97.44,1.5-.26.08-.45.19-.64.19-3.48.04-6.97.08-10.43-.48-2.43-.39-4.81-.95-7.11-1.83-5.65-2.17-8.91-6.32-10.19-12.13-.91-4.14-.74-8.33-.43-12.52.38-5.18,1.81-10.14,2.99-15.16.96-4.09,1.65-8.22,1.43-12.44-.03-.56-.14-1.11-.22-1.66-.68-4.53-5.32-5.92-8.86-4.19-1.12.55-2.14,1.41-3.05,2.29-2.75,2.67-4.72,5.91-6.48,9.28-3.16,6.05-5.61,12.37-6.99,19.08-.81,3.91-1.4,7.85-1.41,11.85,0,3.88.11,7.77.33,11.65.1,1.66.6,3.31.92,4.96.07.34.18.68.27,1.04-.17.1-.29.24-.41.25-5.73.24-11.36-.25-16.7-2.56-5.31-2.29-8.82-6.18-10.42-11.75-.11-.38-.23-.76-.38-1.23-1.72,1.47-3.36,2.92-5.06,4.31-5.69,4.64-11.94,8.27-19.01,10.38-3.4,1.01-6.89,1.55-10.43,1.66-3.12.1-6.13-.46-8.82-2.16-3.9-2.46-5.88-6.15-6.65-10.58-.78-4.47-.09-8.86.74-13.24,1.69-8.94,4.42-17.63,6.77-26.4.52-1.92,1-3.86,1.5-5.78.44-1.68.35-3.36-.16-4.99-.79-2.57-2.95-3.52-5.3-2.22-1.83,1.01-3.54,2.25-5.26,3.44-.39.27-.69.76-.86,1.22-3.12,8.59-7.82,16.32-13.11,23.69-3.73,5.19-7.65,10.26-11.67,15.23-4.28,5.31-9,10.23-14.38,14.46-4.04,3.18-8.36,5.92-13.44,7.2-3.4.86-6.7.84-9.76-1.13-1.83-1.18-3.31-2.74-4.59-4.49-3.27-4.48-5.34-9.5-6.79-14.83-2.84-10.45-5.68-20.89-8.65-31.3-.8-2.79-1.94-5.49-3.13-8.14-.66-1.47-1.69-2.79-2.67-4.09-.44-.59-1.14-1.01-1.79-1.4-.94-.57-1.93-.61-2.9,0-1.99,1.25-3.99,2.5-5.98,3.75-.38.24-.75.5-1.24.83-1.7-2.19-3.34-4.33-5.07-6.57.99-.9,1.92-1.76,2.86-2.6,4.63-4.12,9.22-8.29,13.9-12.34,3.41-2.95,7-5.69,11.13-7.6,4.2-1.94,8.27-1.6,12.1.97,1.87,1.25,3.12,3.09,4.12,5.07,1.66,3.27,2.46,6.81,3.08,10.39,1.33,7.7,2.54,15.41,4.04,23.08.73,3.74,1.96,7.4,3.05,11.06.35,1.16.94,2.27,1.5,3.36.32.63.75,1.23,1.22,1.76,1.29,1.45,2.62,1.66,4.22.56.92-.63,1.81-1.38,2.52-2.23,5.21-6.19,9.44-12.99,12.16-20.64.87-2.44,1.08-4.98.48-7.55-.6-2.6-2.29-4.05-4.84-4.5-2.68-.47-5.29.03-7.86.79-.63.19-1.26.38-2.05.62.07-.46.09-.79.18-1.11,1.49-4.83,3.64-9.33,6.66-13.4,4.55-6.12,10.69-9.61,18.21-10.53,3.25-.4,6.54-.33,9.77.51,4.75,1.24,7.81,4.29,9.49,8.81.71,1.92,1.16,3.91,1.27,5.97.03.54.17,1.08.29,1.8,1.68-1.52,3.2-2.88,4.7-4.26,3.63-3.32,7.34-6.54,11.55-9.13.74-.45,1.51-.86,2.28-1.28,5.22-2.83,14.48-1.77,17.45,6.9,1.49,4.34,1.44,8.69.53,13.15-1.4,6.9-2.67,13.83-3.93,20.76-.81,4.47-1.52,8.96-2.22,13.45-.36,2.32-.03,4.6.83,6.77,1.31,3.32,5.07,4.75,8.46,3.43,1.65-.64,3.21-1.59,4.7-2.57,1.62-1.07,3.1-2.35,4.66-3.51.53-.4.78-.87.87-1.52.45-3.13.94-6.26,1.43-9.39.54-3.48,1.17-6.95,1.62-10.44.4-3.19.61-6.4.89-9.61.03-.35,0-.72-.03-1.07-.18-1.83-1.45-2.6-3.14-1.83-1.07.49-2.07,1.12-3.06,1.75-1.33.85-2.63,1.76-4.06,2.72-1.95-2.18-3.85-4.31-5.8-6.5.27-.32.47-.6.71-.83,4.75-4.37,9.48-8.75,14.25-13.1,3.1-2.83,6.19-5.68,9.73-7.98,4.34-2.82,9.01-2.35,12.67,1.33,2.89,2.9,4.45,6.49,5.14,10.43.35,2,.29,4.07.39,6.11.04.71,0,1.42,0,2.27,1.05-1.33,1.97-2.6,3-3.79,6.25-7.16,13.78-12.3,23.09-14.66,4.05-1.03,8.17-1.44,12.33-1.08,4.5.39,8.47,1.96,11.34,5.63,1.98,2.53,2.95,5.48,3.38,8.61.28,2,.34,4.04.51,6.16,1.73-1.36,3.32-2.77,4.74-4.39,3.97-4.54,8.42-8.52,13.67-11.55,6.27-3.62,13.03-5.11,20.22-4.44,8.48.8,13.27,6.33,14.42,13.92.72,4.76.43,9.51-.49,14.19-1.52,7.71-3.2,15.39-4.88,23.07-.58,2.64-.7,5.29-.43,7.93.29,2.81,1.17,3.86,4.18,4.44,2.97.58,5.4-.58,7.79-2.07.61-.38.54-.93.51-1.49-.08-1.38-.24-2.75-.26-4.13-.09-7.18,1.56-13.99,4.68-20.43,3.91-8.09,9.53-14.88,16.12-20.92,4.59-4.21,9.69-7.71,15.31-10.42,5.2-2.51,10.7-4.09,16.39-4.96,3.9-.6,7.84-.89,11.79-.64,3.73.24,7.44.74,10.94,2.18,6.29,2.57,9.87,7.3,11.26,13.91,1.42,6.78-.41,12.75-4.12,18.3-3.42,5.11-7.77,9.38-12.54,13.21-9.08,7.3-19.51,11.69-30.83,14.14-1.33.29-2.67.54-4.18.84,1.59,2.14,3.44,3.68,5.78,4.57,2.42.91,4.94,1.37,7.53,1.24,2.4-.12,4.8-.32,7.2-.51,4.15-.32,8.19-1.2,12.21-2.21,6.42-1.61,12.61-3.88,18.68-6.48.23-.1.45-.24.78-.41,0-.56.05-1.17,0-1.77-1.05-10.65,1.72-20.35,7.29-29.35,2.35-3.8,5.21-7.21,8.22-10.5,3.1-3.38,6.5-6.39,10.3-8.94,6.49-4.37,13.58-7.25,21.32-8.62,5.09-.9,10.2-1.19,15.3-.82,9.02.66,16.55,4.34,22.07,11.69,3.78,5.03,5.92,10.7,6.67,16.91.2,1.62.37,3.23.56,4.85v4.61c-.09.39-.23.78-.25,1.17-.22,5.24-1.29,10.32-2.95,15.28-2.4,7.17-6.24,13.52-11.17,19.23-4.76,5.52-10.25,10.11-16.86,13.31-5.29,2.56-10.83,4.24-16.7,4.81-1.46.14-2.92.37-4.38.56h-4.92ZM427.38,282.13c.17,1.67.24,3.37.52,5.02.45,2.6,1.47,5,3.05,7.13,1.24,1.67,2.86,2.82,4.97,3.01,1.89.18,3.77-.03,5.62-.54,4.61-1.27,8.14-4.11,10.93-7.8,7.03-9.28,10.81-19.64,9.79-31.44-.26-2.97-.95-5.86-2.34-8.52-1.64-3.13-3.78-4.34-6.98-3.63-.1.02-.2.03-.3.04-4.59.34-8.42,2.31-11.8,5.33-3.11,2.77-5.35,6.17-7.35,9.76-3.75,6.73-5.88,13.9-6.11,21.64ZM342.1,279.67c.24.05.3.08.34.07.24-.08.49-.15.72-.25,7.39-2.91,13.9-7.15,19.38-12.9,2.4-2.52,4.57-5.25,6.02-8.46.85-1.89,1.28-3.83.88-5.95-.55-2.93-2.58-4.53-5.54-4.23-2.99.31-5.63,1.43-7.92,3.36-5.92,5.01-10.08,11.23-12.61,18.52-1.09,3.15-1.5,6.44-1.27,9.83Z"/>
  <path class="cls-1" d="M140.71,211.95c-1.96.08-3.97-.31-5.94-.89-4.05-1.19-6.58-4.6-6.91-8.81-.38-4.75,1.36-8.58,4.6-11.89,3.82-3.89,8.25-6.67,13.67-7.77,2.13-.43,4.27-.61,6.41-.41,2.15.2,4.06,1.09,5.63,2.57,3.39,3.21,5.36,6.95,4.19,11.79-.53,2.17-1.5,4.13-2.85,5.9-3.19,4.17-7.18,7.26-12.31,8.71-2.08.59-4.2.9-6.48.8Z"/>
</svg>