<?xml version="1.0" encoding="UTF-8"?>
<svg id="Layer_1" data-name="Layer 1" xmlns="http://www.w3.org/2000/svg" version="1.1" viewBox="0 0 500 500">
  <defs>
    <style>
      .cls-1 {
        fill: #1899d3;
      }

      .cls-1, .cls-2, .cls-3, .cls-4, .cls-5, .cls-6, .cls-7, .cls-8, .cls-9, .cls-10 {
        stroke-width: 0px;
      }

      .cls-2 {
        fill: #656565;
      }

      .cls-3 {
        fill: #646465;
      }

      .cls-4 {
        fill: #1598d3;
      }

      .cls-5 {
        fill: #1798d3;
      }

      .cls-6 {
        fill: #676666;
      }

      .cls-7 {
        fill: #666;
      }

      .cls-8 {
        fill: #1999d3;
      }

      .cls-9 {
        fill: #1698d3;
      }

      .cls-10 {
        fill: #646565;
      }
    </style>
  </defs>
  <path class="cls-7" d="M72.98,187.92c.26.66.96.45,1.44.69,2.4,1.2,3.71,3.73,3.15,6.32-.53,2.47-2.75,4.34-5.27,4.44-2.86.11-5-1.47-5.79-4.28-.67-2.39.48-5.01,2.71-6.33.53-.32,1.28-.2,1.64-.84h2.12Z"/>
  <path class="cls-9" d="M102.65,265.1c.87-1.92,1.64-3.88,2.19-5.93.54-2.03.87-4.1,1.02-6.33h11.44c.6,9.69-5.44,24.7-17.58,33.95-12.75,9.71-34.39,14.29-54.42.94-6.97,3.98-13.68,8.65-21.29,11.73-.61-1.27.04-2.03.41-2.83,2.12-4.54,4.72-8.81,7.3-13.1,1.16-1.93,2.32-3.85,3.55-5.88-5.38-7.36-8.3-15.58-8.96-24.8h11.72c.43,3.69,1.18,7.31,2.66,10.75,2.91,6.75,7.52,12,13.77,15.86.35.22.77.33,1.16.49,2.44,1.63,5.14,2.61,7.98,3.26,6.37,1.67,12.69,1.41,18.96-.54.12-.04.2-.19.29-.28.5,0,.95-.17,1.42-.34,2.88-1.02,5.46-2.57,7.9-4.36,4.14-3.03,7.51-6.73,9.72-11.4.48-.26.57-.77.78-1.21Z"/>
  <path class="cls-5" d="M39.41,241.57c-1.06,1.81-.72,3.96-1.49,5.95h-11.58c1.29-14.75,7.74-26.62,20.02-34.73,15.43-10.19,31.8-10.92,48.03-1.99,14.25,7.84,21.59,20.46,23.33,36.69h-11.7c-.8-3.01-.76-6.27-2.45-9.03-.07-.34-.09-.7-.23-1.01-3.01-7.11-7.85-12.62-14.58-16.44-3.96-2.25-8.22-3.63-12.74-4.18-7.06-.71-13.78.37-20.07,3.76-.92.5-1.9.93-2.61,1.74-.43.24-.89.43-1.28.72-4.47,3.33-8.07,7.42-10.51,12.44-.94,1.94-1.99,3.87-2.12,6.1Z"/>
  <path class="cls-2" d="M451.47,270.33v-49.96c.18-.13.3-.27.41-.27,7.78,0,15.57-.14,23.35.08,4.45.13,8.42,1.85,11.23,5.51,3.81,4.96,3.9,14.99-5.44,18.75.2.41.62.49.98.63,4.93,1.93,7.49,5.72,7.94,10.79.42,4.81-1.34,8.85-5.42,11.7-2.68,1.87-5.71,2.88-8.93,2.93-7.85.11-15.71.04-23.56.03-.13,0-.25-.09-.55-.19ZM461.71,262.12c3.97,0,7.71.1,11.45-.03,3.5-.12,5.94-2.31,6.33-5.4.45-3.58-1.33-6.31-4.78-7.46-1.17-.39-2.36-.4-3.55-.41-2.61-.03-5.23-.02-7.84,0-.53,0-1.13-.21-1.6.33v12.97ZM461.72,240.81c3.55,0,6.92.02,10.3-.02.69,0,1.39-.21,2.07-.41,2.88-.86,4.34-3.07,4.18-6.28-.14-2.81-1.89-4.93-4.69-5.47-3.9-.75-7.83-.23-11.85-.39v12.58Z"/>
  <path class="cls-7" d="M390.97,270.49h-10.25v-21.09h-21.44v21.03h-10.14v-50.25h10.05v20.48h21.42v-20.44h10.37v50.27Z"/>
  <path class="cls-7" d="M400.54,220.14h10.15c.54.72.28,1.53.29,2.27.02,9.53.01,19.05.02,28.58,0,1.27.01,2.52.32,3.78.9,3.65,3.17,5.91,6.83,6.69,2.45.52,4.95.5,7.31-.39,3.44-1.3,5.2-3.97,5.63-7.54.11-.91.1-1.83.1-2.75,0-9.46,0-18.91,0-28.37v-2.22h10.2c.42.51.24,1.1.24,1.64.01,10.09.07,20.18,0,30.27-.08,10.91-7.75,17.98-17.91,18.85-4.19.36-8.33.11-12.25-1.66-6.09-2.76-9.55-7.46-10.58-14.02-.34-2.18-.35-4.35-.35-6.53,0-8.75,0-17.5,0-26.25v-2.35Z"/>
  <path class="cls-1" d="M197.45,235.71h-11.31c-.46-.2-.68-.66-.92-1.08-2.04-3.62-5.33-5.46-9.28-5.92-6.92-.81-12.98,1.9-15.67,8.57-2.78,6.86-2.43,13.7,2.39,19.74,2.29,2.87,5.44,4.42,9.15,4.69,3.51.25,6.92,0,9.92-2.14,1.82-1.3,3.16-3,4.21-4.98h11.25c.43.49.24.95.05,1.41-3.28,7.99-9.2,12.88-17.66,14.52-5.71,1.11-11.41.79-16.79-1.68-6.62-3.05-11.2-8.01-13.38-15-2.26-7.23-1.89-14.36,1.62-21.11,3.86-7.44,10.11-11.75,18.42-13.02,7.61-1.17,14.6.29,20.73,5.09,3.36,2.63,5.71,6.01,7.15,10.02.09.25.06.54.1.92Z"/>
  <path class="cls-1" d="M265.46,250.25c.15,6.09-1.77,11.23-6.06,15.38-3.13,3.02-6.95,4.68-11.26,5.38-4.54.74-8.87.18-12.98-1.76-5.05-2.38-8.54-6.28-10.05-11.64-1.76-6.24-1.58-12.45,1.81-18.18,3.47-5.87,8.83-8.95,15.6-9.54,4.74-.41,9.28.3,13.47,2.76,5.91,3.47,9.83,10.4,9.49,17.61ZM234.37,251.16c-.17.72.23,2.03.53,3.32,1.1,4.62,4.31,7.51,9.01,7.87,3.21.25,7.62-1.1,9.76-5.75,1.91-4.16,1.94-8.48-.13-12.58-3.05-6.03-11.15-7.16-15.95-2.39-2.5,2.47-3.01,5.6-3.22,9.53Z"/>
  <path class="cls-4" d="M310.75,270.47h-9.98v-4.33c-.79.02-1.06.55-1.41.9-2.72,2.62-5.98,3.84-9.74,4-3.54.14-6.89-.42-9.95-2.29-3.58-2.19-5.54-5.54-6.56-9.48-.39-1.49-.53-3.04-.53-4.6.02-7.62,0-15.24.01-22.86,0-.41-.09-.85.26-1.34h9.77c.35.74.2,1.45.2,2.14.01,6.84-.02,13.69.02,20.53.02,3.17.95,6.03,3.76,7.83,5.01,3.21,12.83,1.12,13.74-5.75.2-1.47.32-2.93.32-4.41.01-6.07,0-12.14,0-18.21v-2.16h9.89c.44,1.48.62,35.88.19,40.03Z"/>
  <path class="cls-1" d="M341.3,238.87h-8.49c-.47.64-.31,1.22-.31,1.77-.01,5.71.04,11.43-.03,17.14-.04,3.18,1.08,4.03,4.19,4.24,1.48.1,2.97.02,4.62.02v8.31c-.35.41-.96.22-1.49.2-3.1-.13-6.21.34-9.29-.39-4.7-1.11-7.55-4.28-8.21-9.03-.47-3.38-.22-6.75-.27-10.13-.06-3.81-.02-7.62-.03-11.43,0-.14-.06-.27-.11-.5-1.36-.6-2.88.02-4.45-.41v-8.3h4.51v-9.53c1.79-.51,3.47-.21,5.13-.26,1.69-.05,3.39-.01,5.31-.01v9.69h8.93v8.63Z"/>
  <path class="cls-10" d="M76.01,216.82c4.53.55,8.78,1.93,12.74,4.18,6.73,3.82,11.57,9.33,14.58,16.44.13.31.15.67.23,1.01-1.95-.33-3.84-.89-5.71-1.5-.76-.25-1.48-.45-2.25-.19-.92.59-.97,1.47-.95,2.43.04,1.4.09,2.82-.02,4.21-.15,1.77-.96,3.22-2.56,4.13-1.71.97-3.2.79-4.64-.55-.87-.81-1.56-1.85-2.86-2.16-.85.11-1.42.76-2.06,1.31-1.3,1.12-1.97,1.23-3.05.01-1.3-1.46-2.61-1.42-4.14-.58-.43.24-.9.41-1.35.59-.83.34-1.68.45-2.38-.21-.79-.75-.95-1.74-.55-2.72.32-.77.79-1.49,1.23-2.2.37-.6.83-1.14,1.2-1.74,1.54-2.44,1.78-4.61-.24-6.51-.14-.13-.15-.38-.26-.65.12-.21.19-.53.38-.68,1.72-1.33,1.63-2.99.89-4.74-.38-.9-.85-1.77-1.34-2.62-1.77-3.04-.98-6.06,2.77-7.03.12-.03.22-.16.33-.25Z"/>
  <path class="cls-8" d="M206.47,216.83c2.91,0,5.73,0,8.54,0,.42,0,.86-.04,1.35.4v53.21h-9.9v-53.61Z"/>
  <path class="cls-10" d="M101.88,266.32c-2.22,4.67-5.58,8.38-9.72,11.4-2.44,1.78-5.03,3.33-7.9,4.36-.47.17-.92.34-1.42.34-3.08-.81-4.9-2.9-5.99-5.77-.58-1.52-1.43-2.9-2.35-4.23-.65-.94-1.16-1.95-1.34-3.07-.33-2.07.88-3.76,2.95-3.77,1.71,0,2.84-.65,3.64-2.05.89-1.57,2.23-2,3.95-1.73,2.87.46,3.58-.11,3.85-3.15.29-.2.76-.51,1.08-.73.17-1.43.12-2.63.47-3.8.62-2.03,1.85-3.02,3.99-3.05.57,0,1.13,0,1.7,0,3.89,0,6.6,2.4,7.06,6.32.29,2.53.26,5.07.12,7.6-.03.44-.05.89-.08,1.33Z"/>
  <path class="cls-2" d="M63.58,283.24c-2.84-.65-5.54-1.63-7.98-3.26-.54-2.41-.54-4.89-.82-7.33-.1-.84-.26-1.66-.45-2.49-.45-1.92-1.67-3.03-3.58-3.45-.55-.12-1.1-.26-1.64-.4-3.23-.86-4.75-3.3-3.55-6.4,1.42-3.66,3.76-6.76,7.03-9.05.86-.6,1.86-1,2.95-1.07,1.48-.1,2.63.13,3.61,1.55,1.85,2.69,4.78,3.56,7.89,3.91.14.02.28.02.42.03,2.73.23,3.23.74,3.4,3.5.58,1.21,2.16,1.3,2.86,2.47.58,1.74-.28,2.96-1.66,3.89-1.05.71-2.17,1.31-3.29,1.9-1.14.6-2.13,1.37-3,2.31-1.01,1.09-1.52,2.34-1.38,3.85.17,1.89.32,3.78.45,5.68.11,1.6-.28,3.07-1.27,4.35Z"/>
  <path class="cls-3" d="M39.41,241.57c.13-2.23,1.18-4.16,2.12-6.1,2.45-5.02,6.04-9.11,10.51-12.44.39-.29.85-.48,1.28-.72,1.42.36,2.9.49,4.26,1.14,1.2.58,1.85,1.46,2.1,2.71.07.34.03.71.09,1.05.4,2.23.82,4.3,3.43,5.27,1.85.69,2.44,2.76,1.15,4.42-1.58,2.04-1.44,3.76-.16,5.71.07.11.06.27.1.44-.42,1.41-1.6,1.59-2.84,1.63-2.32.08-4.64.05-6.96.34-1.87.23-3.35.95-4.5,2.42-.7.9-1.45,1.74-2.93,1.89-1.64-.83-2.94-2.35-4.09-3.9-1.06-1.43-2.24-2.7-3.57-3.85Z"/>
  <path class="cls-6" d="M77.65,306.34c.04,3.16-2.38,5.67-5.52,5.74-3.12.07-5.75-2.39-5.82-5.47-.08-3.16,2.51-5.85,5.67-5.9,3.05-.04,5.65,2.52,5.68,5.63Z"/>
  <path class="cls-7" d="M127.23,254.88c-2.51.32-5.67-2-5.7-5.52-.03-3.18,2.62-5.84,5.76-5.8,3.02.04,5.6,2.69,5.59,5.74-.01,3.18-2.41,5.56-5.64,5.57Z"/>
  <path class="cls-7" d="M21.22,250.39c-.02,3.2-2.43,5.62-5.6,5.62-3.07,0-5.77-2.53-5.62-5.83.15-3.17,2.51-5.53,5.71-5.49,3.17.04,5.53,2.48,5.5,5.69Z"/>
</svg>