<?xml version="1.0" encoding="UTF-8"?>
<svg id="Layer_1" data-name="Layer 1" xmlns="http://www.w3.org/2000/svg" version="1.1" viewBox="0 0 500 500">
  <defs>
    <style>
      .cls-1 {
        fill: #000;
        stroke-width: 0px;
      }
    </style>
  </defs>
  <path class="cls-1" d="M94.98,231.72c0,1.03.13,2.09-.03,3.1-.25,1.64-.61,3.28-1.07,4.87-.74,2.58-1.9,5-3.4,7.24-2.03,3.02-4.59,5.51-7.64,7.5-2.14,1.4-4.39,2.55-6.82,3.36-.93.31-1.83.7-2.76.98-.63.18-1.31.19-1.96.34-.69.15-1.38.35-2.05.57-1.52.48-3.05.94-4.54,1.5-4.46,1.67-8.11,4.42-10.8,8.37-1.62,2.38-2.84,4.97-4.03,7.58-1.19,2.61-2.38,5.21-3.64,7.78-1.36,2.79-3.02,5.39-5.23,7.6-1.67,1.67-3.64,2.86-5.92,3.58-1.14.36-2.3.38-3.45.57-.64.1-1.31-.04-1.97-.09-.22-.02-.43-.1-.65-.11-.4-.02-.84.11-1.2-.02-2.39-.87-4.72-1.81-6.63-3.59-2.73-2.55-4.6-5.66-6.01-9.06-1.39-3.35-2.43-6.82-3.05-10.4-.37-2.14-.68-4.29-1.12-6.41-.14-.68-.16-1.34-.2-2.01-.01-.22.04-.47-.05-.66-.47-1.01-.22-2.09-.33-3.14-.07-.65-.19-1.3-.28-1.95-.03-.25-.05-.5-.06-.75-.03-3.27-.07-6.55-.07-9.82,0-1.48.12-2.96.1-4.44-.02-.92.11-1.79.27-2.68.17-.97.2-1.96.34-2.95.25-1.77.65-3.49,1.04-5.22.89-3.86,2.26-7.53,4.19-10.99,2.95-5.29,7-9.54,12.3-12.5,1.97-1.1,4.06-2.01,6.15-2.86,2.39-.97,4.91-1.59,7.44-2.13.85-.18,1.68-.44,2.52-.65.15-.04.31.02.46,0,.58-.1,1.15-.24,1.73-.32.52-.07,1.05-.03,1.57-.1.39-.05.77-.23,1.16-.3.34-.06.69-.06,1.03-.06.84,0,1.69.06,2.53,0,2.05-.16,4.09-.17,6.14,0,.84.07,1.69-.02,2.53.01.43.01.86.11,1.28.18.22.04.42.12.64.15,1.23.14,2.47.24,3.69.42.74.11,1.46.32,2.19.49.12.03.24.14.35.13.88-.08,1.63.39,2.44.59.82.2,1.61.54,2.44.68,1.17.2,2.26.69,3.29,1.18,2.5,1.17,4.9,2.54,7.05,4.32,2.72,2.25,5.08,4.81,6.85,7.87,2.18,3.78,3.39,7.84,3.25,12.25Z"/>
  <g>
    <path class="cls-1" d="M442.56,250.89c0-7.92,0-15.84,0-23.75,0-2.1.58-4,2.16-5.46,2.5-2.32,6.64-2.28,9.24.04,1.17,1.04,2.06,2.29,2.86,3.62,5.37,8.98,10.74,17.95,16.12,26.93.23.38.47.74.73,1.1.84,1.13,2.47,1.97,4.19,1.4,1.33-.44,2.36-1.9,2.45-3.52.02-.28,0-.57,0-.85,0-8.17,0-16.34,0-24.51,0-1.07.12-2.13.54-3.14.93-2.24,3.05-2.89,4.72-2.76,2.13.17,3.66,1.43,4.17,3.5.15.6.24,1.24.24,1.86.01,15.84,0,31.67.01,47.51,0,1.15-.2,2.26-.66,3.31-.97,2.19-2.64,3.47-5.03,3.8-3.06.43-5.42-.8-7.17-3.21-1.16-1.6-2.18-3.32-3.2-5.02-4.44-7.4-8.86-14.82-13.29-22.23-.45-.76-.88-1.53-1.37-2.27-.7-1.05-1.58-1.9-2.89-2.11-2.1-.33-3.92,1.17-4.14,3.42-.09.84-.13,1.69-.13,2.54,0,7.92,0,15.84-.02,23.75,0,.59-.06,1.2-.22,1.77-.54,1.95-1.81,3.09-3.86,3.37-1.73.23-3.19-.23-4.31-1.54-.82-.96-1.16-2.15-1.17-3.42,0-.98,0-1.96,0-2.93,0-7.07,0-14.13,0-21.2Z"/>
    <path class="cls-1" d="M431.33,250.02c-.08,6.35-1.66,12.24-5.26,17.49-4.3,6.28-10.22,10.24-17.67,11.88-1.54.34-3.09.5-4.67.59-5.87.34-11.31-1.02-16.32-4.03-6.88-4.14-11.17-10.23-13.16-17.97-.82-3.2-1.11-6.46-.92-9.74.4-7.15,2.78-13.55,7.62-18.89,4.21-4.65,9.45-7.56,15.61-8.82,2.54-.52,5.12-.71,7.7-.51,6.17.48,11.72,2.58,16.48,6.58,5.75,4.83,9.04,11.06,10.15,18.46.24,1.64.3,3.32.45,4.97ZM420.29,250.07c.02-2.95-.37-5.85-1.36-8.63-1.6-4.53-4.39-8.06-8.81-10.12-3.58-1.67-7.35-2.07-11.23-1.38-6.31,1.12-10.53,4.81-12.94,10.66-1.06,2.59-1.52,5.31-1.65,8.1-.19,4.15.39,8.17,2.19,11.94,1.86,3.9,4.74,6.79,8.8,8.42,3.14,1.27,6.39,1.58,9.73,1.11,5.63-.78,9.82-3.71,12.57-8.65,1.98-3.55,2.67-7.43,2.69-11.46Z"/>
    <path class="cls-1" d="M272.69,249.89c0-7.89,0-15.77,0-23.66,0-.59.03-1.2.15-1.78.39-1.77,1.59-2.74,3.29-3.12.58-.13,1.18-.18,1.78-.18,5.49-.01,10.98-.07,16.47.01,4.15.06,8.21.71,11.94,2.7,4.83,2.57,7.77,6.48,8.5,11.97.49,3.67-.05,7.16-2.02,10.34-1.4,2.26-3.34,4-5.44,5.6-1.03.78-2.05,1.58-2.98,2.47-1.56,1.51-1.82,3.03-.82,4.97.57,1.11,1.34,2.13,2.06,3.16,2.29,3.24,4.6,6.47,6.91,9.7.61.86,1.02,1.78,1.19,2.84.4,2.46-1.68,4.96-4.15,5.07-2.17.09-3.66-.92-4.81-2.61-2.1-3.07-4.19-6.15-6.28-9.22-2.06-3.02-4.11-6.04-6.17-9.06-.78-1.15-1.76-2.08-3.13-2.45-1.33-.36-2.69-.36-4,.1-1.09.38-1.89,1.17-2.26,2.27-.26.79-.46,1.65-.47,2.48-.05,4.35-.02,8.71-.02,13.06,0,1.42-.26,2.77-1.2,3.89-1.07,1.28-2.5,1.81-4.12,1.56-2.69-.41-3.9-1.71-4.24-4.39-.11-.84-.18-1.69-.18-2.54-.01-7.73,0-15.46,0-23.18ZM292.06,229.58c-1.17,0-2.34-.06-3.5.01-3.42.21-5.63,2.28-5.97,5.68-.15,1.53-.14,3.08-.12,4.62.01.84.13,1.7.33,2.52.52,2.07,1.77,3.56,3.84,4.17.98.29,2.04.41,3.07.43,1.86.03,3.72-.03,5.57-.13,1.93-.11,3.8-.54,5.53-1.44,2.2-1.15,3.58-2.93,4.07-5.38.3-1.54.24-3.07-.19-4.57-.45-1.6-1.36-2.9-2.73-3.86-1.21-.85-2.56-1.33-3.98-1.65-1.95-.44-3.93-.45-5.92-.4Z"/>
    <path class="cls-1" d="M327.11,249.96c0-8.11.04-16.22-.02-24.33-.02-2.6,1.89-4.2,3.84-4.35.66-.05,1.32-.13,1.97-.13,9.85,0,19.69-.01,29.54,0,.81,0,1.64.11,2.41.33,2.02.59,3.15,2.35,2.92,4.51-.23,2.19-1.68,3.47-3.74,3.77-.9.13-1.82.15-2.73.15-6.15.01-12.31,0-18.46,0-1.79,0-3.33.62-4.55,1.95-.86.94-1.31,2.08-1.45,3.32-.18,1.57-.22,3.14.08,4.71.51,2.7,2.48,4.53,5.22,4.84.44.05.88.06,1.32.06,4.99,0,9.97,0,14.96,0,.99,0,1.94.18,2.82.65,1.33.73,2.03,1.85,2.06,3.37.07,2.88-1.63,4.62-4.51,4.62-4.83,0-9.66,0-14.49.01-.75,0-1.51.08-2.25.24-2.97.66-4.92,2.8-5.25,5.83-.18,1.72-.2,3.46.1,5.18.47,2.66,2.54,4.74,5.2,5.22.68.12,1.37.18,2.06.18,6.22.01,12.43.01,18.65,0,1.09,0,2.14.17,3.07.76,1.46.92,1.96,2.31,1.87,3.96-.09,1.5-.8,2.63-2.12,3.35-1.06.58-2.22.63-3.4.63-5.3,0-10.6,0-15.91,0-4.54,0-9.09.01-13.63,0-.81,0-1.65-.04-2.43-.22-2.14-.51-3.2-2.28-3.19-4.03.02-8.2,0-16.41,0-24.61Z"/>
    <path class="cls-1" d="M215.18,279.97c-2.65.09-3.99-1.29-4.87-3.2-.62-1.34-1.07-2.76-1.59-4.14-.47-1.24-.92-2.49-1.73-3.55-.93-1.23-2.04-2.25-3.59-2.61-.48-.11-.99-.17-1.49-.17-5.18-.01-10.35.02-15.53-.02-2.14-.02-3.75.88-5.06,2.48-.77.94-1.27,2.02-1.7,3.15-.57,1.5-1.1,3.01-1.71,4.5-.26.63-.62,1.25-1.02,1.8-2.01,2.77-6.35,2.11-7.7-.22-.9-1.54-.82-3.14-.24-4.74.58-1.6,1.21-3.18,1.82-4.76,2.82-7.32,5.63-14.63,8.45-21.95,2.78-7.23,5.57-14.46,8.33-21.69.75-1.97,1.96-3.49,3.95-4.34,3.1-1.32,6.92-.05,8.46,2.94.65,1.25,1.12,2.6,1.63,3.92,4.9,12.72,9.79,25.45,14.68,38.18.95,2.47,1.91,4.93,2.84,7.4.43,1.14.62,2.32.38,3.52-.43,2.21-2.15,3.5-4.28,3.5ZM194.02,257.69c1.2-.07,2.4-.08,3.58-.22,2.84-.33,3.87-2.16,3.67-4.54-.06-.74-.31-1.48-.56-2.19-1.2-3.38-2.43-6.74-3.67-10.11-.17-.47-.39-.94-.68-1.34-1.2-1.7-3.32-1.78-4.52-.15-.37.5-.67,1.07-.89,1.65-.96,2.56-1.9,5.13-2.81,7.71-.47,1.33-.97,2.67-1.27,4.04-.58,2.67.95,4.69,3.67,4.93,1.16.11,2.32.14,3.48.21Z"/>
    <path class="cls-1" d="M128.02,250.18c0-8.08.05-16.15-.03-24.23-.02-2.5,1.41-4.47,4.13-4.68.53-.04,1.06-.12,1.6-.12,4.51,0,9.02-.05,13.54.01,3.06.05,6.08.43,9,1.44,2.99,1.03,5.7,2.52,7.91,4.82,2.38,2.49,3.84,5.44,4.28,8.86.43,3.32.03,6.53-1.44,9.57-1.89,3.89-4.94,6.56-8.81,8.34-2.62,1.21-5.38,1.94-8.27,2.1-1.92.11-3.84.11-5.76.21-1.36.07-2.68.38-3.84,1.14-1.73,1.12-2.57,2.76-2.59,4.77-.04,3.82,0,7.63-.02,11.45,0,1.13-.07,2.26-.51,3.33-.66,1.59-1.82,2.53-3.53,2.77-2.98.42-5.18-1.25-5.57-4.24-.05-.37-.06-.75-.06-1.13,0-8.14,0-16.28,0-24.42ZM137.57,238.78h.13c0,.83-.03,1.65,0,2.47.16,3.43,1.99,5.92,5.51,6.36,1.34.17,2.7.15,4.05.16,1.87.01,3.7-.3,5.45-.94,2.47-.9,4.41-2.41,5.36-4.96.4-1.08.48-2.19.5-3.33.08-3.87-2.28-6.55-5.18-7.72-3.45-1.4-7.05-1.59-10.66-.98-2.47.42-4.17,1.95-4.69,4.46-.31,1.46-.33,2.99-.47,4.49Z"/>
    <path class="cls-1" d="M240.22,221.28c6.44,0,12.88,0,19.31,0,1.69,0,3.08.67,3.94,2.17,1.76,3.06-.33,6.64-3.93,6.71-2.3.05-4.61-.02-6.91.02-.84.02-1.69.14-2.51.33-2.58.58-4.1,2.27-4.64,4.79-.26,1.22-.39,2.49-.39,3.74-.03,11.9-.01,23.79-.02,35.69,0,.56-.06,1.13-.19,1.68-.56,2.48-2.78,3.87-5.31,3.59-2.69-.3-3.99-2.37-4.18-4.29-.07-.69-.13-1.38-.13-2.07,0-11.93,0-23.85-.03-35.78,0-1.05-.2-2.14-.49-3.15-.76-2.66-2.67-4.03-5.35-4.37-.99-.13-2.01-.15-3.01-.16-1.83-.02-3.66.03-5.49-.02-1.55-.04-2.92-.54-3.83-1.88-1-1.48-1.07-3.09-.29-4.66.77-1.54,2.15-2.3,3.84-2.33,3.03-.05,6.06-.01,9.09-.01,3.5,0,7.01,0,10.51,0Z"/>
  </g>
</svg>