<?xml version="1.0" encoding="UTF-8"?>
<svg id="Layer_1" data-name="Layer 1" xmlns="http://www.w3.org/2000/svg" version="1.1" viewBox="0 0 500 500">
  <defs>
    <style>
      .cls-1 {
        fill: #7a7879;
      }

      .cls-1, .cls-2, .cls-3, .cls-4, .cls-5, .cls-6, .cls-7, .cls-8, .cls-9, .cls-10, .cls-11 {
        stroke-width: 0px;
      }

      .cls-1, .cls-2, .cls-3, .cls-4, .cls-5, .cls-6, .cls-7, .cls-8, .cls-9, .cls-11 {
        fill-rule: evenodd;
      }

      .cls-2 {
        fill: #fde281;
      }

      .cls-3 {
        fill: #4c4b4c;
      }

      .cls-4 {
        fill: #fddc64;
      }

      .cls-5 {
        fill: #fff4cb;
      }

      .cls-6 {
        fill: #fdd134;
      }

      .cls-7 {
        fill: #666767;
      }

      .cls-8 {
        fill: #5e5e5e;
      }

      .cls-9 {
        fill: #feefc0;
      }

      .cls-10 {
        fill: #484850;
      }

      .cls-11 {
        fill: #fdebab;
      }
    </style>
  </defs>
  <g>
    <path class="cls-10" d="M129.91,336.48h-11.81c-.61,0-1.11-.47-1.16-1.07-2.14-25.16-4.03-49.2-7.71-73.8-13.88,24.1-27.93,48.04-39.75,74.17-.31.68-1.25.7-1.6.04-3.29-6.32-6.27-11.87-9.28-17.51-3.4-6.36-6.67-12.8-10.05-19.17-3.31-6.26-6.68-12.49-10.01-18.75-3.31-6.23-6.6-12.48-10.31-18.69-3.47,24.47-6.49,48.93-7.78,73.78-.04.68-.6,1.22-1.28,1.22h-8.06c-.68,0-1.19-.6-1.1-1.27.5-3.43.96-6.85,1.54-10.24,3.91-22.69,7.17-45.48,10.24-68.29.96-7.16,1.67-14.35,2.53-21.52.12-1-.37-2.32,1.15-2.72,1.82-.47,2.31.95,2.93,2.15,4.32,8.35,8.63,16.7,12.95,25.05,9.28,17.91,19.16,35.48,28.97,53.09.19.34.51.61,1.05,1.25,3.11-5.56,6.15-10.92,9.13-16.31,11.53-20.87,23.05-41.74,34.57-62.62.2-.36.38-.73.6-1.07.51-.77.81-1.89,2-1.78,1.64.14,1.24,1.65,1.35,2.57,1.26,10.69,2.39,21.41,3.64,32.1,2.02,17.19,4.1,34.37,6.19,51.55.67,5.5,1.41,10.99,2.15,16.6.09.66-.43,1.25-1.09,1.25Z"/>
    <path class="cls-10" d="M314.65,335.24c1.62-33.27,1.8-66.13-.02-98.86-.05-.96.72-1.76,1.68-1.74l1.46.03c9.27.18,41.44-.18,48.26-.04,7.15.14,14.13,1.52,20.68,4.32,11.14,4.75,18.75,12.84,22.09,24.66,3.37,11.9,4.22,23.93.86,35.91-5.59,19.92-19.21,31.33-39.07,35.78-5.87,1.32-11.84,1.84-17.87,1.74-11.99-.21-23.99-.47-36.42-.13-.93.02-1.68-.74-1.64-1.67ZM328.32,289.25c-.2,10.48.2,23.97.78,37.46.15,3.59.1,3.84,3.8,4.22,10.87,1.11,21.75,1.56,32.54-.89,13.77-3.12,22.95-11.4,27.58-24.65,4.84-13.83,4.65-27.82.44-41.73-2.52-8.33-7.85-14.53-15.73-18.42-5.22-2.58-10.86-3.54-16.57-4.01-9.68-.8-19.33-.2-28.99.69-2.56.23-3.02,1.07-3.17,3.41-.92,13.62-.7,27.26-.69,43.92Z"/>
    <path class="cls-10" d="M277.95,312.16c.25-25.56.14-50.64-1.03-76.01-.03-.76.57-1.39,1.33-1.39h7.59c.51,0,.91.43.89.94-.16,3.69-.27,7.02-.51,10.48-1.56,22.97-2.19,46.01-1.52,69.02.2,6.86.06,13.72,0,20.58,0,.98.61,2.35-.81,2.83-1.29.44-1.88-.74-2.61-1.52-9.45-10.22-18.8-20.53-28.38-30.61-15.51-16.31-31.17-32.47-47.49-49.45-.69,26.65-.54,52.52.69,78.91.02.5-.38.92-.88.92l-8.76-.03c-.58,0-1.03-.5-.99-1.07.33-4.84.62-9.5.98-14.14,1.91-24.92,1.89-49.89,1.79-74.87-.02-3.96-.15-7.91-.2-11.87,0-.76-.34-1.72.74-2.07.83-.27,1.63-.09,2.26.55.77.77,1.53,1.56,2.28,2.35,22.5,23.61,44.83,47.38,67.76,70.58,1.95,1.97,3.63,4.34,6.88,5.88Z"/>
    <path class="cls-10" d="M480.62,252.32c-1.95-.71-1.91-2.79-2.75-4.24-3.83-6.62-9.58-10.06-17.16-9.78-8.05.29-14.51,3.54-17.79,11.43-3.19,7.68-1.05,15.68,5.39,20.95,4.73,3.87,10.31,6.05,15.92,8.16,4.21,1.58,8.39,3.21,12.27,5.5,12.96,7.65,15,16.49,12.67,28.6-2.37,12.27-10.04,20.44-22,24-12.74,3.79-25.29,3.57-37.03-3.67-3.07-1.89-2.24-3.38-1.99-7.06.23-3.5,1.18-8.34,2.87-8.57,1.33-.18,1.56,1.34,2.08,2.22,2.18,3.72,4.98,6.83,8.68,9.05,7.46,4.48,15.34,5.5,23.48,2.22,9.46-3.8,14.6-14.21,12.23-24.12-.83-3.47-2.74-6.15-5.36-8.47-4.38-3.88-9.71-6-15.01-8.14-4.92-1.98-9.94-3.72-14.48-6.56-6.78-4.25-11.67-9.93-12.74-18.08-2.02-15.42,5.54-27.05,20.51-31.35,10.1-2.9,20.18-2.77,29.9,1.82.74.35,1.46.73,2.16,1.15,3.18,1.92,3.1,1.9,1.72,5.61-.8,2.16-1.35,4.41-1.94,6.64-.27,1.04-.28,2.17-1.62,2.69Z"/>
    <path class="cls-10" d="M146.57,228.21c7.9-.05,15.8-.1,23.7-.15.72,0,1.34.16,1.63.92.07,3.81,0,7.63.26,11.43.16,2.26-.57,3.82-2.63,4.39-2.29.64-2.42-6-2.45-4.13-.12,6.68-.4,21.56-.41,28.24-.04,19.54.82,60.24.93,67.09,0,.5-.39.91-.9.91l-12.24.06c-.65,0-1.17-.52-1.17-1.17.07-10.2.71-71.09-.04-94.4-.08-2.6-.87,4.08-3.44,3.66-2.68-.43-3.34-2.02-3.21-4.59.19-4.08.01-8.18-.01-12.27Z"/>
  </g>
  <g id="Page-1">
    <g id="bulb">
      <g id="Group-5">
        <path id="Triangle-3" class="cls-7" d="M152.88,239.41l-.51,7.47.51-7.47Z"/>
        <polygon id="Triangle-3-2" data-name="Triangle-3" class="cls-7" points="146.51 244.3 152.94 238.89 159.38 249.45 146.51 244.3"/>
        <polygon id="Triangle-3-3" data-name="Triangle-3" class="cls-1" points="146.51 228.34 146.51 244.3 152.94 238.89 146.51 228.34"/>
        <polygon id="Triangle-3-4" data-name="Triangle-3" class="cls-8" points="165.81 238.89 159.38 249.45 172.25 244.3 165.81 238.89"/>
        <polygon id="Triangle-3-5" data-name="Triangle-3" class="cls-1" points="172.25 244.3 165.81 238.89 172.25 228.34 172.25 244.3"/>
        <polygon id="Triangle-3-6" data-name="Triangle-3" class="cls-3" points="146.51 228.34 172.25 228.34 159.38 249.45 146.51 228.34"/>
      </g>
      <g id="Group">
        <polygon id="Triangle-3-7" data-name="Triangle-3" class="cls-6" points="149.08 179.69 176.37 191.01 156.8 206.72 149.08 179.69"/>
        <polygon id="Triangle-3-8" data-name="Triangle-3" class="cls-6" points="169.67 160.64 185.12 176.6 176.37 191.01 169.67 160.64"/>
        <polygon id="Triangle-3-9" data-name="Triangle-3" class="cls-6" points="146.51 228.34 174.82 220.1 172.25 228.34 146.51 228.34"/>
        <polygon id="Triangle-3-10" data-name="Triangle-3" class="cls-6" points="143.93 220.1 156.8 206.72 146.51 228.34 143.93 220.1"/>
        <polygon id="Triangle-3-11" data-name="Triangle-3" class="cls-6" points="133.63 176.6 149.08 160.64 149.08 179.69 133.63 176.6"/>
        <polygon id="Triangle-3-12" data-name="Triangle-3" class="cls-5" points="156.8 206.72 174.82 220.1 176.37 191.01 156.8 206.72"/>
        <polygon id="Triangle-3-13" data-name="Triangle-3" class="cls-5" points="156.8 206.72 132.09 202.34 143.93 220.1 156.8 206.72"/>
        <polygon id="Triangle-3-14" data-name="Triangle-3" class="cls-4" points="149.08 179.69 169.67 160.64 176.37 191.01 149.08 179.69"/>
        <polygon id="Triangle-3-15" data-name="Triangle-3" class="cls-11" points="132.09 202.34 149.08 179.69 156.8 206.72 132.09 202.34"/>
        <polygon id="Triangle-3-16" data-name="Triangle-3" class="cls-4" points="146.51 228.34 156.8 206.72 174.82 220.1 146.51 228.34"/>
        <polygon id="Triangle-3-17" data-name="Triangle-3" class="cls-4" points="174.82 220.1 176.37 191.01 186.66 202.34 174.82 220.1"/>
        <polygon id="Triangle-3-18" data-name="Triangle-3" class="cls-4" points="132.09 202.34 133.63 176.6 149.08 179.69 132.09 202.34"/>
        <polygon id="Triangle-3-19" data-name="Triangle-3" class="cls-2" points="176.37 191.01 185.12 176.6 186.66 202.34 176.37 191.01"/>
        <polygon id="Triangle-3-20" data-name="Triangle-3" class="cls-9" points="169.67 160.64 149.08 179.69 149.08 160.64 169.67 160.64"/>
      </g>
    </g>
  </g>
</svg>