<?xml version="1.0" encoding="UTF-8"?>
<svg id="Layer_1" data-name="Layer 1" xmlns="http://www.w3.org/2000/svg" version="1.1" xmlns:xlink="http://www.w3.org/1999/xlink" viewBox="0 0 500 500">
  <defs>
    <style>
      .cls-1 {
        fill: url(#linear-gradient);
      }

      .cls-1, .cls-2, .cls-3 {
        stroke-width: 0px;
      }

      .cls-2 {
        fill: #627178;
      }

      .cls-3 {
        fill: #fff;
      }
    </style>
    <linearGradient id="linear-gradient" x1="254.99" y1="275.66" x2="258.89" y2="88.82" gradientUnits="userSpaceOnUse">
      <stop offset="0" stop-color="#4cb748"/>
      <stop offset=".51" stop-color="#179848"/>
      <stop offset="1" stop-color="#41b649"/>
    </linearGradient>
  </defs>
  <path class="cls-2" d="M57.86,369.41c-.15.49-.33.98-.45,1.48-3.65,14.92-7.27,29.85-10.95,44.76-.8,3.24-.12,2.87-3.69,2.89-3.81.02-7.62.01-11.42,0-2.02,0-2.04-.02-2.58-2.03-2.78-10.51-5.55-21.03-8.32-31.55-3.27-12.43-6.54-24.86-9.81-37.29-.21-.8-.39-1.61-.63-2.59.81-.05,1.48-.12,2.14-.12,4.04-.01,8.07-.01,12.11,0,1.91,0,1.94.02,2.38,1.91,1.9,8.15,3.78,16.3,5.67,24.45,1.63,7.04,3.27,14.07,4.91,21.11.11.48.28.95.78,1.46.23-.76.48-1.51.67-2.27,3.78-14.81,7.54-29.62,11.32-44.44.56-2.21.58-2.21,2.85-2.21,3.66,0,7.31,0,10.97,0,1.93,0,1.95.02,2.42,1.88,2.26,9.08,4.51,18.16,6.75,27.24,1.57,6.35,3.13,12.7,4.7,19.05.13.51.3,1.02.57,1.92.3-.86.52-1.37.65-1.91,3.64-15.31,7.28-30.63,10.91-45.95.53-2.22.53-2.23,2.82-2.23,4.41,0,8.82,0,13.49,0-.16.88-.25,1.6-.43,2.29-6.17,23.07-12.35,46.13-18.54,69.2-.56,2.08-.57,2.09-2.75,2.09-3.96,0-7.92,0-11.88,0-2.05,0-2.08-.01-2.57-2-2.52-10.11-5.01-20.22-7.52-30.34-1.39-5.6-2.79-11.21-4.18-16.81l-.38.02Z"/>
  <path class="cls-2" d="M375.54,418.37c-.75.07-1.26.17-1.76.17-4.42.01-8.83.02-13.25,0-1.76,0-1.78-.03-2.37-1.77-1.45-4.25-2.86-8.5-4.3-12.75-.63-1.86-.65-1.88-2.52-1.88-7.84,0-15.68,0-23.52,0-1.82,0-1.84.02-2.43,1.69-1.52,4.3-3.01,8.61-4.53,12.91-.63,1.79-.65,1.8-2.59,1.8-4.64.01-9.27,0-14.28,0,.35-1.1.59-1.94.89-2.75,6.37-16.94,12.76-33.87,19.14-50.8,2.25-5.98,4.48-11.96,6.76-17.93.84-2.2.4-2.09,3.09-2.1,4.03,0,8.07,0,12.1,0,2.6,0,2.21-.17,3.06,2.11,4.55,12.18,9.1,24.36,13.64,36.54,4.01,10.76,8.01,21.52,12.01,32.28.28.76.54,1.54.86,2.47ZM348.57,389.81c-.3-2.54-8.02-24.77-9.05-26.05-3.05,8.65-6.08,17.23-9.2,26.05h18.25Z"/>
  <path class="cls-2" d="M450.49,412.52v2.41c0,6.39,0,12.78,0,19.17,0,.53-.03,1.07,0,1.6.06,1.03-.34,1.53-1.45,1.52-3.96-.04-7.92-.02-11.87,0-.93,0-1.44-.34-1.39-1.33.02-.53,0-1.06,0-1.6,0-22.06,0-44.12,0-66.19,0-.3,0-.61,0-.91.04-2,.04-2.03,2.04-2.04,3.42-.02,6.85-.03,10.27,0,1.62.01,1.68.09,1.74,1.68.05,1.4.03,2.8.04,4.48.51-.37.72-.46.84-.62,4.7-6.09,11.15-7.61,18.34-6.73,9.32,1.14,15.39,6.57,18.55,15.17,3.06,8.33,3.21,16.86.25,25.27-2.63,7.48-7.6,12.77-15.49,14.78-5.75,1.46-11.37.94-16.49-2.23-1.84-1.14-3.39-2.76-5.39-4.43ZM475.4,392.35c-.23-3.97-.71-7.8-2.65-11.28-2.35-4.23-5.94-6.31-10.86-6.1-4.87.21-8.18,2.69-10.02,7.01-.88,2.06-1.36,4.35-1.65,6.58-.57,4.5-.22,8.96,1.61,13.19,1.43,3.32,3.83,5.74,7.37,6.6,6.9,1.68,12.7-1.23,14.81-8.19.76-2.51.94-5.2,1.39-7.81Z"/>
  <path class="cls-2" d="M391.76,371.35c.57-.41.78-.5.9-.66,4.71-6.09,11.16-7.58,18.35-6.72,8.81,1.06,14.87,6.02,18.11,14.12,3.8,9.5,3.88,19.19-.26,28.63-2.81,6.39-7.65,10.73-14.54,12.47-5.35,1.35-10.57.91-15.53-1.63-2.33-1.19-4.24-2.91-6.11-5.32-.11.95-.22,1.49-.22,2.03-.01,6.69,0,13.39,0,20.08,0,.53-.02,1.07,0,1.6.02.84-.36,1.26-1.22,1.26-4.11-.01-8.22,0-12.33,0-.73,0-1.14-.32-1.15-1.09,0-.61-.02-1.22-.02-1.83,0-22.06,0-44.12,0-66.18,0-.23,0-.46,0-.68.03-2.25.03-2.27,2.27-2.28,3.35-.01,6.7-.02,10.04,0,1.61.02,1.66.08,1.72,1.69.05,1.36,0,2.72,0,4.51ZM417.33,392.12c-.26-3.8-.73-7.48-2.53-10.85-2.29-4.26-5.82-6.45-10.74-6.31-4.96.14-8.35,2.6-10.25,7.02-.85,1.99-1.34,4.2-1.62,6.36-.58,4.49-.28,8.96,1.49,13.2,1.46,3.5,3.95,5.96,7.68,6.87,6.98,1.7,12.85-1.74,14.72-8.69.66-2.47.84-5.07,1.24-7.61Z"/>
  <path class="cls-2" d="M124.55,371.99c.23-.27.48-.52.69-.8,4.52-5.99,10.68-7.98,17.9-7.31,1.36.13,2.71.39,4.03.74,5.53,1.44,9.3,4.87,10.75,10.4.79,2.99,1.28,6.13,1.33,9.22.16,10.72.08,21.45.07,32.18,0,2.1-.03,2.12-2.16,2.13-3.58.01-7.15.02-10.73,0-1.76-.01-1.8-.05-1.82-1.78-.03-4.26-.01-8.52-.01-12.78,0-5.25.09-10.5-.05-15.75-.06-2.34-.34-4.72-.92-6.98-.98-3.8-3.35-5.51-7.27-5.71-.38-.02-.76-.03-1.14-.03-6.24.02-9.61,2.84-10.57,9.04-.34,2.17-.47,4.39-.49,6.58-.06,8.29-.02,16.58-.02,24.88,0,2.52-.01,2.53-2.44,2.54-3.42,0-6.85.02-10.27,0-1.96-.01-1.98-.04-2-2.07-.02-2.05,0-4.11,0-6.16,0-20.85,0-41.69,0-62.54,0-3.15-.21-2.79,2.84-2.81,3.12-.02,6.24,0,9.36,0,2.66,0,2.52-.17,2.52,2.44,0,7.38,0,14.76,0,22.14,0,.76,0,1.51,0,2.27.13.06.26.12.39.18Z"/>
  <path class="cls-2" d="M216.96,418.54c-1.74,0-3.32,0-4.9,0-2.74,0-5.48-.06-8.22.02-1.29.04-1.76-.58-1.97-1.67-.18-.97-.4-1.93-.61-2.95-.27.1-.52.13-.67.26-2.95,2.7-6.47,4.18-10.36,4.95-4.46.89-8.89,1.03-13.33-.12-6.96-1.8-11.86-6.97-11.47-15.91.31-7.16,3.95-11.9,10.86-13.76,4.09-1.1,8.34-1.6,12.53-2.35,2.54-.46,5.13-.71,7.61-1.38,3.24-.87,4.28-2.32,4.22-5.09-.06-3.41-1.49-5.51-4.52-6.3-2.91-.76-5.87-.79-8.8-.01-2.74.73-4.43,2.51-5.16,5.25-.57,2.17-.6,2.17-2.85,2.17-3.5,0-7,.02-10.5,0-1.71-.01-1.84-.19-1.61-1.85.79-5.6,3.78-9.67,8.63-12.46,3.92-2.25,8.25-3.07,12.66-3.45,5.11-.43,10.19-.09,15.17,1.18,1.03.26,2.04.61,3.01,1.03,5.74,2.48,8.82,6.73,8.79,13.11-.04,8.75-.05,17.5.02,26.25.02,2.96.25,5.92.52,8.87.12,1.33.58,2.64.94,4.2ZM200.71,392.87c-3.66,1.65-7.2,1.99-10.71,2.5-2.4.35-4.8.82-6.9,2.19-2.64,1.73-3.21,4.28-2.79,7.19.39,2.65,2.04,4.34,4.58,4.72,2.45.37,5.01.54,7.46.24,3.38-.41,5.86-2.43,7.22-5.61,1.51-3.53,1.08-7.24,1.14-11.23Z"/>
  <path class="cls-2" d="M255.03,401.4c.36-.09.64-.23.93-.23,3.88-.02,7.77-.02,11.65-.02.71,0,1.31.02,1.44,1.01.56,4.4,3.45,6.61,7.5,7.5,2.62.58,5.3.52,7.9-.3,1.47-.46,2.8-1.18,3.81-2.4,2.08-2.52,1.65-5.76-1.11-7.49-1.02-.64-2.17-1.14-3.33-1.46-4.1-1.13-8.23-2.15-12.35-3.22-3.31-.87-6.63-1.72-9.56-3.61-2.88-1.86-4.96-4.33-5.48-7.78-1.07-7.11,1.44-13.24,7.99-16.65,3.52-1.84,7.32-2.5,11.2-2.85,4.82-.44,9.61-.15,14.24,1.26,6.98,2.11,11.58,6.51,12.73,13.98.25,1.62.17,1.76-1.4,1.77-3.65.04-7.31.01-10.96,0-.71,0-1.41-.05-1.53-.98-.51-3.98-3.33-5.41-6.78-5.97-2.48-.4-5.01-.46-7.47.29-1.79.55-3.15,1.58-3.46,3.55-.32,2.05.56,3.7,2.35,4.53,2.12.99,4.36,1.76,6.62,2.37,4.25,1.16,8.56,2.11,12.82,3.21,1.1.28,2.16.74,3.19,1.22,6.55,3.11,9.27,8.32,8.07,15.45-1.16,6.95-5.45,11.23-11.88,13.46-5.17,1.8-10.57,2.24-15.99,1.63-2.85-.32-5.73-.85-8.47-1.69-4.27-1.3-7.74-3.84-10.17-7.68-1.72-2.71-2.42-5.68-2.49-8.92Z"/>
  <path class="cls-2" d="M227.86,392.27c0-5.1.01-10.2,0-15.3,0-1.78-.04-1.8-1.75-1.83-1.67-.03-3.35,0-5.03-.01-1.96-.03-1.98-.04-2-2.08-.02-1.98-.02-3.96,0-5.94.03-1.92.05-1.93,1.89-1.97,1.29-.03,2.59,0,3.88,0,3.34-.02,2.98.27,2.99-2.89.02-3.65,0-7.31,0-10.96.01-2.05.03-2.08,2-2.09,3.58-.02,7.16-.02,10.74,0,1.95.01,1.97.05,1.98,2.12.02,3.88,0,7.76.01,11.65,0,2.15.03,2.16,2.12,2.18,2.36.02,4.72.04,7.08,0,1.08-.02,1.52.41,1.51,1.48-.03,2.36-.03,4.72,0,7.08.01,1.07-.43,1.48-1.51,1.46-2.51-.05-5.03-.03-7.54,0-1.6.02-1.65.06-1.65,1.7-.02,8.37,0,16.75,0,25.12,0,.08,0,.15,0,.23.21,3.9,1.39,5.11,5.34,5.28,1.28.05,2.58-.14,3.87-.24,1.32-.1,1.45-.05,1.47,1.32.04,2.89,0,5.79.01,8.68,0,.77-.21,1.3-1.11,1.39-5.78.58-11.57.98-17.18-.93-4.61-1.57-6.98-5.08-7.09-10.35-.1-5.02-.02-10.05-.02-15.07h-.03Z"/>
  <g>
    <path class="cls-1" d="M170.83,263.1c.99-.23,1.71-.38,2.43-.57,10.14-2.66,20.28-5.28,30.4-8.01,1.69-.46,3.01-.23,4.48.66,13.29,8.09,27.68,12.65,43.26,13.66,8.2.53,16.3-.01,24.28-1.68,19.73-4.11,36.64-13.48,50.16-28.45,20.28-22.48,28.07-48.91,23.38-78.76-3.11-19.76-12.17-36.73-26.43-50.76-15.37-15.13-33.83-24.01-55.34-26.45-8.68-.99-17.34-.76-25.93.69-9.66,1.63-18.85,4.75-27.54,9.32-12.89,6.77-23.67,15.99-32.27,27.73-9.68,13.23-15.51,27.99-17.45,44.29-1.37,11.47-.54,22.77,2.28,33.96,2.53,10.05,6.7,19.39,12.37,28.06.9,1.37,1.16,2.59.69,4.24-2.64,9.29-5.15,18.61-7.7,27.93-.35,1.29-.67,2.59-1.06,4.15Z"/>
    <path class="cls-3" d="M143.2,290.21c1.4-5.17,2.67-9.93,3.97-14.68,3.82-13.91,7.64-27.82,11.48-41.73.36-1.3.29-2.42-.41-3.68-7.43-13.31-11.93-27.6-13.45-42.73-1.94-19.32.7-38.03,8.38-55.96,4.98-11.64,11.73-22.11,20.2-31.51,9-9.98,19.48-18.03,31.33-24.34,10.69-5.68,22.04-9.36,33.93-11.41,3.2-.55,6.47-.83,9.72-1.02,4.16-.24,8.34-.41,12.51-.35,7.45.1,14.8,1.15,22.05,2.85,18.17,4.26,34.31,12.5,48.33,24.81,19.59,17.2,31.89,38.61,36.84,64.2.97,4.99,1.42,10.05,1.72,15.14.68,11.48-.56,22.74-3.36,33.85-2.99,11.89-7.92,22.95-14.62,33.23-3.7,5.68-7.9,10.95-12.53,15.91-11.18,11.96-24.37,20.99-39.45,27.25-8.21,3.41-16.76,5.72-25.58,7.07-7.85,1.2-15.72,1.63-23.61,1.18-6.43-.36-12.81-1.26-19.1-2.74-9.58-2.25-18.74-5.62-27.4-10.28-1.16-.62-2.08-.23-3.02.01-6.98,1.78-13.93,3.65-20.89,5.47-11.73,3.08-23.45,6.15-35.18,9.22-.48.13-1,.14-1.85.25ZM170.83,263.1c.99-.23,1.71-.38,2.43-.57,10.14-2.66,20.28-5.28,30.4-8.01,1.69-.46,3.01-.23,4.48.66,13.29,8.09,27.68,12.65,43.26,13.66,8.2.53,16.3-.01,24.28-1.68,19.73-4.11,36.64-13.48,50.16-28.45,20.28-22.48,28.07-48.91,23.38-78.76-3.11-19.76-12.17-36.73-26.43-50.76-15.37-15.13-33.83-24.01-55.34-26.45-8.68-.99-17.34-.76-25.93.69-9.66,1.63-18.85,4.75-27.54,9.32-12.89,6.77-23.67,15.99-32.27,27.73-9.68,13.23-15.51,27.99-17.45,44.29-1.37,11.47-.54,22.77,2.28,33.96,2.53,10.05,6.7,19.39,12.37,28.06.9,1.37,1.16,2.59.69,4.24-2.64,9.29-5.15,18.61-7.7,27.93-.35,1.29-.67,2.59-1.06,4.15Z"/>
    <path class="cls-3" d="M219.93,123.43c.69,0,1.37.04,2.05,0,3.35-.25,5.5,1.43,6.8,4.34,1.42,3.19,2.77,6.42,4.12,9.65,1.67,4,3.27,8.03,4.95,12.02.79,1.87.76,3.61-.11,5.48-1.62,3.45-4.25,6.1-6.65,8.94-.39.46-.83.89-1.22,1.36-.91,1.11-1.01,2.35-.49,3.64.17.42.4.82.64,1.21,8.35,13.96,19.57,24.76,34.56,31.41,1.39.62,2.77,1.26,4.17,1.83,2.38.96,3.59.74,5.26-1.23,2.79-3.31,5.55-6.66,8.2-10.09,2.37-3.07,3.59-3.59,7.19-2.09,3.43,1.44,6.78,3.09,10.13,4.7,4.04,1.94,8.04,3.98,12.09,5.9,1.95.92,2.81,2.29,2.77,4.49-.07,3.78-.74,7.43-2.14,10.9-.61,1.52-1.54,3.03-2.69,4.18-5.29,5.32-11.41,8.94-19.15,9.51-4.64.35-9.1-.26-13.52-1.46-8.97-2.43-17.74-5.41-25.93-9.88-11.38-6.2-20.82-14.75-29.21-24.53-5.66-6.6-10.7-13.65-15.19-21.08-3.05-5.04-5.31-10.44-6.31-16.29-2.04-11.95,1.4-22.09,10.29-30.34,1.84-1.7,4.08-2.62,6.64-2.59.91.01,1.83,0,2.74,0h0Z"/>
  </g>
</svg>