<?xml version="1.0" encoding="UTF-8"?>
<svg id="Layer_1" data-name="Layer 1" xmlns="http://www.w3.org/2000/svg" version="1.1" xmlns:xlink="http://www.w3.org/1999/xlink" viewBox="0 0 500 500">
  <defs>
    <style>
      .cls-1 {
        fill: url(#linear-gradient);
      }

      .cls-1, .cls-2 {
        stroke-width: 0px;
      }

      .cls-2 {
        fill: #4d4d4d;
      }
    </style>
    <linearGradient id="linear-gradient" x1="9.58" y1="301.12" x2="114.72" y2="199.42" gradientUnits="userSpaceOnUse">
      <stop offset="0" stop-color="#bc4d9b"/>
      <stop offset="1" stop-color="#5cacdd"/>
    </linearGradient>
  </defs>
  <g>
    <path class="cls-2" d="M375.19,261.63c3.99-1.19,7.89-2.34,11.93-3.55.41,1.24.72,2.38,1.16,3.46,2.7,6.63,9.53,9.61,16.19,7.07,2.43-.93,4.08-2.7,4.28-5.31.18-2.31-1.04-4.3-3.11-5.23-3.31-1.48-6.81-2.54-10.2-3.85-3.39-1.31-6.88-2.47-10.1-4.12-10.62-5.44-11.55-21.6-.03-28.3,5.93-3.45,12.24-4.26,18.96-3.1,5.2.9,9.73,2.94,13.52,6.63,1.98,1.93,4.48,6.07,4.55,8.74-3.96,1.66-8,3.36-12.16,5.1-1-2.92-2.22-5.54-4.8-7.18-3.62-2.3-7.42-2.56-11.38-.95-1.94.79-2.85,2.42-2.99,4.27-.13,1.74.95,3.22,2.59,3.85,2.75,1.05,5.57,1.93,8.4,2.72,4.3,1.2,8.62,2.26,12.5,4.61,5.4,3.27,7.84,8.22,8.26,14.29.77,11.09-6.61,17.61-16.04,19.69-5.48,1.21-10.9,1.29-16.22-.58-7.58-2.66-12.72-7.77-14.96-15.58-.24-.83-.23-1.72-.35-2.71Z"/>
    <path class="cls-2" d="M244.75,236.46v43.97h-12.63v-5.12c-1.97,1.45-3.58,2.94-5.45,3.98-6.7,3.73-16.21,2.3-20.89-3.15-2.21-2.57-3.57-5.55-3.62-8.94-.13-9.74-.14-19.48-.19-29.22,0-.44.07-.88.13-1.5h12.9c0,.62,0,1.29,0,1.95,0,7.91-.02,15.81.01,23.72.01,3.63,2.4,6.76,5.57,7.47,4.2.94,8.31-1.05,9.81-5.19.89-2.45,1.44-5.13,1.54-7.73.22-6,.07-12.02.07-18.02,0-.69,0-1.38,0-2.23h12.74Z"/>
    <path class="cls-2" d="M373.59,251.3c-4.21.84-8.13,1.62-12.21,2.44-.19-.45-.44-.94-.6-1.45-2.35-7.17-11.52-7.12-15.14-2.79-2.7,3.23-3.52,7.06-2.76,11.17.29,1.59.71,3.22,1.44,4.64,2,3.88,5.43,5.31,9.63,4.86,3.47-.37,5.7-2.42,6.76-5.74.06-.18.15-.35.25-.51.06-.1.18-.17.33-.3,3.99.82,8.02,1.66,12.18,2.52-.32,3.71-1.96,6.58-4.31,8.99-3.48,3.56-7.89,5.19-12.78,5.92-4.82.72-9.47.3-13.88-1.6-7.51-3.24-11.59-9.09-12.83-17.17-.92-6,.03-11.56,3.16-16.68,3.7-6.07,9.34-9.16,16.33-9.9,5.45-.58,10.7.1,15.58,2.7,4.2,2.24,7.06,5.64,8.39,10.24.22.77.28,1.58.47,2.69Z"/>
    <path class="cls-2" d="M309.04,280.44h-12.7v-62.06h12.7v62.06Z"/>
    <path class="cls-2" d="M313.91,236.44h12.82v43.96h-12.82v-43.96Z"/>
    <path class="cls-2" d="M490,280.44h-13.08v-12.7h13.08v12.7Z"/>
    <path class="cls-2" d="M327.02,230.55h-13.28v-12.18h13.28v12.18Z"/>
    <path class="cls-2" d="M192.2,221.5c-3.52-1.89-7.36-2.58-11.3-2.6-7.91-.05-15.81-.02-23.72-.02-.61,0-1.23.06-1.97.1v61.4h13.95v-22.79c.73-.06,1.29-.13,1.84-.13,3.98-.05,7.97,0,11.95-.13,11.32-.37,18.88-8.11,18.86-19.15-.01-7.18-2.97-13.1-9.6-16.67ZM183.06,244.97c-1.05.34-2.2.51-3.31.53-3.46.07-6.91.02-10.54.02v-14.54c.37-.09.66-.23.95-.22,3.78.11,7.56.13,11.33.39,3.46.24,5.89,2.83,6.23,6.25.34,3.45-1.52,6.56-4.66,7.57Z"/>
    <path class="cls-2" d="M291.82,247.9c-3.7-10.34-14.6-14.31-24.11-11.6-2.39.68-4.55,2.16-6.92,3.32v-21.25h-12.69v62.09h12.61c.06-1.3.12-2.52.18-3.85,1.2.92,2.16,1.85,3.28,2.48,3.82,2.15,7.86,2.65,12.23,1.95,5.39-.86,9.95-3.08,12.98-7.62,5.34-8.01,5.6-16.72,2.45-25.53ZM275.38,269.09c-4.94,2.66-11.94.84-14.17-5.04-1.45-3.82-1.51-7.62.04-11.4,1.75-4.28,5.37-6.35,10.47-6.06,3.95.22,7.55,3.25,8.6,7.37.37,1.45.47,2.96.7,4.45-.15,4.52-1.43,8.41-5.63,10.68Z"/>
    <path class="cls-2" d="M457.16,236.47v3.82c-3.21-3.27-6.87-4.52-10.96-4.77-8.13-.49-15.82,3.12-19.35,11.37-2.48,5.8-2.76,11.77-1.53,17.94,2.48,12.39,13.86,18.41,25.23,15.97,2.3-.5,4.43-1.82,6.77-2.81v18.55h12.76v-60.06h-12.91ZM456.88,264.28c-1.74,3.95-4.9,5.92-10.71,5.99-3.98.19-7.56-3.96-8.54-8.33-.85-3.75-.51-7.3,1.39-10.58,2.15-3.69,5.6-5.13,9.79-4.74,3.69.34,6.38,2.27,7.94,5.61,1.85,3.97,1.9,8.06.14,12.06Z"/>
  </g>
  <path class="cls-1" d="M10,197.57v104.86h104.86v-104.86H10ZM93.94,281.39H31.9v-62.05h62.05v62.05Z"/>
</svg>