<?xml version="1.0" encoding="UTF-8"?>
<svg id="Layer_1" data-name="Layer 1" xmlns="http://www.w3.org/2000/svg" version="1.1" viewBox="0 0 500 500">
  <defs>
    <style>
      .cls-1 {
        fill: #4ab975;
        stroke-width: 0px;
      }
    </style>
  </defs>
  <path class="cls-1" d="M164.92,254.78c-.36,17.29.68,38.37-.55,59.43-.97,16.56-4.86,32.27-13.89,46.47-9.98,15.69-24.45,24.81-42.14,29.5-11.32,3-22.85,3-34.33,2.24-15.49-1.03-29.85-5.73-42.58-14.99-2.41-1.75-2.88-3.33-1.54-5.85,4.89-9.19,9.8-18.38,14.53-27.65,1.55-3.04,3.12-3.08,5.78-1.31,9.71,6.48,20.38,9.37,32.14,9.02,18.74-.56,33.47-13.77,35.58-32.46.46-4.11,1.24-8.2.97-12.36-.05-.82.41-1.92-.64-2.36-1-.42-1.64.47-2.24,1.09-6.91,7.21-15.29,11.56-25.07,13.7-15.91,3.49-30.68.7-44.72-7.1-17.26-9.59-28.24-24.32-33.34-43.08-3.06-11.25-3.91-22.83-1.57-34.66,2.31-11.69,6.13-22.59,13.44-31.92,15.65-19.97,35.96-29.56,61.65-26.78,11.57,1.25,21.19,6.23,29.53,14.08.65.61,1.17,1.53,2.2,1,.93-.48.65-1.55.81-2.39.5-2.73-1.44-6.18,1.29-8.11,2.37-1.68,5.62-.61,8.46-.64,10.44-.11,20.89.01,31.34-.12,3.64-.05,4.99,1.1,4.95,5.02-.19,22.15-.09,44.31-.09,70.24ZM118.83,247.76c.57-16.87-15.37-31.62-31.14-31.3-17.41.35-31.42,13.76-31.6,30.22-.2,19.31,13.59,32.56,31.34,32.72,18.41.16,31.37-14.71,31.4-31.63Z"/>
  <path class="cls-1" d="M380.51,303.73c0,3.54-.14,6.06.04,8.56.2,2.9-1.08,3.72-3.82,3.7-12.61-.1-25.21-.13-37.82-.01-3.07.03-4.17-1.13-4.09-4.1.12-4.5.01-9,.01-13.51,0-60.87,0-121.75,0-182.62,0-10.4-.01-8.43,8.29-8.46,10.63-.05,21.25-.03,31.88-.04,5.4,0,5.58.1,5.58,5.35,0,23.95-.02,47.91-.04,71.86,0,1.08-.13,2.17,0,3.24.13,1.15-.57,2.76,1,3.28,1.2.4,1.81-.92,2.54-1.64,5.09-4.98,11.09-8.53,17.69-11.04,8.23-3.13,16.85-3.52,25.5-2.86,19.85,1.53,35.37,11.35,47.42,26.53,6.35,8,9.85,17.68,12.97,27.53,3.02,9.55,2.54,19.18,1.75,28.64-.78,9.38-4.37,18.51-9.04,26.71-8.99,15.78-21.8,27.52-39.63,32.74-21.27,6.23-40.88,3.89-57.61-12.01-.49-.46-1.11-.79-2.62-1.84ZM380.62,247.49c.11,18.48,14.62,31.51,30.81,31.94,17.87.47,32.66-14.47,32.28-32.06-.35-16.38-13.65-30.78-31.13-30.92-18.33-.15-31.85,14.88-31.96,31.04Z"/>
  <path class="cls-1" d="M207.63,234.98c15.02-6.2,30.73-6.84,46.64-4.48,2.83.42,5.58,1.38,8.39,1.98,2.44.52,3.16-.35,2.68-2.93-1.74-9.22-10.34-16.1-21.22-16.51-9.5-.35-18.5,1.95-27.2,5.61-1.32.56-2.67,1.1-3.92,1.8-2,1.12-3.39.78-4.28-1.39-3.81-9.3-7.55-18.63-11.49-27.87-1.06-2.47.42-3.23,1.98-4.16,6.39-3.8,13.35-6.33,20.49-8.12,14.06-3.52,28.34-5.12,42.76-2.6,20.14,3.52,35.12,14.09,43.34,33.15,4.45,10.32,6.6,21.23,6.6,32.53,0,22.69,0,45.38,0,68.07,0,5.86-.02,5.86-5.92,5.85-11.52,0-23.05-.09-34.57.08-3.39.05-5.63-.33-5.23-4.51.12-1.27.26-3.26-1.29-3.76-1.49-.48-2.43,1.24-3.54,2.1-20.12,15.43-49.42,14.43-67.47-2.35-4.39-4.08-13.96-11.71-13.95-35.31,0-17.78,12.25-31.02,27.21-37.19ZM240.77,288.6c14.18.17,24.31-12.82,25.18-23.81.26-3.23-2.35-3.49-4.16-3.9-4.54-1.01-9.19-2.1-13.8-2.1-7.03,0-14.1.96-19.08,6.87-3.45,4.1-3.84,8.77-1.59,13.58,2.85,6.08,7.94,8.85,13.44,9.36Z"/>
</svg>