<?xml version="1.0" encoding="UTF-8"?>
<svg id="Layer_1" data-name="Layer 1" xmlns="http://www.w3.org/2000/svg" version="1.1" viewBox="0 0 500 165">
  <defs>
    <style>
      .cls-1 {
        fill: #080707;
      }

      .cls-1, .cls-2, .cls-3, .cls-4, .cls-5, .cls-6, .cls-7, .cls-8 {
        stroke-width: 0px;
      }

      .cls-2 {
        fill: #060505;
      }

      .cls-3 {
        fill: #4db74a;
      }

      .cls-4 {
        fill: #060606;
      }

      .cls-5 {
        fill: #070606;
      }

      .cls-6 {
        fill: #040404;
      }

      .cls-7 {
        fill: #fff;
      }

      .cls-8 {
        fill: #070707;
      }
    </style>
  </defs>
  <rect class="cls-7" x="25.23" y="39.88" width="71.9" height="84.73"/>
  <g>
    <path class="cls-3" d="M116.71,81.09c0,9.14-.02,16.24,0,23.34.02,5.43-.3,10.8-1.69,16.1-1.4,5.33-9.1,12.28-14.61,13.71-5.76,1.49-11.54,1.43-17.35,1.44-14.67.04-29.35.04-44.02,0-6.44-.02-12.84-.41-18.42-4.2-5.51-3.74-8.91-8.89-9.66-15.54-1.31-11.65-.8-23.36-.88-35.06-.04-5.94-.21-11.88.05-17.81.22-4.93-.25-9.94.84-14.8,2.07-9.21,7.5-15.33,16.84-17.79,4.19-1.1,8.46-1.09,12.7-1.12,15.1-.11,30.21-.12,45.31,0,6.35.05,12.77-.03,18.62,3.19,6.7,3.7,10.57,9.35,11.55,16.9,1.45,11.19.33,22.45.71,31.62ZM71.64,47.45c-.95,0-1.9.06-2.84-.01-2.17-.15-3.31.77-3.47,2.98-.06.85-.39,1.67-.49,2.52-.14,1.18-.53,1.75-1.92,1.81-2.31.1-4.59.59-6.78,1.4-6.58,2.44-10.75,6.85-11.12,14.11-.32,6.32,2.87,10.59,8.23,13.58,4.53,2.53,9.57,3.77,14.24,5.91,1.99.91,3.85,2.03,3.91,4.62.07,3.18-2.69,5.74-6.45,6.27-6.9.97-12.92-.83-18.11-5.44-1.1-.98-2.13-1-3.17,0-1.36,1.32-2.71,2.64-4.04,3.99-1.22,1.23-1.13,2.49.15,3.56,3.13,2.59,6.46,4.85,10.44,5.93,1.44.39,2,.78,1.57,2.58-1.44,5.97-1.24,6.16,3.15,6.32.34.01.67-.03,1.01-.03,7.68-.04,6.36.68,7.8-5.71.22-.97.58-1.39,1.55-1.47,3.1-.27,6.08-.98,8.96-2.2,7.47-3.19,11.61-11.03,9.67-18.56-1.37-5.33-5.55-7.94-10.1-10.11-4.38-2.08-9.19-3.12-13.46-5.48-1.87-1.03-3.1-2.54-2.94-4.75.17-2.29,1.68-3.64,3.75-4.28,5.65-1.73,10.96-.6,15.98,2.2,5.42,3.03,5.39,3.08,9.79-1.45.15-.15.31-.3.44-.47.88-1.13.88-2.22-.28-3.14-2.63-2.1-5.38-4.05-8.59-5.11-1.84-.61-2.27-1.36-1.83-3.29,1.41-6.25,1.31-6.28-5.07-6.28Z"/>
    <path class="cls-4" d="M374.38,96.19c-2.49,0-5.01.22-7.48-.06-2.26-.26-2.97.8-3.52,2.64-.95,3.17-2.03,6.3-3.11,9.43-.3.88-.89,1.4-1.97,1.37-2.23-.06-4.47.02-6.71.02-2.13,0-2.65-1.52-2.1-3.03,3.61-9.86,7.39-19.65,11.06-29.48,2.49-6.65,4.89-13.34,7.35-19.99.37-1.01,1.06-1.66,2.29-1.64,2.71.05,5.43.15,8.13-.03,1.89-.13,2.85.7,3.43,2.27,2.42,6.57,4.8,13.15,7.22,19.72,2.58,6.97,5.21,13.93,7.8,20.9,1.07,2.87,2.2,5.73,3.12,8.65.43,1.36-.32,2.47-1.8,2.55-2.4.13-4.82-.04-7.22.07-1.45.07-2.09-.82-2.47-1.87-1.23-3.45-2.36-6.95-3.48-10.44-.26-.8-.62-1.14-1.53-1.12-3.01.07-6.02.03-9.03.03ZM374.3,87.48c2.23,0,4.47,0,6.7,0,.44,0,.98.18.68-.71-2.3-6.98-4.55-13.98-6.83-20.98-.06-.19-.18-.37-.26-.55-.12.19-.27.37-.35.58-.58,1.69-1.13,3.38-1.7,5.07-1.75,5.17-3.51,10.34-5.26,15.51-.25.75-.29,1.2.83,1.13,2.06-.12,4.12-.03,6.18-.03Z"/>
    <path class="cls-5" d="M449.83,96.02c0-7.87.04-15.74-.03-23.61-.02-2.22.76-3.25,3.06-3.01,1.11.11,2.24.11,3.35,0,2.7-.27,3.96.82,3.66,3.58-.03.26.11.54.17.81.13-.2.23-.44.4-.61,3.65-3.55,7.93-5.13,13.08-4.56,8.67.95,13.54,6.14,15.59,14.13,2.2,8.58.61,20.04-8.5,25.48-6.4,3.83-15.78,3.1-20.44-2.92-.07-.08-.13-.17-.2-.25-.04.18-.11.37-.11.55,0,4.82,0,9.64,0,14.45,0,1.83-.76,2.79-2.71,2.68-1.59-.08-3.19-.12-4.77,0-2.07.16-2.56-.96-2.56-2.72.02-8,0-16,0-24ZM459.87,89.69c-.22,1.84.42,3.83,1,5.85.83,2.86,4.54,5.92,7.77,6.32,3.5.43,7.24-1.45,8.89-4.36,2.01-3.56,2.24-7.3,1.7-11.29-.82-5.98-5.89-10.61-12.4-8.41-4.38,1.48-6.95,5.74-6.95,11.89Z"/>
    <path class="cls-2" d="M404.04,96.03c0-8.08.01-16.17-.01-24.25,0-1.68.86-2.35,2.42-2.37,1.16-.01,2.34.13,3.48-.03,3.05-.41,4.59.6,4,3.89-.04.23.06.48.09.72.16-.16.34-.31.49-.48,8.74-9.67,25.09-4.83,28.56,7.95,2.08,7.66,1.71,15.12-2.86,21.86-2.59,3.83-6.3,6.06-11.03,6.89-4.46.78-8.38.03-12.11-2.36-.18-.12-.38-.21-.53-.35-.84-.81-1.67-1.63-2.5-2.45-.04,1.27-.12,2.54-.13,3.81-.02,4-.03,8,0,12,.01,1.33-.66,1.85-1.86,1.86-1.98.02-3.96.03-5.93,0-1.39-.02-2.09-.76-2.09-2.17,0-8.17,0-16.34,0-24.51ZM424.53,101.88c1.79-.05,3.83-.75,5.54-2.27,3.74-3.32,4.65-10.89,2.58-16.44-2.47-6.64-10.99-7.77-15.34-3.08-3.18,3.43-3.97,7.81-3.09,12.28,1.04,5.3,3.88,9.21,10.31,9.52Z"/>
    <path class="cls-5" d="M187.34,54.41c8.56-.1,15.37,3.4,20.58,10.1.82,1.05.92,2.43-.47,3.33-1.5.97-3.03,1.89-4.58,2.78-1.69.98-2.77-.2-3.66-1.29-3.37-4.16-7.75-5.95-12.99-5.53-7.51.61-11.87,4.87-13.74,12.06-1.66,6.42-1.24,12.59,2.13,18.32,2.51,4.28,6.37,6.6,11.47,6.94,5.93.4,10.49-1.77,13.94-6.55.67-.93,1.81-1.15,2.85-.63,1.69.84,3.37,1.72,4.94,2.76,1.22.81,1.23,2.06.41,3.21-3.99,5.61-9.23,9.14-16.15,10.25-10.91,1.75-21.03-1.94-26.89-10.99-3.63-5.6-4.59-11.98-4.34-18.62.24-6.27,1.94-12.04,5.87-16.91,3.91-4.85,9-7.9,15.32-8.83,1.78-.26,3.54-.33,5.32-.41Z"/>
    <path class="cls-6" d="M291.3,82.52c0-8.38,0-16.77-.01-25.15,0-1.28.65-1.9,1.82-1.94,2.02-.06,4.04-.08,6.06-.01,1.38.05,2.01.9,2.01,2.28-.01,5.07,0,10.15,0,15.22,0,.27.1.54.16.81.14-.15.27-.31.41-.45,3.74-3.69,8.07-5.05,13.43-4.63,7.38.58,11.62,7.82,11.37,14.24-.31,8.07-.11,16.17-.05,24.25.01,1.73-.56,2.52-2.36,2.43-1.71-.09-3.43-.01-5.15.03-1.53.04-2.23-.68-2.23-2.2.01-7.48.1-14.97-.05-22.44-.05-2.27-.41-4.73-2.5-6.25-4.43-3.19-12.19.16-12.74,5.62-.75,7.53-.17,15.1-.28,22.65-.03,1.79-.65,2.67-2.53,2.59-1.8-.08-3.61,0-5.41,0-1.34,0-1.97-.62-1.96-2.02.03-8.34.01-16.68.01-25.03Z"/>
    <path class="cls-8" d="M246.61,94.48c0,4.13,0,8.26,0,12.39,0,1.78-.8,2.77-2.7,2.7-1.42-.05-2.85-.1-4.26.01-1.96.16-2.76-.66-2.56-2.58.04-.37-.03-.75-.05-1.13-.24.24-.46.5-.71.73-3.97,3.69-8.58,4.47-13.84,3.63-3.82-.61-6.95-2.08-8.89-5.35-3.86-6.5-2.22-15.58,6.78-17.93,4.12-1.07,8.36-1.69,12.53-2.55,2.15-.44,3.73-1.51,3.4-3.99-.31-2.32-2.28-2.93-4.14-3.27-4.73-.87-9.11.47-13.32,2.51-.89.43-1.56.4-2.27-.33-1.26-1.28-1.83-2.92-2.42-4.52-.47-1.27.25-2.08,1.49-2.75,4.81-2.62,10.03-3.71,15.36-3.56,5.37.15,10.69,1.13,13.83,6.41,1.3,2.18,1.65,4.64,1.75,7.08.16,4.17.04,8.34.04,12.51ZM236.57,92.76c0-.73,0-1.46,0-2.19,0-.27.05-.75-.43-.48-3.29,1.85-7.1,1.69-10.59,2.74-3.08.93-4.38,2.82-3.96,5.82.34,2.39,2.44,4,5.31,4.06,6.77.14,9.68-2.85,9.68-9.95Z"/>
    <path class="cls-1" d="M268.41,110.59c-5.88.14-10.91-1.48-15.45-4.65-1.84-1.28-1.83-2.79-.42-4.42.53-.61,1.01-1.26,1.5-1.89,1.6-2.05,3.2-1.12,4.8,0,4.27,3,9.03,3.39,13.93,2.39,1.83-.37,3.19-1.67,3.3-3.8.11-2.15-1.33-2.79-3.05-3.35-3.65-1.19-7.49-1.42-11.17-2.37-9.58-2.46-12.75-10.46-8-18.27,2.07-3.4,5.9-4.76,9.85-5.43,5.63-.95,10.97-.12,16.06,2.36,1.35.66,2.57,1.59,3.83,2.42.19.13.34.4.4.64.74,2.77-1.93,3.67-3.08,5.36-.75,1.1-2.14.64-3.19-.09-4.14-2.87-8.7-3.68-13.57-2.57-1.62.37-2.96,1.53-2.85,3.29.16,2.49,2.41,2.87,4.28,3.37,4.32,1.16,8.81,1.5,13.03,3.22,4.35,1.77,6.96,4.72,7.19,9.38.25,5.12-1.76,9.25-6.33,11.86-3.51,2-7.37,2.67-11.07,2.55Z"/>
  </g>
</svg>