<?xml version="1.0" encoding="UTF-8"?>
<svg id="Layer_1" data-name="Layer 1" xmlns="http://www.w3.org/2000/svg" version="1.1" xmlns:xlink="http://www.w3.org/1999/xlink" viewBox="0 0 500 165">
  <defs>
    <style>
      .cls-1 {
        fill: url(#linear-gradient);
      }

      .cls-1, .cls-2, .cls-3 {
        stroke-width: 0px;
      }

      .cls-2 {
        fill: #000;
      }

      .cls-3 {
        fill: #fff;
      }
    </style>
    <linearGradient id="linear-gradient" x1="30.4" y1="133.77" x2="90.52" y2="32.88" gradientUnits="userSpaceOnUse">
      <stop offset="0" stop-color="#fcb316"/>
      <stop offset=".12" stop-color="#f8a627"/>
      <stop offset=".34" stop-color="#f06a4a"/>
      <stop offset=".52" stop-color="#e74456"/>
      <stop offset=".7" stop-color="#cc2e7a"/>
      <stop offset=".84" stop-color="#a04399"/>
      <stop offset=".99" stop-color="#5a449b"/>
    </linearGradient>
  </defs>
  <g>
    <rect class="cls-3" x="20.07" y="36.36" width="85.5" height="88.29"/>
    <path class="cls-1" d="M75.81,79.37c0,7.16-5.84,12.98-12.98,12.98s-12.98-5.82-12.98-12.98,5.82-12.98,12.98-12.98,12.98,5.82,12.98,12.98ZM94.75,79.37c0,5.66.47,17.85-1.56,22.96-1.36,3.41-3.98,6.03-7.4,7.4-5.13,2.03-17.29,1.56-22.95,1.56s-17.85.45-22.96-1.56c-3.41-1.36-6.03-3.98-7.4-7.4-2.03-5.13-1.56-17.29-1.56-22.96s-.45-17.85,1.56-22.96c1.36-3.41,3.98-6.03,7.4-7.4,5.13-2.03,17.29-1.56,22.96-1.56s17.85-.45,22.95,1.56c3.41,1.36,6.03,3.98,7.4,7.4,2.03,5.13,1.56,17.29,1.56,22.96ZM82.8,79.37c0-11.05-8.91-19.97-19.97-19.97s-19.97,8.91-19.97,19.97,8.91,19.97,19.97,19.97,19.97-8.91,19.97-19.97ZM88.27,58.59c0-2.57-2.09-4.66-4.66-4.66s-4.66,2.09-4.66,4.66,2.07,4.66,4.66,4.66,4.66-2.07,4.66-4.66ZM115.56,50.83v57.08c0,13.37-10.84,24.2-24.2,24.2h-57.07c-13.37,0-24.21-10.84-24.21-24.2v-57.08c0-13.37,10.84-24.2,24.21-24.2h57.07c13.37,0,24.2,10.84,24.2,24.2ZM101.49,63.31c-.3-6.24-1.72-11.76-6.29-16.32-4.55-4.55-10.08-5.98-16.32-6.29-6.43-.36-25.7-.36-32.13,0-6.22.3-11.75,1.72-16.32,6.27-4.57,4.55-5.98,10.08-6.29,16.32-.36,6.43-.36,25.7,0,32.13.3,6.24,1.72,11.76,6.29,16.32,4.57,4.55,10.08,5.98,16.32,6.29,6.43.36,25.7.36,32.13,0,6.24-.3,11.76-1.72,16.32-6.29,4.55-4.55,5.98-10.08,6.29-16.32.36-6.43.36-25.68,0-32.11Z"/>
  </g>
  <g>
    <path class="cls-2" d="M337.09,138.37c-.46-.13-.91-.26-1.37-.38-1.73-.45-3.33-1.16-4.72-2.3-2.11-1.73-3.16-3.99-3.34-6.69-.15-2.31.39-4.46,1.46-6.49,1.29-2.44,3.02-4.55,4.98-6.47,2.94-2.88,5.96-5.67,8.95-8.5.75-.71,1.52-1.38,2.26-2.09.2-.19.44-.45.45-.69.02-1.15-.04-2.3-.07-3.45-.07-.03-.13-.06-.2-.09-.22.28-.44.56-.65.84-1.72,2.21-3.85,3.85-6.51,4.78-4.79,1.68-9.48.17-12.41-3.98-.46-.65-.85-1.34-1.33-2.1-.17.29-.29.53-.44.77-.64.96-1.19,2-1.93,2.87-4.28,4.94-11.23,3.56-14.11-1.39-.48-.82-.74-1.77-1.07-2.67-.12-.32-.17-.67-.28-1.14-.23.36-.41.61-.57.88-1.25,2.01-2.73,3.81-4.71,5.16-1.93,1.31-4.03,2.14-6.37,2.26-3.72.18-6.67-1.32-8.93-4.23-1.34-1.72-2.19-3.69-2.83-5.76-.07-.24-.15-.49-.27-.87-.15.31-.26.51-.35.72-.97,2.4-2.23,4.63-3.96,6.57-.51.57-1.07,1.11-1.65,1.62-3.56,3.18-7.79,2.06-10.31.04-1.41-1.13-2.39-2.59-3.15-4.21-.99-2.11-1.56-4.34-1.93-6.63-.14-.85-.25-1.7-.51-2.58-.15.31-.31.62-.45.93-1.33,2.9-2.93,5.64-5.05,8.06-3.01,3.43-6.71,5.67-11.27,6.28-4.26.57-8.39.07-12.31-1.77-.52-.24-1-.58-1.45-.93-.76-.6-1-1.4-.74-2.33.46-1.68,1.29-3.14,2.65-4.27.86-.71,1.6-.79,2.57-.23.47.27.9.62,1.35.93.61.42,1.19.87,1.83,1.24.55.32,1.15.59,1.75.77,2.14.66,4.01-.13,5-2.13.88-1.79.88-3.65.31-5.54-.41-1.37-1.13-2.59-2.02-3.7-1.95-2.45-4.43-4.36-6.75-6.59-.23.36-.43.64-.6.93-2.69,4.49-5.36,8.99-8.08,13.47-1.47,2.42-3.17,4.68-5.2,6.68-1.08,1.06-2.26,2.01-3.61,2.71-1.04.53-2.13.89-3.32.86-1.92-.04-3.39-.87-4.36-2.53-.72-1.24-1.16-2.59-1.36-3.99-.27-1.87-.58-3.76-.58-5.65,0-4.46.15-8.93.28-13.39.09-3.05.25-6.1.37-9.15,0-.24-.08-.47-.16-.9-.44.38-.78.61-1.05.9-1.82,1.97-3.26,4.21-4.54,6.56-2.74,5.02-4.63,10.36-6.12,15.86-.84,3.1-1.64,6.21-2.03,9.4-.06.45-.11.89-.15,1.34-.06.74-.49,1.15-1.18,1.34-1.11.3-2.23.24-3.35.14-.48-.04-.96-.13-1.42-.26-1.03-.3-1.66-1.06-2.08-2-.54-1.23-.71-2.53-.76-3.85-.05-1.44-.07-2.89-.07-4.34.06-10.09.12-20.18.19-30.27,0-.22,0-.45.02-.67.07-.69.36-1.11,1.05-1.17.79-.07,1.62-.06,2.38.12,1.15.27,2.26.71,3.38,1.09,1.01.35,1.39,1.03,1.38,2.14-.07,5.75-.07,11.51-.1,17.26,0,.33,0,.67.17,1.03.14-.34.29-.68.42-1.03,1.1-2.94,2.14-5.92,3.33-8.83,1.14-2.8,2.59-5.46,4.52-7.81.97-1.17,2.04-2.23,3.37-2.99,1.49-.85,3.08-1.39,4.79-.93,2.07.56,3.92,1.6,5.54,3.01,1,.87,1.45,2.02,1.4,3.35-.1,2.67-.2,5.33-.29,8-.19,5.3-.48,10.6-.1,15.9.07.95.25,1.91.53,2.83.34,1.11,1.02,1.33,1.99.68.53-.35,1.03-.79,1.42-1.29.85-1.09,1.68-2.19,2.41-3.37,2.85-4.59,5.5-9.28,7.97-14.08.06-.11.1-.23.18-.39-.14-.2-.27-.42-.43-.61-2.2-2.68-2.48-5.64-1.15-8.76,1.28-3,3.44-5.08,6.65-5.94,1.27-.34,2.55-.33,3.82-.03,1.92.44,2.95,1.83,2.71,3.83-.12,1.04-.4,2.09-.79,3.06-.81,2-1.93,3.84-3.3,5.52-.16.19-.31.39-.49.64.29.23.53.43.78.62,2.31,1.74,4.65,3.44,6.91,5.24,1.23.97,2.42,2.03,3.46,3.2,2.32,2.6,3.39,5.64,2.83,9.15-.02.13-.03.26-.03.38,0,.06.03.12.07.25.21-.17.42-.31.58-.48,3.08-3.12,5.11-6.81,6.09-11.08.1-.43.16-.89.16-1.33.04-6.43.06-12.86.09-19.28,0-.28,0-.57,0-.91-.3-.04-.54-.1-.78-.1-2.73-.09-5.46-.16-8.19-.26-1.21-.04-1.54-.34-1.59-1.56-.06-1.6.33-3.12,1.16-4.51.33-.55.8-.77,1.45-.73,2.15.11,4.3.2,6.45.28.63.02,1.27,0,1.96,0,.03-.28.06-.52.07-.77.13-3.31.25-6.61.4-9.92.02-.48.09-.96.22-1.42.22-.79.77-1.24,1.61-1.29.35-.02.71-.04,1.06.02,1.93.34,3.84.77,5.64,1.58.2.09.4.2.59.32.51.31.75.74.72,1.36-.12,2.41-.23,4.81-.31,7.22-.04,1.06,0,2.11,0,3.28,1.25.09,2.55.19,3.85.27,2.34.14,4.68.26,7.02.39.16,0,.32.02.48.03,1.26.14,1.65.56,1.58,1.81-.06,1.07-.32,2.09-.85,3.03-.34.61-.8.92-1.54.93-3.21.02-6.42.1-9.64.15-.35,0-.7,0-1.14,0-.07.98-.17,1.9-.19,2.82-.21,7.81-.42,15.61-.59,23.42-.05,2.51.11,5.02.76,7.46.25.95.62,1.9,1.1,2.76.78,1.39,1.86,1.68,3.25.87.76-.45,1.49-1.03,2.07-1.69,2.28-2.59,3.65-5.65,4.32-9.01.21-1.06.13-2.18.2-3.27.23-3.96.78-7.86,2.11-11.61.85-2.39,2.11-4.54,3.68-6.51,1.54-1.92,3.42-3.42,5.86-4.01,4.14-1.02,7.6.2,10.38,3.4.11.12.2.25.31.37.1.12.2.24.45.53.04-.46.07-.75.09-1.04.06-1.38.8-2.14,2.17-2.17,1.76-.04,3.45.33,5.05,1.05,1.43.64,1.7,1.21,1.64,2.8-.1,2.34-.17,4.69-.22,7.03-.09,4.5-.2,9-.2,13.49,0,2.73.11,5.47.73,8.14.18.81.44,1.62.81,2.36,1.08,2.14,3.35,2.46,4.99.73,1.49-1.56,2.24-3.51,2.65-5.58.11-.54-.09-1.14-.16-1.71-.38-2.91-.35-5.84-.17-8.76.23-3.68.93-7.26,2.31-10.69.95-2.37,2.13-4.61,3.84-6.53,1.76-1.99,3.89-3.34,6.57-3.69,3.72-.49,6.74.81,9.16,3.61.23.27.45.55.78.97.03-.39.07-.64.07-.9.03-1.42.74-2.24,2.16-2.3.76-.03,1.55.03,2.29.19,1.03.23,2.03.57,3.03.92,1.03.36,1.44,1.1,1.42,2.24-.13,5.98-.21,11.95-.28,17.93-.03,2.92,0,5.85,0,8.77,0,.22.03.43.05.68,2.72-2.22,8.73-14.96,9.97-21.11-.06-.07-.13-.18-.23-.25-2.11-1.66-2.81-3.81-2.24-6.42.29-1.35.81-2.56,1.75-3.59,1.48-1.62,3.36-2.1,5.43-1.77,2.08.33,3.21,1.76,3.2,3.94,0,.86-.16,1.71-.26,2.68.62-.09,1.22-.16,1.8-.26,2.37-.44,4.72-.93,7.1-1.3.87-.14,1.8-.08,2.67.07,1.86.33,3.17,1.92,3.19,3.81,0,.86-.13,1.73-.29,2.57-.62,3.18-1.4,6.34-1.9,9.53-.68,4.34-.77,8.7.28,13.02.36,1.48.88,2.9,1.97,4.02,1.12,1.15,2.61,1.35,3.93.44.57-.39,1.09-.93,1.46-1.5.48-.75.8-1.6,1.15-2.42.39-.91.41-1.82.24-2.82-.65-3.66-.66-7.35-.34-11.05.28-3.15.86-6.23,2-9.19.95-2.44,2.22-4.71,3.93-6.7,1.75-2.04,3.89-3.43,6.61-3.8,3.67-.5,6.69.74,9.12,3.49.27.31.53.63.95,1.14.01-.55.01-.91.02-1.27.04-1.19.71-1.94,1.9-2,1.99-.1,3.89.32,5.68,1.21.91.46,1.33,1.16,1.3,2.25-.18,6.04-.34,12.08-.42,18.12-.04,2.63.05,5.27.22,7.9.09,1.46.43,2.91.73,4.36.11.52.36,1.03.65,1.49.91,1.48,2.72,1.82,4.08.74.57-.45,1.08-1.02,1.49-1.62,1.67-2.46,2.59-5.22,3.15-8.11.05-.25.04-.51.04-.77.08-7.97.15-15.94.23-23.91.02-1.96.52-2.48,2.43-2.22,1.58.21,3.15.62,4.7,1.01.82.21,1.26.86,1.37,1.69.05.35.03.71.03,1.06,0,4.08-.01,8.16-.02,12.24,0,.3,0,.61,0,.91.06.01.12.02.19.03.13-.35.26-.69.38-1.04,1.09-3.19,2.13-6.39,3.28-9.56.56-1.53,1.23-3.04,1.99-4.48.95-1.82,1.91-2.21,3.97-1.91,1.48.21,2.87.68,4.13,1.5,1.34.87,2.16,2.08,2.31,3.7.04.45.09.9.1,1.34.08,2.95.1,5.91.23,8.86.12,2.72.36,5.44.71,8.2.07-.14.19-.27.21-.42,1.03-6.7,3.1-13.11,5.58-19.39.25-.63.49-1.26.79-1.86.78-1.52,1.95-2.18,3.63-1.93,2.25.34,4.33,1.19,6.19,2.51,1.12.8,1.68,1.9,1.62,3.31-.11,2.5-.18,5.01-.28,7.51-.19,4.63-.18,9.25.07,13.88.11,1.99.31,3.98.97,5.87.34.96.77,1.93,1.36,2.74,1.15,1.57,2.99,1.53,4.11-.07.54-.77.96-1.68,1.26-2.58.46-1.37.76-2.78,1.15-4.17.13-.46.27-.93.48-1.36.34-.69.82-.93,1.48-.82.58.09,1.08.58,1.11,1.28.05,1.09.11,2.19-.03,3.27-.25,1.91-.73,3.78-1.51,5.56-.3.67-.64,1.34-1.03,1.96-2.26,3.55-6.02,4.7-9.89,3.04-2.15-.92-3.7-2.5-4.85-4.51-1.16-2.04-1.75-4.26-2.11-6.56-.54-3.5-.74-7.03-.75-10.56-.02-2.99.08-5.98.12-8.96,0-.33,0-.67,0-1-.07-.02-.14-.03-.22-.05-.13.23-.26.46-.37.7-2.65,5.82-4.43,11.9-5.38,18.22-.4,2.7-.77,5.41-.71,8.15.02.86-.43,1.37-1.17,1.7-1.95.86-4.79.33-6.28-1.19-.78-.79-1.34-1.72-1.64-2.79-.69-2.42-1.04-4.9-1.32-7.39-.59-5.3-.97-10.62-1.04-15.96,0-.34-.1-.67-.16-1.04-.63.07-.82.51-1.01.9-.79,1.65-1.64,3.28-2.29,4.98-1.36,3.54-2.42,7.18-2.95,10.95-.24,1.68-.37,3.38-.47,5.08-.13,2.31-.16,4.62-.25,6.94-.02.51-.08,1.03-.18,1.53-.15.72-.6,1.2-1.34,1.34-2.21.43-4.41.42-6.56-.34-.21-.07-.41-.19-.62-.27-.82-.34-1.25-.94-1.3-1.85-.07-1.18-.19-2.35-.31-3.7-.19.28-.3.44-.4.61-.51.85-.95,1.76-1.53,2.56-2.22,3.01-5.52,4.01-9.05,2.75-3.14-1.12-5.07-3.38-6.03-6.53-.12-.39-.21-.78-.37-1.36-.27.42-.45.7-.63.99-1.59,2.69-3.7,4.85-6.55,6.19-2.39,1.13-4.89,1.55-7.5.91-3.02-.74-5.17-2.61-6.76-5.21-.15-.25-.3-.49-.45-.74-.01-.02-.05-.02-.13-.05-.15.26-.31.53-.47.81-.89,1.56-2.01,2.9-3.49,3.93-2.23,1.55-4.64,1.94-7.23,1.05-2.81-.96-4.87-2.8-6.34-5.33-1.18-2.03-1.77-4.26-2.12-6.56-.65-4.4-.38-8.78.3-13.15.32-2.03.78-4.03,1.16-6.05.05-.27.05-.56.09-.97-2.3-.13-4.49.11-6.72.12-.1.23-.2.43-.28.63-3.51,9.84-8.57,18.8-15.32,26.78-.47.56-.66,1.1-.65,1.82.08,3.98.21,7.97.14,11.95-.07,4.22-.67,8.39-2.08,12.39-1.59,4.51-4.61,7.64-9.15,9.24-.54.19-1.09.33-1.64.49h-4.05ZM305.3,83.6c-.2-2.01-.33-4.03-.61-6.03-.22-1.6-.73-3.13-1.66-4.48-1.76-2.55-5-2.97-7.27-.87-.72.66-1.3,1.5-1.82,2.34-.79,1.3-1.24,2.75-1.57,4.22-1.07,4.78-1.28,9.6-.73,14.46.2,1.76.6,3.48,1.32,5.11.43.98.97,1.89,1.79,2.6,1.03.88,2.19,1.18,3.5.76,1.34-.44,2.32-1.34,3.16-2.43,1.11-1.45,1.81-3.1,2.34-4.83,1.08-3.53,1.42-7.17,1.56-10.86ZM401.55,88.17c.11,1.7.19,3.39.34,5.09.06.76.21,1.52.37,2.28.36,1.67.88,3.29,1.94,4.67,1.48,1.92,3.5,2.25,5.51.92,1.21-.8,2.12-1.89,2.74-3.17.6-1.24,1.15-2.51,1.55-3.82,1.31-4.26,1.54-8.64,1.25-13.05-.1-1.59-.38-3.18-.69-4.75-.27-1.36-.82-2.64-1.73-3.71-1.23-1.45-2.8-1.97-4.66-1.57-1.32.28-2.32,1.05-3.15,2.08-1.08,1.35-1.73,2.92-2.19,4.57-.94,3.43-1.19,6.94-1.29,10.49ZM331.51,88.44c0,1.09-.07,2.19.01,3.27.16,2.12.47,4.22,1.29,6.19.38.91.86,1.81,1.47,2.57,1.27,1.58,3.05,1.85,4.84.89.89-.48,1.61-1.16,2.23-1.95.86-1.1,1.45-2.34,1.92-3.65,1.04-2.92,1.63-5.94,1.82-9.03.2-3.24.26-6.49-.31-9.7-.27-1.52-.68-3.01-1.62-4.28-1.07-1.45-2.52-2.01-4.3-1.76-1.71.24-2.92,1.25-3.91,2.58-.87,1.17-1.46,2.49-1.93,3.86-1.21,3.57-1.55,7.27-1.51,11ZM346.12,111.46c-.19.14-.3.2-.38.28-2.57,2.56-5.09,5.17-7.29,8.07-1.46,1.92-2.76,3.94-3.58,6.24-.48,1.34-.78,2.71-.68,4.15.18,2.51,2.02,4.34,4.44,4.28,1.93-.05,3.59-.82,4.62-2.51.56-.92,1-1.94,1.34-2.97.82-2.48,1.2-5.06,1.34-7.66.16-3.01.17-6.03.24-9.05,0-.24-.03-.48-.05-.83Z"/>
    <path class="cls-2" d="M152.6,66.64c.12-.36.28-.72.36-1.09,1.84-8.82,6.48-15.76,13.92-20.82.71-.49,1.51-.84,2.26-1.28,1.48-.85,3.04-.9,4.67-.58,1.4.28,2.72.75,3.92,1.54.97.64,1.49,1.45,1.49,2.71-.04,15.1-.02,30.2-.05,45.31,0,2.6-.13,5.21-.37,7.79-.35,3.73-1.43,7.24-3.63,10.33-1.27,1.79-2.87,3.21-4.84,4.17-.57.28-1.2.46-1.83.54-.75.1-1.09-.25-1.04-1.02.03-.54.18-1.07.31-1.6.43-1.71.94-3.4,1.29-5.13.26-1.25.39-2.54.47-3.82.12-2.08.21-4.17.22-6.26.09-15.33.15-30.65.22-45.98,0-.61.01-1.22-.02-1.83-.02-.34-.11-.68-.2-1.2-.4.26-.72.4-.93.63-.97,1.07-2.02,2.09-2.84,3.26-2.67,3.8-4.22,8.05-4.9,12.63-.42,2.82-.45,5.63.14,8.43.35,1.69,1.04,3.23,1.95,4.68.31.49.62.98.83,1.52.44,1.13-.12,1.9-1.29,1.75-.66-.08-1.34-.26-1.93-.54-4.15-1.97-6.75-5.21-7.77-9.7-.09-.4-.26-.78-.39-1.16,0-1.09,0-2.19,0-3.28Z"/>
  </g>
</svg>