<?xml version="1.0" encoding="UTF-8"?>
<svg id="Layer_1" data-name="Layer 1" xmlns="http://www.w3.org/2000/svg" version="1.1" viewBox="0 0 500 165">
  <defs>
    <style>
      .cls-1 {
        fill: #7688c4;
      }

      .cls-1, .cls-2, .cls-3, .cls-4 {
        stroke-width: 0px;
      }

      .cls-2 {
        fill: #7889c4;
      }

      .cls-3 {
        fill: #7789c4;
      }

      .cls-4 {
        fill: #fff;
      }
    </style>
  </defs>
  <rect class="cls-4" x="21.69" y="27.32" width="85.63" height="85.63"/>
  <g>
    <path class="cls-1" d="M95.29,121.29c.8,4.03,2.33,7.6,3.04,11.34-.94.52-1.79.32-2.6.32-17.6.01-35.21,0-52.81,0-6.24,0-12.48-.03-18.71,0-4.5.03-8.24-1.58-11.13-5.04-1.83-2.18-2.89-4.7-3.04-7.56-.03-.62-.03-1.25-.03-1.87,0-28.96,0-57.93,0-86.89,0-1.8.04-3.57.72-5.31,1.98-5.08,5.55-8.11,10.97-8.98,1.31-.21,2.61-.25,3.93-.25,28.42,0,56.83,0,85.25,0,3.4,0,6.59.68,9.36,2.79,3.45,2.63,5.35,6.09,5.49,10.46.02.48,0,.97,0,1.46,0,37.9,0,75.81,0,113.71v2.45c-1.96-.95-3.13-2.56-4.66-3.7-1.49-1.12-2.83-2.44-4.24-3.67-1.46-1.27-2.94-2.52-4.39-3.81-1.4-1.24-2.76-2.52-4.14-3.79-1.43-1.31-2.86-2.62-4.29-3.93-1.38-1.26-2.79-2.49-4.15-3.77-1.4-1.32-2.79-2.65-4.57-3.97ZM58.29,48.54c-.93-1.1-1.83-.8-2.59-.69-5.7.83-10.94,2.86-15.69,6.15-.65.45-1.11,1-1.45,1.71-2.05,4.31-3.87,8.72-5.21,13.31-1.34,4.58-2.48,9.2-3.07,13.94-.37,3.02-.72,6.04-.69,9.09,0,.74.21,1.33.71,1.88,1.54,1.7,3.1,3.35,5.04,4.62,4.16,2.72,8.79,3.94,13.67,4.4.63.06,1.01-.27,1.38-.74.98-1.25,2.02-2.46,3.02-3.69.25-.31.63-.57.51-1.06-5.93-2.42-8.83-4.35-10.59-7.14,16.6,9.02,33.12,9.38,49.73.43-2.68,3.6-6.55,5.3-10.66,6.8.95,1.54,2.16,2.68,3.12,4.01.65.91,1.36,1.2,2.44,1.15,5.04-.25,9.61-1.83,13.75-4.68,1.55-1.07,2.92-2.34,4.13-3.78.68-.81,1.21-1.67,1.04-2.82-.16-1.16-.28-2.34-.31-3.51-.08-3.4-.64-6.74-1.3-10.06-1.5-7.56-3.91-14.82-7.26-21.77-.5-1.05-1.22-1.79-2.15-2.44-3.34-2.32-7.03-3.86-10.91-4.95-1.59-.44-3.25-.64-4.89-.88-.75-.11-1.57-.16-1.87,1.05,2.34.92,4.73,1.76,7.03,2.8,2.32,1.04,4.61,2.17,6.56,3.92-1.81-.34-3.44-1.22-5.16-1.82-1.83-.64-3.68-1.2-5.56-1.65-1.81-.43-3.66-.71-5.49-1.04-1.91-.35-3.84-.46-5.78-.45-1.87.02-3.75-.05-5.61.08-1.92.13-3.83.48-5.76.67-1.87.18-3.68.64-5.47,1.13-1.86.51-3.71,1.1-5.52,1.77-1.72.64-3.39,1.42-5.09,2.14,4.66-3.8,10.09-6.03,15.93-7.87Z"/>
    <path class="cls-3" d="M409.29,85.71c-.88-.12-1.56-.18-2.23.04-.5.53-.3,1.19-.3,1.79-.02,4.85,0,9.7-.02,14.55,0,.67.18,1.38-.2,2.01-1.65.27-12.77.3-14.7.04-.05-.05-.1-.1-.14-.16-.04-.05-.08-.12-.09-.18-.03-.55-.06-1.11-.06-1.66,0-18.64,0-37.28.01-55.92,0-.13.07-.26.12-.39.03-.06.09-.1.19-.22.83,0,1.72,0,2.6,0,7,0,14,0,21,0,2.64,0,5.24.21,7.81.89,8.14,2.17,13.11,8.28,13.52,16.82.17,3.46.04,6.9-1.08,10.26-1.59,4.81-4.49,8.36-9.33,10.16-.24.09-.45.26-.75.44,1.11,1.85,2.57,3.33,3.8,4.98,1.28,1.72,2.67,3.35,4.01,5.03,1.29,1.63,2.59,3.24,3.84,4.9,1.23,1.62,2.77,3.02,3.68,4.95-1.7.31-16.04.36-18.22.08-4.46-6.09-8.95-12.23-13.47-18.42ZM406.62,72.72c3.22,0,6.19-.05,9.16.01,3.79.08,7.59-3.26,6.28-8.64-.75-3.09-3.64-4.68-6.12-4.7-2.77-.02-5.54,0-8.31,0-.34,0-.7-.04-1.01.38v12.96Z"/>
    <path class="cls-3" d="M334.97,74.77c0-3.33-.04-6.65.01-9.98.04-2.43.45-4.8,1.35-7.08,1.59-4.03,4.36-7.04,8.03-9.21,4.06-2.41,8.49-3.6,13.23-3.73,4.18-.11,8.28.22,12.25,1.66,2.9,1.05,5.59,2.45,7.85,4.53,3.44,3.15,5.48,7.04,5.93,11.76.15,1.59.22,3.17.22,4.76,0,5.47,0,10.95,0,16.42,0,1.8-.18,3.59-.55,5.35-1.08,5.1-4.08,8.87-8.39,11.62-3.42,2.19-7.21,3.35-11.25,3.92-4.4.62-8.68.22-12.92-.92-4.75-1.27-8.77-3.73-11.89-7.54-2.64-3.23-3.74-7.06-3.85-11.17-.09-3.46-.02-6.93-.02-10.39ZM349.88,74.98c0,3.05.07,6.1-.02,9.15-.09,3.05,1.34,5.02,4.04,6.12,4.15,1.68,8.23,1.52,12.18-.69.74-.42,1.32-.98,1.81-1.67.8-1.12,1.07-2.36,1.06-3.72-.01-5.96,0-11.92,0-17.88,0-.49.03-.97-.02-1.45-.22-2.1-1.02-3.86-2.99-4.91-3.83-2.04-7.79-2.35-11.8-.71-2.79,1.14-4.43,3.15-4.29,6.41.13,3.11.03,6.24.03,9.35Z"/>
    <path class="cls-3" d="M164.56,104.07c-.21-1.82-.22-11.7-.02-13.56.59-.5,1.31-.27,1.98-.27,6.72-.02,13.44-.01,20.16-.01,1.11,0,2.19-.1,3.29-.34,2.2-.48,4.06-2.34,4.34-5.19.05-.55.03-1.11.03-1.66,0-5.54,0-11.08,0-16.62,0-.48.02-.97-.02-1.45-.23-2.33-1.31-4.05-3.58-4.89-.97-.36-1.97-.65-3.02-.66-2.49-.01-4.99,0-7.48,0-.27,0-.56,0-.88.39-.2,2.39-.06,4.94-.09,7.48-.03,2.63,0,5.26,0,7.9s0,5.11,0,7.6c-.52.25-.77-.02-1.02-.25-3.28-2.97-6.56-5.95-9.85-8.92-.97-.88-1.95-1.77-2.96-2.6-.76-.63-1.01-1.38-1.01-2.36.03-7.13.02-14.27.02-21.4,0-.54-.1-1.11.18-1.5.56-.51,1.14-.38,1.68-.38,6.79,0,13.58-.07,20.37.02,4.1.06,8.14.71,11.88,2.51,5.04,2.42,8.62,6.14,10.03,11.71.45,1.76.7,3.51.7,5.32-.02,6.79-.04,13.58,0,20.36.06,8.33-4.93,14.62-12.41,17.33-3.02,1.09-6.13,1.65-9.34,1.66-7.07.02-14.13.02-21.2.02-.54,0-1.11.1-1.76-.22Z"/>
    <path class="cls-3" d="M445.22,70.03c-.27-3.57-.16-22.91.15-24.5.63-.32,1.34-.17,2.01-.17,6.24-.01,12.48-.07,18.72.01,3.95.05,7.86.47,11.59,1.93,4.13,1.62,7.47,4.16,9.76,8.01,1.08,1.81,1.73,3.77,2.12,5.81.22,1.15.38,2.33.38,3.5.04,6.93.09,13.86-.01,20.79-.06,3.71-.94,7.25-3.16,10.36-1.06,1.48-2.28,2.81-3.75,3.85-3.33,2.35-7.03,3.76-11.1,4.32-2.28.31-4.55.34-6.83.35-5.89.01-11.79,0-17.68,0h-2c-.39-1.59-.48-11.04-.18-13.82.67-.48,1.46-.25,2.19-.25,6.66-.02,13.31-.02,19.97,0,1.33,0,2.63-.08,3.87-.59,1.96-.79,3.14-2.17,3.46-4.29.17-1.1.3-2.19.29-3.3-.02-5.06-.02-10.12,0-15.18,0-.98-.12-1.92-.31-2.88-.43-2.11-1.69-3.46-3.7-4.08-.85-.26-1.72-.53-2.64-.53-2.56.02-5.13,0-7.69.01-.27,0-.56-.01-.95.41-.07,1.72-.02,3.65-.03,5.57,0,1.94,0,3.88,0,5.82v11.68c-1.73-1.03-12.28-10.42-14.49-12.85Z"/>
    <path class="cls-3" d="M280.44,54.02c-3.28,2.53-6.4,4.94-9.48,7.32-.7-.05-.97-.6-1.38-.94-3.02-2.41-6.36-3.88-10.33-3.55-2.88.24-4.7,1.88-5.18,3.76-.45,1.76-.15,3.06,1.26,4.26,1.58,1.34,3.49,1.94,5.45,2.41,2.41.58,4.86,1.05,7.25,1.72,3.71,1.04,7.13,2.65,9.8,5.56,2.17,2.37,3.35,5.19,3.82,8.35.3,2,.31,3.96.05,5.98-.53,3.97-2.37,7.23-5.31,9.81-4.06,3.58-8.93,5.34-14.27,6.09-4.47.62-8.69-.01-12.74-1.82-4.24-1.89-7.78-4.71-10.68-8.6,2.9-3.15,6.26-5.69,9.06-8.71.84.22,1.16.8,1.6,1.21,3.78,3.43,8.25,4.64,13.24,4.1,1.26-.14,2.36-.73,3.35-1.53,1.38-1.13,1.77-3.79.21-5.16-1.01-.88-2.12-1.53-3.35-2.03-2.2-.89-4.54-1.17-6.84-1.63-4.15-.82-7.95-2.42-11.13-5.23-3.35-2.96-5.24-6.74-5.58-11.23-.23-3-.02-5.94,1.3-8.72,2.03-4.29,5.36-7.16,9.7-8.9,2.51-1.01,5.11-1.59,7.84-1.81,5.08-.4,9.91.27,14.45,2.63,3.05,1.59,5.57,3.83,7.9,6.65Z"/>
    <path class="cls-3" d="M330.7,58.16c-3.98,1.68-7.86,3.27-11.78,4.81-.74-.34-1.1-1.06-1.62-1.6-1.83-1.89-4.04-2.82-6.66-2.89-1.89-.05-3.73.08-5.46.96-2.31,1.17-3.57,3.01-3.58,5.62-.01,6.58,0,13.16,0,19.75,0,2.13,1.03,3.71,2.74,4.85,3.2,2.13,8.39,1.83,11.17-.36,1.12-.88,1.79-2.09,2.68-3.34,4.23,1.83,8.38,3.8,12.43,5.68.25.73-.04,1.13-.29,1.54-3.97,6.54-9.67,10.51-17.3,11.56-6.88.95-13.22-.57-18.84-4.62-3.97-2.87-6.45-6.75-7.19-11.7-.2-1.31-.32-2.6-.33-3.92,0-6.86-.08-13.72.04-20.58.1-5.22,2.16-9.68,6.04-13.2,3.09-2.8,6.81-4.51,10.85-5.38,3.88-.84,7.82-.89,11.75-.1,5.12,1.02,9.18,3.73,12.37,7.79.76.97,1.39,2.06,2.03,3.13.35.58.59,1.21.96,2Z"/>
    <path class="cls-3" d="M231.7,104.26c-4.71,0-9.47,0-14.05,0-.23-.24-.29-.28-.33-.34-.03-.06-.05-.13-.05-.2-.02-18.98-.04-37.97-.05-56.95,0-.34.05-.69.09-1.03,0-.06.08-.11.12-.16,1.64-.31,12.52-.33,14.46-.03.03.04.09.08.12.14.03.06.05.13.05.2.02,18.98.04,37.97.05,56.95,0,.34-.05.69-.09,1.03,0,.06-.08.1-.33.39Z"/>
    <path class="cls-2" d="M62.51,79.22c.1,2.92-.95,5.11-3.35,6.59-3.3,2.05-6.66.56-8.35-1.53-2.19-2.71-2.29-6.29-.29-9.26,2.51-3.73,8.17-3.94,10.98.39.77,1.19,1.12,2.51,1.01,3.81Z"/>
    <path class="cls-2" d="M86.65,79.2c.04,3.09-1.06,5.26-3.48,6.68-2.15,1.26-4.39,1.28-6.46-.09-4.4-2.92-4.27-8.09-1.72-11.21,2.91-3.56,8.27-3.05,10.7.96.74,1.22,1.06,2.54.96,3.65Z"/>
  </g>
</svg>