<?xml version="1.0" encoding="UTF-8"?>
<svg id="Layer_1" data-name="Layer 1" xmlns="http://www.w3.org/2000/svg" version="1.1" viewBox="0 0 500 165">
  <defs>
    <style>
      .cls-1 {
        fill: #219cd7;
      }

      .cls-1, .cls-2, .cls-3, .cls-4, .cls-5, .cls-6 {
        stroke-width: 0px;
      }

      .cls-2 {
        fill: #249cd8;
      }

      .cls-3 {
        fill: #263f82;
      }

      .cls-4 {
        fill: #239cd8;
      }

      .cls-5 {
        fill: #26326d;
      }

      .cls-6 {
        fill: #253f82;
      }
    </style>
  </defs>
  <path class="cls-3" d="M184.28,98.16c-2.05,0-4.09,0-6.14,0-2.77,0-3.62.63-4.12,3.42-.71,4.01-1.3,8.05-1.96,12.08-.28,1.71-.51,3.43-.87,5.12-.47,2.19-1.52,3-3.76,3.02-3.48.02-6.95,0-10.43,0-2.82,0-3.62-.93-3.18-3.78.59-3.88,1.22-7.75,1.83-11.63,1.52-9.67,3.05-19.34,4.56-29.01,1.15-7.3,2.27-14.61,3.43-21.91.13-.8.39-1.58.69-2.33.52-1.31,1.52-2.02,2.96-2.02,10.28,0,20.56-.2,30.83.12,6.03.19,11.5,2.41,14.72,7.95,1.25,2.14,2.15,4.71,2.38,7.16.63,6.79-.75,13.33-3.95,19.37-4.38,8.25-11.52,12.09-20.71,12.42-2.09.07-4.19.01-6.29.01h0ZM176.63,84.52c3.62,0,7,.19,10.34-.08,1.7-.14,3.55-.77,4.95-1.73,4-2.73,4.94-6.96,4.67-11.46-.21-3.51-2.75-6.04-6.36-6.28-3.45-.23-6.92-.05-10.52-.05-1.02,6.49-2.04,12.96-3.08,19.6Z"/>
  <path class="cls-2" d="M366.04,51.14c4.96,0,9.93-.17,14.88.05,5.18.22,9.93,1.79,13.62,5.74,2.31,2.48,3.73,5.47,3.96,8.77.65,9.21-1.2,17.79-7.39,24.99-3.77,4.39-8.76,6.74-14.45,7.19-5.14.4-10.32.25-15.48.32-2.41.03-3.22.51-3.72,2.93-.71,3.44-1.22,6.92-1.78,10.39-.35,2.16-.62,4.34-.98,6.5-.48,2.9-1.59,3.81-4.54,3.81-3.43,0-6.85.01-10.28,0-2.27,0-3.13-1.05-2.78-3.31,2.73-17.52,5.46-35.03,8.2-52.55.57-3.67,1.15-7.35,1.8-11.01.53-3,1.6-3.84,4.67-3.84,4.76,0,9.51,0,14.27,0v.03ZM359.92,84.53c3.37,0,6.58.02,9.78-.02.81,0,1.69-.04,2.41-.35,1.43-.62,2.96-1.23,4.11-2.24,2.98-2.61,3.75-6.2,3.73-9.99-.02-3.69-2.54-6.69-6.21-6.96-3.5-.25-7.03-.05-10.73-.05-1.02,6.5-2.04,12.96-3.09,19.6Z"/>
  <path class="cls-6" d="M255.27,80.53c.22-1.12.47-2.24.67-3.37.34-1.92.77-2.31,2.73-2.32,3.32,0,6.65,0,9.97,0,2.26,0,2.92.78,2.57,3.02-.93,5.89-1.86,11.78-2.81,17.67-1.19,7.4-2.39,14.79-3.6,22.19-.11.7-.27,1.4-.45,2.08-.37,1.42-1.24,2.11-2.78,2.08-3.48-.05-6.96,0-10.43-.02-1.57,0-2.02-.47-1.95-2.04.05-1.21.24-2.41.42-4.15-1.07.73-1.85,1.14-2.47,1.71-6.48,5.94-14.08,7.34-22.24,4.83-8.16-2.52-13.33-9.8-13.24-18.63.1-10.28,3.84-19.08,12.41-25.23,6.78-4.86,14.44-6.25,22.59-4.5,3.4.73,6.09,2.57,7.55,5.9.13.3.4.55.61.82l.46-.05ZM253.36,96.73c.09-5.38-3.66-9.75-9.01-10.48-7.3-1-14.59,3.98-16.3,11.15-1.45,6.03,2.09,11.78,8.03,13.06,8.3,1.79,17.15-5.24,17.28-13.73Z"/>
  <path class="cls-4" d="M432.35,115.93c-.82.64-1.72,1.21-2.46,1.93-6.9,6.68-19.51,7.06-26.46,2.09-5.05-3.61-8.02-8.54-8.36-14.65-.55-9.95,2.61-18.7,10.24-25.32,7.16-6.21,15.63-8.13,24.91-6.05,3.3.74,5.86,2.58,7.28,5.78.1.23.26.43.42.63.06.07.18.09.58.28.23-.99.51-1.91.65-2.86.41-2.66.62-2.87,3.28-2.87,3.27,0,6.54-.01,9.82,0,1.94,0,2.49.46,2.24,2.38-.54,4.19-1.23,8.36-1.9,12.53-1.41,8.85-2.89,17.69-4.25,26.55-.83,5.41-.86,5.51-6.24,5.51-2.56,0-5.11.02-7.67,0-1.58-.01-2.12-.61-1.99-2.19.09-1.15.25-2.3.38-3.45-.16-.1-.32-.19-.48-.29ZM436.69,96.55c-.03-5.24-3.74-9.53-8.89-10.28-6.24-.9-12.69,2.49-15.39,8.23-1.98,4.21-2.13,8.43.92,12.23,2.77,3.44,6.54,4.45,10.84,3.82,6.8-1,12.55-7.39,12.51-14Z"/>
  <path class="cls-3" d="M303.03,101.56c2.81-4.04,5.46-7.84,8.1-11.64,3-4.32,6.02-8.62,8.98-12.96,1.11-1.63,2.5-2.37,4.51-2.3,3.27.11,6.55-.03,9.82.09.92.03,2.42.41,2.59.96.28.89-.05,2.23-.61,3.07-2.5,3.79-5.17,7.47-7.78,11.19-10.73,15.29-21.49,30.56-32.17,45.88-1.28,1.84-2.75,2.66-4.98,2.59-3.58-.11-7.16.03-10.74-.08-.75-.02-1.79-.44-2.13-1.02-.28-.47.1-1.57.51-2.17,3.77-5.4,7.58-10.77,11.45-16.09.97-1.33,1.32-2.44.73-4.13-4.2-11.92-8.25-23.89-12.36-35.83-1.08-3.14-.22-4.4,3.11-4.4,3.07,0,6.14,0,9.21,0,2.87,0,3.69.64,4.51,3.32,2.37,7.74,4.77,15.48,7.25,23.53Z"/>
  <path class="cls-2" d="M464.56,121.92c-1.94,0-3.89.03-5.83-.01-1.44-.03-1.92-.65-1.69-2.06,2.41-14.99,4.82-29.97,7.22-44.96,1.14-7.14,2.29-14.29,3.37-21.44.24-1.57,1.15-2.24,2.59-2.26,3.73-.04,7.47-.04,11.2,0,1.69.02,2.21.61,1.94,2.32-.94,6.14-1.95,12.27-2.93,18.41-1.91,12.03-3.8,24.06-5.7,36.09-.62,3.93-1.23,7.85-1.86,11.78-.22,1.39-.96,2.18-2.48,2.15-1.94-.05-3.89-.01-5.83-.01Z"/>
  <g>
    <path class="cls-6" d="M31.03,31.71c.16-1,.44-2.52,1.88-3.85,1.43-1.33,3.87-1.68,5.55-1.68h35.38c5.24,0,16.4,1.23,22.32,6.52,5.92,5.28,9.96,14.52,3.25,33.18-6.71,18.66-23.66,22.79-32.01,22.79h-17.54s-1.58.2-2.37,1.58c-.79,1.38-1.53,3.21-1.88,5.23s-4.24,27.34-4.24,27.34c0,0-.05,1.68-.89,2.57-.84.89-2.07.79-3.26.79h-18.66s-1.43-.36-1.78-1.29-.21-2.35,0-4.07c.34-2.77,10.56-66.85,14.24-89.11Z"/>
    <path class="cls-1" d="M51.14,59.75c.25-2.07.81-4.27,2.07-5.53,1.42-1.42,3.06-1.48,8.49-1.38s23.35,0,26.36,0c8.23,0,16.36,1.8,19.96,6.44s5.76,12.63,2.16,24.08c0,0-2.93,10.48-10.27,16.47-5.47,4.46-11.29,6.08-14.05,6.53s-10.63.19-12.31.19-2.76-.29-4.11,1.05c-1.9,1.89-1.92,4.54-2.3,7.34-.52,3.73-2.46,17.08-2.65,18.46-.2,1.38-.46,3.53-1.2,4.43-.86,1.04-2.91,1-3.95,1s-13.37-.03-17.29-.03c-3.62,0-2.57-3.67-2.36-5.3.21-1.62,11.45-73.74,11.45-73.74Z"/>
    <path class="cls-5" d="M88.06,52.84c-3.01,0-20.93.1-26.36,0-5.43-.1-7.07-.04-8.49,1.38-1.26,1.26-1.83,3.45-2.07,5.53,0,0-6.96,44.69-10.03,64.5.24-.73.26-1.43.26-1.43,0,0,3.9-25.32,4.24-27.34.35-2.02,1.09-3.85,1.88-5.23.79-1.38,2.37-1.58,2.37-1.58h17.54c8.34,0,25.29-4.14,32.01-22.79,1.43-3.97,2.36-7.5,2.91-10.67-3.99-1.66-9.1-2.37-14.25-2.37Z"/>
  </g>
</svg>