<?xml version="1.0" encoding="UTF-8"?>
<svg id="Layer_1" data-name="Layer 1" xmlns="http://www.w3.org/2000/svg" version="1.1" viewBox="0 0 500 165">
  <defs>
    <style>
      .cls-1 {
        fill: #644b9e;
        stroke-width: 0px;
      }
    </style>
  </defs>
  <path class="cls-1" d="M169.62,134.94h-3.21c-9.42,0-18.85,0-28.28,0-.58,0-1.16-.02-1.74,0-1.74.06-1.79.07-1.8,1.84-.03,4.79-.01,9.57-.01,14.36,0,.66.02,1.32,0,1.98-.06,1.56-.07,1.61-1.73,1.62-5.7.02-11.41.02-17.11,0-1.82,0-1.85-.05-1.86-1.99-.02-5.12,0-10.23,0-15.35,0-2.45-.02-2.46-2.42-2.47-8.6,0-17.2,0-25.79,0-.58,0-1.16.01-1.74,0-1.85-.05-1.88-.05-1.94-1.97-.13-4.45-.21-8.9-.36-13.35-.04-1.22.27-2.2,1.04-3.18,16.47-21.07,32.92-42.16,49.37-63.25.7-.89,1.37-1.8,2.26-2.98-.87-.13-1.4-.27-1.93-.27-3.22-.02-6.45-.04-9.67,0-5.7.07-11.4.22-17.1.27-6.2.05-12.4.04-18.6.05-2.54,0-2.38.12-2.38-2.47,0-4.7,0-9.41,0-14.11,0-2.75-.3-2.74,2.65-2.74,7.77-.01,15.54-.03,23.31-.04,3.82,0,3.29.12,3.3-3.37.02-5.12,0-10.23.01-15.35,0-1.87.04-1.9,1.93-1.91,5.62-.02,11.24-.02,16.87,0,1.86,0,1.89.04,1.9,1.95.02,5.36,0,10.73.01,16.09,0,2.27.03,2.29,2.34,2.29,8.35,0,16.7-.02,25.05-.03.58,0,1.16-.02,1.74,0,1.56.06,1.57.07,1.62,1.73.02.82,0,1.65,0,2.48,0,3.38-.06,6.77.03,10.15.04,1.49-.36,2.68-1.28,3.86-6.48,8.24-12.9,16.53-19.35,24.79-10.05,12.89-20.1,25.78-30.15,38.67-.4.51-.74,1.06-1.37,1.96,1.22.03,2.07.06,2.93.06,12.57,0,25.13.04,37.7-.04,1.9-.01,2.92.43,3.68,2.33,2.44,6.1,5.88,11.62,10.43,16.41.44.47.83.99,1.64,1.97Z"/>
  <path class="cls-1" d="M185.93,100.23c.63,3.04,2.07,5.3,3.85,7.36,3.55,4.09,8.2,6.14,13.48,6.54,6.48.49,12.87-.28,19.04-2.44,2.35-.82,4.63-1.84,6.35-3.72.75-.81,1.32-.68,2.08-.02,3.98,3.48,8,6.91,11.97,10.39,1.3,1.14,1.3,1.21.25,2.59-3,3.93-6.76,7-11.09,9.36-9.88,5.41-20.48,7.84-31.72,7.08-5.77-.39-11.11-2.39-16.13-5.24-7.95-4.52-14.27-10.67-18.46-18.83-2.29-4.45-3.28-9.24-3.73-14.25-.57-6.26-.05-12.36,1.67-18.35,1.99-6.89,5.08-13.22,10.09-18.51,3.94-4.17,8.75-7.02,13.96-9.21,5.84-2.46,11.97-3.79,18.34-3.56,7.97.29,15.52,2.27,22.41,6.34,4.49,2.65,7.93,6.44,10.79,10.75,5.77,8.69,8.8,18.2,8.59,28.68-.02.82-.12,1.64-.26,2.45-.37,2.26-.39,2.27-2.55,2.29-11.82.09-23.64.18-35.46.25-6.94.04-13.89.03-20.84.05-.81,0-1.61,0-2.67,0ZM203.82,82.07c4.79,0,9.58,0,14.38,0,4,0,3.57.21,2.58-3.48-1.33-4.94-4.28-8.56-9.46-9.83-5.7-1.4-11.37-1.22-16.65,1.5-4.05,2.08-6.87,5.36-7.91,9.94-.39,1.73-.3,1.86,1.44,1.87,5.21.02,10.41,0,15.62,0Z"/>
  <path class="cls-1" d="M356.64,100.35c.59,2.91,2.03,5.16,3.8,7.21,3.54,4.1,8.19,6.17,13.46,6.56,6.65.49,13.2-.29,19.51-2.59,2.19-.8,4.29-1.79,5.9-3.52.71-.76,1.28-.81,2.08-.1,3.97,3.49,7.99,6.92,11.97,10.4,1.35,1.18,1.35,1.26.16,2.79-2.98,3.83-6.68,6.85-10.93,9.18-9.88,5.41-20.47,7.85-31.72,7.11-5.77-.38-11.12-2.38-16.13-5.23-7.86-4.48-14.18-10.52-18.36-18.6-2.34-4.52-3.42-9.36-3.87-14.46-.66-7.46.19-14.65,2.71-21.65,1.88-5.23,4.44-10.1,8.17-14.31,4.15-4.69,9.34-7.86,15.03-10.22,5.77-2.4,11.83-3.7,18.11-3.48,7.97.29,15.52,2.26,22.42,6.32,4.49,2.65,7.93,6.43,10.8,10.74,5.79,8.68,8.82,18.2,8.61,28.67-.02.98-.17,1.97-.34,2.94-.3,1.79-.32,1.82-2.18,1.83-4.46.02-8.93-.01-13.39.01-14.63.09-29.26.19-43.89.29-.56,0-1.13.06-1.93.11ZM357.25,82.07h2.79c9.67,0,19.33,0,29,0,3.9,0,3.38.06,2.45-3.39-1.22-4.51-3.7-8.12-8.45-9.58-6.26-1.92-12.48-1.72-18.24,1.48-4.28,2.37-7.11,6.04-7.55,11.49Z"/>
  <path class="cls-1" d="M298.54,90.66c0-9.82-.04-19.63,0-29.45.06-12.7.19-25.4.29-38.1,0-.33.02-.66,0-.99-.06-1.06.44-1.46,1.48-1.45,2.81.05,5.62,0,8.43.06,2.81.06,5.61.23,8.41.27,1.16.02,1.66.44,1.61,1.61-.05,1.15,0,2.31,0,3.46.19,17.32.37,34.63.57,51.95.13,11.63.28,23.25.42,34.88,0,.41.01.83.03,1.24.11,1.85.19,1.95,2,2.05,1.81.1,3.63.18,5.44.23,1.4.04,2.21.61,2.64,2.05,1.05,3.51,2.95,6.6,5.03,9.6.79,1.15,1.46,2.39,2.14,3.6.39.69.2,1.19-.54,1.6-5.49,3.04-11.2,5.35-17.62,5.09-9-.36-15.34-4.9-19.45-12.76-.74-1.41-1.03-2.9-1.02-4.52.05-10.15.02-20.29.02-30.44.03,0,.05,0,.08,0Z"/>
  <path class="cls-1" d="M255.87,90.84c0-9.82-.04-19.64,0-29.45.06-12.78.19-25.57.29-38.35.02-2.32.03-2.37,2.31-2.34,5.2.08,10.4.19,15.61.33,2.04.05,2.07.09,2.09,2.12.16,12.45.31,24.9.45,37.36.19,16.16.36,32.33.55,48.5.02,1.73.17,3.45.24,5.18.08,1.9.09,1.93,1.94,2.04,2.06.12,4.12.26,6.18.37.9.05,1.28.48,1.4,1.37.67,4.88,2.4,9.4,4.77,13.7,1.07,1.94,1.06,2.06-.86,2.93-2.48,1.11-4.96,2.37-7.57,3-10.14,2.47-19.34-.84-25.1-9.41-1.64-2.44-2.48-5.07-2.44-8.12.14-9.73.05-19.47.05-29.21.03,0,.05,0,.08,0Z"/>
</svg>