<?xml version="1.0" encoding="UTF-8"?>
<svg id="Layer_1" data-name="Layer 1" xmlns="http://www.w3.org/2000/svg" version="1.1" viewBox="0 0 500 165">
  <defs>
    <style>
      .cls-1 {
        fill: #000;
        stroke-width: 0px;
      }
    </style>
  </defs>
  <path class="cls-1" d="M117.8,98.81h-11.72v-50.2h11.69c.07,2.18,0,4.37.05,6.75.35-.31.6-.49.8-.71,1.87-1.99,3.96-3.69,6.34-5.06,7.8-4.48,17.29-2.3,22.49,5.14.26.37.51.76.83,1.22.22-.21.44-.38.6-.58,3.49-4.43,7.96-7.2,13.58-7.92,3.6-.46,7.18-.18,10.58,1.21,4.39,1.78,7.1,5.11,8.63,9.51,1.03,2.95,1.42,6.01,1.43,9.11.04,10.1.02,20.21.01,30.31,0,.37-.04.73-.06,1.08-.97.25-9.48.34-11.7.11-.03-.45-.08-.93-.08-1.41,0-8.6,0-17.2,0-25.8,0-2.34-.13-4.67-.8-6.94-1.34-4.51-4.34-6.78-9.02-6.8-5.34-.02-8.94,2.71-10.33,7.88-.5,1.86-.7,3.77-.7,5.7,0,8.6,0,17.2,0,25.8v1.57h-11.79v-1.55c0-8.85,0-17.7,0-26.56,0-2.01-.16-4-.76-5.93-1.18-3.8-3.59-6.31-7.64-6.82-4.09-.52-7.63.62-10.08,4.16-1.62,2.33-2.29,4.99-2.35,7.8-.05,1.92-.01,3.84-.01,5.76,0,7.22,0,14.45,0,21.67v1.48Z"/>
  <path class="cls-1" d="M289.43,91.64v27.26h-11.61c-.24-.92-.32-68.43-.08-70.29h11.68v7.21c.07.03.15.05.22.08.24-.26.48-.51.71-.78,3.24-3.8,7.17-6.56,12.12-7.46,8.65-1.58,17.54,1.45,22.88,9.89,2.57,4.06,3.96,8.52,4.42,13.29.49,5.03-.02,9.94-2.02,14.59-3.56,8.27-9.93,13-18.8,14.28-7.24,1.04-13.15-1.64-18.07-6.84-.41-.44-.81-.89-1.22-1.33-.08.03-.16.06-.24.1ZM317.95,74.1c-.01-3.15-.6-5.93-1.75-8.3-2.09-4.29-5.32-7.26-10.11-8.16-5.8-1.09-10.42,1-13.84,5.7-2.94,4.04-3.93,8.61-3.05,13.52.66,3.72,2.33,6.94,5.18,9.48,6.04,5.38,16.06,4.75,20.87-2.92,1.87-2.98,2.65-6.26,2.71-9.32Z"/>
  <path class="cls-1" d="M387.29,98.81h-11.67v-7.44c-.4.38-.63.57-.82.79-3.14,3.63-6.93,6.25-11.67,7.31-4.96,1.12-9.72.3-14.25-1.84-7.08-3.36-11.34-9.04-13-16.62-1.71-7.83-.78-15.37,3.18-22.4,2.9-5.16,7.13-8.85,12.9-10.42,8.99-2.44,16.63-.12,22.75,6.99.21.25.42.5.82.96.11-2.62,0-5.01.07-7.37.94-.28,9.99-.36,11.69-.1v50.15ZM376.1,75.42c0-5.62-1.13-9.12-3.36-12.2-5.75-7.96-17.16-7.88-22.55.33-4.11,6.26-4.26,12.92-.62,19.42,4.58,8.15,14.78,8.77,20.8,3.61,3.96-3.39,5.65-7.82,5.73-11.15Z"/>
  <path class="cls-1" d="M490,77.96h-37.12c-.11,1.43.22,2.66.76,3.83,2.06,4.54,5.64,7.28,10.42,8.38,5.4,1.24,10.13-.35,14.32-3.79.83-.68,1.6-1.45,2.46-2.24,2.35,2.24,4.66,4.45,7.04,6.72-.25.29-.44.55-.66.78-3.19,3.2-6.73,5.88-11.17,7.1-6.75,1.86-13.47,1.74-20-.9-6.37-2.57-10.83-7.19-13.19-13.61-3.48-9.47-2.58-18.59,3.15-26.96,4.26-6.23,10.4-9.45,17.93-9.98,4.36-.3,8.58.3,12.55,2.2,6.34,3.03,10.21,8.15,12.25,14.75.88,2.85,1.29,5.77,1.26,8.76-.01,1.58,0,3.16,0,4.95ZM478.56,70.26c-.05-.69-.03-1.27-.14-1.83-.55-2.8-1.77-5.28-3.68-7.41-4.07-4.52-10.48-5.5-15.43-2.29-3.54,2.3-5.55,5.67-6.38,9.77-.11.55-.13,1.12-.19,1.76h25.82Z"/>
  <path class="cls-1" d="M184.73,48.59h12.78c4.11,11.31,8.22,22.64,12.34,33.98h.28c3.49-11.3,6.87-22.64,10.36-33.97h12.48c-7.58,23.5-15.13,46.89-22.69,70.31h-11.84c.1-.42.17-.81.29-1.18,1.9-5.91,3.8-11.83,5.74-17.72.32-.97.29-1.8-.1-2.75-6.36-15.68-12.69-31.38-19.03-47.08-.2-.49-.38-.99-.61-1.59Z"/>
  <path class="cls-1" d="M232.63,93.31c1.7-3.23,3.36-6.39,5.07-9.62.73.47,1.34.88,1.97,1.27,3.49,2.18,7.16,3.94,11.27,4.59,1.91.3,3.83.32,5.72-.12,1.71-.4,3.16-1.22,3.62-3.06.49-1.98.05-3.77-1.62-5.05-.85-.65-1.79-1.25-2.79-1.63-2.06-.78-4.2-1.37-6.28-2.08-2.36-.81-4.74-1.6-7.06-2.51-1.67-.66-3.17-1.67-4.49-2.91-3.16-2.97-4.24-6.74-3.85-10.92.48-5.15,3.4-8.77,7.71-11.35,3.61-2.17,7.6-2.93,11.77-2.73,5.68.28,10.97,1.96,15.88,4.82.39.22.75.48,1.22.79-1.77,3.09-3.48,6.08-5.26,9.21-.44-.27-.81-.49-1.18-.73-2.79-1.82-5.78-3.15-9.06-3.78-1.85-.36-3.72-.56-5.59-.13-.76.17-1.54.42-2.22.79-2.28,1.27-2.86,4.97-.46,6.67,1.18.83,2.49,1.54,3.84,2.06,2.84,1.09,5.75,1.99,8.61,3.01,2.56.91,5.03,2.02,7.24,3.63,2.7,1.98,4.58,4.53,5.1,7.88,1.05,6.8-1.91,13.15-8.64,16.32-2.56,1.2-5.26,1.86-8.08,2.01-7.84.43-15-1.74-21.65-5.79-.27-.17-.51-.39-.82-.62Z"/>
  <path class="cls-1" d="M439.79,56.16c-2.55,2.64-5.04,5.21-7.59,7.86-.32-.33-.57-.59-.81-.86-2.26-2.58-4.96-4.47-8.32-5.28-6.03-1.46-10.95.52-14.8,5.2-5.17,6.29-4.89,15.94.57,22,2.61,2.9,5.88,4.44,9.78,4.65,5.23.27,9.63-1.55,13.31-5.23.26-.26.48-.57.78-.94,2.39,2.52,4.68,4.94,7.08,7.47-.27.28-.73.8-1.24,1.26-4.17,3.72-8.92,6.29-14.45,7.26-13.45,2.36-27.27-5.39-30.31-19.59-2.27-10.62.59-19.86,8.91-27.08,4.07-3.52,8.99-5.16,14.33-5.57,6.32-.49,12.18.86,17.52,4.31,1.9,1.23,3.63,2.65,5.22,4.53Z"/>
  <path class="cls-1" d="M96.05,60.15c-.01,7.74-6.22,13.98-13.88,13.97-7.7,0-13.93-6.34-13.9-14.11.04-7.68,6.31-13.93,13.98-13.91,7.65.02,13.82,6.29,13.81,14.05Z"/>
  <path class="cls-1" d="M82.23,98.88c-4.17,0-8.35,0-12.52,0-.42,0-.84,0-1.25-.06-.87-.14-1.31-.53-1.32-1.41-.04-3.13-.31-6.27.39-9.36,1.4-6.21,6.85-10.97,13.17-11.71,8.09-.94,15.42,4.87,16.54,12.97.36,2.63.22,5.33.24,8,0,.96-.51,1.42-1.48,1.54-.37.05-.75.03-1.13.03-4.22,0-8.43,0-12.65,0Z"/>
  <path class="cls-1" d="M63.54,64.2c-.03,7.01-5.67,12.64-12.66,12.64-7,0-12.7-5.76-12.66-12.79.03-6.93,5.87-12.68,12.76-12.57,7.07.11,12.6,5.71,12.57,12.73Z"/>
  <path class="cls-1" d="M50.91,98.88c-3.71,0-7.42,0-11.13,0-.41,0-.84,0-1.24-.09-.75-.16-1.14-.53-1.14-1.28,0-2.62-.26-5.26.27-7.86,1.2-5.9,6.17-10.44,11.98-10.96,6-.54,11.47,2.82,13.83,8.47.72,1.72,1.09,3.5,1.13,5.35.03,1.5.03,3,0,4.5-.02,1.34-.47,1.81-1.81,1.86-1.46.05-2.92.01-4.38.01-2.5,0-5,0-7.51,0Z"/>
  <path class="cls-1" d="M11.25,67.31c.16-6.46,5.29-11.32,11.8-11.18,6.11.13,11.01,5.42,10.86,11.73-.14,6.11-5.37,11.05-11.54,10.93-6.05-.12-11.14-4.96-11.13-11.48Z"/>
  <path class="cls-1" d="M22.46,98.88c-3.34,0-6.68,0-10.01,0-.45,0-.92-.04-1.36-.13-.58-.13-.99-.52-.99-1.13.02-2.5-.37-5.03.33-7.48,1.36-4.8,4.29-8.21,9.24-9.45,6.12-1.53,12.34,1.96,14.45,8.03.46,1.32.63,2.76.77,4.16.13,1.32.05,2.67.04,4-.02,1.47-.48,1.97-1.94,1.99-1.79.03-3.59,0-5.38,0-1.71,0-3.42,0-5.13,0Z"/>
</svg>