<?xml version="1.0" encoding="UTF-8"?>
<svg id="Layer_1" data-name="Layer 1" xmlns="http://www.w3.org/2000/svg" version="1.1" xmlns:xlink="http://www.w3.org/1999/xlink" viewBox="0 0 500 165">
  <defs>
    <style>
      .cls-1 {
        fill: #fafafb;
      }

      .cls-1, .cls-2, .cls-3, .cls-4, .cls-5, .cls-6, .cls-7, .cls-8 {
        stroke-width: 0px;
      }

      .cls-2 {
        fill: url(#linear-gradient);
      }

      .cls-3 {
        fill: #000;
      }

      .cls-4 {
        fill: #f0f5f7;
      }

      .cls-5 {
        fill: #f4f6f9;
      }

      .cls-6 {
        fill: #c8dae9;
      }

      .cls-7 {
        fill: #a9c8dd;
      }

      .cls-8 {
        fill: #fff;
      }
    </style>
    <linearGradient id="linear-gradient" x1="28.74" y1="127.19" x2="118.82" y2="37.11" gradientUnits="userSpaceOnUse">
      <stop offset="0" stop-color="#1f96c8"/>
      <stop offset="1" stop-color="#38acde"/>
    </linearGradient>
  </defs>
  <g>
    <path class="cls-3" d="M186.6,56.23c-.2.25-.11.55-.11.82,0,14.75,0,29.5,0,44.25,0,.22.02.44.04.66-.11.22-.32.16-.5.16-3.43,0-6.87,0-10.3,0-.18,0-.38.05-.52-.14,0-.31.02-.63.02-.94,0-14.6,0-29.19,0-43.79,0-.34.1-.69-.09-1.02-.32-.19-.68-.09-1.02-.09-4.79,0-9.58,0-14.37,0-.34,0-.69.09-1.02-.09v-9.27c.3-.17.62-.09.93-.09,14.06,0,28.12,0,42.19,0q1.08,0,1.08,1.05c0,2.49-.03,4.98.02,7.47.01.74-.18.96-.94.95-4.79-.04-9.58-.02-14.38-.01-.34,0-.69-.1-1.02.09Z"/>
    <path class="cls-3" d="M490,73.46c-.03.06-.03.12,0,.18,0,.25,0,.5,0,.76v1.14c0,.31-.03.63-.03.94,0,8.52,0,17.03-.01,25.55-3.34.01-6.68.02-10.02.04-.31,0-.47-.08-.45-.43.02-.22,0-.44,0-.66,0-7.09,0-14.18,0-21.26,0-.66.06-1.32-.09-1.97.07-.55.01-1.09-.06-1.64-.18-.44.05-.93-.15-1.37.05-.18.02-.35-.04-.52-.15-.24.03-.54-.16-.78.04-.06.03-.12-.02-.17-.14-.18-.02-.43-.16-.6.03-.06.02-.11-.03-.15-.09-.12-.07-.28-.15-.4h0c-.24-.18-.26-.49-.39-.75h0c-.08-.05-.16-.11-.17-.22h.01c-.25-.25-.53-.49-.76-.77l-.03.04.04-.03c-.12,0-.18-.07-.23-.17h0c-.09-.02-.15-.1-.22-.15h-.02c-.09-.13-.26-.09-.36-.2h0c-.1-.11-.27-.07-.38-.18l-.05-.05-.07.02c-.15-.05-.32-.06-.45-.15l-.07-.05-.08.02c-.37-.2-.8.04-1.17-.16-.19-.07-.38-.07-.57,0-.43.22-.92-.05-1.35.17l-.09-.02-.08.05c-.14.09-.31.1-.47.15l-.06-.02-.04.05c-.11.11-.28.09-.41.16h0c-.09.15-.26.13-.4.17l.03.03-.03-.04c-.07.18-.25.14-.38.2h0c-.07.16-.26.12-.37.21h0c-.07.13-.27.07-.34.21h-.03c-.07.06-.14.12-.2.17h0c-.06.08-.12.15-.22.17h.01c-.03.09-.1.17-.21.18h.01c-.02.11-.08.18-.21.18l.04.03-.03-.04c0,.13-.07.19-.2.2h0c0,.12-.07.18-.19.2h.01c-.01.1-.09.16-.18.21h.01c-.03.08-.1.14-.17.2h0c-.06.06-.11.12-.15.19-.06.02-.08.05-.06.12-.01.12-.08.19-.17.26h0c-.11.1-.07.29-.21.37h0c-.08.11-.05.29-.2.38h0c-.08.11-.05.28-.18.39h0c-.1.11-.07.27-.16.38-.06.03-.07.08-.04.13-.07.14-.06.31-.15.43-.06.04-.07.09-.03.14-.08.13-.07.29-.14.42-.02.11-.03.22-.05.33-.12.19-.03.43-.15.62-.01.12-.02.23-.04.35-.19.3.01.67-.16.98-.06.22-.12.43-.04.65-.2.53.03,1.09-.15,1.62-.03,1.04-.1,2.07-.1,3.11,0,6.07,0,12.13,0,18.2,0,.25.04.5.05.75-.08.25-.3.18-.47.18-3.28,0-6.57,0-9.85,0-.16,0-.31,0-.43-.13,0-7.94,0-15.88,0-23.82,0-.12-.03-.25-.04-.37-.2-.84.06-1.7-.15-2.54.06-.23.02-.45-.04-.68-.16-.32.02-.69-.15-1.01-.01-.11-.03-.21-.04-.32-.13-.18,0-.42-.16-.59.03-.06.02-.12-.04-.17-.08-.12-.05-.28-.16-.38h0c-.12-.1-.09-.27-.18-.39h0c-.13-.08-.09-.26-.2-.36h0c-.07-.07-.15-.12-.15-.23h.01c-.17-.03-.12-.24-.25-.31h0c-.05-.08-.11-.14-.17-.2h0c-.06-.07-.12-.13-.19-.19h0c-.06-.07-.12-.12-.19-.17l-.02-.02c-.07-.14-.27-.08-.33-.23h0c-.12-.07-.31-.03-.37-.21l-.03.04.04-.03c-.14-.04-.31-.02-.4-.17h0c-.17-.13-.42,0-.58-.17h0c-.42-.24-.91.05-1.33-.18-.19-.06-.38-.07-.57,0-.46.21-.97-.03-1.43.16l-.05-.03-.04.04c-.19.17-.46.07-.67.17l-.06-.02-.04.05c-.13.11-.3.1-.45.16h-.07s-.05.04-.05.04c-.11.1-.28.06-.37.17h0c-.1.11-.27.07-.37.19h-.01c-.07.07-.13.15-.23.15h0c-.05.17-.25.12-.36.22h0c-.06.08-.11.16-.23.16h.01c-.04.17-.25.11-.33.23h-.02c-.07.07-.13.12-.19.18h0c-.06.07-.12.13-.19.19h0c-.05.07-.12.13-.19.19h0c-.06.07-.12.13-.18.19h0c-.06.06-.12.13-.16.2l-.02.02c-.14.07-.08.28-.24.33v-.02c0,.1-.08.16-.15.23h0c-.12.1-.07.29-.22.37h0c-.08.11-.04.3-.21.37v-.02c.01.1-.07.15-.11.23-.06.03-.08.08-.05.14-.08.14-.05.31-.18.43h0c-.1.1-.07.26-.16.38-.05.05-.07.1-.03.17-.15.17-.02.42-.17.59-.05.04-.06.09-.02.15-.14.18-.03.42-.15.6-.06.15-.1.31-.05.47-.13.27-.02.58-.14.85-.06.23-.1.45-.05.69-.2.58.04,1.19-.15,1.77-.03.94-.08,1.88-.09,2.83,0,6.26,0,12.52,0,18.78,0,.22.03.44.04.66-.1.24-.31.17-.49.17-3.25,0-6.49,0-9.74,0-.18,0-.38.05-.52-.13,0-.35.02-.69.02-1.04,0-12.61,0-25.22,0-37.83,0-1.3-.16-1.17,1.15-1.17,2.87,0,5.74-.01,8.61-.02.32.93.08,1.89.14,2.83.04.56,0,1.12,0,1.68,0,.21-.03.46.32.43h0c.02-.1.1-.17.19-.21h-.01c.04-.08.11-.14.19-.19h-.01c.05-.08.11-.14.19-.19h0c.05-.07.12-.13.19-.19h0c.06-.07.12-.13.19-.19h0c.06-.06.12-.13.19-.19h0c.06-.07.12-.13.2-.19h0c.06-.07.12-.14.2-.19h0c.05-.07.12-.14.2-.18h-.01c.05-.08.11-.15.21-.18h-.01c.04-.09.1-.16.22-.18l-.02.02c.03-.13.12-.2.25-.21.06.01.09,0,.1-.07.07-.04.13-.09.18-.15h0c.07-.06.13-.13.21-.18h-.01c.06-.08.13-.15.24-.18.07.01.11-.01.14-.08.07-.03.13-.07.18-.14h0c.07-.06.13-.14.22-.17h-.01c.07-.13.27-.08.35-.21h.01c.08-.06.15-.13.24-.17.07.02.12,0,.15-.07.07-.03.14-.08.19-.13h0c.09-.11.28-.07.36-.2h.01c.08-.07.15-.14.26-.16.06.02.1,0,.12-.05.08-.06.15-.12.25-.14.06.03.1.01.13-.04.08-.06.16-.13.27-.14.05.03.09.01.11-.04.11-.1.28-.06.39-.17.06-.01.12-.03.18-.04.08-.04.15-.11.24-.13.06.03.1.02.14-.04.12-.1.29-.08.42-.16.06.03.11.02.15-.03.13-.09.3-.09.44-.15.1-.02.21-.03.31-.05.14-.07.3-.08.44-.14l.51-.06c.15-.05.31-.09.47-.13.29-.02.57-.04.86-.06,1.01-.1,2.02-.09,3.02,0,.3.02.6.03.9.05.19.13.42.03.61.14.12.01.24.02.36.04.16.16.41.03.58.16.05.05.11.06.17.03.11.1.27.07.4.15.06.01.12.02.19.03.1.11.27.08.38.16.05.05.1.06.17.04.12.1.29.07.4.17l.04.05h.06c.11-.01.19.06.28.13.03.06.07.07.12.04.1.02.18.08.26.15.02.06.06.07.11.05.11,0,.19.08.27.16h0c.09.12.28.08.36.22h-.01c.07.04.14.09.21.14l.04.06h.07c.13,0,.21.08.26.18h-.01c.09.02.14.1.22.16h0c.05.07.1.12.18.15.01.06.05.09.12.08.12.02.2.08.25.2h-.02c.1.01.17.08.21.17h-.01c.09.03.15.1.21.18h0c.08.04.14.11.2.18h0c.07.05.14.12.19.19h0c.07.05.14.12.19.19h0c.08.05.15.11.19.2h-.01c.09.04.16.1.19.2l-.02-.02c.12.04.18.12.2.25-.01.07.01.1.08.12.03.07.08.13.14.17h0c.05.09.12.14.17.22h0c.09.05.16.13.18.24-.02.06,0,.11.07.13.04.07.08.13.14.19h0c.07.07.14.14.17.25-.02.06,0,.11.06.13.04.07.09.14.14.2h0c.14.16.28.07.42,0h-.01c.03-.09.1-.15.19-.2h0c.05-.07.12-.13.18-.2h0c.06-.06.13-.12.18-.19h0c.07-.06.13-.12.18-.19h0c.07-.06.13-.12.17-.19l.02-.02c.07-.04.13-.1.17-.17l.02-.02c.07-.04.13-.1.17-.17l.02-.02c.07-.04.13-.1.18-.17h.02c.07-.06.13-.12.18-.19h.01c.07-.06.13-.12.19-.19h0c.07-.06.13-.13.2-.18h0c.06-.07.12-.14.21-.18h-.01c.05-.08.12-.15.21-.18h-.02c.04-.1.13-.16.25-.18.07.01.11-.01.12-.08.07-.03.13-.08.17-.14h.01c.08-.06.13-.13.21-.18h0c.06-.08.14-.15.24-.18.07.02.11,0,.14-.07.07-.03.13-.08.18-.14h0c.07-.07.14-.13.23-.17.07.01.12,0,.15-.07.07-.03.13-.07.18-.13h0c.07-.07.15-.14.25-.17.06.02.11,0,.13-.06.07-.05.15-.09.22-.14.07.02.12,0,.16-.06.07-.03.14-.08.19-.13h0c.1-.12.28-.08.38-.19h0c.1-.12.28-.08.39-.19l.18-.05c.08-.04.15-.08.22-.13.06.02.11.01.15-.04.08-.06.16-.13.27-.13l.3-.07c.09-.03.15-.11.25-.12.05.03.1.02.13-.03.14-.1.3-.1.46-.15.1-.02.2-.04.3-.05.13-.08.29-.07.43-.14.17-.02.34-.04.51-.06.15-.06.3-.07.45-.13.29-.02.58-.04.88-.06,1.07-.09,2.14-.1,3.21,0,.29.02.57.04.86.05.16.04.31.07.47.13l.53.05c.13.08.28.07.41.14.12.02.23.03.35.05.12.09.28.07.41.15.06.01.13.02.19.03.1.12.26.08.38.16.06.01.12.02.18.04.11.11.28.07.39.17.03.05.08.07.13.04.1.02.16.09.25.13.04.05.09.07.16.05.07.05.15.09.22.13.04.06.09.07.16.05.07.05.15.09.22.14.03.06.08.08.15.06.09.03.16.09.23.15.02.06.05.07.11.05.12,0,.2.08.27.17h0c.06.05.12.1.2.14.02.06.07.08.13.07.11.02.19.09.25.18h0c.08.04.13.11.21.16h.02c.04.08.09.12.16.15.02.07.06.1.13.08.11.02.19.09.24.2h-.02c.1.02.16.09.21.18h-.01c.09.03.15.1.2.18h0c.08.04.15.11.2.19h0c.08.04.15.11.19.19h-.01c.09.04.16.1.19.2h-.01c.1.03.17.09.19.2l-.02-.02c.13.04.19.12.21.26-.02.06,0,.09.07.1.04.07.09.13.15.18h0c.06.07.14.13.17.22v-.02c.14.07.08.27.22.35h0c.05.09.13.14.16.24v-.02c.14.08.1.27.21.37h0c.12.09.07.27.2.36h0c.07.09.15.17.15.29v.06s.04.04.04.04c.1.11.06.28.18.37h0c.11.12.08.29.18.41-.03.07-.01.12.04.16.08.12.05.28.15.39-.03.07-.02.12.03.17.07.14.08.3.14.44.02.11.03.21.05.32.12.18.01.42.15.6.01.11.02.23.04.34.14.26,0,.57.14.83.02.6.04,1.21.06,1.81Z"/>
    <path class="cls-3" d="M370.18,75.72c-.01.06-.02.12-.04.18-.17.16-.02.41-.17.58-.05.04-.06.1-.03.15-.14.18-.03.42-.15.6-.06.15-.1.3-.05.47-.12.27-.02.59-.14.86-.06.22-.1.44-.05.66-.18.46.03.96-.15,1.42-.06.29-.11.58-.04.88-.22.9.05,1.82-.15,2.71-.05,1.6-.18,3.21-.03,4.82-.14.33-.08.68-.08,1.03,0,3.72-.02,7.44.01,11.16,0,.71-.18.91-.89.9-3-.04-5.99-.01-8.99-.02-.27,0-.57.1-.81-.12,0-9.8,0-19.59,0-29.39,0-3.24,0-6.49,0-9.73,0-.96-.09-.94.9-.94,2.96,0,5.92-.01,8.88-.02.12.06.19.15.21.29-.13,1.6-.11,3.21,0,4.81.07.1.15.18.24.01h0c.05-.06.1-.13.15-.2.06-.02.08-.05.06-.11.01-.12.08-.2.18-.26h0c.04-.07.12-.12.16-.2v-.02c.15-.07.1-.27.24-.34h-.01c.03-.08.11-.13.17-.21h0c.06-.05.11-.11.14-.18.07-.02.09-.06.08-.13.02-.11.09-.19.19-.25h0c.04-.07.12-.13.17-.2h0c.06-.05.11-.11.15-.18.06,0,.09-.04.07-.1,0-.13.08-.22.2-.26l-.02.02c.02-.11.1-.17.19-.22h-.01c.04-.08.11-.14.19-.2h0c.05-.07.12-.13.19-.2h0c.06-.06.13-.12.18-.19h0c.06-.06.13-.12.19-.19h0c.07-.06.13-.12.19-.19h0c.07-.06.13-.13.2-.19h0c.06-.07.12-.14.21-.18h-.01c.05-.08.11-.15.22-.18h-.02c.05-.14.26-.08.33-.22h.02c.08-.05.14-.13.22-.17h-.01c.08-.13.27-.08.36-.2h0c.08-.07.16-.15.27-.16.05.03.09.01.11-.04.08-.07.16-.14.28-.15h.06s.04-.04.04-.04c.11-.11.29-.08.41-.17.06.02.12.01.16-.04.12-.08.28-.06.4-.15.12-.02.24-.03.36-.05.13-.06.28-.05.41-.14l.54-.04c.88-.1,1.76-.1,2.64,0,.24.02.48.03.72.05.18.13.42.03.61.15.11.01.22.03.33.04.14.07.3.06.43.14.1.02.19.04.29.06.11,0,.19.07.28.12.1.02.2.04.3.07.11,0,.19.08.27.13.05.05.11.06.17.04.11.1.28.07.4.17.02.06.06.07.11.04.11,0,.18.08.27.14.03.05.08.07.14.04.1.02.16.09.24.14.03.05.08.07.14.05.09.02.16.09.24.14.03.06.07.07.13.05.1.02.18.09.26.15h.01c.26.21.37.45.17.76h0c-.11.1-.08.26-.15.38-.05.05-.07.1-.04.17-.1.12-.07.28-.16.4-.05.04-.07.09-.04.15-.09.13-.06.29-.16.42-.06.03-.07.08-.04.14-.07.14-.06.31-.16.43l-.05.05.02.07c-.05.15-.06.32-.16.46h0c-.11.1-.08.26-.15.38-.01.06-.03.12-.04.18-.1.11-.07.27-.16.39-.05.04-.07.1-.04.16-.09.12-.07.29-.16.41-.06.04-.07.08-.04.14-.08.13-.06.3-.16.43-.06.03-.07.07-.04.12-.06.15-.05.32-.16.45l-.05.04.02.06c-.04.16-.05.33-.17.47h0c-.1.1-.08.26-.15.38-.05.05-.07.1-.04.17-.1.12-.07.28-.16.4-.06.04-.07.09-.04.15-.08.13-.06.29-.16.42-.06.03-.07.08-.04.13-.07.14-.06.31-.16.44l-.05.04.02.06c-.05.15-.05.33-.17.46h0c-.1.09-.14.32-.36.17h0c-.11-.09-.3-.04-.36-.22h.01c-.11.01-.16-.08-.23-.13h-.02c-.09-.13-.27-.09-.36-.2h0c-.1-.11-.27-.08-.37-.19h0c-.1-.11-.27-.07-.38-.18l-.04-.05-.06.02c-.16-.05-.34-.05-.46-.18h0c-.16-.15-.42,0-.57-.18h0c-.23-.19-.55.02-.77-.18l-.05-.05-.06.03c-.74-.12-1.48-.12-2.21,0l-.07-.03-.06.05c-.19.15-.45.06-.65.16l-.06-.02-.04.05c-.11.11-.28.09-.41.15h0c-.08.16-.26.13-.39.18h0c-.06.17-.26.12-.37.21h0c-.07.14-.27.08-.34.22h-.02c-.07.06-.14.12-.2.17h0c-.06.07-.12.15-.21.18h0c-.04.08-.11.15-.2.19h.01c-.04.08-.11.15-.19.2h0c-.04.08-.11.13-.17.2h0c-.12.09-.06.3-.24.34h.01c0,.1-.08.16-.15.22h0c-.11.1-.07.29-.21.37h0c-.04.06-.09.13-.13.2-.06.03-.08.08-.05.15-.03.09-.1.15-.13.23-.06.04-.07.1-.05.16-.09.12-.07.29-.18.41h0c-.12.1-.08.26-.16.38-.01.06-.03.12-.04.17-.1.11-.08.27-.15.39Z"/>
    <g>
      <path class="cls-3" d="M321.51,61.68c.09-.04.18-.08.27-.12-.11,0-.19.07-.27.12Z"/>
      <path class="cls-3" d="M331.48,61.93c.08.04.17.09.25.13-.08-.04-.15-.12-.25-.13Z"/>
      <path class="cls-3" d="M348.47,62.73c0-.27.12-.57-.14-.8-3.25,0-6.5,0-9.75,0-.26.27-.12.6-.12.9-.02,1.2,0,2.4-.02,3.6,0,.22.2.61-.3.63-.03-.09-.11-.14-.17-.21h0c-.06-.06-.12-.13-.17-.2v-.02c-.08-.04-.13-.09-.16-.16-.06,0-.09-.04-.08-.1-.01-.13-.08-.21-.2-.24-.02-.1-.09-.16-.18-.2-.03-.09-.1-.16-.19-.19-.04-.09-.1-.15-.18-.19-.04-.08-.1-.15-.19-.19-.04-.08-.11-.15-.19-.19-.04-.09-.1-.15-.19-.19-.04-.09-.1-.16-.19-.18-.04-.11-.12-.17-.23-.2-.07,0-.11-.02-.13-.09-.07-.02-.12-.06-.15-.13l-.02-.02c-.07-.04-.14-.1-.19-.16h0c-.07-.06-.12-.13-.2-.17-.06-.09-.13-.16-.24-.18-.07.01-.11-.01-.13-.08-.07-.03-.13-.07-.17-.14h0c-.07-.06-.13-.13-.21-.16-.07-.14-.26-.09-.35-.22h0c-.08-.06-.15-.13-.24-.17-.07.02-.12,0-.15-.06-.07-.04-.14-.08-.2-.14h0c-.09-.12-.27-.08-.37-.2h0c-.16.01-.28-.07-.37-.19h0c-.16.01-.28-.06-.38-.19h0c-.16,0-.31-.03-.4-.18-.07.02-.12,0-.17-.04-.12.02-.2-.02-.25-.13-.05.03-.1.02-.13-.04-.17.02-.32,0-.42-.16-.06.03-.11.02-.14-.03-.17.02-.33,0-.45-.15-.1-.02-.21-.04-.31-.05-.17.03-.32,0-.43-.14-.17-.02-.34-.04-.51-.06-.17.02-.33,0-.46-.13h0c-.29-.02-.57-.04-.86-.06-1.07,0-2.14,0-3.21,0-.29.02-.59.04-.88.05h0c-.19.16-.4.18-.63.14-.12.01-.24.02-.36.03-.17.15-.37.2-.59.16-.1.02-.19.03-.29.05-.06.11-.16.14-.27.12-.11.02-.23.04-.34.06-.13.08-.3.06-.42.16-.04.05-.09.06-.14.03-.13.08-.31.06-.43.17l-.04.05-.06-.02c-.11,0-.19.07-.28.13-.04.05-.09.07-.15.04-.08.04-.15.09-.23.13-.04.05-.1.07-.17.05-.07.05-.14.09-.21.13-.06.02-.12.04-.18.06-.06.05-.13.1-.2.13-.04.06-.09.08-.16.06-.07.05-.14.1-.22.14-.03.06-.08.08-.15.06-.09.03-.16.1-.23.15l-.03.05h-.06c-.13,0-.21.07-.28.17h0c-.06.05-.13.1-.2.14-.02.06-.06.08-.12.06-.11.02-.19.09-.25.18h0c-.08.04-.13.11-.21.15h-.02c-.06.15-.26.1-.32.24-.09.03-.16.1-.21.17h0c-.07.04-.13.12-.21.16h-.01c-.04.07-.1.12-.17.15,0,.06-.04.09-.1.08-.13.01-.21.07-.25.2-.1.02-.16.08-.2.18-.09.03-.15.1-.19.18-.09.04-.15.1-.19.19-.08.04-.15.1-.19.19-.08.05-.14.11-.19.19-.08.04-.15.11-.19.19-.09.04-.15.1-.19.19-.09.04-.16.1-.18.2-.12.03-.18.12-.2.24.01.07-.02.1-.08.11-.03.07-.08.13-.14.16v.02c-.06.07-.12.14-.18.2h0c-.07.06-.14.12-.17.21-.11.05-.18.13-.19.26v.07s-.06.03-.06.03c-.05.07-.1.14-.15.2h0c-.09.06-.16.13-.18.25.02.06,0,.1-.06.12-.04.07-.09.14-.15.2h0c-.13.08-.08.27-.21.35h0c-.06.09-.13.16-.16.26.02.06,0,.11-.06.14-.04.07-.09.14-.13.21h0c-.14.08-.1.26-.2.37h0c-.13.09-.1.26-.2.38h0c-.13.1-.1.28-.19.4.02.06,0,.12-.05.15-.04.08-.12.15-.13.25.03.06.02.1-.04.13-.09.11-.06.28-.16.39h0c-.12.12-.11.29-.17.44.03.05.02.09-.03.12-.1.13-.09.3-.16.44.03.05.02.1-.03.13-.09.14-.1.31-.15.46l.02.06-.05.04c-.16.17-.03.43-.18.6.03.06.02.11-.03.16-.13.18-.02.43-.16.6.04.06.03.11-.03.15-.18.23.02.55-.17.78.04.06.03.12-.02.17-.16.26-.02.58-.15.84.04.17.01.33-.05.48-.15.32.02.69-.14,1.01.05.24.02.47-.04.7-.21.97.07,1.97-.16,2.94.1.12.1.24,0,.36.23.84-.05,1.72.16,2.57.06.22.1.43.04.66.13.27.02.58.14.85.02.17.03.34.05.51.11.19.03.43.14.63.01.12.03.23.04.35.14.18.03.41.15.6.02.1.03.2.05.31.05.15.07.31.14.45.02.09.04.19.06.28.04.16.06.33.15.47.05.04.07.08.03.14.08.13.06.3.15.43.06.04.07.09.04.15.08.13.06.3.16.42.06.03.07.07.04.13.07.14.06.32.17.44h0c.11.1.07.27.17.38.06.03.07.07.04.13.02.1.08.17.13.25.06.04.07.09.05.16.09.12.06.3.19.41h0c.09.11.06.28.19.38h0c.1.1.06.28.2.37.08.11.05.29.2.37.02.09.09.14.14.21l.06.04v.07c0,.12.07.2.16.27h0c.11.09.07.28.22.35.02.1.1.15.15.22h0c.12.09.08.28.22.35.02.1.09.16.16.21h0c.06.06.11.12.15.19l.06.03v.07c0,.13.08.21.19.26.03.09.1.15.17.2h0c.06.06.11.13.17.2h0c.12.08.07.29.25.32,0,.13.06.18.18.2.01.11.08.17.18.2.03.1.09.16.18.2.04.09.1.15.18.19.04.09.1.15.19.19.04.09.1.15.19.19.04.09.1.15.19.19.04.09.1.16.2.18.03.1.09.17.2.18.04.16.25.11.3.24l.03.02c.07.04.13.1.19.16h0c.06.07.12.14.2.17.05.09.11.16.22.17.05.17.25.12.33.23h0c.06.07.12.15.22.16.07.15.26.11.35.22h0c.07.09.15.16.26.17h.07s.04.05.04.05c.07.05.14.1.21.13.08.15.26.12.37.2.09.13.26.11.38.19.09.13.26.11.39.18.11.15.29.14.45.19l.06-.02.04.05c.11.1.27.09.4.15.15.21.42.06.59.2h.08s.07.03.07.03c.15.08.31.1.47.15l.06-.02.04.05c.23.2.55,0,.79.18l.09-.02.08.05c.31.19.68-.03.98.16.11,0,.23.02.34.03,1.2.13,2.4.13,3.59,0,.09-.06.19-.08.29-.03.26-.14.58,0,.84-.15l.08-.05.09.02c.23-.19.55.03.78-.19h0c.16-.16.42-.01.58-.17l.04-.05.06.02c.16-.05.33-.05.46-.16h0c.14-.18.42,0,.54-.22.13-.06.29-.04.39-.17h0c.11-.09.29-.06.38-.19h0c.11-.09.29-.06.38-.19.11-.09.29-.05.36-.2.09-.02.14-.1.22-.14h.02c.08-.14.27-.09.35-.22h0c.07-.04.14-.09.2-.14l.03-.06h.07c.13,0,.21-.07.27-.18.08-.04.14-.11.2-.16h.01c.08-.13.28-.08.33-.24.11,0,.17-.08.21-.17.09-.03.15-.1.2-.18.08-.04.13-.11.2-.17h0c.06-.07.12-.12.19-.17h.02c.05-.08.11-.14.18-.18l.02-.02c.04-.07.1-.13.17-.16l.02-.02c.2-.16.38-.35.54-.55l.02-.02c.04-.07.1-.13.17-.18v-.02c.06-.07.12-.13.19-.18h0c.06-.08.13-.13.18-.21h0c.07-.05.14-.11.18-.2.09-.04.16-.1.18-.2.15-.05.1-.25.24-.31v-.02c.16-.02.27.05.26.19-.02,2.55.11,5.1-.07,7.65.07.23.02.44-.04.66-.15.26,0,.57-.15.82-.02.1-.03.21-.05.31-.08.13-.06.29-.15.42.03.06.02.11-.04.15-.06.09-.13.16-.13.28v.06s-.04.04-.04.04c-.07.08-.15.16-.15.28v.06s-.05.03-.05.03c-.06.07-.12.15-.15.24.02.07,0,.12-.07.14-.03.07-.08.13-.14.18h0c-.05.07-.12.13-.17.21-.08.05-.15.11-.18.2-.09.04-.16.1-.19.19-.09.03-.15.1-.2.18-.08.04-.14.11-.21.17h0c-.05.06-.11.11-.19.14-.03.06-.07.08-.14.07-.1.03-.17.09-.24.15-.02.06-.06.07-.11.05-.11,0-.19.08-.27.14-.03.05-.07.07-.13.04-.1.02-.17.08-.25.13-.06.01-.12.03-.18.04-.11.11-.27.08-.39.15-.1.02-.2.04-.3.06-.15.05-.32.06-.46.14-.11.01-.22.03-.33.04-.19.12-.43.03-.62.14-.23.06-.47.09-.71.05-.38.18-.8-.02-1.19.14-.63.06-1.27.06-1.9,0-.31-.15-.68.04-.99-.14-.18-.01-.35-.03-.53-.04-.15-.07-.31-.09-.47-.13-.1-.02-.19-.03-.29-.05-.12-.08-.28-.06-.4-.15-.06.02-.12.01-.17-.04-.08-.06-.16-.13-.26-.13-.05.03-.09.01-.11-.04-.08-.07-.15-.13-.26-.15-.06.02-.1,0-.12-.05-.07-.05-.13-.09-.2-.14-.05-.08-.11-.15-.21-.17-.03-.1-.09-.16-.19-.19-.02-.1-.09-.16-.18-.21-.03-.08-.11-.14-.15-.21h0c-.13-.1-.09-.28-.2-.37h0c-.12-.1-.08-.26-.17-.38-.06-.04-.07-.09-.04-.15-.08-.13-.07-.28-.14-.41-.02-.11-.03-.22-.05-.33-.05-.35-.25-.55-.59-.61-.24-.01-.48-.03-.72-.04-.26-.13-.56,0-.81-.14-.3-.02-.59-.04-.89-.06-.2-.09-.43-.02-.63-.13-.29-.02-.59-.04-.88-.06-.21-.09-.44-.03-.65-.13-.29.05-.58,0-.87-.05-.25-.14-.55.02-.79-.14-.24-.01-.48-.03-.72-.04-.25-.14-.55.02-.8-.14-.3-.02-.6-.04-.91-.05-.2-.09-.43-.02-.63-.13-.29-.02-.59-.04-.88-.06-.2-.09-.44-.03-.64-.13-.28,0-.57,0-.85-.01-.21.94-.14,1.88-.04,2.83.01.12.02.23.03.35.18.24,0,.55.16.79.05.04.06.1.03.16.15.17.02.43.17.6l.05.05-.02.07c.06.15.05.32.16.45l.05.04-.02.06c0,.11.07.19.13.28.06.04.07.09.05.15.09.13.06.31.19.41h0c.1.1.06.28.2.38.08.11.06.28.2.36.02.1.1.15.15.22h0c.13.09.08.28.22.36.03.08.11.14.15.21h0c.13.09.08.29.23.34.01.1.08.16.17.21.04.08.11.14.17.2h0c.06.06.12.13.17.2h0c.07.06.12.12.17.19l.02.02c.22.28.46.53.74.74h.02c.07.06.13.12.18.18h0c.06.07.13.13.2.18h0c.05.07.11.14.2.17.04.09.1.17.22.17.04.17.25.12.33.23h0c.07.06.12.14.21.16.07.14.26.1.34.22h0c.07.06.12.15.23.15.06.16.24.13.36.2.08.14.26.11.37.19.09.14.26.11.38.19.11.15.29.13.43.19h.07s.05.04.05.04c.11.1.28.06.38.17h0c.13.12.3.12.45.17l.06-.02.04.05c.14.1.31.11.47.16l.06-.02.04.05c.16.16.42.02.58.18h0c.19.17.45.08.66.17l.05-.02.04.04c.24.21.56,0,.8.18l.08-.02.07.05c.26.17.57.02.84.16.1.01.2.02.3.04.32.18.7,0,1.03.15.1-.05.2-.03.3.03.52.22,1.09-.04,1.61.16.16-.07.32-.05.47.02.19,0,.37.01.56.02.32-.09.63-.03.95,0,1.01,0,2.03,0,3.04,0,.25-.04.5-.08.76-.01.19-.04.38-.07.57,0,.06,0,.13,0,.19,0,.11-.06.21-.07.33-.02.5-.21,1.06.05,1.56-.16.11-.01.21-.02.32-.03.32-.17.69.03,1.01-.16l.07-.05.08.02c.24-.17.55,0,.79-.16l.07-.05.08.02c.23-.18.56.03.78-.19h0c.16-.15.42-.01.58-.17l.05-.05.07.02c.15-.06.32-.06.45-.15l.06-.05h.07c.14-.05.31-.04.44-.15l.04-.05.06.02c.15-.05.33-.05.45-.18h0c.11-.09.28-.06.39-.16l.04-.05h.06c.11,0,.19-.06.27-.13l.06-.05h.08c.13-.06.32-.03.41-.19.12-.07.3-.04.37-.19.09-.01.15-.09.22-.13l.04-.06h.07c.12,0,.2-.07.27-.16h0c.1-.11.28-.07.35-.21.09-.02.15-.1.21-.15h.01c.08-.13.27-.08.34-.23.1-.02.16-.09.21-.17h0c.07-.05.13-.11.2-.16h.02c.07-.14.28-.09.31-.25.12,0,.18-.07.2-.18.1-.02.16-.09.2-.18.09-.03.16-.1.19-.19.09-.03.16-.1.19-.19.09-.03.16-.1.18-.19.1-.03.17-.09.17-.2.17-.03.11-.25.25-.31v-.02c.06-.07.12-.14.17-.2h0c.07-.06.14-.12.16-.21.15-.06.1-.26.23-.34h0c.05-.08.13-.13.15-.23.15-.07.11-.26.22-.35h0c.11-.09.07-.27.2-.36h0c.06-.09.14-.17.15-.27-.03-.06,0-.1.05-.12.06-.08.13-.15.14-.26-.03-.06-.01-.1.05-.12.06-.08.13-.16.14-.27v-.07s.04-.04.04-.04c.1-.11.07-.28.17-.39h0c.12-.11.11-.29.18-.43-.03-.06-.02-.1.04-.13.09-.12.07-.29.16-.41-.03-.06-.02-.12.04-.16.08-.13.06-.29.15-.41-.03-.06-.02-.11.03-.16.08-.15.1-.31.14-.47.02-.1.04-.19.05-.29.12-.18,0-.42.15-.59-.04-.06-.03-.11.02-.16.16-.25,0-.57.15-.83.01-.1.03-.21.04-.31.17-.32,0-.7.15-1.03-.04-.23-.01-.46.05-.68.17-.46-.04-.95.14-1.4-.06-.42-.01-.83.04-1.25.11-.24.07-.5.07-.75,0-12.54,0-25.07,0-37.61ZM337.95,81.39c.03,2.09-.18,4.16-.93,6.13-1.1,2.84-3.02,4.84-6.02,5.65-3.98,1.08-7.81-.77-9.5-4.55-.79-1.75-1.08-3.61-1.22-5.5-.18-2.56-.08-5.11.67-7.58.83-2.78,2.47-4.92,5.29-5.85,4.2-1.38,8.43.36,10.41,4.52.89,1.88,1.17,3.91,1.3,5.96.03.41,0,.82,0,1.23Z"/>
    </g>
    <g>
      <path class="cls-3" d="M415.77,63.01c-.08-.04-.14-.11-.23-.14.08.05.15.09.23.14Z"/>
      <path class="cls-3" d="M409.73,70.79c.04.08.11.14.18.2h0c-.06-.07-.12-.13-.18-.2-.06-.06-.13-.12-.19-.19-.07-.06-.13-.11-.2-.17.06.06.13.11.2.17.05.08.11.14.2.19Z"/>
      <path class="cls-3" d="M415.39,62.82c-.08-.04-.14-.11-.23-.14l.23.14Z"/>
      <path class="cls-3" d="M415.01,62.64c-.08-.05-.15-.12-.25-.14.08.05.16.09.25.14Z"/>
      <path class="cls-3" d="M408.23,100.66s-.04.02-.06.02h0s.04,0,.06-.02Z"/>
      <path class="cls-3" d="M410.81,98.78c-.02.11-.09.17-.2.17,0,0,0,0,0,0,.12,0,.18-.07.21-.17,0,0,0,0,0,0Z"/>
      <path class="cls-3" d="M409.32,99.93c.08-.04.13-.11.2-.16-.07.05-.13.1-.2.15,0,0,0,0,0,0,0,0,0,0,0,0Z"/>
      <path class="cls-3" d="M411.21,98.42s0,0,0,0c0,0,0,0,0,0,.08-.05.14-.11.19-.18-.06.06-.13.12-.19.18Z"/>
      <path class="cls-3" d="M410.28,99.2c-.07.05-.13.11-.2.16h0s0,0,0,0c.08-.04.13-.11.2-.16Z"/>
      <path class="cls-3" d="M386.06,91.16s0,0,0-.01c0,0,0,0,0-.01v.02Z"/>
      <polygon class="cls-3" points="399.05 70.75 399.1 70.79 399.06 70.75 399.05 70.75 399.05 70.75"/>
      <polygon class="cls-3" points="389.32 99.33 389.29 99.37 389.33 99.34 389.32 99.33 389.32 99.33"/>
      <polygon class="cls-3" points="389.51 99.52 389.48 99.55 389.52 99.52 389.52 99.52 389.51 99.52"/>
      <path class="cls-3" d="M412.97,101.32l-.02.06c.16.11.18.28.17.46.18.22.42.22.68.22,3.13,0,6.26,0,9.4,0,.2,0,.45.08.56-.21-.06-.04-.08-.09-.05-.16-.09-.12-.06-.3-.19-.41h0c-.1-.11-.07-.27-.18-.38h0c-.12-.1-.08-.27-.17-.38-.06-.03-.07-.08-.04-.14-.07-.14-.06-.31-.18-.43h0c-.1-.1-.07-.26-.16-.38-.06-.04-.07-.09-.04-.15-.08-.13-.06-.3-.16-.42-.06-.03-.07-.07-.03-.13-.07-.14-.06-.31-.15-.44-.05-.04-.07-.08-.03-.14-.07-.13-.07-.3-.15-.43-.05-.05-.06-.11-.03-.17-.16-.16-.03-.41-.16-.58-.05-.05-.06-.11-.03-.17-.03-.03-.04-.06-.06-.1-.12-.21-.13-.44-.11-.68h0c-.01-.12-.02-.23-.03-.34-.03-.05-.05-.1-.06-.15-.13-.33-.12-.67-.1-1.02-.06-.28-.12-.56-.04-.84-.25-.78-.16-1.58-.15-2.37-.09-1.96-.07-3.91,0-5.87,0-1.53,0-3.07,0-4.6,0-2.5,0-5.01,0-7.51-.06-.29-.1-.58-.04-.88-.02-.05-.04-.1-.05-.15-.11-.34-.11-.7-.09-1.06-.01-.17-.03-.35-.04-.52-.17-.25-.17-.52-.15-.81-.01-.1-.03-.21-.04-.31-.17-.18-.17-.4-.15-.63-.05-.04-.06-.09-.03-.15-.18-.17-.19-.38-.18-.6-.11-.1-.17-.22-.15-.38-.05-.05-.07-.1-.04-.17-.14-.1-.19-.24-.18-.4h0c-.13-.1-.2-.22-.19-.38h0c-.14-.08-.2-.21-.21-.36-.1-.03-.15-.09-.14-.2-.06-.02-.08-.06-.06-.12-.11-.04-.17-.13-.18-.25-.1-.03-.16-.1-.16-.21.05.07.11.14.16.2t0,0s0,0,0,0c-.04-.08-.11-.13-.16-.2h0c-.09-.03-.15-.08-.15-.18-.06,0-.09-.04-.08-.1-.11-.04-.18-.12-.21-.24-.1-.03-.16-.09-.18-.19-.1-.02-.16-.09-.19-.19-.1-.02-.17-.08-.19-.18-.11-.03-.19-.09-.23-.21-.06.01-.1-.02-.11-.08-.1,0-.15-.05-.17-.14h-.01c-.11,0-.18-.07-.2-.17-.1,0-.18-.06-.21-.16-.15-.03-.26-.09-.33-.23h0c-.11,0-.18-.05-.22-.15-.15-.02-.28-.08-.35-.22h0c-.12,0-.21-.04-.26-.16-.06.02-.1,0-.12-.05-.12.01-.2-.04-.24-.15-.06.02-.11,0-.14-.05-.12.02-.19-.04-.23-.14h0c-.06.02-.11,0-.15-.05-.11.02-.19-.03-.23-.14h0c-.06.02-.11,0-.15-.05-.12.02-.2-.03-.25-.14-.06.03-.1.01-.13-.04-.16.02-.29-.04-.39-.17-.06-.01-.12-.02-.18-.04-.12.02-.22-.01-.27-.13h0s0,0,0,0c-.1-.02-.2-.04-.29-.06-.16.03-.29-.03-.39-.15-.06.03-.12.02-.17-.03-.18.02-.35.02-.47-.14h0c-.16-.02-.32-.04-.48-.06-.17.03-.31,0-.43-.13l-.52-.05c-.22.03-.43,0-.62-.14-.24-.02-.47-.03-.71-.05-.29.03-.58.02-.84-.14,0,0,0,0,0,0-.48-.02-.96-.03-1.43-.05-1.76-.03-3.53-.07-5.3,0-.42.02-.83.03-1.25.05-.26.17-.54.17-.83.14-.18.01-.36.03-.54.04-.18.14-.41.04-.6.15-.17.02-.34.04-.51.05-.14.06-.3.07-.43.14-.12.01-.24.03-.36.04-.12.09-.28.07-.4.14-.11.02-.22.04-.34.05-.13.08-.29.06-.42.15-.05.05-.1.06-.17.03-.12.1-.28.07-.4.16-.04.05-.1.06-.16.03-.12.09-.3.06-.41.17l-.04.05h-.06c-.11,0-.19.06-.27.12-.04.05-.08.07-.14.04-.09.03-.15.09-.23.13-.04.05-.1.07-.16.05-.07.05-.14.09-.22.14-.04.06-.09.07-.16.05-.08.04-.15.1-.22.14-.03.06-.07.08-.13.06-.1.03-.17.1-.25.16h0c-.08.13-.27.09-.35.22-.08.04-.14.11-.21.15h-.01c-.07.14-.27.09-.33.23-.1.03-.16.1-.21.17h0c-.07.05-.13.12-.21.17h0c-.04.07-.1.12-.17.16,0,.06-.04.09-.1.07-.13.01-.22.07-.24.21-.11.01-.17.08-.19.18-.1.02-.16.09-.19.19-.1.03-.16.09-.19.19-.1.03-.17.09-.18.19-.12.03-.19.11-.2.24,0,.07-.02.1-.09.11-.03.07-.07.13-.14.16v.02c-.06.07-.12.14-.18.2h0c-.06.06-.13.12-.17.2-.1.05-.17.13-.19.25.02.06,0,.1-.07.12-.04.07-.09.13-.15.19h0c-.08.07-.14.14-.17.24.02.07,0,.11-.07.14-.04.07-.08.14-.14.19h0c-.08.07-.16.15-.17.26.02.06,0,.09-.05.11-.05.08-.12.14-.15.23.02.07,0,.11-.06.15-.04.07-.08.14-.13.21h0c-.13.08-.1.26-.2.37h0c-.13.09-.1.27-.19.38h0c-.14.09-.11.27-.19.4.03.06.01.11-.05.15-.06.09-.13.16-.13.28l.02.06-.05.04c-.11.12-.08.29-.17.41.03.06.01.11-.04.15-.08.12-.05.28-.16.39-.01.06-.03.12-.04.17-.07.12-.05.28-.15.4.03.07.02.12-.03.17-.08.14-.07.3-.14.44v.04c.12.29.43.1.61.25l.07-.03.06.05c.3.22.68-.03.98.18l.09-.02.08.05c.25.17.57.01.83.16l.07-.03.05.05c.3.22.68-.02.98.18l.08-.02.07.05c.26.17.58.02.84.16l.06-.03.05.05c.3.22.68-.02.99.18l.08-.02.07.05c.26.17.58.03.85.16.1.01.19.03.29.04.25.16.56,0,.8.16l.08-.02.07.05c.26.17.59.03.86.16.1-.05.19-.02.28.04.2.07.4.19.54-.09-.03-.05-.02-.09.04-.12.1-.12.07-.29.16-.4-.03-.07-.01-.12.05-.16.04-.08.11-.15.13-.25-.03-.06-.01-.1.04-.13.06-.08.13-.16.14-.27-.03-.06-.01-.09.05-.11.06-.08.13-.15.14-.26-.02-.06,0-.1.06-.12.05-.07.1-.14.14-.21h0c.14-.06.09-.26.22-.34h0c.05-.09.12-.14.16-.22.08-.05.15-.11.17-.21.11-.03.18-.08.17-.2h0s0,0,0-.01c0,0,0,0,0,0h0c.17-.08.29-.21.37-.37h0s0,0,0,0c0,0,0,0,0,0h0c.12.01.18-.06.2-.16.1-.02.16-.09.21-.17.1-.1.29-.05.34-.22.11.01.16-.08.23-.13h.02c.09-.13.26-.08.36-.18l.05-.05h.07c.1-.16.27-.17.44-.15l.05-.05.07.02c.18-.21.41-.18.64-.16l.06-.05.07.02c.5-.27,1.04-.18,1.57-.16.25-.07.51-.07.76,0,.77-.02,1.55-.12,2.3.17h0l.08-.03.07.05c.28-.02.57-.06.8.16h0l.08-.02.06.05c.22-.04.41,0,.56.18h0c.16,0,.31,0,.4.16.15.01.3.02.38.19.15.02.28.06.34.22h.01c.11,0,.18.07.2.18.11.01.17.08.19.18.11.02.17.09.18.2.11.03.17.09.16.2h0v.02c.15.07.22.19.22.34.15.08.19.22.19.38.14.09.18.22.16.38.05.04.07.1.03.16.18.17.19.38.16.6.01.1.03.2.04.3.18.85.37,1.69-.02,2.53l-.04.05h-.06c-.06.1-.15.14-.28.12-.05.05-.1.06-.16.04-.1.14-.24.18-.4.16-.05.05-.1.06-.16.03-.1.14-.24.18-.41.15-.05.05-.11.06-.17.03-.1.12-.23.18-.4.15-.1.02-.2.04-.3.06-.11.16-.28.17-.45.14-.05.05-.11.06-.17.03-.11.12-.23.18-.39.15l-.35.05c-.11.13-.25.17-.41.14l-.35.05c-.11.12-.24.17-.41.14-.16.02-.31.04-.47.06-.13.16-.3.17-.48.14h0l-.33.04c-.11.13-.26.17-.42.14l-.49.06c-.12.14-.28.16-.46.13-.16.02-.31.04-.47.06-.13.15-.3.16-.48.13-.16.02-.32.04-.48.05-.13.14-.29.16-.47.13-.16.02-.33.04-.49.05-.12.14-.28.16-.45.13-.16.02-.33.04-.49.06-.15.05-.31.07-.45.13l-.36.04c-.17.15-.41.03-.59.16-.11.01-.21.03-.32.04-.14.06-.3.06-.44.14-.11.02-.22.03-.33.05-.14.07-.3.07-.43.14-.1.02-.21.04-.31.05-.15.06-.31.06-.45.15-.05.05-.11.06-.17.03-.11.1-.27.08-.4.15-.1.02-.2.04-.3.06-.11,0-.18.08-.27.12-.1.02-.21.04-.31.06-.1.01-.17.08-.25.13-.1.02-.2.05-.3.07-.11,0-.19.08-.27.13-.06.01-.12.03-.18.04-.11.11-.28.07-.39.17-.03.05-.08.07-.13.04-.09.02-.16.09-.24.13-.05.05-.1.07-.17.05-.12.1-.29.07-.4.18h0c-.1.11-.28.08-.38.19h0c-.1.11-.28.08-.38.2h0c-.06.05-.12.1-.2.13-.03.06-.09.08-.15.07-.09.04-.15.1-.23.15l-.04.06h-.07c-.12,0-.2.08-.27.17-.07.04-.13.11-.2.15h-.01c-.07.14-.27.09-.33.24-.1.03-.16.1-.21.18-.08.05-.13.11-.2.17h0c-.06.07-.12.12-.19.17h-.01c-.05.08-.11.14-.18.18l-.02.02c-.04.07-.1.13-.17.17l-.02.02c-.04.07-.1.13-.17.17v.02c-.06.07-.12.13-.19.19h0c-.05.08-.12.14-.18.21h0c-.07.06-.14.11-.17.2-.1.05-.16.13-.19.24.02.07-.01.11-.08.13-.03.07-.08.13-.14.18h0c-.06.07-.13.13-.15.22-.15.07-.11.26-.22.35h0c-.08.08-.15.15-.16.27.02.06,0,.1-.05.12-.05.08-.12.14-.15.23.02.06,0,.11-.06.15-.04.08-.11.14-.13.23.02.06,0,.11-.05.15-.04.08-.12.15-.13.24.03.06.01.1-.04.13-.09.11-.06.28-.16.39h0c-.18.14-.02.41-.2.56-.01.06-.02.12-.04.19-.07.13-.06.29-.14.42.04.06.03.11-.03.15-.18.24.01.55-.17.79l-.03.35c-.19.59.05,1.21-.15,1.8.2.59-.04,1.21.15,1.8.01.12.02.23.03.35.18.24,0,.55.17.79.05.04.06.09.03.15.14.18.01.44.17.61l.05.04-.02.06c.04.16.06.34.17.47h0c.11.1.08.26.16.38.06.03.07.08.04.14.08.13.05.31.19.42.08.12.06.29.19.37.08.11.05.28.2.36.01.1.1.15.14.22h0c.13.09.08.29.22.36.04.08.11.13.15.21v.02c.14.07.09.27.24.33.02.1.09.16.17.21.05.08.11.13.17.2h0c.06.06.12.12.16.2l.02.02c.19.12.2.4.44.48h0s0,0,0,0c0,0,0,0,0,0h0c0,.12.06.18.18.18h0s0,0,0,0c0,0,0,0,0,0h0c.08.24.36.26.49.44h.02c.07.06.13.12.19.18h0c.06.07.12.14.2.17.05.09.11.16.21.17.05.16.25.11.33.23h0c.07.06.12.14.21.16.07.15.26.1.35.21h0c.07.09.15.16.27.17h.07s.04.05.04.05c.07.05.12.12.22.14.08.16.25.13.38.19.1.16.28.14.43.2h.07s.05.04.05.04c.11.1.28.06.38.17h0c.13.12.3.12.45.17l.06-.02.04.05c.16.16.41,0,.57.18h0c.18.16.43.05.63.17l.07-.02.06.05c.24.18.56,0,.8.17l.08-.02.07.05c.38.21.82-.02,1.2.16.11-.05.21-.03.31.02,1.07,0,2.14,0,3.22,0,.1-.06.21-.07.33-.03.37-.21.78-.18,1.19-.17l.06-.05.07.03c.24-.2.53-.18.82-.17l.04-.05.06.02c.18-.2.42-.18.65-.18.15-.18.36-.19.57-.18h0c.15-.18.35-.21.56-.2h0c.09-.14.22-.19.38-.16l.06-.05h.08c.09-.16.26-.17.42-.17.08-.16.23-.18.38-.18h0c.09-.14.22-.19.37-.19h0c.08-.15.21-.2.37-.19h0c.08-.15.21-.19.37-.2.07-.16.21-.19.36-.21.04-.1.11-.15.22-.14h.02c.07-.14.19-.21.34-.22.03-.1.1-.15.21-.14l.03-.06h.07c.05-.11.14-.16.26-.18.03-.1.1-.16.21-.16h.02c.06-.16.18-.22.33-.24.03-.1.1-.15.21-.16.03-.11.09-.16.2-.17h.01c.05-.16.17-.22.32-.26.03-.1.1-.15.2-.17.03-.1.1-.16.2-.17.03-.11.09-.16.2-.18.02-.11.09-.17.2-.18h0c.02-.11.08-.17.19-.18l-.19.18c.07-.06.13-.12.19-.18h0c.03-.13.13-.2.24-.19.09,0,.11.1.1.19.01.06.02.12.04.18.02.02.04.04.05.07.11.15.15.32.12.51.06.04.07.08.03.14.15.11.17.26.15.43.05.05.06.1.03.17.17.16.2.37.18.59.02.02.04.05.05.07.11.14.15.31.13.5l.05.05-.02.07c.16.12.18.28.16.46l.05.04ZM410.77,89.45c-.28,1.62-1.12,2.93-2.41,3.94-1.91,1.49-4.05,2.23-6.49,2.04-3.04-.23-5.42-3.05-5.02-6.05.22-1.63,1.22-2.73,2.68-3.42,1.63-.77,3.39-1.12,5.14-1.51,2.02-.45,4.05-.88,6.03-1.5.08-.03.18,0,.34,0,0,2.18.11,4.35-.26,6.5Z"/>
      <polygon class="cls-3" points="398.68 71.14 398.71 71.17 398.68 71.13 398.68 71.13 398.68 71.14"/>
      <path class="cls-3" d="M416.89,63.64c.07.05.14.1.21.15-.07-.05-.13-.12-.21-.15,0,0,0,0,0,0Z"/>
      <path class="cls-3" d="M418.38,64.79h0c-.03-.12-.11-.19-.24-.2.12.02.2.08.24.2Z"/>
      <path class="cls-3" d="M418.94,65.36s0,0,0,0c.12.03.19.12.2.24-.01-.13-.07-.21-.2-.24Z"/>
      <path class="cls-3" d="M416.14,63.21c-.08-.05-.14-.12-.24-.15.08.05.16.1.24.15Z"/>
    </g>
    <path class="cls-3" d="M212.6,85.12c.16.02.31,0,.47,0,8.2,0,16.39,0,24.59,0,.28,0,.56.03.85.04.4-.99.16-2,.13-3-.06-.42-.1-.84-.04-1.26-.19-.45.03-.94-.14-1.39-.06-.22-.1-.44-.05-.66-.13-.27-.02-.58-.14-.85-.06-.16-.09-.32-.05-.49-.14-.26,0-.58-.15-.84-.05-.05-.06-.1-.02-.16-.18-.23,0-.55-.17-.78-.05-.04-.06-.09-.02-.15-.14-.18-.02-.43-.16-.61-.05-.04-.06-.09-.03-.15-.14-.18-.02-.43-.17-.61l-.05-.05.02-.07c-.06-.15-.06-.31-.15-.45-.05-.04-.06-.09-.03-.15-.09-.13-.07-.29-.15-.41-.05-.04-.07-.09-.04-.15-.08-.13-.06-.3-.16-.42-.06-.03-.07-.08-.04-.13-.07-.14-.06-.31-.17-.43h0c-.11-.1-.08-.27-.17-.38-.06-.03-.07-.07-.04-.13-.02-.1-.09-.17-.13-.25-.06-.04-.07-.09-.05-.15-.09-.12-.06-.31-.2-.41-.08-.12-.06-.29-.19-.38-.08-.12-.06-.29-.2-.37-.04-.07-.08-.14-.13-.2-.06-.02-.08-.06-.05-.12-.02-.11-.09-.18-.16-.26h0c-.12-.09-.08-.29-.22-.36h0c-.05-.06-.1-.13-.15-.2l-.06-.03v-.07c0-.13-.07-.21-.18-.27-.04-.08-.11-.13-.15-.21h0c-.13-.08-.08-.28-.23-.34-.02-.1-.09-.16-.17-.21-.04-.08-.11-.13-.17-.2h0c-.07-.06-.12-.12-.16-.2l-.02-.02c-.07-.03-.12-.08-.14-.15-.07,0-.1-.05-.09-.12-.02-.12-.08-.2-.2-.23-.02-.1-.08-.17-.18-.2-.03-.1-.09-.16-.18-.2-.04-.09-.1-.15-.19-.19-.04-.09-.1-.15-.19-.19-.03-.09-.1-.16-.19-.19-.03-.1-.09-.16-.19-.19-.04-.11-.12-.18-.23-.2-.07,0-.11-.02-.12-.09-.07-.02-.12-.07-.15-.14l-.02-.02c-.07-.04-.14-.1-.19-.16h0c-.07-.06-.13-.13-.2-.17-.05-.08-.11-.15-.21-.17-.06-.15-.25-.1-.32-.23h-.01c-.07-.05-.13-.12-.21-.16-.06-.1-.14-.17-.26-.18-.06.02-.09,0-.11-.06-.07-.05-.14-.1-.2-.15h.01c-.08-.12-.27-.08-.36-.21h-.01c-.08-.06-.15-.13-.24-.16-.06.02-.11,0-.14-.06-.07-.04-.14-.09-.21-.14-.07.02-.13,0-.17-.06-.07-.03-.14-.08-.2-.13h0c-.1-.12-.28-.08-.39-.19-.06-.02-.12-.04-.18-.05-.07-.04-.15-.08-.21-.13-.07.02-.12,0-.16-.05-.08-.04-.15-.11-.24-.13-.06.02-.11.01-.14-.04-.11-.09-.28-.05-.38-.17-.06-.01-.12-.03-.18-.04-.08-.04-.15-.12-.25-.13l-.32-.07c-.09-.04-.16-.11-.26-.12-.1-.02-.21-.04-.31-.06-.12-.07-.28-.05-.39-.15-.06.03-.12.02-.17-.03-.15-.08-.31-.1-.47-.14-.16-.02-.32-.04-.47-.06-.14-.07-.3-.08-.45-.13-.23-.02-.46-.04-.69-.06-.19-.1-.43-.01-.61-.13-.36-.02-.73-.03-1.09-.05-1.2,0-2.39,0-3.59,0-.35.02-.69.04-1.04.06-.16.04-.32.08-.48.13-.18.02-.37.03-.55.05-.17.15-.41.03-.59.16-.11.02-.22.03-.32.05-.14.07-.3.06-.43.14-.06,0-.12.02-.18.03-.1.11-.26.08-.38.15-.1.02-.2.04-.3.07-.11,0-.18.08-.27.12-.06.01-.13.02-.19.04-.1.12-.27.08-.38.17-.04.05-.09.06-.15.04-.08.04-.15.09-.23.13-.06.02-.12.03-.18.05-.11.11-.28.08-.39.18h0c-.1.12-.27.09-.38.19h0c-.09.13-.27.09-.37.2h0c-.1.12-.28.08-.37.2h0c-.06.05-.13.1-.2.13-.03.06-.08.08-.15.06-.09.03-.16.1-.24.16h-.01c-.08.14-.27.09-.35.22-.08.04-.13.11-.21.15h-.02c-.07.14-.26.09-.33.23-.09.03-.15.1-.21.17h0c-.05.06-.12.11-.19.15,0,.06-.04.08-.1.07-.12.01-.21.08-.25.19-.09.03-.15.1-.2.18-.08.04-.14.11-.2.17h0c-.06.06-.13.12-.2.17h-.01c-.04.08-.1.14-.18.17l-.03.02c-.03.08-.09.13-.17.16l-.04.03c-.02.07-.06.12-.14.13-.18.25-.38.48-.64.65-.02.07-.06.12-.13.14l-.03.03c-.03.08-.08.13-.16.17l-.02.02c-.04.07-.09.14-.16.18h0c-.05.08-.11.14-.17.21h0c-.06.06-.13.12-.18.2-.08.05-.15.11-.17.21-.14.06-.09.26-.23.32l-.02.02c-.04.07-.1.14-.16.2h0c-.06.06-.13.12-.16.21-.14.07-.1.26-.23.34h0c-.04.09-.12.14-.15.22-.13.08-.09.27-.22.35h0c-.06.09-.13.16-.16.25.02.07,0,.11-.07.14-.04.07-.08.14-.14.2h0c-.12.09-.08.27-.2.36h0c-.08.08-.15.16-.16.28v.06s-.05.03-.05.03c-.07.08-.14.16-.14.28v.07s-.04.04-.04.04c-.1.1-.06.28-.18.37h0c-.1.12-.07.29-.18.39h0c-.12.11-.1.28-.18.42.03.06.01.11-.04.15-.08.12-.05.28-.16.38h0c-.11.13-.11.3-.17.45l.02.07-.05.05c-.1.13-.1.3-.16.45l.02.07-.05.05c-.16.16,0,.42-.18.58-.01.06-.02.12-.03.18-.07.14-.09.3-.14.45-.02.1-.04.2-.06.31-.12.18,0,.42-.15.58.03.06.03.12-.02.17-.17.24.02.55-.16.78-.01.12-.02.24-.04.35-.14.26,0,.56-.14.82.04.17.02.34-.04.51-.18.45.04.94-.15,1.39.05.55,0,1.09-.04,1.64-.11.5-.11,1.01,0,1.51.01.49.03.97.04,1.46.2.44-.03.93.15,1.38.01.17.03.34.04.51.15.25,0,.56.14.81.01.11.03.23.04.34.17.24,0,.55.16.79.05.04.06.09.02.15.14.18.03.42.16.61.05.05.06.1.03.17.15.17.02.42.17.59.05.04.06.08.03.14.07.13.06.3.15.43.05.04.06.1.03.16.09.12.07.28.15.41.05.04.07.09.04.16.09.12.06.29.16.41.06.03.07.07.04.13.07.14.05.32.18.43h0c.1.1.07.27.17.38l.05.04v.07c0,.11.06.19.12.27.06.03.07.07.05.13.02.1.09.16.13.24.06.03.08.08.05.14.02.09.09.16.14.24.06.03.08.08.05.14.02.09.09.16.14.24.06.02.08.06.05.12.01.11.09.18.16.26h0c.13.1.08.28.21.37h0c.05.06.1.12.14.19.06.02.08.07.06.13.02.1.09.18.16.25h0c.12.09.07.28.22.35.02.1.09.15.16.22h0c.11.09.06.29.23.33,0,.11.08.17.17.22.03.09.1.14.17.2h0c.06.06.12.13.17.2v.02c.14.06.09.28.26.3,0,.12.07.18.18.2.02.1.08.16.18.2.03.1.09.16.18.19.03.09.1.15.19.19.04.09.1.15.19.19.04.09.1.16.19.19.03.1.09.16.2.18.03.11.08.17.2.18.03.17.24.11.3.25l.02.02c.07.05.13.1.19.16h0c.06.07.12.14.2.17.05.09.1.16.21.17.05.17.25.12.33.23h0c.06.07.12.14.21.16.07.15.26.1.34.22h.01c.07.06.12.15.22.15.07.15.25.12.35.21.09.13.27.09.36.2h0c.1.11.27.07.36.19h.02c.1.11.27.06.36.19h.02c.1.11.27.07.37.18h0c.11.11.27.09.39.18h0c.12.13.29.12.44.18h.07s.05.04.05.04c.11.1.27.08.39.15.14.21.41.05.57.2h0c.17.19.43.06.62.18l.07-.02.05.05c.18.15.43.03.61.16l.08-.02.07.05c.23.18.54-.02.77.17.06,0,.12.02.18.02.26.16.57,0,.83.15.1.01.21.02.31.04.44.2.94-.04,1.38.16.17-.06.34-.04.51.03,1.2.14,2.4.13,3.59,0,.17-.06.34-.09.52-.03.44-.21.94.05,1.37-.16l.08-.04.09.03c.3-.2.68.04.97-.18l.05-.05.07.02c.2-.11.44-.02.63-.15l.07-.05.08.02c.18-.14.43-.01.61-.17l.05-.05.07.02c.15-.06.31-.06.45-.15l.06-.05h.08c.14-.06.3-.04.43-.14l.05-.05h.07c.15-.04.32-.04.44-.16h0c.11-.1.28-.07.38-.17l.04-.05h.07c.15-.04.33-.02.43-.19.13-.06.3-.03.38-.19.12-.06.3-.03.37-.2.1,0,.15-.09.23-.14h.02c.08-.14.27-.09.35-.21h0c.1-.1.29-.06.35-.21.1-.01.15-.09.22-.15h0c.09-.12.28-.07.34-.23.1-.02.16-.09.22-.16h0c.07-.05.13-.11.2-.16h.02c.07-.14.27-.09.32-.25.1-.02.16-.08.21-.17.09-.04.14-.1.2-.18h0c.07-.05.13-.11.2-.17h0c.05-.07.12-.13.18-.18l.02-.02c.05-.07.1-.12.17-.17l.02-.02c.04-.07.09-.13.17-.16l.02-.02c.12-.12.24-.24.36-.36l.02-.02c.04-.07.1-.13.17-.18v-.02c.06-.07.12-.13.18-.19h0c.06-.07.13-.13.18-.2h0c.07-.05.14-.11.18-.2.09-.04.16-.1.17-.21.15-.05.1-.25.24-.32v-.02c.06-.07.12-.14.17-.2h0c.07-.05.14-.11.16-.21.15-.06.11-.26.23-.34h0c.05-.08.13-.13.15-.22.15-.07.1-.26.22-.35h0c.07-.08.15-.15.16-.26-.02-.06,0-.1.06-.12.05-.07.1-.14.14-.21h0c.14-.07.1-.26.21-.36h0c.12-.09.08-.27.2-.37h0c.11-.1.07-.28.19-.38h0c.11-.11.08-.28.19-.38h0c.11-.11.09-.28.18-.39h0c.14-.1.11-.28.19-.42-.03-.06-.02-.1.04-.13.09-.11.06-.28.16-.38h0c.12-.12.11-.3.17-.45l-.02-.07.05-.05s.03-.02.04-.07c0-.04-.02-.07-.07-.1-.15-.2-.42-.05-.59-.19-.17-.02-.35-.03-.52-.05-.19-.11-.43-.02-.61-.14-.18-.02-.35-.03-.53-.05-.19-.11-.42-.01-.61-.14-.18-.02-.35-.03-.53-.05-.19-.11-.42-.01-.6-.14-.18-.02-.35-.03-.53-.05-.19-.11-.42,0-.6-.14-.18-.01-.36-.03-.53-.05-.18-.11-.42,0-.6-.15-.18-.01-.36-.03-.54-.05-.18-.11-.42,0-.59-.15-.18-.01-.36-.03-.54-.04-.18-.11-.42,0-.59-.15l-.54-.04c-.18-.11-.42,0-.59-.15-.18-.01-.37-.03-.55-.04-.29-.12-.45.01-.54.28.03.05.02.1-.03.13-.1.13-.09.3-.16.44.03.06.02.1-.04.13-.09.12-.07.28-.16.39h0c-.13.1-.11.28-.19.41.03.06,0,.11-.05.14-.05.08-.12.15-.14.24.02.06,0,.11-.06.14-.05.07-.09.14-.14.21v-.02c-.13.08-.09.27-.21.36h0c-.06.07-.13.13-.15.22-.14.06-.09.26-.23.32v.02c-.06.07-.11.14-.18.19h0c-.06.07-.12.13-.18.2h0c-.07.06-.13.12-.19.19-.07.06-.13.12-.19.18h0c-.05.07-.11.12-.18.16-.01.06-.04.08-.1.07-.13,0-.21.08-.26.19-.07.04-.14.09-.2.14-.02.06-.06.08-.11.05-.11.01-.19.08-.27.15l-.04.05h-.06c-.12-.01-.2.06-.28.13-.03.05-.08.07-.14.04-.09.02-.15.09-.24.13-.11.02-.22.04-.33.06-.14.07-.3.07-.43.14-.16.05-.32.09-.48.05-.33.15-.7,0-1.03.14-.13,0-.26,0-.38,0-.32-.14-.68.03-1-.14-.17-.02-.34-.03-.52-.05-.14-.07-.3-.08-.44-.14-.11-.02-.21-.04-.32-.05-.12-.08-.28-.04-.38-.16-.06-.01-.13-.03-.19-.04-.08-.04-.15-.11-.24-.13-.06.03-.1.01-.14-.04-.08-.06-.16-.13-.26-.14-.05.03-.09.01-.12-.05-.08-.06-.15-.12-.25-.15-.06.02-.11,0-.13-.06-.07-.04-.14-.09-.21-.14h.01c-.06-.09-.14-.16-.27-.17-.06.02-.09,0-.1-.06-.07-.04-.13-.1-.19-.15h0c-.06-.07-.12-.13-.21-.17-.04-.09-.1-.16-.2-.18-.03-.12-.11-.18-.23-.2-.23-.12-.41-.29-.51-.53-.02-.11-.09-.19-.19-.23-.03-.09-.1-.15-.17-.21h0c-.05-.07-.12-.12-.16-.2v-.02c-.15-.07-.1-.27-.24-.34-.04-.07-.09-.14-.14-.2l-.06-.04v-.07c0-.12-.08-.2-.15-.28h0c-.12-.1-.08-.28-.19-.38h0c-.12-.1-.08-.27-.18-.38l-.05-.04v-.07c0-.11-.06-.18-.11-.27-.06-.05-.07-.1-.04-.17-.1-.11-.07-.28-.15-.4-.05-.05-.07-.11-.04-.17-.16-.17-.03-.41-.17-.59-.05-.05-.06-.1-.03-.16-.18-.24,0-.55-.16-.79-.01-.1-.02-.21-.04-.31-.18-.39.02-.82-.14-1.2-.11-.41-.05-.69.47-.64ZM218.52,69.4c3.14-.6,5.88.34,7.83,3.11,1.25,1.78,1.61,3.84,1.66,5.95-.32.18-.61.1-.88.1-4.66,0-9.32,0-13.98,0-.19,0-.38,0-.57,0-.24,0-.32-.12-.32-.34-.09-4.31,2.29-8.07,6.26-8.83Z"/>
    <g>
      <polygon class="cls-3" points="271.54 65.89 271.54 65.89 271.54 65.89 271.54 65.89"/>
      <polygon class="cls-3" points="296.47 99.71 296.5 99.74 296.48 99.71 296.47 99.71 296.47 99.71"/>
      <path class="cls-3" d="M303.13,84.33c-.12-.25-.11-.49,0-.74-.22-.97.05-1.97-.15-2.94-.06-.23-.09-.47-.04-.71-.19-.38.02-.8-.15-1.18-.06-.17-.09-.34-.04-.51-.15-.25,0-.56-.15-.81-.01-.12-.02-.23-.04-.35-.18-.24,0-.55-.16-.79-.05-.05-.06-.11-.02-.17-.19-.23.01-.55-.18-.78-.06-.03-.06-.08-.03-.13-.12-.19-.01-.44-.16-.63-.06-.03-.06-.08-.03-.13-.06-.14-.06-.3-.15-.44-.05-.05-.06-.1-.03-.16-.09-.12-.07-.28-.15-.4l-.04-.18c-.11-.11-.08-.27-.15-.39-.05-.05-.07-.1-.04-.17-.1-.12-.07-.28-.16-.4-.05-.04-.07-.09-.04-.15-.08-.13-.06-.3-.17-.42h0c-.11-.1-.08-.27-.17-.38-.06-.03-.07-.07-.04-.13-.02-.1-.09-.17-.13-.25-.06-.04-.07-.08-.05-.15-.03-.09-.1-.15-.13-.23-.06-.04-.08-.09-.05-.15-.03-.08-.1-.15-.14-.23-.06-.03-.08-.08-.06-.15-.03-.09-.09-.16-.14-.23-.06-.02-.08-.07-.05-.13-.02-.11-.09-.18-.16-.26h0c-.13-.09-.08-.28-.21-.37h0c-.05-.05-.1-.12-.14-.19-.06-.02-.08-.06-.06-.12-.02-.11-.09-.19-.17-.25h0c-.06-.05-.1-.12-.15-.19-.06-.02-.08-.05-.06-.12-.02-.12-.08-.2-.18-.25-.04-.08-.11-.14-.16-.21h0c-.06-.05-.11-.11-.15-.18-.06-.01-.09-.05-.07-.11-.01-.12-.08-.2-.19-.24-.03-.09-.09-.16-.18-.2-.04-.08-.11-.14-.18-.2h0c-.05-.07-.12-.13-.19-.19h0c-.06-.06-.13-.12-.18-.19h0c-.07-.06-.13-.12-.18-.19h0c-.07-.06-.13-.12-.18-.19h0c-.07-.06-.13-.12-.18-.19h0c-.07-.06-.13-.12-.19-.19h0c-.07-.06-.13-.13-.19-.19h0c-.06-.06-.12-.13-.2-.18-.05-.08-.11-.14-.2-.18-.04-.09-.1-.16-.2-.18-.05-.15-.25-.1-.32-.24h-.02c-.07-.06-.14-.11-.2-.17h0c-.06-.07-.12-.13-.21-.17-.07-.14-.26-.09-.33-.22h-.01c-.07-.05-.13-.12-.21-.16-.06-.1-.14-.18-.27-.18h-.06s-.03-.05-.03-.05c-.07-.06-.14-.12-.23-.15-.07.02-.12,0-.15-.07-.07-.03-.14-.08-.19-.13h0c-.07-.09-.16-.16-.28-.16h-.06s-.03-.04-.03-.04c-.08-.07-.16-.14-.27-.15-.05.03-.09.01-.11-.05-.08-.06-.15-.13-.25-.15-.05.03-.1.01-.12-.04-.08-.07-.16-.14-.28-.14h-.06s-.04-.04-.04-.04c-.11-.11-.28-.07-.39-.18-.06-.01-.12-.03-.18-.04-.08-.04-.15-.11-.24-.13-.06.03-.1.02-.13-.04-.12-.1-.29-.07-.4-.16-.06.03-.12.02-.16-.03-.12-.09-.29-.06-.41-.15-.06.03-.11.02-.16-.03-.13-.09-.3-.09-.44-.15-.11-.02-.21-.03-.32-.05-.13-.08-.29-.07-.43-.14-.11-.01-.22-.03-.33-.04-.18-.12-.42-.02-.61-.15-.18-.01-.35-.03-.53-.04-.21-.1-.45-.04-.65-.14-.35-.02-.7-.04-1.05-.05-1.26,0-2.52,0-3.78,0-.3.02-.59.03-.89.05-.19.12-.43.03-.62.14-.17.02-.35.03-.52.05-.13.07-.29.07-.43.14-.12.01-.24.03-.37.04-.11.1-.27.08-.39.14-.11.02-.23.04-.34.05-.13.08-.29.07-.42.15-.05.05-.1.06-.16.03-.12.09-.28.07-.4.16-.04.05-.09.06-.15.04-.13.09-.3.06-.42.17l-.04.05-.06-.02c-.11,0-.19.07-.28.14-.04.05-.08.07-.14.04-.09.03-.16.09-.24.13-.04.05-.09.07-.16.05-.07.05-.14.09-.22.13-.04.06-.1.07-.16.06-.07.05-.14.09-.22.14-.04.06-.09.08-.15.06-.08.03-.15.1-.23.14-.03.06-.07.07-.13.05-.1.02-.17.1-.25.16h0c-.09.13-.28.08-.36.22h.01c-.07.04-.14.09-.21.14-.01.06-.05.08-.11.06-.12.01-.2.08-.26.18-.07.04-.13.11-.2.15h-.02c-.07.14-.26.1-.32.24-.1.03-.16.1-.21.17h0c-.07.04-.13.12-.21.16h-.01c-.04.08-.09.12-.16.15-.01.07-.05.09-.12.08-.12.02-.2.08-.24.19-.1.03-.16.09-.2.18-.08.04-.15.11-.2.18-.08.05-.14.11-.2.19-.07.05-.13.12-.19.18-.07.06-.13.12-.19.19h0c-.06.06-.13.13-.19.19h0c-.07.06-.13.12-.19.19h0c-.07.05-.14.12-.19.19h0c-.08.05-.14.11-.18.19-.08.05-.15.11-.18.2-.09.04-.16.1-.18.2-.15.05-.1.25-.24.31l-.02.02c-.04.07-.1.14-.16.2h0c-.06.07-.13.12-.17.21-.1.05-.16.13-.19.24.02.06,0,.11-.07.12-.04.07-.08.13-.14.19h0c-.06.06-.13.12-.16.22-.15.07-.1.26-.22.35h0c-.07.08-.14.15-.16.26.02.06,0,.11-.06.13-.04.07-.09.14-.14.2h0c-.13.08-.08.26-.21.36h0c-.07.08-.15.16-.16.28v.07s-.05.04-.05.04c-.06.08-.13.15-.15.25.03.06,0,.1-.05.13-.06.08-.13.15-.14.26.03.06.01.1-.05.12-.06.08-.14.16-.14.27v.07s-.04.04-.04.04c-.1.11-.07.28-.17.39h0c-.12.11-.1.28-.18.42.03.06.01.11-.04.14-.09.12-.06.28-.16.4.03.07.01.12-.04.17-.07.12-.05.28-.15.38h0c-.17.16-.02.42-.19.58.03.07.02.12-.03.17-.08.13-.07.29-.14.43.04.05.03.1-.03.14-.15.18-.03.43-.16.61.04.06.03.1-.03.14-.18.23.02.55-.17.78.04.06.03.12-.02.17-.16.25,0,.57-.15.82-.01.1-.02.21-.04.31-.16.33,0,.72-.15,1.05.06.29.01.56-.05.84-.19.85.07,1.72-.15,2.56.11.18.11.36,0,.54.23.84-.05,1.72.16,2.57.06.17.08.35.03.53.19.31,0,.67.15.98.06.16.09.33.05.5.11.2.03.44.14.64.01.11.03.23.04.34.14.18.03.42.15.6l.05.3c.05.15.06.32.14.46.05.05.06.11.03.18.16.16.02.42.18.58.06.03.07.07.03.12.06.14.06.31.15.44.06.03.07.08.04.13.07.14.06.31.16.43l.05.05-.02.07c.05.15.05.33.18.45h0c.1.1.07.27.17.38l.05.04v.07c0,.11.07.18.12.26.06.03.07.08.05.14.02.09.09.16.13.24.06.04.07.09.05.16.09.12.06.3.2.4.08.12.05.29.2.38.04.07.08.14.13.21.06.02.08.06.05.12.01.11.09.18.16.26h0c.13.1.08.29.21.37h0c.05.06.1.13.14.2.06.02.08.06.06.12.01.11.09.19.17.26h0c.05.06.1.12.15.19.06.01.08.05.06.11.01.12.08.2.18.26.04.08.11.13.16.2h0c.12.08.08.29.24.33,0,.11.08.17.17.21.03.09.1.15.18.2.05.07.11.13.17.2h0c.06.06.12.13.17.19h.01c.07.06.12.12.17.19l.02.02c.07.04.13.09.16.17l.03.03c.07.03.13.09.16.16l.03.03c.07.03.13.09.16.16l.03.02c.07.04.13.09.17.16l.02.02c.07.05.13.1.18.17h.01c.07.07.13.12.19.18h0c.06.07.12.14.2.18.05.08.11.15.21.18.05.14.25.09.31.23l.03.02c.07.04.14.1.2.15h0c.06.07.12.14.21.17.07.14.26.1.34.22h.01c.07.06.12.13.21.16.07.14.26.1.35.21h0c.07.07.12.15.23.15.06.17.24.13.36.21.08.14.26.11.37.2.09.13.26.1.38.19.09.13.26.11.38.18.1.15.29.13.43.19h.07s.05.04.05.04c.11.1.28.06.39.16h0c.13.12.3.12.46.17l.06-.02.04.05c.14.11.31.11.46.16l.06-.02.04.05c.16.16.41.02.58.18h0c.19.17.45.07.65.17l.06-.02.04.04c.24.2.56,0,.8.18l.08-.02.07.05c.3.2.68-.03.98.17l.08-.03.08.05c.45.21.95-.03,1.41.16.23-.07.45-.03.68.03,1.2.13,2.4.14,3.59,0,.16-.07.32-.09.48-.03.39-.18.83.03,1.22-.16.1-.01.21-.02.31-.04.26-.15.57,0,.82-.15l.07-.05.09.02c.23-.18.56.02.79-.18l.04-.04.05.02c.21-.1.47,0,.66-.18h0c.16-.14.42,0,.58-.18h0c.15-.16.42,0,.56-.2h0c.12-.09.28-.06.39-.16l.05-.05h.07c.14-.05.32-.03.43-.17.12-.08.28-.06.38-.18h0c.11-.1.28-.07.38-.19h0c.1-.1.28-.07.37-.2h0c.11-.09.29-.06.37-.2.07-.04.14-.09.21-.14l.04-.06h.07c.12,0,.2-.08.26-.16h0c.09-.11.29-.06.35-.22.1-.01.16-.09.22-.16h0c.09-.11.29-.06.33-.24h0s0,0,0,0c0,0,0,0,0,0h0c.11.01.17-.06.21-.15.09-.03.15-.1.2-.17h0c.06-.06.13-.11.2-.17h.02c.14-.19.4-.22.51-.43.11-.01.17-.08.2-.18.1-.03.16-.09.19-.18.09-.03.16-.1.19-.19.09-.04.15-.1.19-.19.09-.03.16-.1.19-.19.1-.03.16-.09.18-.2.11-.02.17-.08.18-.2.17-.03.11-.25.25-.3l.02-.02c.05-.07.1-.14.16-.19h0c.06-.07.13-.13.17-.21.08-.05.15-.11.17-.21.16-.05.11-.25.23-.33h0c.05-.08.12-.14.16-.22.14-.07.09-.26.22-.34v-.02c.05-.08.12-.13.16-.21.14-.08.09-.27.22-.35h0c.07-.09.14-.16.16-.26-.02-.06,0-.1.06-.13.05-.07.09-.14.14-.21h0c.14-.07.11-.26.21-.37h0c.13-.09.09-.27.2-.37h0c.12-.1.09-.27.19-.38h0c.12-.1.09-.27.18-.39h0c.14-.1.11-.28.19-.41-.03-.06-.01-.11.04-.14.09-.11.05-.28.16-.38h0c.11-.12.1-.29.17-.43-.03-.06-.02-.1.04-.14.09-.13.08-.26-.01-.38h0c-.14-.1-.32-.12-.48-.16-.22-.02-.44-.04-.66-.06-.15-.06-.31-.09-.47-.13-.22-.02-.44-.04-.67-.06-.15-.06-.31-.08-.46-.13-.22-.02-.45-.04-.67-.06-.15-.05-.31-.08-.46-.13-.23-.02-.45-.04-.68-.06-.15-.05-.3-.08-.46-.13-.23-.02-.45-.04-.68-.06-.15-.06-.3-.08-.45-.13-.16-.02-.33-.03-.49-.05-.2-.11-.44-.03-.63-.14-.17-.02-.34-.03-.5-.05-.2-.11-.44-.03-.63-.14-.17-.02-.33-.03-.5-.05-.2-.11-.43-.03-.63-.14-.17-.02-.34-.03-.51-.05-.19-.07-.39-.13-.55.05v-.02c-.19.14-.02.41-.2.56h0c-.11.13-.11.3-.17.45l.02.07-.05.04c-.1.11-.07.28-.17.39h0c-.13.1-.1.28-.19.4.02.07,0,.12-.05.15-.04.07-.09.14-.13.21h0c-.14.07-.1.26-.21.36h0c-.08.07-.15.14-.17.26.02.06,0,.1-.07.12-.04.07-.09.13-.15.19h0c-.06.06-.13.12-.17.21-.09.04-.15.1-.18.2-.1.03-.17.09-.18.2-.11.02-.17.08-.19.19-.1.02-.16.09-.2.18-.09.03-.15.1-.21.17h0c-.06.05-.13.1-.2.15l-.03.06h-.07c-.12,0-.21.08-.28.17h0c-.06.05-.12.1-.2.13-.04.06-.1.08-.17.06-.07.05-.14.09-.21.13l-.19.05c-.1.12-.27.08-.38.16-.06.01-.12.02-.18.03-.11.11-.26.08-.38.15-.18.02-.35.04-.53.05-.37.19-.8-.02-1.17.14-.06,0-.13,0-.19,0-.34-.13-.71.01-1.05-.14-.23.06-.44,0-.66-.06-.13-.06-.28-.05-.4-.14-.06.03-.12.02-.16-.03-.13-.09-.29-.08-.43-.15-.06.03-.1.02-.14-.04-.11-.1-.28-.06-.39-.17l-.18-.05c-.07-.04-.15-.08-.21-.13-.07.02-.12,0-.17-.06-.07-.03-.14-.08-.2-.13h0c-.09-.12-.27-.07-.35-.21h-.02c-.08-.05-.13-.12-.21-.16-.06-.1-.13-.17-.25-.18-.06.02-.1,0-.12-.07-.07-.03-.13-.08-.17-.15h0c-.07-.06-.13-.12-.2-.18-.06-.07-.12-.13-.2-.18-.05-.08-.11-.14-.19-.19-.05-.08-.11-.14-.19-.19-.05-.08-.12-.14-.18-.2h0c-.06-.06-.12-.13-.17-.2h0c-.07-.05-.11-.11-.14-.18-.07-.02-.09-.06-.08-.13-.02-.11-.09-.19-.18-.25h0c-.05-.06-.1-.12-.15-.19-.06-.02-.08-.06-.06-.12-.01-.11-.09-.19-.16-.26h0c-.12-.1-.08-.28-.2-.37h0c-.1-.1-.07-.28-.19-.38h0c-.11-.1-.07-.27-.17-.38-.06-.03-.07-.07-.04-.12-.06-.15-.06-.32-.17-.45h0c-.18-.15-.02-.41-.18-.57-.06-.04-.06-.08-.03-.14-.12-.19-.02-.44-.16-.62-.05-.05-.06-.1-.02-.16-.18-.24,0-.54-.15-.78-.06-.22-.11-.43-.04-.66-.08-.35-.18-.69.02-1.03.3-.15.62-.08.93-.08,8.16,0,16.31,0,24.47,0,.28,0,.56.03.85.04.32-.21.06-.59.24-.84ZM291.56,78.57c-4.66,0-9.33,0-13.99,0-.97,0-.95.15-.88-.91.13-1.98.62-3.83,1.83-5.47,3.12-4.22,10.25-4.12,12.9,1.38.64,1.32.9,2.58,1.04,4.9-.33.15-.61.09-.89.09Z"/>
    </g>
    <path class="cls-3" d="M257.89,46.79c0,18.41,0,36.82,0,55.23-2.21.01-4.41.03-6.62.04-1.14,0-2.27-.03-3.41.01-.52.02-.67-.17-.61-.65.02-.16,0-.32,0-.47,0-17.7,0-35.39,0-53.09,0-1.11,0-1.11,1.08-1.11,3.19,0,6.37.02,9.56.03Z"/>
  </g>
  <g>
    <circle class="cls-2" cx="73.78" cy="82.15" r="63.7"/>
    <g>
      <path class="cls-6" d="M60.22,100.82c-.15-.83-.45-1.63-.69-2.43-.99-3.31-2.01-6.62-3.02-9.93-.08-.26-.16-.51-.41-.66,3.05-1.74,5.96-3.71,8.94-5.57,4.84-3.02,9.65-6.09,14.48-9.13,4.3-2.71,8.6-5.44,12.91-8.13.54-.34,1.11-.64,1.76-.75.41-.07.82-.04,1.05.35.25.42,0,.75-.29,1.04-1.06,1.01-2.16,1.99-3.25,2.96-1,.89-2.01,1.79-3,2.69-2.08,1.89-4.18,3.75-6.26,5.65-1.89,1.72-3.79,3.45-5.7,5.16-2,1.79-3.96,3.62-5.99,5.38-.04.04-.08.07-.12.11-.04.03-.08.07-.11.1-.02.02-.04.03-.05.05-.03.03-.07.06-.1.09-.02.02-.03.03-.05.05-.03.03-.06.06-.1.1-.02.02-.03.03-.05.05-.03.03-.07.06-.1.09-.03.03-.07.05-.11.08-.05.04-.11.07-.16.11-.03.03-.06.05-.1.08-.03.03-.06.06-.09.08,0,0-.05.04-.04.04-.03.03-.06.06-.09.08,0,0-.04.04-.04.04-.03.03-.06.06-.09.08,0,0-.04.04-.04.04-.03.03-.06.06-.09.09,0,0-.04.04-.04.04-.03.03-.06.06-.09.09-.01.02-.03.03-.04.04-.03.03-.06.06-.09.09-.02.02-.03.03-.05.05-.03.03-.07.06-.1.09-.04.03-.08.06-.12.08-.15.09-.27.22-.39.35-.76.75-1.56,1.46-2.37,2.16-.27.23-.43.49-.5.83-.11,1.49-.2,2.97-.31,4.45-.16,2.31-.29,4.62-.46,6.92-.1,1.3-.12,2.6-.28,3.89-.05.39-.19.63-.63.55-.18-.02-.38.05-.55-.06-.58-.22-.83-.69-1-1.25-.58-1.95-1.18-3.9-1.78-5.85-.01-.04-.05-.07-.07-.1-.11-.1-.01-.27-.12-.38h0Z"/>
      <path class="cls-7" d="M69.53,104.8c-.8.69-1.54,1.44-2.25,2.22,0,0,0,0,0,0-.04.05-.08.09-.13.13h0s-.08.09-.13.12h0s-.08.09-.13.12h0s-.08.09-.13.12h0c-.06.08-.18.05-.24.13h0s-.09.08-.13.12h0s-.08.09-.13.12h0c-.06.08-.18.05-.24.13h0c-.07.07-.18.05-.24.13h0c-.07.07-.18.05-.25.12h0c-.1.11-.28.01-.38.12h-.06s-.06.01-.06.01c-.24.14-.52-.03-.76.11-.2,0-.39,0-.59,0-.04-.01-.06-.03-.06-.06,0-.03.01-.05.02-.05.33.02.5-.07.53-.48.09-1.25.17-2.49.25-3.74.08-1.31.17-2.62.25-3.93.07-1.21.17-2.41.25-3.62.08-1.27.24-2.53.23-3.8,0-.2.06-.36.25-.45.4-.03.64.25.91.45,2.32,1.75,4.69,3.45,7.02,5.19.04.03.09.06.13.09.04.03.08.06.11.1.02.02.03.03.05.05.03.03.06.06.09.09.02.01.03.03.05.04.05.04.1.07.16.1.04.02.07.04.1.07.03.02.06.05.09.08,0,0,.04.04.04.04.03.03.06.05.09.08,0,0,.05.04.05.04.04.02.07.04.11.06.04.02.07.04.11.07.03.03.06.05.09.08.02.01.03.03.05.04.03.03.06.06.1.08.02.01.04.03.05.04.06.04.12.07.17.12.03.04.04.09.03.14-.02.05-.04.1-.07.14-.25.29-.53.55-.8.82-.04.04-.08.08-.12.12-.04.04-.08.08-.12.12-.02.02-.04.04-.06.06-.04.04-.08.08-.12.12-1.21,1.15-2.3,2.41-3.59,3.48-.21.17-.43.32-.63.49Z"/>
      <path class="cls-4" d="M63.1,69.56c1.83-.69,7.8-3.01,8.86-3.41,2.66-1.01,8.31-3.22,8.48-3.3.45-.4,1.05-.49,1.57-.74.62-.25,1.26-.46,1.88-.73.87-.31,1.72-.66,2.57-1,.74-.22,1.43-.57,2.16-.8.1-.04.2-.07.3-.12.05-.02.09-.04.14-.05.07-.02.14-.04.21-.07.04-.02.09-.04.13-.06.06-.03.13-.06.19-.09.04-.02.09-.03.13-.05.07-.02.13-.04.2-.07.04-.02.09-.03.13-.05.07-.02.13-.04.2-.06.04-.02.08-.04.13-.05.06-.03.13-.06.19-.09.04-.02.09-.04.14-.06.1-.03.19-.07.28-.12.05-.03.1-.05.15-.08,2.94-1.11,5.86-2.28,8.81-3.38.12-.03.24.06.35-.03h0c.09-.12.27-.01.37-.13h0c.07-.07.18-.06.26-.12h0c.09-.13.27-.02.37-.13h0c.08-.08.19-.07.28-.11.03,0,.06,0,.09-.02.07-.07.18-.05.25-.11h0c.09-.12.27-.01.37-.13h0c.08-.07.19-.06.27-.11.04,0,.07,0,.1-.02.07-.06.18-.04.24-.11h0c.08-.07.19-.06.28-.11.03,0,.06,0,.09-.02.11-.1.28-.02.4-.11.08,0,.15-.01.23-.02.33-.08.66-.09.99,0,.04.02.07.02.11.01.11.1.28.01.39.11.03.02.06.03.09.02.09.05.21.03.28.12h0s.09.06.13.1c.02.02.05.03.08.03.07.02.12.06.17.12h0s.09.07.13.11h0s.08.08.12.12h0c.03.05.07.09.12.12h0c.04.05.07.09.12.13h0s.09.08.12.13h0c.09.05.06.17.14.23h0c.04.05.08.09.11.14h0c.1.06.08.18.13.28,0,.03,0,.06.02.08.07.08.06.19.11.28,0,.03,0,.06.01.09.13.15,0,.36.12.51-.01.04,0,.07,0,.11.09.45.09.91,0,1.36-.41,1.95-.84,3.91-1.24,5.86-.09.44-.26.87-.25,1.33.04.04.06.08.05.14-.03.15-.05.3-.06.46,0,.05-.02.1-.04.15-.04.12-.07.25-.11.37-.02.05-.05.09-.1.12-.2.56-.31,1.15-.37,1.74.04.03.06.08.06.13-.02.12-.05.25-.07.37,0,.05-.02.1-.04.15-.05.15-.06.3-.11.45-.02.05-.06.09-.1.12-.29.86-.4,1.76-.6,2.64-.05.24-.16.47-.12.73-.17.23-.06.54-.25.77-.24-.25-.48-.22-.78-.09-3.32,1.43-6.61,2.91-9.92,4.36-3.61,1.58-7.22,3.17-10.83,4.76-3.63,1.6-7.26,3.19-10.89,4.78-.36.16-.72.36-1.1.06.45-.63,1.1-1.06,1.67-1.56.6-.53,1.17-1.1,1.78-1.62.64-.55,1.27-1.12,1.88-1.7.97-.92,2-1.78,3-2.66.49-.44.95-.91,1.46-1.34,1.11-.96,2.15-1.98,3.24-2.96.99-.9,2.02-1.75,3-2.66.54-.51,1.1-.99,1.65-1.5,1.03-.95,2.04-1.92,3.1-2.84,1.17-1.01,2.29-2.07,3.45-3.1.06-.05.11-.12.18-.17.24-.21.39-.46.24-.76-.15-.29-.45-.35-.75-.32-.66.05-1.23.34-1.78.68-1.96,1.22-3.9,2.47-5.85,3.7-3.03,1.91-6.07,3.82-9.1,5.74-2.02,1.28-4.04,2.56-6.06,3.83-2.68,1.69-5.37,3.39-8.05,5.08-2.23,1.41-4.47,2.81-6.7,4.22-.24.15-.49.22-.76.21-.79-.24-1.58-.47-2.37-.71-4.28-1.33-8.55-2.67-12.82-4-.61-.19-1.22-.39-1.76-.74-.67-.43-1.1-1-1.01-1.84.36-.86,1.03-1.42,1.81-1.87,1.03-.59,2.15-.95,3.24-1.39.92-.37,5.28-2.05,6.36-2.46l13.55-5.22Z"/>
      <path class="cls-5" d="M70.51,87.55c.43.05.8-.1,1.18-.27,1.12-.51,2.27-.98,3.4-1.48,1.19-.52,2.37-1.05,3.56-1.58,1.26-.56,2.53-1.1,3.8-1.66,1.13-.5,2.26-1,3.39-1.5,1.62-.71,3.25-1.42,4.87-2.13,1.53-.67,3.05-1.36,4.58-2.04,1.85-.81,3.7-1.61,5.56-2.41.77-.34,1.55-.68,2.32-1.03.11-.05.22-.11.34-.15.4-.14.42-.12.52.37,0,.04,0,.07-.01.1-.13.15,0,.36-.12.51.01.04,0,.08-.01.11-.1.12-.03.28-.1.41,0,.07-.02.14-.03.21-.1.12-.02.28-.1.4.01.03,0,.07-.01.1-.14.15,0,.36-.12.52.01.04,0,.07-.01.1-.13.15,0,.36-.11.51.01.04,0,.08-.01.11-.1.12-.02.28-.1.4.01.03,0,.06,0,.09-.14.15,0,.37-.12.52.01.03,0,.07-.01.1-.13.15,0,.36-.12.51-.11.96-.38,1.9-.56,2.85-.18.95-.46,1.88-.56,2.85-.19.52-.25,1.07-.38,1.6-.02.1-.03.2-.11.28-1.3.43-2.51,1.05-3.76,1.6-2.38,1.06-4.77,2.08-7.14,3.14-3.54,1.59-7.11,3.11-10.66,4.69-1.85.82-3.72,1.59-5.56,2.44-.28.13-.53.33-.83.4-.25-.01-.38-.22-.56-.36-2.19-1.62-4.38-3.24-6.58-4.86-.3-.22-.61-.42-.91-.63-.12-.18-.04-.31.11-.41.68-.46,1.16-1.15,1.83-1.62.33-.24.55-.6.91-.82.18-.11.36-.2.49-.38h0s.09-.08.13-.12h0s.09-.08.13-.12h0s.09-.08.13-.12h0s.09-.08.13-.12h0s.08-.08.12-.12c.04-.04.08-.08.12-.12h0s.08-.08.12-.12h0c.12-.09.26-.15.37-.25h0s.09-.08.13-.12h0s.09-.08.13-.12h0s.09-.08.13-.12h0s.09-.08.13-.12h0Z"/>
      <path class="cls-1" d="M73.48,98.23c.1-.19.25-.32.45-.41,1.07-.47,2.15-.95,3.22-1.42,1.21-.53,2.42-1.04,3.62-1.57,1.6-.7,3.2-1.41,4.8-2.12,1.24-.55,2.5-1.07,3.73-1.64,1.42-.66,2.86-1.26,4.3-1.89,1.24-.54,2.49-1.09,3.73-1.64,1.22-.54,2.44-1.09,3.66-1.64.16-.07.31-.13.43.06,0,.04,0,.07-.02.1-.13.15,0,.36-.12.51.01.04,0,.08-.01.11-.12.15.01.35-.11.5.01.04,0,.08-.02.12-.09.12-.02.28-.1.4.01.03,0,.06-.01.09-.14.15,0,.36-.12.52.01.04,0,.07-.01.11-.13.15,0,.36-.11.51.01.04,0,.08-.01.12-.1.12-.02.28-.1.4.01.03,0,.06-.01.09-.14.15,0,.36-.12.52.01.04,0,.07-.01.1-.13.15,0,.36-.11.51,0,.55-.26,1.05-.25,1.6-.02.03-.03.06-.01.09-.09.12-.02.28-.1.4,0,.07-.02.14-.03.21-.08.13-.01.29-.1.41-.02.03-.03.07-.01.11-.12.15,0,.36-.11.51-.02.03-.03.06-.01.1-.12.16.01.37-.12.52-.02.03-.03.06-.01.09-.08.12-.01.28-.1.4-.2.53-.24,1.11-.38,1.65-.03.12-.03.24-.12.34-2.87,1.21-5.7,2.49-8.55,3.74-2.57,1.12-5.14,2.25-7.7,3.38-.21.09-.4.21-.6.32-.07.04-.15.08-.24.09-.05,0-.1,0-.15-.02-.04-.02-.09-.05-.12-.08-.02-.01-.03-.03-.05-.05-.03-.03-.06-.06-.09-.09-.02-.01-.03-.03-.05-.04-.05-.04-.1-.07-.16-.1-.04-.02-.07-.04-.1-.06-.03-.02-.06-.05-.09-.08,0,0-.04-.04-.04-.04-.03-.03-.06-.05-.09-.08,0,0-.05-.04-.05-.04-.05-.03-.11-.06-.16-.09-.04-.02-.07-.04-.11-.07-.04-.03-.07-.06-.1-.08-.02-.01-.03-.03-.05-.04-.05-.04-.11-.08-.16-.11-.04-.02-.07-.05-.11-.07-.03-.03-.07-.05-.1-.08-.02-.01-.03-.03-.05-.04-.05-.04-.1-.07-.15-.1-.04-.02-.07-.04-.1-.06-.03-.02-.06-.05-.09-.08,0,0-.04-.04-.04-.04-.03-.03-.06-.05-.09-.08,0,0-.05-.04-.05-.04-.04-.02-.07-.04-.11-.06-.04-.02-.07-.04-.11-.07-.03-.03-.06-.05-.09-.08-.02-.01-.03-.03-.05-.04-.03-.03-.06-.06-.09-.08,0,0-.05-.04-.05-.04-.04-.02-.07-.04-.11-.06-.04-.02-.07-.04-.1-.07-.03-.02-.06-.05-.09-.08,0,0-.04-.04-.04-.04-.03-.03-.06-.06-.09-.08,0,0-.05-.04-.05-.04-.06-.03-.11-.06-.17-.09-.04-.02-.08-.05-.12-.08-.04-.03-.08-.06-.12-.09-.02-.02-.04-.03-.06-.05-.6-.48-1.29-.84-1.84-1.4-.05-.06-.09-.11-.15-.17-.04-.03-.07-.06-.1-.09-.03-.03-.07-.06-.1-.09-.02-.01-.03-.03-.05-.05-.03-.03-.06-.06-.1-.09-.02-.01-.03-.03-.05-.04-.04-.02-.07-.04-.11-.06-.04-.02-.07-.04-.11-.07-.03-.02-.06-.05-.09-.08,0,0-.04-.04-.04-.04-.03-.03-.06-.05-.09-.08,0,0-.05-.04-.05-.04-.05-.03-.1-.06-.16-.09-.04-.02-.07-.05-.08-.09,0-.04-.03-.08-.06-.1h0c-.06-.08-.18-.05-.24-.13h0s-.09-.08-.13-.12h0s-.08-.09-.13-.12h0c-.06-.08-.18-.05-.24-.13h0s-.08-.08-.13-.12h0s-.08-.09-.13-.12h0c-.06-.08-.18-.05-.24-.13h0s-.08-.08-.13-.12h0s-.08-.09-.13-.12h0Z"/>
      <path class="cls-8" d="M82.04,104.58c.19-.37.59-.44.91-.59,1.33-.61,2.67-1.19,4.01-1.77,1.47-.64,2.95-1.27,4.42-1.91,1.17-.51,2.34-1.04,3.5-1.56,1.17-.52,2.34-1.04,3.5-1.56.22-.1.44-.07.67-.08-.11.96-.39,1.88-.55,2.82-.06.34-.12.68-.18,1.02-.34,1.23-.55,2.48-.82,3.72-.27,1.2-.52,2.4-.77,3.61-.03.12-.02.24-.03.37-.23,2.41-1.89,3.83-3.89,3.42-1.08-.22-2.02-.69-2.86-1.39-.05-.03-.09-.07-.13-.1-.02-.02-.04-.04-.06-.05-.04-.03-.07-.07-.11-.11-.02-.02-.03-.03-.05-.05-.05-.05-.1-.09-.16-.12-.04-.02-.07-.04-.11-.07-.03-.03-.06-.05-.09-.08-.01-.01-.03-.03-.04-.04-.03-.03-.06-.06-.09-.08,0,0-.05-.04-.05-.04-.05-.03-.11-.06-.16-.09-.04-.02-.07-.05-.11-.07-.04-.03-.07-.06-.1-.08-.02-.01-.03-.03-.05-.04-.05-.04-.11-.08-.16-.11-.04-.02-.07-.05-.11-.07-.03-.03-.07-.05-.1-.08-.02-.01-.03-.03-.05-.04-.05-.04-.1-.07-.16-.1-.04-.02-.07-.04-.1-.06-.03-.02-.06-.05-.09-.08,0,0-.04-.04-.04-.04-.03-.03-.06-.05-.09-.08,0,0-.05-.04-.05-.04-.04-.02-.07-.04-.11-.06-.04-.02-.07-.04-.11-.07-.03-.03-.06-.05-.09-.08-.02-.01-.03-.03-.05-.04-.03-.03-.06-.06-.09-.08,0,0-.05-.04-.05-.04-.04-.02-.07-.04-.11-.06-.04-.02-.07-.04-.11-.07-.03-.03-.06-.05-.09-.08-.02-.01-.03-.03-.05-.04-.03-.03-.06-.06-.09-.08,0,0-.05-.04-.05-.04-.04-.02-.07-.04-.11-.06-.04-.02-.07-.04-.11-.07-.03-.03-.06-.05-.09-.08-.02-.01-.03-.03-.05-.04-.03-.03-.06-.06-.09-.08-.02-.01-.03-.02-.05-.04-.04-.02-.07-.04-.11-.06-.04-.02-.07-.04-.11-.07-.03-.03-.07-.05-.1-.08-.02-.01-.03-.02-.05-.04-.04-.02-.07-.04-.11-.06-.04-.02-.07-.04-.11-.07-.03-.03-.06-.05-.09-.08-.02-.01-.03-.03-.05-.04-.03-.03-.06-.06-.09-.08,0,0-.05-.04-.05-.04-.04-.02-.07-.04-.11-.06-.04-.02-.07-.04-.11-.07-.03-.03-.06-.05-.09-.08-.02-.01-.03-.03-.05-.04-.03-.03-.06-.06-.09-.08,0,0-.05-.04-.05-.04-.04-.02-.07-.04-.11-.06-.04-.02-.07-.04-.11-.07-.03-.03-.06-.05-.09-.08-.02-.01-.03-.03-.05-.04-.03-.03-.06-.06-.09-.08,0,0-.05-.04-.05-.04-.04-.02-.07-.04-.11-.06-.04-.02-.07-.04-.1-.07-.03-.02-.06-.05-.09-.08,0,0-.04-.04-.04-.04-.03-.03-.06-.05-.09-.08,0,0-.05-.04-.05-.04-.05-.03-.11-.06-.16-.09-.04-.02-.07-.04-.11-.07-.04-.03-.07-.06-.1-.08-.02-.01-.03-.03-.05-.04-.05-.04-.11-.08-.16-.11-.04-.02-.07-.05-.11-.07-.03-.03-.07-.05-.1-.08-.02-.01-.03-.03-.05-.04-.05-.04-.1-.07-.15-.1-.04-.02-.07-.04-.1-.06-.03-.02-.06-.05-.09-.08,0,0-.04-.04-.04-.04-.03-.03-.06-.05-.09-.08,0,0-.05-.04-.05-.04-.04-.02-.07-.04-.11-.06-.04-.02-.07-.04-.11-.07-.03-.03-.07-.06-.1-.09-.02-.02-.03-.03-.05-.05-.03-.03-.05-.07-.08-.11,0-.02-.01-.04-.01-.06.01-.02.02-.04.03-.06Z"/>
    </g>
  </g>
</svg>