<?xml version="1.0" encoding="UTF-8"?>
<svg id="Layer_1" data-name="Layer 1" xmlns="http://www.w3.org/2000/svg" version="1.1" viewBox="0 0 500 165">
  <defs>
    <style>
      .cls-1 {
        fill: #4ab975;
        stroke-width: 0px;
      }
    </style>
  </defs>
  <path class="cls-1" d="M206.96,84.92c-.18,8.75.34,19.41-.28,30.06-.49,8.38-2.46,16.33-7.03,23.51-5.05,7.94-12.37,12.55-21.32,14.92-5.73,1.52-11.56,1.52-17.36,1.13-7.84-.52-15.1-2.9-21.54-7.58-1.22-.89-1.46-1.69-.78-2.96,2.48-4.65,4.96-9.3,7.35-13.99.79-1.54,1.58-1.56,2.92-.66,4.91,3.28,10.31,4.74,16.26,4.56,9.48-.29,16.93-6.96,18-16.42.24-2.08.63-4.15.49-6.25-.03-.42.21-.97-.32-1.19-.51-.21-.83.24-1.13.55-3.5,3.65-7.74,5.85-12.68,6.93-8.05,1.76-15.52.35-22.62-3.59-8.73-4.85-14.29-12.3-16.86-21.79-1.55-5.69-1.98-11.55-.79-17.53,1.17-5.92,3.1-11.43,6.8-16.15,7.92-10.1,18.19-14.95,31.19-13.55,5.85.63,10.72,3.15,14.94,7.12.33.31.59.78,1.12.5.47-.24.33-.78.41-1.21.25-1.38-.73-3.13.65-4.1,1.2-.85,2.84-.31,4.28-.32,5.28-.06,10.57,0,15.85-.06,1.84-.02,2.52.55,2.51,2.54-.1,11.21-.05,22.42-.05,35.53ZM183.65,81.37c.29-8.53-7.77-15.99-15.75-15.83-8.81.18-15.9,6.96-15.98,15.29-.1,9.77,6.88,16.47,15.85,16.55,9.31.08,15.87-7.44,15.88-16Z"/>
  <path class="cls-1" d="M316.02,109.68c0,1.79-.07,3.07.02,4.33.1,1.47-.55,1.88-1.93,1.87-6.38-.05-12.76-.06-19.13,0-1.55.01-2.11-.57-2.07-2.07.06-2.28,0-4.55,0-6.83,0-30.79,0-61.59,0-92.38,0-5.26,0-4.26,4.19-4.28,5.38-.02,10.75-.01,16.13-.02,2.73,0,2.82.05,2.82,2.71,0,12.12-.01,24.23-.02,36.35,0,.55-.07,1.1,0,1.64.07.58-.29,1.39.51,1.66.61.2.92-.46,1.29-.83,2.57-2.52,5.61-4.32,8.95-5.59,4.17-1.58,8.52-1.78,12.9-1.45,10.04.78,17.89,5.74,23.99,13.42,3.21,4.04,4.98,8.95,6.56,13.93,1.53,4.83,1.28,9.7.89,14.49-.39,4.75-2.21,9.37-4.57,13.51-4.55,7.98-11.03,13.92-20.05,16.56-10.76,3.15-20.68,1.97-29.14-6.08-.25-.23-.56-.4-1.32-.93ZM316.08,81.23c.06,9.35,7.39,15.94,15.59,16.16,9.04.24,16.52-7.32,16.33-16.22-.18-8.29-6.91-15.57-15.75-15.64-9.27-.08-16.11,7.53-16.17,15.7Z"/>
  <path class="cls-1" d="M228.56,74.9c7.6-3.14,15.55-3.46,23.59-2.27,1.43.21,2.82.7,4.24,1,1.23.26,1.6-.18,1.35-1.48-.88-4.66-5.23-8.15-10.73-8.35-4.81-.18-9.36.99-13.76,2.84-.67.28-1.35.56-1.98.91-1.01.57-1.72.39-2.16-.7-1.93-4.7-3.82-9.42-5.81-14.1-.53-1.25.21-1.63,1-2.1,3.23-1.92,6.75-3.2,10.36-4.11,7.11-1.78,14.34-2.59,21.63-1.31,10.19,1.78,17.77,7.13,21.92,16.77,2.25,5.22,3.34,10.74,3.34,16.45,0,11.48,0,22.96,0,34.43,0,2.97-.01,2.96-3,2.96-5.83,0-11.66-.05-17.49.04-1.71.02-2.85-.17-2.65-2.28.06-.64.13-1.65-.65-1.9-.76-.24-1.23.63-1.79,1.06-10.18,7.81-25,7.3-34.13-1.19-2.22-2.06-7.06-5.92-7.06-17.86,0-9,6.2-15.69,13.76-18.82ZM245.33,102.03c7.17.08,12.3-6.49,12.74-12.05.13-1.63-1.19-1.77-2.11-1.97-2.3-.51-4.65-1.06-6.98-1.06-3.56,0-7.13.48-9.65,3.48-1.75,2.07-1.94,4.44-.8,6.87,1.44,3.08,4.02,4.48,6.8,4.74Z"/>
</svg>