<?xml version="1.0" encoding="UTF-8"?>
<svg id="Layer_1" data-name="Layer 1" xmlns="http://www.w3.org/2000/svg" version="1.1" viewBox="0 0 500 165">
  <defs>
    <style>
      .cls-1 {
        fill: #242424;
      }

      .cls-1, .cls-2, .cls-3, .cls-4, .cls-5, .cls-6, .cls-7, .cls-8 {
        stroke-width: 0px;
      }

      .cls-2 {
        fill: #f04a23;
      }

      .cls-3 {
        fill: #242423;
      }

      .cls-4 {
        fill: #f04b24;
      }

      .cls-5 {
        fill: #252524;
      }

      .cls-9 {
        fill: #fff;
        stroke: #231f20;
        stroke-miterlimit: 10;
      }

      .cls-6 {
        fill: #f04b23;
      }

      .cls-7 {
        fill: #252424;
      }

      .cls-8 {
        fill: #f04d24;
      }
    </style>
  </defs>
  <circle class="cls-9" cx="112.17" cy="82.39" r="62.87"/>
  <g>
    <path class="cls-2" d="M184.83,82.45c.01,39.9-32.22,72.31-72.16,72.3-40.09,0-72.53-32.69-72.14-72.99.38-39.64,32.62-71.58,72.26-71.52,39.77.06,72.04,32.4,72.04,72.21ZM114.91,65.93c-.01-.13-.03-.17-.02-.2,1.53-7.23,3.06-14.46,4.6-21.69.14-.68.17-.68.91-.53,4.71,1.01,9.42,2.02,14.13,3.02.59.13.79.38.88,1.01.56,4.03,4.35,6.81,8.48,6.25,3.86-.53,6.78-4.13,6.35-8.2-.31-2.99-2.45-5.58-5.31-6.4-3.05-.87-6.19.03-7.96,2.59-.79,1.14-1.53,1.37-2.68.94-.1-.04-.21-.06-.32-.08-4.96-1.06-9.92-2.12-14.89-3.17-1.63-.34-2.37.15-2.71,1.74-1.69,7.95-3.37,15.9-5.06,23.85-.2.92-.19.94-1.1,1-1.91.12-3.82.26-5.72.54-7.67,1.12-14.86,3.54-21.3,7.94-.47.32-.77.33-1.23-.04-2.37-1.94-5.1-2.72-8.14-2.34-5.02.62-9.3,4.99-9.11,10.74.13,3.93,2.03,6.93,5.46,8.88.55.31.7.62.62,1.21-.27,1.87-.19,3.75.11,5.61.83,5.17,3.34,9.46,6.93,13.17,4.09,4.22,9.02,7.16,14.47,9.28,5.39,2.09,10.99,3.22,16.76,3.58,6.94.44,13.75-.29,20.41-2.29,6.2-1.86,11.88-4.73,16.71-9.11,2.78-2.53,5.08-5.43,6.65-8.86,1.69-3.7,2.37-7.57,1.81-11.61-.06-.44.06-.67.45-.84.27-.12.51-.29.76-.45,5.01-3.24,6.44-9.8,3.21-14.73-3.41-5.2-10.44-6.31-15.4-2.44-.74.58-.74.58-1.47.09-5.15-3.49-10.83-5.72-16.87-7.09-3.42-.77-6.88-1.19-10.44-1.36Z"/>
    <path class="cls-5" d="M390.63,72.92c.17-.44.1-.85.1-1.24,0-6.93,0-13.86,0-20.78,0-.77,0-1.54.27-2.29.77-2.23,3.04-3.76,5.29-3.54,2.46.24,4.35,1.98,4.74,4.36.08.47.11.95.11,1.43,0,21.7,0,43.4,0,65.1,0,1.81-.39,3.43-1.81,4.67-2.69,2.37-6.92,1.36-8.25-1.96-.09-.24-.17-.48-.25-.71-.36-.06-.46.22-.64.38-3.2,2.91-6.98,4.5-11.29,4.66-9.46.37-16.5-3.93-21.5-11.69-6.09-9.46-6-22.32.13-31.81,3.41-5.29,8.06-9.04,14.2-10.71,5.11-1.39,10.12-1.14,14.9,1.36,1.11.58,2.13,1.31,3.08,2.13.27.23.5.52.92.63ZM363.32,95.8c.11,5.02,1.66,9.75,5.62,13.42,3.43,3.17,7.47,4.31,12.03,3.01,3.87-1.1,6.56-3.68,8.46-7.12,1.96-3.54,2.67-7.37,2.31-11.39-.41-4.68-2.13-8.76-5.63-11.99-2.15-1.98-4.68-3.17-7.62-3.38-4.18-.29-7.64,1.31-10.42,4.34-3.31,3.61-4.71,7.98-4.77,13.1Z"/>
    <path class="cls-1" d="M336.83,73.05c0-.46,0-.82,0-1.17,0-7.15,0-14.3,0-21.45,0-2.23.98-3.9,3.01-4.86,3.27-1.55,7.05.68,7.36,4.32.02.26.02.52.02.77,0,21.89,0,43.78,0,65.66,0,1.62-.46,3.02-1.66,4.17-2.52,2.43-6.81,1.64-8.27-1.55-.15-.32-.27-.66-.44-1.08-.45.38-.83.71-1.22,1.03-3.15,2.58-6.77,3.98-10.83,4.11-8.9.29-15.66-3.64-20.69-10.74-2.89-4.07-4.45-8.67-4.92-13.65-.73-7.56.99-14.48,5.49-20.62,3.56-4.86,8.24-8.17,14.18-9.46,5.71-1.24,11.12-.55,15.97,2.97.33.24.63.51.95.76.31.23.52.6,1.03.79ZM338.02,95.59c.02-1.22-.07-2.43-.29-3.63-.82-4.42-2.7-8.26-6.36-11-4.06-3.04-8.47-3.53-13.07-1.3-3.32,1.61-5.54,4.33-7.04,7.63-1.78,3.94-2.19,8.08-1.35,12.3.8,4,2.6,7.48,5.79,10.15,2.4,2.01,5.18,3.09,8.32,3,3.9-.1,7.07-1.83,9.58-4.76,3.05-3.56,4.37-7.76,4.42-12.39Z"/>
    <path class="cls-7" d="M257.16,98.99c.29,2.09,1.01,4.01,2,5.82,1.64,2.99,3.9,5.36,7.07,6.71,4.45,1.89,8.7,1.17,12.76-1.24,1.08-.64,2.06-1.41,3-2.25.97-.87,2.06-1.56,3.36-1.81,2.27-.43,4.26.44,5.41,2.32,1.13,1.87,1.04,4.25-.33,6.01-1.66,2.11-3.73,3.76-6.04,5.1-3.23,1.88-6.74,2.82-10.46,3.18-3.39.32-6.7.06-9.91-1.03-5.82-1.98-10.18-5.78-13.36-10.98-2.38-3.89-3.72-8.14-4.09-12.69-.65-8.1,1.42-15.38,6.66-21.65,3.66-4.38,8.3-7.24,13.96-8.23,5.7-1,11.06.06,15.95,3.2,6.34,4.06,10.08,9.96,11.82,17.19.4,1.67.64,3.41.33,5.14-.62,3.41-3.87,5.36-6.74,5.16-.33-.02-.65-.07-.98-.07-9.8,0-19.6,0-29.4,0-.29,0-.59-.06-1,.13ZM284.35,89.78c.01-.12.04-.2.02-.26-1.11-3.5-3-6.48-6.01-8.62-4.37-3.12-8.99-3.4-13.66-.74-3.19,1.81-5.25,4.65-6.6,8.02-.2.5-.5.99-.43,1.6h26.69Z"/>
    <path class="cls-3" d="M450.25,78.48c-.13.44-.07.88-.07,1.32,0,11.97,0,23.94,0,35.92,0,.48-.02.96-.03,1.44-.03,2.49-2.29,4.97-5.48,4.95-2.72-.02-4.95-2.38-4.95-5.21-.02-10.61,0-21.22,0-31.83,0-1.92,0-3.83,0-5.75,0-.81-.01-.82-.86-.82-1.18,0-2.36.03-3.54-.01-2.86-.1-4.83-2.43-4.49-5.27.24-2,1.88-3.66,3.91-3.92,1.35-.18,2.72-.06,4.08-.08.94-.02.94-.01.95-.99,0-2.06-.01-4.13,0-6.19.02-2.48,1.3-4.36,3.41-5.17,3.38-1.31,6.68,1.23,6.95,4.34.17,2.02.02,4.05.08,6.07.02.57-.27,1.3.15,1.69.41.37,1.13.11,1.71.12.92.02,1.84,0,2.76,0,2.36.04,4.3,1.71,4.61,3.95.34,2.37-1.01,4.42-3.35,5.15-.36.11-.72.16-1.09.16-1.22,0-2.43,0-3.65.02-.36,0-.74-.09-1.09.1Z"/>
    <path class="cls-5" d="M224.24,74.73c2.6-3,5.78-4.95,9.54-5.98,2.88-.78,5.8-.97,8.75-.54,2.7.4,4.7,2.89,4.48,5.55-.23,2.72-2.4,4.73-5.18,4.71-1.43,0-2.85-.19-4.29.02-5.44.76-9.24,3.74-11.66,8.56-1.23,2.44-1.77,5.07-1.77,7.78-.02,7.29,0,14.59-.01,21.88,0,2.38-1.43,4.31-3.63,4.97-3.3,1-6.56-1.35-6.73-4.86,0-.15,0-.29,0-.44,0-13.97,0-27.94,0-41.92,0-2.09.89-3.71,2.72-4.71,3.43-1.89,7.49.45,7.65,4.36,0,.17-.06.36.15.6Z"/>
    <path class="cls-7" d="M413.62,97.77c0-6.23,0-12.45,0-18.68,0-2.56,1.45-4.51,3.81-5.19,3.09-.9,6.35,1.36,6.57,4.58.02.26.01.52.01.77,0,12.37,0,24.74,0,37.1,0,1.98-.67,3.6-2.35,4.71-1.64,1.08-3.39,1.19-5.14.32-1.75-.87-2.72-2.33-2.89-4.27-.07-.8-.02-1.62-.02-2.43,0-5.64,0-11.28,0-16.91Z"/>
    <path class="cls-4" d="M418.87,50.88c5.07.02,9.12,4.1,9.08,9.17-.04,5.31-4.47,9.16-9.19,9.08-5.05-.08-9.15-4.09-9.09-9.18.07-5.56,4.63-9.2,9.19-9.07Z"/>
    <path class="cls-6" d="M88.68,89.97c0-4.16,3.33-7.47,7.52-7.45,4.1.02,7.44,3.37,7.42,7.45-.01,4.16-3.35,7.51-7.49,7.53-4.13.02-7.45-3.33-7.45-7.54Z"/>
    <path class="cls-4" d="M129.27,97.59c-4.17.02-7.62-3.38-7.55-7.57.08-4.39,3.52-7.4,7.47-7.44,4.07-.04,7.48,3.36,7.51,7.4.03,4.11-3.37,7.59-7.43,7.61Z"/>
    <path class="cls-8" d="M112.92,115.47c-4.13-.13-8.1-.55-11.92-1.93-1.77-.64-3.45-1.47-4.94-2.64-.4-.32-.8-.66-1.14-1.04-.74-.81-.72-1.93.02-2.68.7-.71,1.8-.8,2.6-.14.68.56,1.33,1.16,2.1,1.6,2.07,1.19,4.31,1.86,6.63,2.3,5.1.94,10.17.83,15.2-.5,2.37-.63,4.58-1.56,6.4-3.29.81-.77,1.99-.72,2.68,0,.71.74.73,2-.04,2.8-1.08,1.13-2.37,1.97-3.77,2.66-2.73,1.34-5.64,2.06-8.65,2.46-1.75.23-3.52.33-5.18.4Z"/>
  </g>
</svg>