<?xml version="1.0" encoding="UTF-8"?>
<svg id="Layer_1" data-name="Layer 1" xmlns="http://www.w3.org/2000/svg" version="1.1" viewBox="0 0 500 165">
  <defs>
    <style>
      .cls-1 {
        fill: #27b7e9;
        stroke-width: 0px;
      }
    </style>
  </defs>
  <path class="cls-1" d="M421.45,146.2c-.61-.09-1.21-.21-1.82-.26-6.71-.51-12.93-2.38-18.29-6.57-3.25-2.54-5.91-5.62-7.88-9.26-.18-.33-.36-.67-.6-1.11-.4.22-.77.39-1.12.61-5.86,3.6-11.92,6.83-18.32,9.35-6.54,2.57-13.26,4.47-20.21,5.59-5.38.87-10.78,1.28-16.22,1.08-4.49-.17-8.87-.99-13.01-2.82-4.51-2-8.18-4.99-10.87-9.14-.34-.52-.69-1.04-1.04-1.56-.05-.07-.14-.11-.27-.21-1.29,1.04-2.57,2.12-3.9,3.13-5.3,4.07-11.07,7.25-17.58,8.99-2.8.75-5.65,1.21-8.53,1.24-1.95.02-3.96-.16-5.85-.62-4.27-1.04-7-3.88-8.26-8.04-.98-3.25-1.05-6.59-.78-9.98.52-6.53,2.21-12.83,3.69-19.17.87-3.74,1.58-7.5,1.85-11.33.14-2.02-.05-4.03-.79-5.94-.9-2.3-2.89-3.33-5.31-2.83-2.38.49-4.13,1.97-5.74,3.65-2.37,2.47-4.36,5.24-6.1,8.18-2.93,4.96-5.63,10.04-7.47,15.53-1.41,4.19-2.44,8.45-2.81,12.88-.31,3.65-.38,7.29.1,10.91.2,1.51.66,2.99,1.02,4.47.11.46.26.91.41,1.4-.25.08-.42.18-.6.18-3.27.04-6.54.07-9.78-.45-2.28-.36-4.51-.89-6.67-1.72-5.3-2.04-8.36-5.92-9.56-11.37-.85-3.89-.69-7.81-.41-11.75.36-4.86,1.7-9.51,2.81-14.22.9-3.84,1.54-7.71,1.34-11.67-.03-.52-.13-1.04-.21-1.56-.64-4.25-4.99-5.56-8.31-3.93-1.05.52-2.01,1.32-2.86,2.15-2.58,2.51-4.43,5.55-6.08,8.7-2.96,5.68-5.26,11.61-6.56,17.9-.76,3.67-1.32,7.37-1.32,11.11,0,3.64.1,7.29.31,10.93.09,1.56.56,3.1.86,4.65.06.32.17.64.26.97-.16.1-.27.23-.39.23-5.38.22-10.65-.24-15.66-2.4-4.98-2.15-8.27-5.79-9.77-11.02-.1-.36-.22-.71-.35-1.15-1.61,1.38-3.15,2.74-4.75,4.04-5.34,4.35-11.2,7.75-17.84,9.73-3.19.95-6.46,1.45-9.78,1.56-2.92.09-5.75-.44-8.28-2.02-3.66-2.3-5.51-5.77-6.23-9.92-.73-4.19-.08-8.31.7-12.42,1.59-8.39,4.14-16.53,6.35-24.77.48-1.8.94-3.62,1.41-5.42.41-1.58.33-3.15-.15-4.68-.75-2.41-2.76-3.3-4.97-2.08-1.72.95-3.32,2.11-4.93,3.23-.36.25-.65.72-.81,1.14-2.92,8.06-7.33,15.31-12.3,22.22-3.5,4.87-7.18,9.62-10.95,14.29-4.02,4.98-8.44,9.6-13.49,13.57-3.79,2.98-7.84,5.55-12.6,6.76-3.19.81-6.28.79-9.16-1.06-1.72-1.11-3.1-2.57-4.3-4.21-3.07-4.2-5.01-8.91-6.37-13.91-2.66-9.8-5.33-19.6-8.12-29.36-.75-2.61-1.82-5.15-2.94-7.64-.62-1.38-1.59-2.62-2.51-3.84-.42-.55-1.07-.95-1.68-1.32-.88-.54-1.81-.57-2.72,0-1.87,1.18-3.74,2.34-5.61,3.52-.36.22-.7.47-1.16.78-1.59-2.06-3.14-4.06-4.76-6.16.93-.85,1.8-1.65,2.68-2.44,4.34-3.87,8.65-7.77,13.04-11.58,3.2-2.77,6.57-5.34,10.44-7.13,3.94-1.82,7.76-1.5,11.35.91,1.75,1.18,2.92,2.9,3.87,4.76,1.56,3.07,2.31,6.38,2.89,9.75,1.25,7.22,2.38,14.46,3.79,21.65.69,3.51,1.84,6.94,2.86,10.38.33,1.09.88,2.13,1.4,3.15.3.59.7,1.15,1.14,1.65,1.21,1.36,2.46,1.56,3.96.53.86-.59,1.7-1.29,2.37-2.09,4.89-5.81,8.85-12.18,11.41-19.36.81-2.29,1.01-4.67.45-7.08-.57-2.44-2.15-3.8-4.54-4.22-2.52-.44-4.97.02-7.38.75-.59.18-1.18.36-1.93.58.07-.43.08-.75.17-1.04,1.39-4.53,3.41-8.75,6.24-12.57,4.27-5.74,10.02-9.01,17.08-9.88,3.05-.37,6.14-.31,9.16.48,4.45,1.17,7.33,4.03,8.9,8.26.67,1.8,1.08,3.67,1.2,5.6.03.51.16,1.01.27,1.69,1.57-1.42,3-2.7,4.41-4,3.41-3.11,6.89-6.14,10.84-8.56.69-.43,1.42-.81,2.14-1.2,4.9-2.66,13.58-1.66,16.37,6.47,1.4,4.07,1.35,8.15.5,12.33-1.31,6.47-2.5,12.97-3.68,19.48-.76,4.19-1.43,8.4-2.08,12.61-.34,2.17-.03,4.31.78,6.35,1.23,3.11,4.76,4.45,7.93,3.21,1.55-.6,3.01-1.49,4.41-2.41,1.52-1,2.91-2.2,4.37-3.29.5-.37.73-.81.82-1.43.42-2.94.89-5.87,1.34-8.8.51-3.26,1.1-6.52,1.52-9.79.38-2.99.57-6.01.84-9.01.03-.33,0-.67-.03-1.01-.17-1.71-1.36-2.44-2.95-1.72-1,.46-1.94,1.05-2.87,1.64-1.25.8-2.47,1.65-3.81,2.55-1.83-2.05-3.61-4.04-5.44-6.1.25-.3.44-.57.67-.78,4.45-4.1,8.9-8.21,13.37-12.29,2.91-2.65,5.81-5.32,9.13-7.48,4.07-2.65,8.45-2.21,11.89,1.24,2.71,2.72,4.18,6.08,4.82,9.79.33,1.87.27,3.82.37,5.73.03.66,0,1.33,0,2.13.98-1.24,1.85-2.44,2.82-3.55,5.86-6.71,12.93-11.54,21.66-13.75,3.8-.96,7.66-1.35,11.57-1.02,4.22.37,7.94,1.84,10.64,5.28,1.85,2.37,2.77,5.14,3.17,8.07.26,1.88.32,3.79.48,5.78,1.62-1.28,3.11-2.6,4.44-4.12,3.72-4.25,7.9-7.99,12.82-10.83,5.88-3.39,12.22-4.8,18.97-4.16,7.96.75,12.44,5.94,13.53,13.05.68,4.46.41,8.92-.46,13.31-1.42,7.23-3,14.44-4.58,21.64-.54,2.47-.66,4.96-.4,7.44.27,2.63,1.1,3.62,3.93,4.17,2.79.54,5.07-.54,7.31-1.94.57-.36.51-.87.48-1.4-.08-1.29-.23-2.58-.24-3.87-.08-6.74,1.47-13.12,4.39-19.16,3.67-7.59,8.94-13.96,15.12-19.62,4.31-3.95,9.09-7.23,14.36-9.77,4.88-2.35,10.04-3.84,15.37-4.66,3.66-.56,7.36-.84,11.06-.6,3.5.22,6.98.7,10.26,2.04,5.9,2.41,9.26,6.85,10.56,13.05,1.34,6.36-.39,11.96-3.87,17.17-3.2,4.79-7.29,8.79-11.76,12.39-8.51,6.85-18.3,10.97-28.92,13.26-1.25.27-2.51.51-3.92.79,1.49,2.01,3.23,3.45,5.43,4.28,2.27.86,4.63,1.28,7.06,1.16,2.25-.11,4.5-.3,6.75-.48,3.89-.3,7.68-1.13,11.45-2.08,6.02-1.51,11.83-3.64,17.52-6.08.22-.09.42-.22.73-.39,0-.53.05-1.1,0-1.66-.98-9.99,1.61-19.09,6.84-27.53,2.21-3.57,4.88-6.76,7.71-9.85,2.9-3.17,6.1-5.99,9.66-8.39,6.09-4.1,12.74-6.8,20-8.08,4.77-.84,9.56-1.12,14.36-.77,8.46.62,15.52,4.08,20.7,10.96,3.54,4.71,5.55,10.04,6.26,15.87.18,1.52.35,3.03.52,4.55v4.32c-.08.37-.22.73-.23,1.1-.21,4.91-1.21,9.68-2.77,14.33-2.25,6.73-5.85,12.68-10.47,18.04-4.47,5.17-9.61,9.49-15.81,12.49-4.97,2.41-10.16,3.98-15.66,4.52-1.37.13-2.74.35-4.11.52h-4.62ZM416.39,112.64c.16,1.57.22,3.16.49,4.71.42,2.44,1.38,4.69,2.86,6.69,1.16,1.57,2.68,2.64,4.66,2.83,1.78.17,3.54-.03,5.27-.51,4.32-1.19,7.64-3.86,10.26-7.32,6.59-8.71,10.14-18.43,9.19-29.5-.24-2.78-.89-5.49-2.2-7.99-1.54-2.94-3.54-4.07-6.55-3.4-.09.02-.19.03-.29.04-4.3.32-7.89,2.17-11.07,5-2.91,2.6-5.02,5.78-6.9,9.16-3.52,6.31-5.52,13.04-5.73,20.3ZM336.39,110.33c.22.05.28.08.32.07.23-.07.46-.14.68-.23,6.93-2.73,13.04-6.71,18.18-12.1,2.26-2.37,4.29-4.92,5.65-7.93.8-1.77,1.2-3.6.83-5.58-.51-2.75-2.42-4.25-5.19-3.96-2.81.29-5.28,1.34-7.43,3.15-5.55,4.7-9.46,10.53-11.83,17.37-1.03,2.96-1.4,6.04-1.19,9.22Z"/>
  <path class="cls-1" d="M147.49,46.81c-1.84.08-3.72-.29-5.57-.84-3.8-1.11-6.17-4.32-6.49-8.27-.35-4.46,1.28-8.05,4.32-11.15,3.58-3.65,7.74-6.26,12.82-7.29,2-.4,4-.57,6.01-.39,2.02.18,3.81,1.03,5.28,2.41,3.18,3.01,5.02,6.52,3.93,11.06-.49,2.04-1.41,3.88-2.68,5.53-3,3.92-6.73,6.81-11.55,8.17-1.95.55-3.94.84-6.08.75Z"/>
</svg>