<?xml version="1.0" encoding="UTF-8"?>
<svg id="Layer_1" data-name="Layer 1" xmlns="http://www.w3.org/2000/svg" version="1.1" xmlns:xlink="http://www.w3.org/1999/xlink" viewBox="0 0 500 165">
  <defs>
    <style>
      .cls-1 {
        fill: url(#linear-gradient);
      }

      .cls-1, .cls-2, .cls-3 {
        stroke-width: 0px;
      }

      .cls-2 {
        fill: #000;
      }

      .cls-3 {
        fill: #fff;
      }
    </style>
    <linearGradient id="linear-gradient" x1="29.17" y1="35.67" x2="122.53" y2="129.04" gradientUnits="userSpaceOnUse">
      <stop offset="0" stop-color="#eb266c"/>
      <stop offset="1" stop-color="#f79225"/>
    </linearGradient>
  </defs>
  <g>
    <path class="cls-2" d="M276.71,80.51c0,11.93-.27,21.32.13,30.68.17,4.03-1.52,5.81-4.87,6.64-3.01.74-6.11,1.65-9.16,1.59-7.1-.14-14.24-.42-21.27-1.35-12-1.58-17.88-8.71-17.5-20.87.2-6.53.86-13.05,1.49-19.55.89-9.16,7.56-13.66,14.86-17.21,4.05-1.97,8.59-2.94,12.92-4.32,7.24-2.31,7.36-2.3,6.52-10.11-.58-5.36-1.63-10.66-2.3-16.01-.28-2.22-.28-4.51-.12-6.75.22-3.13,1.63-5.45,5.1-5.79,3.65-.36,6.11,1.43,7.18,4.74.96,2.95,1.66,6.05,1.99,9.13,1.84,17.2,3.54,34.42,5.04,49.16ZM263.08,86.95c-.17,0-.34,0-.51,0,0-4.24.42-8.54-.11-12.72-.6-4.74-3.47-5.95-7.96-4.06-9.18,3.88-16.59,16.42-15.23,26.23.18,1.3,1.66,3.17,2.85,3.44,5.49,1.26,11.07,2.17,16.66,2.94,2.67.36,4.29-1.11,4.3-3.95.02-3.96,0-7.93,0-11.89Z"/>
    <path class="cls-2" d="M400.14,90.36c3.77,7.32,10.22,9.47,17.45,10.25,1.37.15,2.84-.6,4.22-.44,2.76.3,5.78.27,6.07,4.4.34,4.78-.51,7.32-4.46,7.84-9.02,1.18-18.13,2.04-26.77-2.22-5.73-2.83-9.27-7.52-11.13-13.38-3.53-11.14-3.35-22.51-.21-33.62,3.53-12.47,19.3-21.23,31.92-18.37,8.22,1.86,15.71,11.29,15.76,19.83.07,11.82-3.14,16.98-14.5,21.17-5.7,2.1-11.85,2.97-18.35,4.54ZM406.14,74.3c2.36-.79,4.86-1.38,7.14-2.44,6.52-3.03,6.77-5.7,1.28-10.18-2.31-1.89-4.4-2.31-6.72-.1-2.24,2.15-4.54,4.25-6.88,6.29-2.69,2.35-1.14,3.97.99,5.23,1.15.68,2.64.78,4.19,1.19Z"/>
    <path class="cls-2" d="M456.3,93.58c4.09,7.84,10.21,9.78,16.83,10.75,1.67.25,3.42-.08,5.13-.03,4.89.15,5.97,1.02,6.31,4.93.38,4.37-.97,6.56-5.31,7.25-7.07,1.13-14.2,1.46-21.21-.55-9.09-2.6-14.38-8.83-16.6-17.8-2.31-9.28-2.23-18.62-.24-27.93,2.56-11.97,10.79-18.49,22.04-21.2,10.47-2.53,18.5,1.24,24.24,10.17,4.99,7.77,2.21,21.35-5.39,26.8-5.22,3.74-10.96,5.96-17.37,6.53-2.46.22-4.9.62-8.42,1.07ZM475.9,72.19c-7.1-10.42-7.93-10.54-15.63-3.05-1.02.99-2.05,1.98-3.03,3.01-1.95,2.04-1,3.91,1,4.74,1.94.8,4.53,1.47,6.36.83,3.89-1.35,7.47-3.59,11.29-5.53Z"/>
    <path class="cls-2" d="M159.45,87.53c1.52-6.86,2.49-13.9,4.72-20.52,2.27-6.73,7.72-10.37,14.98-10.67,5.97-.25,11.96,0,17.91-.43,9.12-.66,16.35,7.83,17.91,14.3,2.44,10.09,2.63,20.24-.04,30.35-1.05,3.97-3,7.29-6.85,9.29-1.75.91-3.3,2.2-4.93,3.34-10.59,7.38-21.91,6.58-31.77-1.87-7.3-6.27-12.56-13.26-11.93-23.79ZM205.52,85.29c.47-7.81-5.2-17.3-12.59-20.73-1.14-.53-2.78-.7-3.96-.32-15.41,4.93-20.96,22.79-10.49,34.6,7.41,8.36,4.81,7.86,15.28,2.87,6.91-3.3,11.27-8.5,11.76-16.41Z"/>
    <path class="cls-2" d="M354.44,97.66c-4.52-1.59-8.99-3.37-13.58-4.71-3.26-.95-4.67-2.66-4.51-6.1.29-5.96-.11-11.98.49-17.9,1.29-12.66,10.05-20.59,22.71-21.02,3.7-.12,7.43-.22,11.11.08,4.88.39,6.37,2.42,5.98,7.34-.31,3.95-1.54,5.07-6.25,5.06-3.64-.01-7.29-1.16-10.59,1.65-4.2,3.57-7.45,7.71-9.68,12.79-1.56,3.56-.23,5.37,2.98,6.5,4.02,1.42,8.07,2.77,12.09,4.18,5.48,1.92,9.28,4.98,9.73,11.47.47,6.72-2.82,11.04-8.15,13.75-7.27,3.7-15.1,5.29-23.12,2.34-2.02-.74-4.14-2.08-5.43-3.74-2.97-3.84-1.21-7.93,3.65-8.73,4.18-.69,8.43-.97,12.65-1.44-.03-.5-.06-1.01-.09-1.51Z"/>
    <path class="cls-2" d="M308.64,69.32c2.35-5.84,4.05-10.96,6.49-15.7,1.18-2.29,3.44-4.72,5.77-5.57,5.6-2.03,9.83,1.55,8.94,7.39-.59,3.89-2.1,7.63-3.18,11.44-2.87,10.08-5.61,20.2-8.63,30.24-1.79,5.94-3.78,11.86-6.22,17.56-.91,2.13-3.05,4.17-5.15,5.27-4.48,2.33-7.81.16-7.82-4.99,0-3.06.59-6.19,1.35-9.18.7-2.73,2.01-5.3,3.03-7.95,3.3-8.63,2.79-8.09-4-14.42-6.39-5.95-11.57-13.17-17.25-19.87-.54-.63-.95-1.46-1.16-2.26-.84-3.31-2.02-6.97,1.27-9.42,2.95-2.19,6.08-.63,8.62,1.35,3.35,2.62,6.52,5.48,9.69,8.32,2.67,2.4,5.23,4.93,8.25,7.79Z"/>
  </g>
  <g>
    <circle class="cls-3" cx="75.98" cy="82.45" r="66.18"/>
    <path class="cls-1" d="M70.03,27.94c-8.79.67-13.06,8.9-13.93,13.36-.66,3.38.81,13.46,8.68,14.14,7.87.69,15.73-5.3,17.9-7.47s-.91-11.23-1.71-13.16c-.81-1.93-2.15-7.53-10.94-6.87ZM74.51,34.64c-.61-1.39-.99-1.93.06-2.6.76-.48,2.09-.27,2.68.82.59,1.09,1.5,2.42.13,3.24-1.36.81-2.27-.07-2.88-1.46ZM80.5,40.5c.48,1.04.87,2.6.8,3.94-.07,1.34-.23,2.91-2.35,2.6s-.46-2.16-.87-3.55c-.41-1.39-1.16-3.14.25-3.81.78-.37,1.69-.23,2.17.81ZM10.23,89.31c4.48-4.13,12.95-11.41,18.18-13.97,5.24-2.56,19.44-7.73,19.07-8.27-.38-.54-5.66-14.29-4.68-25.44.99-11.15,9.1-16.24,21.88-20.74s19.27,7.25,20.66,10.9c1.39,3.66,6,21.42,6,21.42,0,0,2.95,1.39,7.94-1.61,4.99-3,4.04-10.76,6.64-16.69,2.6-5.93,4.67-8.29,4.67-8.29l.52-.27c-10.18-6.39-22.22-10.1-35.12-10.1-36.55,0-66.18,29.63-66.18,66.18,0,2.34.13,4.66.36,6.94.02-.02.04-.05.07-.07ZM94.88,32.58c.75,0,1.36.61,1.36,1.36s-.61,1.36-1.36,1.36-1.36-.61-1.36-1.36.61-1.36,1.36-1.36ZM34.79,42.88c.37,0,.68.3.68.67s-.3.68-.68.68-.68-.3-.68-.68.3-.67.68-.67ZM23.68,64.41c.79,0,1.42.64,1.42,1.42s-.64,1.42-1.42,1.42-1.42-.64-1.42-1.42.64-1.42,1.42-1.42ZM124.69,37.65l-.05.51s-1.02,11.33-4.64,16.64c-3.62,5.31-12.8,17.12-17.04,19.81-4.24,2.69-1.68,6,1.42,8.57,3.1,2.57,9.89,8.21,12.44,14.08,2.55,5.88,2.37,11.2,4.8,16.13,1.73,3.52,4.35,7.9,5.53,11.03,9.38-11.42,15.02-26.04,15.02-41.98,0-17.28-6.63-33.01-17.48-44.8ZM112.05,83.12c-.91,0-1.64-.73-1.64-1.64s.73-1.64,1.64-1.64,1.64.73,1.64,1.64-.73,1.64-1.64,1.64ZM123.41,67.15c-.39,1.02-.52,3.08-.52,3.08,0,0-.47-2.76-1.47-3.21-1-.45-2.95-.59-2.95-.59,0,0,1.89-.36,2.68-1.39.73-.95.76-3.58.76-3.58,0,0,.63,3.17,1.73,3.47,1.31.35,2.73.27,2.73.27,0,0-2.57.93-2.96,1.95ZM104.38,134.98c-1.85-2.16-3.98-5.05-3.37-12.88.61-7.83-4.04-11.81-6.33-14.48s-8.46-2.58-8.46-2.58c0,0,2.21,11.48-1.13,19.38s-4.76,11.15-10.82,13.72c-6.06,2.57-22.25,10.5-31.07-.47-8.83-10.96,1.47-16.68,6.16-17.15,4.7-.47,11.33-.06,14.48-5.8,3.15-5.75-11.35-27.12-11.35-27.12,0,0-12.76,3.47-19.64,9.93-6.87,6.46-12.05,11.08-18.64,8.66,9.54,24.82,33.6,42.44,61.78,42.44,14,0,26.97-4.36,37.67-11.77-3.02-.08-7.72-.07-9.27-1.87ZM36.44,107.28c-.62,0-1.11-.5-1.11-1.11s.5-1.11,1.11-1.11,1.11.5,1.11,1.11-.5,1.11-1.11,1.11ZM90.49,130.18c-.73,0-1.31-.59-1.31-1.31s.59-1.31,1.31-1.31,1.31.59,1.31,1.31-.59,1.31-1.31,1.31Z"/>
  </g>
</svg>