<?xml version="1.0" encoding="UTF-8"?>
<svg id="Layer_1" data-name="Layer 1" xmlns="http://www.w3.org/2000/svg" version="1.1" viewBox="0 0 500 165">
  <defs>
    <style>
      .cls-1 {
        fill: #9d1d22;
      }

      .cls-1, .cls-2 {
        stroke-width: 0px;
      }

      .cls-2 {
        fill: #0d1931;
      }
    </style>
  </defs>
  <g>
    <path class="cls-2" d="M114.62,76.78c0-13.37,10.02-23.39,23.79-23.39,6.14,0,10.81,1.25,15.05,4.27.26.2.39.59.39,1.12,0,1.25-.66,3.19-1.22,4.57-.99,2.43-2.23,4.67-3.42,4.67-.2,0-.36-.03-.56-.16-2.89-2.07-6.64-3.12-10.12-3.12-6.18,0-11.7,4.93-11.7,12.06s5.45,12.32,11.63,12.39c5.16-.03,7.98-1.97,8.81-5.45h-8.61c-1.35,0-1.38-2.4-1.38-4.8s.03-4.76,1.38-4.76h20.37c1.02,0,1.05,1.87,1.05,3.02,0,13.34-7.1,23.03-21.55,23.03s-23.92-10.05-23.92-23.43Z"/>
    <path class="cls-2" d="M164.89,56.51c0-3.84,2.1-6.14,6.6-6.14s6.6,2.3,6.6,6.14-2.1,6.11-6.6,6.11-6.6-2.3-6.6-6.11ZM165.97,98.5v-31.41c0-1.35,2.76-1.35,5.55-1.35s5.45,0,5.45,1.35v31.41c0,1.35-2.73,1.35-5.49,1.35s-5.52,0-5.52-1.35Z"/>
    <path class="cls-2" d="M197.71,99.62l-16.43-32.13c-.1-.23-.16-.39-.16-.56,0-1.18,2.56-1.18,5.16-1.18,2.96,0,5.88,0,6.37,1.05l6.97,15.24,7.03-15.24c.53-1.05,3.45-1.05,6.37-1.05,2.6,0,5.13,0,5.13,1.15,0,.16-.03.33-.16.56l-16.4,32.17c-.33.62-1.15.62-1.94.62s-1.64,0-1.94-.62Z"/>
    <path class="cls-2" d="M219.89,82.63c0-9.79,6.6-17.25,16.39-17.25,10.28,0,14.92,7.72,14.92,17.41,0,1.48-.03,2.96-1.02,2.96h-19.35c.46,3.09,3.29,5.09,6.6,5.09,3.06,0,5.72-.72,8.31-2.3.16-.1.33-.13.49-.13.95,0,1.68,1.58,2.33,3.35.56,1.41,1.05,2.86,1.05,3.88,0,.56-.13.99-.53,1.18-4.07,2.43-8.31,3.38-12.95,3.38-10.02,0-16.26-7.66-16.26-17.58ZM236.28,74.48c-3.35,0-5.32,2.63-5.59,5.06h9.99c-.07-2.63-1.05-5.06-4.4-5.06Z"/>
    <path class="cls-2" d="M254.59,93.64c-.16-.2-.23-.39-.23-.66,0-1.05,1.05-2.6,2.17-4.14,1.35-1.84,2.86-3.61,3.84-3.61.16,0,.3.07.43.16,2.04,1.77,6.37,4.01,10.02,4.01,4.11,0,5.82-1.35,5.82-3.02,0-1.94-2.76-3.12-6.05-4.5-5.78-2.37-14.19-5.88-14.19-14.56,0-8.02,6.83-13.93,17.18-13.93,6.14,0,11.63,2.1,14.79,4.83.2.16.26.46.26.79,0,1.05-.89,2.79-1.84,4.24-1.28,2-2.79,4.04-4.04,4.04-.23,0-.46-.07-.66-.2-1.91-1.45-5.39-2.73-8.51-2.73-3.52,0-4.96,1.12-4.96,2.66,0,1.64,2.46,2.6,5.49,3.84,5.85,2.37,14.78,5.98,14.78,15.51,0,8.02-7.92,13.87-18.07,13.87-6.24,0-12.71-2.56-16.23-6.6Z"/>
    <path class="cls-2" d="M292.8,82.63c0-9.79,6.6-17.25,16.39-17.25,10.28,0,14.92,7.72,14.92,17.41,0,1.48-.03,2.96-1.02,2.96h-19.35c.46,3.09,3.29,5.09,6.6,5.09,3.06,0,5.72-.72,8.31-2.3.16-.1.33-.13.49-.13.95,0,1.68,1.58,2.33,3.35.56,1.41,1.05,2.86,1.05,3.88,0,.56-.13.99-.53,1.18-4.07,2.43-8.31,3.38-12.95,3.38-10.02,0-16.26-7.66-16.26-17.58ZM309.19,74.48c-3.35,0-5.32,2.63-5.59,5.06h9.99c-.07-2.63-1.05-5.06-4.4-5.06Z"/>
    <path class="cls-2" d="M330.68,98.5v-31.41c0-1.31,2.6-1.31,5.19-1.31s5.19,0,5.19,1.31v3.55c2.14-2.96,4.9-5.26,9-5.26,6.87,0,11.47,5.22,11.47,13.93v19.19c0,1.35-2.73,1.35-5.52,1.35s-5.52,0-5.52-1.35v-18.46c0-2.27-1.25-4.27-3.94-4.27-3.12,0-4.86,2.4-4.86,5.19v17.54c0,1.35-2.76,1.35-5.52,1.35s-5.49,0-5.49-1.35Z"/>
    <path class="cls-2" d="M367.12,82.79c0-9.59,5.59-17.41,13.96-17.41,3.12,0,6.54,1.41,8.84,4.73v-18.79c0-1.35,2.73-1.35,5.49-1.35s5.49,0,5.49,1.35v47.21c0,1.31-2.6,1.31-5.16,1.31s-5.19,0-5.19-1.31v-3.52c-2.46,3.52-6.08,5.19-9.46,5.19-8.38,0-13.96-7.82-13.96-17.41ZM390.54,82.79c0-3.88-2.56-7.03-6.24-7.03s-6.18,3.15-6.18,7.03,2.56,7,6.18,7,6.24-3.12,6.24-7Z"/>
    <path class="cls-2" d="M407.43,76.78c0-13.37,10.02-23.39,23.79-23.39,6.14,0,10.81,1.25,15.05,4.27.26.2.39.59.39,1.12,0,1.25-.66,3.19-1.22,4.57-.99,2.43-2.23,4.67-3.42,4.67-.2,0-.36-.03-.56-.16-2.89-2.07-6.64-3.12-10.12-3.12-6.18,0-11.7,4.93-11.7,12.06s5.45,12.32,11.63,12.39c5.16-.03,7.98-1.97,8.81-5.45h-8.61c-1.35,0-1.38-2.4-1.38-4.8s.03-4.76,1.38-4.76h20.37c1.02,0,1.05,1.87,1.05,3.02,0,13.34-7.1,23.03-21.55,23.03s-23.92-10.05-23.92-23.43Z"/>
    <path class="cls-2" d="M455.9,82.79c0-9.63,6.54-17.41,17.02-17.41s17.08,7.79,17.08,17.41-6.57,17.41-17.08,17.41-17.02-7.82-17.02-17.41ZM478.99,82.79c0-3.88-2.43-7.03-6.08-7.03s-6.05,3.12-6.05,7.03,2.43,7,6.05,7,6.08-3.15,6.08-7Z"/>
  </g>
  <g>
    <path class="cls-2" d="M185.09,124.03c-.07-.08-.1-.17-.1-.28,0-.45.45-1.1.92-1.76.57-.78,1.22-1.54,1.63-1.54.07,0,.13.03.18.07.87.75,2.71,1.7,4.26,1.7,1.75,0,2.47-.57,2.47-1.29,0-.82-1.17-1.33-2.57-1.91-2.46-1.01-6.03-2.5-6.03-6.19,0-3.41,2.9-5.92,7.3-5.92,2.61,0,4.94.89,6.28,2.05.08.07.11.2.11.34,0,.45-.38,1.19-.78,1.8-.54.85-1.19,1.72-1.72,1.72-.1,0-.2-.03-.28-.08-.81-.61-2.29-1.16-3.62-1.16-1.49,0-2.11.47-2.11,1.13,0,.7,1.05,1.1,2.33,1.63,2.49,1.01,6.28,2.54,6.28,6.59,0,3.41-3.37,5.89-7.68,5.89-2.65,0-5.4-1.09-6.9-2.81Z"/>
    <path class="cls-2" d="M202.65,126.1v-18.45c0-.56,1.19-.57,2.4-.57s2.39.01,2.39.57v6.55h8.38v-6.55c0-.56,1.2-.57,2.39-.57s2.4.01,2.4.57v18.43c0,.57-1.2.59-2.4.59s-2.39-.01-2.39-.57v-7.26h-8.38v7.25c0,.57-1.19.59-2.39.59s-2.4-.01-2.4-.57Z"/>
    <path class="cls-2" d="M224.95,126.09v-18.43c0-.56,1.19-.57,2.4-.57s2.39.01,2.39.57v18.43c0,.57-1.19.59-2.39.59s-2.4-.01-2.4-.59Z"/>
    <path class="cls-2" d="M249.47,126.67l-10.56-10.19v9.61c0,.59-1.19.59-2.39.59s-2.39,0-2.39-.57v-18.78c0-.42.33-.42.68-.42s.67,0,.88.18l10.53,10.42v-9.84c0-.57,1.19-.57,2.39-.57s2.4,0,2.4.57v18.77c0,.43-.32.43-.67.43s-.68,0-.88-.18Z"/>
    <path class="cls-2" d="M255.34,126.14v-18.51c0-.22.17-.39.38-.39h12.73c.6-.01.61,1.13.61,2.29s-.01,2.33-.61,2.33h-8.32v2.69h6.88c.57,0,.59,1.02.59,2.02s-.01,2.04-.59,2.04h-6.88v3.29h8.31c.61-.01.63,1.15.63,2.32s-.01,2.32-.61,2.32h-12.73c-.21,0-.38-.2-.38-.4Z"/>
    <path class="cls-2" d="M277.63,126.14v-18.51c0-.22.17-.4.38-.4h6.37c2.92,0,6.05,1.63,6.05,5.21,0,1.03-.42,2.35-1.33,2.99,1.66.75,3.04,2.75,3.04,4.78,0,4.69-3.53,6.35-6.97,6.35h-7.16c-.21,0-.38-.2-.38-.4ZM285.73,112.93c0-.75-.6-1.35-1.33-1.35h-1.98v2.69h1.98c.73,0,1.33-.6,1.33-1.34ZM286.88,120.12c0-1.13-.88-1.79-2.04-1.79h-2.43v3.56h2.43c1.16,0,2.04-.66,2.04-1.77Z"/>
    <path class="cls-2" d="M295.04,126.1v-18.47c0-.22.17-.4.38-.4h8.03c3.23,0,6.07,2.5,6.07,6.37,0,2.42-1.15,4.31-2.82,5.32l3.74,7.02c.04.08.07.17.07.24,0,.5-1.12.5-2.22.5-1.27,0-2.54,0-2.75-.42l-3.16-6.3h-2.56v6.14c0,.56-1.2.57-2.4.57s-2.39-.01-2.39-.57ZM304.46,113.6c0-.96-.77-1.75-1.73-1.75h-2.9v3.49h2.9c.96,0,1.73-.78,1.73-1.75Z"/>
    <path class="cls-2" d="M313.03,126.09v-18.43c0-.56,1.19-.57,2.4-.57s2.39.01,2.39.57v18.43c0,.57-1.19.59-2.39.59s-2.4-.01-2.4-.59Z"/>
    <path class="cls-2" d="M320.76,116.87c0-5.68,4.26-9.94,10.11-9.94,2.61,0,4.59.53,6.39,1.82.11.08.17.25.17.47,0,.53-.28,1.35-.52,1.94-.42,1.03-.95,1.98-1.45,1.98-.08,0-.15-.01-.24-.07-1.23-.88-2.82-1.33-4.3-1.33-2.63,0-4.97,2.09-4.97,5.12s2.32,5.24,4.94,5.26c2.19-.01,3.39-.84,3.74-2.32h-3.66c-.57,0-.59-1.02-.59-2.04s.01-2.02.59-2.02h8.66c.43,0,.45.8.45,1.28,0,5.67-3.02,9.79-9.16,9.79s-10.17-4.27-10.17-9.96Z"/>
    <path class="cls-2" d="M342.76,126.1v-18.45c0-.56,1.19-.57,2.4-.57s2.39.01,2.39.57v6.55h8.38v-6.55c0-.56,1.2-.57,2.39-.57s2.4.01,2.4.57v18.43c0,.57-1.2.59-2.4.59s-2.39-.01-2.39-.57v-7.26h-8.38v7.25c0,.57-1.19.59-2.39.59s-2.4-.01-2.4-.57Z"/>
    <path class="cls-2" d="M368.97,126.1v-14.24h-5.12c-.56,0-.56-1.16-.56-2.33s0-2.3.57-2.3h15.02c.57,0,.57,1.15.57,2.3s0,2.33-.57,2.33h-5.12v14.23c0,.59-1.2.59-2.4.59s-2.39,0-2.39-.57Z"/>
    <path class="cls-2" d="M382.08,126.14v-18.47c0-.57,1.19-.57,2.4-.57s2.39,0,2.39.57v14.23h8.32c.61.01.61,1.16.61,2.33s0,2.32-.63,2.32h-12.72c-.21,0-.38-.2-.38-.4Z"/>
    <path class="cls-2" d="M398.44,126.1v-7.07l-6.24-11.23c-.04-.08-.07-.17-.07-.24,0-.49,1.19-.5,2.37-.5,1.33,0,2.65,0,2.88.46l3.46,6.51,3.46-6.52c.2-.45,1.54-.45,2.86-.45,1.19,0,2.36,0,2.36.5,0,.07-.03.15-.07.24l-6.23,11.24v7.04c0,.59-1.2.59-2.4.59s-2.39,0-2.39-.57Z"/>
  </g>
  <g>
    <rect class="cls-1" x="51.75" y="31.31" width="10.52" height="29.47" rx="2.46" ry="2.46"/>
    <rect class="cls-1" x="51.75" y="97.06" width="10.52" height="36.63" rx="2.46" ry="2.46"/>
    <rect class="cls-1" x="73.93" y="73.37" width="29.47" height="10.52" rx="2.46" ry="2.46"/>
    <path class="cls-1" d="M62.24,78.1s0-.02,0-.03c-.02-.17-.04-.33-.08-.49,0,0,0-.02,0-.03-.2-.97-.67-1.89-1.43-2.64l-26.45-26.45c-.96-.96-2.52-.96-3.49,0l-3.95,3.95c-.96.96-.96,2.52,0,3.49l17.49,17.49H12.46c-1.36,0-2.46,1.1-2.46,2.46v5.59c0,1.36,1.1,2.46,2.46,2.46h31.85l-17.48,17.48c-.96.96-.96,2.52,0,3.49l3.95,3.95c.96.96,2.52.96,3.49,0l26.45-26.45c.12-.12.24-.25.35-.39.05-.06.09-.12.14-.19.06-.07.11-.15.17-.23.05-.07.09-.15.14-.23.04-.07.09-.14.13-.21.04-.08.08-.16.11-.24.04-.08.07-.15.11-.23.03-.08.06-.16.09-.23.03-.08.06-.17.09-.25.02-.08.04-.16.06-.24.02-.09.05-.17.06-.26.02-.09.03-.18.04-.28.01-.08.03-.15.03-.23.02-.17.03-.35.03-.52,0-.18,0-.35-.03-.53Z"/>
    <rect class="cls-1" x="66.04" y="52.61" width="21.76" height="10.52" rx="2.46" ry="2.46" transform="translate(-18.39 71.34) rotate(-45)"/>
    <rect class="cls-1" x="71.66" y="88.14" width="10.52" height="21.76" rx="2.46" ry="2.46" transform="translate(-47.49 83.4) rotate(-45)"/>
  </g>
</svg>