<?xml version="1.0" encoding="UTF-8"?>
<svg id="Layer_1" data-name="Layer 1" xmlns="http://www.w3.org/2000/svg" version="1.1" viewBox="0 0 500 165">
  <defs>
    <style>
      .cls-1 {
        fill: #446ab3;
        stroke-width: 0px;
      }
    </style>
  </defs>
  <path class="cls-1" d="M10.81,38.37c14.08.04,28.16-.11,42.22.23,4.75.11,9.68.85,14.15,2.39,13.29,4.56,16.96,22.06,6.96,31.88-1.61,1.58-3.33,3.03-5.47,4.96,8.3,3.42,13.09,9.16,14.61,17.68,1.91,10.7-3.02,21.1-13.21,25.03-5.35,2.06-11.3,3.32-17.03,3.52-14.06.48-28.15.14-42.23.13V38.37ZM30.12,109.83c9.34-.52,17.93.53,26.34-.64,5.74-.8,8.35-5.17,8.33-10.85-.02-5.84-3.13-11.04-8.61-11.51-8.61-.74-17.34-.2-26.07-.2v23.21ZM30.11,73.64c6.07,0,11.49.15,16.9-.06,2.89-.11,5.89-.45,8.59-1.39,3.95-1.38,6.23-5.78,5.72-10.13-.51-4.36-2.7-8.08-7.17-8.39-7.86-.55-15.79-.15-24.04-.15v20.13Z"/>
  <path class="cls-1" d="M176.33,124.31h-16.21V38.83h16.06v30.22c7.38-6.55,15.18-8.95,24.27-7.99,8.1.85,13.78,5.14,16.04,12.88.64,2.21,1.24,4.52,1.27,6.79.15,12.62.11,25.23.13,37.85,0,1.67,0,3.34,0,5.59h-16.84c-.23-1.51.02-3.09,0-4.66-.11-9.04-.1-18.08-.2-27.12-.03-2.73-.09-5.47-.43-8.18-.84-6.69-3.94-9.72-9.97-10.05-6.59-.36-11.53,2.72-12.82,8.75-.92,4.27-1.17,8.74-1.25,13.13-.18,9.22-.05,18.45-.05,28.26Z"/>
  <path class="cls-1" d="M244.13,80.89h-15.78c-.24-7.32,3.32-12.49,9.07-15.5,12.63-6.6,25.92-6.2,38.93-1.2,5.72,2.2,8.47,7.28,8.46,13.57-.01,7.98-.13,15.96.04,23.94.16,7.47.63,14.94.98,22.71h-15.17c-.84-1.44-1.67-2.85-2.63-4.48-.73.4-1.44.74-2.1,1.16-8.87,5.73-18.31,6.92-28.25,3.32-7.82-2.83-11.91-9.07-11.66-17.48.23-7.99,4.6-14.33,12.2-16.48,5.01-1.41,10.28-1.89,15.44-2.76,2.89-.49,5.85-.73,8.68-1.45,3.32-.85,5.56-2.78,5.3-6.69-.25-3.81-1.99-6.22-5.76-7.23-8.61-2.3-13.31-.11-17.75,8.57ZM267.21,95.14c-3.21.73-6.03,1.42-8.87,2.01-3.05.64-6.24.84-9.16,1.85-6.55,2.26-8.25,9.74-3.35,13.82,6.31,5.26,19.46,1.49,21.24-6.4.79-3.51.13-7.34.13-11.28Z"/>
  <path class="cls-1" d="M488.97,97.75h-44.16c-1.08,6.87,1.36,11.83,6.69,14.28,8.11,3.74,15.3,1.73,22.73-6.34,4.78,0,9.55,0,14.4,0-6.88,21.31-29.59,24.39-44.32,17.91-14.08-6.19-21.04-24.2-15.78-40.86,5.15-16.28,18.77-24.23,37.77-21.32,6.43.99,11.56,4.87,15.53,9.99,5.91,7.6,8.1,15.61,7.13,26.33ZM471.97,86.9c-.99-9.72-5.99-14.02-14.94-13.28-7.56.63-12.1,5.65-11.73,13.28h26.67Z"/>
  <path class="cls-1" d="M152.1,97.58h-44.62c-.92,7.14,1.71,12.33,7.16,14.72,8.06,3.54,15.51,1.34,22.14-6.58h13.71c-2.34,11.48-11.07,19.24-24,20.65-15.51,1.68-31.88-4.84-35.54-24.36-3.65-19.48,4.7-35.33,21.11-39.72,24.73-6.62,38.16,9.08,40,26.9.26,2.47.04,5,.04,8.4ZM134.29,86.88c-.07-8.76-4.91-13.36-13.45-13.29-8.15.07-13.45,5.26-13.24,13.29h26.69Z"/>
  <path class="cls-1" d="M352.02,124.24h-15.57c0-7.3.11-14.16-.03-21.02-.14-6.7-.15-13.45-.96-20.08-.76-6.18-3.86-8.76-9.32-9.37-5.39-.6-11.06,2.22-12.93,7.05-1.11,2.86-1.73,6.07-1.8,9.14-.23,9.45-.1,18.9-.1,28.35,0,2.03,0,4.07,0,6.5h-16.75v-61.92h16.09c.27,2.08.54,4.08.9,6.9,6.12-6.84,13.26-9.35,21.72-8.88,11.2.62,18.78,6.47,19.38,17.55.8,14.86.24,29.8.22,44.71,0,.33-.49.65-.84,1.09Z"/>
  <path class="cls-1" d="M406.09,101.25h15.28c-.29,8.22-3.53,14.61-9.76,18.93-11.55,8.02-24,8.4-36.24,1.78-11.6-6.27-15.81-16.86-15.03-29.59.99-16.12,9.15-27.27,22.54-30.51,7.46-1.81,15.03-1.58,22.3,1.21,9.2,3.53,14.79,9.98,15.72,20.78h-16.21c-1.29-4.8-3.4-9.21-9.28-10.24-7.74-1.35-14.45,2.04-16.56,9.97-1.41,5.3-1.72,11.24-.94,16.67,1.22,8.48,6.68,13.27,13.42,13.62,7.01.37,11.64-3.47,14.77-12.62Z"/>
  <path class="cls-1" d="M137.97,45.11v6.81h-34.5c-.11-2.26-.2-4.28-.32-6.81h34.81Z"/>
</svg>