<?xml version="1.0" encoding="UTF-8"?>
<svg id="Layer_1" data-name="Layer 1" xmlns="http://www.w3.org/2000/svg" version="1.1" xmlns:xlink="http://www.w3.org/1999/xlink" viewBox="0 0 500 165">
  <defs>
    <style>
      .cls-1 {
        fill: url(#linear-gradient);
      }

      .cls-1, .cls-2, .cls-3 {
        stroke-width: 0px;
      }

      .cls-2 {
        fill: #627178;
      }

      .cls-3 {
        fill: #fff;
      }
    </style>
    <linearGradient id="linear-gradient" x1="82.55" y1="140.16" x2="84.82" y2="31.52" gradientUnits="userSpaceOnUse">
      <stop offset="0" stop-color="#4cb748"/>
      <stop offset=".51" stop-color="#179848"/>
      <stop offset="1" stop-color="#41b649"/>
    </linearGradient>
  </defs>
  <path class="cls-2" d="M199.68,78.17c-.1.32-.22.64-.3.97-2.39,9.76-4.76,19.53-7.16,29.29-.52,2.12-.08,1.88-2.42,1.89-2.49.01-4.98,0-7.47,0-1.32,0-1.34-.01-1.69-1.33-1.82-6.88-3.63-13.76-5.44-20.64-2.14-8.13-4.28-16.26-6.42-24.4-.14-.52-.26-1.05-.42-1.7.53-.03.97-.08,1.4-.08,2.64,0,5.28,0,7.92,0,1.25,0,1.27.01,1.56,1.25,1.24,5.33,2.47,10.66,3.71,16,1.07,4.6,2.14,9.21,3.21,13.81.07.32.18.62.51.95.15-.5.31-.99.44-1.49,2.47-9.69,4.94-19.38,7.41-29.08.37-1.44.38-1.45,1.87-1.45,2.39,0,4.78,0,7.18,0,1.26,0,1.28.01,1.58,1.23,1.48,5.94,2.95,11.88,4.42,17.82,1.03,4.15,2.05,8.31,3.07,12.47.08.34.2.66.37,1.25.19-.56.34-.9.43-1.25,2.38-10.02,4.76-20.04,7.14-30.06.35-1.46.35-1.46,1.84-1.46,2.88,0,5.77,0,8.83,0-.11.58-.16,1.05-.28,1.5-4.04,15.09-8.08,30.19-12.13,45.28-.37,1.36-.37,1.37-1.8,1.37-2.59,0-5.18,0-7.77,0-1.34,0-1.36,0-1.68-1.31-1.65-6.62-3.28-13.23-4.92-19.85-.91-3.67-1.82-7.33-2.74-11h-.25Z"/>
  <path class="cls-2" d="M407.55,110.21c-.49.05-.82.11-1.15.11-2.89,0-5.78.01-8.67,0-1.15,0-1.16-.02-1.55-1.16-.95-2.78-1.87-5.56-2.82-8.34-.41-1.22-.43-1.23-1.65-1.23-5.13,0-10.26,0-15.39,0-1.19,0-1.21.01-1.59,1.11-1,2.81-1.97,5.64-2.97,8.45-.41,1.17-.43,1.18-1.69,1.18-3.03,0-6.07,0-9.35,0,.23-.72.38-1.27.59-1.8,4.17-11.08,8.35-22.16,12.52-33.24,1.47-3.91,2.93-7.83,4.43-11.73.55-1.44.26-1.37,2.02-1.37,2.64,0,5.28,0,7.92,0,1.7,0,1.45-.11,2,1.38,2.98,7.97,5.95,15.94,8.92,23.91,2.62,7.04,5.24,14.08,7.86,21.12.19.5.35,1.01.56,1.62ZM389.9,91.52c-.2-1.66-5.24-16.21-5.92-17.05-2,5.66-3.98,11.27-6.02,17.05h11.94Z"/>
  <path class="cls-2" d="M456.6,106.38v1.58c0,4.18,0,8.36,0,12.54,0,.35-.02.7,0,1.05.04.68-.22,1-.95.99-2.59-.02-5.18-.02-7.77,0-.61,0-.94-.22-.91-.87.02-.35,0-.7,0-1.05,0-14.44,0-28.87,0-43.31,0-.2,0-.4,0-.6.03-1.31.03-1.33,1.34-1.34,2.24-.01,4.48-.02,6.72,0,1.06,0,1.1.06,1.14,1.1.03.92.02,1.83.03,2.93.33-.24.47-.3.55-.4,3.08-3.98,7.3-4.98,12-4.4,6.1.74,10.07,4.3,12.14,9.92,2,5.45,2.1,11.03.17,16.54-1.72,4.9-4.97,8.36-10.14,9.67-3.76.96-7.44.61-10.79-1.46-1.21-.74-2.22-1.81-3.52-2.9ZM472.89,93.18c-.15-2.6-.47-5.1-1.74-7.38-1.54-2.77-3.89-4.13-7.11-3.99-3.19.13-5.35,1.76-6.55,4.59-.57,1.35-.89,2.85-1.08,4.31-.37,2.94-.14,5.86,1.05,8.63.94,2.17,2.51,3.75,4.83,4.32,4.52,1.1,8.31-.81,9.69-5.36.5-1.64.62-3.4.91-5.11Z"/>
  <path class="cls-2" d="M418.17,79.44c.37-.27.51-.33.59-.43,3.08-3.98,7.3-4.96,12-4.4,5.77.69,9.73,3.94,11.85,9.24,2.49,6.22,2.54,12.55-.17,18.74-1.84,4.18-5.01,7.02-9.51,8.16-3.5.88-6.91.59-10.16-1.07-1.53-.78-2.78-1.91-4-3.48-.07.62-.14.97-.14,1.33,0,4.38,0,8.76,0,13.14,0,.35-.01.7,0,1.05.01.55-.23.82-.8.82-2.69,0-5.38,0-8.07,0-.48,0-.75-.21-.75-.71,0-.4-.01-.8-.01-1.19,0-14.43,0-28.87,0-43.3,0-.15,0-.3,0-.45.02-1.48.02-1.49,1.48-1.49,2.19,0,4.38-.02,6.57,0,1.05,0,1.09.05,1.12,1.1.03.89,0,1.78,0,2.95ZM434.89,93.03c-.17-2.49-.47-4.89-1.66-7.1-1.5-2.79-3.81-4.22-7.03-4.13-3.24.09-5.47,1.7-6.7,4.6-.56,1.3-.87,2.75-1.06,4.16-.38,2.94-.18,5.86.98,8.64.95,2.29,2.59,3.9,5.03,4.5,4.56,1.11,8.41-1.14,9.63-5.69.43-1.62.55-3.32.81-4.98Z"/>
  <path class="cls-2" d="M243.31,79.86c.15-.18.31-.34.45-.53,2.96-3.92,6.99-5.22,11.72-4.78.89.08,1.77.26,2.64.48,3.62.94,6.08,3.19,7.04,6.8.52,1.95.84,4.01.87,6.03.11,7.02.05,14.04.05,21.06,0,1.38-.02,1.39-1.41,1.39-2.34,0-4.68.01-7.02,0-1.15,0-1.18-.03-1.19-1.17-.02-2.79,0-5.58,0-8.36,0-3.43.06-6.87-.03-10.3-.04-1.53-.22-3.09-.6-4.57-.64-2.49-2.19-3.61-4.76-3.74-.25-.01-.5-.02-.75-.02-4.08.01-6.29,1.86-6.92,5.92-.22,1.42-.31,2.87-.32,4.31-.04,5.43-.01,10.85-.02,16.28,0,1.65,0,1.66-1.6,1.66-2.24,0-4.48.01-6.72,0-1.28,0-1.29-.02-1.31-1.35-.01-1.34,0-2.69,0-4.03,0-13.64,0-27.28,0-40.92,0-2.06-.14-1.82,1.86-1.84,2.04-.01,4.08,0,6.13,0,1.74,0,1.65-.11,1.65,1.59,0,4.83,0,9.66,0,14.49,0,.5,0,.99,0,1.49.09.04.17.08.26.12Z"/>
  <path class="cls-2" d="M303.78,110.32c-1.14,0-2.17,0-3.21,0-1.79,0-3.59-.04-5.38.02-.84.03-1.15-.38-1.29-1.1-.12-.63-.26-1.26-.4-1.93-.18.07-.34.08-.44.17-1.93,1.77-4.23,2.73-6.78,3.24-2.92.58-5.82.67-8.73-.08-4.55-1.18-7.76-4.56-7.51-10.41.2-4.69,2.58-7.78,7.11-9.01,2.68-.72,5.46-1.05,8.2-1.54,1.66-.3,3.36-.47,4.98-.9,2.12-.57,2.8-1.52,2.76-3.33-.04-2.23-.98-3.6-2.96-4.12-1.9-.5-3.84-.52-5.76,0-1.79.48-2.9,1.64-3.38,3.44-.38,1.42-.39,1.42-1.87,1.42-2.29,0-4.58.01-6.87,0-1.12,0-1.21-.13-1.05-1.21.52-3.66,2.48-6.33,5.65-8.15,2.56-1.47,5.4-2.01,8.28-2.26,3.34-.28,6.66-.06,9.93.77.67.17,1.34.4,1.97.68,3.76,1.62,5.77,4.41,5.75,8.58-.02,5.73-.03,11.45.01,17.18.01,1.94.16,3.88.34,5.81.08.87.38,1.73.61,2.75ZM293.15,93.52c-2.4,1.08-4.71,1.3-7.01,1.64-1.57.23-3.14.54-4.51,1.43-1.73,1.13-2.1,2.8-1.83,4.7.25,1.74,1.33,2.84,2.99,3.09,1.6.24,3.28.35,4.88.16,2.21-.27,3.83-1.59,4.72-3.67.98-2.31.7-4.74.75-7.35Z"/>
  <path class="cls-2" d="M328.69,99.1c.24-.06.42-.15.61-.15,2.54-.01,5.08-.01,7.62-.01.47,0,.86.01.94.66.37,2.88,2.26,4.33,4.91,4.91,1.72.38,3.47.34,5.17-.19.96-.3,1.83-.77,2.49-1.57,1.36-1.65,1.08-3.77-.73-4.9-.67-.42-1.42-.75-2.18-.96-2.68-.74-5.39-1.41-8.08-2.11-2.17-.57-4.34-1.12-6.25-2.36-1.88-1.22-3.24-2.83-3.58-5.09-.7-4.66.95-8.66,5.23-10.9,2.3-1.2,4.79-1.63,7.33-1.87,3.15-.29,6.29-.1,9.32.82,4.57,1.38,7.58,4.26,8.33,9.15.16,1.06.11,1.15-.92,1.16-2.39.03-4.78,0-7.17,0-.46,0-.92-.03-1-.64-.33-2.6-2.18-3.54-4.44-3.91-1.62-.26-3.28-.3-4.89.19-1.17.36-2.06,1.04-2.26,2.32-.21,1.34.37,2.42,1.54,2.97,1.38.65,2.85,1.15,4.33,1.55,2.78.76,5.6,1.38,8.39,2.1.72.18,1.41.48,2.08.8,4.29,2.03,6.06,5.44,5.28,10.11-.76,4.55-3.57,7.35-7.77,8.81-3.38,1.18-6.92,1.47-10.47,1.07-1.87-.21-3.75-.56-5.54-1.1-2.79-.85-5.06-2.52-6.65-5.02-1.12-1.77-1.58-3.72-1.63-5.84Z"/>
  <path class="cls-2" d="M310.92,93.13c0-3.34,0-6.67,0-10.01,0-1.16-.03-1.18-1.14-1.2-1.1-.02-2.19,0-3.29,0-1.28-.02-1.29-.03-1.31-1.36-.01-1.29-.02-2.59,0-3.89.02-1.25.03-1.26,1.24-1.29.85-.02,1.69,0,2.54,0,2.19-.02,1.95.18,1.96-1.89.01-2.39,0-4.78,0-7.17,0-1.34.02-1.36,1.31-1.37,2.34-.02,4.68-.02,7.03,0,1.27,0,1.29.03,1.29,1.38.01,2.54,0,5.08,0,7.62,0,1.4.02,1.41,1.39,1.42,1.54.01,3.09.03,4.63,0,.7-.01.99.27.99.97-.02,1.54-.02,3.09,0,4.63,0,.7-.28.97-.99.96-1.64-.03-3.29-.02-4.93,0-1.05.01-1.08.04-1.08,1.11-.01,5.48,0,10.96,0,16.44,0,.05,0,.1,0,.15.14,2.55.91,3.34,3.49,3.45.84.04,1.69-.09,2.53-.16.86-.06.95-.03.96.86.03,1.89,0,3.79,0,5.68,0,.51-.14.85-.73.91-3.78.38-7.57.64-11.24-.61-3.02-1.03-4.57-3.33-4.64-6.77-.07-3.29-.01-6.57-.01-9.86h-.02Z"/>
  <g>
    <path class="cls-1" d="M33.62,132.85c.57-.13,1-.22,1.41-.33,5.89-1.54,11.79-3.07,17.68-4.66.98-.27,1.75-.13,2.6.39,7.73,4.7,16.1,7.35,25.15,7.94,4.77.31,9.47,0,14.12-.97,11.47-2.39,21.3-7.83,29.16-16.54,11.79-13.07,16.32-28.44,13.6-45.79-1.81-11.49-7.07-21.35-15.36-29.51-8.94-8.8-19.67-13.96-32.17-15.38-5.05-.57-10.08-.44-15.08.4-5.62.95-10.96,2.76-16.01,5.42-7.5,3.93-13.76,9.3-18.76,16.12-5.63,7.69-9.02,16.27-10.15,25.75-.79,6.67-.32,13.24,1.32,19.74,1.47,5.85,3.9,11.28,7.19,16.31.52.8.67,1.51.4,2.47-1.54,5.4-2.99,10.82-4.47,16.24-.21.75-.39,1.51-.62,2.41Z"/>
    <path class="cls-3" d="M17.55,148.62c.81-3,1.55-5.77,2.31-8.54,2.22-8.09,4.44-16.18,6.67-24.26.21-.76.17-1.41-.24-2.14-4.32-7.74-6.94-16.05-7.82-24.85-1.13-11.24.41-22.11,4.87-32.53,2.9-6.77,6.82-12.86,11.75-18.32,5.23-5.8,11.32-10.48,18.22-14.15,6.21-3.3,12.81-5.44,19.73-6.64,1.86-.32,3.76-.49,5.65-.6,2.42-.14,4.85-.24,7.28-.21,4.33.06,8.61.67,12.82,1.65,10.56,2.48,19.95,7.27,28.1,14.42,11.39,10,18.54,22.45,21.42,37.33.56,2.9.82,5.84,1,8.8.39,6.68-.33,13.22-1.95,19.68-1.74,6.91-4.61,13.34-8.5,19.32-2.15,3.3-4.59,6.37-7.29,9.25-6.5,6.96-14.17,12.2-22.94,15.84-4.78,1.98-9.74,3.32-14.87,4.11-4.56.7-9.14.95-13.73.69-3.74-.21-7.45-.74-11.1-1.59-5.57-1.31-10.9-3.27-15.93-5.98-.67-.36-1.21-.13-1.76,0-4.06,1.03-8.1,2.12-12.15,3.18-6.82,1.79-13.64,3.58-20.46,5.36-.28.07-.58.08-1.08.15ZM33.62,132.85c.57-.13,1-.22,1.41-.33,5.89-1.54,11.79-3.07,17.68-4.66.98-.27,1.75-.13,2.6.39,7.73,4.7,16.1,7.35,25.15,7.94,4.77.31,9.47,0,14.12-.97,11.47-2.39,21.3-7.83,29.16-16.54,11.79-13.07,16.32-28.44,13.6-45.79-1.81-11.49-7.07-21.35-15.36-29.51-8.94-8.8-19.67-13.96-32.17-15.38-5.05-.57-10.08-.44-15.08.4-5.62.95-10.96,2.76-16.01,5.42-7.5,3.93-13.76,9.3-18.76,16.12-5.63,7.69-9.02,16.27-10.15,25.75-.79,6.67-.32,13.24,1.32,19.74,1.47,5.85,3.9,11.28,7.19,16.31.52.8.67,1.51.4,2.47-1.54,5.4-2.99,10.82-4.47,16.24-.21.75-.39,1.51-.62,2.41Z"/>
    <path class="cls-3" d="M62.17,51.65c.4,0,.8.02,1.19,0,1.95-.14,3.2.83,3.95,2.52.83,1.86,1.61,3.73,2.39,5.61.97,2.33,1.9,4.67,2.88,6.99.46,1.09.44,2.1-.07,3.19-.94,2-2.47,3.55-3.87,5.2-.23.27-.49.52-.71.79-.53.64-.59,1.36-.28,2.12.1.24.23.48.37.7,4.85,8.11,11.38,14.39,20.1,18.26.81.36,1.61.74,2.43,1.07,1.38.56,2.09.43,3.06-.72,1.62-1.93,3.23-3.87,4.77-5.87,1.38-1.78,2.09-2.09,4.18-1.21,1.99.84,3.94,1.8,5.89,2.73,2.35,1.13,4.67,2.31,7.03,3.43,1.13.54,1.64,1.33,1.61,2.61-.04,2.2-.43,4.32-1.25,6.34-.36.88-.89,1.76-1.56,2.43-3.07,3.09-6.64,5.2-11.13,5.53-2.7.2-5.29-.15-7.86-.85-5.22-1.41-10.32-3.15-15.08-5.74-6.62-3.61-12.11-8.58-16.98-14.26-3.29-3.84-6.22-7.94-8.83-12.26-1.77-2.93-3.09-6.07-3.67-9.47-1.19-6.95.82-12.84,5.99-17.64,1.07-.99,2.37-1.52,3.86-1.5.53,0,1.06,0,1.59,0h0Z"/>
  </g>
</svg>