<?xml version="1.0" encoding="UTF-8"?>
<svg id="Layer_1" data-name="Layer 1" xmlns="http://www.w3.org/2000/svg" version="1.1" viewBox="0 0 500 165">
  <defs>
    <style>
      .cls-1 {
        fill: #6e479c;
      }

      .cls-1, .cls-2, .cls-3 {
        stroke-width: 0px;
      }

      .cls-2 {
        fill: #6f489d;
      }

      .cls-3 {
        fill: #6e469c;
      }
    </style>
  </defs>
  <path class="cls-3" d="M333.57,148.04c-.99.7-1.83,1.3-2.67,1.91-2.06,1.48-4.13,2.95-6.19,4.44-.36.26-.71.37-1.15.37-3.55-.01-7.11,0-10.66,0-.14,0-.28,0-.42,0-.23,0-.34-.11-.33-.34,0-.16,0-.32,0-.48,0-1.66,0-3.32,0-4.99,0-.22.05-.45-.06-.71-.21.06-.33.24-.46.38-1.88,1.88-3.76,3.75-5.62,5.64-.35.35-.69.52-1.2.52-6.67-.02-13.34-.02-20.01,0-.47,0-.82-.13-1.15-.47-1.86-1.89-3.75-3.76-5.63-5.64-.16-.16-.29-.36-.57-.48-.25.72-.33,1.46-.48,2.19-.26,1.24-.49,2.49-.74,3.73-.13.65-.14.66-.79.66-3.39,0-6.79,0-10.18,0-2.38,0-4.76-.01-7.13,0-.52,0-.91-.13-1.3-.48-2.17-1.93-4.37-3.84-6.56-5.75-.15-.13-.26-.33-.54-.32-.06.78-.12,1.56-.17,2.33-.07,1.11-.13,2.21-.19,3.32-.01.21-.05.41-.06.62-.01.21-.13.28-.32.27-.16,0-.32,0-.48,0-6.53,0-13.07,0-19.6,0-.81,0-.82,0-.92-.79-.22-1.9-.42-3.8-.63-5.71-.29-.03-.36.21-.48.35-1.61,1.87-3.23,3.74-4.82,5.63-.33.39-.67.54-1.18.54-10.32-.02-20.64-.01-30.96,0-.5,0-.95-.1-1.41-.28-1.73-.71-3.46-1.4-5.2-2.08-.23-.09-.45-.25-.81-.2,0,.6,0,1.21,0,1.82,0,.66.15.74-.7.73-5.38,0-10.76,0-16.14,0-.36,0-.67-.08-.98-.27-6.42-3.86-12.85-7.72-19.27-11.58-.26-.16-.49-.35-.7-.56-3.75-3.76-7.5-7.52-11.26-11.26-.3-.3-.43-.6-.43-1.02.01-17.4,0-34.8,0-52.21,0-.09,0-.19,0-.28-.03-.31.07-.49.42-.45.11.01.23,0,.35,0,7.99,0,15.97,0,23.96,0,.47,0,.8.13,1.14.47,3.72,3.75,7.47,7.48,11.19,11.23.27.27.55.36.92.35,1.22-.01,2.45,0,3.67,0,16.57,0,33.15,0,49.72,0,1.03,0,.87.12.87-.89,0-3.44,0-6.88,0-10.32,0-.16,0-.32,0-.48-.01-.27.12-.37.38-.36.16,0,.32,0,.48,0,14.59,0,29.18,0,43.77,0,.94,0,.83-.12.83.87,0,3.37,0,6.74,0,10.11,0,.12,0,.23,0,.35,0,.75-.09.72.69.72,1.25,0,2.49,0,3.74,0,2.33,0,4.66,0,6.99,0,.6,0,.61,0,.61.6,0,1.96,0,3.92,0,5.89.28.04.37-.19.51-.32,1.91-1.9,3.83-3.81,5.73-5.73.32-.32.64-.45,1.09-.45,4.02.02,8.03,0,12.05.02.48,0,.81-.13,1.15-.47,3.69-3.72,7.41-7.41,11.1-11.13.34-.34.67-.47,1.15-.47,7.99.01,15.97,0,23.96.01.83,0,.76-.11.76.79,0,3.37,0,6.74,0,10.11,0,.05,0,.09,0,.14q0,1,1.04,1c3.28,0,6.56,0,9.83,0,1.11,0,2.22.01,3.32,0,.35,0,.6.08.85.33,3.78,3.8,7.56,7.59,11.36,11.36.31.31.33.62.33,1,0,11.89,0,23.77,0,35.66,0,.99-.04,1.99.01,2.98.03.62-.16.99-.7,1.34-5.6,3.7-11.18,7.43-16.77,11.16-.73.49-1.47.96-2.19,1.46-.28.19-.56.29-.9.29-4.11,0-8.22,0-12.33,0-.54,0-.55-.01-.55-.59,0-1.75,0-3.51,0-5.26,0-.22,0-.45,0-.84ZM193.14,137.34c7.36,0,14.73,0,22.09,0,.48,0,.81-.13,1.15-.47,2.79-2.82,5.6-5.63,8.42-8.42.34-.34.47-.67.47-1.15-.02-5.93-.01-11.86-.01-17.79,0-4.78,0-9.55,0-14.33,0-.63,0-.64-.57-.64-4.52,0-9.05,0-13.57,0-.53,0-.53,0-.54.52,0,.16,0,.32,0,.48,0,8.7,0,17.4,0,26.1,0,.16,0,.32,0,.48-.01.48-.02.49-.51.5-1.34,0-2.68,0-4.02,0-.95,0-.84.09-.84-.86,0-8.77,0-17.54,0-26.31,0-.18,0-.37,0-.55.02-.26-.09-.39-.36-.37-.16.01-.32,0-.48,0-4.34,0-8.68,0-13.02,0-.96,0-.83-.1-.83.86,0,8.75,0,17.49,0,26.24,0,.16,0,.32,0,.48-.01.49-.01.5-.5.51-1.34,0-2.68,0-4.02,0-.93,0-.85.08-.85-.86,0-8.77,0-17.54,0-26.31,0-.21,0-.42,0-.62,0-.2-.08-.3-.28-.3-.14,0-.28,0-.42,0-4.43,0-8.86,0-13.3,0-.14,0-.28,0-.42,0-.2,0-.29.1-.29.3,0,.12,0,.23,0,.35,0,13.82,0,27.65,0,41.47,0,.72-.04.67.68.67.12,0,.23,0,.35,0,7.22,0,14.45,0,21.67,0ZM320.17,109.92v26.44c0,.18.01.37,0,.55-.03.35.14.45.45.42.14-.01.28,0,.42,0,4.32,0,8.63,0,12.95,0,.99,0,.93.18.93-.92,0-8.75,0-17.49,0-26.24,0-.21,0-.42,0-.62,0-.24.12-.33.34-.32.16,0,.32,0,.48,0,3.39,0,6.79,0,10.18,0q1,0,1,.97c0,8.81,0,17.63,0,26.44,0,.72-.03.68.68.68,4.48,0,8.95,0,13.43,0,.61,0,.61,0,.62-.6,0-.07,0-.14,0-.21,0-10.64,0-21.27.01-31.91,0-.53-.17-.9-.54-1.27-2.79-2.76-5.56-5.53-8.32-8.32-.36-.36-.71-.49-1.21-.49-5.31.02-10.62.01-15.92,0-.75,0-.75.09-.75-.76,0-3.48,0-6.97,0-10.45,0-.16,0-.32,0-.48.01-.27-.12-.37-.38-.35-.14,0-.28,0-.42,0-4.36,0-8.72,0-13.09,0-.98,0-.86-.1-.86.84,0,8.86,0,17.72,0,26.58ZM156.35,137.34c2.19,0,4.39,0,6.58,0,.58,0,1.15-.02,1.73,0,.33.01.47-.12.44-.44,0-.11,0-.23,0-.35,0-4.38,0-8.77,0-13.15,0-.12,0-.23,0-.35.02-.28-.08-.44-.39-.42-.16.01-.32,0-.48,0-2.79,0-5.59,0-8.38,0-.72,0-1.43,0-2.15,0-.62,0-.62,0-.62-.59,0-.46,0-.92,0-1.38,0-3.6,0-7.2,0-10.8,0-.61,0-.61.59-.62.16,0,.32,0,.48,0,3.46,0,6.92,0,10.39,0,.55,0,.56,0,.56-.51,0-4.55,0-9.09,0-13.64,0-.53-.01-.53-.53-.55-.14,0-.28,0-.42,0-3.49,0-6.97,0-10.46,0-.61,0-.61,0-.62-.6,0-.14,0-.28,0-.42,0-3.39,0-6.78,0-10.18,0-.16,0-.32,0-.48.01-.26-.09-.39-.36-.37-.11,0-.23,0-.35,0-4.43,0-8.86,0-13.3,0-.14,0-.28,0-.42,0-.19,0-.31.08-.31.28,0,.14,0,.28,0,.42,0,14.72,0,29.45,0,44.17,0,.43.13.73.43,1.03,2.85,2.83,5.69,5.67,8.51,8.52.3.3.6.43,1.03.43,2.68-.02,5.36-.01,8.03-.01ZM250.65,105.28c0,7.34,0,14.68,0,22.02,0,.44.1.78.43,1.1,2.85,2.83,5.69,5.67,8.51,8.52.3.3.59.44,1.03.43,1.85-.02,3.69-.01,5.54-.01,3.53,0,7.06,0,10.59,0,.63,0,.64,0,.64-.64,0-1.29,0-2.58,0-3.88,0-3.18,0-6.37,0-9.55,0-.61,0-.61-.59-.62-.14,0-.28,0-.42,0-3.37,0-6.74,0-10.11,0-.18,0-.37,0-.55,0-.23,0-.34-.11-.33-.34,0-.14,0-.28,0-.42,0-3.97,0-7.94,0-11.91,0-.84-.02-.73.76-.74,3.53,0,7.06,0,10.59,0,.65,0,.65,0,.65-.62,0-4.48,0-8.95,0-13.43,0-.64,0-.64-.63-.64-2.65,0-5.31,0-7.96,0-.95,0-1.89,0-2.84,0-.56,0-.56-.01-.57-.58,0-.14,0-.28,0-.42,0-3.39,0-6.78,0-10.18,0-1,.08-.86-.83-.87-4.36,0-8.72,0-13.09,0-.9,0-.81-.08-.81.83,0,7.32,0,14.63,0,21.95ZM282.75,115.9c0,3.81,0,7.62,0,11.42,0,.45.12.77.44,1.09,2.82,2.8,5.62,5.61,8.41,8.43.35.36.7.51,1.2.51,7.09-.02,14.17-.01,21.26-.01.85,0,.79.1.79-.77,0-4.39,0-8.77,0-13.16,0-.12-.01-.23,0-.35.04-.34-.14-.45-.45-.43-.16.01-.32,0-.48,0-5.19,0-10.39,0-15.58,0-.18,0-.37,0-.55,0-.23,0-.34-.1-.33-.33,0-.12,0-.23,0-.35,0-4.02,0-8.03,0-12.05,0-.72-.05-.67.68-.67.12,0,.23,0,.35,0,5.22,0,10.43,0,15.65,0,.82,0,.73.05.73-.76,0-4.39,0-8.77,0-13.16,0-.14,0-.28,0-.42.02-.26-.09-.39-.36-.37-.14,0-.28,0-.42,0-7.11,0-14.22,0-21.33,0-.45,0-.77.12-1.09.44-2.81,2.84-5.63,5.66-8.47,8.47-.32.32-.45.64-.45,1.09.02,3.79,0,7.57,0,11.36ZM230.63,115.96c0,3.32,0,6.64,0,9.97,0,3.6,0,7.2,0,10.8,0,.61,0,.61.6.62.05,0,.09,0,.14,0,4.41,0,8.81,0,13.22,0,.8,0,.73.06.73-.76,0-13.75,0-27.5,0-41.25,0-.86.08-.79-.77-.79-4.38,0-8.77,0-13.15,0-.9,0-.77-.04-.77.79,0,6.87,0,13.75,0,20.62ZM237.95,89.18c2.26,0,4.52,0,6.78,0,.59,0,.6,0,.6-.61,0-1.84,0-3.69,0-5.53,0-.52-.01-.53-.54-.53-4.54,0-9.08,0-13.62,0-.52,0-.52.01-.53.54,0,1.84,0,3.69,0,5.53,0,.59,0,.6.61.6,2.24,0,4.47,0,6.71,0Z"/>
  <path class="cls-1" d="M306.18,10.25c8.8,0,17.59,0,26.39,0,.16,0,.32,0,.48,0q.5.01.52.49c0,.12,0,.23,0,.35,0,11.96,0,23.91.01,35.87,0,.56-.17.93-.56,1.32-6.78,6.76-13.55,13.54-20.31,20.33-.37.37-.74.53-1.26.53-3.05-.02-6.09,0-9.14-.02-.57,0-.98.14-1.39.56-1.87,1.92-3.78,3.79-5.66,5.7-.33.34-.67.48-1.15.48-1.75-.03-3.51,0-5.26-.01-.74,0-.74.08-.74-.77,0-1.73,0-3.46,0-5.19,0-.82.04-.76-.74-.76-3.51,0-7.02,0-10.53,0-.86,0-.76.09-.76-.79,0-15.6,0-31.2,0-46.81,0-.42.05-.82.15-1.23.8-3.15,1.58-6.3,2.37-9.45.15-.58.15-.58.79-.58,8.93,0,17.87,0,26.8,0ZM296.27,62.37c.23-.27.39-.47.57-.65,2.28-2.29,4.57-4.57,6.83-6.87.32-.32.63-.46,1.08-.46,4.48.02,8.95,0,13.43.02.48,0,.81-.14,1.14-.48,2.78-2.8,5.56-5.6,8.37-8.37.38-.37.52-.74.52-1.27-.01-9.27,0-18.55-.01-27.82,0-.98.11-.85-.84-.85-14.12,0-28.25,0-42.37,0-1.02,0-.89-.15-.89.87,0,12.34,0,24.69,0,37.03,0,.12,0,.23,0,.35q.01.53.53.54c.14,0,.28,0,.42,0,3.42,0,6.83,0,10.25,0,.16,0,.32,0,.48,0,.28-.02.37.12.36.37,0,.16,0,.32,0,.48,0,2.1,0,4.2,0,6.3,0,.22-.05.45.13.81Z"/>
  <path class="cls-2" d="M313.5,34.34c0-2.4,0-4.79,0-7.19,0-.16,0-.32,0-.48-.02-.27.1-.37.36-.36.53.01,1.06,0,1.59,0,.99,0,1.98,0,2.97,0,.32,0,.48.09.44.43-.01.11,0,.23,0,.35,0,4.84,0,9.68,0,14.52,0,.86.09.77-.78.77-1.31,0-2.63,0-3.94,0-.64,0-.64,0-.64-.63,0-2.47,0-4.93,0-7.4Z"/>
  <path class="cls-3" d="M304.14,34.4c0,2.37,0,4.75,0,7.12,0,.16,0,.32,0,.48.01.27-.1.36-.37.36-.69-.01-1.38,0-2.08,0-.83,0-1.66,0-2.49,0-.29,0-.44-.08-.4-.39.01-.14,0-.28,0-.41,0-4.82,0-9.64,0-14.45,0-.07,0-.14,0-.21,0-.59,0-.6.6-.6,1.36,0,2.72,0,4.08,0,.64,0,.65,0,.65.63,0,2.49,0,4.98,0,7.47Z"/>
</svg>