<?xml version="1.0" encoding="UTF-8"?>
<svg id="Layer_1" data-name="Layer 1" xmlns="http://www.w3.org/2000/svg" version="1.1" viewBox="0 0 500 165">
  <defs>
    <style>
      .cls-1 {
        fill: #010101;
        stroke-width: 0px;
      }
    </style>
  </defs>
  <path class="cls-1" d="M304.77,10.24h13.38c-18.18,21.43-35.82,42.21-53.57,63.13,18.61,27.03,37.09,53.87,55.95,81.27h-42.55c-12.04-17.59-24.22-35.39-36.76-53.72-15.5,18.23-30.68,36.08-45.78,53.84h-13.59c18.07-21.28,35.6-41.93,53.3-62.78-18.54-27.18-36.91-54.09-55.69-81.62h41.69c12.18,17.68,24.61,35.7,37.35,54.2,15.57-18.28,30.94-36.33,46.26-54.32ZM197.58,19.78c28.86,42.28,57.23,83.85,85.46,125.22h19.16c-29-42.09-57.63-83.66-86.26-125.22h-18.36Z"/>
</svg>