<?xml version="1.0" encoding="UTF-8"?>
<svg id="Layer_1" data-name="Layer 1" xmlns="http://www.w3.org/2000/svg" version="1.1" viewBox="0 0 500 165">
  <defs>
    <style>
      .cls-1 {
        fill: #e73248;
      }

      .cls-1, .cls-2 {
        stroke-width: 0px;
      }

      .cls-2 {
        fill: #301746;
      }
    </style>
  </defs>
  <path class="cls-1" d="M327.03,51.21c-10.56.05-20.31-9.09-19.93-21.17.3-9.56,8.21-19.89,20.71-19.6,12.08.28,20.28,9.54,20.1,20.79-.19,11.7-9.79,20.36-20.87,19.98Z"/>
  <path class="cls-1" d="M192.83,134.48c.34,9.78-7.86,20.24-20.41,20.11-11.91-.13-20.36-9.14-20.32-20.57.04-11.69,9.6-20.33,20.65-20.25,10.99.08,20.6,9.37,20.08,20.71Z"/>
  <path class="cls-2" d="M286.35,66.89c.13-1.38.22-2.37.33-3.47.67-.07,1.21-.16,1.75-.17,2.51-.02,5.02,0,7.47,0,.66,2.1.86,33.6.28,38.27-3.07.55-6.19.12-9.44.25-.15-1.27-.28-2.32-.43-3.6-.9.67-1.62,1.23-2.36,1.77-4.1,2.99-8.57,3.84-13.49,2.42-8.94-2.58-15.12-10.28-15.2-19.55-.1-10.78,7.36-18.42,16.21-20.43,4.88-1.11,9.21.02,13.07,3.15.5.4,1.02.77,1.81,1.35ZM286.5,82.76c.09-5.98-4.5-10.71-10.35-11-5.25-.26-11.11,4.01-11.17,10.47-.06,6.13,4.56,10.93,10.63,10.99,5.93.06,10.81-4.62,10.89-10.45Z"/>
  <path class="cls-2" d="M224.36,10.24c11.03.32,20.55,8.81,20.35,20.94-.19,11.53-9.11,20.33-20.73,20.22-12.11-.12-20.58-9.7-20.36-20.87.23-11.8,9.5-20.1,20.74-20.29ZM213.5,30.78c-.01,5.92,4.73,10.76,10.57,10.8,5.99.04,10.86-4.84,10.83-10.87-.02-5.95-4.72-10.41-10.74-10.59-5.16-.16-10.86,4.49-10.66,10.66Z"/>
  <path class="cls-2" d="M313.36,140.06c3.48,2.69,6.97,4.38,10.91,5.04,2.51.42,5.02.44,7.48-.31.7-.21,1.43-.5,1.99-.94,1.53-1.2,1.41-3.04-.39-3.78-1.79-.73-3.75-1.04-5.63-1.53-2.88-.75-5.79-1.38-8.62-2.27-2.14-.68-4.04-1.89-5.54-3.64-2.5-2.9-3.09-9.84.31-13.51,2.52-2.72,5.61-4.36,9.16-5.02,6.63-1.24,12.97-.09,19.02,2.81.15.07.23.28.53.66-.79,2.66-1.64,5.49-2.48,8.31-2.06-.77-3.94-1.57-5.88-2.18-3.07-.98-6.24-1.11-9.42-.7-2.43.31-3.78,1.27-3.59,2.43.29,1.82,1.9,2.17,3.32,2.51,1.99.47,4.05.66,6.03,1.18,2.51.66,5.08,1.27,7.42,2.35,7.41,3.44,8.95,12.12,3.42,18.17-2.88,3.15-6.6,4.47-10.67,4.92-7.34.82-14.01-1.02-20.3-5.41.95-2.93,1.88-5.81,2.95-9.1Z"/>
  <path class="cls-2" d="M241.15,66.75c-1.26,2.79-2.48,5.5-3.77,8.37-.76-.51-1.42-.99-2.11-1.41-3.65-2.19-7.57-2.69-11.55-1.31-4.95,1.72-7.72,6.94-6.73,12.15.94,4.93,5.25,8.54,10.3,8.65,3.82.08,4.49-.12,10.12-3.12,1.23,2.69,2.46,5.37,3.66,7.98-3.6,5.25-17.62,7.84-26.4.52-9.27-7.73-9.82-21.08-2.65-29.54,8.31-9.8,23.31-8.43,29.13-2.29Z"/>
  <path class="cls-1" d="M275.75,16.46c7.95-.04,14.49,6.4,14.47,14.33-.01,8.05-6.21,14.49-14.33,14.48-9-.01-14.48-6.98-14.48-14.33,0-8.71,6.94-14.45,14.34-14.48Z"/>
  <path class="cls-1" d="M158.16,82.43c-.15-7.19,5.76-14.35,14.45-14.33,7.94.02,14.4,6.22,14.32,14.47-.09,9.07-7.26,14.39-14.47,14.34-8.57-.06-14.49-7.14-14.3-14.48Z"/>
  <path class="cls-1" d="M341.84,82.65c.11,7.19-5.81,14.33-14.51,14.27-7.97-.05-14.39-6.31-14.26-14.53.14-9.2,7.46-14.29,14.53-14.3,7.93,0,14.26,6.55,14.24,14.56Z"/>
  <path class="cls-1" d="M224.16,148.55c-7.93.01-14.43-6.47-14.38-14.41.05-7.7,5.86-14.4,14.42-14.38,8.83.02,14.43,6.87,14.39,14.41-.05,8.78-7.09,14.42-14.42,14.38Z"/>
  <path class="cls-2" d="M269.45,143.67h22.39v9.24c-2.07.55-27.13.75-31.83.27-.56-1.94-.69-34.6-.13-38.04h9.49c.15,3.15.05,6.29.07,9.42.02,3.08,0,6.17,0,9.25v9.85Z"/>
  <path class="cls-2" d="M156.71,11.83c.68-.05,1.4-.16,2.13-.16,2.22-.02,4.44,0,6.93,0v28.75c7.75.12,15.25-.01,22.9.08v9.39h-31.91c-.56-2.21-.61-35.32-.05-38.06Z"/>
</svg>