<?xml version="1.0" encoding="UTF-8"?>
<svg id="Layer_1" data-name="Layer 1" xmlns="http://www.w3.org/2000/svg" version="1.1" viewBox="0 0 500 165">
  <defs>
    <style>
      .cls-1 {
        fill: #12519f;
        stroke-width: 0px;
      }
    </style>
  </defs>
  <path class="cls-1" d="M24.88,33.2c4.49.31,8.68,1.47,12.22,4.36,4.89,3.99,7.46,9.12,7.46,15.48,0,13.34-.07,26.67.03,40.01.06,7.76,2.83,14.35,9.66,18.54,11.59,7.12,28.74,2.21,31.51-14.38.21-1.28.28-2.6.28-3.9.02-13.48,0-26.95.02-40.43.02-8.45,5.65-16.08,13.73-18.58,1.8-.56,3.71-.79,5.7-1.2.07.72.14,1.12.14,1.53-.01,20.17.28,40.34-.14,60.5-.38,18.35-12.49,32.27-30.26,35.72-9.23,1.8-18.4,1.44-27.17-2.22-12.43-5.17-19.73-14.58-22.25-27.72-.41-2.14-.63-4.32-.93-6.49,0-20.41,0-40.82,0-61.23Z"/>
  <path class="cls-1" d="M475.06,114.18v17.5c-.57,0-1.07,0-1.57,0-16.74,0-33.49.01-50.23,0-14.14,0-26.49-10.78-28.5-24.79-1.33-9.24,1.52-17.04,8-23.64.26-.27.54-.52.8-.79.06-.06.1-.16.2-.32-.98-1.08-2.01-2.15-2.98-3.27-9.27-10.83-7.91-26.21.85-35.77,5.85-6.38,13.07-9.62,21.79-9.59,16.6.06,33.21.02,49.81.02q1.86,0,1.86,1.82c0,4.63-.05,9.27.03,13.9.02,1.32-.4,1.65-1.68,1.64-15.85-.04-31.71-.03-47.56-.02-5.45,0-9.94,3.31-11.25,8.24-1.9,7.16,3.42,13.91,11.05,13.94,10.27.04,20.54.01,30.82.01q2.13,0,2.13,2.16c0,4.45,0,8.89,0,13.34q0,1.86-1.82,1.87c-10.13,0-20.26-.03-30.39.01-5.06.02-8.86,2.34-10.97,6.93-2.13,4.62-1.5,9.07,1.84,12.95,2.2,2.56,5.12,3.87,8.56,3.87,15.81,0,31.61,0,47.42,0h1.79Z"/>
  <path class="cls-1" d="M132.75,99.71c0-9.83-.13-19.66.03-29.48.29-17.68,12.15-32.09,29.44-35.76,10.64-2.26,21.11-1.63,30.94,3.37,10.82,5.51,17.19,14.48,19.32,26.36.61,3.38.83,6.87.84,10.32.08,18.53.02,37.06.07,55.6,0,1.38-.41,1.73-1.74,1.71-5.35-.07-10.69-.03-16.04-.03-1.87,0-1.87,0-1.87-1.85,0-19.23,0-38.47,0-57.7,0-5.92-1.63-11.31-5.86-15.61-5.83-5.93-13.04-7.42-20.84-5.37-7.7,2.02-12.25,7.44-14.14,15.06-.43,1.75-.59,3.6-.59,5.41-.04,19.42-.04,38.84,0,58.26,0,1.39-.31,1.85-1.77,1.83-5.35-.08-10.69-.08-16.04,0-1.38.02-1.85-.33-1.84-1.79.06-10.11.03-20.22.03-30.33.02,0,.03,0,.05,0Z"/>
  <path class="cls-1" d="M286.81,50.52v-17.13h80.46v17.1h-30.33v2.11c0,25.78,0,51.57,0,77.35,0,1.84,0,1.85-1.83,1.85-5.35,0-10.69-.04-16.04.03-1.37.02-1.72-.41-1.72-1.75.04-25.64.03-51.29.03-76.93,0-.47-.03-.94,0-1.4.06-.88-.25-1.34-1.2-1.24-.32.04-.66,0-.98,0-8.86,0-17.73,0-26.59,0h-1.8Z"/>
  <path class="cls-1" d="M240.28,33.35h19.46c.03.55.07,1.05.07,1.54,0,31.73,0,63.46.03,95.19,0,1.33-.34,1.76-1.71,1.74-5.39-.08-10.79-.08-16.18,0-1.4.02-1.7-.45-1.7-1.76.03-31.73.03-63.46.03-95.19v-1.53Z"/>
</svg>