<?xml version="1.0" encoding="UTF-8"?>
<svg id="Layer_1" data-name="Layer 1" xmlns="http://www.w3.org/2000/svg" version="1.1" viewBox="0 0 500 165">
  <defs>
    <style>
      .cls-1 {
        fill: #ed3959;
      }

      .cls-1, .cls-2, .cls-3, .cls-4, .cls-5, .cls-6, .cls-7, .cls-8, .cls-9, .cls-10, .cls-11, .cls-12, .cls-13, .cls-14 {
        stroke-width: 0px;
      }

      .cls-2 {
        fill: #6cc9d2;
      }

      .cls-3 {
        fill: #6dcad3;
      }

      .cls-4 {
        fill: #6fc8d1;
      }

      .cls-5 {
        fill: #080706;
      }

      .cls-6 {
        fill: #0e0c0c;
      }

      .cls-7 {
        fill: #e63f59;
      }

      .cls-8 {
        fill: #ed3858;
      }

      .cls-9 {
        fill: #111010;
      }

      .cls-10 {
        fill: #70c5ce;
      }

      .cls-11 {
        fill: #0c0b0b;
      }

      .cls-12 {
        fill: #eb3958;
      }

      .cls-13 {
        fill: #030303;
      }

      .cls-14 {
        fill: #070707;
      }
    </style>
  </defs>
  <g>
    <path class="cls-14" d="M466.76,83.57c.15.94.76,1.52,1.22,2.18,6.83,9.89,13.66,19.78,20.49,29.66.46.67.93,1.33,1.38,2.01.32.47.09.91-.48.91-2.53,0-5.06,0-7.6,0-2.89,0-5.79,0-8.68,0-.69,0-1.2-.26-1.6-.83-2.06-2.97-4.14-5.93-6.22-8.89-2.85-4.07-5.71-8.14-8.57-12.21-.31-.44-.63-.88-.97-1.29-.18-.22-.4-.29-.65-.06-1.4,1.28-2.8,2.56-4.21,3.83-.36.32-.57.69-.57,1.17,0,.63-.01,1.27-.01,1.9,0,4.34,0,8.68,0,13.02,0,.63,0,1.27-.01,1.9-.02.73-.28,1.04-.93,1.04-5.06,0-10.13.01-15.19,0-.67,0-.97-.31-.99-1-.03-.72-.02-1.45-.02-2.17,0-21.8,0-43.6,0-65.39,0-3.54-.39-3.02,2.99-3.05,3.98-.03,7.96,0,11.94,0,.54,0,1.09-.02,1.62.06.2.03.51.31.53.49.07.81.06,1.63.06,2.44,0,8.86,0,17.73,0,26.59,0,.81,0,1.63.02,2.44,0,.15.08.34.2.42.28.21.52,0,.71-.18.53-.49,1.03-1.01,1.55-1.52,4.17-4.14,8.35-8.28,12.52-12.42.51-.51,1.04-1,1.55-1.51.27-.26.57-.43.96-.43.09,0,.18,0,.27,0,6.33,0,12.66.02,18.99.02.24,0,.36.05.35.29,0,.08.01.19-.03.24-.16.22-.32.44-.51.63-.44.45-.9.89-1.36,1.33-5.7,5.55-11.41,11.1-17.1,16.66-.58.56-1.13,1.15-1.66,1.69Z"/>
    <path class="cls-14" d="M271.89,94.86c-1.42,1.31-2.87,2.66-4.34,3.99-.52.47-.66,1.03-.65,1.7.02,1.81,0,3.62,0,5.43,0,3.35,0,6.69,0,10.04,0,.45,0,.91-.1,1.34-.05.22-.3.42-.5.56-.13.09-.35.05-.53.05-4.88,0-9.77,0-14.65,0-.18,0-.36,0-.54-.02-.35-.02-.69-.34-.71-.68-.03-.45-.06-.9-.06-1.35,0-22.6,0-45.21,0-67.81,0-.45,0-.91.07-1.35.02-.13.24-.27.39-.34.16-.07.35-.06.53-.06,4.97,0,9.95,0,14.92,0,1.03,0,1.16.16,1.17,1.31,0,2.53,0,5.06,0,7.6,0,7.32,0,14.65,0,21.97,0,.45.02.9.04,1.35,0,.07.07.18.12.19.16.03.39.09.49.02.48-.4.95-.82,1.4-1.26,4.43-4.39,8.86-8.79,13.28-13.18.38-.38.79-.75,1.16-1.14.34-.36.74-.47,1.21-.47,1.81,0,3.62,0,5.42,0,4.52,0,9.04.01,13.56.03.14,0,.35.11.39.22.05.14,0,.37-.09.48-.35.41-.73.8-1.12,1.17-5.76,5.62-11.53,11.23-17.29,16.85-.71.69-1.37,1.43-2.06,2.15.13,1.15.99,1.9,1.59,2.77,6.82,9.89,13.65,19.77,20.48,29.66.36.52.71,1.05,1.05,1.58.2.3-.07.71-.47.73-.18,0-.36,0-.54,0-5.06,0-10.13,0-15.19,0-.36,0-.74.05-1.08-.05-.33-.09-.69-.26-.9-.51-.47-.54-.87-1.15-1.29-1.74-4.61-6.59-9.22-13.17-13.84-19.76-.36-.51-.63-1.11-1.35-1.43Z"/>
    <path class="cls-5" d="M399.32,117.97c-.51.06-1.02.12-1.53.18-.9,0-1.8-.04-2.69,0-2.35.1-4.72.05-7.03-.34-5.45-.94-10.36-3.17-14.46-6.9-8.28-7.52-11.58-16.91-9.43-27.87,2.44-12.46,12.13-20.3,21.68-22.55.36-.08.7-.16.94-.47.79-.06,1.59-.06,2.36-.2,2.18-.41,4.37-.37,6.56-.27.45.4,1.02.26,1.54.34.8.12,1.62.15,2.41.32,4.01.85,7.71,2.44,11.06,4.83,10.48,7.47,15.14,20.61,10.95,33.04-3.46,10.25-10.67,16.67-21.13,19.42-.43.11-.9.11-1.22.48ZM393.31,103.06c7.73.11,14.34-6.03,14.33-14.15-.01-7.78-6.07-14.12-14.35-14.2-7.77-.08-14.07,6.37-14.21,14.08-.13,7.07,5.65,14.27,14.22,14.27Z"/>
    <path class="cls-11" d="M364.71,46.47c-.15.7-.23,1.33-.42,1.92-1.22,3.87-2.45,7.74-3.69,11.6-.11.34-.26.67-.38,1.01-.13.39-.41.57-.8.58-1.36.01-2.71.02-4.07.02-2.89,0-5.79,0-8.68.02-.37,0-.68.31-.69.66-.02.81-.04,1.63-.04,2.44,0,16.73,0,33.45,0,50.18,0,3.38.31,3.04-3.04,3.05-3.89,0-7.78,0-11.66,0-.54,0-1.09,0-1.63,0-1.06-.02-1.32-.25-1.35-1.22-.02-.72,0-1.45,0-2.17,0-16.36,0-32.73-.02-49.09,0-1.32.36-2.69-.29-3.98-1.23-.38-2.49-.17-3.74-.18-3.62-.03-7.23,0-10.85-.02-.63,0-1.26-.02-1.89-.1-.24-.03-.52-.17-.54-.51-.02-.27-.07-.54-.07-.81,0-4.07.02-8.14-.01-12.2,0-1.28.41-1.34,1.46-1.34.18,0,.36,0,.54,0,16.73,0,33.45,0,50.18,0,.53,0,1.06.08,1.68.13Z"/>
    <path class="cls-13" d="M185.85,89.54c0-8.77,0-17.53,0-26.3,0-1.91-.02-1.93-1.98-1.94-4.25-.01-8.5,0-12.74,0-.63,0-1.26-.02-1.9-.04-.35-.01-.72-.35-.74-.66-.02-.27-.03-.54-.03-.81,0-4.07,0-8.13,0-12.2,0-.27-.01-.55.06-.81.04-.15.23-.35.36-.36.62-.06,1.26-.08,1.88-.08,16.36,0,32.72,0,49.07,0,.54,0,1.08,0,1.63.02.62.02.86.29.71.8-.1.34-.24.68-.35,1.02-1.31,4.13-2.61,8.25-3.92,12.38-.29.9-.45,1.04-1.31,1.05-2.08.01-4.16,0-6.24,0-2.08,0-4.16.01-6.23.03-.38,0-.71.3-.72.64-.02.81-.04,1.63-.04,2.44,0,16.72,0,33.44,0,50.16,0,3.45.39,3.06-2.98,3.07-4.16.01-8.31,0-12.47,0-.45,0-.9-.01-1.35-.04-.33-.02-.64-.35-.65-.73-.02-.54-.04-1.08-.04-1.62,0-8.68,0-17.35,0-26.03Z"/>
    <path class="cls-9" d="M225.5,93.64c0-7.32,0-14.64,0-21.97,0-.63-.01-1.27.06-1.89.02-.2.29-.44.5-.53.23-.1.53-.06.8-.06,4.79,0,9.58,0,14.37,0,.27,0,.54.04.81.05.33.01.51.27.55.51.08.44.08.9.08,1.35,0,14.92,0,29.83,0,44.75,0,.45-.03.9-.06,1.35-.03.37-.34.7-.67.73-.27.02-.54.04-.81.04-4.7,0-9.4,0-14.1,0-.36,0-.72-.02-1.07-.1-.15-.03-.34-.23-.36-.37-.07-.63-.11-1.26-.11-1.89,0-7.32,0-14.64,0-21.97Z"/>
    <path class="cls-10" d="M386.8,60.02c-.24.3-.58.38-.94.47-9.55,2.25-19.24,10.09-21.68,22.55-2.14,10.96,1.15,20.35,9.43,27.87,4.1,3.73,9.01,5.96,14.46,6.9,2.31.4,4.67.45,7.03.34.9-.04,1.79,0,2.69,0-.13.1-.26.29-.4.3-3.52.32-7.05.27-10.55-.03-4.04-.34-7.99-1.29-11.63-3.21-4.13-2.18-7.57-5.16-10.38-8.89-2.42-3.22-4.11-6.76-4.98-10.68-.66-3-1.09-6.06-.7-9.11.7-5.52,2.48-10.61,5.95-15.12,4.13-5.36,9.44-8.82,15.85-10.64,1.87-.53,3.81-1.11,5.84-.75Z"/>
    <path class="cls-7" d="M399.32,117.97c.32-.38.79-.37,1.22-.48,10.46-2.76,17.67-9.18,21.13-19.42,4.2-12.43-.47-25.57-10.95-33.04-3.35-2.39-7.04-3.98-11.06-4.83-.79-.17-1.61-.19-2.41-.32-.52-.08-1.09.06-1.54-.34,7.97-.36,15.15,1.78,21.32,6.92,5.23,4.36,8.59,9.9,9.92,16.61,3.14,15.84-6.52,29.26-19.45,33.59-2.64.88-5.34,1.66-8.2,1.31Z"/>
  </g>
  <path class="cls-6" d="M234.11,63.31c-4.31.3-8.68-3.68-8.63-8.54.04-4.48,4.05-8.39,8.54-8.41,3.87-.02,8.63,3.04,8.62,8.59-.01,4.67-3.81,8.34-8.53,8.35Z"/>
  <g>
    <path class="cls-13" d="M56.8,67.86s.1.07.15.09c0,3.44,0,6.89-.01,10.33,0,2.13,0,4.26,0,6.38,0,.27-.02.54-.05.8-.01.07-.13.16-.21.18-.09.02-.19-.04-.29-.07-1.14-.33-2.3-.57-3.47-.65-1.92-.13-3.84-.08-5.74.35-4.71,1.07-8.5,3.53-11.33,7.44-2.42,3.33-3.55,7.09-3.55,11.19,0,1.08.15,2.15.34,3.22.64,3.55,2.2,6.63,4.63,9.29,1.26,1.38,2.7,2.55,4.3,3.5.2.12.38.3.65.24h-.01c.01.14.11.18.24.18.23.21.46.43.68.64.09.14.16.3.26.42.82.95,1.72,1.81,2.71,2.58,3.14,2.4,6.66,3.76,10.63,3.93,1.86.08,3.71-.02,5.52-.5,4.47-1.18,8.1-3.6,10.79-7.37,2.09-2.92,3.27-6.18,3.44-9.78.03-.67.05-1.35.05-2.02,0-28.9,0-57.8,0-86.69,0-.3,0-.61,0-.91,0-.1,0-.2.01-.3,0-.14.12-.26.25-.26.3,0,.61-.01.91-.01,4.69,0,9.38,0,14.08,0,.34,0,.67-.02,1.01-.02.02.03.05.05.08.06.09.5.16,1,.27,1.49.67,2.91,1.72,5.67,3.18,8.27,2.34,4.15,5.45,7.61,9.35,10.35.11.08.23.14.37.11h-.01c.04.22.18.28.39.24h-.01c-.02.17.11.19.24.22.38.33.75.66,1.13.99.07.24.27.38.44.54,3.21,3.16,6.94,5.52,11.17,7.07,1.35.5,2.73.95,4.17,1.16.02.05.06.1.1.13,0,.37-.02.74-.02,1.11,0,4.36,0,8.71,0,13.07,0,.88,0,1.76,0,2.63,0,.17,0,.34-.05.5-.02.08-.12.17-.2.19-.16.04-.33.06-.5.05-.61-.03-1.21-.08-1.82-.11-.98-.04-1.95-.09-2.93-.19-1.24-.12-2.48-.29-3.71-.5-2.36-.4-4.68-.97-6.97-1.69-5.12-1.62-9.88-3.96-14.31-6.99-.14-.1-.28-.19-.42-.28-.09-.06-.23,0-.23.09-.01.34-.02.67-.02,1.01,0,14.35,0,28.7,0,43.06,0,.98-.03,1.96-.02,2.94,0,1.12-.14,2.22-.27,3.33-.17,1.44-.43,2.87-.76,4.28-.97,4.06-2.48,7.91-4.61,11.5-2.61,4.41-5.91,8.21-9.91,11.4-3.46,2.75-7.26,4.91-11.41,6.42-3.05,1.11-6.18,1.9-9.41,2.24-1.65.18-3.29.32-4.94.33-.84,0-1.68-.08-2.53-.12-1.69-.08-3.35-.31-5.01-.61-2.6-.47-5.11-1.21-7.56-2.17-2.17-.85-4.25-1.89-6.24-3.1-.2-.12-.38-.29-.64-.26-.39-.32-.77-.64-1.16-.96-.05-.16-.15-.28-.33-.29h.01c-.05-.21-.16-.37-.4-.4l-.05.03.04-.04c0-.15-.1-.24-.19-.34-.42-.49-.84-.97-1.25-1.46-3.58-4.36-6.16-9.24-7.73-14.66-.58-2.01-1.01-4.05-1.28-6.13-.15-1.14-.26-2.28-.31-3.42-.12-2.46,0-4.92.33-7.37.35-2.61.91-5.18,1.77-7.67,3.21-9.34,9-16.67,17.36-21.92,5.69-3.57,11.91-5.6,18.62-6.08.74-.05,1.48-.13,2.21-.19Z"/>
    <path class="cls-8" d="M29.15,138.77c.26-.02.44.14.64.26,1.99,1.21,4.07,2.25,6.24,3.1,2.45.96,4.97,1.7,7.56,2.17,1.66.3,3.33.53,5.01.61.84.04,1.68.13,2.53.12,1.65-.01,3.3-.15,4.94-.33,3.24-.35,6.36-1.13,9.41-2.24,4.16-1.52,7.95-3.67,11.41-6.42,4.01-3.19,7.31-6.99,9.91-11.4,2.13-3.6,3.64-7.44,4.61-11.5.34-1.41.6-2.84.76-4.28.13-1.1.28-2.21.27-3.33,0-.98.02-1.96.02-2.94,0-14.35,0-28.7,0-43.06,0-.34.01-.67.02-1.01,0-.09.14-.15.23-.09.14.09.28.18.42.28,4.42,3.04,9.19,5.38,14.31,6.99,2.29.72,4.61,1.29,6.97,1.69,1.23.21,2.46.37,3.71.5.98.1,1.95.15,2.93.19.61.03,1.21.08,1.82.11.17,0,.34,0,.5-.05.08-.02.18-.11.2-.19.04-.16.04-.33.05-.5,0-.88,0-1.76,0-2.63,0-4.36,0-8.71,0-13.07,0-.37.01-.74.02-1.11.62-.05,1.2.18,1.8.25,1.27.16,2.54.33,3.83.34.17,0,.34,0,.51,0,.2,0,.32.12.33.3,0,.2.01.4.01.61,0,.78,0,1.55,0,2.33,0,6.04,0,12.09,0,18.13,0,.99.06.93-.93.93-1.83,0-3.64-.16-5.45-.37-4.89-.56-9.59-1.81-14.13-3.68-3.38-1.39-6.57-3.13-9.6-5.18-.22-.15-.44-.31-.67-.45-.17-.11-.35-.01-.35.18,0,.34,0,.68,0,1.01,0,14.32,0,28.63,0,42.95,0,.84,0,1.69-.02,2.53-.06,3.15-.56,6.24-1.37,9.29-1.56,5.86-4.3,11.12-8.2,15.77-5.47,6.51-12.33,10.92-20.5,13.27-1.75.5-3.54.84-5.34,1.11-2.92.43-5.85.5-8.79.31-3.03-.19-6.02-.76-8.93-1.64-5.6-1.69-10.61-4.46-15.05-8.27-.59-.5-1.21-.98-1.66-1.62Z"/>
    <path class="cls-3" d="M92.81,20.02c-.34,0-.67.02-1.01.02-4.69,0-9.38,0-14.08,0-.3,0-.61,0-.91.01-.14,0-.24.12-.25.26,0,.1-.01.2-.01.3,0,.3,0,.61,0,.91,0,28.9,0,57.8,0,86.69,0,.67-.02,1.35-.05,2.02-.18,3.6-1.36,6.86-3.44,9.78-2.69,3.77-6.32,6.2-10.79,7.37-1.81.48-3.66.58-5.52.5-3.96-.17-7.49-1.53-10.63-3.93-.99-.76-1.89-1.63-2.71-2.58-.11-.12-.18-.28-.26-.42.21-.04.39.05.58.12,1.3.47,2.6.92,3.96,1.18.23.05.46.07.7.11.27.04.53.09.8.12,1.31.13,2.62.14,3.94,0,.17-.02.33-.08.49-.09,1.32-.09,2.59-.42,3.82-.88,1.62-.6,3.17-1.33,4.57-2.36.65-.48,1.31-.96,1.88-1.53.81-.81,1.64-1.6,2.33-2.53,1.11-1.5,2.01-3.11,2.65-4.86.36-.98.69-1.97.85-3,.12-.79.31-1.58.28-2.4-.03-.71,0-1.42,0-2.13,0-28.84,0-57.68,0-86.51,0-.34,0-.68,0-1.01.01-.44.16-.58.63-.6.13,0,.27,0,.41,0,6.72,0,13.44,0,20.16,0,.27,0,.54.01.8.06.35.06.47.2.48.54,0,.24.01.47,0,.71-.06,1.83.11,2.38.33,4.11Z"/>
    <path class="cls-2" d="M56.8,67.86c-.74.06-1.48.14-2.21.19-6.71.48-12.93,2.51-18.62,6.08-8.36,5.25-14.15,12.58-17.36,21.92-.86,2.49-1.42,5.05-1.77,7.67-.33,2.45-.44,4.91-.33,7.37.05,1.14.17,2.29.31,3.42.27,2.08.69,4.12,1.28,6.13,1.57,5.41,4.15,10.3,7.73,14.66.41.5.83.98,1.25,1.46.09.1.19.19.19.34-.17.1-.32.06-.46-.06-.81-.66-1.65-1.28-2.45-1.96-1.24-1.05-2.37-2.21-3.5-3.37-.59-.6-1.13-1.25-1.66-1.9-1.04-1.29-2.01-2.61-2.88-4.02-.95-1.55-1.85-3.12-2.61-4.79-.8-1.75-1.45-3.55-2.03-5.38-.38-1.18-.65-2.4-.91-3.61-.23-1.09-.32-2.19-.55-3.28-.05-.23-.03-.47-.04-.71-.02-.4,0-.8-.13-1.2-.07-.22-.05-.47-.05-.7,0-1.59,0-3.17,0-4.76,0-.34,0-.67.12-1,.05-.12.05-.27.05-.4,0-1.01.22-2,.38-3,.35-2.23.9-4.41,1.63-6.54.76-2.24,1.72-4.39,2.85-6.46,1.11-2.05,2.42-3.97,3.85-5.8.56-.71,1.14-1.42,1.78-2.06.41-.4.74-.88,1.15-1.27,1.55-1.5,3.16-2.93,4.9-4.21.95-.7,1.92-1.38,2.92-1.99,2.02-1.22,4.12-2.3,6.31-3.18,1.78-.71,3.61-1.3,5.48-1.73.88-.2,1.75-.49,2.66-.54.64-.26,1.34-.12,1.98-.34.18-.06.4-.03.6-.04.24-.01.48.02.71-.04.7-.2,1.41-.15,2.11-.16,1.21-.01,2.43-.01,3.65,0,.64,0,1.27,0,1.91.15.39.1.81.04,1.21.07.38.03.56.21.56.57,0,1.48-.01,2.97-.02,4.45Z"/>
    <path class="cls-1" d="M42.22,120.15c-.27.06-.45-.12-.65-.24-1.61-.95-3.04-2.13-4.3-3.5-2.43-2.65-3.99-5.74-4.63-9.29-.19-1.06-.34-2.13-.34-3.22,0-4.1,1.13-7.86,3.55-11.19,2.83-3.91,6.62-6.37,11.33-7.44,1.9-.43,3.82-.48,5.74-.35,1.17.08,2.34.32,3.47.65.1.03.2.09.29.07.08-.02.2-.11.21-.18.04-.26.05-.54.05-.8,0-2.13,0-4.26,0-6.38,0-3.44,0-6.89.01-10.33,1.01-.11,2.02-.05,3.03,0,.51.03,1.01.07,1.51.12.57.06,1.14.14,1.7.22.15.02.22.14.23.29,0,.17.01.34.01.51,0,7.02,0,14.04,0,21.06,0,.23-.03.47-.06.7,0,.05-.09.12-.14.12-.17,0-.33,0-.5-.04-.56-.12-1.12-.24-1.67-.38-.92-.23-1.87-.22-2.81-.32-.6-.06-1.21-.01-1.82.05-1.01.1-2.01.22-3,.44-2.57.58-4.91,1.66-7.01,3.24-3.76,2.83-6.16,6.56-7.2,11.15-.33,1.48-.5,3-.43,4.52.15,3.44,1.08,6.64,2.94,9.56.15.23.3.45.44.68.04.08.03.19.04.28Z"/>
    <path class="cls-12" d="M106.07,40.3c-.14.03-.26-.03-.37-.11-3.9-2.74-7.02-6.2-9.35-10.35-1.46-2.6-2.51-5.36-3.18-8.27-.11-.49-.18-.99-.27-1.49.37-.01.74-.04,1.11-.04,1.35,0,2.69,0,4.04,0,.24,0,.47,0,.71.02.13,0,.23.13.24.27,0,.07.01.13.01.2,0,.2,0,.4,0,.61-.07,2.24.3,4.43.85,6.58,1.11,4.37,3.08,8.32,5.9,11.83.15.18.27.38.39.58.02.03-.05.11-.08.16Z"/>
    <path class="cls-4" d="M123.57,50.52c-1.44-.21-2.81-.66-4.17-1.16-4.23-1.56-7.96-3.91-11.17-7.07-.17-.16-.37-.3-.44-.54.13.02.28.01.39.07,2.15,1.3,4.47,2.17,6.86,2.87,1.06.31,2.12.64,3.24.71.63.28,1.33.13,1.98.33.37.11.8.05,1.21.06.57.02,1.15.02,1.72.04.26,0,.43.2.45.46,0,.13.01.27.01.4,0,1.01,0,2.02,0,3.03,0,.27-.05.53-.08.8Z"/>
    <path class="cls-2" d="M27.28,137.12c.24.03.35.2.4.42-.36-.06-.39-.1-.4-.42Z"/>
    <path class="cls-12" d="M106.45,40.53c-.21.04-.35-.02-.39-.24.07-.04.13-.11.22-.04.1.07.16.16.17.28Z"/>
    <path class="cls-2" d="M27.67,137.52c.18.02.28.13.33.29-.18-.02-.33-.07-.33-.29Z"/>
    <path class="cls-12" d="M106.67,40.75c-.13-.02-.26-.05-.24-.23.15,0,.21.1.24.23Z"/>
    <path class="cls-1" d="M42.45,120.33c-.13,0-.23-.04-.24-.19.17-.05.21.07.24.19Z"/>
  </g>
</svg>