<?xml version="1.0" encoding="UTF-8"?>
<svg id="Layer_1" data-name="Layer 1" xmlns="http://www.w3.org/2000/svg" version="1.1" viewBox="0 0 500 165">
  <defs>
    <style>
      .cls-1 {
        fill: #242424;
      }

      .cls-1, .cls-2, .cls-3, .cls-4, .cls-5, .cls-6, .cls-7 {
        stroke-width: 0px;
      }

      .cls-2 {
        fill: #252524;
      }

      .cls-3 {
        fill: #252525;
      }

      .cls-4 {
        fill: #262625;
      }

      .cls-5 {
        fill: #ed2124;
      }

      .cls-6 {
        fill: #fff;
      }

      .cls-7 {
        fill: #252424;
      }
    </style>
  </defs>
  <rect class="cls-6" x="61.58" y="52.78" width="56.43" height="57.94"/>
  <g>
    <path class="cls-5" d="M84.88,28.72c11.03,0,20.24.2,29.45.49,6.73.21,13.45.51,20.15,1.06,3.6.3,7.21.59,10.74,1.42,7.8,1.83,12.71,6.69,14.78,14.39.98,3.65,1.4,7.42,1.81,11.17.69,6.31.98,12.65,1.17,18.99.15,4.87.14,9.75-.1,14.63-.13,2.81-.2,5.63-.38,8.44-.43,6.54-.85,13.09-2.48,19.46-2.09,8.16-7.38,13.07-15.64,14.71-4.71.93-9.5,1.21-14.28,1.56-6.84.49-13.69.74-20.54.91-9.96.26-19.93.44-29.9.29-6.06-.09-12.11-.2-18.17-.35-6.68-.17-13.36-.45-20.03-.93-4.19-.3-8.39-.62-12.52-1.42-8.71-1.67-14.06-6.87-16.09-15.47-.9-3.81-1.37-7.68-1.73-11.57-.79-8.59-1.15-17.19-1.1-25.81.04-6.6.34-13.19.87-19.77.41-4.98.9-9.96,2.18-14.81,2.13-8.05,7.36-12.89,15.49-14.57,4.33-.89,8.75-1.18,13.15-1.5,7.3-.53,14.61-.81,21.93-.98,7.69-.18,15.39-.41,21.27-.33ZM71.23,105.54c13.29-7.7,26.43-15.32,39.76-23.04-13.34-7.73-26.49-15.35-39.76-23.04v46.07Z"/>
    <path class="cls-3" d="M415.01,122.23c-.41,1.69-.83,3.39-1.24,5.09-.05.2-.11.41-.14.61-.08.51-.37.68-.88.67-1.51-.02-3.03,0-4.54,0-2.06,0-4.12,0-6.19,0-1.05,0-1.05-.01-1.07-1.01,0-.17,0-.34,0-.5,0-30.84,0-61.67,0-92.51,0-1.82-.25-1.58,1.62-1.58,3.87-.01,7.74,0,11.61,0,1.58,0,1.36-.15,1.36,1.31,0,10.85,0,21.71,0,32.56v1.32c.48-.26.6-.68.81-1.01,2.35-3.61,5.53-6.11,9.78-6.98,3.93-.8,7.7-.34,10.96,2.27,1.48,1.18,2.43,2.77,3.19,4.47,1.26,2.83,1.85,5.84,2.23,8.89.61,4.85.75,9.72.75,14.6,0,5.55.15,11.1-.24,16.65-.33,4.79-.93,9.53-2.77,14.02-.45,1.09-.98,2.13-1.65,3.11-2.26,3.3-5.34,5.11-9.38,5.3-4.6.21-8.61-1.11-11.89-4.42-.69-.69-1.21-1.5-1.74-2.31-.13-.21-.18-.48-.59-.54ZM415.55,96.01c0,5.93.04,11.86-.03,17.79-.02,1.27.44,2.16,1.29,2.99,1.03,1.01,2.28,1.6,3.68,1.78,2.15.29,4.01-.21,5.24-2.18.56-.9.92-1.88,1.17-2.91.78-3.25.99-6.56,1.02-9.88.05-5.09.07-10.18.05-15.27-.01-3.53-.09-7.06-.57-10.57-.23-1.67-.56-3.32-1.36-4.82-.96-1.8-2.8-2.61-4.78-2.15-3.09.72-5.69,3.99-5.7,7.17,0,6.02,0,12.03,0,18.05Z"/>
    <path class="cls-1" d="M301.05,120.37c-.43.31-.58.81-.82,1.22-1.39,2.35-3.12,4.39-5.47,5.82-3.78,2.3-7.85,2.77-12.12,1.8-3.14-.71-5.43-2.55-6.92-5.39-.75-1.42-1.23-2.94-1.57-4.5-.51-2.35-.73-4.74-.73-7.14-.02-16.57-.01-33.14-.01-49.71,0-.21.02-.42,0-.63-.05-.51.22-.67.68-.65.17,0,.34,0,.5,0,4.29,0,8.58,0,12.87,0,1.08,0,1.09.01,1.09,1.09,0,8.87,0,17.75,0,26.62,0,7.28,0,14.55,0,21.83,0,1.64.1,3.28.49,4.88.69,2.81,2.35,3.93,5.64,3.04,1.78-.48,3.1-1.63,4.12-3.14.31-.46.52-.96.47-1.53-.02-.29,0-.59,0-.88,0-16.78,0-33.56,0-50.34,0-1.77-.19-1.57,1.52-1.57,4.08,0,8.16,0,12.24,0,1.46,0,1.36-.14,1.36,1.35,0,19.47,0,38.95,0,58.42,0,2.19,0,4.37,0,6.56,0,1.04-.01,1.06-1.03,1.06-3.28,0-6.56,0-9.84,0-.96,0-.97-.02-1.13-1.04-.34-2.07-.66-4.15-1-6.22-.05-.32,0-.68-.33-.96Z"/>
    <path class="cls-7" d="M366.04,61.38v1.32c0,15.81,0,31.63,0,47.44,0,1.89.06,3.78.53,5.63.27,1.08.73,2.08,1.74,2.67,1.21.72,2.52.58,3.79.24,1.24-.33,2.29-1.04,3.2-1.94.96-.95,1.46-2.01,1.46-3.46-.05-16.86-.03-33.73-.03-50.59,0-1.57-.26-1.52,1.45-1.52,4.16,0,8.33,0,12.49,0,1.23,0,1.2-.1,1.2,1.13,0,21.7,0,43.4,0,65.1,0,.21,0,.42,0,.63,0,.36-.16.55-.53.54-.17,0-.34,0-.5,0-3.28,0-6.56,0-9.84,0-.92,0-.94-.02-1.09-.93-.34-2.03-.66-4.06-.98-6.1-.06-.4-.1-.8-.32-1.19-.47.25-.55.69-.76,1.04-1.77,2.94-3.98,5.42-7.18,6.85-3.8,1.7-7.72,1.92-11.66.63-3.66-1.2-5.69-4-6.83-7.54-.84-2.62-1.23-5.34-1.24-8.07-.04-17.03-.03-34.07-.03-51.1,0-.97.01-.99.95-.99,4.46,0,8.92,0,13.38,0,.25,0,.51-.02.81.19Z"/>
    <path class="cls-1" d="M223.78,95.1c0-3.49-.07-6.98.14-10.47.28-4.58.85-9.11,2.52-13.44,2.41-6.27,6.94-9.9,13.59-10.93,3.73-.58,7.43-.55,11.14.25,5.63,1.22,9.38,4.63,11.57,9.85,1.56,3.72,2.23,7.65,2.55,11.63.6,7.55.41,15.13.21,22.69-.12,4.54-.7,9.05-2.23,13.37-1.29,3.66-3.32,6.78-6.7,8.87-2.25,1.39-4.75,2.09-7.34,2.45-3.6.5-7.21.42-10.79-.28-6.47-1.26-10.55-5.18-12.55-11.38-.96-2.97-1.43-6.04-1.74-9.13-.45-4.48-.38-8.98-.38-13.48ZM239.14,94.86h-.02c0,3.4-.02,6.81,0,10.21.02,2.98.09,5.97.67,8.91.21,1.07.49,2.13,1.03,3.09.98,1.74,2.88,2.55,4.82,2.15,1.85-.38,2.89-1.61,3.5-3.27.93-2.56,1.13-5.25,1.18-7.94.09-4.37.09-8.74.06-13.11-.04-5.25.22-10.51-.22-15.75-.18-2.18-.43-4.35-1.46-6.34-.82-1.59-2.11-2.43-3.93-2.46-1.84-.03-3.11.85-3.95,2.41-.5.93-.78,1.95-1,2.97-.51,2.35-.64,4.75-.66,7.14-.05,3.99-.01,7.99-.01,11.98Z"/>
    <path class="cls-2" d="M178.3,36.43c.35-.16.74-.09,1.11-.09,4.21,0,8.41,0,12.62,0,1.14,0,1.16,0,1.38,1.06,1.75,8.17,3.49,16.34,5.24,24.51,1.1,5.13,2.23,10.26,3.13,15.43.23,1.32.44,2.65.67,3.97.06.36,0,.77.37,1.01.27-.14.29-.4.33-.65,1.65-10.2,4.02-20.25,6.22-30.34,1.03-4.76,2.11-9.5,3.14-14.26.11-.5.24-.74.78-.74,4.75.01,9.5,0,14.33,0-.05.86-.35,1.59-.56,2.34-4.95,17.74-9.91,35.48-14.87,53.22-.29,1.05-.56,2.11-.9,3.14-.81,2.42-1.04,4.89-1.02,7.44.07,8.24.03,16.49.02,24.73,0,1.29.32,1.38-1.35,1.38-4.08,0-8.16,0-12.24,0-1.55,0-1.31-.03-1.31-1.28,0-9.21,0-18.42,0-27.64,0-.64-.08-1.24-.25-1.86-4.44-16.05-8.88-32.1-13.31-48.15-1.16-4.21-2.3-8.42-3.45-12.63-.06-.2-.15-.39-.07-.62Z"/>
    <path class="cls-7" d="M449.87,94.57c.05-3.9-.13-8.06.25-12.22.41-4.54,1.15-8.99,3.1-13.17,2.17-4.63,5.82-7.43,10.73-8.55,4.56-1.04,9.16-.98,13.73.11,4.8,1.14,7.96,4.13,9.79,8.62,1.19,2.9,1.68,5.97,2.01,9.07.75,6.87.43,13.77.5,20.67,0,1.01-.13.83-1.09.83-7.57,0-15.14,0-22.71,0-1.5,0-1.51,0-1.5,1.55.03,3.66-.05,7.32.3,10.96.12,1.26.34,2.49.76,3.69.68,1.89,1.95,2.99,4.01,3.07.84.03,1.69.04,2.5-.21,1.63-.5,2.55-1.69,3.07-3.24.62-1.85.77-3.78.93-5.7.06-.7-.19-1.6.25-2.06.48-.5,1.35-.02,2.05.01,3.36.15,6.71.36,10.07.53.44.02.83.03.85.65.13,3.77-.1,7.48-1.64,10.99-1.79,4.11-4.96,6.75-9.13,8.12-5.36,1.76-10.82,1.85-16.24.29-4.56-1.31-7.68-4.33-9.56-8.67-1.39-3.23-2.1-6.62-2.56-10.09-.65-4.98-.47-9.99-.5-15.25ZM464.69,84.36c0,1.89.02,3.78-.01,5.67-.01.63.13.88.83.87,3.11-.04,6.22-.03,9.34,0,.64,0,.87-.15.86-.83-.07-3.36-.02-6.73-.14-10.08-.08-2.22-.25-4.44-.93-6.59-.81-2.57-2.72-3.54-5.53-3.15-1.65.23-2.73,1.21-3.3,2.76-.24.67-.44,1.35-.56,2.06-.52,3.08-.5,6.19-.56,9.3Z"/>
    <path class="cls-4" d="M340.47,88.56c0,12.83,0,25.65,0,38.48,0,.29-.02.59,0,.88.03.49-.2.68-.67.68-1.01-.01-2.02,0-3.03,0-3.32,0-6.65,0-9.97,0-1.4,0-1.16-.13-1.16-1.18,0-10.43,0-20.86,0-31.29v-45.8c0-.25,0-.5,0-.76-.01-.94-.02-.95-.96-.95-4.21,0-8.41,0-12.62,0-.29,0-.59-.02-.88,0-.39.02-.53-.18-.53-.53,0-.38,0-.76,0-1.14,0-3.2,0-6.39,0-9.59,0-1.01.02-1.02,1.04-1.02,14.22,0,28.43,0,42.65,0,1.08,0,1.09.01,1.09,1.11,0,3.36,0,6.73,0,10.09,0,1.07-.01,1.08-1.12,1.08-4.16,0-8.33,0-12.49,0-.29,0-.59,0-.88,0-.31,0-.47.13-.46.45,0,.34,0,.67,0,1.01,0,12.83,0,25.65,0,38.48Z"/>
  </g>
</svg>