<?xml version="1.0" encoding="UTF-8"?>
<svg id="Layer_1" data-name="Layer 1" xmlns="http://www.w3.org/2000/svg" version="1.1" viewBox="0 0 500 165">
  <defs>
    <style>
      .cls-1 {
        fill: #000;
        stroke-width: 0px;
      }
    </style>
  </defs>
  <path class="cls-1" d="M99.23,64.72c0,1.01.12,2.03-.03,3.02-.25,1.6-.6,3.19-1.04,4.74-.72,2.51-1.84,4.87-3.31,7.04-1.98,2.93-4.47,5.36-7.43,7.3-2.08,1.36-4.27,2.48-6.63,3.27-.9.3-1.78.68-2.68.95-.61.18-1.28.19-1.91.33-.67.15-1.34.34-2,.55-1.48.47-2.96.91-4.41,1.45-4.34,1.63-7.89,4.3-10.51,8.14-1.58,2.31-2.76,4.83-3.92,7.37-1.16,2.53-2.32,5.07-3.54,7.57-1.33,2.71-2.94,5.25-5.09,7.39-1.62,1.62-3.54,2.78-5.76,3.49-1.11.35-2.24.37-3.36.55-.62.1-1.28-.04-1.92-.09-.21-.02-.42-.1-.63-.1-.39-.02-.82.11-1.16-.02-2.32-.85-4.59-1.76-6.45-3.5-2.66-2.48-4.47-5.51-5.85-8.81-1.36-3.26-2.37-6.63-2.97-10.12-.36-2.08-.66-4.17-1.09-6.24-.14-.66-.16-1.3-.19-1.96-.01-.21.04-.46-.05-.64-.46-.99-.22-2.04-.32-3.05-.07-.63-.19-1.26-.27-1.9-.03-.24-.05-.49-.05-.73-.03-3.18-.06-6.37-.07-9.55,0-1.44.12-2.88.09-4.32-.01-.89.11-1.74.26-2.61.16-.95.19-1.91.33-2.87.25-1.72.63-3.4,1.01-5.08.86-3.75,2.2-7.33,4.08-10.69,2.87-5.15,6.8-9.28,11.96-12.15,1.91-1.07,3.94-1.95,5.98-2.78,2.33-.95,4.77-1.55,7.23-2.07.83-.18,1.63-.43,2.45-.63.14-.04.3.02.45,0,.56-.1,1.12-.24,1.68-.31.51-.06,1.03-.03,1.53-.1.38-.05.75-.22,1.13-.29.33-.06.67-.05,1.01-.06.82,0,1.64.06,2.46,0,1.99-.15,3.98-.16,5.97,0,.82.07,1.64-.01,2.46.01.42.01.83.11,1.25.18.21.04.41.12.62.14,1.2.14,2.4.24,3.59.41.72.1,1.42.31,2.13.48.12.03.23.14.34.13.86-.08,1.59.38,2.38.57.8.19,1.57.53,2.38.66,1.14.19,2.19.68,3.2,1.14,2.43,1.14,4.77,2.47,6.86,4.2,2.65,2.19,4.94,4.68,6.66,7.66,2.12,3.68,3.3,7.63,3.16,11.91Z"/>
  <g>
    <path class="cls-1" d="M437.28,83.36c0-7.7,0-15.4,0-23.1,0-2.04.57-3.89,2.1-5.31,2.43-2.26,6.46-2.22,8.99.04,1.14,1.01,2.01,2.23,2.78,3.52,5.23,8.73,10.45,17.46,15.67,26.19.22.37.46.72.71,1.07.81,1.1,2.4,1.92,4.07,1.36,1.29-.43,2.29-1.85,2.38-3.43.02-.28,0-.55,0-.83,0-7.95,0-15.89,0-23.84,0-1.04.12-2.07.53-3.05.9-2.18,2.97-2.81,4.59-2.68,2.07.16,3.56,1.4,4.06,3.41.15.59.23,1.21.23,1.81.01,15.4,0,30.8.01,46.21,0,1.12-.19,2.2-.64,3.22-.94,2.13-2.57,3.37-4.89,3.7-2.98.42-5.27-.78-6.97-3.12-1.13-1.56-2.12-3.22-3.12-4.88-4.32-7.2-8.62-14.41-12.92-21.62-.44-.74-.86-1.49-1.33-2.2-.68-1.02-1.53-1.85-2.81-2.05-2.04-.33-3.81,1.14-4.03,3.33-.08.82-.12,1.65-.13,2.47,0,7.7,0,15.4-.01,23.1,0,.57-.06,1.17-.21,1.72-.53,1.9-1.76,3-3.75,3.27-1.68.23-3.11-.22-4.2-1.5-.8-.94-1.12-2.09-1.13-3.32,0-.95,0-1.9,0-2.85,0-6.87,0-13.75,0-20.62Z"/>
    <path class="cls-1" d="M426.36,82.52c-.08,6.18-1.62,11.9-5.11,17.01-4.18,6.11-9.94,9.96-17.18,11.55-1.5.33-3.01.48-4.54.57-5.7.33-11-.99-15.87-3.92-6.69-4.03-10.86-9.95-12.8-17.48-.8-3.11-1.08-6.28-.9-9.48.39-6.95,2.71-13.18,7.41-18.38,4.09-4.53,9.2-7.36,15.18-8.58,2.47-.5,4.98-.69,7.49-.5,6,.46,11.4,2.51,16.03,6.4,5.59,4.7,8.79,10.76,9.87,17.95.24,1.6.29,3.22.43,4.84ZM415.62,82.57c.02-2.87-.36-5.69-1.32-8.4-1.55-4.4-4.27-7.84-8.57-9.84-3.48-1.62-7.15-2.01-10.93-1.34-6.14,1.09-10.24,4.67-12.58,10.37-1.03,2.52-1.48,5.16-1.6,7.88-.18,4.04.38,7.95,2.13,11.62,1.81,3.79,4.61,6.6,8.56,8.19,3.06,1.23,6.22,1.53,9.46,1.08,5.48-.76,9.55-3.61,12.23-8.41,1.92-3.45,2.6-7.23,2.61-11.14Z"/>
    <path class="cls-1" d="M272.07,82.39c0-7.67,0-15.34,0-23.01,0-.58.02-1.17.15-1.73.38-1.72,1.55-2.66,3.2-3.03.56-.13,1.15-.17,1.73-.17,5.34-.01,10.68-.07,16.02.01,4.04.06,7.98.69,11.62,2.63,4.7,2.5,7.56,6.31,8.27,11.64.47,3.57-.05,6.96-1.96,10.06-1.36,2.2-3.25,3.89-5.29,5.44-1,.76-2,1.53-2.9,2.4-1.52,1.47-1.77,2.95-.8,4.84.56,1.08,1.3,2.07,2,3.07,2.23,3.15,4.47,6.29,6.72,9.44.6.84.99,1.73,1.16,2.76.39,2.39-1.64,4.82-4.04,4.93-2.11.09-3.56-.9-4.68-2.54-2.04-2.99-4.07-5.98-6.1-8.97-2-2.94-4-5.88-6-8.81-.76-1.11-1.71-2.02-3.05-2.39-1.3-.35-2.62-.35-3.89.1-1.06.37-1.84,1.14-2.19,2.21-.25.77-.45,1.6-.45,2.41-.04,4.23-.02,8.47-.02,12.7,0,1.38-.25,2.69-1.17,3.78-1.04,1.25-2.43,1.76-4.01,1.52-2.61-.4-3.79-1.66-4.13-4.27-.11-.82-.18-1.64-.18-2.47-.01-7.52,0-15.03,0-22.55ZM290.9,62.64c-1.14,0-2.27-.06-3.4.01-3.33.2-5.47,2.22-5.8,5.52-.15,1.49-.14,3-.12,4.49.01.82.12,1.65.32,2.45.5,2.01,1.72,3.46,3.74,4.06.95.28,1.98.4,2.98.42,1.8.03,3.61-.03,5.42-.12,1.88-.1,3.7-.53,5.38-1.4,2.14-1.11,3.48-2.85,3.96-5.23.3-1.5.23-2.99-.18-4.45-.44-1.55-1.33-2.82-2.66-3.75-1.17-.82-2.49-1.29-3.87-1.61-1.9-.43-3.83-.44-5.76-.38Z"/>
    <path class="cls-1" d="M325,82.46c0-7.89.03-15.77-.02-23.66-.02-2.53,1.84-4.08,3.73-4.23.64-.05,1.28-.12,1.92-.12,9.58,0,19.15-.01,28.73,0,.78,0,1.6.1,2.35.32,1.97.58,3.06,2.29,2.84,4.38-.23,2.13-1.63,3.37-3.64,3.67-.87.13-1.77.15-2.65.15-5.99.01-11.97,0-17.96,0-1.74,0-3.24.6-4.42,1.9-.84.91-1.27,2.03-1.41,3.23-.18,1.52-.21,3.06.08,4.58.5,2.63,2.41,4.41,5.08,4.71.43.05.86.06,1.29.06,4.85,0,9.7,0,14.55,0,.96,0,1.89.17,2.74.64,1.3.71,1.97,1.8,2.01,3.27.07,2.8-1.58,4.49-4.38,4.5-4.7,0-9.39,0-14.09.01-.73,0-1.47.07-2.18.23-2.88.64-4.79,2.73-5.1,5.67-.18,1.67-.2,3.37.1,5.04.46,2.59,2.47,4.61,5.06,5.07.66.12,1.34.18,2,.18,6.05.01,12.09,0,18.14,0,1.06,0,2.08.16,2.99.74,1.42.9,1.91,2.25,1.82,3.86-.08,1.46-.78,2.55-2.06,3.26-1.03.57-2.16.62-3.3.62-5.16,0-10.31,0-15.47,0-4.42,0-8.84.01-13.26,0-.79,0-1.6-.03-2.37-.22-2.09-.5-3.11-2.21-3.1-3.92.02-7.98,0-15.96,0-23.94Z"/>
    <path class="cls-1" d="M216.13,111.64c-2.58.09-3.88-1.26-4.74-3.11-.6-1.3-1.04-2.68-1.55-4.03-.45-1.2-.89-2.42-1.68-3.46-.91-1.19-1.98-2.18-3.5-2.54-.47-.11-.97-.16-1.45-.16-5.03-.01-10.07.02-15.1-.02-2.08-.02-3.65.86-4.92,2.41-.75.91-1.24,1.97-1.65,3.06-.55,1.46-1.07,2.93-1.67,4.37-.25.62-.6,1.21-.99,1.75-1.96,2.7-6.17,2.06-7.49-.21-.87-1.5-.8-3.05-.24-4.61.56-1.55,1.17-3.09,1.77-4.63,2.74-7.12,5.48-14.23,8.22-21.34,2.7-7.03,5.41-14.06,8.1-21.1.73-1.92,1.9-3.39,3.84-4.22,3.01-1.28,6.73-.04,8.23,2.86.63,1.22,1.09,2.53,1.58,3.82,4.76,12.38,9.52,24.75,14.27,37.13.92,2.4,1.85,4.8,2.77,7.2.42,1.11.6,2.26.37,3.43-.42,2.15-2.09,3.4-4.17,3.4ZM195.56,89.98c1.17-.07,2.33-.08,3.49-.21,2.76-.32,3.76-2.1,3.56-4.41-.06-.72-.3-1.44-.54-2.13-1.17-3.28-2.37-6.56-3.57-9.83-.17-.45-.38-.91-.66-1.3-1.16-1.65-3.23-1.73-4.39-.15-.36.48-.65,1.04-.87,1.6-.94,2.49-1.85,4.99-2.73,7.5-.46,1.3-.94,2.59-1.24,3.93-.57,2.6.93,4.56,3.57,4.8,1.12.1,2.26.14,3.38.2Z"/>
    <path class="cls-1" d="M131.36,82.67c0-7.85.05-15.71-.03-23.56-.02-2.43,1.37-4.34,4.01-4.55.52-.04,1.03-.11,1.55-.12,4.39,0,8.78-.05,13.16.01,2.97.04,5.92.42,8.75,1.4,2.91,1.01,5.55,2.45,7.69,4.69,2.32,2.42,3.73,5.29,4.16,8.62.41,3.23.03,6.35-1.4,9.3-1.83,3.78-4.8,6.38-8.57,8.11-2.55,1.17-5.24,1.89-8.05,2.04-1.86.1-3.73.11-5.6.2-1.33.07-2.6.37-3.74,1.1-1.68,1.09-2.5,2.68-2.52,4.64-.04,3.71,0,7.42-.02,11.14,0,1.1-.07,2.2-.5,3.24-.64,1.55-1.77,2.46-3.43,2.69-2.9.41-5.04-1.22-5.42-4.12-.05-.36-.06-.73-.06-1.1,0-7.92,0-15.83,0-23.75ZM140.65,71.59h.13c0,.81-.03,1.61,0,2.4.16,3.34,1.94,5.76,5.36,6.19,1.3.16,2.62.14,3.94.15,1.82.01,3.6-.3,5.3-.92,2.4-.87,4.29-2.34,5.22-4.83.39-1.05.47-2.13.49-3.24.07-3.76-2.22-6.37-5.04-7.51-3.36-1.36-6.86-1.55-10.37-.95-2.4.41-4.06,1.9-4.57,4.34-.3,1.42-.32,2.91-.46,4.36Z"/>
    <path class="cls-1" d="M240.49,54.56c6.26,0,12.52,0,18.79,0,1.64,0,2.99.65,3.83,2.11,1.72,2.97-.32,6.45-3.82,6.53-2.24.05-4.48-.02-6.72.02-.82.02-1.65.14-2.44.32-2.51.57-3.99,2.21-4.52,4.66-.26,1.19-.38,2.43-.38,3.64-.03,11.57-.01,23.14-.02,34.71,0,.55-.06,1.1-.18,1.63-.54,2.41-2.7,3.77-5.16,3.49-2.62-.29-3.88-2.3-4.06-4.17-.07-.67-.12-1.34-.12-2.01,0-11.6,0-23.2-.03-34.8,0-1.02-.19-2.08-.47-3.07-.74-2.59-2.6-3.92-5.2-4.25-.97-.12-1.95-.15-2.93-.16-1.78-.02-3.56.03-5.34-.02-1.5-.04-2.84-.53-3.73-1.83-.98-1.44-1.04-3.01-.28-4.54.74-1.5,2.09-2.24,3.74-2.26,2.95-.05,5.89-.01,8.84-.01,3.41,0,6.81,0,10.22,0Z"/>
  </g>
</svg>