<?xml version="1.0" encoding="UTF-8"?>
<svg id="Layer_1" data-name="Layer 1" xmlns="http://www.w3.org/2000/svg" version="1.1" viewBox="0 0 500 165">
  <defs>
    <style>
      .cls-1 {
        fill: #242738;
        stroke-width: 0px;
      }
    </style>
  </defs>
  <path class="cls-1" d="M147.8,138h-22.77V54.05c2.07-.19,4.01-.51,5.96-.51,10.28-.04,20.58.31,30.84-.08,15.56-.59,25.62,9.41,29.4,19.52,4.38,11.7.96,24.09-9.17,33.09-.36.32-.64.73-1.31,1.51,5.69,9.84,11.43,19.77,17.53,30.32h-25.93c-4.89-8.35-9.87-16.87-14.95-25.54h-9.61v25.64ZM147.92,92.33c5,0,9.34.06,13.69-.02,4.62-.09,7.01-2.28,7.7-6.86.88-5.86-.96-11.12-5.1-11.69-5.31-.74-10.79-.18-16.29-.18v18.74Z"/>
  <path class="cls-1" d="M410,59.81c-2.59,5.09-5.21,10.25-7.75,15.24-4.64-2.16-8.69-4.7-13.11-5.96-9.22-2.62-13.06.6-12.79,9.95.03,1.14.26,2.26.48,4.12h35.69v54.78h-21.78v-37.99h-14.22v37.91h-22.63v-37.92c-2.86-.32-5.14-.57-7.78-.87v-15.64c2.5-.2,4.64-.38,7.33-.6.1-2.2.25-4.3.28-6.41.21-13.4,7.46-22.47,20.53-25.63,11.5-2.78,26.4.9,35.75,9.01Z"/>
  <path class="cls-1" d="M318.54,76.16h23.29c-7.38,9.33-14.2,17.96-21.28,26.91,3.9,5.77,7.72,11.44,11.55,17.1,3.83,5.67,7.65,11.34,11.94,17.69h-23.3c-4.48-6.96-9.27-14.39-14.53-22.56-1.9,1.98-3.43,3.57-5.23,5.45v17.21h-21.94V51.44h21.95v45.99c.52.16,1.04.32,1.56.48,5.28-7.19,10.57-14.38,15.99-21.75Z"/>
  <path class="cls-1" d="M235.11,140.16c-30.66-1.1-41.42-27.31-32-47.49,6.3-13.5,18.21-18.33,32.34-18.17,25.27.27,40.35,21.74,31.82,44.98-2.39,6.51-6.53,11.85-12.73,15.07-6.23,3.23-12.59,6.52-19.44,5.62ZM246.38,107.17c0-9.41-5.87-15.47-13.56-14.03-5.84,1.1-9.53,5.86-9.92,12.83-.4,7.09,2.86,12.81,8.29,14.56,8.33,2.68,15.19-3.36,15.19-13.35Z"/>
  <path class="cls-1" d="M447.38,138.01h-21.65v-61.78h19.26c.26,2.6.49,4.99.79,8.07,1.34-1.09,2.2-1.76,3.01-2.47,8.46-7.38,18.39-9.01,28.83-6.16,7.94,2.17,11.53,9.3,11.93,16.48.84,15.02.25,30.11.25,45.66h-22.86c0-3.43,0-6.88,0-10.33,0-7.54,0-15.07-.02-22.61-.03-7.31-2.48-10.9-7.47-11-5.55-.11-11.57,5.69-11.7,11.72-.19,8.7-.05,17.42-.09,26.12,0,1.96-.18,3.93-.29,6.28Z"/>
  <g>
    <path class="cls-1" d="M58.17,88.57c-2.85,0-5.7,0-8.55,0-1.71,0-3.55-.05-4.03,2.07-.43,1.91,1.02,2.74,2.45,3.54,4.78,2.71,9.56,5.41,14.28,8.22,12.18,7.24,17,22.85,11.04,35.39-.79,1.66-1.38,2.48-3.43,1.28-15.25-8.91-30.6-17.64-45.87-26.52-7.96-4.63-12.61-11.56-13.78-20.76-2.07-16.24,10.23-30.77,26.71-31.01,17.97-.26,35.95-.04,53.93-.09,2.01,0,2.7.43,2.43,2.65-1.84,14.95-13.31,25.21-28.4,25.23-2.26,0-4.52,0-6.78,0Z"/>
    <path class="cls-1" d="M65.93,24.78c14.18.18,25.72,10.65,27.47,24.64.29,2.35-.1,3.32-2.77,3.3-17.58-.1-35.16.02-52.75-.09-14.43-.09-26.04-10.68-27.81-25-.26-2.12.17-2.99,2.53-2.96,9.13.11,44.69,0,53.33.1Z"/>
  </g>
</svg>