<?xml version="1.0" encoding="UTF-8"?>
<svg id="Layer_1" data-name="Layer 1" xmlns="http://www.w3.org/2000/svg" version="1.1" viewBox="0 0 500 165">
  <defs>
    <style>
      .cls-1 {
        fill: #395898;
        stroke-width: 0px;
      }
    </style>
  </defs>
  <path class="cls-1" d="M253.9,119.26c0,.48,0,.92,0,1.36,0,2.07-.02,4.14.01,6.21.01.67-.23.88-.88.87-1.78-.03-3.55-.01-5.33-.02-3.26,0-6.51,0-9.77,0-1.02,0-1.02-.02-1.04-1.05,0-.17,0-.34,0-.51,0-28.96,0-57.92,0-86.88,0-1.87-.11-1.53,1.51-1.67,5.22-.46,10.43-.94,15.65-1.41.8-.07.84-.03.87.8.01.3,0,.59,0,.89,0,12.09,0,24.18,0,36.27,0,.42,0,.84,0,1.25.25.11.33-.07.39-.2,1.62-3.34,4.33-5.51,7.7-6.82,7.88-3.06,15.51-2.49,22.64,2.18,4.15,2.72,6.65,6.77,8.32,11.36,1.96,5.36,2.46,10.93,2.37,16.59-.07,4.63-.55,9.19-1.89,13.64-1.22,4.06-3.11,7.75-6.18,10.77-2.96,2.91-6.53,4.64-10.55,5.44-3.89.77-7.81.84-11.7-.08-5.03-1.18-8.91-3.95-11.57-8.39-.12-.2-.16-.48-.58-.59ZM254.91,98.17c.12,2.28-.2,4.65.25,7,.76,3.97,2.73,7.06,6.55,8.73,2.02.89,4.17,1.02,6.34.86,3.64-.27,6.41-1.93,8.2-5.15.56-1,.97-2.06,1.26-3.17,1.18-4.53,1.07-9.11.62-13.71-.17-1.73-.54-3.42-1.16-5.05-.92-2.39-2.21-4.53-4.59-5.68-4.23-2.05-8.45-1.87-12.41.7-2.96,1.92-4.24,4.93-4.8,8.3-.39,2.35-.17,4.72-.26,7.16Z"/>
  <path class="cls-1" d="M490,127.69h-5.91c-3.98,0-7.95-.02-11.93.02-.81,0-1.28-.21-1.73-.92-5.68-9.01-11.39-18-17.09-26.99-.21-.34-.38-.73-.94-1.09,0,.62,0,1.06,0,1.51,0,8.58,0,17.17,0,25.75,0,.3-.03.59,0,.89.07.69-.26.85-.89.85-5.46-.02-10.91-.02-16.37,0-.58,0-.89-.15-.82-.78.03-.29,0-.59,0-.89,0-28.92,0-57.84,0-86.76,0-.21,0-.42,0-.63.02-.95.02-.94.98-1.03,5.35-.47,10.69-.95,16.03-1.43,1.01-.09,1.05-.08,1.05.99,0,5.71,0,11.42,0,17.12v40.46c0,.4,0,.81,0,1.37.55-.37.72-.82.95-1.19,5.47-8.74,10.94-17.48,16.39-26.23.41-.65.8-1.07,1.67-1.07,5.71.04,11.42.02,17.13.03.24,0,.51-.09.74.16,0,.43-.33.73-.54,1.07-5.78,9.2-11.54,18.4-17.36,27.57-.5.78-.42,1.3.04,2.02,6.01,9.3,12,18.61,17.99,27.93.22.35.53.65.6,1.27Z"/>
  <path class="cls-1" d="M98.44,76.4c0-2.4,0-4.63,0-6.86.01-2.06-.25-1.81,1.83-1.82,4.61,0,9.22,0,13.82,0,.3,0,.59.01.89,0,.48-.02.71.18.68.67-.02.29,0,.59,0,.89,0,18.93,0,37.87,0,56.8,0,.17,0,.34,0,.51-.01,1.09-.02,1.1-1.12,1.1-4.99,0-9.98,0-14.96,0-1.12,0-1.13-.01-1.13-1.09,0-2.03,0-4.06,0-6.09,0-.36.07-.73-.16-1.26-.28.44-.48.74-.67,1.05-3.09,5.1-7.65,7.84-13.55,8.42-5.38.53-10.55-.16-15.32-2.83-4.23-2.36-7.02-6-8.92-10.38-1.58-3.64-2.36-7.47-2.8-11.39-.39-3.5-.41-7.01-.23-10.51.3-5.58,1.4-10.98,4.16-15.91,3.6-6.44,9.13-10.02,16.42-10.92,2.95-.36,5.89-.43,8.82.22,5.13,1.13,8.95,4.01,11.57,8.53.13.22.25.44.38.66.02.03.06.05.31.23ZM97.59,98.19h-.02c0-1.69.03-3.38,0-5.07-.05-1.82-.35-3.61-.97-5.34-1.23-3.41-3.5-5.76-7.04-6.69-2.24-.59-4.52-.55-6.77.03-1.77.46-3.25,1.38-4.47,2.74-1.42,1.58-2.22,3.48-2.75,5.5-1.16,4.44-1,8.97-.7,13.48.13,1.98.63,3.92,1.44,5.75,1.39,3.14,3.68,5.19,7.08,5.94,1.34.3,2.68.3,4.03.23,2.08-.11,3.97-.81,5.6-2.11,3.06-2.43,4.34-5.74,4.56-9.52.09-1.64.02-3.3.02-4.94Z"/>
  <path class="cls-1" d="M302.56,97.42c-.06-4.77.5-9.44,2.12-13.95,2.92-8.11,8.6-13.28,16.86-15.61,4.94-1.39,9.98-1.61,15.07-1.15,3.22.29,6.34.98,9.33,2.22,7.31,3.03,11.96,8.49,14.27,15.97,1.66,5.35,2.02,10.85,1.62,16.42-.29,4.03-.99,7.95-2.52,11.71-2.98,7.32-8.3,12.1-15.85,14.36-4.75,1.42-9.61,1.76-14.55,1.37-3.35-.27-6.61-.87-9.75-2.05-7.19-2.7-11.92-7.78-14.46-14.97-1.64-4.63-2.19-9.44-2.14-14.33ZM320.54,97.59c.06,2.57-.15,5.07.36,7.54.66,3.15,1.94,5.94,4.68,7.84,2.44,1.69,5.16,2.16,8.08,1.82,4.16-.49,7.15-2.6,8.94-6.38.86-1.81,1.35-3.74,1.4-5.74.07-2.74.05-5.49.07-8.23,0-1.35-.09-2.7-.36-4.03-1.01-4.85-3.94-8.79-9.62-9.53-5.67-.74-10.91,1.77-12.81,8.01-.17.56-.29,1.14-.41,1.72-.49,2.34-.25,4.71-.33,6.99Z"/>
  <path class="cls-1" d="M210.14,104.03c-5.83,0-11.67,0-17.5,0-.34,0-.68,0-1.01.01-.37,0-.53.17-.49.55.31,2.72.95,5.33,2.7,7.53,1.55,1.96,3.7,2.9,6.08,3.36,3.94.78,7.9.66,11.86.14,4.03-.53,7.94-1.58,11.76-2.97.87-.32.91-.3,1.14.54.94,3.42,1.88,6.84,2.81,10.25.31,1.15.31,1.16-.82,1.67-2.9,1.32-5.94,2.18-9.06,2.78-5,.97-10.05,1.35-15.13,1.22-4.66-.13-9.26-.7-13.66-2.38-7.22-2.75-11.82-7.92-14.06-15.25-1.04-3.41-1.55-6.91-1.6-10.48-.04-3-.13-6,.07-9,.31-4.64,1.35-9.1,3.68-13.19,3.28-5.76,8.31-9.27,14.61-10.93,6.77-1.79,13.62-1.91,20.43-.13,8.11,2.11,13.38,7.23,15.81,15.25,1.02,3.34,1.41,6.78,1.47,10.25.05,3.17.02,6.34.01,9.51,0,1.25,0,1.25-1.23,1.25-5.96,0-11.92,0-17.88,0ZM202.17,92.24c3.33,0,6.67,0,10,0,1.1,0,1.1-.02,1.11-1.13.01-1.57-.18-3.12-.58-4.63-.91-3.48-2.83-6.11-6.44-7.16-1.8-.53-3.64-.6-5.51-.38-3.62.44-6.34,2.15-7.97,5.47-1.06,2.16-1.49,4.46-1.63,6.84-.06.97-.07.99.89.99,3.38,0,6.75,0,10.13,0Z"/>
  <path class="cls-1" d="M427.49,97.66c.07,4.52-.45,8.99-1.87,13.32-2.89,8.79-8.8,14.47-17.81,16.72-7.54,1.88-15.08,1.73-22.47-.78-7.35-2.5-12.29-7.53-14.95-14.8-2.2-6.02-2.59-12.28-2.19-18.61.24-3.68.94-7.28,2.28-10.73,2.95-7.56,8.33-12.5,16.1-14.75,7.3-2.12,14.7-2.19,22.01-.09,8.97,2.57,14.66,8.53,17.31,17.42,1.19,4,1.65,8.1,1.58,12.3ZM409.67,97.72c0-1.14,0-2.28,0-3.42-.02-1.78-.25-3.54-.75-5.25-.62-2.1-1.6-4.01-3.25-5.49-2.82-2.52-6.2-3.2-9.81-2.67-4.76.69-7.68,3.58-9.05,8.12-.49,1.63-.72,3.29-.72,4.99,0,2.24,0,4.48,0,6.72,0,1.31.05,2.61.28,3.91.85,4.91,3.6,9.71,10.35,10.22,4.86.37,9.33-1.7,11.51-6.57.43-.97.74-1.97.98-3,.58-2.5.48-5.03.47-7.57Z"/>
  <path class="cls-1" d="M40.45,105.17c0,6.93,0,13.86,0,20.8,0,.25,0,.51,0,.76-.03.92-.03.95-.9.95-5.45,0-10.91,0-16.36,0-.89,0-.9-.03-.91-.93-.01-.97,0-1.94,0-2.92,0-13.19,0-26.38,0-39.56,0-.34-.03-.68,0-1.01.05-.61-.2-.82-.8-.8-1.56.03-3.13,0-4.69,0-1.99,0-3.97-.02-5.96,0-.6,0-.82-.19-.82-.8.02-4.4.02-8.79,0-13.19,0-.71.31-.84.92-.84,2.49.02,4.99,0,7.48,0,.85,0,1.69,0,2.54,0,1.41,0,1.34.08,1.34-1.28,0-3.04-.02-6.09,0-9.13.03-3.14.34-6.24,1.36-9.23,1.67-4.91,4.97-8.25,9.77-10.15,3.18-1.26,6.51-1.76,9.9-1.95,3.85-.21,7.68.18,11.5.63.66.08.84.32.84.95-.02,3.97,0,7.95-.01,11.92,0,.88-.03.9-.94.91-1.99.01-3.97,0-5.96.01-1.19,0-2.36.14-3.52.42-3.07.74-4.64,2.55-4.73,5.73-.09,3.42-.04,6.85-.04,10.27,0,.04,0,.09,0,.13-.07.63.25.81.82.79.72-.03,1.44,0,2.16,0,3.59,0,7.19,0,10.78,0,1.13,0,1.14.01,1.05,1.08-.36,4.25-.73,8.5-1.11,12.75-.08.95-.1.97-1.08.97-3.64,0-7.27,0-10.91,0-.3,0-.59.02-.89,0-.57-.05-.89.14-.83.77.03.29,0,.59,0,.89,0,7.02,0,14.03,0,21.05Z"/>
  <path class="cls-1" d="M166.72,83.5c-2.38-1.14-4.69-1.93-7.11-2.37-3.19-.58-6.38-.71-9.55.11-5.86,1.52-8.87,5.96-9.33,11.3-.28,3.33-.22,6.68,0,10,.44,6.79,4.89,11.91,12.59,12.46,4.13.29,8.06-.63,11.86-2.18.27-.11.55-.21.81-.35.51-.27.73-.08.89.43,1.22,3.78,2.44,7.55,3.7,11.32.21.64-.04.92-.54,1.21-2,1.15-4.14,1.94-6.38,2.4-7.78,1.62-15.54,1.62-23.19-.69-8.31-2.51-13.75-7.98-16.24-16.32-1.15-3.84-1.54-7.77-1.58-11.76-.04-4.23.02-8.44,1.01-12.6,2.37-9.97,8.58-16.13,18.46-18.63,5.04-1.28,10.17-1.52,15.35-1.09,3.43.28,6.78.85,10.01,2.09.87.33,1.73.69,2.53,1.16.88.52.9.53.59,1.48-.86,2.69-1.74,5.38-2.61,8.07-.41,1.28-.82,2.56-1.28,3.97Z"/>
</svg>