<?xml version="1.0" encoding="UTF-8"?>
<svg id="Layer_1" data-name="Layer 1" xmlns="http://www.w3.org/2000/svg" version="1.1" viewBox="0 0 500 165">
  <defs>
    <style>
      .cls-1 {
        fill: #7a7879;
      }

      .cls-1, .cls-2, .cls-3, .cls-4, .cls-5, .cls-6, .cls-7, .cls-8, .cls-9, .cls-10, .cls-11 {
        stroke-width: 0px;
      }

      .cls-1, .cls-2, .cls-3, .cls-4, .cls-5, .cls-6, .cls-7, .cls-8, .cls-9, .cls-11 {
        fill-rule: evenodd;
      }

      .cls-2 {
        fill: #fde281;
      }

      .cls-3 {
        fill: #4c4b4c;
      }

      .cls-4 {
        fill: #fddc64;
      }

      .cls-5 {
        fill: #fff4cb;
      }

      .cls-6 {
        fill: #fdd134;
      }

      .cls-7 {
        fill: #666767;
      }

      .cls-8 {
        fill: #5e5e5e;
      }

      .cls-9 {
        fill: #feefc0;
      }

      .cls-10 {
        fill: #484850;
      }

      .cls-11 {
        fill: #fdebab;
      }
    </style>
  </defs>
  <g>
    <path class="cls-10" d="M152.9,152.43h-9.55c-.49,0-.9-.38-.94-.87-1.73-20.34-3.26-39.79-6.23-59.68-11.22,19.48-22.58,38.84-32.14,59.97-.25.55-1.01.57-1.29.03-2.66-5.11-5.07-9.6-7.51-14.16-2.75-5.15-5.4-10.35-8.12-15.5-2.68-5.06-5.4-10.1-8.09-15.16-2.68-5.04-5.34-10.09-8.33-15.11-2.81,19.79-5.25,39.56-6.29,59.66-.03.55-.48.98-1.03.98h-6.52c-.55,0-.96-.49-.89-1.03.4-2.78.77-5.54,1.25-8.28,3.16-18.35,5.8-36.77,8.28-55.22.78-5.79,1.35-11.6,2.04-17.4.1-.8-.3-1.88.93-2.2,1.47-.38,1.87.77,2.37,1.74,3.49,6.75,6.98,13.5,10.47,20.25,7.5,14.48,15.5,28.69,23.42,42.93.15.28.41.49.85,1.01,2.52-4.49,4.98-8.83,7.39-13.19,9.32-16.87,18.63-33.75,27.95-50.63.16-.29.31-.59.49-.86.41-.62.65-1.53,1.61-1.44,1.33.12,1.01,1.33,1.09,2.08,1.02,8.65,1.93,17.31,2.95,25.96,1.63,13.9,3.32,27.79,5,41.68.54,4.45,1.14,8.89,1.74,13.42.07.53-.35,1.01-.88,1.01Z"/>
    <path class="cls-10" d="M302.27,151.42c1.31-26.9,1.45-53.47-.02-79.94-.04-.78.58-1.42,1.36-1.41l1.18.03c7.5.14,33.51-.14,39.02-.03,5.78.11,11.42,1.23,16.72,3.5,9,3.84,15.16,10.38,17.86,19.94,2.72,9.62,3.41,19.35.69,29.03-4.52,16.1-15.54,25.34-31.6,28.93-4.75,1.06-9.57,1.49-14.45,1.4-9.7-.17-19.4-.38-29.45-.11-.75.02-1.36-.6-1.32-1.35ZM313.33,114.24c-.16,8.47.16,19.38.63,30.29.13,2.9.08,3.11,3.07,3.41,8.79.9,17.59,1.26,26.31-.72,11.13-2.52,18.56-9.22,22.3-19.93,3.91-11.19,3.76-22.5.35-33.75-2.04-6.74-6.35-11.75-12.72-14.89-4.22-2.08-8.78-2.87-13.4-3.24-7.83-.64-15.63-.16-23.44.56-2.07.19-2.44.87-2.57,2.76-.74,11.02-.56,22.04-.55,35.51Z"/>
    <path class="cls-10" d="M272.6,132.76c.2-20.66.11-40.94-.83-61.46-.03-.61.46-1.13,1.08-1.13h6.14c.41,0,.74.35.72.76-.13,2.98-.22,5.68-.41,8.47-1.26,18.58-1.77,37.2-1.23,55.81.16,5.54.05,11.09,0,16.64,0,.79.49,1.9-.66,2.29-1.05.36-1.52-.6-2.11-1.23-7.64-8.26-15.2-16.6-22.95-24.75-12.54-13.19-25.2-26.26-38.4-39.98-.56,21.55-.44,42.46.56,63.81.02.41-.3.75-.71.74l-7.08-.02c-.47,0-.83-.4-.8-.87.27-3.92.5-7.68.79-11.44,1.54-20.15,1.53-40.34,1.45-60.54-.01-3.2-.13-6.4-.16-9.6,0-.61-.27-1.39.6-1.68.67-.22,1.31-.07,1.83.44.62.62,1.23,1.26,1.84,1.9,18.19,19.09,36.25,38.31,54.79,57.07,1.58,1.6,2.94,3.51,5.57,4.75Z"/>
    <path class="cls-10" d="M436.47,84.37c-1.58-.57-1.54-2.26-2.22-3.43-3.1-5.35-7.75-8.13-13.88-7.91-6.51.24-11.74,2.86-14.38,9.24-2.58,6.21-.85,12.68,4.36,16.94,3.83,3.13,8.34,4.9,12.87,6.6,3.4,1.28,6.79,2.6,9.92,4.44,10.48,6.19,12.13,13.33,10.24,23.12-1.91,9.92-8.12,16.53-17.79,19.41-10.3,3.06-20.45,2.88-29.95-2.97-2.48-1.53-1.81-2.73-1.61-5.71s.95-6.75,2.32-6.93c1.08-.15,1.26,1.08,1.68,1.8,1.76,3.01,4.03,5.52,7.02,7.32,6.04,3.62,12.4,4.45,18.99,1.8,7.65-3.08,11.8-11.49,9.89-19.51-.67-2.8-2.21-4.97-4.33-6.85-3.54-3.14-7.85-4.85-12.14-6.58-3.98-1.6-8.04-3.01-11.7-5.31-5.48-3.43-9.43-8.03-10.3-14.62-1.63-12.47,4.48-21.87,16.58-25.35,8.17-2.35,16.31-2.24,24.17,1.48.6.28,1.18.59,1.75.93,2.57,1.55,2.51,1.53,1.39,4.54-.65,1.74-1.09,3.57-1.57,5.37-.22.84-.23,1.75-1.31,2.17Z"/>
    <path class="cls-10" d="M166.37,64.88c6.39-.04,12.77-.08,19.16-.12.58,0,1.08.13,1.32.74.06,3.08,0,6.17.21,9.24.13,1.83-.46,3.08-2.13,3.55-1.85.51-1.96-4.85-1.98-3.34-.09,5.4-.32,17.43-.34,22.84-.04,15.8.66,48.71.75,54.25,0,.41-.32.74-.72.74l-9.9.05c-.52,0-.95-.42-.95-.95.05-8.24.58-57.48-.03-76.33-.07-2.1-.71,3.3-2.78,2.96-2.17-.35-2.7-1.64-2.6-3.71.16-3.3,0-6.61,0-9.92Z"/>
  </g>
  <g id="Page-1">
    <g id="bulb">
      <g id="Group-5">
        <path id="Triangle-3" class="cls-7" d="M171.47,73.94l-.41,6.04.41-6.04Z"/>
        <polygon id="Triangle-3-2" data-name="Triangle-3" class="cls-7" points="166.32 77.89 171.52 73.52 176.72 82.05 166.32 77.89"/>
        <polygon id="Triangle-3-3" data-name="Triangle-3" class="cls-1" points="166.32 64.99 166.32 77.89 171.52 73.52 166.32 64.99"/>
        <polygon id="Triangle-3-4" data-name="Triangle-3" class="cls-8" points="181.93 73.52 176.72 82.05 187.13 77.89 181.93 73.52"/>
        <polygon id="Triangle-3-5" data-name="Triangle-3" class="cls-1" points="187.13 77.89 181.93 73.52 187.13 64.99 187.13 77.89"/>
        <polygon id="Triangle-3-6" data-name="Triangle-3" class="cls-3" points="166.32 64.99 187.13 64.99 176.72 82.05 166.32 64.99"/>
      </g>
      <g id="Group">
        <polygon id="Triangle-3-7" data-name="Triangle-3" class="cls-6" points="168.4 25.65 190.46 34.8 174.64 47.5 168.4 25.65"/>
        <polygon id="Triangle-3-8" data-name="Triangle-3" class="cls-6" points="185.05 10.24 197.54 23.15 190.46 34.8 185.05 10.24"/>
        <polygon id="Triangle-3-9" data-name="Triangle-3" class="cls-6" points="166.32 64.99 189.21 58.33 187.13 64.99 166.32 64.99"/>
        <polygon id="Triangle-3-10" data-name="Triangle-3" class="cls-6" points="164.23 58.33 174.64 47.5 166.32 64.99 164.23 58.33"/>
        <polygon id="Triangle-3-11" data-name="Triangle-3" class="cls-6" points="155.91 23.15 168.4 10.24 168.4 25.65 155.91 23.15"/>
        <polygon id="Triangle-3-12" data-name="Triangle-3" class="cls-5" points="174.64 47.5 189.21 58.33 190.46 34.8 174.64 47.5"/>
        <polygon id="Triangle-3-13" data-name="Triangle-3" class="cls-5" points="174.64 47.5 154.66 43.96 164.23 58.33 174.64 47.5"/>
        <polygon id="Triangle-3-14" data-name="Triangle-3" class="cls-4" points="168.4 25.65 185.05 10.24 190.46 34.8 168.4 25.65"/>
        <polygon id="Triangle-3-15" data-name="Triangle-3" class="cls-11" points="154.66 43.96 168.4 25.65 174.64 47.5 154.66 43.96"/>
        <polygon id="Triangle-3-16" data-name="Triangle-3" class="cls-4" points="166.32 64.99 174.64 47.5 189.21 58.33 166.32 64.99"/>
        <polygon id="Triangle-3-17" data-name="Triangle-3" class="cls-4" points="189.21 58.33 190.46 34.8 198.79 43.96 189.21 58.33"/>
        <polygon id="Triangle-3-18" data-name="Triangle-3" class="cls-4" points="154.66 43.96 155.91 23.15 168.4 25.65 154.66 43.96"/>
        <polygon id="Triangle-3-19" data-name="Triangle-3" class="cls-2" points="190.46 34.8 197.54 23.15 198.79 43.96 190.46 34.8"/>
        <polygon id="Triangle-3-20" data-name="Triangle-3" class="cls-9" points="185.05 10.24 168.4 25.65 168.4 10.24 185.05 10.24"/>
      </g>
    </g>
  </g>
</svg>