<?xml version="1.0" encoding="UTF-8"?>
<svg id="Layer_1" xmlns="http://www.w3.org/2000/svg" xmlns:xlink="http://www.w3.org/1999/xlink" viewBox="0 0 500 165">
  <defs>
    <style>
      .cls-1 {
        fill: url(#linear-gradient-2);
      }

      .cls-2 {
        fill: url(#linear-gradient);
      }
    </style>
    <linearGradient id="linear-gradient" x1="24.13" y1="28.01" x2="113.85" y2="131.5" gradientUnits="userSpaceOnUse">
      <stop offset="0" stop-color="#a3265f"/>
      <stop offset="1" stop-color="#e71d32"/>
    </linearGradient>
    <linearGradient id="linear-gradient-2" x1="200.1" y1="57.19" x2="487.98" y2="96.27" xlink:href="#linear-gradient"/>
  </defs>
  <path class="cls-2" d="M72.64,82.55h1.7c8.95,0,17.9.01,26.85,0,7.9-.01,14.08-6.61,14.19-14.13.1-6.96-5.48-14.09-13.66-14.4-.66-.02-1.32-.06-1.99-.06-27.43,0-54.85,0-82.28,0h-1.68c-.05-.32-.15-.6-.14-.87.29-5.87,1.45-11.54,3.95-16.9,2.39-5.13,5.63-9.64,9.79-13.47,5.2-4.79,11.22-8.14,18.08-9.93,3.25-.85,6.55-1.33,9.92-1.34,14.25-.03,28.49-.16,42.74-.14,7.62.01,15.05,1.23,22.16,4.14,6.03,2.46,11.51,5.8,16.39,10.13,7.82,6.94,13.38,15.36,16.59,25.32,1.28,3.99,2.09,8.06,2.49,12.24.28,3.02.33,6.03.12,9.04-.47,6.77-2.06,13.28-4.86,19.49-2.33,5.17-5.35,9.89-9.08,14.15-4.71,5.39-10.24,9.72-16.58,13.05-5.77,3.03-11.9,4.95-18.33,5.88-3.07.44-6.17.71-9.27.53-6.65-.4-12.54-2.73-17.55-7.19-4.8-4.28-7.79-9.58-9.03-15.87-.27-1.37-.4-2.78-.43-4.18-.1-4.71-.13-9.43-.18-14.15,0-.4.04-.8.07-1.33ZM20.86,153.46c5.45-.65,10.58-2.3,15.35-4.98,8.31-4.65,14.45-11.33,18.38-20.02,2.28-5.03,3.61-10.33,3.64-15.83.1-14.41.03-28.82.03-43.23,0-.31-.07-.63-.12-1.06-1.4.1-2.72.17-4.03.29-5.93.53-11.49,2.28-16.66,5.23-7.92,4.52-13.85,10.9-17.76,19.16-2.63,5.54-3.99,11.4-4.03,17.49-.1,13.95-.03,27.91-.03,41.86,0,.4.04.8.06,1.26,1.8.14,3.48.03,5.16-.17Z"/>
  <path class="cls-1" d="M474.82,82.96c3.14,4.49,6.3,9.02,9.57,13.69-.45.06-.71.12-.97.12-1.45,0-2.9,0-4.35,0-2.25,0-3.96-.92-5.17-2.85-3.24-5.14-6.52-10.26-9.79-15.39-.09-.14-.15-.28-.33-.6.62-.01,1.14-.01,1.65-.04,2.77-.13,5.41-.69,7.68-2.41,1.57-1.18,2.38-2.79,2.73-4.7.27-1.47.09-2.88-.28-4.28-.52-1.95-1.77-3.34-3.49-4.32-1.73-.97-3.64-1.39-5.6-1.43-3.11-.08-6.21-.02-9.32-.01-.32,0-.64.08-1.07.13,0,.56,0,1.04,0,1.53,0,9.28,0,18.56,0,27.84,0,1.34-.13,2.64-.86,3.82-.99,1.58-2.39,2.5-4.24,2.65-.85.07-1.72.01-2.66.01-.03-.5-.06-.91-.06-1.31,0-11.85.02-23.69-.02-35.54-.01-2.93,2.48-5.75,5.64-5.68,4.84.11,9.69-.02,14.54.13,3.13.1,6.1,1.01,8.82,2.63,2.86,1.71,4.8,4.14,5.83,7.29,1.06,3.24,1.08,6.51.1,9.77-1.15,3.83-3.69,6.49-7.23,8.24-.3.15-.6.27-.89.42-.06.03-.1.13-.2.29ZM331.01,82.29c3.19-1.58,5.64-3.88,6.94-7.26.8-2.07,1.11-4.23,1.02-6.44-.22-5.18-2.43-9.19-6.95-11.84-2.59-1.52-5.43-2.32-8.38-2.42-5.05-.16-10.1-.14-15.16-.09-2.74.03-5.02,2.51-5.02,5.31,0,12.01,0,24.02,0,36.03,0,.36.05.72.09,1.2.65,0,1.22-.01,1.79,0,3.67.09,5.87-3.04,5.83-5.87-.12-9.52-.04-19.05-.04-28.58,0-.48.04-.96.06-1.48.36-.05.6-.1.84-.1,3.19,0,6.38-.1,9.57.04,1.5.06,3.03.43,4.47.9,2.11.68,3.62,2.12,4.45,4.21.5,1.25.6,2.57.55,3.9-.12,2.87-1.36,5.05-3.91,6.44-2.12,1.15-4.4,1.64-6.79,1.67-.43,0-.85.04-1.39.06.17.33.25.52.36.69,3.24,5.1,6.48,10.19,9.72,15.28,1.15,1.8,2.76,2.81,4.93,2.84,1.57.02,3.15,0,4.72,0,.22,0,.45-.06.85-.12-3.25-4.65-6.39-9.15-9.65-13.81.47-.23.79-.38,1.12-.54ZM429.54,54.21c-8.2,0-16.4.04-24.6-.03-2.32-.02-5.19,2.16-5.19,5.28,0,12.05,0,24.1,0,36.15,0,.35.06.71.09,1.07h31.66c.26-1.27.03-2.38-.53-3.42-1.1-2.04-2.83-3.03-5.16-3.03-5.59.01-11.18,0-16.78,0-.48,0-.96-.04-1.46-.07v-11.88c.53,0,.98,0,1.42,0,4.47,0,8.95,0,13.42,0,1.29,0,2.44-.38,3.47-1.14,1.67-1.23,2.52-3.39,2.02-5.29-6.74-.07-13.52.04-20.35-.06v-11.16c.51,0,.96,0,1.4,0,5.38,0,10.77-.02,16.15,0,3.86.02,6.19-3.51,5.44-6.39-.38-.02-.7-.06-1.03-.06ZM248.12,96.78c2.64-.03,4.46-1.29,5.5-3.7.76-1.74,1.54-3.48,2.21-5.25.28-.75.67-1.01,1.45-1,6.46.02,12.92.02,19.38,0,.75,0,1.12.28,1.39.94.74,1.8,1.54,3.56,2.29,5.35.68,1.61,1.77,2.8,3.45,3.33,2,.63,4.05.28,6.22.28-.16-.4-.24-.62-.34-.84-2.42-5.39-4.84-10.78-7.27-16.17-3.24-7.2-6.5-14.38-9.73-21.59-1.29-2.87-2.96-3.99-6.07-3.92-2.24.05-3.86,1.1-4.82,3.11-.71,1.49-1.37,3.01-2.05,4.52-4.83,10.74-9.66,21.48-14.49,32.22-.37.82-.73,1.65-1.21,2.72,1.52,0,2.8.01,4.08,0ZM274.98,80.53c-.91.34-13.49.45-15.94.16.14-.44.24-.85.4-1.24,1.98-4.64,3.96-9.28,5.95-13.91.47-1.09.94-2.18,1.41-3.27.1,0,.2-.02.3-.03,2.63,6.1,5.26,12.19,7.89,18.3ZM205.42,96.66c.58-.04,1.19-.36,1.68-.7,1.19-.81,1.59-2.03,1.59-3.44-.01-10.06,0-20.13,0-30.19,0-.48.04-.96.06-1.45.28-.06.44-.13.59-.12,3.81.05,7.63-.1,11.41.22,3.97.33,7.08,2.44,7.76,6.75.13.81.15,1.65.09,2.47-.19,2.59-1.3,4.68-3.57,6.05-1.25.76-2.63,1.26-4.08,1.38-1.69.14-3.38.14-5.08.21-.43.02-.86.05-1.28.08-.02.29-.06.42-.04.53.54,2.95,2.45,4.61,5.23,5.32,2.68.69,5.35.4,7.93-.51,3.63-1.29,6.19-3.73,7.59-7.34,1.05-2.71,1.44-5.52,1.13-8.4-.5-4.65-2.68-8.29-6.76-10.68-2.58-1.51-5.41-2.4-8.36-2.49-5.13-.17-10.27-.1-15.4-.09-.52,0-1.07.15-1.56.36-2.39,1.04-3.49,2.97-3.5,5.5-.02,11.76,0,23.52,0,35.29,0,.41.04.81.06,1.31,1.62,0,3.07.07,4.5-.03ZM385.11,96.76c.19,0,.37-.11.53-.17.19-2.67-.9-4.76-3.03-5.82-1.14-.57-2.38-.67-3.62-.68-4.76-.02-9.52,0-14.28-.01-.44,0-.87-.04-1.38-.07v-12.8c0-5.75,0-11.51,0-17.26,0-1.05-.13-2.06-.71-2.97-1.63-2.55-3.59-3.17-7.06-2.58v42.37c9.93,0,19.73,0,29.54,0Z"/>
</svg>