<?xml version="1.0" encoding="UTF-8"?>
<svg id="Layer_1" data-name="Layer 1" xmlns="http://www.w3.org/2000/svg" version="1.1" viewBox="0 0 500 165">
  <defs>
    <style>
      .cls-1 {
        fill: #e52028;
      }

      .cls-1, .cls-2, .cls-3, .cls-4, .cls-5, .cls-6 {
        stroke-width: 0px;
      }

      .cls-2 {
        fill: #e52328;
      }

      .cls-3 {
        fill: #e52128;
      }

      .cls-4 {
        fill: #e51f28;
      }

      .cls-5 {
        fill: #fff;
      }

      .cls-6 {
        fill: #e52228;
      }
    </style>
  </defs>
  <path class="cls-5" d="M123.45,82.37c0,31.71-24.83,57.29-56.54,57.29S11.51,114.09,11.51,82.37s24.2-55.78,55.91-55.78,56.03,24.07,56.03,55.78Z"/>
  <g>
    <path class="cls-4" d="M61.46,108.96c1,1.47,2.02,2.62,3.32,3.49,3.25,2.17,6.83,3.12,10.72,2.96,7.6-.31,13.77-3.63,18.82-9.14,5.16-5.64,8.1-12.36,9.32-19.86.97-5.96.77-11.89-.82-17.71-2.85-10.41-9.61-17.05-19.91-20.09-6.03-1.78-12.21-2.13-18.45-1.62-5.49.45-10.75,1.79-15.6,4.43-9.59,5.23-15.35,13.27-17.32,24.01-1.16,6.33-.48,12.44,2.27,18.29,1.67,3.54,3.84,6.69,7.13,8.94.55.38,1.13.72,1.74,1.01.78.37,1.23.19,1.69-.54.18-.29.27-.61.34-.94.38-1.8.78-3.6,1.17-5.4.17-.77.11-1.47-.41-2.13-2.17-2.79-3.26-6.04-3.82-9.46-1.18-7.2.95-13.54,5.39-19.14,4.02-5.08,9.2-8.45,15.66-9.49,6.22-1.01,12.23-.14,17.75,3.02,4.71,2.7,7.78,6.81,9.05,12.04,2.97,12.22-.28,22.61-9.64,31.04-1.69,1.52-3.63,2.7-5.89,3.24-3.87.93-8.29-1.31-9.49-4.79-.56-1.63-.55-3.29-.24-4.97.75-4.13,2.1-8.11,3.23-12.14.64-2.3,1.35-4.59,1.49-6.99.09-1.6-.03-3.19-.6-4.71-.72-1.91-2.06-3.12-4.05-3.59-3.47-.82-6.4.17-8.77,2.76-2.42,2.64-3.53,5.85-3.82,9.37-.26,3.27.22,6.44,1.5,9.47.21.48.24.92.12,1.45-2.12,9.14-4.21,18.29-6.3,27.43-.35,1.51-.5,3.06-.57,4.61-.17,3.78-.03,7.55.39,11.31.03.28,0,.57,0,.88-.66-.01-1.18-.32-1.7-.55-18.4-8.25-29.95-22.18-33.97-41.94-3.12-15.33-.18-29.73,8.5-42.77,8.43-12.67,20.2-20.78,35.05-24.17,13.66-3.12,26.79-1.24,39.12,5.39,14.1,7.58,23.36,19.23,27.99,34.53,2.38,7.86,2.9,15.89,1.73,24.02-1.79,12.42-7.01,23.2-15.79,32.18-7.91,8.09-17.44,13.35-28.48,15.86-5.61,1.28-11.28,1.66-17.01,1.21-3.81-.3-7.56-1.01-11.23-2.07-.07-.02-.13-.1-.29-.22.55-.94,1.11-1.9,1.66-2.86,2.84-4.98,4.96-10.24,6.33-15.82.79-3.21,1.73-6.38,2.67-9.8Z"/>
    <path class="cls-1" d="M145.48,80.4c0-10.58,0-21.16,0-31.74,0-1.5-.25-1.39,1.43-1.39,8.31,0,16.62,0,24.94,0,3.98,0,7.85.56,11.57,2.04,6.64,2.64,10.86,7.39,12.5,14.37,1.2,5.12,1.06,10.18-.96,15.07-2.63,6.34-7.48,10.16-14.05,11.9-2.16.57-4.37.81-6.6.8-4.07-.02-8.15,0-12.22,0-1.07,0-1.08.01-1.08,1.11,0,6.38,0,12.76,0,19.14,0,.29,0,.59,0,.88q-.01.99-1.06,1c-.17,0-.34,0-.5,0-4.16,0-8.31,0-12.47,0-1.73,0-1.49.21-1.49-1.44,0-10.58,0-21.16,0-31.74ZM161,70.13c0,2.51,0,5.03,0,7.54,0,1.1.01,1.11,1.08,1.11,3.31,0,6.62,0,9.94,0,.89,0,1.77-.07,2.62-.25,3.35-.69,5.66-2.56,6.62-5.94.23-.82.33-1.65.34-2.48.04-2.97-.81-5.55-3.44-7.25-1.48-.95-3.13-1.42-4.88-1.44-3.81-.04-7.63-.02-11.44-.06-.64,0-.87.17-.86.84.03,2.64.01,5.28.01,7.92Z"/>
    <path class="cls-3" d="M417.14,100.03c-.42,1.83-1.13,3.43-2.03,4.95-2.54,4.31-6.31,7.17-10.95,8.8-6.77,2.38-13.62,2.34-20.32-.24-6.42-2.47-10.89-7.04-13.2-13.52-2.83-7.93-2.49-15.77,1.47-23.26,3.31-6.26,8.62-10.05,15.53-11.54,4.07-.87,8.17-.78,12.26-.04,1.96.36,3.77,1.13,5.45,2.18,6.17,3.88,10.03,9.41,11.69,16.49.68,2.87,1.04,5.78,1.07,8.73.01,1.24.02,1.24-1.2,1.24-10.37,0-20.74,0-31.11,0-2.03,0-2.04,0-1.48,1.96.72,2.52,1.89,4.79,4.06,6.35,3.35,2.4,6.99,2.57,10.76,1.11,1.26-.49,2.18-1.42,2.75-2.64.22-.48.47-.69,1.03-.69,4.58.02,9.15.02,13.73.02.12,0,.24.04.51.09ZM383.99,84.79h18.62c-.44-5.66-3.96-9.46-9.22-9.3-5.26.15-8.92,3.66-9.4,9.3Z"/>
    <path class="cls-3" d="M304.72,93.96c.05,5.12,3.98,9.5,8.97,10.08,1.52.18,3.02.11,4.52-.07,2.06-.25,3.68-1.24,4.45-3.22.43-1.1,1.08-1.33,2.18-1.31,4.03.06,8.06.03,12.09.03h1.24c.14.46-.03.8-.15,1.15-2.1,6.36-6.55,10.39-12.68,12.72-4.12,1.57-8.41,1.83-12.76,1.6-3.82-.2-7.45-1.13-10.8-3.03-5.63-3.2-9.16-8.05-10.76-14.26-1.99-7.73-1.24-15.18,3.04-22.03,3.82-6.12,9.43-9.64,16.57-10.66,6.16-.88,11.93.22,17.24,3.55,3.07,1.92,5.36,4.54,7,7.74,2.66,5.19,4.19,10.67,4.38,16.51.04,1.08.03,1.09-1.08,1.09-10.71,0-21.41,0-32.12,0-.45,0-.92-.12-1.35.12ZM323.77,84.81c-.12-1.84-.62-3.5-1.53-5.02-2.1-3.52-5.96-5.07-9.82-3.97-3.69,1.05-6.86,4.9-7.27,8.81-.01.11.02.17.12.18h18.5Z"/>
    <path class="cls-3" d="M217.28,89.84c0-7.47,0-14.94,0-22.41,0-1.43-.19-1.38,1.33-1.38,3.99,0,7.98,0,11.96,0,1.45,0,1.26-.03,1.27,1.32,0,1.55,0,3.11,0,4.66,0,.2-.04.45.22.52.23.06.39-.12.51-.28.68-.91,1.41-1.77,2.19-2.59,3.53-3.69,7.88-5.27,12.94-4.97,1.53.09,2.97.56,4.33,1.23,5.7,2.82,9.51,7.18,10.92,13.47.24,1.07.34,2.15.34,3.25,0,9.94,0,19.89,0,29.83,0,1.06.2,1.09-1.08,1.09-4.28,0-8.56,0-12.85,0-1.28,0-1.12.05-1.12-1.18,0-8.69,0-17.38,0-26.07,0-1.01-.04-2.01-.22-3.01-.8-4.57-4.15-6.34-8.21-5.9-3.69.4-6.31,2.99-7.18,6.77-.25,1.11-.32,2.24-.32,3.37,0,8.1,0,16.2,0,24.3,0,.25,0,.5,0,.76-.02.94-.02.95-.97.96-4.37,0-8.73,0-13.1,0-.97,0-.98-.01-.98-1.06,0-7.56,0-15.11,0-22.67Z"/>
    <path class="cls-1" d="M418.15,100.1c.36-.23.66-.16.95-.16,4.03,0,8.06.01,12.09-.02.73,0,1.07.17,1.33.92,1.04,2.96,3.38,4.29,6.33,4.6,1.96.21,3.94.2,5.89-.19,2.86-.57,4.33-3.6,3.03-6.22-.41-.84-1.11-1.35-1.93-1.72-1.31-.6-2.71-.86-4.11-1.11-3.46-.63-6.96-1.03-10.35-2.02-2.55-.75-4.98-1.73-7.13-3.33-2.79-2.08-4.49-4.81-5-8.27-.44-2.97-.19-5.87.9-8.66,1.56-3.99,4.67-6.33,8.61-7.71,2.19-.77,4.45-1.19,6.76-1.37,4.67-.36,9.3-.28,13.83,1.11,1.08.33,2.14.74,3.15,1.24,5.28,2.64,8.1,6.96,8.77,12.74-.26.3-.57.22-.86.22-4.07,0-8.14-.02-12.21.02-.73,0-1.03-.2-1.18-.92-.49-2.39-2.09-3.77-4.37-4.36-2.19-.57-4.42-.5-6.61-.02-1.7.37-2.64,1.48-2.85,3.11-.23,1.78.37,2.99,1.97,3.84,1.69.9,3.56,1.21,5.42,1.52,3.06.5,6.14.88,9.12,1.8,3.27,1.02,6.36,2.38,8.88,4.78,2.55,2.43,3.89,5.41,4.08,8.92.13,2.32-.08,4.61-.9,6.81-1.42,3.8-4.16,6.31-7.79,7.95-2.78,1.26-5.73,1.89-8.75,2.14-4.71.38-9.39.24-13.96-1.17-2.75-.85-5.31-2.06-7.52-3.93-3.27-2.75-5.13-6.24-5.6-10.53Z"/>
    <path class="cls-6" d="M466.93,89.54c0-4.32,0-8.64,0-12.96,0-1.11.1-1.08-1.11-1.07-.97,0-1.93-.02-2.9,0-.55.02-.73-.21-.72-.74.02-2.68.02-5.37,0-8.05,0-.49.18-.67.66-.67,1.05.02,2.1.01,3.15,0,.89-.01.9-.03.91-.9,0-2.1,0-4.2,0-6.29,0-2.31,0-4.62,0-6.92,0-.88.02-.9.9-.9,4.41,0,8.81,0,13.22,0,.91,0,.92.02.92,1.02,0,4.11,0,8.22,0,12.34,0,.29.03.59,0,.88-.06.59.15.82.77.8,1.68-.04,3.36-.03,5.04,0,.66,0,1.49-.3,1.95.15.5.49.18,1.35.19,2.05.03,2.1.02,4.2,0,6.29,0,.93-.02.95-.99.95-2.01,0-4.03,0-6.04,0-.89,0-.91.02-.91.89,0,7.22,0,14.43,0,21.65,0,3.3,1.41,4.64,4.81,4.7.67.01,1.34.02,2.01,0,.47-.02.69.13.66.64-.03.67,0,1.34,0,2.01,0,2.73,0,5.45,0,8.18,0,.93-.02.96-.86.95-3.36-.04-6.71.15-10.06-.18-1.64-.16-3.23-.49-4.76-1.08-3.91-1.51-5.91-4.5-6.57-8.51-.21-1.29-.27-2.58-.26-3.89.02-3.78,0-7.55,0-11.33Z"/>
    <path class="cls-6" d="M283.47,51.17v3.13c0,3.57,0,7.13,0,10.7,0,1.03.01,1.04,1.01,1.05,1.68.01,3.36,0,5.04,0,.99,0,1,.02,1.01.94,0,2.52,0,5.04,0,7.55,0,.93-.02.94-1,.95-1.72,0-3.44,0-5.16,0-.87,0-.88.02-.89.9,0,5.54,0,11.08,0,16.62,0,1.85.02,3.69.01,5.54,0,.68.13,1.33.39,1.96.45,1.1,1.32,1.69,2.44,1.98,1.16.31,2.33.25,3.51.23.54,0,.72.19.73.72.11,3.44.24,6.88.39,10.31.03.64-.22.78-.8.77-3.27-.06-6.55.13-9.81-.21-1.8-.18-3.56-.57-5.22-1.32-3.58-1.61-5.35-4.54-5.96-8.29-.22-1.37-.26-2.75-.26-4.14,0-7.85,0-15.7,0-23.54,0-.29-.02-.59,0-.88.04-.49-.17-.66-.66-.66-1.22.02-2.44-.03-3.65.02-.65.02-.89-.19-.88-.85.03-2.6.03-5.2,0-7.81,0-.71.31-.84.92-.82,1.01.03,2.02-.02,3.02.02.6.02.8-.18.79-.79-.03-2.35-.01-4.7-.01-7.05,0-2.14,0-4.28,0-6.42,0-.48.05-.79.66-.79,4.66.02,9.32.02,13.98.03.12,0,.24.07.42.13Z"/>
    <path class="cls-6" d="M340.7,90.02v-22.29c0-.25,0-.5,0-.76.02-.9.02-.91.89-.93.92-.01,1.85,0,2.77,0,3.27,0,6.55,0,9.82,0,1.08,0,1.09.01,1.09,1.11,0,1.89,0,3.78,0,5.67,0,.23-.13.54.19.65.32.11.42-.2.54-.4.58-.98,1.26-1.88,2-2.74,3.05-3.54,6.99-4.89,11.56-4.77.6.02.69.28.66.78-.04.84-.03,1.68-.06,2.52-.1,2.98-.2,5.96-.31,8.93-.04.95-.06.96-1.01.89-2.3-.17-4.53.11-6.63,1.09-3.63,1.7-5.35,4.79-6.12,8.55-.28,1.36-.34,2.74-.34,4.13,0,6.59,0,13.18,0,19.77,0,.21,0,.42,0,.63,0,1.18,0,1.19-1.14,1.19-4.28,0-8.56,0-12.85,0-1.06,0-1.07-.01-1.07-1.11,0-7.64,0-15.28,0-22.92Z"/>
    <path class="cls-2" d="M198.97,89.94c0-7.51,0-15.02,0-22.53,0-1.52-.09-1.37,1.34-1.37,4.2,0,8.39,0,12.59,0,1.09,0,1.1.01,1.1,1.09,0,15.27,0,30.54,0,45.81,0,1.09,0,1.1-1.08,1.1-4.24,0-8.48,0-12.71,0-1.19,0-1.24.23-1.24-1.21,0-7.63,0-15.27,0-22.9Z"/>
    <path class="cls-3" d="M206.39,62.29c-5-.09-8.88-4.1-8.81-9.1.07-4.9,4.13-8.85,9.02-8.77,4.91.08,8.89,4.12,8.83,8.97-.06,4.99-4.12,8.98-9.04,8.89Z"/>
  </g>
</svg>