<?xml version="1.0" encoding="UTF-8"?>
<svg id="Black" xmlns="http://www.w3.org/2000/svg" viewBox="0 0 500 500">
  <defs>
    <style>
      .cls-1 {
        fill: #000;
        stroke-width: 0px;
      }
    </style>
  </defs>
  <g id="website">
    <path class="cls-1" d="M455.55,72.19H44.45c-11.67,0-21.17,9.5-21.17,21.17v257.66c0,11.67,9.5,21.17,21.17,21.17h160.49v31.09h-40.5v24.54h171.11v-24.54h-40.5v-31.09h160.49c11.67,0,21.17-9.5,21.17-21.17V93.36c0-11.67-9.5-21.17-21.17-21.17ZM48.74,350.26c-2.27,0-4.11-1.84-4.11-4.11V98.23c0-2.27,1.84-4.11,4.11-4.11h402.52c2.27,0,4.11,1.84,4.11,4.11v247.92c0,2.27-1.84,4.11-4.11,4.11H48.74Z"/>
    <polygon class="cls-1" points="169.81 238.07 156.25 188.83 143.18 188.83 129.62 238.07 117.46 188.83 100.57 188.83 119.97 259.17 138.26 259.17 149.71 217.67 161.17 259.17 179.46 259.17 198.86 188.83 181.97 188.83 169.81 238.07"/>
    <polygon class="cls-1" points="370.38 238.07 356.82 188.83 343.75 188.83 330.19 238.07 318.03 188.83 301.14 188.83 320.54 259.17 338.83 259.17 350.29 217.67 361.74 259.17 380.03 259.17 399.43 188.83 382.54 188.83 370.38 238.07"/>
    <polygon class="cls-1" points="270.1 238.07 256.53 188.83 243.47 188.83 229.9 238.07 217.74 188.83 200.86 188.83 220.25 259.17 238.54 259.17 250 217.67 261.46 259.17 279.75 259.17 299.14 188.83 282.26 188.83 270.1 238.07"/>
  </g>
</svg>
