<?xml version="1.0" encoding="UTF-8"?>
<svg id="Black" xmlns="http://www.w3.org/2000/svg" viewBox="0 0 500 500">
  <defs>
    <style>
      .cls-1 {
        fill: #000;
      }
    </style>
  </defs>
  <path class="cls-1" d="M178.84,315.93c.34-.35.69-.7,1.03-1.05.16-.17.32-.34.49-.51.46-.49.92-.99,1.39-1.5.88-.95,1.75-1.9,2.65-2.82,4.48-4.57,8.99-9.27,13.36-13.81l3.98-4.14c3.07-3.19,6.13-6.38,9.2-9.57l4.82-5.02c1.39-1.45,2.78-2.89,4.17-4.33,3.3-3.42,6.71-6.96,10.03-10.47l1.01-1.07c.57-.61,1.16-1.23,1.75-1.85.08-.08.15-.16.23-.24-1.75-.32-3.49-.64-5.24-.96l-5.17-.94c-1.47-.27-2.94-.54-4.41-.81-2.68-.5-5.37-.99-8.06-1.47-2.73-.48-5.46-.96-8.19-1.43-3.78-.65-7.56-1.31-11.33-1.99-1.32-.24-2.64-.47-3.96-.7-2.39-.42-4.87-.85-7.31-1.33-3.23-.63-6.55-1.17-9.76-1.69-2.07-.34-4.14-.67-6.21-1.03-2.04-.36-4.08-.75-6.11-1.15-1.84-.36-3.68-.71-5.53-1.04-5.9-1.05-12.75-2.27-19.49-3.38-1.02-.17-2.04-.37-3.06-.57-.28-.06-.56-.11-.83-.16,9.14,13.7,18.27,27.41,27.41,41.12,7.6,11.41,15.21,22.82,22.82,34.23.11-.1.21-.21.32-.31Z"/>
  <path class="cls-1" d="M191.29,57.94c-5.35,5.55-10.7,11.1-16.06,16.64l-10.93,11.29c-5.05,5.21-10.1,10.43-15.14,15.65-3.92,4.06-7.83,8.12-11.74,12.19l-2.17,2.25c6.65,1.31,13.3,2.62,19.94,3.95,11.1,2.22,22.21,4.46,33.31,6.69l6,1.21,5.09,1.02c0-13.94,0-27.88,0-41.83l.02-37.72c-2.77,2.89-5.54,5.78-8.32,8.66Z"/>
  <path class="cls-1" d="M132.48,120.5c0,.08,0,.16-.01.23-.18,2.88-.33,5.76-.47,8.64-.15,2.94-.29,5.88-.48,8.82-.38,5.81-.76,12.17-1.17,19.43-.21,3.75-.44,7.5-.67,11.26l-.4,6.49c-.32,5.28-.65,10.57-.94,15.85-.11,2.02-.24,4.05-.37,6.07-.17,2.74-.34,5.47-.48,8.21-.3,6.09-.68,12.32-1.15,19.06l-.1,1.37c-.08,1.12-.16,2.26-.23,3.4l7.41-9.87c6.26-8.34,12.52-16.68,18.78-25.03l19.31-25.77c8.77-11.7,17.53-23.41,26.3-35.1l-10.27-2.06c-11.1-2.23-22.2-4.46-33.3-6.69-7.1-1.42-14.2-2.82-21.31-4.22l-.43-.08Z"/>
  <path class="cls-1" d="M130.09,236.14c.97.19,1.93.38,2.91.54,6.76,1.12,13.64,2.34,19.55,3.39,1.87.33,3.73.69,5.6,1.05,2.01.39,4.01.78,6.03,1.13,2.04.36,4.09.69,6.14,1.02,3.25.53,6.62,1.07,9.93,1.72,2.39.47,4.83.89,7.2,1.31,1.33.23,2.66.46,3.99.7,3.76.68,7.53,1.33,11.3,1.98,2.74.47,5.47.95,8.21,1.43,2.7.48,5.4.98,8.1,1.48,1.47.27,2.93.54,4.4.81l5.17.94c2,.36,4,.73,5.99,1.09-3.11-10.91-6.22-21.82-9.33-32.73-2.89-10.15-5.78-20.3-8.68-30.45-2.96-10.37-5.93-20.74-8.89-31.11-2.19-7.67-4.39-15.33-6.58-23-8.54,11.4-17.08,22.8-25.62,34.2l-19.31,25.77c-6.26,8.35-12.52,16.69-18.78,25.03l-9.9,13.19c.14.02.27.05.41.08.73.13,1.46.27,2.17.41Z"/>
  <path class="cls-1" d="M298.72,58.31c-.53-2.4-1.05-4.8-1.57-7.21-.23-1.05-.46-2.09-.68-3.14-1.15,1.08-2.31,2.16-3.47,3.23-3.31,3.06-6.63,6.12-9.94,9.18l-8.38,7.74c-2.77,2.56-5.53,5.13-8.29,7.7l-7.01,6.55c-3.67,3.43-7.34,6.86-11.01,10.28-2.06,1.92-4.14,3.83-6.21,5.73-1.55,1.43-3.1,2.85-4.65,4.28-3.48,3.22-6.96,6.45-10.44,9.68l-9.54,8.84c-1.27,1.17-2.54,2.34-3.81,3.51-2.33,2.14-4.65,4.28-6.95,6.45.04.02.08.03.11.05.44.19.88.39,1.32.59.59.27,1.18.54,1.79.78,4.74,1.93,9.53,3.94,14.16,5.88,2.38,1,4.76,2,7.15,2.99,8.42,3.5,16.84,7,25.26,10.48l11.85,4.9c6.55,2.71,13.1,5.42,19.65,8.14,8.38,3.48,16.76,6.98,25.13,10.48l10.04,4.19c.59.25,1.18.48,1.77.71.23.09.46.18.68.27-.02-.08-.04-.17-.06-.25-.13-.55-.26-1.11-.4-1.67-.24-.98-.47-1.95-.69-2.94-2.25-10.29-4.5-20.59-6.75-30.88l-5.27-24.11c-2.15-9.85-4.31-19.7-6.48-29.55-1.39-6.3-2.79-12.6-4.2-18.9-1.04-4.66-2.08-9.33-3.11-14Z"/>
  <path class="cls-1" d="M200.42,330.75l12.36-25.97c5-10.5,10.01-20.99,15.02-31.49.34-.72.68-1.43,1.03-2.15-.06.06-.12.13-.18.19-1.71,1.79-3.43,3.56-5.11,5.31-1.39,1.44-2.78,2.88-4.17,4.33l-4.82,5.02c-3.07,3.19-6.13,6.39-9.2,9.58l-3.98,4.14c-4.37,4.55-8.9,9.25-13.39,13.84-.87.89-1.71,1.8-2.55,2.71-.6.65-1.21,1.3-1.83,1.95-.16.16-.31.33-.47.49-.65.68-1.32,1.34-2.02,1.99-.05.05-.1.1-.16.16.83,2.65,1.66,5.31,2.48,7.96,1.03,3.3,2.05,6.6,3.09,9.9,1.34,4.26,2.69,8.53,4.04,12.79,3.28-6.92,6.57-13.83,9.87-20.75Z"/>
  <path class="cls-1" d="M317.95,324.26l.09-.29c-.34.09-.67.18-1.01.27-.66.18-1.31.35-1.97.55-5.39,1.62-10.88,3.2-16.19,4.73l-17.89,5.17c-7.66,2.21-15.32,4.42-22.98,6.65-4.81,1.4-9.61,2.81-14.42,4.22-4.53,1.33-9.07,2.66-13.6,3.98-3.65,1.06-7.3,2.12-10.95,3.17-3.7,1.07-7.46,2.15-11.23,3.25,0,0,0,0-.01,0h73.94c6.26,0,12.52.01,18.79.02h7.55s1.71-5.45,1.71-5.45c1.67-5.34,3.35-10.69,5.01-16.04,1.06-3.41,2.11-6.82,3.16-10.23Z"/>
  <path class="cls-1" d="M323.23,248.16c.1-1.89.21-3.78.31-5.67l.17-3.21c.22-4.31.45-8.63.69-12.94.15-2.8.3-5.6.45-8.41.14-2.63.27-5.26.42-7.88.07-1.24.13-2.48.19-3.72.12-2.34.24-4.68.39-7.02.1-1.6.19-3.23.26-4.84.03-.64.05-1.28.08-1.92.03-.83.07-1.66.1-2.48l-6.86,5.49c-8.02,6.42-16.04,12.84-24.05,19.27-11.68,9.37-23.35,18.74-35.02,28.12-4.72,3.8-9.44,7.61-14.15,11.43l-4.1,3.32,6.46,4.8c6.22,4.62,12.43,9.24,18.65,13.86,6.19,4.59,12.37,9.18,18.56,13.77l33.87,25.13c0-.23.02-.46.03-.69.04-.84.08-1.68.12-2.52.02-.31.03-.61.05-.91.06-1.11.13-2.2.2-3.29.11-1.81.23-3.63.32-5.44.14-2.87.3-5.73.46-8.6.14-2.52.28-5.04.41-7.56.28-5.63.57-11.25.88-16.88.07-1.22.14-2.44.21-3.66.12-2.16.25-4.31.35-6.47.17-3.69.37-7.38.57-11.07Z"/>
  <path class="cls-1" d="M262.47,431.6c1.48-2.42,2.95-4.84,4.43-7.26l4.13-6.79c2.15-3.53,4.29-7.06,6.45-10.58.09-.14.18-.27.27-.38.04-.05.08-.08.12-.12.06-.06.11-.12.16-.17,0,0,0,0,0,0,.09-.18.18-.36.28-.54.09-.18.18-.36.27-.53.16-.3.32-.59.49-.87.09-.15.17-.31.26-.46.19-.32.38-.64.57-.95.07-.11.14-.23.21-.34.26-.42.52-.83.78-1.23.4-.64.81-1.27,1.2-1.91,4.55-7.51,9.13-15.01,13.7-22.51l9.73-15.96h-5.01c-6.26,0-12.52-.02-18.78-.02h-87.26c1.95,3.2,3.89,6.39,5.83,9.58,1.66,2.72,3.32,5.45,4.97,8.17,3.79,6.22,7.57,12.44,11.35,18.66,1.22,2,2.45,3.99,3.67,5.98l1.3,2.1c.09.13.18.29.28.47.03.06.06.11.09.17.08.15.15.31.22.49.02.05.04.09.06.14.1.13.19.26.29.38.11.15.23.3.34.45.16.23.32.45.47.68.09.14.19.28.27.41.17.27.33.54.49.8.06.1.12.2.18.3.21.37.42.73.63,1.1.33.59.66,1.17,1.02,1.75,4.23,6.88,8.44,13.78,12.65,20.68l3.64,5.96c2.59,4.25,5.19,8.5,7.77,12.76.04-.06.08-.12.11-.18.24-.38.48-.76.72-1.13.04-.06.07-.12.11-.17.36-.56.73-1.13,1.07-1.7,3.47-5.76,7.03-11.59,10.47-17.23Z"/>
  <path class="cls-1" d="M330.09,177.5c.03.13.06.26.09.39,4.42-7.29,8.83-14.58,13.25-21.87l4.35-7.17c5.27-8.69,10.54-17.38,15.83-26.05.35-.58.69-1.17,1.02-1.76.26-.46.52-.92.79-1.38.09-.15.18-.3.27-.44.22-.36.45-.72.69-1.08.07-.11.13-.21.2-.32-1.01-1.06-2.02-2.12-3.04-3.19-1.95-2.05-3.89-4.09-5.86-6.12-8.71-9.02-17.43-18.02-26.16-27.02-2.45-2.52-4.9-5.04-7.36-7.56-2.66-2.73-5.32-5.45-7.97-8.19-4.53-4.67-9.04-9.35-13.56-14.04l-.35-.36c.42,1.96.85,3.93,1.28,5.89,1.03,4.66,2.07,9.33,3.11,13.99,1.41,6.3,2.81,12.61,4.2,18.92,2.17,9.85,4.32,19.7,6.48,29.56l5.27,24.11c2.25,10.29,4.51,20.59,6.76,30.88.21.94.43,1.88.66,2.82Z"/>
  <path class="cls-1" d="M288.16,438.91c4.73-1.89,9.45-3.81,14.17-5.73l2.77-1.13c-.07-.06-.13-.11-.2-.17-.42-.34-.84-.69-1.27-1.03-.81-.65-1.62-1.3-2.4-1.99-2.64-2.31-5.41-4.59-8.08-6.79-1.13-.94-2.27-1.87-3.39-2.81l-9.23-7.69c-1.74,2.86-3.49,5.72-5.23,8.59l-4.13,6.79c-1.48,2.42-2.95,4.84-4.43,7.26-3.44,5.63-7,11.46-10.45,17.2-.06.1-.12.19-.17.29l2.26-.9c9.93-3.96,19.87-7.91,29.79-11.88Z"/>
  <path class="cls-1" d="M257.22,239.05c11.67-9.39,23.34-18.76,35.02-28.13,8.01-6.43,16.04-12.85,24.05-19.27l7.84-6.28c-.32-.13-.64-.25-.96-.38-.63-.25-1.25-.49-1.87-.75l-10.04-4.19c-8.37-3.5-16.74-7-25.12-10.48-6.54-2.72-13.09-5.43-19.64-8.13l-11.86-4.9c-8.43-3.49-16.85-6.98-25.27-10.49-2.39-.99-4.77-2-7.16-3-4.62-1.94-9.4-3.94-14.11-5.86-.66-.27-1.32-.56-1.97-.86,0,0,0,0,0,0-.06-.03-.11-.05-.17-.07,2.18,7.61,4.35,15.23,6.53,22.84,2.97,10.37,5.93,20.74,8.89,31.12,2.9,10.15,5.79,20.3,8.68,30.45,3.11,10.93,6.23,21.85,9.34,32.78l1.49-1.2,6.3-5.64-.59,1.02c3.53-2.86,7.06-5.71,10.6-8.56Z"/>
  <path class="cls-1" d="M363.14,253.75c2.67-4,5.35-7.99,8.04-11.97l2.73-4.05c-.28-.3-.56-.59-.84-.89-1.68-1.78-3.42-3.61-5.07-5.51-.6-.7-1.23-1.37-1.85-2.05-.6-.65-1.2-1.3-1.79-1.97-1.8-2.05-3.7-4.1-5.54-6.08-1.58-1.69-3.21-3.44-4.78-5.21-3.82-4.29-7.6-8.45-11.22-12.36-4.54-4.9-8.19-8.93-11.48-12.66-.03-.03-.06-.06-.09-.09-.03.68-.06,1.36-.09,2.04-.03.62-.05,1.24-.08,1.87-.07,1.6-.16,3.2-.26,4.8-.15,2.32-.27,4.64-.38,6.95-.06,1.25-.13,2.49-.2,3.74-.14,2.62-.28,5.25-.42,7.87-.15,2.81-.29,5.62-.45,8.42-.24,4.31-.46,8.62-.69,12.93l-.17,3.21c-.1,1.89-.2,3.79-.31,5.68-.2,3.68-.4,7.35-.57,11.03-.1,2.18-.23,4.35-.35,6.53-.07,1.21-.14,2.42-.21,3.64-.31,5.62-.59,11.24-.87,16.86-.13,2.53-.27,5.05-.41,7.58-.16,2.86-.32,5.71-.46,8.57-.09,1.84-.21,3.67-.32,5.51-.06.96-.12,1.94-.18,2.92,0,.05,0,.09,0,.14,5.73-8.6,11.46-17.19,17.19-25.79,7.03-10.55,14.06-21.11,21.1-31.66Z"/>
  <path class="cls-1" d="M374.02,230.45c-.13-1.89-.27-3.85-.36-5.79-.26-5.64-.63-11.38-.98-16.93l-.16-2.47c-.29-4.63-.59-9.25-.84-13.88-.25-4.58-.53-9.15-.81-13.72l-.67-11.08c-.18-2.97-.37-5.95-.53-8.92-.32-5.78-.71-12.63-1.18-19.55-.12-1.74-.19-3.5-.25-5.2-.09-2.37-.19-4.82-.41-7.18,0-.06-.01-.12-.02-.18-5.26,8.62-10.5,17.25-15.74,25.89l-4.35,7.17c-5.21,8.6-10.43,17.2-15.63,25.8.16.19.32.37.48.55.08.08.15.17.23.25.28.3.57.61.86.92.49.51.97,1.03,1.44,1.56,3.26,3.71,6.88,7.7,11.39,12.57,3.65,3.94,7.44,8.12,11.29,12.43,1.54,1.73,3.15,3.46,4.71,5.13,1.87,2,3.8,4.08,5.65,6.19.55.63,1.12,1.25,1.7,1.87.66.71,1.32,1.43,1.96,2.17.72.84,1.48,1.67,2.24,2.49,0-.03,0-.06,0-.09Z"/>
  <path class="cls-1" d="M307.46,427.5c.01-20.03.01-40.06,0-60.09l-7.4,12.14c-4.57,7.49-9.15,14.98-13.69,22.49-.41.67-.83,1.34-1.25,2.01-.3.48-.6.95-.89,1.41-.08.13-.16.26-.24.4-.22.37-.44.74-.65,1.11-.06.1-.11.19-.16.29l9.79,8.16c1.12.93,2.25,1.87,3.38,2.8,2.7,2.23,5.49,4.53,8.18,6.88.73.64,1.49,1.25,2.25,1.86.23.18.46.37.68.55Z"/>
  <path class="cls-1" d="M203.58,418.3c1.05-.88,2.11-1.75,3.16-2.63,2.3-1.91,4.6-3.83,6.88-5.77.37-.31.73-.63,1.09-.94.63-.54,1.27-1.1,1.93-1.64.05-.04.1-.08.15-.13l-.75-1.21c-1.24-2-2.47-4-3.69-6.01-6.61-10.86-13.21-21.71-19.82-32.57,0,20.05,0,40.1,0,60.15.28-.23.57-.45.85-.69,2.42-2.11,4.93-4.19,7.36-6.2.95-.78,1.89-1.57,2.84-2.36Z"/>
  <path class="cls-1" d="M217.29,306.93l-12.36,25.97c-3.44,7.22-6.88,14.45-10.3,21.68.23-.05.46-.09.68-.15,7.44-2.21,15.01-4.4,22.33-6.52,3.65-1.05,7.29-2.11,10.94-3.17,4.53-1.32,9.06-2.65,13.59-3.98,4.81-1.41,9.62-2.82,14.43-4.22,7.66-2.23,15.32-4.44,22.99-6.65l17.9-5.17c5.3-1.52,10.78-3.1,16.14-4.71.7-.21,1.4-.4,2.11-.59.28-.07.55-.15.82-.22l-33.77-25.06c-6.19-4.59-12.38-9.18-18.56-13.77-6.22-4.62-12.44-9.24-18.66-13.86l-6.62-4.92-1.5,3.11c-1.72,3.58-3.44,7.16-5.15,10.74-5.01,10.49-10.01,20.99-15.01,31.48Z"/>
  <path class="cls-1" d="M204.59,87c0,13.11,0,26.22,0,39.32,1.91-1.78,3.83-3.55,5.75-5.31,1.27-1.17,2.53-2.33,3.79-3.5l9.53-8.84c3.48-3.23,6.96-6.46,10.44-9.68,1.55-1.43,3.1-2.86,4.66-4.29,2.07-1.9,4.13-3.8,6.19-5.71,3.67-3.42,7.34-6.85,11-10.28l7.02-6.56c2.76-2.58,5.53-5.15,8.31-7.72l8.39-7.74c3.31-3.06,6.63-6.11,9.94-9.17.65-.6,1.3-1.21,1.95-1.82h-86.94l-.02,41.3Z"/>
  <path class="cls-1" d="M237.42,449.09c1.23.49,2.46,1,3.7,1.5.94.39,1.89.78,2.85,1.16-2.01-3.3-4.01-6.6-6.03-9.9l-3.64-5.96c-4.2-6.89-8.41-13.79-12.64-20.67-.38-.63-.75-1.27-1.11-1.91-.33-.58-.65-1.14-.98-1.68-.03-.06-.07-.11-.1-.17-.49.41-.98.83-1.48,1.27-.38.33-.75.65-1.13.98-2.29,1.96-4.61,3.88-6.93,5.81-1.05.87-2.1,1.75-3.15,2.62-.95.79-1.9,1.58-2.85,2.37-2.4,1.99-4.88,4.05-7.26,6.12-.54.47-1.1.91-1.66,1.35-.04.03-.08.06-.11.09l7.41,2.97c11.7,4.69,23.4,9.38,35.11,14.05Z"/>
</svg>
