<?xml version="1.0" encoding="UTF-8"?>
<svg id="Black" xmlns="http://www.w3.org/2000/svg" version="1.1" viewBox="0 0 500 500">
  <defs>
    <style>
      .cls-1 {
        fill: #000;
        stroke-width: 0px;
      }
    </style>
  </defs>
  <path class="cls-1" d="M455.32,344.25c-2.87-7.82-8.35-12-14.58-15.47-1.17-.69-2.25-1.24-3.17-1.66-1.86-.96-3.76-1.89-5.65-2.87-19.43-10.3-34.61-23.3-45.13-38.71-2.99-4.34-5.58-8.94-7.75-13.74-.9-2.57-.85-4.03-.21-5.36.64-1.03,1.48-1.91,2.48-2.59,3.34-2.21,6.78-4.45,9.12-5.96,4.16-2.69,7.46-4.83,9.58-6.34,7.98-5.58,13.56-11.5,17.04-18.13,4.92-9.26,5.58-20.21,1.79-29.99-5.28-13.91-18.42-22.54-34.33-22.54-3.36,0-6.7.35-9.99,1.06-.88.19-1.75.39-2.61.61.15-9.51-.06-19.55-.91-29.43-3-34.73-15.16-52.94-27.85-67.46-8.12-9.1-17.68-16.8-28.31-22.78-19.25-10.99-41.07-16.57-64.85-16.57s-45.51,5.58-64.77,16.57c-10.65,5.99-20.23,13.7-28.36,22.82-12.68,14.52-24.84,32.76-27.84,67.46-.85,9.88-1.06,19.97-.92,29.43-.85-.22-1.72-.43-2.6-.61-3.28-.71-6.63-1.06-9.99-1.06-15.93,0-29.08,8.63-34.34,22.54-3.81,9.79-3.17,20.74,1.74,30.02,3.5,6.63,9.08,12.55,17.06,18.13,2.11,1.48,5.42,3.61,9.58,6.34,2.25,1.46,5.54,3.59,8.76,5.73,1.13.73,2.09,1.69,2.81,2.82.68,1.38.7,2.87-.31,5.62-2.14,4.7-4.68,9.2-7.62,13.45-10.29,15.06-25.02,27.82-43.83,38.04-9.97,5.28-20.33,8.81-24.7,20.7-3.3,8.97-1.14,19.18,7.24,27.78,3.08,3.21,6.64,5.91,10.57,8,8.17,4.49,16.85,7.96,25.86,10.35,1.86.48,3.62,1.27,5.22,2.34,3.05,2.67,2.62,6.7,6.69,12.6,2.04,3.05,4.64,5.69,7.65,7.78,8.54,5.9,18.13,6.27,28.3,6.66,9.18.35,19.59.75,31.48,4.67,4.92,1.63,10.04,4.78,15.97,8.45,14.23,8.75,33.72,20.72,66.33,20.72s52.23-12.04,66.57-20.82c5.89-3.61,10.97-6.73,15.76-8.32,11.89-3.93,22.3-4.32,31.48-4.67,10.17-.39,19.76-.76,28.3-6.66,3.57-2.49,6.54-5.74,8.71-9.51,2.93-4.98,2.85-8.45,5.6-10.88,1.5-1.02,3.15-1.77,4.9-2.24,9.13-2.39,17.93-5.9,26.21-10.44,4.17-2.24,7.92-5.18,11.09-8.69l.11-.13c7.86-8.41,9.84-18.32,6.62-27.07ZM426.33,359.83c-17.68,9.76-29.43,8.72-38.57,14.6-7.77,5-3.17,15.78-8.81,19.67-6.93,4.79-27.42-.34-53.89,8.4-21.83,7.22-35.76,27.97-75.03,27.97s-52.87-20.71-75.06-28.02c-26.42-8.74-46.95-3.61-53.89-8.4-5.63-3.89-1.06-14.67-8.81-19.67-9.15-5.89-20.9-4.84-38.57-14.55-11.25-6.21-4.87-10.06-1.12-11.88,64.04-31,74.26-78.87,74.71-82.43.55-4.3,1.16-7.68-3.57-12.06-4.58-4.23-24.88-16.79-30.51-20.72-9.32-6.51-13.42-13.01-10.4-21,2.11-5.53,7.27-7.61,12.68-7.61,1.71,0,3.41.2,5.08.57,10.23,2.22,20.16,7.34,25.9,8.73.69.18,1.4.27,2.11.29,3.07,0,4.14-1.54,3.93-5.05-.65-11.19-2.24-33-.48-53.39,2.42-28.05,11.46-41.94,22.19-54.23,5.16-5.91,29.39-31.51,75.73-31.51s70.63,25.5,75.79,31.38c10.75,12.29,19.79,26.19,22.19,54.23,1.76,20.38.24,42.21-.48,53.39-.24,3.69.87,5.05,3.93,5.05.71-.01,1.42-.11,2.11-.29,5.75-1.38,15.68-6.51,25.91-8.73,1.67-.37,3.37-.57,5.08-.57,5.44,0,10.57,2.11,12.68,7.61,3.02,7.99-1.06,14.49-10.39,21-5.63,3.93-25.93,16.48-30.51,20.72-4.75,4.38-4.12,7.76-3.57,12.06.45,3.6,10.66,51.47,74.71,82.42,3.79,1.89,10.17,5.74-1.08,12Z"/>
</svg>