<?xml version="1.0" encoding="UTF-8"?>
<svg id="Black" xmlns="http://www.w3.org/2000/svg" viewBox="0 0 500 500">
  <path d="M452.41,213.19c-12.24-56.23-42.35-100.5-90.6-131.78-44.87-29.09-94.19-38.58-146.88-30-29.8,4.85-57.17,16.12-82,33.32-35.35,24.5-60.82,56.85-76.28,97.01-8.94,23.22-13.24,47.35-13.44,72.2-.09,11.25.79,22.46,2.55,33.6,3.62,22.9,10.86,44.56,21.78,64.99,11.31,21.15,25.88,39.76,43.67,55.85,21.13,19.11,45.18,33.3,72.17,42.41,2.2.74,4.8.79,7.15.55,4.15-.42,7.04-3.31,7.94-7.4.27-1.22.36-2.5.35-3.75-.07-11.54-.18-23.07-.3-34.61,0-.75-.13-1.5-.22-2.48-2.45.35-4.72.7-7,1-10.53,1.39-21.06,1.88-31.53-.33-14.63-3.09-25.35-10.85-30.89-25.29-3.31-8.64-8.44-16.34-14.48-23.38-2.16-2.52-4.73-4.53-7.56-6.3-2.36-1.48-4.55-3.28-6.61-5.17-1.34-1.23-2.6-2.87-1.82-4.89.71-1.84,2.59-2.17,4.32-2.5,6.02-1.15,11.78-.27,17.25,2.4,8.28,4.04,14.26,10.56,19.26,18.1,1.45,2.18,2.82,4.42,4.43,6.47,8.5,10.84,19.54,16.49,33.46,16.19,6.77-.15,13.2-1.8,19.53-4.08,2.2-.79,3.09-2.03,3.49-4.31,1.55-8.97,4.96-17.1,11.52-23.66.22-.22.27-.61.44-1.01-.58-.09-.96-.15-1.34-.2-11.66-1.48-23.17-3.6-34.28-7.54-11.54-4.09-22.1-9.86-31.07-18.33-11.18-10.55-18.08-23.58-22.13-38.26-3.06-11.1-4.22-22.45-4.58-33.91-.23-7.49.36-14.91,1.95-22.25,2.87-13.25,8.79-24.98,17.62-35.24.91-1.06,1.62-1.93,1.05-3.57-4.33-12.41-4.5-25.08-1.94-37.85,1.04-5.22,2.5-10.33,4.75-15.39,1.89-.07,3.72-.23,5.54-.19,5.68.12,11.11,1.56,16.44,3.4,11.44,3.95,21.93,9.78,31.97,16.43,1.84,1.22,3.47,1.55,5.65.96,12.38-3.36,25.03-5.29,37.83-5.93,20.46-1.02,40.67.73,60.48,6.17,1.55.43,2.72.13,4.04-.74,3.73-2.44,7.5-4.83,11.36-7.04,9.11-5.21,18.52-9.75,28.84-12.1,4.27-.97,8.56-1.61,12.97-1.09,1.2.14,1.93.58,2.3,1.79,1.01,3.34,2.28,6.6,3.13,9.97,3.46,13.62,3.69,27.24-.77,40.7-.68,2.06-.3,3.29,1.05,4.87,10.76,12.59,17.03,27.14,18.75,43.64.81,7.85.56,15.68-.03,23.52-.77,10.29-2.6,20.37-5.96,30.14-5.15,14.95-13.64,27.55-26.32,37.17-9.71,7.37-20.69,12.12-32.33,15.45-9.24,2.64-18.71,4.17-28.62,5.43,1.97,2.52,3.85,4.6,5.37,6.91,5.67,8.62,7.83,18.33,7.96,28.45.19,15.32-.01,30.64-.04,45.96,0,5.04-.19,10.09.08,15.12.28,5.1,4.04,8.47,9.13,8.81,2.87.2,5.56-.46,8.23-1.43,31.78-11.45,59.3-29.43,82.19-54.26,32.03-34.75,50.2-75.78,54.55-122.85,1.86-20.11.78-40.14-3.51-59.87Z"/>
</svg>