<?xml version="1.0" encoding="UTF-8"?>
<svg id="Black" xmlns="http://www.w3.org/2000/svg" version="1.1" viewBox="0 0 500 500">
  <defs>
    <style>
      .cls-1 {
        fill: #000;
        stroke-width: 0px;
      }
    </style>
  </defs>
  <path class="cls-1" d="M150.68,351c-13.59-13.98-25.9-26.64-39.32-40.45,22.55-21.92,46.19-44.9,69.84-67.88-.24-.8-.48-1.61-.72-2.41h-100.17v-56.47h99.57c.46-.88.91-1.77,1.37-2.65-23.37-22.14-46.74-44.28-70.98-67.25,14.09-12.73,27.63-24.96,40.51-36.59,21.44,20.39,44.71,42.53,69,65.64V43.2h59.1v98.55c23.51-22.77,46.66-45.18,68.6-66.43,14.05,13.18,27.33,25.65,41.33,38.78-23.93,22.62-47.27,44.68-70.62,66.74l.48,2.22h101.05v56.39h-100.68c-.5.87-1.01,1.74-1.51,2.61,22.67,23.75,46.84,46.06,69.78,68.49-12.88,13.21-25.35,26.01-38.07,39.06-32.85-32.8-65.65-65.55-99.08-98.93-33.88,34.17-66.7,67.27-99.46,100.3Z"/>
  <path class="cls-1" d="M221.39,322.74h57.29v134.06h-57.29v-134.06Z"/>
</svg>