<?xml version="1.0" encoding="UTF-8"?>
<svg id="Black" xmlns="http://www.w3.org/2000/svg" viewBox="0 0 500 500">
  <defs>
    <style>
      .cls-1 {
        fill: #000;
        stroke-width: 0px;
      }
    </style>
  </defs>
  <polygon class="cls-1" points="250.14 344.67 461.84 212.66 461.84 248.46 250.14 381.02 38.16 248.46 38.16 212.66 250.14 344.67"/>
  <path class="cls-1" d="M250.14,179.11c-47.82,0-89.77,24.05-113.82,61.25h0c1.96-1.96,3.08-3.08,5.03-4.47,59.57-49.5,145.42-38.31,192.13,24.05l31.04-19.86h0c-24.61-36.08-66.84-60.97-114.38-60.97"/>
  <path class="cls-1" d="M250.14,240.35c-26.01,0-48.94,13.14-62.64,32.16,11.19-8.11,24.05-12.31,37.75-12.31,22.93,0,43.35,11.75,57.05,31.6l29.64-18.46h0c-12.86-20.42-35.8-33-61.81-33"/>
  <path class="cls-1" d="M106.95,186.66c87.25-68.8,210.59-50.06,276.31,41.39l.56.56,32.16-19.86h0c-35.24-53.97-96.48-89.77-165.84-89.77s-130.04,35.24-165.84,89.77c6.43-7.27,14.54-15.94,22.65-22.09"/>
</svg>
