<?xml version="1.0" encoding="UTF-8"?>
<svg id="Black" xmlns="http://www.w3.org/2000/svg" viewBox="0 0 500 500">
  <defs>
    <style>
      .cls-1 {
        fill: #000;
        stroke-width: 0px;
      }
    </style>
  </defs>
  <path class="cls-1" d="M158.47,379.87c2.52,20.11,15.65,38.31,33.01,48.32,35.18,20.28,99.67,20.47,130.67-7.89,37.45-34.26,31.74-93.19,31.92-139.23-2.33-.5-1.6.29-2.23,1.28-10.88,17.09-15.86,28.03-32.79,41.03-45.51,34.93-122.73,26.55-164.58-10.86-58.07-51.9-59.68-169.52-16.17-230.77,47.96-67.52,157.36-78.55,206.44-6.39,2.68,3.94,4.61,8.89,7.11,12.81.64,1-.11,1.77,2.24,1.29v-53.89h37.92v310.87c-4.24,57.88-29.61,106.8-89,121.59-70.74,17.62-174.84-1.05-183.46-88.15h38.92ZM240.11,57.81c-120.54,9.67-128.57,236.59-6.01,254.92,156.49,23.4,162.78-267.49,6.01-254.92Z"/>
</svg>
