<?xml version="1.0" encoding="UTF-8"?>
<svg id="Black" xmlns="http://www.w3.org/2000/svg" viewBox="0 0 500 500">
  <defs>
    <style>
      .cls-1 {
        fill: #000;
        stroke-width: 0px;
      }
    </style>
  </defs>
  <path class="cls-1" d="M444.12,111.06H55.88c-13.2,0-23.9,10.7-23.9,23.9v230.07c0,13.2,10.7,23.9,23.9,23.9h388.24c13.2,0,23.9-10.7,23.9-23.9v-230.07c0-13.2-10.7-23.9-23.9-23.9ZM62.45,125.81h375.11c.89,0,1.76.09,2.6.25l-185.69,178.4c-2.5,2.41-6.43,2.41-8.94,0L59.84,126.06c.85-.16,1.71-.25,2.6-.25ZM48.36,361.5c-.05-.48-.08-.97-.08-1.47v-220.06c0-.46.03-.92.07-1.37l116.77,112.18-116.76,110.72ZM437.55,374.19H62.45c-.86,0-1.7-.09-2.51-.24l117.46-111.38,56.36,54.14c4.4,4.23,10.17,6.56,16.25,6.56s11.84-2.33,16.25-6.56l56.34-54.13,117.48,111.37c-.82.15-1.65.24-2.51.24ZM451.71,360.03c0,.5-.03.99-.08,1.47l-116.78-110.71,116.78-112.2c.04.45.07.91.07,1.37v220.06Z"/>
</svg>
