<?xml version="1.0" encoding="UTF-8"?>
<svg id="Black" xmlns="http://www.w3.org/2000/svg" version="1.1" viewBox="0 0 500 500">
  <defs>
    <style>
      .cls-1 {
        fill: #000;
        stroke-width: 0px;
      }
    </style>
  </defs>
  <path class="cls-1" d="M250.05,143.98c-58.68,0-106.02,47.33-106.02,106.02s47.33,106.02,106.02,106.02,106.02-47.33,106.02-106.02-47.33-106.02-106.02-106.02ZM250.05,318.93c-37.92,0-68.93-30.91-68.93-68.93s30.91-68.93,68.93-68.93,68.93,30.91,68.93,68.93-31,68.93-68.93,68.93h0ZM385.13,139.65c0,13.75-11.07,24.73-24.73,24.73s-24.73-11.07-24.73-24.73,11.07-24.73,24.73-24.73,24.73,11.07,24.73,24.73ZM455.35,164.74c-1.57-33.12-9.13-62.47-33.4-86.64-24.17-24.17-53.52-31.74-86.64-33.4-34.14-1.94-136.47-1.94-170.61,0-33.03,1.57-62.37,9.13-86.64,33.31-24.27,24.17-31.74,53.52-33.4,86.64-1.94,34.14-1.94,136.47,0,170.61,1.57,33.12,9.13,62.47,33.4,86.64,24.27,24.17,53.52,31.74,86.64,33.4,34.14,1.94,136.47,1.94,170.61,0,33.12-1.57,62.47-9.13,86.64-33.4,24.17-24.17,31.74-53.52,33.4-86.64,1.94-34.14,1.94-136.37,0-170.51h0ZM411.24,371.89c-7.2,18.08-21.13,32.02-39.31,39.31-27.22,10.8-91.81,8.3-121.89,8.3s-94.76,2.4-121.89-8.3c-18.08-7.2-32.02-21.13-39.31-39.31-10.8-27.22-8.3-91.81-8.3-121.89s-2.4-94.76,8.3-121.89c7.2-18.08,21.13-32.02,39.31-39.31,27.22-10.8,91.81-8.3,121.89-8.3s94.76-2.4,121.89,8.3c18.08,7.2,32.02,21.13,39.31,39.31,10.8,27.22,8.3,91.81,8.3,121.89s2.49,94.76-8.3,121.89Z"/>
</svg>