<?xml version="1.0" encoding="UTF-8"?>
<svg id="Black" xmlns="http://www.w3.org/2000/svg" version="1.1" viewBox="0 0 500 500">
  <defs>
    <style>
      .cls-1 {
        fill: #000;
        stroke-width: 0px;
      }
    </style>
  </defs>
  <path class="cls-1" d="M430.94,212.81c-35.57.09-70.27-11.01-99.2-31.71v144.41c-.03,72.54-58.85,131.32-131.39,131.29-72.54-.03-131.32-58.85-131.29-131.39.03-72.54,58.85-131.32,131.39-131.29,6.02,0,12.03.42,17.99,1.24v72.63c-31.77-9.99-65.62,7.66-75.61,39.42-9.99,31.77,7.66,65.62,39.42,75.61,31.77,9.99,65.62-7.66,75.61-39.42,1.84-5.85,2.78-11.96,2.78-18.09V43.2h71.11c-.05,6,.45,12,1.5,17.91h0c4.99,26.68,20.75,50.12,43.56,64.82,16.06,10.62,34.89,16.28,54.14,16.27v70.6Z"/>
</svg>