<?xml version="1.0" encoding="UTF-8"?>
<svg id="Black" xmlns="http://www.w3.org/2000/svg" viewBox="0 0 500 500">
  <defs>
    <style>
      .cls-1 {
        fill: #000;
        stroke-width: 0px;
      }
    </style>
  </defs>
  <g id="phone">
    <path class="cls-1" d="M354.14,37.75h-208.28c-20.67,0-37.42,16.75-37.42,37.42v349.66c0,20.67,16.75,37.42,37.42,37.42h208.28c20.67,0,37.42-16.75,37.42-37.42V75.17c0-20.67-16.75-37.42-37.42-37.42ZM376.52,415.48c0,18.05-14.63,32.68-32.68,32.68h-187.68c-18.05,0-32.68-14.63-32.68-32.68V84.71c0-18.05,14.63-32.68,32.68-32.68h187.68c18.05,0,32.68,14.63,32.68,32.68v330.77Z"/>
    <circle class="cls-1" cx="250" cy="85.07" r="15.08" transform="translate(13.07 201.69) rotate(-45)"/>
    <rect class="cls-1" x="302.05" y="407.12" width="22.63" height="22.63"/>
    <circle class="cls-1" cx="250" cy="418.44" r="11.31"/>
    <polygon class="cls-1" points="197.95 429.75 197.95 407.12 175.33 418.44 197.95 429.75"/>
    <path class="cls-1" d="M292.09,285.85c-8.35,1.98-26.54,18.73-26.54,18.73-28.36-18.7-56.11-79.33-56.11-79.33,0,0,22.5-14.18,26.51-16.65,4.01-2.47,7.71-15.72-7.4-38.23s-26.51-14.18-26.51-14.18c-30.52,13.87-37.61,63.82-30.21,77.69,7.4,13.87,56.11,102.97,80.15,108.52,24.05,5.55,45.63,1.85,53.64,0,8.02-1.85,33.06-13.66,22.81-29.6-11.1-17.26-26.93-29.18-36.35-26.95Z"/>
  </g>
</svg>
