<?xml version="1.0" encoding="UTF-8"?>
<svg id="Black" xmlns="http://www.w3.org/2000/svg" version="1.1" viewBox="0 0 500 500">
  <defs>
    <style>
      .cls-1 {
        fill: #000;
      }

      .cls-1, .cls-2, .cls-3, .cls-4 {
        stroke-width: 0px;
      }

      .cls-2 {
        fill: #eff4f6;
      }

      .cls-3 {
        fill: #dbdbdb;
      }

      .cls-4 {
        fill: #e2e2e2;
      }
    </style>
  </defs>
  <circle class="cls-1" cx="250" cy="250" r="206.68"/>
  <g>
    <path class="cls-4" d="M206.14,309.45c-.49-2.7-1.45-5.27-2.24-7.89-3.23-10.75-6.53-21.47-9.79-32.21-.26-.85-.51-1.66-1.34-2.13,9.9-5.65,19.34-12.03,29.01-18.06,15.71-9.8,31.32-19.75,46.99-29.61,13.97-8.79,27.9-17.64,41.89-26.39,1.77-1.11,3.61-2.08,5.71-2.42,1.32-.21,2.64-.13,3.4,1.14.8,1.36.02,2.44-.96,3.37-3.45,3.28-7.01,6.44-10.55,9.61-3.25,2.9-6.51,5.79-9.73,8.72-6.74,6.13-13.56,12.18-20.3,18.32-6.14,5.6-12.29,11.2-18.48,16.74-6.5,5.81-12.86,11.76-19.45,17.46-.12.12-.25.24-.38.35-.12.11-.24.22-.37.32-.06.05-.12.1-.18.15-.11.11-.22.21-.34.31-.05.05-.11.1-.16.15-.1.11-.21.21-.32.31-.05.05-.11.1-.16.15-.1.1-.21.2-.33.29-.11.09-.23.17-.36.24-.18.12-.35.23-.52.36-.1.09-.21.18-.32.26-.1.09-.2.18-.3.27,0,0-.15.13-.15.14-.09.1-.19.19-.28.28,0,0-.14.13-.14.14-.09.1-.18.19-.28.27,0,0-.14.13-.14.14-.09.1-.18.19-.28.28,0,0-.14.14-.14.14-.09.1-.18.19-.28.28-.05.05-.1.1-.14.15-.09.1-.19.2-.29.3-.05.05-.1.1-.15.15-.1.11-.22.2-.33.29-.12.1-.25.18-.38.27-.49.31-.87.73-1.26,1.14-2.47,2.44-5.06,4.74-7.69,7-.87.74-1.38,1.6-1.61,2.68-.34,4.82-.66,9.63-1,14.45-.53,7.49-.93,14.98-1.5,22.47-.32,4.21-.39,8.43-.9,12.63-.15,1.26-.63,2.04-2.06,1.79-.6-.06-1.23.16-1.8-.19-1.87-.72-2.7-2.23-3.25-4.05-1.89-6.34-3.84-12.66-5.77-18.99-.04-.12-.16-.21-.24-.32-.37-.33-.05-.89-.4-1.23h.01Z"/>
    <path class="cls-3" d="M236.35,322.36c-2.6,2.24-5.01,4.67-7.31,7.21,0,0,.02,0,.02,0-.13.15-.25.31-.42.42l.02-.02c-.12.16-.25.3-.42.42l.02-.02c-.11.17-.25.31-.42.42l.02-.02c-.11.17-.25.31-.42.42l.02-.02c-.18.28-.58.18-.77.45h-.02c-.14.13-.28.26-.41.39h0c-.14.13-.27.28-.43.39l.02-.02c-.2.27-.59.19-.79.44h0c-.22.23-.59.15-.79.41h-.01c-.23.22-.59.16-.81.39h0c-.33.36-.89.04-1.23.4h-.2s-.19.03-.19.03c-.77.44-1.69-.11-2.45.36-.63,0-1.27,0-1.9,0-.14-.04-.2-.1-.19-.19.01-.1.04-.15.07-.15,1.09.05,1.61-.24,1.71-1.55.31-4.05.57-8.09.81-12.14.26-4.25.56-8.49.81-12.74.22-3.91.56-7.82.8-11.74.26-4.11.77-8.21.75-12.34,0-.66.19-1.18.82-1.47,1.28-.11,2.09.82,2.96,1.47,7.54,5.69,15.22,11.19,22.78,16.85.14.09.28.2.41.3.13.09.24.2.36.31.05.05.11.11.16.16.1.1.2.2.3.31.05.04.1.1.15.14.16.13.33.23.5.32.12.05.23.13.34.21.11.08.21.17.3.26,0,0,.14.14.15.14.1.09.2.18.3.26,0,0,.16.12.16.12.12.06.23.13.35.2.12.06.23.14.34.22.11.08.21.17.31.27.05.05.1.09.15.14.1.09.21.18.31.27.06.04.11.08.17.12.19.12.38.24.55.39.09.15.12.3.11.47-.05.17-.13.32-.23.46-.81.94-1.72,1.78-2.59,2.66-.12.13-.25.25-.38.38-.12.13-.25.25-.38.38-.06.07-.13.13-.19.19-.12.14-.25.27-.38.39-3.91,3.73-7.46,7.84-11.64,11.28-.67.55-1.39,1.03-2.05,1.59Z"/>
    <g>
      <path class="cls-2" d="M359.14,166.53c-.05-.12-.06-.23-.03-.36-.41-.49.03-1.17-.38-1.66-.06-.09-.08-.19-.05-.3-.16-.29-.12-.65-.36-.91-.07-.08-.09-.17-.06-.27-.15-.3-.1-.69-.41-.92l.03.03c-.09-.18-.25-.3-.36-.45v-.02c-.27-.19-.18-.59-.46-.77l.02.02c-.1-.17-.25-.3-.39-.44h0c-.13-.13-.26-.27-.37-.41l-.02-.02c-.14-.11-.27-.24-.38-.38l-.02-.02c-.15-.11-.28-.24-.4-.38h0c-.14-.13-.26-.27-.41-.38-.14-.19-.3-.33-.54-.39-.1.02-.19-.01-.27-.09-.14-.11-.29-.23-.43-.34l.02.02c-.23-.3-.62-.25-.91-.4-.1.03-.2,0-.28-.06-.36-.34-.9-.04-1.26-.37-.12.03-.24.02-.36-.04-1.07-.29-2.13-.27-3.2-.02-.24.02-.49.04-.73.07-.38.3-.92.03-1.29.36-.09.06-.2.08-.3.05-.28.16-.65.13-.91.37h0c-.21.24-.56.17-.79.36-.1.07-.21.09-.33.08-.27.18-.64.14-.89.37h0c-.31.39-.89.03-1.19.44-.23.2-.58.14-.81.35-.09.07-.19.09-.29.06-.29.16-.66.12-.92.38h0c-.32.36-.9.01-1.2.42-.25.18-.6.14-.82.37h0c-.31.38-.89.03-1.2.43-.36.28-.76-.01-1.13.09-9.56,3.56-19.02,7.37-28.57,10.97-.17.08-.33.16-.5.25-.3.16-.6.28-.92.39-.15.05-.3.11-.44.18-.21.1-.41.19-.62.28-.14.05-.28.11-.41.17-.21.07-.42.14-.63.2-.14.04-.28.09-.42.16-.21.08-.43.15-.64.21-.15.04-.29.09-.43.15-.21.09-.42.19-.63.29-.14.06-.28.12-.42.18-.22.08-.45.14-.67.21-.16.04-.31.1-.46.16-.32.13-.65.25-.97.38-2.38.74-4.62,1.89-7.01,2.6-2.77,1.12-5.53,2.26-8.35,3.26-2,.87-4.07,1.55-6.1,2.36-1.69.83-3.64,1.09-5.1,2.4-.54.26-1.08.55-1.63.76-8.62,3.33-17.23,6.67-25.87,9.95-3.44,1.31-6.8,2.82-10.34,3.85-.23.13-.44.29-.68.39-5.91,2.29-11.81,4.59-17.73,6.84-3.92,1.49-7.77,3.18-11.79,4.42h0c-.31.38-.89.02-1.2.43-.24.19-.59.14-.82.35-.08.07-.17.09-.28.06-.3.15-.67.11-.93.38h.01c-.23.21-.58.14-.82.34-.09.07-.19.1-.31.07-.28.17-.65.13-.9.37h0c-.32.37-.9.02-1.2.43-.24.19-.59.13-.82.36-.08.07-.17.09-.27.06-.3.14-.68.11-.93.38h.01c-.23.21-.59.14-.82.35-.09.07-.19.1-.3.07-.29.16-.66.12-.91.37h0c-.32.37-.9.02-1.2.43-.25.18-.59.14-.82.36h-.01c-.3.4-.9.03-1.19.45-.23.13-.44.29-.69.38-5.93,2.3-11.86,4.6-17.8,6.87-3.5,1.33-6.94,2.83-10.51,3.95-.08.08-.18.1-.29.07-.29.16-.66.12-.91.38-2.9,1.39-5.95,2.39-8.93,3.58-3.54,1.42-7.19,2.59-10.52,4.5-2.55,1.46-4.72,3.29-5.89,6.08-.29,2.75,1.12,4.59,3.28,5.98,1.76,1.14,3.73,1.79,5.72,2.41,13.87,4.33,27.74,8.67,41.61,12.99,2.55.8,5.12,1.54,7.69,2.31.89.03,1.7-.18,2.47-.67,7.23-4.58,14.48-9.13,21.73-13.69,8.71-5.49,17.43-10.98,26.14-16.48,6.56-4.14,13.11-8.3,19.67-12.44,9.84-6.21,19.69-12.41,29.53-18.62,6.33-4,12.64-8.04,18.99-12.01,1.76-1.1,3.63-2.03,5.76-2.19.97-.07,1.96.11,2.44,1.05.49.97.02,1.81-.77,2.48-.2.17-.37.39-.57.57-3.76,3.31-7.39,6.77-11.19,10.05-3.44,2.97-6.73,6.12-10.07,9.21-1.77,1.63-3.58,3.22-5.35,4.86-3.18,2.96-6.52,5.73-9.75,8.64-3.53,3.18-6.92,6.51-10.52,9.61-1.63,1.4-3.12,2.93-4.72,4.35-3.25,2.88-6.59,5.67-9.74,8.64-2,1.88-4.04,3.73-6.11,5.52-1.97,1.7-3.83,3.53-5.78,5.26-1.84,1.62-3.94,3.02-5.41,5.05,0,0,0,0,0,0-.12.15-.27.27-.4.4h0c-.13.14-.26.28-.41.4h0c-.13.14-.26.28-.41.4h0c-.12.14-.26.28-.41.4h0c-.36.32-.82.51-1.2.81h0c-.13.13-.27.27-.4.4h0c-.13.14-.27.27-.4.4-.13.14-.26.27-.4.4h0c-.13.14-.26.27-.41.4h0c-.13.14-.26.28-.41.4h0c-.13.14-.26.28-.41.4h0c-.12.14-.26.28-.41.4h0c-.42.55-1.02.87-1.6,1.22-1.16.69-1.87,1.88-2.95,2.65-2.18,1.53-3.74,3.76-5.95,5.25-.48.32-.75.76-.35,1.34.99.68,2,1.32,2.96,2.03,7.12,5.26,14.22,10.53,21.34,15.78.58.42,1,1.11,1.82,1.15,0,0,.01,0,.02,0,.17.1.28.25.41.39.14.12.27.26.41.38h0c.21.25.59.17.78.44h-.01c.16.1.29.24.42.38.14.13.27.25.41.38h.01c.2.26.59.17.78.44h-.01c.16.1.29.24.42.39h0c.13.13.27.25.41.37h.02c.2.26.58.18.78.44h-.01c.11.08.18.19.2.33.06.13.15.22.27.29.17.1.35.18.51.29,0,0,.15.12.15.12.09.09.19.18.28.26,0,0,.14.14.14.14.1.09.19.18.3.26.11.08.22.16.34.22.12.07.24.14.36.21.06.04.11.08.17.12.1.09.2.19.31.28.05.05.1.1.15.15.1.1.21.2.32.3.11.1.22.2.33.3.17.17.32.36.48.54,1.77,1.79,4,2.98,5.96,4.53.07.05.14.1.21.15.13.1.26.2.39.3.12.1.25.18.38.26.19.1.38.19.56.3,0,0,.16.12.16.12.1.09.2.18.3.27,0,0,.14.14.14.14.09.1.19.19.3.26.11.08.22.16.34.22.12.07.23.13.35.2,0,0,.16.12.16.12.1.09.2.18.3.27.05.05.1.09.15.14.1.09.2.19.31.27.11.08.22.16.34.22.12.07.23.13.35.2,0,0,.16.12.16.12.1.09.2.18.3.26,0,0,.14.14.14.14.09.09.19.18.3.26.1.09.21.16.34.21.18.09.35.19.5.31.05.04.1.09.15.13.1.09.2.18.31.27.11.09.23.17.35.24.18.12.36.24.53.37.06.04.11.09.17.14.11.09.22.19.33.27.11.09.23.17.35.23.18.09.36.18.52.28,0,0,.15.12.15.12.09.09.19.18.28.26,0,0,.14.14.14.13.09.09.19.18.29.26.1.08.21.16.33.21.18.09.35.19.5.31.05.04.1.09.15.14.1.1.2.21.3.3.06.05.11.1.17.15.12.1.26.18.4.25.16.05.33.07.5.06.04,0,.08-.02.12-.03,0,.02-.02.03-.02.05.02.07.03.14.05.21.07.12.15.24.25.35.05.05.1.1.15.15.1.1.2.19.31.28.11.08.22.16.35.22.12.07.24.14.36.2,0,0,.16.12.16.12.1.09.2.18.3.26,0,0,.14.14.15.14.09.1.19.19.3.26.1.09.21.16.34.21.18.09.35.19.5.31.05.04.1.09.15.13.1.09.2.18.31.27.11.09.23.17.35.24.18.12.36.24.53.37.06.04.11.09.17.14.11.09.22.19.33.27.11.09.23.17.35.23.18.09.36.18.53.29,0,0,.15.12.15.12.09.09.19.18.28.26,0,0,.14.14.14.14.09.09.19.18.3.26.1.08.22.16.34.22.12.07.23.13.35.2,0,0,.16.12.16.12.1.09.2.18.3.27.05.05.1.09.15.14.1.09.2.19.31.27.11.08.22.16.34.22.12.07.23.13.35.2,0,0,.16.12.16.12.1.09.2.18.3.27.05.05.1.09.15.14.1.09.2.19.31.27.11.08.22.16.34.22.12.07.23.13.35.2,0,0,.16.12.16.12.1.09.2.18.3.27.05.05.1.09.15.14.1.09.2.19.31.27.11.08.22.16.35.22.12.07.24.14.36.2.06.04.11.08.17.12.11.09.21.18.32.26.11.08.22.16.35.22.12.07.24.14.36.2.06.04.11.08.16.12.1.09.2.18.3.27.05.05.1.09.15.14.1.09.2.19.31.27.11.08.22.16.34.22.12.07.23.13.35.2,0,0,.16.12.16.12.1.09.2.18.3.27.05.05.1.09.15.14.1.09.2.19.31.27.11.08.22.16.34.22.12.07.23.13.35.2,0,0,.16.12.16.12.1.09.2.18.3.27.05.05.1.09.15.14.1.09.2.19.31.27.11.08.22.16.34.22.12.07.23.13.35.2,0,0,.16.12.16.12.1.09.2.18.3.26,0,0,.14.14.14.14.09.1.19.18.3.26.1.09.21.16.34.21.18.09.35.19.5.31.05.04.1.09.15.13.1.09.2.18.32.27.11.09.23.17.35.24.18.12.36.24.53.37.06.04.11.09.17.14.11.09.22.19.34.27.11.09.23.17.35.23.18.09.36.18.53.29,0,0,.15.13.15.12.09.09.19.18.29.27.05.04.1.09.14.14.1.09.2.19.31.27.11.08.23.16.35.23.19.12.36.25.52.4.06.05.11.11.16.17.11.12.23.24.35.35.06.06.13.12.19.18.14.12.28.24.44.34,2.71,2.28,5.77,3.81,9.27,4.51,6.49,1.31,11.87-3.28,12.61-11.11.03-.4.02-.8.1-1.19.83-3.9,1.65-7.81,2.51-11.7.89-4.02,1.57-8.09,2.67-12.07.2-1.1.4-2.21.6-3.31.55-3.06,1.46-6.06,1.8-9.16.3-.3.29-.71.39-1.09.45-1.78.58-3.64,1.24-5.37.28-.39.06-.91.33-1.31-.05-.1-.03-.2.04-.29.42-.5,0-1.19.38-1.69-.04-.12-.03-.22.04-.32.4-.49-.03-1.17.37-1.66-.04-.13-.02-.25.05-.36.29-.4.08-.92.33-1.33.03-.23.06-.46.09-.69.27-.39.05-.9.32-1.29-.04-.11-.03-.21.04-.31-.04-1.78.85-3.41.82-5.18.38-.5-.06-1.18.37-1.66.07-.1.08-.21.04-.32.37-.51-.07-1.2.38-1.69.07-.09.08-.19.04-.29.26-.4.02-.92.33-1.31.07-.12.08-.24.05-.38.39-.49-.04-1.16.37-1.64.07-.11.08-.22.04-.34.38-.5-.07-1.19.38-1.68.07-.1.08-.2.04-.31.27-.39.02-.91.33-1.29.07-.12.08-.25.05-.39.4-.48-.04-1.15.37-1.63.07-.11.08-.23.05-.36.39-.49-.06-1.18.37-1.66.06-.1.08-.22.06-.34,0,0,0,0,0,0,.24-.26.28-.58.35-.91.4-1.74.6-3.52,1.22-5.2.33-3.13,1.25-6.15,1.83-9.23.58-3.08,1.45-6.11,1.81-9.24.39-.5-.06-1.18.38-1.66.06-.1.07-.21.04-.32.37-.51-.08-1.21.38-1.7.06-.09.07-.18.03-.29.26-.4.01-.93.33-1.31.06-.12.08-.24.04-.37.39-.49-.05-1.16.37-1.65.06-.11.08-.22.04-.34.38-.5-.07-1.19.38-1.68.06-.1.07-.2.04-.31.27-.39.02-.91.33-1.29l.08-.7c.25-.41,0-.94.33-1.32.06-.11.08-.23.04-.36.39-.49-.05-1.17.37-1.66.06-.1.07-.21.05-.33h0c.59-.73.24-1.76.8-2.49-.12-.83.23-1.59.4-2.36.64-2.86,1-5.79,1.95-8.58.15-.09.26-.22.33-.38.15-.48.17-.99.35-1.46.05-.16.09-.32.12-.48.06-.41.15-.81.22-1.21,0-.17-.06-.31-.2-.42.21-1.93.55-3.83,1.2-5.66.14-.1.25-.22.32-.38.13-.4.21-.81.36-1.2.05-.16.09-.32.12-.49.05-.5.12-1,.21-1.49.01-.18-.05-.33-.17-.45-.03-1.5.52-2.89.81-4.32,1.3-6.35,2.67-12.68,4.02-19.03.28-1.48.29-2.95,0-4.43Z"/>
      <polygon class="cls-2" points="249.6 301.42 249.6 301.42 249.59 301.42 249.6 301.42"/>
    </g>
  </g>
</svg>