<?xml version="1.0" encoding="UTF-8"?>
<svg id="Black" xmlns="http://www.w3.org/2000/svg" viewBox="0 0 500 500">
  <defs>
    <style>
      .cls-1 {
        fill: #000;
        stroke-width: 0px;
      }
    </style>
  </defs>
  <path class="cls-1" d="M355.9,208.88c0-15.25-9.19-23.57-30.66-23.57h-20.67v47.99h25.81c11.13-.02,25.52-9.17,25.52-24.42Z"/>
  <path class="cls-1" d="M186.7,208.88c0-15.25-9.19-23.57-30.66-23.57h-20.67v47.99h25.81c11.13-.02,25.52-9.17,25.52-24.42Z"/>
  <path class="cls-1" d="M159.12,261.64h-23.72v53.46h29.59c12.75,0,29.26-8.58,29.26-27.17.02-15.74-10.53-26.29-35.14-26.29Z"/>
  <path class="cls-1" d="M43.2,43.21v413.59h413.59V43.2s-413.59,0-413.59,0ZM180.97,343.63c-10.66.04-81.81.37-81.81.37l-.18-188h60.55c38.03,0,64.26,15.28,64.26,43.25,0,23.27-18.16,38.61-36.79,43.18,27.17,5.79,44.72,22.23,44.83,48.21.15,32.98-27.69,52.87-50.85,52.98ZM350.17,343.63c-10.66.04-81.81.37-81.81.37l-.18-188h60.55c38.03,0,64.26,15.28,64.26,43.25,0,23.27-18.16,38.61-36.79,43.18,27.17,5.79,44.72,22.23,44.83,48.21.15,32.98-27.69,52.87-50.86,52.98Z"/>
  <path class="cls-1" d="M328.32,261.64h-23.72v53.46h29.6c12.75,0,29.26-8.58,29.26-27.17.02-15.74-10.53-26.29-35.14-26.29Z"/>
</svg>
