<?xml version="1.0" encoding="UTF-8"?>
<svg id="Black" xmlns="http://www.w3.org/2000/svg" viewBox="0 0 500 500">
  <path d="M461.83,172.02c0-98.53-64.56-127.42-64.56-127.42-32.55-14.95-88.44-21.24-146.51-21.71h-1.43c-58.07.47-113.93,6.76-146.48,21.71,0,0-64.56,28.88-64.56,127.42,0,22.56-.44,49.54.27,78.15,2.34,96.36,17.67,191.33,106.76,214.91,41.08,10.87,76.35,13.15,104.75,11.59,51.51-2.86,80.43-18.38,80.43-18.38l-1.7-37.37s-36.81,11.61-78.15,10.19c-40.96-1.4-84.2-4.42-90.82-54.71-.61-4.42-.92-9.14-.92-14.1,0,0,40.21,9.83,91.16,12.16,31.16,1.43,60.38-1.83,90.05-5.37,56.91-6.8,106.47-41.86,112.69-73.9,9.81-50.47,9-123.17,9-123.17ZM385.68,179.66v119.31h-47.27v-115.8c0-24.41-10.27-36.8-30.82-36.8-22.72,0-34.1,14.7-34.1,43.76v63.39h-46.99v-63.39c0-29.06-11.39-43.76-34.1-43.76-20.54,0-30.82,12.39-30.82,36.8v115.8h-47.27v-119.31c0-24.38,6.21-43.76,18.68-58.1,12.86-14.34,29.7-21.69,50.61-21.69,24.19,0,42.51,9.3,54.62,27.89l11.77,19.74,11.78-19.74c12.11-18.6,30.43-27.89,54.62-27.89,20.9,0,37.75,7.35,50.61,21.69,12.47,14.34,18.68,33.71,18.68,58.1h0Z"/>
</svg>