<?xml version="1.0" encoding="UTF-8"?>
<svg id="Black" xmlns="http://www.w3.org/2000/svg" viewBox="0 0 500 500">
  <defs>
    <style>
      .cls-1 {
        fill: #000;
        stroke-width: 0px;
      }
    </style>
  </defs>
  <path class="cls-1" d="M182.21,38.16h135.58c46.96,0,61.93,0,83.11,7.06,24.72,8.83,45.05,29.13,53.88,53.84,7.06,21.18,7.06,36.19,7.06,83.15v135.58c0,46.96,0,61.96-7.06,83.15-8.97,25.11-28.73,44.87-53.84,53.84-21.18,7.06-36.19,7.06-83.15,7.06h-135.58c-46.96,0-61.96,0-83.15-7.06-25.11-8.98-44.86-28.74-53.84-53.84-7.06-21.18-7.06-36.19-7.06-83.15v-135.58c0-46.96,0-61.96,7.06-83.15,8.97-25.11,28.73-44.87,53.84-53.84,21.18-7.06,36.19-7.06,83.15-7.06ZM232.24,156.12v-5.24l-.41-5.67c0-1.62-.53-4.06-1.61-7.27-.99-2.73-1.54-5.59-1.62-8.49,0-1.62.67-2.97,2.03-4.06,1.44-1.1,2.86-2.24,4.24-3.42,1.77-1.48,4.24-2.22,7.49-2.22,1.89,0,4.98.26,9.3.81,3.78,0,6.6-.81,8.49-2.44.81-.53,2.29-1.61,4.45-3.23s3.23-3.51,3.23-5.65c0-3.53-1.94-6.36-5.86-8.51-3.9-2.15-8.83-3.23-14.76-3.23l-16.59,1.22c-3.76,0-10.91.88-21.43,2.63-10.5,1.75-18.73,2.63-24.66,2.63-4.15-.18-8.28-.65-12.36-1.41-4.61-.83-9.27-1.3-13.95-1.41-2.97,1.06-6,2.08-9.09,3.02-3.11.94-4.64,2.37-4.64,4.24l.79,3.65c1.62,3.5,4.06,6.18,7.29,8.09l3.23,1.61c1.62.53,2.97.81,4.06.81,1.32,0,3.35-.12,6.06-.41,2.15,0,4.18.53,6.06,1.62l4.45,4.04c2.17,2.42,3.71,4.78,4.66,7.06.94,2.29,1.41,4.4,1.41,6.28,0,1.34-.26,3.64-.81,6.88-.47,2.53-.74,5.09-.81,7.66,0,2.44.62,5.93,1.84,10.52,1.2,4.59,1.82,8.35,1.82,11.32-.28,4.59-.41,9.18-.41,13.77v13.73c0,3.5.26,8.09.81,13.75.53,5.65.79,10.1.79,13.33l-.79,16.98-.41,27.1-1.24,22.24c0,2.97.55,6.88,1.64,11.72,1.06,4.85,1.61,8.76,1.61,11.72s-.41,6.74-1.22,11.33c-.79,4.59-1.2,8.21-1.2,10.91,0,1.34.12,3.11.41,5.26.28,1.61.28,3.25,0,4.85-.32,1.72-1.09,3.32-2.22,4.64-1.28,1.56-2.56,3.11-3.85,4.66-2.42,2.97-5.12,5.24-8.09,6.87-2.97,1.62-7.15,2.56-12.53,2.82-5.4.28-9.3,1.41-11.74,3.44-2.42,2.03-3.64,3.57-3.64,4.64,0,7.01,6.48,10.52,19.42,10.52l2.82-.41c7.73-.95,15.49-1.76,23.25-2.42,3.92-.28,8.44-.41,13.56-.41h4.85c4.85.26,9.71.41,14.56.41h38.84c3.76-.28,7.33-.62,10.7-1.02,3.02-.38,6.06-.58,9.11-.6,3.5,0,8.35.88,14.56,2.63,6.18,1.77,11.46,2.35,15.76,1.82.26,0,1.82-.41,4.66-1.22,2.7-.79,5.49-1.19,8.3-1.2.25,0,2.08.19,5.44.6,3.37.41,6.14.6,8.3.6,1.08,0,2.97-.26,5.65-.81,6.76-1.34,11.47-3.9,14.18-7.68,1.71-2.21,2.7-4.89,2.82-7.68-.56-2.53-.96-5.1-1.22-7.68-.27-2.96-.27-5.94,0-8.9,1.36-2.7,2.82-5.38,4.45-8.09,1.36-3.51,2.29-8.3,2.82-14.35.55-6.07,1.02-10.12,1.43-12.13.83-3.21,1.98-6.33,3.44-9.3,1.89-4.18,2.82-7.77,2.82-10.72.07-2.96-.62-5.88-2.01-8.49-1.36-2.44-3.11-3.64-5.26-3.64-1.36,0-3.51,1.2-6.48,3.64-1.34,1.06-2.49,3.09-3.44,6.06-.61,2.07-1.35,4.1-2.22,6.07-3.23,4.85-6.46,9.57-9.71,14.16-1.51,2.47-2.86,5.03-4.04,7.68-2.68,5.65-4.84,9.57-6.46,11.72-.53.81-2.7,2.82-6.48,6.07-1.47,1.22-2.76,2.65-3.83,4.24-1.24,1.77-2.91,4.52-5.07,8.3l-6.88,3.64-4.84,1.22c-2.22.45-4.39,1.12-6.48,2.01-2.68,1.08-4.71,1.77-6.06,2.03-1.74.3-3.5.43-5.26.39-2.44,0-6.07-.39-10.93-1.2-3.87-.71-7.79-1.12-11.72-1.22l-8.49.41c-9.71,0-16.86-5.26-21.45-15.76-2.97-6.74-5.24-17.27-6.88-31.55-.3-2.14-.43-4.3-.39-6.46,0-2.17.14-5.81.41-10.93,0-1.34.34-4.18,1.01-8.47.59-3.48.93-6.99,1.01-10.52v-28.32c0-2.42.14-5.53.41-9.3.28-3.76.41-6.46.41-8.09.03-2.03-.11-4.05-.41-6.06,0-1.62-.53-3.92-1.61-6.88-.91-2.19-1.46-4.51-1.62-6.87,0-1.34.26-3.23.81-5.65.53-2.44.81-4.33.81-5.67,0-2.97-.14-7.01-.41-12.15-.24-4.04-.37-8.08-.41-12.13,0-3.5.53-7.8,1.62-12.94.95-4.11,1.49-8.31,1.61-12.53Z"/>
</svg>
