<?xml version="1.0" encoding="UTF-8"?>
<svg id="Black" xmlns="http://www.w3.org/2000/svg" version="1.1" viewBox="0 0 500 500">
  <defs>
    <style>
      .cls-1 {
        fill: #000;
        stroke-width: 0px;
      }
    </style>
  </defs>
  <path class="cls-1" d="M442.67,167.04c0,4.7.58,9.48-.13,14.07-1.15,7.45-2.78,14.87-4.87,22.12-3.38,11.73-8.61,22.7-15.44,32.83-9.23,13.68-20.83,24.99-34.65,34.05-9.69,6.35-19.93,11.57-30.93,15.26-4.2,1.41-8.28,3.19-12.53,4.43-2.87.84-5.96.88-8.89,1.53-3.14.7-6.25,1.6-9.32,2.58-6.89,2.19-13.83,4.25-20.59,6.78-20.23,7.59-36.8,20.04-49.02,37.98-7.35,10.79-12.88,22.56-18.29,34.39-5.4,11.82-10.81,23.64-16.52,35.32-6.19,12.65-13.72,24.47-23.74,34.46-7.58,7.56-16.52,12.97-26.85,16.26-5.17,1.64-10.46,1.71-15.67,2.57-2.89.47-5.97-.19-8.95-.4-.99-.07-1.97-.44-2.96-.48-1.82-.07-3.83.51-5.43-.07-10.82-3.94-21.42-8.21-30.1-16.31-12.41-11.58-20.87-25.69-27.29-41.12-6.33-15.21-11.03-30.93-13.84-47.19-1.68-9.7-3.08-19.46-5.09-29.09-.64-3.08-.73-6.08-.9-9.14-.06-1,.17-2.13-.22-2.98-2.12-4.6-1.01-9.5-1.49-14.24-.3-2.96-.87-5.9-1.27-8.85-.15-1.13-.24-2.27-.25-3.41-.12-14.85-.3-29.7-.31-44.55,0-6.72.54-13.45.43-20.16-.07-4.15.52-8.13,1.22-12.18.76-4.41.89-8.91,1.53-13.37,1.15-8.01,2.93-15.84,4.73-23.68,4.02-17.5,10.26-34.18,19.02-49.88,13.4-24.01,31.74-43.27,55.79-56.7,8.93-4.99,18.4-9.11,27.89-12.97,10.86-4.42,22.27-7.22,33.74-9.65,3.85-.82,7.63-2,11.45-2.95.66-.17,1.42.07,2.11-.04,2.62-.45,5.22-1.1,7.86-1.43,2.36-.3,4.78-.14,7.14-.45,1.78-.24,3.48-1.04,5.25-1.36,1.53-.27,3.13-.26,4.69-.27,3.83-.02,7.67.26,11.47-.03,9.3-.71,18.57-.76,27.87.04,3.8.32,7.67-.07,11.49.05,1.95.06,3.88.5,5.82.83.98.16,1.92.55,2.9.66,5.58.65,11.19,1.11,16.76,1.91,3.35.48,6.62,1.46,9.92,2.24.55.13,1.08.66,1.58.61,4.01-.36,7.4,1.78,11.09,2.68,3.73.91,7.33,2.45,11.09,3.09,5.32.9,10.24,3.15,14.91,5.33,11.34,5.3,22.23,11.52,31.98,19.6,12.34,10.23,23.06,21.81,31.09,35.72,9.91,17.17,15.4,35.59,14.73,55.58Z"/>
</svg>