<?xml version="1.0" encoding="UTF-8"?>
<svg id="Black" xmlns="http://www.w3.org/2000/svg" version="1.1" viewBox="0 0 500 500">
  <defs>
    <style>
      .cls-1 {
        fill: #000;
        stroke-width: 0px;
      }
    </style>
  </defs>
  <path class="cls-1" d="M54.57,284.36c-1.65-30.59.66-61.21,4.43-91.62,5.18-42.56,11.53-92.56,42.36-124.65,24.35-23.58,61.38-30.26,93.57-20.19,58.93,15.07,113.39,44.1,162.09,80.61,27.1,21.41,70.39,54.34,82.83,86.31,8.55,24.25,8.95,58.93-4.14,81.85-23.47,37.36-59.97,63.79-95.42,88.98-35.75,25.26-75.22,44.71-116.91,57.92-33.89,11.45-72.63,21.16-105.92,2.96-24.6-12.19-40.75-36.38-47.34-62.62-9.88-32.26-14.07-65.68-15.54-99.14l-.02-.4ZM166.41,264.92c-.48,31.37,8.11,73.4,49.24,59.05,22.99-9.92,44.34-23.3,65.47-36.83,12.86-8.57,28.69-21.04,27.15-37.73-2.45-19.33-23.76-30.89-38.57-41.08-11.89-7.74-23.96-15.18-36.27-22.26-21.81-13.51-47.5-17.95-58.94,9.82-4.78,11.69-5.56,25.13-6.56,37.59-.77,10.64-1.37,20.99-1.52,31.03v.4Z"/>
</svg>