<?xml version="1.0" encoding="UTF-8"?>
<svg id="Black" xmlns="http://www.w3.org/2000/svg" viewBox="0 0 500 500">
  <defs>
    <style>
      .cls-1 {
        fill: #000;
        stroke-width: 0px;
      }
    </style>
  </defs>
  <path class="cls-1" d="M250,43.32c-114.15,0-206.68,92.53-206.68,206.68s92.53,206.68,206.68,206.68,206.68-92.53,206.68-206.68S364.15,43.32,250,43.32ZM359.14,170.96c-1.35,6.34-2.72,12.68-4.02,19.03-.29,1.43-.85,2.83-.81,4.32.13.12.19.27.17.45-.09.49-.16.99-.21,1.49-.02.17-.07.33-.12.49-.15.39-.23.8-.36,1.2-.07.16-.18.28-.32.38-.66,1.83-1,3.73-1.2,5.66.14.11.2.25.2.42-.07.4-.16.8-.22,1.21-.03.16-.07.32-.12.48-.18.47-.2.98-.35,1.46-.07.16-.18.29-.33.38-.95,2.79-1.31,5.72-1.95,8.58-.17.77-.53,1.53-.4,2.36-.56.74-.21,1.77-.8,2.49h0c.03.11.01.22-.05.33-.43.48.01,1.16-.37,1.66.03.13.02.25-.04.36-.33.39-.08.92-.33,1.32l-.08.7c-.31.38-.06.9-.33,1.29.04.11.03.21-.04.31-.44.49,0,1.18-.38,1.68.04.12.02.23-.04.34-.42.48.02,1.16-.37,1.65.03.13.02.25-.04.37-.32.38-.07.91-.33,1.31.04.1.03.2-.03.29-.46.49-.01,1.19-.38,1.7.04.11.02.22-.04.32-.43.48,0,1.17-.38,1.66-.37,3.13-1.24,6.15-1.81,9.24-.58,3.08-1.49,6.1-1.83,9.23-.62,1.68-.82,3.46-1.22,5.2-.07.32-.11.65-.35.91,0,0,0,0,0,0,.03.12,0,.23-.06.34-.43.48.01,1.17-.37,1.66.04.13.02.25-.05.36-.4.48.03,1.15-.37,1.63.03.14.02.26-.05.39-.31.38-.06.9-.33,1.29.04.11.03.21-.04.31-.44.49,0,1.18-.38,1.68.04.12.02.23-.04.34-.41.48.02,1.16-.37,1.64.03.13.02.26-.05.38-.31.38-.07.91-.33,1.31.04.1.03.2-.04.29-.45.49-.01,1.18-.38,1.69.04.11.03.22-.04.32-.43.49.01,1.17-.37,1.66.03,1.77-.86,3.4-.82,5.18-.07.09-.08.2-.04.31-.28.39-.05.9-.32,1.29-.03.23-.06.46-.09.69-.25.41-.04.93-.33,1.33-.07.11-.08.23-.05.36-.4.49.03,1.17-.37,1.66-.07.1-.08.21-.04.32-.38.51.04,1.2-.38,1.69-.07.09-.08.18-.04.29-.26.4-.05.92-.33,1.31-.66,1.73-.79,3.59-1.24,5.37-.1.38-.08.79-.39,1.09-.34,3.1-1.25,6.1-1.8,9.16-.2,1.1-.4,2.21-.6,3.31-1.1,3.98-1.77,8.05-2.67,12.07-.86,3.89-1.69,7.8-2.51,11.7-.08.39-.07.79-.1,1.19-.74,7.83-6.12,12.42-12.61,11.11-3.5-.71-6.56-2.24-9.27-4.51-.15-.1-.3-.22-.44-.34-.06-.06-.13-.12-.19-.18-.12-.11-.24-.23-.35-.35-.05-.05-.11-.11-.16-.17-.16-.15-.34-.28-.52-.4-.12-.07-.24-.15-.35-.23-.11-.08-.21-.17-.31-.27-.05-.04-.09-.09-.14-.14-.1-.09-.19-.18-.29-.27,0,0-.15-.13-.15-.12-.17-.11-.35-.2-.53-.29-.13-.07-.24-.15-.35-.23-.12-.09-.23-.18-.34-.27-.06-.04-.11-.09-.17-.14-.17-.13-.35-.25-.53-.37-.12-.07-.24-.15-.35-.24-.11-.08-.21-.17-.32-.27-.05-.04-.1-.09-.15-.13-.16-.12-.33-.22-.5-.31-.12-.05-.23-.13-.34-.21-.11-.08-.21-.17-.3-.26,0,0-.14-.14-.14-.14-.1-.09-.2-.18-.3-.26,0,0-.16-.12-.16-.12-.12-.06-.23-.13-.35-.2-.12-.06-.23-.14-.34-.22-.11-.08-.21-.17-.31-.27-.05-.05-.1-.09-.15-.14-.1-.09-.2-.18-.3-.27,0,0-.16-.12-.16-.12-.12-.06-.23-.13-.35-.2-.12-.06-.23-.14-.34-.22-.11-.08-.21-.17-.31-.27-.05-.05-.1-.09-.15-.14-.1-.09-.2-.18-.3-.27,0,0-.16-.12-.16-.12-.12-.06-.23-.13-.35-.2-.12-.06-.23-.14-.34-.22-.11-.08-.21-.17-.31-.27-.05-.05-.1-.09-.15-.14-.1-.09-.2-.18-.3-.27-.06-.04-.11-.08-.16-.12-.12-.06-.24-.13-.36-.2-.12-.06-.24-.14-.35-.22-.11-.08-.22-.17-.32-.26-.06-.04-.11-.08-.17-.12-.12-.06-.24-.13-.36-.2-.12-.06-.24-.14-.35-.22-.11-.08-.21-.18-.31-.27-.05-.05-.1-.09-.15-.14-.1-.09-.2-.18-.3-.27,0,0-.16-.12-.16-.12-.12-.06-.23-.13-.35-.2-.12-.06-.23-.14-.34-.22-.11-.08-.21-.17-.31-.27-.05-.05-.1-.09-.15-.14-.1-.09-.2-.18-.3-.27,0,0-.16-.12-.16-.12-.12-.06-.23-.13-.35-.2-.12-.06-.23-.14-.34-.22-.11-.08-.21-.17-.31-.27-.05-.05-.1-.09-.15-.14-.1-.09-.2-.18-.3-.27,0,0-.16-.12-.16-.12-.12-.06-.23-.13-.35-.2-.12-.06-.23-.13-.34-.22-.11-.08-.21-.17-.3-.26,0,0-.14-.14-.14-.14-.1-.08-.19-.18-.28-.26,0,0-.15-.12-.15-.12-.17-.11-.35-.2-.53-.29-.13-.07-.24-.15-.35-.23-.12-.09-.22-.18-.33-.27-.06-.04-.11-.09-.17-.14-.17-.13-.35-.25-.53-.37-.12-.07-.24-.15-.35-.24-.11-.08-.21-.17-.31-.27-.05-.04-.1-.09-.15-.13-.16-.12-.33-.22-.5-.31-.12-.05-.23-.13-.34-.21-.11-.08-.21-.17-.3-.26,0,0-.14-.14-.15-.14-.1-.09-.2-.18-.3-.26,0,0-.16-.12-.16-.12-.12-.06-.24-.13-.36-.2-.12-.06-.24-.14-.35-.22-.11-.09-.21-.18-.31-.28-.05-.05-.1-.1-.15-.15-.1-.1-.18-.22-.25-.35-.02-.07-.03-.14-.05-.21,0-.02.02-.03.02-.05-.04,0-.08.02-.12.03-.17,0-.34-.01-.5-.06-.14-.06-.28-.15-.4-.25-.06-.05-.11-.1-.17-.15-.1-.09-.21-.2-.3-.3-.05-.04-.1-.09-.15-.14-.16-.12-.33-.22-.5-.31-.12-.05-.23-.12-.33-.21-.1-.08-.2-.16-.29-.26,0,0-.14-.14-.14-.13-.1-.08-.19-.17-.28-.26,0,0-.15-.12-.15-.12-.17-.11-.35-.19-.52-.28-.13-.07-.24-.15-.35-.23-.12-.09-.22-.18-.33-.27-.06-.04-.11-.09-.17-.14-.17-.13-.35-.25-.53-.37-.12-.07-.24-.15-.35-.24-.11-.08-.21-.17-.31-.27-.05-.04-.1-.09-.15-.13-.16-.12-.33-.22-.5-.31-.12-.05-.23-.13-.34-.21-.11-.08-.21-.17-.3-.26,0,0-.14-.14-.14-.14-.1-.09-.2-.18-.3-.26,0,0-.16-.12-.16-.12-.12-.06-.23-.13-.35-.2-.12-.06-.23-.14-.34-.22-.11-.08-.21-.17-.31-.27-.05-.05-.1-.09-.15-.14-.1-.09-.2-.18-.3-.27,0,0-.16-.12-.16-.12-.12-.06-.23-.13-.35-.2-.12-.06-.23-.14-.34-.22-.11-.08-.21-.17-.3-.26,0,0-.14-.14-.14-.14-.1-.09-.2-.18-.3-.27,0,0-.16-.12-.16-.12-.18-.11-.37-.2-.56-.3-.14-.08-.26-.16-.38-.26-.13-.09-.26-.19-.39-.3-.07-.05-.14-.1-.21-.15-1.96-1.55-4.19-2.74-5.96-4.53-.16-.18-.31-.37-.48-.54-.11-.09-.22-.2-.33-.3-.11-.09-.22-.19-.32-.3-.05-.05-.1-.1-.15-.15-.1-.09-.21-.19-.31-.28-.06-.04-.11-.08-.17-.12-.12-.07-.24-.14-.36-.21-.12-.06-.24-.14-.34-.22-.11-.08-.21-.17-.3-.26,0,0-.14-.14-.14-.14-.1-.08-.19-.18-.28-.26,0,0-.15-.12-.15-.12-.17-.1-.34-.19-.51-.29-.13-.06-.22-.16-.27-.29,0-.04-.03-.08-.04-.12,0,.05.01.1.01.16-.05.17-.13.32-.23.46-.81.94-1.72,1.78-2.59,2.66-.12.13-.25.25-.38.38-.12.13-.25.25-.38.38-.06.07-.13.13-.19.19-.12.14-.25.27-.38.39-3.91,3.73-7.46,7.84-11.64,11.28-.67.55-1.39,1.03-2.05,1.59-2.6,2.24-5.01,4.67-7.31,7.21,0,0,.02,0,.02,0-.13.15-.25.31-.42.42-.11.16-.25.29-.41.4l.02-.02c-.11.17-.25.31-.42.42l.02-.02c-.11.17-.25.31-.42.42l.02-.02c-.18.28-.58.18-.77.45h-.02c-.14.13-.28.26-.41.39-.13.14-.26.28-.42.39l.02-.02c-.2.27-.59.19-.79.44h0c-.22.23-.59.15-.79.41h-.01c-.23.22-.59.16-.81.39h0c-.33.36-.89.04-1.23.4h-.2s-.19.03-.19.03c-.77.44-1.69-.11-2.45.36-.63,0-1.27,0-1.9,0-.14-.04-.2-.1-.19-.19-.5,0-1.02.1-1.49-.18-1.87-.72-2.7-2.23-3.25-4.05-1.89-6.34-3.84-12.66-5.77-18.99-.04-.12-.16-.21-.24-.32-.37-.33-.05-.89-.4-1.23h.01c-.49-2.7-1.45-5.27-2.24-7.89-3.23-10.75-6.53-21.47-9.79-32.21-.26-.85-.51-1.66-1.34-2.13h0c-2.56-.77-5.13-1.52-7.69-2.31-13.87-4.33-27.74-8.67-41.61-12.99-1.99-.62-3.96-1.28-5.72-2.41-2.17-1.4-3.57-3.23-3.28-5.98,1.17-2.79,3.34-4.62,5.89-6.08,3.33-1.91,6.98-3.08,10.52-4.5,2.98-1.19,6.03-2.19,8.93-3.58.25-.26.62-.22.91-.38.11.03.21,0,.29-.07,3.58-1.12,7.02-2.61,10.51-3.95,5.94-2.27,11.87-4.57,17.8-6.87.24-.09.46-.25.69-.38.29-.42.88-.05,1.19-.45h.01c.23-.22.58-.18.82-.36.3-.41.88-.06,1.2-.43h0c.25-.25.62-.21.91-.37.11.03.21,0,.3-.07.24-.21.59-.14.82-.35h-.01c.25-.26.63-.23.93-.37.1.03.19.01.27-.06.23-.22.58-.17.82-.36.3-.41.88-.06,1.2-.43.25-.24.62-.2.9-.37.11.02.22,0,.31-.07.24-.2.59-.13.82-.35h-.01c.25-.26.63-.23.93-.37.1.03.2,0,.28-.06.23-.22.58-.16.82-.35.3-.41.88-.05,1.2-.43h0c4.02-1.24,7.87-2.93,11.79-4.42,5.92-2.25,11.83-4.55,17.73-6.84.24-.09.45-.26.68-.39,3.54-1.03,6.9-2.54,10.34-3.85,8.64-3.28,17.25-6.62,25.87-9.95.56-.22,1.09-.51,1.63-.76,1.46-1.31,3.41-1.58,5.1-2.4,2.03-.8,4.1-1.48,6.1-2.36,2.82-1,5.58-2.14,8.35-3.26,2.39-.72,4.63-1.86,7.01-2.6.33-.12.65-.24.97-.38.15-.07.3-.12.46-.16.22-.07.45-.13.67-.21.14-.07.28-.12.42-.18.21-.1.42-.19.63-.29.14-.06.28-.11.43-.15.21-.07.43-.13.64-.21.14-.06.28-.11.42-.16.21-.07.42-.13.63-.2.14-.06.27-.11.41-.17.21-.09.41-.19.62-.28.14-.07.29-.13.44-.18.31-.11.62-.23.92-.39.16-.09.33-.17.5-.25,9.55-3.6,19.01-7.41,28.57-10.97.37-.11.77.18,1.13-.09.31-.4.88-.05,1.2-.43h0c.23-.23.57-.19.82-.37.3-.41.88-.07,1.2-.43h0c.25-.25.62-.21.92-.37.11.02.21,0,.29-.06.23-.21.57-.16.81-.35.3-.4.88-.05,1.19-.43h0c.25-.23.62-.19.89-.37.12.02.23,0,.33-.08.23-.19.58-.12.79-.36h0c.26-.24.62-.2.91-.37.11.03.21.01.3-.05.37-.32.91-.06,1.29-.36.24-.02.49-.04.73-.07,1.07-.25,2.14-.28,3.2.02.11.06.23.07.36.04.36.33.9.04,1.26.37.09.07.18.08.28.06.3.15.68.11.91.4l-.02-.02c.15.11.29.22.43.34.08.07.17.1.27.09.23.06.4.2.54.39.15.11.27.25.41.37h0c.12.14.26.27.4.38l.02.02c.11.15.24.27.38.38l.02.02c.12.15.24.28.37.41h0c.14.14.29.27.39.43l-.02-.02c.28.18.18.58.45.77v.02c.12.15.28.27.37.45l-.03-.03c.31.23.26.62.41.92-.03.1-.01.19.06.27.24.26.19.63.36.91-.03.11-.02.21.05.3.41.49-.03,1.17.38,1.66-.04.12-.03.24.03.36.3,1.47.29,2.95,0,4.43Z"/>
</svg>
