<?xml version="1.0" encoding="UTF-8"?>
<svg id="Black" xmlns="http://www.w3.org/2000/svg" viewBox="0 0 500 500">
  <defs>
    <style>
      .cls-1 {
        fill: #000;
        stroke-width: 0px;
      }
    </style>
  </defs>
  <path class="cls-1" d="M457.97,300.63c-.04-2.34-1.12-10.02-1.63-11.91-.3-1.08-2.22-2.44-2.37-2.89-.05-.14.63-1.95.25-3.01-.33-.9-1.81-1.77-1.96-2.16-.09-.22.63-1.42.28-2.26-.45-1.09-2.39-2.74-2.78-3.62-.26-.6-.01-2.53-.53-3.72-1.47-3.35-4.85-7.95-6.49-11.7-.05-.12.44-1.32-.11-2.62-.22-.51-2.13-1.65-2.34-2.15-.06-.14.33-1.6-.13-2.99-.1-.3-1.52-1.19-1.56-1.43-.02-.13.97-1.24.64-2.65-.28-1.17-2.23-1.81-2.34-2.15-.21-.65.63-1.51.28-2.26-.36-.76-2.35-2.35-2.35-2.52,0-.23,1.42-.76,1.01-2.66-.15-.68-1.68-1.6-1.59-2.18.07-.46-.25-2.11-.93-3.05-.82-1.15-2.95-.97-5.25-.32.64-1.18,1.41-3.24,1.94-6.72.33-.34.64-.67.9-.98,5.49-6.4,19.11-24.24,25.51-48.71s-51.35-111.07-60.42-124.39c-9.08-13.32-57.8-30.62-84.91-9.51,0,0-12.98,6.4.27,30.82,13.25,24.42,27.05,27.36,31.19,24.9s27.72-16.16,27.72-16.16c0,0,41.86,54.02,45.36,88.67,0,0-23.86,8.55-29.62,15.19-6.5,7.49-3.21,27.54,7.18,45.82,7.56,13.3,23.2,5.5,32.18-1.54-.22,1.38-.72,3.4-1.87,4.3h0c-1.78.79-3.09,1.5-3.1,1.51-2.01.92-1.32,2.3-1,3.41.08.28,1.51,1.19,1.56,1.43.05.28-.84,2.44-.57,4.14.03.19,1.14.88,1.17,1.07.09.62-1.1,1.86-.6,3.4.11.34,1.9,1.51,1.95,1.79.1.52-.84,1.38-.64,2.65.24,1.48,2,2.07,2.37,2.89.35.77-.5,1.62-.28,2.26.66,1.89,3.04,2.29,3.1,2.49.03.11-1.07,1.01-1.07,1.17,0,3,1.58,2.39,2.01,3.28.23.47-.08,1.83.5,2.97.4.79,1.9.98,2.32,1.77.04.08-.74,1.05-.29,1.88.64,1.2,2.27,2,2.34,2.15.21.43-.11,1.82.1,2.24.21.43,1.91,1.53,1.95,1.79.02.12-1.12,1.34-1.03,2.29.14,1.52,2.28,2.37,2.35,2.52.06.12-.42,1.46.11,2.62.38.84,3.2,4.62,3.62,5.84.04.13-.51,1.68-.26,2.63.15.6,1.55,1.69,1.57,1.8.21,1.24-1.27,13.81-1.61,15.04-.4,1.48-2.56,4.25-3.12,5.75-.35.92.49,1.76.45,1.85-.11.26-1.95,3.99-2.07,4.21-.89,1.64-3.83,3.93-4.29,4.68-.82,1.32-.14,3.58-.21,3.75-1.38,3.12-5.25,7.88-7,11.53-.16.33.24,1.54.08,1.87-.26.55-1.45.81-1.8,1.57-1.36,2.92-3.37,7.31-4.43,10.3-.56,1.56-1.33,6.52-1.89,8.32-.71,2.28-.72,4.23-.91,4.91-.12.42-1.69,1.55-1.79,1.95-.33,1.3.15,2.49.11,2.62-.14.48-1.66,2.07-1.76,2.7-.27,1.77.92,3.16.89,3.33-.02.13-1.32,1.78-1.4,2.31-.18,1.21.59,2.29.5,2.97-.02.19-1.35,1.35-1.42,1.93-.26,2.33-.24,5.7-.4,8.25,0,.15.82.42.8,1.09,0,.18-1.07.99-1.07,1.17-.02,1.92.94,3.79.94,4.45,0,.11-1.04,1.81-1.04,1.92,0,2.15,1.24,3.16,1.28,3.69.12,1.56-1.05,2.66-.56,4.52.16.61,1.56,1.69,1.57,1.8.1.63-1.27,1.57-1.4,2.31-.27,1.57.87,2.8.87,2.96,0,5.02-.68,16.38-3.59,21.12-1.92,3.11-4.09,3.07-6.73,4.59-.27.16-.44,1.62-1.04,1.92-1.86.91-6.05,1.3-7.78,1.83-.85.26-2.38,1.96-2.54,1.98-.51.08-1.64-1.07-1.92-1.04-3.97.34-7.44,1-11.18,1.23-2.27.14-3.19.43-4.84.58-2.37.22-3.32-1.73-5.42.23h0c-.33.06-.34-.12-.36-.26,0-.04-.01-.07-.03-.1-.4-.73-.84-1.62-1.76-1.8-.97-.19-6.17.07-7.12-.07-1.24-.18-4.96-1.77-6.82-1.96-.89-.09-2.07,1.23-2.19,1.22-.16-.02-1.31-1.84-2.34-2.15-2.04-.61-6.93-.89-8.68-1.5-.4-.14-.76-1.35-1.95-1.79-.4-.15-2.49-.03-3.01-.25-1.47-.61-3.35-3.33-5.9-2.37-.08-.16.05-.64-.03-.75-1.85-2.65-2.22-1.23-3.09-2.3-.16-.19.09-1.34-.06-1.49-.85-.85-2.29-1.19-2.7-1.76-.18-.25.1-1.6-.08-1.87-.45-.68-2.01-1.54-2.34-2.15-.21-.39.11-1.81-.1-2.24-.43-.91-1.76-1.29-1.95-1.79-.1-.26-.51-5.25-.61-5.59-.26-.86-1.98-2.38-1.98-2.54,0-.16,1.08-1.01,1.07-1.17-.08-1.45-.89-3.16-.89-3.33,0-.18,1.06-.98,1.07-1.17.13-2-1.18-2.58-1.25-2.94-.1-.56.22-.94.54-1.4h38.39c8.58,0,15.53-10.49,15.53-23.43v-226.52c0-12.94-6.95-23.43-15.53-23.43H57.56c-8.58,0-15.53,10.49-15.53,23.43v226.52c0,12.94,6.95,23.43,15.53,23.43h239.2c.31,1.61,1.52,2.12,1.56,2.4.08.52-1.05,1.6-1.04,1.92.07,1.89.85,2.71.91,3.71.02.29-1.1,1.74-.6,3.4.32,1.08,1.86,1.46,1.95,1.79.11.37-1.07,2.32-.99,3.04.12,1.14,2.34,2.62,2.37,2.89.01.14-1.24,1.06-1.01,2.66.14,1,1.46,1.85,1.59,2.18.27.69-.14,1.81.5,2.97.52.95,2.64,1.61,2.7,1.76.07.17-.78,2.09.16,3.74.62,1.09,2.98,1.3,3.46,2.1.06.1-.18,1.9.1,2.24,3.38,4.24,10.55,9.33,14.91,11.53,1.1.55,2.14-.14,2.24-.1.52.25,1.12,1.79,1.96,2.16,1.43.63,2.85-.19,2.99-.13.53.23,1.39,2.29,2.73,2.5,1.8.29,2.45-.87,2.58-.86.19.01,1.82,1.9,2.71,2.13.92.23,2-.53,2.23-.47.29.08,1.79,1.55,2.7,1.76.82.18,1.74-.85,1.84-.83.33.08,1.51,1.65,2.32,1.77,1.65.26,2.63-.93,2.96-.88.12.02.92,1.62,1.57,1.8,1.04.29,3.09-.56,3.35-.52.32.06,1.29,1.31,1.93,1.42,1.6.26,2.8-.89,2.96-.87.36.03,2,1.38,2.68,1.38,1.3,0,1.98-1.27,2.57-1.23.18.01,1.37,1.35,1.93,1.42,1.54.18,2.43-1.23,2.57-1.23.21,0,1.28,1.38,1.56,1.43,2.29.41,3.4-1.3,4.06-1.3.14,0,1.03,1.18,2.66,1.01.58-.06,1.71-1.19,1.82-1.2.36-.03,1.99.76,3.77.59.18-.02.89-1.14,1.07-1.17.58-.08,2.27,1.1,3.41.98.83-.09,2.4-1.59,2.55-1.61.77-.09,1.91,1.19,3.41.98,1.12-.16,2.38-1.96,2.54-1.98.18-.03,1.83,1.33,3.41.98.78-.18,1.86-1.87,2.16-1.96.16-.05,2.35.56,3.38.23,1.19-.38,1.5-2.09,2.15-2.34.12-.05,1.6.66,2.63.26,1.22-.47,1.42-2.93,2.1-3.46.11-.09,1.65.04,2.23-.47,1.27-1.12,1.44-2.76,1.74-3.07.13-.13,1.88-.15,3.1-1.82.46-.62.21-2.17.28-2.26.48-.6,2.64.38,3.98-3.17.11-.28,1.04-4.69,1.26-5.67.02-.1-.85-1.74-.83-1.84.08-.39,1.63-1.49,1.77-2.32.19-1.09-.54-2.71-.5-2.97.02-.13,1.33-1.79,1.4-2.31.17-1.32-.6-2.27-.52-3.35,0-.09,1.03-1.17,1.06-1.54.15-1.85-1.26-3.14-1.26-3.32-.01-.45,1.04-1.83,1.03-2.29-.05-1.58-1.24-2.88-1.28-3.69,0-.19,1.21-1.22.98-3.41-.01-.13-1.19-1.71-1.2-1.82-.04-.62.71-1.5.62-3.02-.04-.66-.42-1.58-.52-3.35-.13-2.46-1.15-7.07-1.13-8.94,0-.09,1.03-1.16,1.06-1.54.13-1.8-.92-3.52-.91-3.71.01-.16,1.62-1.53,1.76-2.7.19-1.63-.89-2.8-.87-2.96.04-.38,1.33-1.92,1.38-2.68.1-1.46-1.04-2.93-.91-3.71.06-.33,1.62-1.49,1.79-1.95.61-1.69-.29-3.22-.16-3.74.05-.21,1.52-1.82,1.76-2.7.27-1-.64-2.03-.49-2.6.09-.34,1.49-1.41,1.77-2.32.27-.84-.63-1.56-.47-2.23.12-.48,1.65-1.15,2.15-2.34.44-1.06,1.23-5.24,1.61-6.06.21-.46,2.07-1.44,2.52-2.35.18-.36-.27-1.88-.1-2.24.38-.76,1.49-1.03,2.15-2.34.18-.35-.27-1.89-.1-2.24.07-.14,1.96-.8,2.54-1.98.54-1.12-.15-2.14-.1-2.24.44-.87,1.9-1.44,2.16-1.96.48-.95.13-2.36.26-2.63.42-.83,2.02-1.37,2.52-2.35.2-.39-.3-2.14-.11-2.62.06-.15,2.12-1.01,2.54-1.98.5-1.16-.16-2.5-.11-2.62.18-.4,1.53-1.04,2.15-2.34.18-.37-.27-1.87-.1-2.24.08-.17,2.12-1,2.54-1.98.5-1.16-.16-2.5-.11-2.62.19-.44,2.19-1.5,2.52-2.35.59-1.53-.27-2.88-.14-3.36.11-.42,1.54-1.35,1.76-2.7.2-1.3-.62-2.31-.52-3.35.02-.21,1.05-.96,1.07-1.17.18-1.86-.92-3.85-.92-4.08,0-.09,1.06-1.23,1.06-1.54ZM256.86,173.37c0-6.28,5.11-11.38,11.38-11.38h66.85c6.28,0,11.38,5.11,11.38,11.38v44.56c0,6.28-5.11,11.38-11.38,11.38h-66.85c-6.28,0-11.38-5.11-11.38-11.38v-44.56ZM133,372.1c0,2.4-1.95,4.34-4.34,4.34h-41.26c-2.4,0-4.34-1.95-4.34-4.34v-7.14c0-2.4,1.95-4.34,4.34-4.34h41.26c2.4,0,4.34,1.94,4.34,4.34v7.14ZM133,349.27c0,2.4-1.95,4.34-4.34,4.34h-41.26c-2.4,0-4.34-1.95-4.34-4.34v-7.14c0-2.4,1.95-4.34,4.34-4.34h41.26c2.4,0,4.34,1.94,4.34,4.34v7.14ZM133,326.44c0,2.4-1.95,4.34-4.34,4.34h-41.26c-2.4,0-4.34-1.95-4.34-4.34v-7.14c0-2.4,1.95-4.34,4.34-4.34h41.26c2.4,0,4.34,1.94,4.34,4.34v7.14ZM133,303.61c0,2.4-1.95,4.34-4.34,4.34h-41.26c-2.4,0-4.34-1.95-4.34-4.34v-7.14c0-2.4,1.95-4.34,4.34-4.34h41.26c2.4,0,4.34,1.95,4.34,4.34v7.14ZM133,280.78c0,2.4-1.95,4.34-4.34,4.34h-41.26c-2.4,0-4.34-1.95-4.34-4.34v-7.14c0-2.4,1.95-4.34,4.34-4.34h41.26c2.4,0,4.34,1.95,4.34,4.34v7.14ZM133,257.95c0,2.4-1.95,4.34-4.34,4.34h-41.26c-2.4,0-4.34-1.95-4.34-4.34v-7.14c0-2.4,1.95-4.34,4.34-4.34h41.26c2.4,0,4.34,1.95,4.34,4.34v7.14ZM167.74,372.1c0,2.4-1.95,4.34-4.34,4.34h-17c-2.4,0-4.34-1.95-4.34-4.34v-17c0-2.4,1.95-4.34,4.34-4.34h17c2.4,0,4.34,1.95,4.34,4.34v17ZM167.74,337.34c0,2.4-1.95,4.35-4.34,4.35h-17c-2.4,0-4.34-1.95-4.34-4.35v-17c0-2.4,1.95-4.34,4.34-4.34h17c2.4,0,4.34,1.95,4.34,4.34v17ZM167.74,302.57c0,2.4-1.95,4.34-4.34,4.34h-17c-2.4,0-4.34-1.95-4.34-4.34v-17c0-2.4,1.95-4.34,4.34-4.34h17c2.4,0,4.34,1.95,4.34,4.34v17ZM167.74,267.81c0,2.4-1.95,4.34-4.34,4.34h-17c-2.4,0-4.34-1.95-4.34-4.34v-17c0-2.4,1.95-4.34,4.34-4.34h17c2.4,0,4.34,1.95,4.34,4.34v17ZM201.31,372.1c0,2.4-1.95,4.34-4.34,4.34h-17c-2.4,0-4.34-1.95-4.34-4.34v-17c0-2.4,1.95-4.34,4.34-4.34h17c2.4,0,4.34,1.95,4.34,4.34v17ZM201.31,337.34c0,2.4-1.95,4.35-4.34,4.35h-17c-2.4,0-4.34-1.95-4.34-4.35v-17c0-2.4,1.95-4.34,4.34-4.34h17c2.4,0,4.34,1.95,4.34,4.34v17ZM201.31,302.57c0,2.4-1.95,4.34-4.34,4.34h-17c-2.4,0-4.34-1.95-4.34-4.34v-17c0-2.4,1.95-4.34,4.34-4.34h17c2.4,0,4.34,1.95,4.34,4.34v17ZM201.31,267.81c0,2.4-1.95,4.34-4.34,4.34h-17c-2.4,0-4.34-1.95-4.34-4.34v-17c0-2.4,1.95-4.34,4.34-4.34h17c2.4,0,4.34,1.95,4.34,4.34v17ZM234.88,372.1c0,2.4-1.95,4.34-4.34,4.34h-17c-2.4,0-4.34-1.95-4.34-4.34v-17c0-2.4,1.95-4.34,4.34-4.34h17c2.4,0,4.34,1.95,4.34,4.34v17ZM234.88,337.34c0,2.4-1.95,4.35-4.34,4.35h-17c-2.4,0-4.34-1.95-4.34-4.35v-17c0-2.4,1.95-4.34,4.34-4.34h17c2.4,0,4.34,1.95,4.34,4.34v17ZM234.88,302.57c0,2.4-1.95,4.34-4.34,4.34h-17c-2.4,0-4.34-1.95-4.34-4.34v-17c0-2.4,1.95-4.34,4.34-4.34h17c2.4,0,4.34,1.95,4.34,4.34v17ZM234.88,267.81c0,2.4-1.95,4.34-4.34,4.34h-17c-2.4,0-4.34-1.95-4.34-4.34v-17c0-2.4,1.95-4.34,4.34-4.34h17c2.4,0,4.34,1.95,4.34,4.34v17ZM234.88,222.52c0,3.86-3.07,7-6.86,7H89.91c-3.79,0-6.86-3.13-6.86-7v-45.56c0-3.86,3.07-7,6.86-7h138.11c3.79,0,6.86,3.13,6.86,7v45.56ZM268.24,389.24c-6.28,0-11.38-5.11-11.38-11.38v-44.56c0-6.28,5.11-11.38,11.38-11.38h66.85c6.28,0,11.38,5.11,11.38,11.38v44.56c0,6.28-5.11,11.38-11.38,11.38h-66.85Z"/>
  <rect class="cls-1" x="261.86" y="326.92" width="79.62" height="57.33" rx="6.38" ry="6.38"/>
  <rect class="cls-1" x="261.86" y="166.99" width="79.62" height="57.33" rx="6.38" ry="6.38"/>
</svg>
