<?xml version="1.0" encoding="UTF-8"?>
<svg id="Black" xmlns="http://www.w3.org/2000/svg" viewBox="0 0 500 500">
  <defs>
    <style>
      .cls-1 {
        fill: #000;
        stroke-width: 0px;
      }
    </style>
  </defs>
  <polygon class="cls-1" points="285.73 304.69 287.23 304.69 287.23 298.92 259.06 305.57 260.54 321.68 285.73 322.46 285.73 304.69"/>
  <path class="cls-1" d="M281.72,279.42l-14.36,5.36c-3.33,6.09-6.35,11.61-8.75,15.97l.07.8,59.9-14.14-1.66-10.91-22.87,7.71-1.28-3.79,49.74-16.77-2.66-8.59-58.1,24.38-.04-.02Z"/>
  <polygon class="cls-1" points="320.78 275.2 322.41 285.87 345.67 273.79 343.71 267.47 320.78 275.2"/>
  <path class="cls-1" d="M331.69,337.58c11.47-.61,22.97-.78,33.99.82l-8.27-26.71h-64.67v10.99l37.33,1.16,1.63,13.74Z"/>
  <polygon class="cls-1" points="344.09 241.66 346.55 249.59 353.01 249.59 360.12 271.79 365.7 271.53 356.96 241.67 344.09 241.66"/>
  <path class="cls-1" d="M180.49,242.13l35.54.58c-1.48-2.71-2.87-5.25-4.12-7.55l-30.09-.38-1.32,7.35Z"/>
  <path class="cls-1" d="M149.16,259.46c5.32.54,14.03,1.56,23.56,3.24l5.03-27.97-22.65-.32-5.94,25.06Z"/>
  <path class="cls-1" d="M285.73,340.97v-14.5l-24.82-.77,1.73,18.8c7.98-1.39,15.78-2.59,23.1-3.52Z"/>
  <polygon class="cls-1" points="291.23 304.69 355.24 304.69 346.87 277.68 321.55 290.82 321.31 290.88 291.23 297.98 291.23 304.69"/>
  <path class="cls-1" d="M270.3,279.41l6.51-2.43-4.07-2.02c-.82,1.5-1.63,2.99-2.44,4.45Z"/>
  <path class="cls-1" d="M464.94,389.58l-75.91-167.95c-1.99-4.39-6.36-7.22-11.18-7.22h-72.74c-.93,2.01-1.87,4.03-2.8,6.04h75.29c1.99,0,3.8,1.19,4.63,3.04l75.33,168c1.55,3.45-.92,7.37-4.63,7.37h-11.45l.27.09h-24.23c-.22-.03-.44-.06-.65-.09h-227.67c-.1.03-.21.06-.32.09h-66.95c.13-.03.26-.06.39-.09H47.07c-3.71,0-6.18-3.92-4.63-7.37l35.71-79.65-.02-.11s.06-.02.09-.04l18.48-41.22.11-1.5.55.04,20.42-45.53c.83-1.85,2.64-3.04,4.63-3.04h81.67c-.93-2.01-1.87-4.03-2.81-6.04h-79.11c-4.82,0-9.2,2.82-11.18,7.22l-75.91,167.95c-3.67,8.12,2.27,17.33,11.18,17.33h407.51c8.91,0,14.85-9.2,11.18-17.33Z"/>
  <polygon class="cls-1" points="98.76 278.09 135.19 283.71 137.28 274.91 101.35 272.32 98.76 278.09"/>
  <path class="cls-1" d="M302.84,366.28c-23.29,5.34-47.83,16.16-71,22.54-7.24,1.99-14.68,3.5-22.08,5.06h186.69c-33.06-11.78-54.56-36.55-93.61-27.6Z"/>
  <path class="cls-1" d="M439.39,393.87l-47.13-15.42,1.37-22.86c-4.33-1.72-8.57-3.41-12.53-4.98h0c-17.77-7.1-39.16-5.72-59.84-4.38-4.67.3-9.5.61-14.2.82-23.71,1.05-65.41,8.52-103.78,18.59-25.79,6.77-77.97,21.04-104.17,28.24h44.22c1.4-.35,2.8-.68,4.2-1.04h.07s.16-.06.16-.06c33.7-8.52,67.1-18.42,100.99-25.94,18.82-4.18,42.16-9.78,61.14-11.27,44.13-3.47,46.56,12.85,80.3,28.18,7.93,3.6,19.92,7.29,30.46,10.12h18.74Z"/>
  <path class="cls-1" d="M209.02,273.24l21.8-3.47c-2.5-4.56-5.02-9.17-7.46-13.64l-29.36,11.38c5.56,1.62,10.75,3.52,15.02,5.73Z"/>
  <path class="cls-1" d="M377.6,225.46h-38.53l2.85,9.21h20.28l20.84,71.17,11.99.61-.47,2.77c-.96,5.7-1.87,16.07-.2,19.65,3.24,1.72,6.41,3.51,9.31,5.31,1.85,1.15,3.79,2.32,5.76,3.5,1.22-7.25,4.13-24.16,5.42-29.23l-37.17-82.9c-.03-.06-.07-.08-.07-.08Z"/>
  <path class="cls-1" d="M183.48,225.46l-.96,5.33,27.18.34c-1.24-2.28-2.28-4.2-3.08-5.67h-23.14Z"/>
  <polygon class="cls-1" points="357.25 275.93 350.09 253.59 347.79 253.59 363.61 304.69 375.41 304.69 366.86 275.48 357.25 275.93"/>
  <path class="cls-1" d="M367.17,316.17c4.45,1.85,12.82,5.45,21.46,9.75-.52-4.99.11-11.18.59-14.77l-4.69-.24.23.77h-18.98l1.39,4.48Z"/>
  <path class="cls-1" d="M310.6,239.32l-17.28-2.02c-5.14,9.43-12.04,22.04-18.66,34.15l7.24,3.6,56.77-23.82-3.03-9.8-20.86-1.68.45,2.09-3.91.85-.73-3.36Z"/>
  <path class="cls-1" d="M292.73,340.15c4.99-.53,9.68-.91,13.97-1.09,4.61-.2,9.4-.51,14.03-.81,2.31-.15,4.63-.3,6.95-.44l-1.19-10.08-33.76-1.05v13.47Z"/>
  <path class="cls-1" d="M414.04,340.37c7.48,4.32,14.98,8.39,20.1,11.12l-15.83-35.3c-1.29,6.75-3.03,16.77-4.27,24.18Z"/>
  <path class="cls-1" d="M47,393.54c-.09.21.07.33.07.33h26.37c9.2-2.65,94.39-27.2,127.81-35.98,6.5-1.71,13.52-3.44,20.81-5.13-10.36-7.72-31.09-23.21-40.14-30.4-20.5-16.27-46.39-19.72-46.65-19.75l-2.95-.38c-13.11,1.19-40.08,11.29-51.55,15.98l-33.77,75.32Z"/>
  <polygon class="cls-1" points="396.44 375.61 419.3 383.09 416.49 370.75 396.73 370.75 396.44 375.61"/>
  <path class="cls-1" d="M84.89,309.04c7.29-2.83,19.36-7.28,30.84-10.46-8.2-1.14-17.31-2.37-24.66-3.33l-6.18,13.79Z"/>
  <path class="cls-1" d="M94.06,288.59c4.41.58,12.57,1.67,20.65,2.79,6.97.97,12.53,1.77,16.52,2.39.54.08,1.05.16,1.53.24l1.74-7.36-37.01-5.71-3.43,7.65Z"/>
  <polygon class="cls-1" points="102.66 269.41 137.98 271.95 139.9 263.86 105.58 262.89 102.66 269.41"/>
  <path class="cls-1" d="M397.54,357.14l-.57,9.6h18.61l-.61-2.69c-5.6-2.22-11.54-4.58-17.42-6.91Z"/>
  <polygon class="cls-1" points="333.41 234.22 330.7 225.46 311.69 225.46 313.23 232.58 313.63 232.62 333.41 234.22"/>
  <path class="cls-1" d="M299.76,225.46c-.74,1.37-1.7,3.13-2.83,5.21l12.1,1.42-1.44-6.63h-7.84Z"/>
  <path class="cls-1" d="M216.27,254.58l5.15-1.99c-1.34-2.45-2.64-4.84-3.9-7.12l-1.25,9.12Z"/>
  <path class="cls-1" d="M401.55,337.57c-10.51-6.54-24.74-12.95-32.84-16.41l5.61,18.13c20.19,8.07,54.4,22.14,66.51,27.13l-4.04-9c-5.71-2.99-22.41-11.86-35.25-19.85Z"/>
  <path class="cls-1" d="M452.93,393.87h0s.16-.12.07-.33l-8.54-19.05-.15,1.19c-.22-.09-9.82-3.88-22.59-8.94l4.22,18.53,26.3,8.61h.68Z"/>
  <path class="cls-1" d="M146.23,271.82l50.29,9.8,7.28-5.34c-16.65-7.35-44.85-10.8-55.8-11.91l-1.76,7.44Z"/>
  <path class="cls-1" d="M176.66,263.42c3.58.68,7.21,1.46,10.79,2.34l22.43-8.7,1.16-8.43-31.62-.52-2.75,15.3Z"/>
  <polygon class="cls-1" points="107.82 257.9 112.68 258.09 120.6 233.91 118.59 233.88 107.82 257.9"/>
  <path class="cls-1" d="M249.1,303.16l-18.55-8.8-24.23,10.76c12.39,6.62,35.77,18.7,46.91,24.44l-2.08-22.65c-.58-1.06-1.27-2.32-2.05-3.75Z"/>
  <polygon class="cls-1" points="116.85 258.21 141.07 258.89 146.91 234.28 124.79 233.97 116.85 258.21"/>
  <path class="cls-1" d="M209.63,278.21l-11.91,8.74-52.63-10.26-.86,3.61c12.27,4.24,45.68,15.99,56.55,21.82l29.83-13.25,14.42,6.82c-3.33-6.09-7.4-13.51-11.65-21.28l-23.74,3.79Z"/>
  <polygon class="cls-1" points="126.09 229.99 147.85 230.3 149 225.46 127.58 225.46 126.09 229.99"/>
  <path class="cls-1" d="M122.33,225.54l-1.96,4.36,1.53.02,1.46-4.47h-.97s-.04.01-.07.08Z"/>
  <polygon points="156.04 230.41 178.47 230.73 179.42 225.46 157.22 225.46 156.04 230.41"/>
  <path class="cls-1" d="M142.6,287.15l-1.96,8.28c8.76,1.73,28.97,6.97,46.25,20.68,11.27,8.94,40.9,30.96,45.46,34.35,7.39-1.61,14.92-3.14,22.39-4.54l-.74-8.09c-9.37-4.82-45.46-23.43-56.18-29.35-9.62-5.32-42.44-16.9-55.22-21.33Z"/>
  <path class="cls-1" d="M253.19,295.84s42.62-77.79,43.39-79.45c15.24-33,32.33-66.12,6.2-99.46-26.19-33.41-78.33-31.33-101.99,3.94-22.07,32.91-5.47,64.16,9.02,95.51.77,1.66,43.34,79.28,43.39,79.45ZM253.19,126.74c17.07,0,30.92,13.84,30.92,30.92s-13.84,30.92-30.92,30.92-30.92-13.84-30.92-30.92,13.84-30.92,30.92-30.92Z"/>
</svg>
