<?xml version="1.0" encoding="UTF-8"?>
<svg id="Black" xmlns="http://www.w3.org/2000/svg" version="1.1" viewBox="0 0 500 500">
  <defs>
    <style>
      .cls-1 {
        fill: #000;
        stroke-width: 0px;
      }
    </style>
  </defs>
  <path class="cls-1" d="M427.26,43.2H72.65c-16.25,0-29.45,13.39-29.45,29.82v353.96c0,16.43,13.2,29.82,29.45,29.82h354.6c16.25,0,29.54-13.39,29.54-29.82V73.02c0-16.43-13.29-29.82-29.54-29.82ZM168.2,397.71h-61.3v-197.38h61.39v197.38h-.09ZM137.55,173.37c-19.66,0-35.54-15.97-35.54-35.54s15.88-35.54,35.54-35.54,35.54,15.97,35.54,35.54-15.88,35.54-35.54,35.54ZM397.99,397.71h-61.3v-96.01c0-22.9-.46-52.35-31.85-52.35s-36.84,24.93-36.84,50.68v97.68h-61.3v-197.38h58.81v26.96h.83c8.22-15.51,28.25-31.85,58.07-31.85,62.04,0,73.58,40.9,73.58,94.07v108.2Z"/>
</svg>