<?xml version="1.0" encoding="UTF-8"?>
<svg id="Black" xmlns="http://www.w3.org/2000/svg" version="1.1" viewBox="0 0 500 500">
  <defs>
    <style>
      .cls-1 {
        fill: #000;
        opacity: .9;
        stroke-width: 0px;
      }
    </style>
  </defs>
  <path class="cls-1" d="M124.81,58.95c.62-3.76,1.67-9.47,7.06-14.48,5.38-5.01,14.56-6.31,20.88-6.31h133.1c19.72,0,61.68,4.64,83.96,24.51,22.28,19.87,37.46,54.63,12.21,124.81-25.25,70.18-89.02,85.74-120.39,85.74h-65.97s-5.94.74-8.91,5.94c-2.97,5.2-5.76,12.07-7.06,19.68-1.3,7.61-15.97,102.86-15.97,102.86,0,0-.19,6.31-3.34,9.65-3.16,3.34-7.8,2.97-12.25,2.97h-70.18s-5.38-1.34-6.68-4.87c-1.3-3.53-.79-8.83,0-15.31,1.27-10.43,39.73-251.45,53.55-335.19Z"/>
  <path class="cls-1" d="M200.48,164.41c.93-7.8,3.06-16.06,7.8-20.79,5.33-5.33,11.51-5.57,31.93-5.2,20.42.37,87.82,0,99.14,0,30.94,0,61.54,6.77,75.09,24.22,13.55,17.45,21.66,47.51,8.11,90.58,0,0-11.02,39.44-38.64,61.95-20.59,16.78-42.46,22.88-52.85,24.55-10.4,1.67-39.98.7-46.29.7s-10.39-1.1-15.47,3.96c-7.14,7.1-7.21,17.08-8.66,27.6-1.94,14.04-9.24,64.24-9.98,69.44s-1.71,13.28-4.5,16.67c-3.22,3.91-10.95,3.75-14.85,3.75s-50.29-.12-65.02-.12c-13.64,0-9.67-13.81-8.87-19.93s43.07-277.38,43.07-277.38Z"/>
</svg>