<?xml version="1.0" encoding="UTF-8"?><svg id="Black" xmlns="http://www.w3.org/2000/svg" viewBox="0 0 500 500"><defs><style>.cls-1{fill:#000;stroke-width:0px;}</style></defs><path class="cls-1" d="M410.5846,38.1552h39.2317c-53.3081,62.8244-105.0104,123.7562-157.0573,185.0942,54.5639,79.2525,108.733,157.9315,164.0396,238.2628h-124.7602c-35.2913-51.5759-70.998-103.7588-107.7742-157.5048-45.4583,53.4602-89.9467,105.78-134.2119,157.8374h-39.8376c52.9659-62.3873,104.3665-122.9309,156.2588-184.0537C152.1116,198.1169,98.2665,119.2,43.2014,38.495h122.242c35.7241,51.8371,72.1416,104.6802,109.5149,158.9102,45.6484-53.5996,90.7192-106.5208,135.6263-159.25ZM96.3134,66.1217c84.61,123.9695,167.7832,245.8336,250.5624,367.1207h56.1632c-85.0159-123.4107-168.9651-245.2728-252.9045-367.1207h-53.8211Z"/></svg>