<?xml version="1.0" encoding="UTF-8"?>
<svg id="Black" xmlns="http://www.w3.org/2000/svg" version="1.1" viewBox="0 0 500 500">
  <defs>
    <style>
      .cls-1 {
        fill: #000;
        stroke-width: 0px;
      }
    </style>
  </defs>
  <path class="cls-1" d="M448.16,150.1c-4.76-17.91-18.77-32.02-36.57-36.8-32.25-8.7-161.59-8.7-161.59-8.7,0,0-129.33,0-161.59,8.7-17.79,4.79-31.81,18.89-36.57,36.8-8.64,32.46-8.64,100.2-8.64,100.2,0,0,0,67.73,8.64,100.2,4.76,17.91,18.77,31.43,36.57,36.22,32.25,8.7,161.59,8.7,161.59,8.7,0,0,129.33,0,161.59-8.7,17.79-4.79,31.81-18.31,36.57-36.22,8.64-32.46,8.64-100.2,8.64-100.2,0,0,0-67.73-8.64-100.2ZM207.7,311.79v-122.99l108.1,61.5-108.1,61.49h0Z"/>
</svg>