<?xml version="1.0" encoding="UTF-8"?>
<svg id="Black" xmlns="http://www.w3.org/2000/svg" viewBox="0 0 500 500">
  <defs>
    <style>
      .cls-1 {
        fill: #000;
        stroke-width: 0px;
      }
    </style>
  </defs>
  <path class="cls-1" d="M245.17,23.16c47.56-2.49,107.75,11.68,123.9,62.75,3.43,10.84,4.33,21.04,4.96,32.19,2.67,47.2-1.32,95.45,1.08,142.7,1.8,13.91,7.56,24.52,15.36,35.79,5.49,7.94,15.81,16.63,5.92,25.87-6.11,5.71-13.56,11.12-19.95,16.67-8,6.95-16.03,14.95-24.2,21.57-4.12,3.33-10.05,5.09-15,2.59-1.44-.73-5.16-4.02-6.56-5.28-8.39-7.54-15.63-16.1-22.05-25.34-2.21-3.18-4.11-6.6-6.48-9.68l-12.91,12.4c-17.11,15.28-36.79,26.24-59.78,29.6-38.52,5.64-80.6-1.26-102.51-36.96-17.66-28.77-18.13-72.24-4.13-102.52,28.56-61.75,104.36-65.57,162.64-71.6,1.21-.13,4.15.52,4.54-.84-.31-8.49.53-17.4.06-25.83-.74-13.3-5.05-26.93-17.06-34.09-20.98-12.52-54.46-5.95-66.89,15.89-2.8,4.92-3.43,8.71-5.02,13.83-1.7,5.46-5.23,11.99-12.02,11.14-17.25-2.17-34.42-3.81-51.69-5.92-2.38-.29-4.2.13-6.76-.78-2.92-1.05-6.75-3.94-7.44-7.1-.28-1.27-.22-4.46-.08-5.84.38-3.85,2.59-11.13,3.87-14.98,17.18-51.68,67.23-73.52,118.2-76.19ZM290.04,201.84c-2.41.09-4.86-.12-7.27,0-29.94,1.46-67.56,6.78-78.79,39.68-5.05,14.8-4.16,39.26,6.11,51.85,13.13,16.09,36.48,15.67,52.47,4.04,18.91-13.75,26.53-39.09,27.5-61.35.49-11.27-.41-22.91-.02-34.22Z"/>
  <path class="cls-1" d="M33.54,365.09c1.66-.3,3.19.34,4.68,1.06,7.76,3.73,16.67,10.41,24.38,14.93,41.11,24.09,84.5,44.39,131.85,52.85,76.57,13.67,153.47-4.07,223.02-37.61,1.08.27,2.42-.64,3.15-.63.24,0,2.7.67,2.98.81,2.86,1.46,2.28,5.35,1.35,7.84-3,7.98-21.42,21.99-28.84,27.17-42.94,29.94-92.32,43.69-144.06,45.49-78.82,2.75-164.65-39.05-216.17-98.26-1.9-2.19-6.99-7.05-6.42-10.13.3-1.64,2.49-3.21,4.08-3.49Z"/>
  <path class="cls-1" d="M427.18,361.33c10.01-.7,28.27-.54,37.34,3.38,3.17,1.37,5.45,3.39,5.91,7.01.43,3.39-.17,6.97-.54,10.23-2.15,18.9-9.28,38.07-21.28,53.03-2.3,2.86-6.11,7.27-9.21,9.1-1.93,1.13-4.59,2.5-6.07.29l.05-3.63c5.87-14.85,12.53-29.96,14.44-45.87.07-.57.5-1.05.54-1.61.49-6.02.03-10.95-6.29-13.09-7.13-2.42-20.18-2.11-27.9-1.72-8.2.42-16.55,2.14-24.75,2.72-2.41.17-6.38.43-5.61-2.92.76-3.33,9.7-7.86,12.84-9.24,9.01-3.95,20.82-7.01,30.54-7.69Z"/>
</svg>
