<?xml version="1.0" encoding="UTF-8"?>
<svg id="Black" xmlns="http://www.w3.org/2000/svg" viewBox="0 0 500 500">
  <defs>
    <style>
      .cls-1 {
        fill: #000;
        stroke-width: 0px;
      }
    </style>
  </defs>
  <g>
    <path class="cls-1" d="M246.34,252.97c-21.47,0-30.3,9.41-30.3,64.71s10.29,65.3,30,65.3h.29c21.47,0,30.3-11.18,30.3-65.3s-8.24-64.71-30.3-64.71ZM252.23,358.27c-.88,10.59-2.06,10.59-5.88,10.59-3.53,0-5.29-.88-5.88-10.59-.88-8.24-.88-17.06-.88-40.59,0-19.71,0-32.36.59-41.18.59-9.12,2.35-10.88,5.88-10.88,2.94,0,5,2.06,5.88,10.88l.29-.29v82.06Z"/>
    <path class="cls-1" d="M334.88,313.27c9.71-.59,15.59-8.82,15.59-24.71,0-21.47-5.88-34.41-28.53-34.41h-28.53v126.48h28.24c20.59,0,32.36-9.71,32.36-36.18h.29c0-20.3-8.53-31.18-19.41-31.18ZM315.76,268.85h4.12l-.29-.29c7.06,0,8.82,5.88,8.82,20.59,0,10.59-.88,16.47-6.77,16.47h-5.88v-36.77ZM321.64,365.62h-5.88v-45h5v.29c7.65,0,9.71,7.35,9.71,21.18,0,19.41-2.06,23.53-8.82,23.53Z"/>
    <path class="cls-1" d="M177.81,279.44c0,12.65,0,27.65.59,40.3-.59-5.88-2.35-12.06-4.41-20-2.35-7.65-11.77-45-11.77-45h-21.18v126.48h21.47v-32.36c0-15,0-19.71-1.18-36.77,1.76,8.82,3.24,15.88,5.29,21.77l-.29-.59,14.12,47.06h17.94v-126.48h-20.59v25.59Z"/>
    <polygon class="cls-1" points="455.18 361.51 455.18 324.74 477.24 324.74 477.24 307.09 455.48 307.09 455.48 273.26 479.89 273.26 479.89 254.15 433.42 254.15 433.42 380.63 483.42 380.63 483.42 361.51 455.18 361.51"/>
    <polygon class="cls-1" points="393.71 253.85 370.18 253.85 370.18 380.63 420.18 380.63 420.18 361.51 393.71 361.51 393.71 253.85"/>
  </g>
  <g>
    <path class="cls-1" d="M84.32,174.47c9.82-.59,15.77-8.92,15.77-24.99,0-21.72-5.95-34.81-28.56-34.81h-28.86v127.92h28.56c20.82,0,32.72-9.82,32.72-36.59,0-20.53-8.63-31.53-19.63-31.53ZM64.99,130.14h4.46l-.6-.3c7.44,0,8.92,5.95,8.92,20.82,0,10.71-.89,16.66-6.84,16.66h-5.95v-37.19ZM71.23,227.72h-5.95v-45.51h4.76l.3.3c7.73,0,9.82,7.44,9.82,21.42,0,19.63-2.08,23.8-8.92,23.8Z"/>
    <path class="cls-1" d="M131.33,114.37l-18.74,128.81h19.93l1.78-20.82h14.62l2.93,20.53h23.8l-21.72-128.51h-22.61ZM136.09,208.08l2.97-24.69c0-5.65,2.08-23.8,2.97-36.59,0,12.2,2.38,30.94,2.97,36.89l2.97,24.39h-11.9Z"/>
    <path class="cls-1" d="M250.92,147.39c0-23.8-11.01-32.72-26.77-32.72h-34.81v127.92h23.8v-55.03h1.19c7.44,2.08,11.01,9.52,11.01,19.93v16.06c0,12.2,1.49,14.28,1.49,19.63h23.8c-1.49-6.25-2.38-17.25-2.38-29.15,0-15.47-1.49-32.72-16.36-36.29v-.6c10.11-1.49,19.04-10.11,19.04-29.75ZM219.68,167.92h-6.84v-36.59h4.16c7.44-.3,10.41,2.38,10.41,21.72,0,11.01-1.78,14.87-7.73,14.87Z"/>
    <path class="cls-1" d="M470.76,210.46c0-13.39-8.92-24.1-19.63-37.78-8.03-9.52-16.96-18.44-16.96-30.34,0-9.22.6-14.28,5.95-14.28,5.06,0,6.84,4.46,6.84,16.36l-.6,8.92h19.04c.6-2.97,1.78-6.25,1.78-10.41,0-18.74-9.82-28.26-27.67-28.26s-27.37,10.71-27.37,29.75c0,11.9,9.82,26.18,19.34,36.89,8.92,11.01,17.85,20.23,17.85,32.72,0,14.28-2.97,16.36-6.84,16.36-5.35,0-8.92-2.38-8.92-16.66,0-5.65.6-8.63,1.49-13.39h-20.82c-1.19,3.87-1.19,8.63-1.19,13.68,0,22.31,11.6,31.24,28.86,31.24,20.23,0,29.15-14.87,29.15-35.7l-.3.89Z"/>
    <polygon class="cls-1" points="372.29 186.66 394.01 186.66 394.01 168.81 371.99 168.81 371.99 134.6 396.68 134.6 396.68 115.27 349.98 115.27 349.98 243.19 400.55 243.19 400.55 223.85 372.29 223.85 372.29 186.66"/>
    <path class="cls-1" d="M307.74,140.55c0,12.79.6,27.96,1.19,40.76-1.19-5.95-2.97-12.2-5.35-20.23l-11.9-45.51h-21.42v127.92h21.42v-32.72c0-15.17,0-19.93-1.19-37.19,1.49,8.92,3.27,16.06,5.06,22.01l.3-.3,13.98,47.6h18.74v-127.92h-20.82v25.58Z"/>
  </g>
  <path class="cls-1" d="M129.86,328.56c-.59,4.12-2.94,7.35-7.65,7.35-9.71,0-2.06-14.71-11.18-14.71-5.29,0-8.82,4.71-14.71,17.06l-8.82,21.18,1.76,3.82c5.88,7.94,11.18,13.53,17.65,13.53,3.53,0,7.35-1.76,13.24-7.65l2.94,4.12c-6.47,7.94-14.71,12.35-22.06,12.35-8.82,0-16.47-7.94-22.06-14.12-8.24,8.82-17.65,14.12-30.59,14.12-18.53,0-35.3-11.77-31.18-38.24,3.53-15.88,15.59-26.47,29.41-35.3-4.12-10.59-6.47-23.53-4.71-33.24,3.24-20.3,21.47-32.06,37.06-32.06,18.24,0,26.47,12.35,23.53,26.47-1.47,7.35-4.71,14.12-12.35,20.59-7.94,7.06-21.18,13.24-28.53,17.65,4.71,11.77,11.77,25,21.77,42.06,2.94-5.88,7.35-16.47,11.77-25,3.82-8.82,10-14.12,19.12-14.12,12.65,0,16.18,8.82,15.59,14.12ZM31.33,350.62c-1.76,10.88,5,25.59,22.65,25.59,8.82,0,14.71-2.35,20.59-9.71-11.18-15.88-19.12-31.18-25.59-46.47-8.82,7.65-15.3,16.18-17.65,30.59ZM85.74,286.8c3.82-5,5-8.82,5.88-12.94,2.06-10.59-4.12-17.65-13.24-17.65-11.77,0-20.59,9.71-21.18,18.82-2.06,10-.88,19.71,2.35,30,7.06-4.12,21.77-13.24,26.47-18.24h-.29Z"/>
</svg>
