<?xml version="1.0" encoding="UTF-8"?>
<svg id="Black" xmlns="http://www.w3.org/2000/svg" version="1.1" viewBox="0 0 500 500">
  <defs>
    <style>
      .cls-1 {
        fill: #000;
        stroke-width: 0px;
      }
    </style>
  </defs>
  <path class="cls-1" d="M273.11,273.02c-10.23,0-20.46.01-30.69,0-6.13,0-12.73-.2-14.47,7.44-1.56,6.85,3.68,9.82,8.79,12.72,17.16,9.73,34.35,19.43,51.3,29.51,43.73,26,61.05,82.08,39.63,127.09-2.84,5.97-4.95,8.89-12.33,4.58-54.77-31.99-109.9-63.36-164.72-95.25-28.6-16.64-45.29-41.52-49.5-74.54-7.43-58.31,36.73-110.5,95.93-111.35,64.55-.93,129.12-.14,193.68-.34,7.22-.02,9.71,1.55,8.73,9.51-6.62,53.7-47.82,90.54-102.01,90.61-8.11.01-16.23,0-24.34,0Z"/>
  <path class="cls-1" d="M300.96,43.93c50.92.64,92.36,38.25,98.64,88.51,1.05,8.44-.37,11.91-9.94,11.85-63.14-.37-126.29.09-189.43-.31-51.82-.32-93.52-38.36-99.88-89.77-.94-7.63.61-10.73,9.08-10.63,32.8.4,160.51-.04,191.54.35Z"/>
</svg>