<?xml version="1.0" encoding="UTF-8"?>
<svg id="Color" xmlns="http://www.w3.org/2000/svg" version="1.1" viewBox="0 0 500 500">
  <defs>
    <style>
      .cls-1 {
        fill: #cb2027;
        stroke-width: 0px;
      }
    </style>
  </defs>
  <path class="cls-1" d="M259.94,43.2c-85.02,0-169.05,56.68-169.05,148.42,0,58.34,32.82,91.49,52.7,91.49,8.2,0,12.93-22.87,12.93-29.34,0-7.71-19.64-24.11-19.64-56.18,0-66.63,50.71-113.86,116.35-113.86,56.43,0,98.2,32.07,98.2,90.99,0,44-17.65,126.54-74.83,126.54-20.63,0-38.28-14.92-38.28-36.3,0-31.32,21.88-61.65,21.88-93.97,0-54.86-77.81-44.91-77.81,21.38,0,13.92,1.74,29.34,7.96,42.01-11.44,49.22-34.8,122.56-34.8,173.28,0,15.66,2.24,31.08,3.73,46.74,2.82,3.15,1.41,2.82,5.72,1.24,41.77-57.18,40.27-68.37,59.17-143.19,10.19,19.39,36.54,29.83,57.43,29.83,88.01,0,127.53-85.77,127.53-163.08,0-82.29-71.1-135.99-149.16-135.99Z"/>
</svg>