<?xml version="1.0" encoding="UTF-8"?>
<svg id="Color" xmlns="http://www.w3.org/2000/svg" version="1.1" xmlns:xlink="http://www.w3.org/1999/xlink" viewBox="0 0 500 500">
  <defs>
    <style>
      .cls-1 {
        fill: url(#linear-gradient);
      }

      .cls-1, .cls-2, .cls-3, .cls-4 {
        stroke-width: 0px;
      }

      .cls-2 {
        fill: url(#linear-gradient-2);
      }

      .cls-3 {
        fill: url(#linear-gradient-3);
      }

      .cls-4 {
        fill: #74a342;
      }
    </style>
    <linearGradient id="linear-gradient" x1="111.86" y1="220.91" x2="220.6" y2="389.12" gradientUnits="userSpaceOnUse">
      <stop offset="0" stop-color="#73a342"/>
      <stop offset=".31" stop-color="#6e9d40"/>
      <stop offset=".7" stop-color="#618e3d"/>
      <stop offset="1" stop-color="#537e3a"/>
    </linearGradient>
    <linearGradient id="linear-gradient-2" x1="118.41" y1="278.39" x2="341.4" y2="121.35" gradientUnits="userSpaceOnUse">
      <stop offset="0" stop-color="#537e3a"/>
      <stop offset=".34" stop-color="#64923e"/>
      <stop offset=".68" stop-color="#6f9e41"/>
      <stop offset="1" stop-color="#73a342"/>
    </linearGradient>
    <linearGradient id="linear-gradient-3" x1="371.48" y1="175.42" x2="320.89" y2="248.56" gradientUnits="userSpaceOnUse">
      <stop offset="0" stop-color="#4e7a38"/>
      <stop offset=".02" stop-color="#4f7b38"/>
      <stop offset=".36" stop-color="#62913d"/>
      <stop offset=".7" stop-color="#6e9e40"/>
      <stop offset="1" stop-color="#73a342"/>
    </linearGradient>
  </defs>
  <path class="cls-4" d="M210.78,181.59c10.48.08,20.32,3,29.94,6.8,17.19,6.78,32.8,16.19,46.39,28.74,5.99,5.53,11.23,11.72,14.54,19.32,2.81,6.44,2.64,12.68-.78,18.89-2.5,4.55-5.51,8.75-9.01,12.52-17.62,19-38.42,33.45-62.7,42.7-6.88,2.62-14.01,4.39-21.47,4.22-8.27-.18-14.88-3.51-19.78-10.27-5.17-7.13-7.94-15.25-9.89-23.67-3.73-16.09-4.09-32.37-2.54-48.76.85-9,2.62-17.78,5.61-26.31,1.62-4.63,3.74-9.01,6.48-13.11,4.98-7.44,11.92-11.15,20.88-11.08.77,0,1.55,0,2.33,0Z"/>
  <path class="cls-1" d="M320.01,321.34s-74.06,95.7-188.02,100.57c-102.91,4.39-75.56-226.79-72.19-257.27,3.38-30.48,19.65-97.72,79.28-95.22,0,0-35.51,48.74-27.23,150.18,6.38,78.13,25.13,154.8,63.66,160.93,43.06,6.84,91.29-20.71,144.49-59.19Z"/>
  <path class="cls-2" d="M438.78,250.13s26.3-40.66-27.88-91.22c-52.53-49.03-184.18-122.99-234.53-112.06-56.52,12.27-61.53,80.19-65.01,121.33-6.3,74.51,9.27,150.19,26.43,174.16,0,0-32.94-105.92-1.12-187.25,18.17-46.44,61.77-44.01,102.45-30.16,32.27,10.98,65.44,22.3,79.89,28.94,32.68,15,93.41,42.9,119.76,96.26Z"/>
  <path class="cls-3" d="M246.06,127.64s58.91,20.46,87.35,49.41c28.44,28.95,63.64,60.39,29.35,99.94-34.29,39.55-81.37,85.91-138.67,114.68-57.3,28.78-93.6,29.81-93.6,29.81,0,0,18.59,38.2,64.9,32.09,46.31-6.1,127.09-43.82,186.66-88.56,59.56-44.74,73.42-77.76,58.25-112.43-15.17-34.67-73.21-93.89-194.24-124.93Z"/>
</svg>