<?xml version="1.0" encoding="UTF-8"?>
<svg id="Color" xmlns="http://www.w3.org/2000/svg" version="1.1" viewBox="0 0 500 500">
  <defs>
    <style>
      .cls-1 {
        fill: #12519e;
        stroke-width: 0px;
      }
    </style>
  </defs>
  <path class="cls-1" d="M76.68,38.59c19.23,1.32,37.21,6.32,52.41,18.71,20.98,17.11,32,39.1,31.98,66.37-.03,57.19-.31,114.38.11,171.56.24,33.26,12.15,61.52,41.44,79.5,49.69,30.51,123.26,9.49,135.11-61.67.92-5.5,1.21-11.16,1.22-16.74.09-57.79-.04-115.58.09-173.37.08-36.23,24.23-68.96,58.87-79.67,7.73-2.39,15.9-3.37,24.46-5.13.29,3.07.59,4.81.59,6.55-.06,86.48,1.2,172.99-.62,259.44-1.65,78.68-53.57,138.36-129.76,153.2-39.58,7.71-78.88,6.15-116.51-9.51-53.29-22.19-84.62-62.51-95.41-118.88-1.76-9.19-2.68-18.54-3.99-27.81,0-87.52,0-175.03,0-262.55Z"/>
</svg>