<?xml version="1.0" encoding="UTF-8"?>
<svg id="Color" xmlns="http://www.w3.org/2000/svg" version="1.1" viewBox="0 0 500 500">
  <defs>
    <style>
      .cls-1 {
        fill: #5865f2;
        stroke-width: 0px;
      }
    </style>
  </defs>
  <path class="cls-1" d="M393.87,119.05c-.11-.22-.31-.4-.54-.49-26.82-12.3-55.11-21.08-84.19-26.1-.54-.1-1.09.16-1.35.64-3.85,6.99-7.35,14.18-10.48,21.52-31.34-4.76-63.22-4.76-94.56,0-3.15-7.37-6.7-14.55-10.65-21.52-.28-.47-.81-.73-1.35-.64-29.08,5.01-57.38,13.79-84.19,26.1-.23.1-.42.26-.55.48-53.62,80.07-68.31,158.18-61.1,235.32.04.38.24.73.54.97,31.22,23.12,66.14,40.76,103.28,52.18.54.16,1.11-.03,1.45-.48,7.98-10.85,15.04-22.34,21.13-34.36.33-.64.07-1.43-.57-1.76-.05-.02-.09-.04-.14-.06-11.14-4.26-21.93-9.4-32.26-15.37-.63-.37-.84-1.18-.47-1.81.09-.15.2-.28.34-.38,2.17-1.62,4.34-3.31,6.41-5.02.38-.31.89-.38,1.34-.18,67.69,30.89,140.97,30.89,207.85,0,.44-.21.97-.15,1.35.16,2.07,1.71,4.24,3.41,6.42,5.04.59.44.71,1.27.27,1.85-.1.14-.23.26-.38.34-10.31,6.02-21.11,11.15-32.28,15.36-.68.26-1.02,1.02-.76,1.7.02.05.04.09.06.13,6.19,11.95,13.24,23.42,21.11,34.34.33.46.91.66,1.45.49,37.2-11.38,72.18-29.03,103.44-52.18.31-.22.5-.57.54-.95,8.63-89.18-14.44-166.64-61.15-235.32ZM181.41,307.38c-20.38,0-37.17-18.7-37.17-41.67s16.47-41.67,37.17-41.67,37.5,18.87,37.17,41.67c0,22.97-16.47,41.67-37.17,41.67ZM318.84,307.38c-20.38,0-37.17-18.7-37.17-41.67s16.47-41.67,37.17-41.67,37.5,18.87,37.17,41.67c0,22.97-16.3,41.67-37.17,41.67Z"/>
</svg>