<?xml version="1.0" encoding="UTF-8"?>
<svg id="Color" xmlns="http://www.w3.org/2000/svg" version="1.1" viewBox="0 0 500 500">
  <defs>
    <style>
      .cls-1 {
        fill: #000;
        stroke-width: 0px;
      }
    </style>
  </defs>
  <path class="cls-1" d="M410.58,38.16h39.23c-53.31,62.82-105.01,123.76-157.06,185.09,54.56,79.25,108.73,157.93,164.04,238.26h-124.76c-35.29-51.58-71-103.76-107.77-157.5-45.46,53.46-89.95,105.78-134.21,157.84h-39.84c52.97-62.39,104.37-122.93,156.26-184.05C152.11,198.12,98.27,119.2,43.2,38.5h122.24c35.72,51.84,72.14,104.68,109.51,158.91,45.65-53.6,90.72-106.52,135.63-159.25ZM96.31,66.12c84.61,123.97,167.78,245.83,250.56,367.12h56.16c-85.02-123.41-168.97-245.27-252.9-367.12h-53.82Z"/>
</svg>