<?xml version="1.0" encoding="UTF-8"?>
<svg id="Color" xmlns="http://www.w3.org/2000/svg" version="1.1" viewBox="0 0 500 500">
  <defs>
    <style>
      .cls-1 {
        fill: #9d1d21;
        stroke-width: 0px;
      }
    </style>
  </defs>
  <rect class="cls-1" x="230" y="43.2" width="42.48" height="119.04" rx="9.96" ry="9.96"/>
  <rect class="cls-1" x="230" y="308.83" width="42.48" height="147.96" rx="9.96" ry="9.96"/>
  <rect class="cls-1" x="319.62" y="213.13" width="119.04" height="42.48" rx="9.96" ry="9.96"/>
  <path class="cls-1" d="M272.38,232.21s-.01-.07-.02-.11c-.07-.67-.17-1.33-.3-1.99,0-.04-.02-.08-.03-.12-.81-3.91-2.73-7.64-5.76-10.68l-106.86-106.86c-3.89-3.89-10.19-3.89-14.08,0l-15.96,15.96c-3.89,3.89-3.89,10.19,0,14.08l70.64,70.64H71.3c-5.5,0-9.96,4.46-9.96,9.96v22.57c0,5.5,4.46,9.96,9.96,9.96h128.66l-70.6,70.6c-3.89,3.89-3.89,10.19,0,14.08l15.96,15.96c3.89,3.89,10.19,3.89,14.08,0l106.86-106.86c.5-.5.96-1.02,1.41-1.56.2-.25.38-.5.57-.76.23-.3.46-.6.67-.91.2-.3.38-.62.56-.93.17-.29.35-.56.51-.86.17-.32.31-.64.46-.96.14-.31.3-.61.43-.92.13-.31.23-.63.35-.95.12-.34.25-.67.35-1.01.1-.32.17-.64.25-.96.09-.35.19-.7.26-1.05.07-.37.12-.75.17-1.12.04-.31.1-.62.13-.93.07-.7.11-1.41.1-2.12,0-.71-.04-1.43-.11-2.14Z"/>
  <path class="cls-1" d="M308.58,189.57c3.89,3.89,10.19,3.89,14.08,0l48.09-48.09c3.89-3.89,3.89-10.19,0-14.08l-15.96-15.96c-3.89-3.89-10.19-3.89-14.08,0l-48.09,48.09c-3.89,3.89-3.89,10.19,0,14.08l15.96,15.96Z"/>
  <path class="cls-1" d="M322.66,277.67c-3.89-3.89-10.19-3.89-14.08,0l-15.96,15.96c-3.89,3.89-3.89,10.19,0,14.08l48.09,48.09c3.89,3.89,10.19,3.89,14.08,0l15.96-15.96c3.89-3.89,3.89-10.19,0-14.08l-48.09-48.09Z"/>
</svg>