<?xml version="1.0" encoding="UTF-8"?>
<svg id="Color" xmlns="http://www.w3.org/2000/svg" version="1.1" viewBox="0 0 500 500">
  <defs>
    <style>
      .cls-1 {
        fill: #644a9d;
      }

      .cls-1, .cls-2 {
        stroke-width: 0px;
      }

      .cls-2 {
        fill: #fff;
      }
    </style>
  </defs>
  <path class="cls-1" d="M461.84,135.38v229.25c0,53.69-43.53,97.22-97.22,97.22h-229.25c-53.69,0-97.22-43.53-97.22-97.22v-229.25c0-53.69,43.53-97.22,97.22-97.22h229.25c53.69,0,97.22,43.53,97.22,97.22Z"/>
  <path class="cls-2" d="M341.41,358.93h-6.66c-19.58,0-39.16,0-58.74,0-1.2,0-2.41-.03-3.61,0-3.62.13-3.72.14-3.74,3.82-.06,9.94-.02,19.89-.02,29.83,0,1.37.04,2.74-.01,4.11-.12,3.25-.14,3.35-3.59,3.36-11.85.05-23.7.04-35.55,0-3.78-.01-3.85-.09-3.86-4.12-.04-10.63,0-21.26-.02-31.89,0-5.08-.04-5.12-5.02-5.12-17.86-.02-35.72,0-53.59,0-1.2,0-2.41.03-3.61,0-3.84-.11-3.91-.11-4.03-4.1-.28-9.24-.43-18.49-.75-27.74-.09-2.54.56-4.56,2.15-6.6,34.22-43.77,68.39-87.59,102.56-131.4,1.45-1.86,2.85-3.75,4.7-6.19-1.81-.26-2.91-.56-4.01-.56-6.7-.04-13.4-.09-20.09,0-11.84.14-23.68.45-35.52.56-12.88.11-25.76.08-38.64.1-5.27,0-4.95.26-4.95-5.12,0-9.77-.02-19.54,0-29.32.01-5.7-.63-5.68,5.51-5.69,16.14-.02,32.29-.07,48.43-.09,7.94-.01,6.82.24,6.86-6.99.05-10.63-.01-21.26.03-31.89.01-3.88.09-3.96,4.02-3.97,11.68-.04,23.36-.04,35.04,0,3.86.01,3.93.09,3.95,4.04.04,11.14,0,22.29.02,33.43.01,4.71.06,4.76,4.87,4.76,17.35,0,34.69-.04,52.04-.06,1.2,0,2.41-.04,3.61.01,3.25.13,3.27.14,3.37,3.59.05,1.71.01,3.43.01,5.14,0,7.03-.13,14.06.06,21.09.08,3.1-.74,5.57-2.65,8.01-13.45,17.13-26.81,34.33-40.2,51.51-20.88,26.78-41.77,53.55-62.64,80.33-.82,1.05-1.54,2.19-2.84,4.07,2.52.06,4.31.13,6.09.13,26.11,0,52.21.08,78.32-.08,3.95-.02,6.07.88,7.65,4.85,5.06,12.67,12.22,24.14,21.67,34.09.92.97,1.72,2.06,3.41,4.1Z"/>
</svg>