<?xml version="1.0" encoding="UTF-8"?>
<svg id="Color" xmlns="http://www.w3.org/2000/svg" version="1.1" viewBox="0 0 500 500">
  <defs>
    <style>
      .cls-1 {
        fill: #0d0d08;
      }

      .cls-1, .cls-2, .cls-3 {
        stroke-width: 0px;
      }

      .cls-2 {
        fill: #fff;
      }

      .cls-3 {
        fill: #f6eb1f;
      }
    </style>
  </defs>
  <path class="cls-3" d="M456.77,250.05c0,47.02-.07,94.04.03,141.05.06,29.08-19.91,56.06-49.68,63.62-5.27,1.34-10.63,1.99-16.08,1.99-94.13-.01-188.26.05-282.39-.05-19.23-.02-35.39-7.55-48.38-21.68-8.8-9.57-14.1-20.93-16.21-33.74-.55-3.34-.83-6.73-.83-10.13.01-93.97-.1-187.94.08-281.91.05-23.56,10.45-42.05,29.96-55.25,8.85-5.99,18.76-9.3,29.42-10.34,2.28-.22,4.56-.31,6.84-.31,93.94,0,187.87-.04,281.81.04,18.62.02,34.44,7.08,47.35,20.47,9.08,9.42,14.68,20.68,17.11,33.51.68,3.59,1,7.22,1,10.89-.02,47.28-.01,94.56-.01,141.84ZM165.23,200.32c.24,4.21.43,7.79.64,11.38.21,3.58.45,7.17.66,10.75.09,1.54.08,1.55-1.4,2.05-2.41.81-4.88.81-7.35.47-3.71-.5-7.26-1.61-10.58-3.29-6.5-3.28-15.2.16-18.74,4.73-2.68,3.47-2.92,7.6-.59,11.31,1.31,2.08,3.11,3.68,5.12,5.06,3.52,2.41,7.37,4.14,11.42,5.48,3.65,1.21,7.34,2.27,10.84,3.9,2.32,1.08,4.53,2.32,6.35,4.16,1.83,1.85,2.79,4.03,2.74,6.68-.04,2.14-.61,4.12-1.43,6.05-1.73,4.09-3.78,8.02-6.1,11.81-6.92,11.31-15.37,21.24-26.15,29.08-8.99,6.53-18.9,10.94-29.9,12.8-4.46.75-6.75,4.48-5.46,8.83.58,1.94,1.76,3.48,3.19,4.85,2.15,2.05,4.71,3.49,7.38,4.73,4.51,2.09,9.25,3.48,14.06,4.68,5.06,1.27,10.18,2.19,15.32,3.03.93.15,1.4.52,1.63,1.36.38,1.38.8,2.75,1.15,4.14.74,2.97,1.34,5.98,2.17,8.93,1.11,3.96,3.51,5.67,7.58,5.72,1.91.02,3.77-.27,5.62-.65,7.95-1.64,15.92-2.59,24.08-1.88,6.42.56,12.4,2.2,17.91,5.57,3.79,2.32,7.41,4.88,11.03,7.44,5.28,3.72,10.62,7.35,16.49,10.11,5.88,2.76,12.01,4.59,18.5,5.3,3.79.42,7.56.28,11.35.3,5.05.03,9.98-.84,14.83-2.25,7.09-2.06,13.5-5.5,19.59-9.59,4.77-3.2,9.43-6.55,14.21-9.74,4.03-2.69,8.28-4.96,13.05-6.06,2.73-.63,5.53-.86,8.32-1.13,4.91-.47,9.78-.27,14.64.4,4.19.57,8.35,1.4,12.55,1.93,4.83.61,8.21-1.4,9.27-6.01.45-1.97.98-3.92,1.45-5.88.53-2.22.96-4.46,1.69-6.63.27-.81.66-1.27,1.62-1.4,2.06-.26,4.11-.69,6.16-1.08,6.59-1.25,13.13-2.71,19.44-5.06,3.68-1.37,7.24-2.98,10.31-5.49,1.8-1.46,3.27-3.17,4.02-5.43,1.46-4.38-.82-8.27-5.35-9.04-10.25-1.74-19.63-5.64-28.13-11.56-14.38-10-24.88-23.29-32.56-38.91-.98-1.99-1.93-3.99-2.49-6.15-1.15-4.44-.04-8.11,3.63-10.96,1.14-.88,2.35-1.64,3.63-2.3,2.85-1.47,5.85-2.53,8.9-3.49,4.23-1.32,8.4-2.79,12.28-5,2.57-1.47,4.95-3.16,6.82-5.5,3.44-4.32,3.16-9.79-.78-13.63-4.21-4.11-12.53-6.97-19.39-3.58-2.63,1.3-5.42,2.21-8.27,2.89-2.57.61-5.14.86-7.73.07-1.61-.49-1.72-.6-1.63-2.31.28-5.28.59-10.56.89-15.84.64-11.35,1.06-22.7-.1-34.04-.52-5.07-1.2-10.14-2.99-14.92-6-15.96-15.87-28.99-30.03-38.61-13.45-9.13-28.5-13.57-44.63-14.35-9.66-.47-19.3,0-28.79,2.21-18.62,4.31-34.22,13.48-46.08,28.61-8.75,11.17-14.54,23.58-15.56,37.97-.65,9.2-.59,18.4-.3,26.98Z"/>
  <path class="cls-1" d="M165.23,200.32c-.29-8.58-.35-17.78.3-26.98,1.02-14.39,6.81-26.8,15.56-37.97,11.86-15.13,27.46-24.3,46.08-28.61,9.49-2.2,19.13-2.68,28.79-2.21,16.13.78,31.17,5.22,44.63,14.35,14.16,9.61,24.03,22.64,30.03,38.61,1.8,4.78,2.48,9.85,2.99,14.92,1.16,11.34.75,22.69.1,34.04-.3,5.28-.61,10.56-.89,15.84-.09,1.71.02,1.82,1.63,2.31,2.58.79,5.15.54,7.73-.07,2.86-.68,5.64-1.58,8.27-2.89,6.86-3.4,15.18-.53,19.39,3.58,3.94,3.84,4.22,9.3.78,13.63-1.86,2.34-4.25,4.03-6.82,5.5-3.87,2.21-8.04,3.68-12.28,5-3.05.95-6.05,2.02-8.9,3.49-1.28.66-2.49,1.41-3.63,2.3-3.67,2.84-4.78,6.52-3.63,10.96.56,2.16,1.51,4.16,2.49,6.15,7.68,15.62,18.18,28.9,32.56,38.91,8.51,5.92,17.88,9.82,28.13,11.56,4.53.77,6.81,4.66,5.35,9.04-.75,2.25-2.23,3.96-4.02,5.43-3.07,2.51-6.63,4.12-10.31,5.49-6.31,2.35-12.85,3.81-19.44,5.06-2.05.39-4.09.81-6.16,1.08-.96.12-1.35.59-1.62,1.4-.73,2.17-1.16,4.41-1.69,6.63-.47,1.97-1,3.92-1.45,5.88-1.05,4.62-4.44,6.63-9.27,6.01-4.2-.53-8.36-1.36-12.55-1.93-4.86-.66-9.73-.87-14.64-.4-2.79.27-5.59.5-8.32,1.13-4.77,1.1-9.03,3.37-13.05,6.06-4.78,3.19-9.44,6.54-14.21,9.74-6.09,4.09-12.5,7.52-19.59,9.59-4.85,1.41-9.78,2.28-14.83,2.25-3.78-.02-7.56.11-11.35-.3-6.49-.71-12.62-2.54-18.5-5.3-5.87-2.76-11.21-6.39-16.49-10.11-3.63-2.56-7.24-5.12-11.03-7.44-5.51-3.37-11.49-5.01-17.91-5.57-8.16-.72-16.13.24-24.08,1.88-1.85.38-3.71.67-5.62.65-4.07-.05-6.47-1.75-7.58-5.72-.83-2.95-1.43-5.95-2.17-8.93-.34-1.39-.77-2.76-1.15-4.14-.23-.84-.7-1.21-1.63-1.36-5.14-.85-10.26-1.77-15.32-3.03-4.81-1.2-9.55-2.59-14.06-4.68-2.68-1.24-5.23-2.68-7.38-4.73-1.44-1.37-2.62-2.91-3.19-4.85-1.3-4.35.99-8.07,5.46-8.83,11-1.86,20.91-6.27,29.9-12.8,10.78-7.83,19.23-17.77,26.15-29.08,2.32-3.79,4.37-7.72,6.1-11.81.82-1.93,1.39-3.91,1.43-6.05.05-2.65-.91-4.83-2.74-6.68-1.82-1.83-4.03-3.08-6.35-4.16-3.5-1.62-7.19-2.69-10.84-3.9-4.04-1.34-7.89-3.07-11.42-5.48-2.01-1.38-3.81-2.97-5.12-5.06-2.33-3.71-2.1-7.84.59-11.31,3.54-4.57,12.24-8.01,18.74-4.73,3.33,1.68,6.88,2.79,10.58,3.29,2.47.33,4.95.34,7.35-.47,1.49-.5,1.5-.51,1.4-2.05-.22-3.58-.45-7.17-.66-10.75-.21-3.58-.41-7.17-.64-11.38ZM397.73,329.48c-.26-.33-.56-.43-.89-.49-11.3-1.94-21.57-6.38-30.89-12.99-15.21-10.78-26.31-24.99-34.34-41.7-.96-2-1.84-4.02-2.44-6.17-2.06-7.42.04-13.74,6.15-18.37,1.36-1.03,2.8-1.91,4.31-2.69,2.84-1.47,5.82-2.58,8.86-3.56,4.08-1.31,8.2-2.56,11.95-4.71,1.87-1.07,3.71-2.21,5.04-3.97,1.49-1.98,1.35-3.46-.43-5.16-2.98-2.84-8.1-3.78-11.82-2.12-1.72.77-3.46,1.53-5.26,2.09-4.17,1.3-8.37,2.48-12.83,1.74-2.94-.49-5.66-1.48-7.94-3.48-.84-.74-1.2-1.55-1.12-2.73.37-5.4.61-10.82.96-16.23.73-11.22,1.15-22.43.32-33.66-.37-5.02-.94-10.04-2.62-14.8-4.55-12.91-12.15-23.77-22.74-32.44-12.77-10.46-27.67-15.68-43.98-16.86-7.34-.53-14.74-.44-22.08.59-7.32,1.03-14.41,2.87-21.2,5.79-17.67,7.58-30.12,20.46-38.21,37.75-1.81,3.87-2.91,7.94-3.62,12.14-1.18,6.98-1.46,14.02-1.43,21.07.05,11.89.9,23.75,1.74,35.6.16,2.25-.6,3.58-2.28,4.7-3.7,2.46-7.83,3.14-12.15,2.8-4.92-.38-9.66-1.67-14.01-3.93-3.04-1.58-8.46-.35-10.93,2.43-1.29,1.45-1.37,2.82-.24,4.43.8,1.13,1.84,2.02,2.97,2.81,2.91,2.04,6.11,3.45,9.45,4.6,3.07,1.06,6.21,1.94,9.23,3.14,3.72,1.47,7.28,3.22,10.25,5.95,4.18,3.85,6,8.57,5.18,14.26-.37,2.61-1.21,5.06-2.29,7.44-5.4,11.95-12.69,22.62-21.84,32-9.86,10.1-21.29,17.75-34.85,22.01-2.98.94-6,1.72-9.08,2.22-1.19.19-1.31.5-.65,1.54.46.73,1.09,1.3,1.76,1.83,1.02.82,2.14,1.49,3.3,2.09,3.72,1.92,7.67,3.2,11.69,4.31,6.09,1.69,12.3,2.83,18.53,3.82,2.45.39,4,1.74,5.07,3.82.75,1.46,1.24,3.01,1.61,4.6.8,3.36,1.56,6.73,2.4,10.08.38,1.53.64,1.67,2.22,1.44,1.67-.25,3.34-.53,5-.86,6.09-1.2,12.22-2.06,18.44-1.99,2.93.04,5.86.27,8.78.62,4.03.48,7.94,1.35,11.68,2.96,5.18,2.23,9.84,5.35,14.42,8.57,4.91,3.45,9.75,6.99,15,9.92,7.87,4.39,16.23,7.01,25.33,6.93,1.37-.01,2.74,0,4.11.02,5.39.05,10.64-.72,15.77-2.39,6.38-2.07,12.11-5.39,17.63-9.11,5.03-3.39,9.88-7.03,15.03-10.26,6.48-4.06,13.5-6.32,21.11-6.95,7.99-.66,15.89-.17,23.75,1.37,2.04.4,4.09.85,6.18.91,1.79.06,1.84.06,2.26-1.61.63-2.46,1.19-4.94,1.77-7.41.56-2.41,1.1-4.83,2.27-7.05,1.03-1.95,2.5-3.28,4.79-3.61,2.06-.29,4.11-.7,6.16-1.07,6.34-1.16,12.62-2.54,18.7-4.71,2.82-1.01,5.59-2.16,8.05-3.9,1.27-.89,2.56-1.81,2.96-3.43Z"/>
  <path class="cls-2" d="M397.73,329.48c-.4,1.62-1.69,2.53-2.96,3.43-2.47,1.74-5.23,2.89-8.05,3.9-6.08,2.17-12.37,3.56-18.7,4.71-2.05.37-4.09.78-6.16,1.07-2.29.33-3.76,1.66-4.79,3.61-1.17,2.21-1.7,4.64-2.27,7.05-.58,2.47-1.14,4.95-1.77,7.41-.43,1.67-.47,1.67-2.26,1.61-2.09-.07-4.14-.51-6.18-.91-7.86-1.55-15.76-2.03-23.75-1.37-7.61.63-14.63,2.89-21.11,6.95-5.14,3.22-10,6.87-15.03,10.26-5.52,3.72-11.25,7.04-17.63,9.11-5.13,1.67-10.39,2.44-15.77,2.39-1.37-.01-2.74-.03-4.11-.02-9.1.07-17.46-2.54-25.33-6.93-5.25-2.93-10.09-6.47-15-9.92-4.59-3.22-9.24-6.34-14.42-8.57-3.74-1.61-7.65-2.47-11.68-2.96-2.92-.35-5.85-.58-8.78-.62-6.22-.08-12.35.79-18.44,1.99-1.66.33-3.33.61-5,.86-1.58.24-1.84.09-2.22-1.44-.83-3.35-1.6-6.72-2.4-10.08-.38-1.59-.86-3.14-1.61-4.6-1.08-2.08-2.63-3.44-5.07-3.82-6.23-.99-12.44-2.13-18.53-3.82-4.01-1.11-7.97-2.39-11.69-4.31-1.16-.6-2.28-1.27-3.3-2.09-.66-.53-1.3-1.1-1.76-1.83-.66-1.04-.54-1.35.65-1.54,3.09-.5,6.11-1.29,9.08-2.22,13.56-4.26,24.99-11.91,34.85-22.01,9.16-9.38,16.44-20.05,21.84-32,1.08-2.39,1.91-4.83,2.29-7.44.82-5.69-1-10.41-5.18-14.26-2.97-2.74-6.53-4.48-10.25-5.95-3.03-1.2-6.16-2.09-9.23-3.14-3.33-1.14-6.54-2.56-9.45-4.6-1.13-.79-2.18-1.68-2.97-2.81-1.13-1.61-1.05-2.98.24-4.43,2.47-2.78,7.89-4.01,10.93-2.43,4.35,2.26,9.09,3.55,14.01,3.93,4.32.34,8.45-.35,12.15-2.8,1.68-1.11,2.44-2.45,2.28-4.7-.84-11.85-1.69-23.71-1.74-35.6-.03-7.06.25-14.1,1.43-21.07.71-4.19,1.81-8.27,3.62-12.14,8.09-17.29,20.54-30.16,38.21-37.75,6.79-2.91,13.87-4.76,21.2-5.79,7.35-1.03,14.74-1.12,22.08-.59,16.3,1.18,31.21,6.41,43.98,16.86,10.59,8.67,18.19,19.52,22.74,32.44,1.68,4.76,2.25,9.78,2.62,14.8.83,11.23.41,22.45-.32,33.66-.35,5.41-.58,10.82-.96,16.23-.08,1.18.28,1.99,1.12,2.73,2.28,2.01,4.99,2.99,7.94,3.48,4.46.74,8.66-.44,12.83-1.74,1.8-.56,3.53-1.32,5.26-2.09,3.73-1.67,8.85-.73,11.82,2.12,1.79,1.7,1.92,3.19.43,5.16-1.33,1.76-3.16,2.9-5.04,3.97-3.75,2.15-7.86,3.39-11.95,4.71-3.04.98-6.02,2.09-8.86,3.56-1.51.78-2.95,1.66-4.31,2.69-6.11,4.63-8.21,10.95-6.15,18.37.6,2.15,1.48,4.17,2.44,6.17,8.03,16.71,19.13,30.92,34.34,41.7,9.32,6.61,19.59,11.05,30.89,12.99.33.06.63.16.89.49Z"/>
</svg>