<?xml version="1.0" encoding="UTF-8"?>
<svg id="Color" xmlns="http://www.w3.org/2000/svg" version="1.1" viewBox="0 0 500 500">
  <defs>
    <style>
      .cls-1 {
        fill: #4b74a2;
        stroke-width: 0px;
      }
    </style>
  </defs>
  <path class="cls-1" d="M72.27,72.27c-29.07,29.07-29.07,75.87-29.07,169.45v16.54c0,93.58,0,140.38,29.07,169.45,29.07,29.07,75.87,29.07,169.45,29.07h16.54c93.58,0,140.38,0,169.45-29.07,29.07-29.07,29.07-75.87,29.07-169.45v-16.54c0-93.58,0-140.38-29.07-169.45-29.07-29.07-75.87-29.07-169.45-29.07h-16.54c-93.58,0-140.38,0-169.45,29.07ZM113,169h47.22c1.55,78.93,36.36,112.36,63.93,119.25v-119.25h44.46v68.07c27.23-2.93,55.84-33.95,65.49-68.07h44.46c-3.64,17.7-10.89,34.45-21.3,49.22-10.41,14.77-23.75,27.23-39.19,36.6,17.24,8.56,32.47,20.68,44.68,35.57,12.21,14.88,21.12,32.19,26.15,50.77h-48.94c-4.51-16.14-13.69-30.59-26.38-41.54-12.69-10.94-28.34-17.9-44.96-19.98v61.52h-5.34c-94.27,0-148.03-64.62-150.27-172.16Z"/>
</svg>