<?xml version="1.0" encoding="UTF-8"?>
<svg id="Color" xmlns="http://www.w3.org/2000/svg" version="1.1" xmlns:xlink="http://www.w3.org/1999/xlink" viewBox="0 0 500 500">
  <defs>
    <style>
      .cls-1 {
        fill: url(#linear-gradient);
      }

      .cls-1, .cls-2 {
        stroke-width: 0px;
      }

      .cls-2 {
        fill: #fff;
      }
    </style>
    <linearGradient id="linear-gradient" x1="119.79" y1="468.52" x2="361.25" y2="63.29" gradientUnits="userSpaceOnUse">
      <stop offset="0" stop-color="#fbb216"/>
      <stop offset=".12" stop-color="#f7a527"/>
      <stop offset=".34" stop-color="#f06a49"/>
      <stop offset=".52" stop-color="#e74356"/>
      <stop offset=".7" stop-color="#cb2e7a"/>
      <stop offset=".84" stop-color="#9f4398"/>
      <stop offset=".99" stop-color="#5a449a"/>
    </linearGradient>
  </defs>
  <rect class="cls-2" x="78.29" y="77.24" width="343.42" height="354.61"/>
  <path class="cls-1" d="M302.17,250c0,28.76-23.45,52.14-52.14,52.14s-52.14-23.38-52.14-52.14,23.38-52.14,52.14-52.14,52.14,23.38,52.14,52.14ZM378.25,250c0,22.75,1.88,71.68-6.28,92.2-5.44,13.68-15.98,24.22-29.73,29.73-20.59,8.17-69.45,6.28-92.2,6.28s-71.68,1.81-92.2-6.28c-13.68-5.44-24.22-15.98-29.73-29.73-8.17-20.59-6.28-69.45-6.28-92.2s-1.82-71.68,6.28-92.2c5.44-13.68,15.98-24.22,29.73-29.73,20.59-8.17,69.45-6.28,92.2-6.28s71.68-1.81,92.2,6.28c13.68,5.44,24.22,15.98,29.73,29.73,8.17,20.59,6.28,69.45,6.28,92.2ZM330.23,250c0-44.39-35.81-80.2-80.2-80.2s-80.2,35.81-80.2,80.2,35.81,80.2,80.2,80.2,80.2-35.81,80.2-80.2ZM352.22,166.52c0-10.33-8.38-18.71-18.71-18.71s-18.71,8.38-18.71,18.71,8.31,18.71,18.71,18.71,18.71-8.31,18.71-18.71ZM461.84,135.38v229.25c0,53.69-43.53,97.22-97.22,97.22h-229.25c-53.69,0-97.22-43.53-97.22-97.22v-229.25c0-53.69,43.53-97.22,97.22-97.22h229.25c53.69,0,97.22,43.53,97.22,97.22ZM405.33,185.51c-1.19-25.06-6.91-47.25-25.27-65.54-18.29-18.29-40.48-24.01-65.54-25.27-25.83-1.47-103.23-1.47-129.05,0-24.99,1.19-47.18,6.91-65.54,25.2-18.36,18.29-24.01,40.48-25.27,65.54-1.47,25.82-1.47,103.23,0,129.05,1.19,25.06,6.91,47.25,25.27,65.54,18.36,18.29,40.48,24.01,65.54,25.27,25.82,1.47,103.23,1.47,129.05,0,25.06-1.19,47.25-6.91,65.54-25.27,18.29-18.29,24.01-40.48,25.27-65.54,1.47-25.82,1.47-103.16,0-128.98Z"/>
</svg>