<?xml version="1.0" encoding="UTF-8"?>
<svg id="Color" xmlns="http://www.w3.org/2000/svg" version="1.1" viewBox="0 0 500 500">
  <defs>
    <style>
      .cls-1 {
        fill: #ef4a23;
      }

      .cls-1, .cls-2, .cls-3 {
        stroke-width: 0px;
      }

      .cls-2 {
        fill: #ef4b23;
      }

      .cls-3 {
        fill: #ef4c24;
      }
    </style>
  </defs>
  <path class="cls-1" d="M456.8,249.86c.03,114.35-92.34,207.24-206.82,207.23-114.92-.01-207.89-93.69-206.77-209.19,1.1-113.62,93.5-205.17,207.12-205,113.97.16,206.47,92.85,206.47,206.96ZM256.41,202.51c-.04-.37-.08-.48-.06-.57,4.39-20.72,8.78-41.44,13.19-62.16.41-1.95.49-1.96,2.59-1.51,13.5,2.89,27,5.8,40.51,8.65,1.7.36,2.27,1.09,2.52,2.9,1.61,11.54,12.46,19.53,24.32,17.9,11.07-1.52,19.43-11.83,18.21-23.5-.89-8.56-7.02-16.01-15.22-18.33-8.75-2.48-17.73.09-22.81,7.43-2.27,3.27-4.38,3.92-7.69,2.69-.29-.11-.61-.16-.92-.22-14.22-3.03-28.45-6.08-42.68-9.08-4.66-.98-6.8.44-7.76,4.98-4.84,22.78-9.67,45.57-14.5,68.35-.56,2.65-.56,2.71-3.14,2.86-5.48.34-10.94.75-16.38,1.54-21.99,3.2-42.58,10.15-61.05,22.76-1.34.91-2.21.95-3.51-.12-6.79-5.56-14.61-7.79-23.32-6.71-14.39,1.78-26.66,14.29-26.1,30.77.38,11.28,5.81,19.86,15.66,25.46,1.57.89,2.01,1.79,1.77,3.48-.78,5.36-.54,10.73.31,16.07,2.37,14.81,9.58,27.12,19.86,37.74,11.72,12.1,25.86,20.53,41.47,26.59,15.46,6,31.5,9.23,48.04,10.27,19.9,1.25,39.42-.83,58.49-6.56,17.77-5.34,34.05-13.54,47.9-26.11,7.98-7.24,14.57-15.55,19.07-25.4,4.84-10.59,6.79-21.68,5.2-33.29-.17-1.27.18-1.93,1.3-2.42.77-.33,1.47-.83,2.17-1.29,14.35-9.28,18.45-28.1,9.19-42.23-9.76-14.9-29.91-18.09-44.13-6.98-2.12,1.66-2.13,1.67-4.21.26-14.76-10-31.04-16.4-48.36-20.31-9.8-2.21-19.73-3.42-29.92-3.91Z"/>
  <path class="cls-2" d="M181.22,271.42c0-11.93,9.55-21.4,21.57-21.35,11.75.04,21.31,9.65,21.28,21.37-.03,11.91-9.6,21.53-21.48,21.6-11.85.07-21.36-9.55-21.37-21.61Z"/>
  <path class="cls-2" d="M297.55,293.25c-11.94.06-21.85-9.7-21.64-21.7.22-12.58,10.1-21.21,21.41-21.31,11.67-.11,21.45,9.62,21.54,21.2.09,11.77-9.67,21.75-21.31,21.81Z"/>
  <path class="cls-3" d="M250.7,344.5c-11.83-.37-23.22-1.57-34.17-5.53-5.09-1.84-9.89-4.21-14.15-7.58-1.15-.91-2.28-1.89-3.27-2.97-2.13-2.33-2.06-5.53.05-7.68,1.99-2.03,5.15-2.28,7.46-.39,1.96,1.6,3.8,3.32,6.02,4.59,5.92,3.42,12.34,5.35,19.01,6.58,14.63,2.7,29.16,2.37,43.57-1.44,6.79-1.8,13.13-4.48,18.35-9.43,2.33-2.21,5.71-2.05,7.69.01,2.04,2.12,2.08,5.73-.12,8.04-3.08,3.24-6.81,5.65-10.8,7.61-7.83,3.85-16.18,5.91-24.79,7.04-5.03.66-10.08.93-14.84,1.15Z"/>
</svg>