<?xml version="1.0" encoding="UTF-8"?>
<svg id="Color" xmlns="http://www.w3.org/2000/svg" version="1.1" viewBox="0 0 500 500">
  <defs>
    <style>
      .cls-1 {
        fill: #00f7ef;
      }

      .cls-1, .cls-2, .cls-3, .cls-4, .cls-5, .cls-6 {
        stroke-width: 0px;
      }

      .cls-2 {
        fill: #000;
      }

      .cls-3 {
        fill: #01f7ef;
      }

      .cls-4 {
        fill: #fe014f;
      }

      .cls-5 {
        fill: #fd014f;
      }

      .cls-6 {
        fill: #02f6ee;
      }
    </style>
  </defs>
  <path class="cls-2" d="M111.25,405.63s-.11-.13-.11-.13c-.24-.48-.42-1.01-.74-1.44-2.3-3.06-4.15-6.39-6.07-9.69-3.01-5.18-5.4-10.63-7.58-16.21-1.96-5.01-3.39-10.18-4.75-15.36-.94-3.56-1.52-7.22-2.06-10.87-.74-5.06-1.1-10.17-1.21-15.29-.08-3.84-.08-7.69.19-11.54.32-4.55.65-9.09,1.37-13.6,1.04-6.51,2.49-12.9,4.37-19.21.94-3.16,2-6.29,3.18-9.35,1.53-3.93,3.21-7.81,5.12-11.58,2.15-4.25,4.44-8.42,7.04-12.4,2.05-3.14,4.18-6.23,6.51-9.18,2.28-2.9,4.56-5.81,7.12-8.45,3.84-3.95,7.76-7.81,12.11-11.23,2.95-2.32,5.88-4.69,9.03-6.69,4.02-2.55,8.17-4.88,12.47-7,5.45-2.68,11.1-4.79,16.85-6.62,5.45-1.73,11.09-2.76,16.73-3.68,4.26-.7,8.58-.94,12.9-1.05,3.72-.1,7.44.13,11.15-.12.04.09.08.18.13.27-.27.72-.14,1.47-.14,2.21,0,17.38,0,34.77,0,52.15,0,.54-.02,1.08,0,1.62.03.69-.29,1-.96.96-.74-.05-1.48-.1-2.22-.17-3.07-.3-6.13-.8-9.23-.75-2.55.04-5.09.04-7.65.33-4.22.47-8.4.88-12.52,2.04-3.9,1.09-7.69,2.4-11.29,4.26-5.98,3.09-11.23,7.09-15.61,12.24-3.78,4.45-6.69,9.39-8.88,14.79-1.76,4.33-2.76,8.84-3.51,13.43-.8,4.88-.89,9.79-.34,14.7.62,5.42,1.75,10.74,3.62,15.88,1.18,3.24,2.55,6.4,4.44,9.27,3.05,4.65,6.91,8.58,11.44,11.81.89.64,1.74,1.49,2.94,1.63.13.13.27.27.4.4-.02.24.06.39.32.38l-.02-.03c-.07.5.16.92.41,1.32,2.24,3.55,4.84,6.84,7.98,9.58,5.74,5,12.28,8.63,19.57,10.93,4.78,1.51,9.71,2.2,14.65,2.67,2.58.24,5.21.09,7.85-.24,4.02-.51,7.97-1.09,11.88-2.22,4.18-1.2,8.1-2.97,11.83-5.09,4.07-2.31,7.68-5.27,11.04-8.61,4.3-4.26,7.66-9.12,10.54-14.35.73-1.33,1.58-2.67,1.94-4.19.57-2.48,1.17-4.97,1.61-7.46,1.13-6.42,1.81-12.94,1.81-19.44.08-87.72.06-175.44.06-263.16,0-2.39-.32-2.13,2.17-2.16.2,0,.41,0,.61,0,15.76,0,31.52,0,47.29,0,.74,0,1.49-.04,2.23-.06.05.05.11.09.18.13-.33,1.27.41,2.34.61,3.52,1,6.05,2.75,11.91,4.79,17.67,2.02,5.7,4.6,11.16,7.61,16.42,1.93,3.38,4.05,6.64,6.42,9.72,2.99,3.87,6.13,7.64,9.84,10.85,1.24,1.07,2.2,2.55,3.9,3.04,0,0-.01-.01-.01-.01-.05.3.08.45.38.46,0,0-.01-.03-.01-.03-.04.56.32.61.74.6.2.18.4.37.59.55.18.35.28.77.73.89,0,0-.02-.03-.02-.03,1.07,1.86,2.53,3.43,3.92,5.03,2.73,3.11,5.71,5.99,8.88,8.67,3.96,3.35,8.2,6.3,12.67,8.88,3.19,1.84,6.55,3.39,9.96,4.82,4.72,1.98,9.6,3.45,14.53,4.75,2.01.53,4.08.86,6.12,1.29,0,16.91,0,33.82.01,50.73,0,.2-.02.41,0,.61.11.99-.35,1.24-1.3,1.28-2.37.1-4.72-.24-7.07-.36-2.02-.1-4.06-.2-6.03-.59-5-1.01-10.13-1.34-15.07-2.68-2.27-.62-4.64-.9-6.91-1.51-5.2-1.41-10.35-2.94-15.46-4.66-4.22-1.42-8.36-3.07-12.4-4.89-6.05-2.73-11.96-5.81-17.47-9.56-3.17-2.15-6.32-4.31-9.2-6.87-.74-.66-1.49-1.44-2.45-1.97-.27.96-.15,1.77-.16,2.57,0,38.69.01,77.38-.03,116.07,0,6.69.15,13.37-.2,20.06-.32,6.12-.62,12.21-1.63,18.28-.78,4.65-1.63,9.28-2.76,13.85-.93,3.79-2.1,7.5-3.35,11.2-1.21,3.58-2.51,7.09-4.03,10.55-2.35,5.37-5.01,10.56-7.98,15.62-2.63,4.48-5.61,8.7-8.78,12.79-4.04,5.22-8.65,9.93-13.55,14.38-4.4,4-9.13,7.55-14.12,10.72-5.39,3.43-11.1,6.33-17.06,8.7-5.26,2.09-10.64,3.8-16.13,5.11-3.46.82-7,1.34-10.5,1.97-5.44.98-10.98.95-16.47,1.49-3.1.31-6.16-.57-9.26-.46-.81.03-1.63,0-2.43-.09-4.8-.59-9.61-1.08-14.39-1.9-6.72-1.15-13.33-2.64-19.7-5.09-3.89-1.5-7.76-3.05-11.55-4.81-4.46-2.07-8.82-4.32-12.98-6.91-4.45-2.77-8.78-5.72-12.87-9.03-1.17-.95-2.12-2.29-3.7-2.71-.56-.66-1.17-1.26-1.91-1.72.14-.39.11-.68-.42-.65,0,0,.02.02.02.02.35-.64-.23-.74-.56-.98Z"/>
  <path class="cls-4" d="M114.12,408.96c1.58.42,2.53,1.76,3.7,2.71,4.09,3.3,8.42,6.26,12.87,9.03,4.16,2.59,8.53,4.84,12.98,6.91,3.79,1.76,7.65,3.31,11.55,4.81,6.37,2.45,12.98,3.94,19.7,5.09,4.78.81,9.59,1.31,14.39,1.9.8.1,1.62.12,2.43.09,3.1-.11,6.16.76,9.26.46,5.49-.54,11.02-.51,16.47-1.49,3.51-.63,7.04-1.14,10.5-1.97,5.49-1.31,10.87-3.02,16.13-5.11,5.97-2.37,11.67-5.27,17.06-8.7,4.99-3.17,9.72-6.72,14.12-10.72,4.89-4.45,9.5-9.16,13.55-14.38,3.16-4.09,6.14-8.31,8.78-12.79,2.98-5.06,5.63-10.25,7.98-15.62,1.51-3.46,2.82-6.98,4.03-10.55,1.25-3.7,2.42-7.41,3.35-11.2,1.13-4.58,1.98-9.2,2.76-13.85,1.01-6.07,1.31-12.16,1.63-18.28.35-6.69.19-13.38.2-20.06.04-38.69.02-77.38.03-116.07,0-.8-.12-1.61.16-2.57.97.53,1.72,1.31,2.45,1.97,2.87,2.56,6.03,4.72,9.2,6.87,5.51,3.75,11.42,6.82,17.47,9.56,4.04,1.82,8.17,3.47,12.4,4.89,5.11,1.72,10.27,3.25,15.46,4.66,2.27.62,4.64.9,6.91,1.51,4.95,1.34,10.07,1.67,15.07,2.68,1.97.4,4.01.49,6.03.59,2.36.12,4.7.46,7.07.36.94-.04,1.41-.29,1.3-1.28-.02-.2,0-.41,0-.61,0-16.91,0-33.82-.01-50.73.09-.04.19-.06.29-.05,2.09.8,4.31.86,6.49,1.13,2.74.34,5.5.59,8.25.79.9.07,1.18.41,1.1,1.24-.03.33,0,.68,0,1.01,0,21.11,0,42.22,0,63.33,0,2.53.32,2.26-2.28,2.25-5.81-.02-11.53-1.06-17.27-1.8-4.82-.62-9.58-1.62-14.3-2.73-6.68-1.58-13.32-3.42-19.77-5.8-5.35-1.98-10.62-4.17-15.74-6.72-5.19-2.58-10.16-5.51-14.95-8.73-3.04-2.05-5.83-4.47-8.78-6.76-.32.54-.16,1.08-.16,1.59-.06,24.29-.11,48.57-.14,72.86-.02,20.7.04,41.41-.04,62.11-.02,4.02-.49,8.04-.85,12.05-.27,2.95-.61,5.89-1.1,8.81-.97,5.84-2.2,11.63-3.83,17.32-1.57,5.48-3.42,10.89-5.66,16.14-2.11,4.94-4.47,9.78-7.17,14.44-2.3,3.96-4.84,7.76-7.47,11.5-3.39,4.81-7.26,9.19-11.37,13.37-3.07,3.12-6.34,6.04-9.78,8.76-4.18,3.3-8.59,6.25-13.18,8.92-3.02,1.76-6.16,3.31-9.37,4.72-4.24,1.87-8.57,3.53-13,4.86-5.42,1.64-10.97,2.7-16.56,3.67-7.89,1.38-15.83,1.57-23.79,1.38-5.24-.12-10.46-.72-15.65-1.55-4.93-.78-9.84-1.6-14.69-2.74-2.81-.66-5.56-1.63-8.28-2.62-2.84-1.03-5.64-2.18-8.43-3.37-4.89-2.08-9.6-4.5-14.24-7.08-6.63-3.69-12.73-8.1-18.58-12.88-3.2-2.61-6.13-5.56-9.01-8.56-2.74-2.84-5.32-5.8-7.64-8.99Z"/>
  <path class="cls-1" d="M319.24,59.86c-.74.02-1.49.06-2.23.06-15.76,0-31.52,0-47.29,0-.2,0-.41,0-.61,0-2.49.02-2.16-.23-2.17,2.16,0,87.72.02,175.44-.06,263.16,0,6.5-.68,13.02-1.81,19.44-.44,2.49-1.04,4.98-1.61,7.46-.35,1.52-1.2,2.86-1.94,4.19-2.89,5.23-6.24,10.1-10.54,14.35-3.36,3.33-6.97,6.29-11.04,8.61-3.73,2.12-7.64,3.89-11.83,5.09-3.91,1.13-7.86,1.7-11.88,2.22-2.64.34-5.27.49-7.85.24-4.94-.46-9.87-1.16-14.65-2.67-7.29-2.3-13.84-5.93-19.57-10.93-3.15-2.74-5.75-6.04-7.98-9.58-.25-.4-.48-.82-.41-1.32.72-.08,1.32.31,1.87.63,5,2.91,10.39,4.65,16.02,5.89,5.2,1.14,10.44,1.37,15.69,1.11,5.05-.25,9.99-1.31,14.78-3.02,2.22-.79,4.43-1.6,6.54-2.64,5.62-2.76,10.55-6.45,14.96-10.9,4.32-4.36,7.58-9.45,10.49-14.79,1.44-2.64,1.89-5.57,2.53-8.45,1.01-4.55,1.39-9.17,1.89-13.78.1-.94.07-1.89.08-2.84.02-3.44.39-6.86.39-10.3-.02-85.78-.02-171.57,0-257.35,0-3.09-.41-2.68,2.69-2.68,20.64-.01,41.28,0,61.91,0q2.51,0,2.52,2.57c.02,3.85.48,7.66,1.02,11.46.12.86.31,1.73.12,2.62Z"/>
  <path class="cls-3" d="M214.86,204.93c-3.72.26-7.44.02-11.15.12-4.32.11-8.64.35-12.9,1.05-5.64.92-11.28,1.95-16.73,3.68-5.75,1.83-11.4,3.94-16.85,6.62-4.29,2.11-8.45,4.45-12.47,7-3.15,2-6.08,4.37-9.03,6.69-4.36,3.42-8.28,7.28-12.11,11.23-2.56,2.64-4.84,5.55-7.12,8.45-2.33,2.96-4.46,6.04-6.51,9.18-2.6,3.99-4.89,8.15-7.04,12.4-1.91,3.77-3.59,7.65-5.12,11.58-1.19,3.06-2.25,6.19-3.18,9.35-1.87,6.31-3.33,12.71-4.37,19.21-.72,4.52-1.05,9.05-1.37,13.6-.27,3.85-.27,7.7-.19,11.54.11,5.11.47,10.22,1.21,15.29.53,3.65,1.12,7.31,2.06,10.87,1.36,5.18,2.8,10.35,4.75,15.36,2.18,5.57,4.56,11.02,7.58,16.21,1.92,3.3,3.78,6.63,6.07,9.69.32.42.5.96.74,1.44-.83.48-1.23-.24-1.66-.66-3.78-3.68-7.36-7.54-10.65-11.66-3.36-4.22-6.43-8.65-9.17-13.29-2.47-4.18-4.62-8.52-6.58-12.98-2.91-6.62-5.03-13.5-6.91-20.46-.58-2.14-.81-4.38-1.29-6.55-1.25-5.61-1.74-11.32-1.95-17.02-.19-5.25-.25-10.53.15-15.8.25-3.36.35-6.74.91-10.06.76-4.5,1.41-9.01,2.58-13.45.96-3.65,1.88-7.32,3.07-10.9,1.43-4.28,3-8.51,4.85-12.63,2.07-4.62,4.3-9.15,6.86-13.51,3.18-5.41,6.76-10.55,10.68-15.46,4.38-5.48,9.27-10.47,14.49-15.12,3.36-2.99,7-5.66,10.72-8.22,4.12-2.83,8.43-5.35,12.86-7.62,3.47-1.77,7.1-3.23,10.74-4.65,5.79-2.25,11.81-3.75,17.85-5.09,3.01-.67,6.14-.83,9.2-1.33,6.16-1.01,12.36-.89,18.57-.92,4.39-.02,8.72.66,13.06,1.1,1.47.15,2.94.4,4.41.53.8.07,1.03.46,1.02,1.18-.07,4.66.14,9.33-.11,13.99Z"/>
  <path class="cls-4" d="M165.07,361.59c-1.2-.13-2.05-.99-2.94-1.63-4.52-3.23-8.39-7.16-11.44-11.81-1.89-2.88-3.26-6.04-4.44-9.27-1.88-5.14-3-10.46-3.62-15.88-.56-4.91-.46-9.82.34-14.7.75-4.58,1.75-9.1,3.51-13.43,2.19-5.4,5.1-10.34,8.88-14.79,4.38-5.15,9.62-9.15,15.61-12.24,3.6-1.86,7.39-3.17,11.29-4.26,4.12-1.15,8.31-1.56,12.52-2.04,2.56-.29,5.1-.29,7.65-.33,3.1-.05,6.16.46,9.23.75.74.07,1.48.12,2.22.17.68.04.99-.27.96-.96-.02-.54,0-1.08,0-1.62,0-17.38,0-34.77,0-52.15,0-.74-.14-1.49.14-2.21,2.28-.18,4.55.12,6.81.28,2.67.2,5.33.6,7.97,1.07.98.17,1.43.49,1.33,1.54-.08.87-.02,1.76-.02,2.63,0,22.11,0,44.21,0,66.32,0,3.1-.14,2.41-2.44,2.04-7.04-1.12-14.08-1.11-21.11-.29-5.13.6-10.21,1.74-15.04,3.63-5.47,2.13-10.5,5.05-15.05,8.82-3.55,2.94-6.6,6.33-9.2,10.08-1.95,2.81-3.58,5.83-4.94,8.99-2.44,5.67-3.73,11.58-4.45,17.7-.37,3.18-.57,6.36-.24,9.46.55,5.1,1.16,10.23,2.84,15.16,1.04,3.06,2.31,6.02,3.6,8.97Z"/>
  <path class="cls-5" d="M352.59,121.2c-1.71-.49-2.66-1.97-3.9-3.04-3.72-3.21-6.86-6.98-9.84-10.85-2.37-3.07-4.49-6.34-6.42-9.72-3.01-5.26-5.59-10.71-7.61-16.42-2.04-5.76-3.8-11.61-4.79-17.67-.19-1.17-.94-2.25-.61-3.52,4.46-.02,8.92-.03,13.38-.08.86-.01,1.15.25,1.17,1.14.13,4.44.42,8.87,1.1,13.26.97,6.24,2.3,12.43,4.2,18.44,1.72,5.43,3.76,10.77,6.38,15.86,1.88,3.65,3.82,7.26,6.16,10.64.39.56.96,1.13.79,1.96Z"/>
  <path class="cls-6" d="M411.37,157.01c-.1,0-.2,0-.29.05-2.04-.42-4.11-.76-6.12-1.29-4.93-1.3-9.81-2.77-14.53-4.75-3.41-1.43-6.76-2.98-9.96-4.82-4.48-2.58-8.71-5.53-12.67-8.88-3.17-2.68-6.15-5.56-8.88-8.67-1.4-1.59-2.85-3.17-3.92-5.03,1.4-.14,2.12,1.05,3.04,1.69,4.35,2.98,8.93,5.49,13.71,7.72,7,3.26,14.35,5.38,21.86,7,2.95.64,6,.85,8.97,1.42,2.39.46,4.81.43,7.2.78,1.56.22,1.58.14,1.59,1.78,0,4.33,0,8.66,0,12.98Z"/>
  <path class="cls-5" d="M353.69,122.22c-.42.01-.78-.04-.74-.6.31.13.72.12.74.6Z"/>
  <path class="cls-6" d="M355.02,123.66c-.46-.12-.56-.54-.73-.89.43.14.94.23.73.89Z"/>
  <path class="cls-3" d="M111.25,405.63c.33.24.91.34.56.98-.5-.15-.91-.34-.56-.98Z"/>
  <path class="cls-5" d="M352.96,121.65c-.3,0-.43-.16-.38-.46.44-.11.48.12.38.46Z"/>
  <path class="cls-1" d="M165.79,362.37c-.26,0-.35-.14-.32-.38.22.03.48.02.32.38Z"/>
  <path class="cls-3" d="M111.79,406.58c.52-.03.55.26.42.65-.24-.15-.47-.31-.42-.65Z"/>
</svg>