<?xml version="1.0" encoding="UTF-8"?>
<svg id="Color" xmlns="http://www.w3.org/2000/svg" version="1.1" xmlns:xlink="http://www.w3.org/1999/xlink" viewBox="0 0 500 500">
  <defs>
    <style>
      .cls-1 {
        fill: #57595b;
      }

      .cls-1, .cls-2, .cls-3, .cls-4 {
        stroke-width: 0px;
      }

      .cls-2 {
        fill: url(#linear-gradient);
      }

      .cls-3 {
        fill: url(#linear-gradient-2);
      }

      .cls-4 {
        fill: #fff;
      }
    </style>
    <linearGradient id="linear-gradient" x1="250" y1="456.8" x2="250" y2="43.2" gradientUnits="userSpaceOnUse">
      <stop offset="0" stop-color="#ed5e2a"/>
      <stop offset="1" stop-color="#eaa22f"/>
    </linearGradient>
    <linearGradient id="linear-gradient-2" x1="186.57" y1="223.21" x2="414.14" y2="414.13" gradientUnits="userSpaceOnUse">
      <stop offset="0" stop-color="#845125" stop-opacity=".6"/>
      <stop offset="1" stop-color="#993c11" stop-opacity=".4"/>
    </linearGradient>
  </defs>
  <rect class="cls-2" x="43.2" y="43.2" width="413.6" height="413.6" rx="91.64" ry="91.64"/>
  <path class="cls-3" d="M456.8,226.6l-123.14-118.53L126.63,402.76l54.06,54.04h184.47c50.61,0,91.64-41.03,91.64-91.64v-138.55Z"/>
  <g>
    <rect class="cls-1" x="217.07" y="118.36" width="115.59" height="190.47"/>
    <g>
      <path class="cls-4" d="M326.75,328c-5.13,4.46-9.91,8.65-14.74,12.79-7.38,6.34-14.89,12.54-22.16,19.01-3.81,3.39-8.07,5.69-12.95,6.82-2.42.56-4.13,1.68-5.55,3.73-6.44,9.32-13.07,18.51-19.47,27.86-2.06,3.01-4.34,4.51-8.2,4.49-37.21-.11-74.42-.02-111.63-.03-1.53,0-4.05.23-5.58,0,.61-1.4,2.03-3.59,2.85-4.86,12.54-19.38,24.9-38.89,37.84-58,3.51-5.19,4.2-10.14,3.44-15.92-1.83-13.82-3.47-27.66-5.23-41.49-1.08-8.49-.58-16.66,2.68-24.8,2.24-5.6,3.1-11.74,4.65-17.63.81-3.09,1.4-6.3,2.72-9.17,2.95-6.4,3.52-13.09,3.48-19.98-.08-14.1.02-28.19.04-42.29,0-5.89,1.14-7.2,6.94-8.66,7.71-1.94,13.8.05,18.9,6.36,3.64,4.5,5.45,9.01,5.41,14.97-.28,42.29-.21,84.57-.24,126.86,0,12.12,7.54,20.07,19.74,20.76,2.61.15,5.23.06,7.85.06,25.58,0,51.16.03,76.75-.04,3.87-.01,7.75-.52,12.44-.86Z"/>
      <path class="cls-4" d="M335.31,214.47c0,30.8-.06,61.6.03,92.39.04,11.45-8.26,18.71-18.49,18.59-28.48-.34-56.96-.42-85.43,0-10.75.16-18.02-9.27-17.99-18.15.23-61.88.23-123.77-.11-185.66-.05-9.66,6.8-18.53,18.04-18.48,28.91.13,57.83-.06,86.74.06,10.41.04,17.1,7.23,17.12,17.99.05,31.09.02,62.18.02,93.27h.07ZM218.78,213.29h-.05c0,29.05,0,58.11,0,87.16,0,1.31-.27,2.73.15,3.89.36.98,1.42,2.01,2.4,2.37,1.16.42,2.58.16,3.89.16,31.97,0,63.93,0,95.9,0,1.89,0,3.78-.06,5.67.02,2.63.11,4.25-.7,3.83-3.72-.1-.71,0-1.45,0-2.18,0-58.11.01-116.22.02-174.32,0-1.02-.07-2.04-.01-3.05.12-2.05-.87-2.91-2.85-2.88-1.16.02-2.32-.05-3.49-.05-33.42,0-66.84,0-100.26,0-5.15,0-5.18.02-5.18,5.44,0,29.05,0,58.11,0,87.16ZM275.26,108.12s0,.01,0,.02c-3.47,0-6.96-.21-10.39.12-1.2.12-2.27,1.57-3.4,2.42,1.07.95,2.11,2.7,3.21,2.73,7.07.24,14.16.23,21.23-.02,1.08-.04,2.79-1.66,2.99-2.76.37-2.05-1.56-2.46-3.23-2.49-3.47-.06-6.94-.02-10.4-.02Z"/>
      <path class="cls-4" d="M338.58,179.15c0-5.95-.05-11.89.02-17.84.05-4.08.74-4.54,4.73-3.3,7.18,2.24,11.9,7.13,14.35,14.08,4.52,12.84,8.85,25.76,13.19,38.67,1.06,3.14.26,4.58-2.96,6.11-5.81,2.76-15.22.67-19.62-4.37-.19-.22-.33-.48-.54-.68-7.35-7.04-10.9-15.4-9.24-25.71.36-2.26.05-4.63.05-6.95h.02Z"/>
      <path class="cls-4" d="M368.74,244.66c3.59,3.97,4.14,8.21,3.59,12.27-.71,5.28-2.27,10.46-3.6,15.64-2.87,11.1-5.82,22.19-8.76,33.27-1.5,5.65-4.96,7.54-10.21,4.94-6.19-3.07-10.65-8.2-11-15.2-.55-10.87-.14-21.79-.11-32.69,0-.52.24-1.05.33-1.42,3.27,2.36,6.29,4.77,9.54,6.83,3.52,2.23,7.35,1.38,10.94.12,1.12-.39,2.2-1.88,2.61-3.1,1.78-5.22,3.28-10.53,4.92-15.8.45-1.45,1.03-2.87,1.75-4.86Z"/>
      <path class="cls-4" d="M339.42,208.35c1.39,1.63,2.61,2.95,3.72,4.36,6.58,8.37,15.29,11.23,25.4,8.36.91-.26,1.91-.17,2.87-.24-.03.96.13,1.99-.13,2.88-3.82,12.77-7.68,25.53-11.59,38.28-1.04,3.39-3.28,4.5-7.16,3.8-6.4-1.15-13.66-8.73-13.85-15.7-.36-13.33-.09-26.68-.06-40.02,0-.37.33-.75.79-1.73Z"/>
      <path class="cls-4" d="M339.77,306.74c1.02,1.23,1.88,2.61,3.05,3.63,3.58,3.12,7.45,5.32,12.58,4.71,4.47-.53,5.07.38,4.17,4.84-.55,2.7-1.12,5.39-1.69,8.09-.93,4.42-3.6,6.48-8.02,5.76-6.78-1.1-10.93-5.58-13.79-11.46-.33-.68-.24-1.71-.02-2.5,1.11-4.11,2.32-8.19,3.72-13.08Z"/>
    </g>
  </g>
</svg>