<?xml version="1.0" encoding="UTF-8"?>
<svg id="Color" xmlns="http://www.w3.org/2000/svg" version="1.1" viewBox="0 0 500 500">
  <defs>
    <style>
      .cls-1 {
        fill: #fff3ca;
      }

      .cls-1, .cls-2, .cls-3, .cls-4, .cls-5, .cls-6, .cls-7, .cls-8, .cls-9, .cls-10 {
        fill-rule: evenodd;
        stroke-width: 0px;
      }

      .cls-2 {
        fill: #ffecab;
      }

      .cls-3 {
        fill: #fdd131;
      }

      .cls-4 {
        fill: #fde281;
      }

      .cls-5 {
        fill: #5d5d5d;
      }

      .cls-6 {
        fill: #fddc63;
      }

      .cls-7 {
        fill: #fdefbf;
      }

      .cls-8 {
        fill: #4b4a4b;
      }

      .cls-9 {
        fill: #797778;
      }

      .cls-10 {
        fill: #656666;
      }
    </style>
  </defs>
  <g id="Page-1">
    <g id="bulb">
      <g id="Group-5">
        <path id="Triangle-3" class="cls-10" d="M219.75,409.93l-2.37,34.74,2.37-34.74Z"/>
        <polygon id="Triangle-3-2" data-name="Triangle-3" class="cls-10" points="190.1 432.69 220.05 407.53 250 456.65 190.1 432.69"/>
        <polygon id="Triangle-3-3" data-name="Triangle-3" class="cls-9" points="190.1 358.42 190.1 432.69 220.05 407.53 190.1 358.42"/>
        <polygon id="Triangle-3-4" data-name="Triangle-3" class="cls-5" points="279.95 407.53 250 456.65 309.9 432.69 279.95 407.53"/>
        <polygon id="Triangle-3-5" data-name="Triangle-3" class="cls-9" points="309.9 432.69 279.95 407.53 309.9 358.42 309.9 432.69"/>
        <polygon id="Triangle-3-6" data-name="Triangle-3" class="cls-8" points="190.1 358.42 309.9 358.42 250 456.65 190.1 358.42"/>
      </g>
      <g id="Group">
        <polygon id="Triangle-3-7" data-name="Triangle-3" class="cls-3" points="202.08 132 329.07 184.71 238.02 257.79 202.08 132"/>
        <polygon id="Triangle-3-8" data-name="Triangle-3" class="cls-3" points="297.92 43.35 369.8 117.63 329.07 184.71 297.92 43.35"/>
        <polygon id="Triangle-3-9" data-name="Triangle-3" class="cls-3" points="190.1 358.42 321.88 320.08 309.9 358.42 190.1 358.42"/>
        <polygon id="Triangle-3-10" data-name="Triangle-3" class="cls-3" points="178.12 320.08 238.02 257.79 190.1 358.42 178.12 320.08"/>
        <polygon id="Triangle-3-11" data-name="Triangle-3" class="cls-3" points="130.2 117.63 202.08 43.35 202.08 132 130.2 117.63"/>
        <polygon id="Triangle-3-12" data-name="Triangle-3" class="cls-1" points="238.02 257.79 321.88 320.08 329.07 184.71 238.02 257.79"/>
        <polygon id="Triangle-3-13" data-name="Triangle-3" class="cls-1" points="238.02 257.79 123.02 237.42 178.12 320.08 238.02 257.79"/>
        <polygon id="Triangle-3-14" data-name="Triangle-3" class="cls-6" points="202.08 132 297.92 43.35 329.07 184.71 202.08 132"/>
        <polygon id="Triangle-3-15" data-name="Triangle-3" class="cls-2" points="123.02 237.42 202.08 132 238.02 257.79 123.02 237.42"/>
        <polygon id="Triangle-3-16" data-name="Triangle-3" class="cls-6" points="190.1 358.42 238.02 257.79 321.88 320.08 190.1 358.42"/>
        <polygon id="Triangle-3-17" data-name="Triangle-3" class="cls-6" points="321.88 320.08 329.07 184.71 376.98 237.42 321.88 320.08"/>
        <polygon id="Triangle-3-18" data-name="Triangle-3" class="cls-6" points="123.02 237.42 130.2 117.63 202.08 132 123.02 237.42"/>
        <polygon id="Triangle-3-19" data-name="Triangle-3" class="cls-4" points="329.07 184.71 369.8 117.63 376.98 237.42 329.07 184.71"/>
        <polygon id="Triangle-3-20" data-name="Triangle-3" class="cls-7" points="297.92 43.35 202.08 132 202.08 43.35 297.92 43.35"/>
      </g>
    </g>
  </g>
</svg>