<?xml version="1.0" encoding="UTF-8"?>
<svg id="Color" xmlns="http://www.w3.org/2000/svg" version="1.1" viewBox="0 0 500 500">
  <defs>
    <style>
      .cls-1 {
        fill: #38abdd;
      }

      .cls-1, .cls-2, .cls-3, .cls-4, .cls-5, .cls-6, .cls-7, .cls-8, .cls-9, .cls-10, .cls-11, .cls-12, .cls-13, .cls-14, .cls-15, .cls-16, .cls-17, .cls-18, .cls-19, .cls-20, .cls-21, .cls-22, .cls-23, .cls-24, .cls-25 {
        stroke-width: 0px;
      }

      .cls-2 {
        fill: #2fa4d5;
      }

      .cls-3 {
        fill: #f3f5f8;
      }

      .cls-4 {
        fill: #eff4f6;
      }

      .cls-5 {
        fill: #2aa2d4;
      }

      .cls-6 {
        fill: #c7d9e8;
      }

      .cls-7 {
        fill: #239cce;
      }

      .cls-8 {
        fill: #30a6d9;
      }

      .cls-9 {
        fill: #1b98ca;
      }

      .cls-10 {
        fill: #2a9fd1;
      }

      .cls-11 {
        fill: #1f95c7;
      }

      .cls-12 {
        fill: #30a3d5;
      }

      .cls-13 {
        fill: #2aa0d3;
      }

      .cls-14 {
        fill: #219acc;
      }

      .cls-15 {
        fill: #34a9de;
      }

      .cls-16 {
        fill: #f9f9fa;
      }

      .cls-17 {
        fill: #fff;
      }

      .cls-18 {
        fill: #299dd1;
      }

      .cls-19 {
        fill: #279acd;
      }

      .cls-20 {
        fill: #1e98ca;
      }

      .cls-21 {
        fill: #279dd0;
      }

      .cls-22 {
        fill: #209acd;
      }

      .cls-23 {
        fill: #32a8db;
      }

      .cls-24 {
        fill: #a8c7dc;
      }

      .cls-25 {
        fill: #31a6d8;
      }
    </style>
  </defs>
  <path class="cls-1" d="M217.87,45.77c.25-.02.49-.04.74-.07.64-.39,1.43.08,2.06-.35.12.04.23.03.34-.03.78-.48,1.71.09,2.49-.37.25-.02.49-.04.74-.05.79-.43,1.71.09,2.49-.35.38-.02.76-.04,1.13-.06.93-.43,1.97.11,2.89-.34.38-.02.76-.04,1.14-.06,1.2-.46,2.5.13,3.7-.34.51-.02,1.01-.03,1.52-.05.4-.29.87-.14,1.31-.18.9,0,1.8,0,2.69,0,.78,0,1.56,0,2.34,0,.97-.1,1.97.23,2.92-.21h6.44c1.2.44,2.44.09,3.66.21.81,0,1.61,0,2.42,0,.93.08,1.87-.17,2.79.16,15.81,1.07,31.37,3.63,46.58,8.14,14.58,4.32,28.51,10.17,41.81,17.52,10.53,5.82,20.46,12.54,29.81,20.09,8.63,6.96,16.59,14.63,23.98,22.89.71.8,1.49,1.54,2.23,2.3.47.26.57.82.95,1.14l.02.02c.11.15.24.29.37.42h0c.14.14.28.27.4.43l-.02-.02c.16.12.31.26.41.44l-.03-.02c.18.11.33.25.42.44l-.04-.03c.31.15.2.57.49.73l.02.03c.1.15.22.29.36.41h0c.13.14.28.27.39.43l-.02-.02c.16.12.31.26.41.44l-.03-.02c.38.32.52.82.87,1.17h0c.12.16.26.29.38.44v-.02c.14.12.29.26.39.44l-.03-.02c.37.33.53.82.86,1.18h0c.13.15.28.28.38.44l-.02-.02c.17.12.31.26.41.44l-.03-.03c.3.16.2.58.48.75l.02.02c.1.16.25.28.36.43h-.01c.16.11.31.25.4.43l-.03-.03c.29.16.19.58.48.74l.02.03c.11.15.23.3.36.43h-.01c.15.12.3.25.4.43l-.03-.03c.3.16.19.58.47.75l.02.03c.1.16.25.28.36.44l-.02-.02c.16.12.31.26.4.44l-.03-.03c.3.17.21.58.47.77h0c.12.16.27.29.37.45l-.02-.02c.28.17.17.58.47.74l.03.04c.1.15.22.3.35.43h-.01c.15.12.31.25.4.43l-.03-.03c.3.17.21.58.46.78h0c.13.15.28.27.38.45l-.03-.03c.29.17.19.58.46.77v.02c.12.16.28.28.37.45l-.02-.02c.28.18.18.58.46.76l.02.03c.1.16.25.28.35.45l-.02-.02c.28.18.17.58.46.75l.02.03c.1.17.25.28.35.45l-.02-.02c.28.18.18.58.46.76l.02.03c.1.16.26.28.35.45l-.02-.02c.28.18.19.58.45.77h0c.11.17.27.29.36.46l-.03-.03c.29.18.2.58.45.79h0c.13.14.29.27.38.45l-.03-.03c.31.18.23.58.45.81v-.02c.25.19.15.59.43.76l.02.03c.1.16.26.28.35.45l-.03-.03c.29.19.2.58.44.8h0c.16.15.32.31.37.54-.02.11.01.19.09.27.11.14.22.28.34.43l-.02-.03c.28.19.2.59.44.8h0c.16.15.31.32.36.55-.02.1,0,.19.09.26.12.14.23.29.34.43l-.03-.03c.29.19.21.58.44.81h0c.25.19.16.58.43.77h0c.11.17.28.29.36.47l-.03-.03c.31.19.23.58.44.82l-.02-.02c.28.2.21.59.43.81h0c.26.19.17.57.43.78h0c.16.17.31.33.36.56-.03.1,0,.19.07.26.14.16.27.31.33.52-.02.11.01.21.09.29.11.14.22.29.33.43l-.03-.03c.29.2.22.58.43.82v-.02c.26.2.19.59.41.82v-.02c.25.21.18.59.41.81h0c.25.2.18.58.42.8h0c.24.21.17.59.41.8h0c.23.22.16.59.41.8h0c.23.22.16.59.4.8h0c.23.22.16.59.4.81h0c.23.22.16.59.4.81h0c.23.22.16.59.4.81h0c.24.21.18.58.4.81h0c.25.2.19.58.4.81v-.02c.25.21.19.59.39.83l-.02-.02c.29.23.23.61.41.89-.02.12.01.23.09.32.12.16.26.32.31.52-.03.11,0,.2.07.28.21.22.12.59.37.79h0c.22.23.16.6.39.83h0c.26.21.2.58.4.82l-.02-.02c.29.24.24.62.4.92-.02.11,0,.2.07.29.21.23.13.59.37.81h0c.24.22.19.59.39.83l-.02-.02c.29.24.25.62.4.92-.03.11,0,.2.07.28.22.23.15.59.37.82v-.02c.26.24.22.62.38.91-.02.11,0,.21.07.3.21.23.14.59.36.82v-.02c.25.25.22.62.37.92-.03.11,0,.21.07.29.21.23.15.59.36.82v-.02c.39.31.04.89.42,1.2h0c.23.26.19.62.37.9-.02.12,0,.22.07.32.2.24.14.59.35.82v-.02c.39.31.04.89.42,1.21h0c.25.26.22.62.37.93-.03.1-.02.19.05.27.24.26.19.63.36.92-.03.11,0,.21.06.3.22.26.18.62.35.9-.03.11,0,.22.06.31.21.26.17.62.34.89-.03.12,0,.22.06.32.21.26.17.62.34.9-.03.11,0,.22.06.31.22.26.18.62.34.91-.03.11-.01.21.06.3.22.27.2.63.34.93-.04.1-.02.19.04.27.36.34.04.89.39,1.23v-.02c.37.35.08.91.39,1.28-.03.12,0,.23.06.34.2.27.18.63.33.92-.04.1-.02.19.04.27.36.36.06.91.38,1.28-.03.12,0,.24.06.35.3.35,0,.88.36,1.21h0c.35.36.09.91.38,1.3-.03.11-.02.21.05.31.22.28.2.58.03.87-.85.28-1.58-.13-2.31-.45-31.32-13.45-62.64-26.86-93.97-40.29-35.21-15.09-70.42-30.17-105.64-45.25-21.65-9.27-43.3-18.53-64.93-27.84-10.48-4.51-21-8.91-31.43-13.51-.61-.27-1.25-.49-1.73-1-.15-.19-.14-.38.02-.56h-.03c.2-.27.58-.19.81-.42h-.02c.21-.25.59-.17.81-.41h0c.21-.24.59-.15.79-.42h.01c.17-.15.33-.31.55-.35.1.02.19,0,.26-.08.16-.14.32-.27.53-.33.11.02.2,0,.28-.08.14-.12.29-.23.44-.33l-.03.03c.2-.3.58-.23.83-.43l-.02.02c.2-.29.58-.22.83-.42l-.02.02c.2-.28.58-.22.83-.42l-.02.02c.2-.28.58-.22.83-.42l-.02.02c.21-.28.58-.22.83-.42l-.02.02c.2-.28.58-.22.83-.42l-.02.02c.2-.28.58-.22.83-.41l-.03.02c.23-.3.61-.24.9-.41.12.02.22-.01.31-.09.16-.13.31-.26.52-.32.11.02.2,0,.29-.08.16-.14.32-.28.54-.32.1.03.18,0,.26-.06.22-.22.59-.13.8-.38h0c.23-.23.59-.17.82-.39h-.01c.22-.25.59-.19.83-.39h-.02c.23-.27.62-.22.9-.39.11.02.22,0,.3-.08.23-.2.58-.11.79-.37h0c.23-.22.59-.17.83-.39h-.01c.24-.26.61-.2.89-.38.12.02.23,0,.33-.08.23-.18.58-.11.78-.36h0c.23-.22.59-.17.83-.38h-.02c.25-.26.62-.22.92-.38.11.03.2,0,.29-.07.23-.21.59-.14.82-.37h-.01c.25-.25.62-.21.91-.37.11.03.21,0,.3-.07.24-.21.59-.14.82-.36h-.02c.25-.26.62-.22.92-.37.11.03.2,0,.29-.06.25-.22.61-.17.88-.36.12.02.24,0,.34-.08.24-.18.58-.12.8-.35h0c.26-.24.63-.22.93-.36.1.03.19.02.27-.06.25-.24.62-.18.89-.36.12.03.23,0,.32-.07.25-.2.61-.15.87-.34.13.02.24,0,.35-.07.24-.18.58-.13.82-.34h-.02c.32-.38.89-.05,1.22-.41h-.02c.32-.38.89-.05,1.22-.41h-.01c.33-.37.89-.05,1.23-.4h-.02c.34-.38.9-.06,1.25-.4.13.02.25,0,.36-.07.26-.18.61-.15.87-.32.12.03.23,0,.33-.06.26-.21.62-.17.9-.34.11.03.21.01.3-.05.34-.33.88-.02,1.22-.38h-.01c.35-.36.91-.07,1.28-.39.12.03.23.01.34-.05.35-.31.88,0,1.21-.37h0c.37-.35.91-.08,1.3-.38.11.03.22.02.31-.05.36-.33.9-.04,1.25-.37.13.03.25.01.36-.06.36-.29.89-.02,1.24-.35.13.03.26,0,.37-.06.36-.29.88,0,1.22-.35.14.03.26.01.39-.05.36-.29.88-.01,1.24-.34.13.03.26.01.37-.05.38-.28.89-.03,1.26-.34.12.03.23.02.34-.05.39-.3.91-.07,1.31-.34.1.04.2.03.29-.03.49-.43,1.18.01,1.67-.39.12.04.24.02.35-.04.49-.39,1.17.03,1.66-.37.13.03.24.02.36-.04.5-.37,1.17.03,1.67-.36.12.04.24.02.35-.04.51-.38,1.18,0,1.7-.35.24-.02.48-.05.73-.07.51-.34,1.16.04,1.67-.34.12.04.23.03.33-.03.64-.45,1.45.05,2.09-.37Z"/>
  <path class="cls-11" d="M301.02,450.35l-.15-.02-.13.07c-.38.33-.92.09-1.33.36l-.15-.02-.13.07c-.39.33-.93.1-1.35.35l-.14-.03-.12.07c-.48.44-1.17-.02-1.66.39l-.19-.02-.18.07c-.39.29-.91.06-1.3.33l-.16-.02-.15.07c-.5.41-1.17-.02-1.68.37l-.18-.02-.16.07c-.5.38-1.16-.04-1.66.36l-.18-.02-.17.07c-.5.37-1.17-.03-1.67.35l-.18-.02-.17.07c-.52.37-1.19,0-1.72.34-.24.03-.47.05-.71.08-.52.34-1.17-.02-1.69.33l-.73.07c-.53.33-1.18,0-1.72.32-.23.02-.46.04-.7.07-.66.4-1.45-.05-2.11.34-.24.02-.48.04-.71.07-.78.42-1.7-.1-2.48.35-.25.02-.5.04-.74.06-.8.41-1.72-.07-2.52.33-.37.02-.73.05-1.1.07-1.06.45-2.23-.13-3.28.35-.38.02-.76.04-1.15.06-1.34.46-2.78-.13-4.12.34-.64-.11-1.28-.06-1.92.07-4.45.38-8.91.12-13.36.15-2.65.02-5.31.23-7.96-.15-.63-.12-1.27-.18-1.91-.06-1.35-.47-2.79.13-4.13-.34-.37-.02-.75-.04-1.12-.06-1.07-.46-2.24.12-3.31-.35-.24-.02-.49-.03-.73-.05-.92-.46-1.97.11-2.89-.36-.24-.02-.47-.03-.71-.05-.79-.43-1.73.11-2.52-.36l-.17-.06-.18.03c-.77-.46-1.7.1-2.48-.37l-.16-.06-.17.03c-.64-.42-1.44.06-2.08-.35l-.17-.07-.18.02c-.63-.44-1.43.07-2.06-.37l-.17-.07-.18.02c-.5-.37-1.16,0-1.66-.34-.23-.03-.46-.06-.69-.08-.53-.33-1.21.04-1.73-.36l-.15-.07-.16.03c-.52-.36-1.2.05-1.71-.37l-.14-.07-.15.03c-.4-.26-.92-.04-1.31-.33l-.18-.07-.19.02c-.49-.4-1.17.03-1.66-.38l-.14-.07-.16.02c-.4-.27-.92-.04-1.31-.34l-.17-.07-.18.02c-.37-.31-.89-.05-1.26-.34l-.17-.07h-.18c-.37-.3-.88-.04-1.26-.32l-.17-.08h-.19c-.36-.3-.89-.04-1.26-.34l-.16-.07h-.18c-.37-.3-.91-.02-1.27-.35l-.14-.07-.16.02c-.4-.27-.94-.02-1.31-.37h0c-.33-.35-.86-.05-1.21-.36l-.15-.08h-.17c-.38-.28-.93,0-1.29-.37h0c-.33-.35-.87-.04-1.21-.37l-.14-.08h-.16c-.29-.14-.63-.11-.91-.31l-.16-.08h-.18c-.37-.3-.93,0-1.28-.39h.01c-.34-.34-.9-.02-1.22-.39h0c-.33-.35-.89-.03-1.22-.39h0c-.33-.36-.89-.03-1.21-.41h0c-.33-.36-.89-.03-1.21-.4h0c-.33-.36-.9-.02-1.21-.42h.01c-.23-.19-.57-.14-.82-.32l-.16-.08h-.18c-.26-.19-.62-.13-.87-.34l-.14-.08h-.16c-.29-.15-.66-.11-.92-.35l-.11-.08-.14.02c-.32-.13-.69-.11-.95-.38h.01c-.23-.2-.58-.14-.82-.34l-.14-.08h-.16c-.29-.16-.65-.12-.91-.36h0c-.21-.24-.55-.17-.79-.34-.1-.09-.21-.11-.34-.09-.27-.18-.63-.14-.88-.36h-.01c-.3-.4-.9-.02-1.18-.46l.02.02c-.25-.19-.61-.14-.84-.37h0c-.21-.24-.56-.16-.79-.36-.08-.09-.18-.12-.3-.09-.29-.15-.67-.11-.91-.39h.01c-.24-.2-.59-.15-.83-.36h-.02c-.2-.26-.55-.18-.77-.37-.08-.09-.18-.12-.3-.09-.29-.16-.67-.11-.91-.39h.02c-.24-.2-.61-.14-.83-.38h0c-.22-.23-.58-.16-.81-.38h-.02c-.19-.27-.55-.18-.77-.37-.07-.09-.17-.12-.28-.09-.3-.15-.69-.1-.92-.4l.02.02c-.25-.19-.62-.13-.83-.41h.02c-.24-.19-.62-.13-.82-.4h.01c-.24-.2-.61-.14-.82-.39h0c-.23-.21-.6-.15-.82-.39h0c-.22-.23-.59-.16-.81-.4h0c-.22-.24-.59-.17-.8-.4h0c-.21-.24-.58-.17-.8-.4h0c-.21-.24-.59-.17-.8-.41h0c-.22-.23-.59-.16-.8-.41h0c-.22-.23-.6-.15-.81-.41h0c-.23-.22-.61-.15-.81-.42h.02c-.24-.2-.62-.13-.82-.41h.02c-.24-.19-.63-.12-.82-.42l.03.03c-.15-.1-.29-.21-.44-.32-.07-.09-.17-.12-.28-.1-.21-.05-.37-.19-.53-.32l-.11-.09h-.14c-.24-.03-.4-.19-.57-.34h-.01c-.2-.26-.59-.18-.78-.43h0c-.23-.22-.61-.14-.81-.43h.02c-.24-.19-.64-.11-.82-.43l.03.03c-.19-.07-.3-.24-.46-.34h-.03c-.18-.29-.57-.19-.77-.44h0c-.22-.23-.61-.15-.8-.43l.02.02c-.14-.11-.29-.21-.43-.32-.07-.09-.15-.13-.27-.11-.23-.04-.39-.2-.55-.35h0c-.2-.26-.59-.17-.78-.44l.02.02c-.14-.11-.28-.22-.42-.31-.07-.09-.16-.13-.27-.11-.23-.05-.39-.2-.55-.35h0c-.2-.26-.6-.17-.78-.45l.02.02c-.14-.11-.28-.22-.43-.32-.06-.09-.14-.13-.25-.11-.25-.04-.41-.19-.56-.37h0c-.22-.23-.62-.14-.8-.45l.03.03c-.19-.08-.3-.24-.46-.36h-.02c-.19-.27-.59-.18-.77-.47l.02.02c-.17-.09-.29-.25-.45-.34l-.04-.02c-.17-.29-.57-.18-.75-.45l.02.02c-.14-.11-.28-.22-.42-.32-.06-.09-.14-.13-.25-.11-.25-.04-.42-.19-.56-.38h.02c-.13-.1-.27-.21-.41-.31-.06-.09-.15-.13-.26-.12-.24-.04-.41-.19-.55-.38h.01c-.13-.1-.27-.21-.41-.31-.06-.09-.14-.13-.25-.11-.25-.04-.42-.19-.56-.38h.02c-.14-.11-.29-.22-.44-.32l-.05-.03c-.15-.3-.57-.19-.73-.47l.02.02c-.17-.09-.29-.25-.44-.35l-.03-.02c-.18-.28-.59-.17-.75-.47l.03.03c-.18-.09-.3-.24-.45-.37h-.01c-.2-.26-.61-.16-.76-.49l.03.04c-.2-.08-.33-.23-.46-.39h.01c-.14-.11-.29-.22-.44-.33l-.04-.03c-.16-.29-.58-.18-.73-.48l.03.03c-.18-.09-.31-.24-.45-.38h0c-.2-.25-.62-.15-.77-.49l.03.04c-.21-.07-.34-.22-.46-.4l.02.02c-.17-.1-.29-.25-.44-.37h-.01c-.19-.27-.61-.16-.76-.5l.03.04c-.21-.07-.34-.22-.46-.4l.02.02c-.17-.1-.29-.25-.44-.37h-.01c-.19-.27-.62-.16-.75-.5l.03.04c-.21-.07-.35-.22-.46-.4l.02.03c-.18-.09-.31-.24-.44-.39h0c-.13-.13-.27-.24-.42-.34l-.05-.03c-.15-.3-.58-.18-.72-.49l.03.04c-.19-.09-.33-.23-.45-.4l.02.02c-.17-.1-.29-.25-.44-.38h0c-.12-.14-.25-.26-.41-.35l-.05-.04c-.14-.3-.58-.18-.71-.5l.03.04c-.19-.09-.33-.24-.45-.41l.02.02c-.17-.1-.29-.25-.44-.38h0c-.12-.14-.26-.26-.41-.35l-.04-.03c-.15-.29-.59-.18-.72-.5l.03.04c-.21-.08-.35-.23-.45-.41l.03.03c-.18-.1-.32-.24-.44-.41h.02c-.16-.09-.29-.24-.43-.37h0c-.12-.14-.26-.26-.41-.36l-.04-.03c-.15-.29-.6-.17-.72-.51l.03.04c-.21-.07-.35-.22-.45-.42l.03.03c-.19-.09-.33-.24-.44-.41l.02.02c-.18-.1-.31-.25-.43-.41h.01c-.16-.1-.28-.25-.42-.37h0c-.12-.14-.26-.26-.4-.37l-.03-.02c-.31-.38-.86-.47-1.13-.9l.03.04c-.21-.07-.35-.22-.45-.42l.03.03c-.2-.09-.34-.23-.44-.42l.03.03c-.18-.1-.32-.24-.44-.42l.02.02c-.17-.11-.31-.25-.43-.41h.01c-.16-.1-.29-.24-.42-.39h0c-.14-.12-.27-.26-.41-.38h-.01c-.12-.15-.25-.27-.4-.38l-.03-.02c-.67-.54-1.32-1.11-1.94-1.71l.03.04c-.22-.07-.36-.22-.44-.43l.03.03c-.21-.08-.35-.22-.44-.43l.03.03c-.21-.08-.35-.23-.44-.43l.03.03c-.2-.09-.35-.23-.44-.43l.03.03c-.2-.09-.34-.24-.44-.43l.03.03c-.19-.1-.34-.24-.43-.43l.03.03c-.19-.1-.33-.24-.43-.43l.03.03c-.19-.1-.33-.24-.43-.43l.03.03c-.19-.1-.33-.24-.43-.43l.03.03c-.19-.1-.33-.24-.43-.43l.03.03c-.19-.1-.33-.24-.43-.43l.03.03c-.19-.1-.33-.24-.43-.43l.03.03c-.19-.1-.33-.24-.43-.43l.03.03c-.19-.1-.33-.24-.43-.43l.03.03c-.19-.1-.34-.24-.43-.44l.03.03c-.2-.09-.34-.23-.43-.44l.03.03c-.2-.09-.35-.23-.43-.44l.03.03c-.21-.08-.35-.23-.43-.44l.03.03c-.21-.08-.36-.22-.43-.44l.04.03c-.51-.44-.84-1.04-1.31-1.51l-.03-.04c-.09-.15-.21-.28-.36-.38l-.02-.03c-.11-.15-.23-.28-.37-.4h0c-.12-.15-.26-.28-.39-.42h0c-.14-.13-.29-.26-.4-.42h.01c-.16-.11-.31-.24-.41-.42l.02.02c-.17-.11-.32-.25-.42-.44l.03.03c-.19-.1-.34-.24-.42-.44l.03.03c-.2-.09-.35-.23-.42-.44l.04.03c-.43-.27-.53-.81-.9-1.13l-.02-.03c-.11-.15-.23-.28-.37-.41h0c-.13-.14-.28-.27-.39-.43h.01c-.16-.11-.31-.24-.41-.42l.02.02c-.18-.11-.33-.25-.42-.44l.03.03c-.2-.09-.35-.23-.42-.45l.04.03c-.34-.12-.22-.56-.51-.72l-.03-.03c-.1-.15-.22-.29-.36-.41h0c-.13-.15-.28-.28-.39-.44l.02.02c-.16-.12-.31-.26-.41-.44l.03.03c-.19-.1-.34-.24-.42-.45l.04.03c-.33-.13-.22-.57-.51-.72l-.03-.04c-.1-.15-.22-.29-.35-.42h0c-.14-.14-.29-.27-.39-.44l.02.02c-.17-.11-.32-.25-.41-.45l.04.03c-.31-.13-.19-.57-.5-.71l-.04-.05c-.09-.16-.2-.29-.34-.41h0c-.13-.15-.28-.28-.38-.45l.02.02c-.17-.12-.32-.25-.41-.45l.04.03c-.32-.14-.21-.57-.5-.73l-.03-.04c-.11-.15-.22-.29-.35-.42h0c-.15-.13-.3-.26-.39-.44l.03.03c-.19-.11-.34-.24-.41-.46l.04.03c-.34-.14-.24-.56-.49-.76h0c-.13-.15-.28-.28-.38-.45l.02.02c-.18-.11-.33-.25-.4-.46l.04.03c-.34-.14-.23-.57-.49-.76h0c-.13-.15-.28-.28-.38-.45l.02.02c-.18-.11-.33-.25-.4-.46l.04.04c-.34-.14-.24-.57-.49-.77h0c-.14-.14-.3-.26-.38-.45l.03.03c-.3-.16-.19-.58-.48-.74l-.02-.03c-.09-.17-.25-.28-.35-.44l.02.02c-.17-.12-.32-.26-.39-.46l.04.03c-.33-.15-.23-.57-.48-.77h0c-.13-.15-.29-.27-.37-.46l.03.03c-.3-.16-.2-.58-.47-.76v-.02c-.12-.16-.28-.28-.37-.45l.03.03c-.28-.17-.17-.58-.47-.74l-.02-.04c-.09-.17-.24-.29-.34-.45l.02.02c-.2-.14-.35-.31-.39-.57.02-.11-.02-.19-.11-.24-.1-.14-.21-.28-.33-.42l.02.02c-.19-.14-.35-.31-.39-.56.02-.11-.02-.19-.11-.25-.1-.14-.21-.28-.32-.42l.02.02c-.27-.17-.16-.58-.46-.74l-.03-.04c-.08-.17-.24-.29-.34-.45l.02.02c-.28-.18-.17-.58-.46-.76l-.02-.03c-.1-.16-.26-.28-.35-.46l.03.03c-.29-.18-.2-.58-.46-.78h0c-.12-.16-.29-.28-.36-.47l.04.03c-.31-.17-.23-.58-.46-.8h0c-.19-.14-.34-.31-.37-.56.03-.1,0-.18-.1-.24-.11-.14-.22-.29-.33-.43l.03.03c-.29-.18-.2-.58-.45-.79h0c-.16-.16-.31-.32-.36-.55.02-.11-.02-.2-.11-.27-.1-.14-.21-.29-.32-.43l.02.03c-.28-.19-.2-.58-.44-.79h0c-.16-.16-.32-.33-.36-.57.02-.11,0-.19-.1-.25-.11-.14-.22-.29-.33-.44l.03.03c-.29-.19-.21-.58-.44-.81h0c-.25-.19-.16-.58-.43-.77v-.02c-.15-.17-.3-.33-.35-.55.02-.11-.02-.21-.11-.28-.1-.14-.21-.29-.31-.43l.03.03c-.29-.19-.22-.58-.44-.81v.02c-.25-.2-.17-.59-.42-.79h0c-.23-.21-.14-.59-.41-.78v-.03c-.15-.17-.3-.33-.34-.56.03-.11,0-.2-.1-.26-.11-.14-.22-.29-.32-.44l.03.03c-.31-.19-.24-.58-.43-.83l.02.03c-.29-.2-.22-.58-.43-.82v.02c-.26-.2-.19-.59-.41-.82v.02c-.25-.21-.18-.59-.41-.82h0c-.25-.2-.18-.58-.41-.8h0c-.25-.2-.18-.58-.41-.8h0c-.24-.21-.17-.58-.4-.81h0c-.24-.21-.18-.58-.4-.81h0c-.25-.21-.18-.58-.41-.81h0c-.25-.21-.19-.58-.4-.81v.02c-.25-.21-.19-.59-.4-.83v.02c-.26-.21-.2-.59-.4-.83l.02.03c-.3-.23-.24-.61-.41-.9.02-.12-.01-.22-.1-.31-.12-.17-.26-.32-.3-.53.03-.11,0-.2-.08-.27-.2-.22-.11-.58-.37-.78h0c-.22-.24-.16-.6-.38-.83h0c-.25-.21-.19-.58-.39-.82l.02.02c-.29-.24-.25-.62-.4-.92.03-.11,0-.21-.09-.29-.2-.23-.12-.58-.36-.79h0c-.23-.24-.17-.6-.38-.84v.02c-.27-.24-.23-.62-.38-.92.03-.11,0-.21-.08-.29-.2-.23-.13-.59-.36-.81h0c-.25-.24-.21-.61-.38-.89.03-.12,0-.23-.09-.32-.18-.24-.11-.58-.35-.79h0c-.24-.25-.2-.62-.37-.9.03-.12,0-.23-.09-.32-.18-.24-.12-.58-.35-.8h0c-.25-.25-.22-.62-.37-.91.03-.11,0-.21-.08-.29-.2-.24-.14-.59-.35-.83v.02c-.4-.3-.04-.89-.42-1.2h0c-.24-.26-.22-.63-.36-.93.04-.11.01-.2-.07-.28-.21-.26-.17-.62-.34-.89.03-.12,0-.23-.08-.32-.19-.24-.14-.59-.34-.83v.02c-.4-.31-.06-.89-.41-1.22v.02c-.38-.32-.05-.89-.4-1.22v.02c-.38-.32-.05-.89-.4-1.22h0c-.38-.31-.06-.87-.41-1.21v.02c-.38-.34-.07-.91-.39-1.27.03-.13,0-.24-.07-.35-.18-.27-.16-.61-.32-.89.04-.12.01-.22-.07-.31-.2-.28-.19-.63-.32-.93.04-.1.03-.19-.05-.27-.35-.34-.04-.89-.38-1.23v.02c-.37-.36-.1-.92-.38-1.31.04-.11.02-.21-.06-.3-.32-.35-.03-.89-.37-1.24.03-.14.01-.26-.07-.38-.17-.29-.17-.63-.3-.92.05-.1.03-.19-.05-.27-.34-.37-.07-.92-.37-1.3.04-.12.02-.22-.05-.32-.31-.37-.05-.9-.35-1.28.04-.12.02-.23-.06-.33-.3-.38-.05-.9-.35-1.28.04-.12.02-.23-.05-.33-.3-.38-.06-.91-.34-1.29.04-.11.03-.22-.05-.31-.31-.39-.09-.93-.34-1.33.05-.1.04-.19-.04-.27-.43-.49,0-1.18-.38-1.68.04-.12.03-.24-.05-.34-.38-.49.05-1.16-.37-1.64.04-.13.02-.26-.05-.38-.27-.4-.07-.92-.32-1.33-.03-.23-.06-.46-.08-.68-.35-.5.05-1.15-.35-1.64.04-.13.03-.25-.05-.37-.35-.52.02-1.18-.34-1.69.05-.11.04-.22-.04-.31-.45-.64.06-1.45-.37-2.09.05-.12.04-.23-.03-.33-.43-.65.04-1.46-.36-2.11-.02-.24-.04-.47-.07-.71-.39-.65.06-1.44-.34-2.09-.02-.24-.04-.48-.06-.73-.31-.6-.1-1.24-.17-1.87.05-2.23.2-2.38,2.29-1.53,5.04,2.04,9.99,4.28,14.98,6.41,8.01,3.43,16.05,6.81,24.03,10.31,9.52,4.17,19.1,8.22,28.65,12.32,12.2,5.24,24.42,10.44,36.63,15.67,20.84,8.94,41.68,17.87,62.51,26.84,24.95,10.75,49.94,21.42,74.91,32.12,24.91,10.68,49.83,21.34,74.74,32.04,2.53,1.09,5.06,2.16,7.58,3.26,1.01.44,2.21.72,2.63,1.99.02.23-.07.4-.26.52l.05-.03c-.15.32-.57.21-.74.49l-.03.02c-.16.1-.28.25-.44.36l.02-.02c-.12.17-.26.32-.45.4l.03-.04c-.15.33-.57.22-.76.48h-.01c-.15.13-.27.29-.45.38l.03-.03c-.16.29-.58.17-.73.47l-.05.03c-.15.1-.3.21-.43.34h.01c-.13.15-.26.3-.45.38l.03-.04c-.16.32-.57.22-.77.48h-.01c-.15.13-.27.29-.45.38l.03-.03c-.16.3-.58.19-.75.47l-.03.02c-.16.1-.28.26-.45.35l.02-.02c-.17.28-.58.17-.74.46l-.04.02c-.15.11-.3.23-.44.34l.02-.02c-.14.2-.31.35-.56.39-.11-.02-.19.01-.24.11-.14.11-.28.21-.42.33l.02-.02c-.17.27-.58.16-.74.46l-.04.02c-.15.11-.3.22-.45.34l.02-.02c-.17.28-.58.17-.75.46l-.04.02c-.16.1-.28.25-.45.34l.03-.02c-.18.29-.58.19-.77.46h-.02c-.15.13-.27.29-.46.37l.03-.03c-.17.31-.58.22-.79.46h0c-.15.17-.32.32-.55.36-.11-.02-.2.02-.26.11-.14.1-.28.21-.42.32l.02-.02c-.18.28-.58.18-.77.45h-.02c-.15.13-.27.29-.46.36l.03-.03c-.18.31-.57.23-.8.45h.01c-.19.25-.58.16-.76.43l-.03.02c-.16.11-.28.27-.46.34l.03-.03c-.18.31-.58.23-.81.45h.01c-.19.26-.58.17-.78.43h-.02c-.16.16-.32.31-.55.35-.11-.02-.2.01-.27.11-.14.11-.29.21-.43.32l.03-.02c-.19.29-.58.21-.81.44h0c-.2.25-.58.16-.78.42h-.02c-.16.16-.33.31-.56.35-.11-.03-.19,0-.25.1-.14.11-.29.22-.44.32l.03-.03c-.19.31-.58.23-.82.43h.02c-.2.27-.58.19-.81.41h0c-.2.25-.58.17-.8.41h0c-.21.24-.59.15-.78.41h-.02c-.17.16-.33.32-.58.35h-.13s-.1.08-.1.08c-.16.15-.33.29-.55.32h-.14s-.11.09-.11.09c-.16.13-.32.27-.53.32-.11-.03-.2,0-.28.1-.16.12-.32.26-.52.31-.12-.02-.21.01-.29.1-.14.11-.29.21-.44.31l.03-.03c-.19.31-.57.24-.83.42l.03-.02c-.22.32-.61.26-.9.42-.12-.02-.22.01-.3.1-.16.12-.32.26-.53.3-.11-.03-.2,0-.28.09-.16.13-.32.27-.54.31h-.15s-.12.09-.12.09c-.17.14-.33.28-.56.31h-.14s-.11.08-.11.08c-.22.21-.58.12-.78.38h-.02c-.23.23-.59.16-.81.39h0c-.22.24-.59.18-.82.39h.01c-.21.26-.58.2-.83.39h.02c-.23.28-.62.23-.91.39-.12-.03-.22,0-.3.09-.23.19-.58.1-.77.36h-.02c-.23.22-.59.16-.82.38h0c-.22.25-.59.19-.83.38h.02c-.24.28-.62.24-.93.38h-.15s-.12.08-.12.08c-.23.21-.59.14-.81.36h0c-.24.26-.62.21-.9.38-.12-.03-.23,0-.31.09-.24.18-.58.11-.79.35h0c-.24.24-.61.2-.88.37-.13-.03-.24,0-.34.09-.24.17-.58.11-.79.34h0c-.25.24-.62.2-.9.37h-.17s-.15.08-.15.08c-.24.19-.58.12-.81.34h0c-.26.25-.63.23-.93.37h-.15s-.13.07-.13.07c-.25.22-.61.17-.88.35-.13-.03-.24,0-.33.09-.24.18-.58.12-.81.34h.01c-.31.39-.88.04-1.2.42h0c-.27.23-.63.23-.94.35l-.14-.02-.12.08c-.27.23-.63.2-.93.34h-.15s-.13.07-.13.07c-.26.22-.62.18-.91.34h-.16s-.14.07-.14.07c-.26.21-.62.17-.9.33h-.16s-.14.07-.14.07c-.27.2-.62.17-.9.33h-.16s-.14.07-.14.07c-.28.21-.63.19-.93.33l-.15-.02-.13.08c-.33.34-.88.02-1.2.39h0c-.34.36-.88.05-1.23.39h.01c-.35.38-.91.09-1.29.39h-.17s-.15.06-.15.06c-.34.32-.88.01-1.21.37h0c-.36.36-.91.09-1.29.38l-.17-.02-.15.07c-.36.32-.89.03-1.24.36h-.2s-.18.07-.18.07c-.29.17-.63.18-.94.3l-.13-.03-.12.07c-.38.36-.93.1-1.34.37Z"/>
  <path class="cls-9" d="M373.61,415.33c-.6-1.02-1.72-1.27-2.67-1.68-7.92-3.41-15.87-6.75-23.8-10.14-6.09-2.6-12.14-5.27-18.23-7.88-6.08-2.61-12.19-5.16-18.27-7.76-5.16-2.21-10.3-4.48-15.46-6.7-5.16-2.21-10.35-4.37-15.51-6.58-5.16-2.21-10.3-4.48-15.46-6.69-5.16-2.21-10.35-4.37-15.51-6.58-4.18-1.79-8.34-3.63-12.52-5.42-5.16-2.22-10.37-4.32-15.48-6.64-4.15-1.87-8.38-3.52-12.55-5.35-4.28-1.88-8.61-3.66-12.91-5.52-3.74-1.62-7.45-3.33-11.2-4.93-3.75-1.6-7.46-3.29-11.27-4.74-3.25-1.24-6.38-2.76-9.6-4.08-6.31-2.59-12.41-5.64-18.8-8.07-3.68-1.4-7.22-3.17-10.85-4.74-2.82-1.22-5.72-2.27-8.49-3.6-4.59-2.19-9.4-3.87-14-6.03-2.78-1.3-5.67-2.39-8.49-3.6-4.73-2.03-9.43-4.14-14.18-6.13-4.75-1.99-9.4-4.19-14.22-6.01-1.82-.68-3.47-1.73-5.31-2.38-4.04-1.43-7.83-3.43-11.82-4.99-3.48-1.36-6.83-3.06-10.31-4.45-1.48-.59-1.49-.58-1.67,1.05-.19.07-.3,0-.33-.2-.03-.36-.06-.72-.08-1.08-.4-.8.08-1.72-.33-2.52-.02-.37-.05-.74-.07-1.1-.45-1.06.13-2.23-.34-3.29-.02-.38-.04-.76-.05-1.14-.46-1.35.13-2.79-.34-4.14.12-.77.05-1.54-.07-2.31-.36-4.87-.06-9.74-.17-14.61.11-.93.21-1.85.21-2.79,0-2.26.52-2.6,2.67-1.7,2.97,1.24,5.92,2.52,8.88,3.79,26,11.15,52,22.29,78,33.44,22.98,9.85,45.97,19.68,68.94,29.55,1.23.53,2.48,1.03,3.75,1.44.19.07.36.18.52.32.32.39.53.85.84,1.25,2.22,6.25,3.91,12.67,5.92,18.99.53,1.67,1.3,3.07,2.87,3.93.5.36,1.07.37,1.65.36.58,0,1.15,0,1.73,0,.72,0,1.45.06,2.17-.09.16-.05.32-.09.48-.12.38-.07.76-.08,1.13-.18.13-.05.26-.09.4-.14.19-.07.37-.15.55-.24.11-.07.23-.12.35-.17.17-.08.35-.16.51-.25.11-.07.22-.13.33-.18.11-.06.22-.12.33-.17.1-.07.21-.14.31-.21.09-.08.19-.16.28-.25,0,0,.14-.13.13-.13.09-.09.18-.17.28-.25.1-.08.2-.15.31-.2.11-.07.21-.12.32-.18.1-.07.21-.14.31-.22.09-.09.19-.17.28-.26,0,0,.14-.14.14-.14.09-.11.19-.2.29-.31.05-.06.1-.11.15-.16.1-.12.22-.23.33-.34.06-.06.13-.1.19-.16.15-.1.31-.17.48-.22.19-.03.38-.02.57.01,7.62,2.99,15.07,6.36,22.59,9.56,22.19,9.47,44.35,19.01,66.54,28.51,22.06,9.44,44.12,18.88,66.15,28.38,2.27.98,4.65,1.74,6.76,3.07.14.13.26.28.34.45.03.19,0,.36-.13.51-.06.07-.11.13-.17.2-.12.12-.24.25-.36.37-.06.06-.12.12-.18.18-.12.12-.25.23-.37.35-.13.1-.27.2-.41.29-.41.29-.74.66-1.1,1.01-.11.11-.22.22-.33.33-.11.11-.22.2-.34.29-.06.04-.12.08-.18.12-.12.08-.23.16-.33.26-.05.05-.1.1-.15.15-.1.09-.2.19-.29.29-.05.05-.1.1-.14.14-.1.09-.19.19-.29.29-.05.05-.1.1-.14.14-.1.1-.19.19-.29.29-.05.05-.1.1-.15.14-.1.1-.2.19-.3.29-.11.09-.22.16-.34.24-.18.11-.34.24-.49.38-.1.1-.2.19-.3.28-.1.09-.21.18-.32.26-.05.04-.11.08-.17.12-.11.08-.21.17-.31.27-.05.05-.1.1-.15.14-.1.1-.2.19-.29.29-.05.05-.1.1-.15.15-.1.1-.2.2-.3.3-.11.09-.23.17-.35.24-.18.11-.34.25-.51.38-.11.09-.22.17-.34.25-.11.08-.21.18-.29.29-.05.13-.12.24-.2.36h-.01c-.15.13-.27.28-.43.39h.01c-.12.15-.26.3-.44.39l.03-.03c-.11.18-.25.33-.45.41l.03-.04c-.13.33-.57.21-.72.5l-.04.03c-.15.1-.29.22-.42.35h0c-.14.14-.27.29-.44.39l.02-.02c-.11.18-.25.33-.45.41l.03-.04c-.14.32-.57.21-.73.5l-.04.03c-.15.11-.29.22-.42.35h0c-.13.14-.26.29-.44.39l.02-.02c-.11.18-.25.33-.45.41l.03-.04c-.14.33-.57.23-.75.49h-.02c-.15.13-.28.28-.44.38l.02-.02c-.12.17-.26.32-.45.4l.03-.04c-.15.32-.57.21-.74.49l-.03.02c-.16.1-.28.25-.44.36v-.02c-.12.15-.25.15-.38,0Z"/>
  <path class="cls-14" d="M206.14,309.45c-1.3.28-2.36-.49-3.43-.94-5.18-2.16-10.31-4.45-15.47-6.67-5.16-2.21-10.34-4.36-15.5-6.58-5.16-2.21-10.3-4.48-15.46-6.69-5.16-2.21-10.34-4.37-15.5-6.58-4.18-1.79-8.34-3.63-12.52-5.42-5.16-2.21-10.33-4.4-15.49-6.61-4.18-1.79-8.35-3.6-12.53-5.39-4.3-1.84-8.61-3.66-12.91-5.5-4.12-1.76-8.23-3.55-12.34-5.31-5.28-2.26-10.58-4.51-15.86-6.77-4.18-1.79-8.35-3.59-12.51-5.42-.8-.35-1.58-.66-2.45-.85-.75,1.29.2,2.76-.68,3.91-.4-1.6-.29-3.21-.05-4.82.12-.64.17-1.27.06-1.92.47-1.34-.12-2.77.34-4.12.02-.5.05-1.01.07-1.51.46-1.07-.13-2.26.35-3.33.01-.24.03-.48.04-.72.46-.93-.11-1.98.36-2.91.02-.23.03-.47.05-.7.38-.66-.04-1.45.33-2.11.02-.25.04-.5.06-.76.47-.77-.1-1.71.38-2.48.07-.1.08-.21.03-.33.42-.64-.06-1.44.36-2.08.07-.11.08-.24.04-.36.45-.63-.06-1.43.37-2.06.07-.11.08-.22.04-.35.45-.63-.09-1.45.39-2.08.07-.09.08-.18.03-.29.35-.53-.04-1.21.36-1.72.07-.1.08-.2.04-.31.37-.52-.04-1.2.37-1.71.07-.09.09-.18.04-.29.1-.18.2-.35.29-.53.72-1.8,1.24-2.01,3.21-1.19,5.39,2.24,10.75,4.55,16.11,6.86,14.66,6.31,29.35,12.58,44.02,18.85,6.78,2.9,13.54,5.87,20.34,8.72,1.45.61,2.74,1.44,3.34,3.01.11,3.21,1.93,5.17,4.71,6.39,4.8,2.12,9.88,3.38,14.86,4.94,9.39,2.95,18.8,5.85,28.19,8.8,3.45,1.09,6.95,2.02,10.33,3.32,1.08.51,1.5,1.48,1.81,2.53,3.74,12.52,7.62,25.01,11.33,37.54.24.81.72,1.64.08,2.49Z"/>
  <path class="cls-2" d="M80.82,131.11c.09-.06.12-.15.11-.26.05-.25.2-.42.4-.55l-.02.02c.1-.17.25-.29.36-.44v-.02c.28-.18.18-.6.48-.76l-.03.03c.09-.19.24-.31.39-.45h0c.13-.12.24-.27.34-.42l.03-.04c.3-.15.19-.57.47-.73l-.03.03c.1-.17.25-.3.38-.45h0c.25-.2.15-.62.48-.77l-.04.03c.08-.2.23-.34.41-.45l-.02.02c.1-.17.25-.3.38-.44h0c.25-.2.15-.62.48-.77l-.04.03c.08-.2.23-.34.41-.45l-.03.02c.1-.18.25-.31.39-.44h0c.13-.12.25-.26.35-.42l.03-.04c.29-.16.18-.58.49-.73l-.03.03c.09-.19.24-.32.41-.44l-.02.02c.11-.16.26-.29.38-.44h0c.26-.2.16-.62.49-.77l-.04.03c.08-.2.23-.34.42-.44l-.03.03c.1-.18.25-.32.41-.44l-.02.02c.11-.16.26-.28.38-.43h0c.14-.12.26-.26.34-.41l.04-.05c.3-.14.19-.57.49-.72l-.04.03c.09-.19.24-.33.41-.44l-.02.02c.1-.17.25-.3.4-.44h0c.12-.13.27-.26.37-.41v-.02c.38-.33.5-.85.9-1.15l-.04.03c.09-.19.24-.33.42-.44l-.02.02c.1-.18.25-.31.41-.44l-.02.02c.12-.16.26-.29.39-.43h0c.14-.13.26-.26.37-.41l.02-.03c.38-.32.48-.85.89-1.14l-.04.03c.09-.2.24-.34.42-.44l-.03.03c.1-.18.25-.32.42-.44l-.02.02c.11-.18.25-.31.41-.43l-.02.02c.11-.16.26-.29.4-.43h0c.13-.13.27-.26.39-.41h0c.14-.13.26-.26.37-.41l.03-.03c.15-.1.27-.22.35-.38l.04-.04c.18-.12.37-.18.58-.2,5.17,1.87,10.15,4.21,15.2,6.37,20.23,8.64,40.44,17.34,60.67,26,23,9.85,46,19.7,69,29.56,9.06,3.88,18.13,7.76,27.18,11.68,1,.43,2.8.55,1.93,2.54-2.06,1.59-4.6,2.12-6.95,3.03-9.1,3.55-18.22,7.05-27.34,10.56-1.17.45-2.29,1.15-3.64.87-.8-1.03-1.82-1.72-3.02-2.23-32.32-13.82-64.63-27.66-96.94-41.51-17.14-7.35-34.28-14.69-51.41-22.05-1.12-.48-2.33-.63-3.42-1.15-.13-.31-.18-.6.12-.84l-.03.03c.09-.18.25-.3.38-.45h0c.25-.2.16-.61.47-.78l-.04.03c.08-.19.24-.32.39-.45h0c.12-.11.23-.25.33-.39Z"/>
  <path class="cls-10" d="M63.95,159.69c.08-.06.1-.15.07-.24.04-.23.18-.4.33-.56.08-.07.11-.15.07-.25.04-.23.18-.39.33-.56.08-.07.11-.15.07-.25.04-.22.18-.39.33-.55.08-.07.11-.15.08-.25.04-.23.18-.39.33-.55.08-.07.11-.15.07-.25.04-.24.19-.4.34-.57v-.02c.28-.19.2-.56.41-.78h0c.26-.21.18-.59.41-.8h0c.15-.14.31-.27.48-.39,1.13-.69,2.09.05,3.03.45,8.82,3.76,17.63,7.54,26.44,11.32,21.13,9.07,42.28,18.1,63.4,27.17,13.8,5.93,27.61,11.82,41.4,17.76.79.34,1.66.58,2.15,1.39.08.17.13.35.13.54-.15.37-.5.47-.82.61-.14.06-.29.12-.44.17-.28.11-.56.23-.83.35-.13.06-.27.1-.41.14-.21.06-.41.12-.61.21-.13.07-.26.13-.39.19-.19.1-.39.19-.59.28-.13.06-.27.1-.41.14-.21.06-.41.12-.61.2-.13.06-.26.11-.4.15-.27.08-.54.15-.8.26-.13.07-.26.12-.39.18-.19.1-.39.19-.59.27-.13.06-.27.1-.41.14-.21.06-.42.12-.62.21-.13.07-.26.13-.4.19-.2.1-.4.19-.6.28-.14.06-.28.1-.42.14-.21.06-.43.13-.63.21-.14.06-.28.11-.42.16-.21.07-.42.13-.63.21-.14.06-.27.11-.41.17-.21.09-.41.19-.62.29-.14.08-.28.14-.43.2-.4.16-.71.45-1.06.7-6.77,2.85-13.67,5.37-20.51,8.03-2.11.82-4.2,1.71-6.36,2.43-.63.21-1.23.56-1.93.35-2.59-2.51-6.05-3.39-9.22-4.75-26.12-11.2-52.24-22.43-78.37-33.6-6.1-2.61-12.15-5.35-18.35-7.72-.19-.09-.35-.22-.48-.38-.12-.3-.15-.59.09-.86h0c.37-.32.03-.89.42-1.2v.02c.21-.23.15-.57.33-.81.08-.1.11-.22.08-.34.19-.26.14-.62.35-.87.08-.09.1-.19.07-.3.16-.29.13-.66.36-.92h0c.38-.31.02-.9.44-1.2v.02c.19-.24.13-.59.34-.83.08-.08.1-.17.07-.28.15-.3.11-.68.38-.93v.02c.21-.23.14-.58.34-.82.08-.08.1-.18.08-.29.16-.29.12-.67.39-.92v.02c.21-.23.14-.59.35-.82.08-.08.1-.17.07-.27.14-.31.11-.69.39-.93l-.02.02c.2-.25.15-.61.38-.84h0c.24-.21.17-.56.36-.79.08-.08.11-.18.08-.3.16-.29.11-.67.4-.91v.02c.19-.24.13-.61.37-.84h0c.24-.21.16-.58.38-.8.08-.07.1-.15.07-.25.04-.22.18-.38.31-.55.08-.09.11-.19.09-.3.16-.29.11-.67.4-.9l-.02.02c.2-.25.14-.62.41-.83v.02c.2-.24.14-.61.39-.83h0c.23-.22.16-.58.39-.81h0c.24-.21.17-.58.39-.81h0c.26-.21.17-.58.39-.8Z"/>
  <path class="cls-12" d="M454.58,278.86c-.02.24-.04.48-.06.72-.41.65.06,1.45-.35,2.1-.06.12-.07.24-.03.36-.45.63.05,1.42-.36,2.05-.02.23-.05.46-.07.7-.34.53.03,1.2-.35,1.72-.07.11-.08.23-.04.35-.39.49,0,1.15-.35,1.66-.03.23-.05.47-.08.7-.25.4-.05.91-.32,1.31-.03.24-.06.47-.09.71-.26.4-.05.92-.32,1.31-.07.12-.08.25-.05.38-.42.48.02,1.15-.37,1.64-.07.1-.08.21-.04.33-.3.37-.06.89-.33,1.27-.07.12-.09.25-.05.38-.43.48.04,1.17-.39,1.64-.07.09-.08.18-.04.28-.27.4-.03.94-.35,1.32-.07.09-.08.19-.04.3-.28.39-.02.93-.36,1.31-.07.08-.09.18-.05.28-.12.24-.28.27-.48.1-.56-1.24-1.58-1.86-2.81-2.39-21.54-9.28-43.13-18.47-64.67-27.75-12.31-5.3-24.66-10.52-36.93-15.9-1.31-.57-2.65-.56-3.99-.81-.33-.65-.19-1.31-.05-1.96,1.18-5.34,2.24-10.71,3.42-16.05.18-.57.35-1.14.41-1.73.03-.18.07-.37.12-.54.18-.5.27-1.03.33-1.56.02-.17.07-.34.12-.51.14-.4.24-.81.31-1.23.03-.17.07-.33.12-.49.17-.48.22-.98.28-1.48.02-.17.07-.33.11-.5.17-.48.23-.98.29-1.48.02-.17.07-.33.11-.5.14-.4.22-.81.25-1.23.02-.26.08-.5.15-.75.14-.4.23-.82.3-1.24.03-.17.07-.34.12-.51.17-.51.21-1.04.28-1.57.03-.19.07-.37.12-.56.26-.84.2-1.8.97-2.44,1.12-.7,2.09,0,3.03.41,9.59,4.14,19.22,8.21,28.82,12.33,17.54,7.54,35.1,15.03,52.64,22.57,6.95,2.99,13.92,5.94,20.86,8.98.95.42,1.86.87,1.67,2.17-.08,1.1.18,2.22-.17,3.31-.02.37-.04.75-.06,1.12-.45.93.1,1.98-.34,2.91-.02.25-.03.5-.05.76-.45.77.06,1.68-.34,2.46l-.08,1.11c-.38.66.05,1.46-.34,2.12Z"/>
  <path class="cls-5" d="M203.7,212.43c-.84-1.53-2.54-1.67-3.89-2.27-5.36-2.41-10.79-4.67-16.2-6.97-5.16-2.2-10.34-4.36-15.5-6.57-5.16-2.21-10.3-4.48-15.46-6.69-5.16-2.21-10.34-4.37-15.5-6.57-4.18-1.79-8.34-3.63-12.51-5.42-5.16-2.21-10.33-4.4-15.49-6.61-4.18-1.79-8.35-3.59-12.53-5.38-4.3-1.84-8.61-3.66-12.91-5.51-4.18-1.79-8.35-3.6-12.52-5.4-.86-.37-1.75-.67-2.58-1.1-.57-.3-1.03-.07-1.54.06-.1-.27-.11-.53.12-.76h0c.23-.21.16-.59.42-.8v.02c.21-.23.14-.62.42-.82l-.02.02c.21-.24.14-.63.43-.82l-.03.03c.11-.15.21-.29.33-.44.08-.07.11-.16.09-.27.05-.22.2-.38.34-.55v-.02c.28-.19.19-.58.43-.78h0c.24-.21.16-.6.43-.8v.02c.19-.24.12-.63.43-.82l-.03.03c.08-.18.24-.3.35-.46v-.02c.29-.18.2-.57.44-.77h0c.24-.21.16-.6.44-.79l-.03.03c.11-.14.22-.29.33-.43.08-.07.12-.16.1-.26.05-.23.2-.39.36-.55h0c.25-.21.16-.6.44-.79l-.02.03c.11-.14.22-.29.33-.43.08-.07.12-.15.1-.26.05-.23.2-.4.37-.56h0c.24-.21.16-.61.45-.79l-.03.03c.09-.17.25-.29.35-.46v-.03c.29-.18.2-.58.46-.76v.02c.21-.23.12-.63.44-.81l-.04.03c.08-.19.24-.32.38-.46h0c.24-.21.15-.61.46-.79l-.03.03c.08-.18.24-.31.37-.46h0c.26-.2.17-.61.46-.79l-.03.03c.09-.18.25-.3.37-.45h0c.26-.2.17-.61.46-.79l-.03.03c.09-.17.25-.3.36-.45h0c.27-.2.17-.61.46-.78l-.03.03c.09-.18.25-.3.37-.45h0c.09-.16.19-.17.31-.04,1.03-.25,1.96.03,2.9.44,7.37,3.16,14.76,6.3,22.13,9.47,6.08,2.61,12.14,5.27,18.23,7.88,6.08,2.61,12.19,5.16,18.27,7.76,5.16,2.21,10.3,4.48,15.46,6.7,5.16,2.21,10.35,4.37,15.51,6.58,5.16,2.21,10.3,4.48,15.46,6.7,5.16,2.21,10.35,4.37,15.51,6.58,5.16,2.21,10.3,4.48,15.46,6.69,4.24,1.82,8.5,3.58,12.74,5.4.86.37,1.7.8,2.52,1.26.55.31.97.76.54,1.47-.13,1.03-1.07,1.11-1.75,1.38-8.78,3.4-17.57,6.79-26.36,10.15-.66.25-1.36.65-2.09.12Z"/>
  <path class="cls-15" d="M149.71,69.48c2.47.67,4.68,1.96,7.03,2.92,5.07,2.08,10.11,4.25,15.15,6.41,3.5,1.5,6.98,3.06,10.48,4.58,4.17,1.81,8.35,3.61,12.53,5.4,4.18,1.79,8.37,3.55,12.55,5.33,4.43,1.88,8.86,3.77,13.28,5.67,4.18,1.8,8.34,3.63,12.52,5.42,5.16,2.21,10.33,4.4,15.5,6.61,4.18,1.79,8.35,3.6,12.53,5.39,4.3,1.84,8.61,3.66,12.92,5.5,4.12,1.76,8.23,3.55,12.35,5.32,5.29,2.26,10.58,4.5,15.86,6.77,4.18,1.79,8.34,3.62,12.52,5.41,4.24,1.82,8.49,3.61,12.73,5.43,4.18,1.79,8.35,3.6,12.53,5.39,4.3,1.84,8.61,3.66,12.92,5.5,4.12,1.76,8.23,3.55,12.35,5.31,5.29,2.26,10.58,4.51,15.86,6.77,4.12,1.76,8.23,3.55,12.34,5.32,5.29,2.26,10.58,4.5,15.86,6.77,4.18,1.79,8.34,3.62,12.52,5.41,4.24,1.82,8.49,3.61,12.73,5.43,4.18,1.79,8.35,3.59,12.53,5.39.8.34,1.6.68,2.4,1.01.28.05.3.3.4.49-.03.12-.02.22.05.33.32.37.05.9.36,1.27-.03.12-.02.23.05.34.31.37.05.9.35,1.28-.03.12-.02.22.05.33.31.38.07.92.35,1.31-.04.1-.03.2.04.29.43.48-.03,1.17.39,1.66-.03.13-.02.25.05.37.29.39.06.91.33,1.3-.04.11-.03.21.04.3.41.5,0,1.19.37,1.69-.04.11-.03.22.04.32.28.38.2.79.09,1.21-1.05.46-1.97-.06-2.87-.45-29.59-12.67-59.18-25.34-88.76-38.03-.61-.26-1.27-.45-1.7-1.03-.6-1.28-.11-2.67-.45-3.97-.05-.18-.09-.37-.12-.56-.08-.52-.08-1.06-.23-1.57-.05-.15-.09-.31-.12-.47-.07-.29-.14-.59-.24-.87-.05-.13-.09-.26-.13-.4-.05-.19-.09-.39-.16-.57-.06-.11-.12-.22-.19-.33-.08-.1-.16-.2-.23-.3-.08-.1-.15-.2-.2-.32-.06-.1-.12-.21-.18-.32-.07-.1-.14-.2-.21-.3-.08-.09-.16-.18-.24-.27,0,0-.13-.13-.13-.13-.09-.08-.18-.17-.27-.26,0,0-.13-.13-.13-.13-.1-.08-.18-.17-.27-.27,0,0-.13-.14-.14-.13-.1-.08-.18-.17-.27-.27,0,0-.13-.14-.14-.13-.1-.08-.19-.17-.29-.25,0,0-.15-.12-.16-.11-.12-.06-.23-.13-.35-.19-.13-.06-.24-.13-.36-.21-.12-.08-.23-.16-.35-.25-.06-.04-.12-.07-.19-.11-.21-.09-.42-.16-.63-.22-.15-.04-.3-.08-.45-.14-.39-.13-.79-.18-1.19-.25-.17-.03-.33-.07-.5-.11-.94-.23-1.88-.21-2.81.04-.25.07-.5.11-.75.14-.4.04-.81.07-1.2.19-.15.05-.3.09-.45.13-.22.06-.44.12-.66.2-.14.07-.28.12-.42.18-.21.1-.41.19-.62.28-.14.06-.29.11-.43.15-.22.07-.43.13-.65.22-.14.06-.28.11-.43.16-.22.07-.44.14-.65.22-.14.07-.28.12-.42.18-.21.1-.42.19-.63.28-.14.06-.29.11-.43.15-.22.07-.43.13-.64.21-.14.06-.28.11-.42.16-.21.07-.43.13-.64.21-.14.06-.28.12-.41.17-.21.09-.42.19-.62.29-.15.07-.3.13-.45.18-.33.1-.65.21-1,.25-.09,0-.18-.01-.28-.02-.19-.05-.37-.12-.54-.21-5.56-2.84-11.41-5.05-17.13-7.52-24.96-10.74-49.94-21.41-74.91-32.12-23.92-10.26-47.84-20.52-71.77-30.76-10.24-4.38-20.48-8.76-30.71-13.16-.8-.35-1.64-.65-1.95-1.59-.05-.22,0-.41.17-.56l-.04.02c.18-.29.58-.2.79-.45h0c.15-.13.27-.29.45-.37l-.03.03c.18-.31.58-.23.81-.45h-.02c.19-.25.59-.15.76-.43h.03c.16-.12.28-.28.45-.37l-.03.03c.19-.29.58-.21.8-.44h-.01c.19-.24.59-.14.76-.43l.03-.02c.17-.1.28-.25.45-.35l-.03.03c.19-.29.58-.21.81-.44h-.01c.2-.25.59-.15.77-.43h.02c.16-.12.28-.28.46-.36l-.03.03c.19-.3.58-.23.82-.44h-.02c.2-.26.59-.18.8-.42h0c.16-.17.32-.32.56-.36.1.03.18,0,.25-.07.15-.12.27-.26.45-.34l-.03.03c.22-.29.47-.3.75-.07Z"/>
  <path class="cls-13" d="M341.42,255.11c.61-.83,1.31-.91,2.26-.49,3.79,1.68,7.61,3.28,11.42,4.92,6.94,2.99,13.86,6.01,20.81,8.98,6.7,2.86,13.43,5.63,20.13,8.5,5.41,2.31,10.77,4.73,16.18,7.05,4.85,2.08,9.74,4.08,14.6,6.14,3.38,1.44,6.74,2.94,10.12,4.4,3.5,1.51,7.01,2.98,10.51,4.49,1.23.53,2.6.96,2.31,2.77.25.4.27.78-.03,1.17h0c-.35.32-.06.85-.36,1.2-.07.11-.09.23-.06.35-.32.36-.04.9-.37,1.26-.07.09-.09.19-.05.29-.15.29-.14.63-.31.9-.07.11-.1.24-.07.37-.34.35-.03.9-.38,1.25-.07.08-.09.17-.05.28-.14.3-.13.65-.32.92-.07.1-.1.21-.06.33-.18.26-.15.6-.32.87-.08.11-.1.24-.07.37-.34.35-.03.91-.4,1.25h0c-.36.32-.04.88-.4,1.21h0c-.37.32-.05.88-.4,1.21h0c-.38.32-.04.88-.41,1.21h0c-.37.32-.03.88-.41,1.21h0c-.36.32-.03.89-.42,1.21v-.02c-.2.23-.15.57-.32.81-.08.11-.1.23-.08.36-.2.25-.14.61-.34.86-.08.09-.1.19-.07.31-.17.28-.12.65-.36.91-.08.07-.1.16-.06.26-.13.31-.11.69-.38.94v-.02c-.2.23-.14.58-.34.82-.08.09-.1.2-.08.31-.17.28-.13.65-.37.9h0c-.23.21-.17.55-.35.79-.08.1-.11.21-.08.33-.18.27-.14.64-.37.89h0c-.18.14-.37.15-.57.03-2.29-1.85-5.12-2.61-7.75-3.74-29.94-12.85-59.89-25.68-89.83-38.52-2.64-1.13-5.3-2.2-7.93-3.36-.51-1.71.32-3.26.58-4.87.18-.55.31-1.11.38-1.68.03-.18.07-.36.12-.54.18-.5.26-1.02.32-1.54.02-.17.07-.34.12-.5.14-.4.24-.81.31-1.23.03-.17.07-.33.12-.49.17-.48.22-.98.28-1.48.02-.17.06-.33.11-.49.17-.48.23-.98.29-1.48.02-.17.07-.33.12-.49.14-.4.23-.8.3-1.22.03-.17.07-.33.12-.49.17-.49.21-1,.28-1.51.02-.18.07-.35.12-.52.18-.53.2-1.08.28-1.63.03-.2.07-.39.12-.58.26-1.38.59-2.74.91-4.1.15-.64.21-1.35.98-1.62Z"/>
  <path class="cls-18" d="M335.78,281.69c.68-.4,1.32-.08,1.92.18,5.1,2.19,10.18,4.42,15.28,6.61,5.16,2.21,10.34,4.37,15.51,6.58,4.18,1.79,8.34,3.63,12.52,5.42,5.16,2.22,10.33,4.4,15.49,6.61,4.18,1.79,8.35,3.6,12.53,5.38,4.3,1.84,8.61,3.66,12.91,5.51,4.12,1.76,8.23,3.54,12.35,5.31,1.6.68,3.22,1.3,4.8,2.04.92.43,2.15.61,2.26,2,.07.13.06.26-.03.37-.16.14-.25.32-.26.54-.03.13-.08.27-.13.39-.06.2-.13.4-.2.59-.03.14-.08.27-.13.4-.12.16-.28.31-.33.52-.02.14-.05.27-.11.4-.08.19-.15.38-.24.57-.06.13-.12.25-.19.37-.08.19-.15.39-.22.58-.03.14-.08.27-.13.4-.13.16-.29.31-.32.54-.02.14-.07.28-.12.41-.09.28-.19.55-.26.83-.02.22-.05.44-.24.6v-.02c-.2.24-.15.6-.38.83h0c-.24.21-.16.58-.38.8-.08.07-.1.15-.07.25-.03.23-.18.39-.32.56-.08.08-.11.17-.08.28-.05.2-.19.36-.3.52-.08.09-.12.2-.1.32-.18.28-.12.67-.41.89l.02-.03c-.2.25-.13.62-.41.83l.02-.02c-.2.24-.14.62-.41.83v-.02c-.2.24-.13.62-.4.83v-.02c-.2.24-.13.61-.4.82v-.02c-.2.24-.13.61-.4.82v-.02c-.2.24-.13.62-.41.82v-.02c-.2.24-.13.62-.41.82v-.02c-.19.24-.12.62-.41.83l.02-.02c-.2.25-.13.63-.43.83l.03-.03c-.1.15-.21.29-.32.44-.09.08-.12.18-.1.29-.06.2-.19.36-.32.52-.08.07-.11.15-.09.25-.04.23-.2.4-.34.56h0c-.26.21-.18.59-.42.8h0c-.24.21-.16.6-.43.8v-.02c-.2.23-.13.62-.42.82l.03-.03c-.11.15-.21.29-.32.44-.09.07-.12.16-.1.27-.05.22-.2.38-.34.55v.02c-.2.1-.4.11-.61.05-11.39-5.08-22.92-9.86-34.37-14.79-20.7-8.91-41.42-17.78-62.13-26.66-.98-.42-2.1-.38-2.97-1.06-.36-1.02.03-1.99.24-2.96.66-3.08,1.27-6.17,1.97-9.24.62-2.09.7-4.32,1.49-6.37.22-.41.43-.83.51-1.3.03-.18.08-.35.14-.52.18-.49.24-1.01.3-1.52.02-.17.06-.34.11-.5.17-.48.23-.99.29-1.49.02-.17.07-.33.11-.5.14-.4.22-.81.25-1.23.02-.26.08-.51.15-.75.14-.41.23-.83.36-1.23.07-.16.18-.29.32-.4Z"/>
  <path class="cls-7" d="M329.77,309.87c.54-.32,1.04-.44,1.69-.15,3.97,1.75,7.96,3.47,11.95,5.18,4.29,1.84,8.6,3.66,12.89,5.5,4.11,1.76,8.22,3.54,12.33,5.3,4.36,1.87,8.72,3.71,13.08,5.58,4.17,1.79,8.33,3.61,12.5,5.4,5.22,2.23,10.44,4.44,15.66,6.67,4.11,1.76,8.22,3.54,12.33,5.3,1.53.66,3.09,1.27,4.61,1.96.9.41,1.93.63,2.46,1.61,0,0-.06.19-.06.19-.03.13-.08.24-.14.36-.06.11-.12.23-.19.33-.09.17-.16.34-.25.51-.05.12-.13.22-.23.29-.17.12-.23.29-.24.49-.02.14-.08.25-.18.34-.1.09-.18.2-.25.31,0,0-.1.17-.1.17-.05.12-.11.24-.17.36-.06.12-.14.23-.24.32-.18.12-.25.3-.26.51-.02.14-.09.25-.18.35-.09.09-.18.2-.24.31,0,0-.1.17-.1.17-.08.19-.15.37-.23.56-.04.13-.1.25-.17.37-.09.06-.12.15-.1.26-.05.24-.2.4-.37.55h0c-.24.21-.15.61-.45.79l.03-.03c-.08.18-.24.3-.35.46v.02c-.28.18-.19.59-.46.77l.02-.02c-.11.14-.22.28-.33.43-.09.06-.12.14-.1.24-.04.25-.19.42-.38.57h0c-.22.21-.14.62-.46.78l.04-.03c-.08.19-.23.33-.38.46h0c-.23.21-.15.62-.46.79l.04-.03c-.08.19-.24.32-.38.46h0c-.24.21-.15.62-.47.78l.04-.03c-.08.2-.24.32-.38.46h0c-.24.21-.15.62-.47.78l.04-.03c-.08.19-.23.33-.39.46h.01c-.12.12-.23.25-.33.4-.09.06-.13.14-.11.25-.04.25-.19.42-.39.56l.02-.02c-.1.16-.25.28-.35.45l-.02.03c-.28.17-.18.59-.47.75l.03-.03c-.09.18-.25.31-.38.45h0c-.25.2-.15.62-.48.78l.04-.03c-.08.2-.23.33-.4.45l.02-.02c-.1.16-.26.28-.36.44l-.02.03c-.28.17-.18.59-.48.75l.03-.03c-.09.19-.24.32-.39.45h0c-.13.12-.24.27-.34.42l-.03.04c-.3.15-.19.58-.48.73l.03-.04c-.15.18-.33.22-.54.12-5.95-2.93-12.13-5.35-18.22-7.97-23.02-9.9-46.04-19.76-69.07-29.64-1.15-.49-2.5-.61-3.39-1.65-.41-1.01-.04-1.99.18-2.96,1.4-6.34,2.68-12.7,4.05-19.05.22-1.02.25-2.16,1.3-2.82Z"/>
  <path class="cls-21" d="M54.76,182.68c1.61-.06,2.96.81,4.35,1.4,7.08,2.98,14.11,6.09,21.17,9.11,7,3,14.02,5.94,21.02,8.93,6.08,2.6,12.13,5.27,18.21,7.87,5.16,2.21,10.34,4.36,15.49,6.57,5.16,2.21,10.3,4.47,15.45,6.69,2.82,1.22,5.64,2.44,8.48,3.62.98.41,1.73,1,2.08,2.02-.09.15-.21.28-.35.38-.3.2-.59.42-.88.64-4.48,1.94-9.07,3.59-13.6,5.38-3.05,1.2-5.99,2.61-8.58,4.69-1.26,1.01-1.64,2.74-3.11,3.52-.79-1.43-2.1-2.21-3.54-2.81-4.25-1.79-8.49-3.58-12.73-5.38-4.43-1.88-8.85-3.76-13.27-5.66-5.15-2.22-10.29-4.47-15.45-6.69-4.72-2.03-9.46-4.04-14.19-6.05-4.24-1.8-8.49-3.58-12.73-5.4-4.05-1.74-8.09-3.51-12.14-5.25-1.41-.61-1.67-.45-2.6,1.3-.21-.39-.21-.79,0-1.18.03-.23.06-.45.09-.68.25-.41.03-.94.34-1.34.07-.1.09-.21.05-.33.29-.38.05-.9.34-1.28.07-.11.09-.23.05-.36.32-.36.06-.87.34-1.24.07-.12.09-.24.06-.38.43-.48-.05-1.18.41-1.64v.02c.33-.34.05-.86.34-1.21.07-.11.09-.24.06-.37.33-.36.05-.89.36-1.25.07-.1.09-.21.06-.33.3-.38.03-.92.37-1.29.07-.08.09-.17.05-.27.14-.3.13-.64.31-.92.08-.11.1-.23.06-.35.32-.36.03-.91.38-1.27.08-.08.09-.17.05-.27.14-.3.12-.65.32-.93.08-.1.1-.21.06-.32.3-.38.01-.94.4-1.29v.02c.33-.34.02-.9.39-1.23h0c.37-.32.04-.88.4-1.21.08-.07.09-.16.05-.26.13-.31.11-.67.34-.95.08-.08.1-.17.06-.27.14-.3.12-.67.35-.94.08-.07.1-.16.06-.26.05-.14.12-.27.22-.38.28-.26.23-.71.58-.92Z"/>
  <path class="cls-23" d="M359.53,170.96c2.87.74,5.45,2.2,8.17,3.3,4.46,1.81,8.87,3.74,13.29,5.64,4.18,1.8,8.34,3.63,12.51,5.42,5.16,2.21,10.33,4.4,15.49,6.61,4.18,1.79,8.35,3.6,12.53,5.39,4.3,1.84,8.61,3.66,12.91,5.5,4.12,1.76,8.23,3.53,12.34,5.32,1.89.83,3.78,1.66,5.76,2.28.26.06.29.3.38.5-.04.11-.03.21.03.31.4.52.02,1.2.36,1.73.02.23.05.46.07.69.36.51-.02,1.18.34,1.69.02.24.05.48.07.73.34.52-.02,1.18.33,1.7l.06.72c.4.64-.07,1.43.35,2.07.02.25.04.5.06.75.38.65-.06,1.44.34,2.09l.05.72c.43.79-.08,1.72.35,2.51.02.37.05.75.07,1.12.43.92-.12,1.96.34,2.88.02.38.04.76.06,1.14.46,1.2-.14,2.5.34,3.69.02.51.04,1.03.06,1.54.34,1,.1,2.02.15,3.03-.81.55-.86-.23-.98-.64-.24-.77-.09-1.6-.22-2.39-.07-.23-.15-.45-.32-.63-.18-.13-.37-.23-.57-.32-.19-.09-.38-.19-.57-.28-.13-.05-.25-.12-.36-.18-.17-.1-.35-.2-.52-.28-.12-.04-.24-.1-.35-.16-.17-.08-.35-.15-.54-.2-.19-.04-.38-.09-.56-.17-.18-.08-.35-.17-.53-.25-.12-.05-.24-.11-.35-.17-.17-.09-.33-.18-.51-.26-.12-.04-.23-.1-.35-.16-.17-.08-.35-.15-.53-.2-.19-.04-.38-.09-.56-.17-.18-.08-.35-.17-.53-.25-.12-.05-.24-.11-.35-.17-.17-.09-.33-.18-.51-.26-.12-.04-.23-.1-.35-.16-.17-.08-.35-.15-.53-.2-.19-.04-.38-.09-.56-.17-.18-.08-.35-.17-.53-.25-.12-.05-.24-.11-.35-.17-.17-.09-.33-.18-.51-.26-.12-.04-.23-.1-.35-.16-.17-.08-.35-.15-.53-.2-.19-.04-.38-.09-.56-.17-.18-.08-.35-.17-.53-.25-.12-.05-.24-.11-.35-.17-.17-.09-.33-.18-.51-.26-.12-.04-.23-.1-.35-.16-.17-.08-.35-.15-.53-.2-.19-.04-.38-.09-.56-.17-.18-.08-.35-.17-.53-.25-.12-.05-.24-.11-.35-.17-.17-.09-.33-.18-.51-.26-.12-.04-.23-.1-.35-.16-.17-.08-.35-.15-.53-.2-.19-.04-.38-.09-.56-.17-.18-.08-.35-.17-.53-.25-.12-.05-.24-.11-.35-.17-.17-.09-.33-.18-.51-.26-.12-.04-.23-.1-.35-.16-.17-.08-.35-.15-.53-.2-.19-.04-.38-.09-.56-.17-.18-.08-.35-.17-.53-.25-.12-.05-.24-.11-.35-.17-.17-.09-.33-.18-.51-.26-.12-.04-.23-.1-.35-.16-.17-.08-.35-.15-.53-.2-.19-.04-.38-.09-.56-.17-.18-.08-.35-.17-.53-.25-.12-.05-.24-.11-.35-.17-.17-.09-.33-.18-.51-.26-.12-.04-.23-.1-.35-.16-.17-.08-.35-.15-.53-.2-.19-.04-.38-.09-.56-.17-.18-.08-.35-.17-.53-.25-.12-.05-.24-.11-.35-.17-.17-.09-.33-.18-.51-.26-.12-.04-.23-.1-.35-.16-.17-.08-.35-.15-.53-.2-.19-.04-.38-.09-.56-.17-.18-.08-.35-.17-.53-.25-.12-.05-.24-.11-.35-.17-.17-.09-.33-.18-.51-.26-.12-.04-.23-.1-.35-.16-.17-.08-.35-.15-.53-.2-.19-.04-.38-.09-.56-.17-.18-.08-.35-.17-.53-.25-.12-.05-.24-.11-.35-.17-.17-.09-.33-.18-.51-.26-.12-.04-.23-.1-.35-.16-.17-.08-.35-.15-.53-.2-.19-.04-.38-.09-.56-.17-.18-.08-.35-.17-.53-.25-.12-.05-.24-.11-.35-.17-.17-.09-.33-.18-.51-.26-.12-.04-.23-.1-.35-.16-.17-.08-.35-.15-.53-.2-.19-.04-.38-.09-.56-.17-.18-.08-.35-.17-.53-.25-.12-.05-.24-.11-.35-.17-.17-.09-.33-.18-.51-.26-.12-.04-.23-.1-.35-.16-.17-.08-.35-.15-.53-.2-.19-.04-.38-.09-.56-.17-.18-.08-.35-.17-.53-.25-.12-.05-.24-.11-.35-.17-.17-.09-.33-.18-.51-.26-.12-.04-.23-.1-.35-.16-.17-.08-.35-.15-.53-.2-.19-.04-.38-.09-.56-.17-.18-.08-.35-.17-.53-.25-.12-.05-.24-.11-.35-.17-.17-.09-.33-.18-.51-.26-.12-.04-.23-.1-.35-.16-.17-.08-.35-.15-.53-.2-.19-.04-.38-.09-.56-.17-.18-.08-.35-.17-.53-.25-.12-.05-.24-.11-.35-.17-.17-.09-.33-.18-.51-.26-.12-.04-.23-.1-.35-.16-.17-.08-.35-.15-.53-.2-.19-.04-.38-.09-.56-.17-.18-.08-.35-.17-.53-.25-.12-.05-.24-.11-.35-.17-.17-.09-.33-.18-.51-.26-.12-.04-.23-.1-.35-.16-.17-.08-.35-.15-.53-.2-.19-.04-.38-.09-.56-.17-.18-.08-.35-.17-.53-.25-.12-.05-.24-.11-.35-.17-.17-.09-.33-.18-.51-.26-.12-.04-.23-.1-.35-.16-.17-.08-.35-.15-.53-.2-.19-.04-.38-.09-.56-.17-.18-.08-.35-.17-.53-.25-.12-.05-.24-.11-.35-.17-.17-.09-.33-.18-.51-.26-.12-.04-.23-.1-.35-.16-.17-.08-.35-.15-.53-.2-.19-.04-.38-.09-.56-.17-.18-.08-.35-.17-.53-.25-.12-.05-.24-.11-.35-.17-.17-.09-.33-.18-.51-.26-.12-.04-.23-.1-.35-.16-.17-.08-.35-.15-.53-.2-.19-.04-.38-.09-.56-.17-.18-.08-.35-.17-.53-.25-.12-.05-.24-.11-.35-.17-.17-.09-.33-.18-.51-.26-.12-.04-.23-.1-.35-.16-.17-.08-.35-.15-.53-.2-.19-.04-.38-.09-.56-.17-.18-.08-.35-.17-.53-.25-.12-.05-.24-.11-.35-.17-.17-.09-.33-.18-.51-.26-.12-.04-.23-.1-.35-.16-.17-.08-.35-.15-.53-.2-.19-.04-.38-.09-.56-.17-.18-.08-.35-.17-.53-.25-.12-.05-.24-.11-.35-.17-.17-.09-.33-.18-.51-.26-.12-.04-.23-.1-.35-.16-.17-.08-.35-.15-.53-.2-.19-.04-.38-.09-.56-.17-.18-.08-.35-.17-.53-.25-.12-.05-.24-.11-.35-.17-.17-.09-.33-.18-.51-.26-.12-.04-.23-.1-.35-.16-.17-.08-.35-.15-.53-.2-.19-.04-.38-.09-.56-.17-.18-.08-.35-.17-.53-.25-.12-.05-.24-.11-.35-.17-.17-.09-.33-.18-.51-.26-.12-.04-.23-.1-.35-.16-.17-.08-.35-.15-.53-.2-.19-.04-.38-.09-.56-.17-.18-.08-.35-.17-.53-.25-.12-.05-.24-.11-.35-.17-.17-.09-.33-.18-.51-.26-.12-.04-.23-.1-.35-.16-.17-.08-.35-.15-.53-.2-.19-.04-.38-.09-.56-.17-.18-.08-.35-.17-.53-.25-.12-.05-.24-.11-.35-.17-.17-.09-.33-.18-.51-.26-.12-.04-.23-.1-.35-.16-.17-.08-.35-.15-.53-.2-.19-.04-.38-.09-.56-.17-.18-.08-.35-.17-.53-.25-.12-.05-.24-.11-.35-.17-.17-.09-.33-.18-.51-.26-.12-.04-.23-.1-.35-.16-.17-.08-.35-.15-.53-.2-.19-.04-.38-.09-.56-.17-.18-.08-.35-.17-.53-.25-.12-.05-.24-.11-.35-.17-.17-.09-.33-.18-.51-.26-.12-.04-.23-.1-.35-.16-.17-.08-.35-.15-.53-.2-.19-.04-.38-.09-.56-.17-.18-.08-.35-.17-.53-.25-.12-.05-.24-.11-.35-.17-.17-.09-.33-.18-.51-.26-.12-.04-.23-.1-.35-.16-.17-.08-.35-.15-.53-.2-.19-.04-.38-.09-.56-.17-.18-.08-.35-.17-.53-.25-.12-.05-.24-.11-.35-.17-.17-.09-.33-.18-.51-.26-.12-.04-.23-.1-.35-.16-.17-.08-.35-.15-.53-.2-.19-.04-.38-.09-.56-.17-.18-.08-.35-.17-.53-.25-.12-.05-.24-.11-.35-.17-.17-.09-.33-.18-.51-.26-.12-.04-.23-.1-.35-.16-.17-.08-.35-.15-.53-.2-.19-.04-.38-.09-.56-.17-.18-.08-.35-.17-.53-.25-.12-.05-.24-.11-.35-.17-.17-.09-.35-.19-.53-.27-.13-.05-.25-.1-.37-.16-.2-.08-.4-.14-.6-.19-.23-.05-.45-.12-.66-.21-.23-.1-.46-.2-.7-.3-.93-.45-1.85-.87-2.88-.22-.27.17-.41-.18-.54-.39-.11-2.44.77-4.71,1.21-7.05.88-4.64,1.98-9.24,2.91-13.88.14-.72.26-1.45.81-2.01.19-.17.4-.19.62-.05Z"/>
  <path class="cls-8" d="M455.8,264.86c-.09-1.03-1.01-1.19-1.7-1.49-6.74-2.93-13.48-5.84-20.24-8.72-6.7-2.85-13.45-5.58-20.11-8.52-4.28-1.88-8.58-3.72-12.88-5.57-3.93-1.69-7.85-3.38-11.78-5.07-3.62-1.55-7.24-3.1-10.87-4.65-4.06-1.72-8.12-3.42-12.17-5.16-3.5-1.5-6.98-3.04-10.48-4.56-1.78-.77-3.57-1.5-5.34-2.28-.42-.18-.76-.17-1.14.03-.1-.1-.24-.2-.24-.31.22-3.66.75-7.26,2.34-10.62,2.75,3.07,6.75,3.84,10.29,5.38,21.22,9.21,42.53,18.24,63.77,27.41,9.48,4.09,18.98,8.14,28.49,12.17,1.74.74,1.88.63,1.91-1.34.05-2.72,0-2.8-2.51-3.88-32.84-14.11-65.7-28.18-98.56-42.25-.91-.39-1.9-.69-2.53-1.56-.25-1.99.1-3.87,1.12-5.61.91-.26,1.72.08,2.52.43,18.34,7.91,36.73,15.72,55.07,23.63,9.48,4.09,18.97,8.15,28.47,12.18,5,2.12,10,4.22,14.98,6.39.67.29,1.36.57,1.91,1.09.3.32.19.79.42,1.14.02,1.58.04,3.16.06,4.75.27,1.47.27,2.94,0,4.41-.02,1.58-.04,3.16-.06,4.74-.49,2.02.14,4.11-.35,6.13-.02.51-.04,1.01-.06,1.52-.04.18-.15.24-.33.18Z"/>
  <path class="cls-6" d="M206.14,309.45c-.49-2.7-1.45-5.27-2.24-7.89-3.23-10.75-6.53-21.47-9.79-32.21-.26-.85-.51-1.66-1.34-2.13,9.9-5.65,19.34-12.03,29.01-18.06,15.71-9.8,31.32-19.75,46.99-29.61,13.97-8.79,27.9-17.64,41.89-26.39,1.77-1.11,3.61-2.08,5.71-2.42,1.32-.21,2.64-.13,3.4,1.14.8,1.36.02,2.44-.96,3.37-3.45,3.28-7.01,6.44-10.55,9.61-3.25,2.9-6.51,5.79-9.73,8.72-6.74,6.13-13.56,12.18-20.3,18.32-6.14,5.6-12.29,11.2-18.48,16.74-6.5,5.81-12.86,11.76-19.45,17.46-.12.12-.25.24-.38.35-.12.11-.24.22-.37.32-.06.05-.12.1-.18.15-.11.11-.22.21-.34.31-.05.05-.11.1-.16.15-.1.11-.21.21-.32.31-.05.05-.11.1-.16.15-.1.1-.21.2-.33.29-.11.09-.23.17-.36.24-.18.12-.35.23-.52.36-.1.09-.21.18-.32.26-.1.09-.2.18-.3.27,0,0-.15.13-.15.14-.09.1-.19.19-.28.28,0,0-.14.13-.14.14-.09.1-.18.19-.28.27,0,0-.14.13-.14.14-.09.1-.18.19-.28.28,0,0-.14.14-.14.14-.09.1-.18.19-.28.28-.05.05-.1.1-.14.15-.09.1-.19.2-.29.3-.05.05-.1.1-.15.15-.1.11-.22.2-.33.29-.12.1-.25.18-.38.27-.49.31-.87.73-1.26,1.14-2.47,2.44-5.06,4.74-7.69,7-.87.74-1.38,1.6-1.61,2.68-.34,4.82-.66,9.63-1,14.45-.53,7.49-.93,14.98-1.5,22.47-.32,4.21-.39,8.43-.9,12.63-.15,1.26-.63,2.04-2.06,1.79-.6-.06-1.23.16-1.8-.19-1.87-.72-2.7-2.23-3.25-4.05-1.89-6.34-3.84-12.66-5.77-18.99-.04-.12-.16-.21-.24-.32-.37-.33-.05-.89-.4-1.23h.01Z"/>
  <path class="cls-20" d="M398.98,393.21c-.21.06-.34.2-.4.41-.21.06-.34.2-.4.41-.13.14-.27.27-.4.41-.21.06-.35.19-.4.4-.21.05-.35.19-.4.4-.21.06-.34.19-.4.4-.21.06-.35.19-.4.4-.21.06-.35.19-.4.4-.21.06-.35.19-.4.4-.21.06-.35.19-.4.4-.21.05-.35.19-.4.4-.14.13-.27.27-.41.4-.14.13-.27.27-.41.4-.21.05-.35.19-.41.4-.21.05-.35.19-.41.4-.22.05-.35.18-.41.39-.12.01-.25.02-.37.03-1.61-1.4-3.68-1.86-5.55-2.71-4.38-1.99-8.83-3.81-13.26-5.69-5.16-2.19-10.34-4.37-15.5-6.57-4.18-1.79-8.34-3.62-12.51-5.41-4.24-1.82-8.48-3.61-12.72-5.42-4.18-1.79-8.35-3.6-12.52-5.39-4.3-1.84-8.61-3.66-12.91-5.5-4.12-1.76-8.22-3.54-12.34-5.31-4.36-1.87-8.73-3.71-13.09-5.58-4.18-1.79-8.34-3.62-12.51-5.41-4.24-1.82-8.48-3.61-12.72-5.42-4.18-1.79-8.34-3.62-12.53-5.38-4.99-2.1-9.88-4.41-14.96-6.29-.08-.27-.06-.56.12-.76,2.3-2.42,4.39-5.05,7.23-6.9,1.44-.38,2.77-.02,4.1.55,44.84,19.24,89.71,38.44,134.56,57.65,7.46,3.19,14.91,6.39,22.35,9.61,1.03.45,2.43.66,2.39,2.29,0,.12-.02.25-.03.37-.21.06-.34.19-.39.41-.21.06-.34.2-.39.41Z"/>
  <path class="cls-24" d="M236.35,322.36c-2.6,2.24-5.01,4.67-7.31,7.21,0,0,.02,0,.02,0-.13.15-.25.31-.42.42l.02-.02c-.12.16-.25.3-.42.42l.02-.02c-.11.17-.25.31-.42.42l.02-.02c-.11.17-.25.31-.42.42l.02-.02c-.18.28-.58.18-.77.45h-.02c-.14.13-.28.26-.41.39h0c-.14.13-.27.28-.43.39l.02-.02c-.2.27-.59.19-.79.44h0c-.22.23-.59.15-.79.41h-.01c-.23.22-.59.16-.81.39h0c-.33.36-.89.04-1.23.4h-.2s-.19.03-.19.03c-.77.44-1.69-.11-2.45.36-.63,0-1.27,0-1.9,0-.14-.04-.2-.1-.19-.19.01-.1.04-.15.07-.15,1.09.05,1.61-.24,1.71-1.55.31-4.05.57-8.09.81-12.14.26-4.25.56-8.49.81-12.74.22-3.91.56-7.82.8-11.74.26-4.11.77-8.21.75-12.34,0-.66.19-1.18.82-1.47,1.28-.11,2.09.82,2.96,1.47,7.54,5.69,15.22,11.19,22.78,16.85.14.09.28.2.41.3.13.09.24.2.36.31.05.05.11.11.16.16.1.1.2.2.3.31.05.04.1.1.15.14.16.13.33.23.5.32.12.05.23.13.34.21.11.08.21.17.3.26,0,0,.14.14.15.14.1.09.2.18.3.26,0,0,.16.12.16.12.12.06.23.13.35.2.12.06.23.14.34.22.11.08.21.17.31.27.05.05.1.09.15.14.1.09.21.18.31.27.06.04.11.08.17.12.19.12.38.24.55.39.09.15.12.3.11.47-.05.17-.13.32-.23.46-.81.94-1.72,1.78-2.59,2.66-.12.13-.25.25-.38.38-.12.13-.25.25-.38.38-.06.07-.13.13-.19.19-.12.14-.25.27-.38.39-3.91,3.73-7.46,7.84-11.64,11.28-.67.55-1.39,1.03-2.05,1.59Z"/>
  <path class="cls-20" d="M219.36,334.41c.75-.58,1.63-.29,2.45-.36-.73.69-1.63.27-2.45.36Z"/>
  <path class="cls-20" d="M217.34,334.06c.04.11.08.23.12.34-.58-.02-1.22.22-1.67-.37.52,0,1.04.02,1.56.03Z"/>
  <path class="cls-20" d="M222.2,334.02c.32-.41.78-.39,1.23-.4-.29.49-.78.4-1.23.4Z"/>
  <path class="cls-14" d="M206.13,309.45c.41.32.4.78.4,1.23-.49-.29-.4-.77-.4-1.23Z"/>
  <path class="cls-20" d="M226.67,331.62c.15-.32.43-.44.77-.45-.14.35-.44.43-.77.45Z"/>
  <path class="cls-20" d="M225.04,332.82c.17-.31.46-.41.79-.44-.15.35-.46.43-.79.44Z"/>
  <path class="cls-20" d="M224.25,333.23c.18-.3.46-.4.79-.41-.17.32-.46.39-.79.41Z"/>
  <path class="cls-20" d="M223.42,333.62c.19-.3.48-.38.81-.38-.18.32-.48.38-.81.38Z"/>
  <path class="cls-20" d="M228.64,329.99c.14-.14.28-.28.42-.42-.14.14-.28.28-.42.42Z"/>
  <path class="cls-20" d="M228.23,330.39c.14-.14.28-.28.42-.42-.14.14-.28.28-.42.42Z"/>
  <path class="cls-20" d="M227.83,330.79c.14-.14.28-.28.42-.42-.14.14-.28.28-.42.42Z"/>
  <path class="cls-20" d="M227.42,331.19c.06-.22.2-.35.42-.42-.14.14-.28.28-.42.42Z"/>
  <path class="cls-20" d="M226.24,332.01c.14-.13.28-.25.41-.38-.14.13-.28.25-.41.38Z"/>
  <path class="cls-20" d="M225.82,332.4c.14-.13.29-.26.43-.4-.14.13-.29.26-.43.4Z"/>
  <path class="cls-4" d="M239.53,266.38c1.47-2.03,3.57-3.43,5.41-5.05,1.95-1.72,3.81-3.55,5.78-5.26,2.07-1.78,4.11-3.63,6.11-5.52,3.16-2.98,6.5-5.76,9.74-8.64,1.6-1.42,3.1-2.95,4.72-4.35,3.59-3.1,6.99-6.43,10.52-9.61,3.22-2.91,6.57-5.68,9.75-8.64,1.76-1.64,3.58-3.23,5.35-4.86,3.34-3.08,6.63-6.24,10.07-9.21,3.8-3.27,7.43-6.73,11.19-10.05.2-.18.37-.39.57-.57.78-.67,1.26-1.51.77-2.48-.47-.94-1.46-1.12-2.44-1.05-2.13.16-4.01,1.1-5.76,2.19-6.35,3.97-12.66,8.01-18.99,12.01-9.84,6.21-19.69,12.41-29.53,18.62-6.56,4.14-13.11,8.3-19.67,12.44-8.71,5.5-17.42,10.99-26.14,16.48-7.24,4.56-14.49,9.12-21.73,13.69-.77.49-1.58.7-2.47.67-2.56-.77-5.13-1.52-7.69-2.31-13.87-4.33-27.74-8.67-41.61-12.99-1.99-.62-3.96-1.28-5.72-2.41-2.17-1.4-3.57-3.23-3.28-5.98,1.17-2.79,3.34-4.62,5.89-6.08,3.33-1.91,6.98-3.08,10.52-4.5,2.98-1.19,6.03-2.19,8.93-3.58.25-.26.62-.22.91-.38.11.03.21,0,.29-.07,3.58-1.12,7.02-2.61,10.51-3.95,5.94-2.27,11.87-4.57,17.8-6.87.24-.09.46-.25.69-.38.29-.43.88-.05,1.19-.45h.01c.24-.22.59-.18.84-.37h-.02c.3-.41.88-.05,1.2-.42h0c.25-.25.62-.21.91-.37.11.03.21,0,.3-.07.24-.21.59-.14.82-.35h-.01c.25-.26.63-.23.93-.37.1.03.19.01.27-.06.23-.23.59-.16.84-.36h-.02c.3-.4.88-.05,1.2-.42h0c.25-.24.62-.2.9-.37.11.02.22,0,.31-.07.24-.2.59-.13.82-.35h-.01c.25-.26.63-.23.93-.37.1.03.2,0,.28-.06.23-.22.59-.16.83-.36h-.02c.3-.4.89-.04,1.2-.42,0,0,0,0,0,0,4.02-1.24,7.87-2.93,11.79-4.42,5.92-2.25,11.83-4.55,17.73-6.84.24-.09.45-.26.68-.39,3.54-1.03,6.9-2.54,10.34-3.85,8.64-3.28,17.25-6.62,25.87-9.95.56-.22,1.09-.51,1.63-.76,1.46-1.31,3.41-1.58,5.11-2.4,2.03-.8,4.1-1.48,6.1-2.36,2.82-1,5.58-2.14,8.35-3.26,2.39-.72,4.63-1.86,7.01-2.6.33-.12.65-.24.97-.38.15-.07.31-.12.46-.16.22-.07.45-.13.67-.21.14-.07.28-.12.42-.18.21-.1.41-.19.63-.28.14-.06.28-.11.43-.15.21-.07.43-.13.64-.21.14-.06.28-.11.42-.16.21-.07.42-.13.63-.2.14-.06.27-.11.41-.17.21-.09.41-.19.62-.28.14-.07.29-.13.44-.18.31-.11.62-.23.92-.39.16-.09.33-.17.5-.25,9.55-3.6,19.01-7.41,28.57-10.97.37-.11.79.2,1.14-.1h-.02c.31-.4.89-.04,1.2-.42h0c.23-.23.59-.18.84-.38h-.02c.3-.41.89-.06,1.21-.42h0c.25-.25.62-.21.92-.37.11.02.21,0,.29-.06.23-.22.59-.15.83-.36h-.02c.3-.39.88-.04,1.2-.42h0c.25-.23.62-.19.89-.37.12.02.23,0,.33-.08.23-.19.58-.12.79-.36h0c.26-.24.62-.2.91-.37.11.03.21.01.3-.05.37-.32.91-.06,1.29-.36.24-.02.49-.04.73-.07,1.07-.25,2.14-.28,3.2.02.12.06.23.07.36.04.36.33.9.04,1.26.37.09.07.18.08.28.06.3.15.68.11.91.4l-.03-.02c.15.11.29.22.43.34.08.07.17.1.27.09.23.06.4.2.54.39l-.02-.02c.16.11.28.26.43.38h0c.12.14.26.27.4.38l.02.02c.11.15.24.27.38.38l.02.02c.12.15.24.28.37.41h0c.14.14.29.27.39.43l-.02-.02c.28.18.18.58.45.77v.02c.12.15.28.27.37.45l-.03-.03c.31.23.26.62.41.92-.03.1-.01.19.06.27.24.26.19.63.36.91-.03.11-.02.21.05.3.41.49-.03,1.17.38,1.66-.04.12-.03.24.03.36.3,1.47.29,2.95,0,4.43-1.35,6.34-2.72,12.68-4.02,19.03-.29,1.43-.85,2.83-.81,4.32.13.12.19.27.17.45-.09.49-.16.99-.21,1.49-.02.17-.07.33-.12.49-.15.39-.23.8-.36,1.2-.07.16-.18.28-.32.38-.66,1.83-1,3.73-1.2,5.66.14.11.2.25.2.42-.07.4-.16.8-.22,1.21-.03.16-.07.32-.12.48-.17.47-.2.98-.35,1.46-.07.16-.18.29-.33.38-.95,2.79-1.31,5.72-1.95,8.58-.17.77-.53,1.53-.4,2.36-.56.74-.21,1.77-.8,2.49-.76-.8-1.55-.72-2.53-.3-10.76,4.65-21.46,9.43-32.2,14.13-11.72,5.13-23.42,10.3-35.13,15.45-11.77,5.18-23.54,10.36-35.32,15.52-1.16.51-2.32,1.17-3.57.21Z"/>
  <path class="cls-25" d="M276.99,184.2c-1.67.86-3.44,1.48-5.24,2.02.37-.64.07-.97-.52-1.23-1.35-.59-2.68-1.21-4.03-1.79-6.45-2.76-12.9-5.53-19.36-8.28-7.01-2.98-14.03-5.94-21.03-8.94-5.16-2.21-10.3-4.48-15.46-6.69-5.16-2.21-10.34-4.36-15.5-6.57-5.16-2.21-10.3-4.48-15.46-6.69-5.16-2.21-10.34-4.36-15.5-6.57-5.16-2.21-10.3-4.48-15.46-6.69-5.16-2.21-10.34-4.37-15.5-6.57-4.18-1.79-8.34-3.63-12.51-5.42-5.16-2.21-10.33-4.39-15.49-6.61-2.76-1.19-5.5-2.43-8.25-3.65.21-.35.41-.7.62-1.05.13-.14.26-.27.38-.41.13-.14.26-.28.39-.41.13-.14.26-.28.39-.42.13-.14.26-.27.39-.41.12-.02.25-.04.37-.05,1-.61,1.83.09,2.64.44,9.74,4.17,19.48,8.33,29.21,12.51,21.13,9.07,42.27,18.12,63.41,27.17,22.13,9.48,44.25,18.96,66.38,28.44,4.31,1.85,8.62,3.71,12.94,5.55.74.31,1.5.61,2.14,1.11.47.37.8.79.05,1.23Z"/>
  <path class="cls-5" d="M203.7,212.43c-.31.39-.75.43-1.2.43.26-.52.75-.43,1.2-.43Z"/>
  <path class="cls-5" d="M198.47,214.45c-.31.4-.75.43-1.2.43.26-.52.75-.43,1.2-.43Z"/>
  <path class="cls-5" d="M191.21,217.26c-.3.39-.74.42-1.19.45.26-.52.74-.43,1.19-.45Z"/>
  <path class="cls-5" d="M193.24,216.46c-.31.39-.75.43-1.2.44.26-.52.75-.43,1.2-.44Z"/>
  <path class="cls-5" d="M202.52,212.86c-.19.31-.5.38-.83.36.19-.32.49-.38.83-.36Z"/>
  <path class="cls-5" d="M201.41,213.28c-.24.3-.57.38-.93.38.2-.4.55-.42.93-.38Z"/>
  <path class="cls-5" d="M200.5,213.65c-.2.3-.48.38-.82.35.19-.31.49-.37.82-.35Z"/>
  <path class="cls-5" d="M199.37,214.08c-.23.3-.55.38-.9.37.2-.37.54-.4.9-.37Z"/>
  <path class="cls-5" d="M197.29,214.87c-.19.31-.5.38-.84.37.19-.33.49-.39.84-.37Z"/>
  <path class="cls-5" d="M196.18,215.3c-.24.3-.57.38-.93.38.2-.4.55-.42.93-.38Z"/>
  <path class="cls-5" d="M195.27,215.67c-.2.3-.49.38-.82.35.19-.31.49-.37.82-.35Z"/>
  <path class="cls-5" d="M194.14,216.1c-.23.3-.55.38-.91.37.2-.38.54-.41.91-.37Z"/>
  <path class="cls-5" d="M192.06,216.89c-.19.32-.5.38-.84.37.19-.33.49-.39.84-.37Z"/>
  <path class="cls-3" d="M239.53,266.38c1.39.17,2.6-.31,3.84-.88,3.65-1.66,7.36-3.2,11.03-4.81,3.86-1.69,7.7-3.42,11.56-5.12,4.1-1.8,8.21-3.58,12.32-5.38,3.67-1.61,7.34-3.25,11.01-4.87,5.27-2.31,10.54-4.6,15.8-6.92,4.96-2.19,9.89-4.43,14.85-6.6,6-2.63,12.02-5.21,18.03-7.83,2.51-1.1,5.01-2.22,7.52-3.34.37-.16.72-.37,1.1-.5,1.31-.45,1.37-.4,1.7,1.22.03.12.01.22-.05.33-.43.48.01,1.16-.37,1.66.03.13.02.25-.04.36-.33.39-.08.92-.33,1.32-.03.23-.06.46-.08.7-.31.38-.06.9-.33,1.29.04.11.03.21-.04.31-.44.49,0,1.18-.38,1.68.04.12.02.23-.04.34-.42.48.02,1.16-.37,1.65.03.13.02.25-.04.37-.32.38-.07.91-.33,1.31.04.1.03.2-.03.29-.46.49-.01,1.19-.38,1.7.04.11.02.22-.04.32-.43.48,0,1.17-.38,1.66-.37,3.13-1.24,6.15-1.81,9.24-.58,3.08-1.49,6.1-1.83,9.23-.62,1.68-.82,3.47-1.22,5.2-.07.32-.11.65-.35.91-4.21,1.39-8.15,3.4-12.18,5.2-7.71,3.43-15.48,6.74-23.18,10.19-11.49,5.14-23.07,10.09-34.58,15.22-6,2.67-12.07,5.17-18.03,7.91-.91.42-1.71,1.07-2.7,1.3-.82-.04-1.25-.73-1.82-1.15-7.12-5.25-14.22-10.52-21.34-15.78-.96-.71-1.97-1.36-2.96-2.03-.4-.58-.13-1.02.35-1.34,2.21-1.49,3.77-3.72,5.95-5.25,1.09-.76,1.79-1.96,2.95-2.65.58-.35,1.18-.66,1.6-1.22h0c.15-.12.28-.25.41-.4h0c.15-.12.28-.26.41-.4h0c.14-.12.28-.26.41-.4h0c.14-.13.28-.26.41-.4h0c.14-.13.27-.26.4-.4.14-.13.27-.26.4-.4h0c.13-.13.27-.27.4-.4h0c.38-.31.83-.5,1.2-.82h0c.15-.12.28-.25.41-.4h0c.15-.12.28-.26.41-.4h0c.14-.12.28-.26.41-.4h0c.14-.13.29-.25.41-.4h0Z"/>
  <path class="cls-4" d="M345.05,236.64c.03-.58-.21-1.21.38-1.66.01.59.06,1.18-.38,1.66Z"/>
  <path class="cls-4" d="M347.87,223.35c.03-.57-.21-1.21.37-1.66.02.58.07,1.18-.37,1.66Z"/>
  <path class="cls-4" d="M346.67,229.01c.02-.58-.22-1.23.38-1.68,0,.59.07,1.19-.38,1.68Z"/>
  <path class="cls-4" d="M346.26,230.99c.03-.57-.21-1.2.37-1.65.02.58.06,1.17-.37,1.65Z"/>
  <path class="cls-4" d="M345.47,234.66c.02-.59-.23-1.24.38-1.7,0,.59.06,1.2-.38,1.7Z"/>
  <path class="cls-4" d="M345.88,232.68c-.03-.47-.14-.97.33-1.31.04.48.03.94-.33,1.31Z"/>
  <path class="cls-4" d="M347.08,227.02c-.02-.46-.13-.95.33-1.29.05.47.04.92-.33,1.29Z"/>
  <path class="cls-4" d="M347.49,225.04c-.03-.48-.15-.98.33-1.32.04.48.04.95-.33,1.32Z"/>
  <path class="cls-23" d="M335.37,161.68c-3.59,1.66-7.33,2.91-11.01,4.35-5.42,2.12-10.85,4.2-16.29,6.29-.68.26-1.39.45-2.09.67-2.67-2-5.87-2.91-8.87-4.19-26.07-11.19-52.15-22.37-78.23-33.54-23.92-10.24-47.84-20.5-71.76-30.75-9.55-4.09-19.08-8.25-28.68-12.24-.37-.15-.75-.29-.97-.67.01-.12.03-.24.04-.36.22-.04.36-.16.43-.37.15-.12.29-.25.44-.37.14-.12.29-.24.43-.36.3-.09.55-.23.7-.52.14-.13.28-.25.42-.38.15-.12.29-.24.44-.36.15-.12.29-.24.44-.36.3-.08.56-.22.71-.51.14-.13.28-.25.43-.38.15-.12.3-.24.45-.36.15-.12.3-.23.44-.35.3-.09.56-.22.7-.52.22-.04.36-.15.44-.36.15-.12.3-.23.45-.35.3-.08.56-.22.72-.51.21-.04.36-.16.44-.36.15-.11.3-.23.45-.34.31-.07.57-.21.72-.5.15-.12.29-.24.44-.36.15-.11.3-.23.45-.34.3-.08.57-.2.72-.5.22-.03.37-.14.45-.35.32-.05.57-.2.75-.47.14-.12.29-.25.43-.37.15-.11.31-.22.46-.33.31-.07.57-.2.73-.49.22-.03.37-.13.46-.33.32-.05.57-.2.74-.48.15-.12.3-.23.45-.35.32-.04.57-.19.76-.46.15-.12.29-.24.44-.36.32-.04.58-.18.77-.45.15-.12.29-.24.44-.36.32-.03.58-.18.77-.44.15-.12.29-.24.44-.36.32-.04.58-.18.77-.45.15-.12.3-.23.45-.35.32-.04.59-.17.76-.46.13,0,.27,0,.4,0,.55.59,1.21.96,1.98,1.28,4.2,1.74,8.36,3.58,12.54,5.37,5.22,2.24,10.45,4.45,15.68,6.69,4.12,1.76,8.23,3.54,12.35,5.31,4.36,1.87,8.74,3.71,13.1,5.58,4.18,1.79,8.34,3.62,12.52,5.42,4.24,1.82,8.49,3.61,12.73,5.43,4.18,1.79,8.35,3.6,12.53,5.39,4.3,1.84,8.61,3.66,12.91,5.5,4.12,1.76,8.23,3.55,12.34,5.31,5.28,2.26,10.58,4.51,15.86,6.77,4.12,1.76,8.22,3.55,12.34,5.32,5.28,2.26,10.58,4.5,15.86,6.77,4.18,1.79,8.34,3.62,12.52,5.41,4.24,1.82,8.49,3.61,12.73,5.43,2.46,1.05,4.91,2.12,7.35,3.21.6.27,1.28.47,1.57,1.17-.1.17-.23.3-.4.4Z"/>
  <path class="cls-1" d="M359.14,170.96c0-1.48,0-2.95,0-4.43.84,1.41.19,2.96.39,4.43-.13,0-.26,0-.39,0Z"/>
  <path class="cls-1" d="M351.07,157.25c-1.07,0-2.14-.01-3.2-.02,1.07-.56,2.14-.58,3.2.02Z"/>
  <path class="cls-1" d="M359.11,166.18c-.43-.48-.37-1.08-.38-1.66.59.45.34,1.08.38,1.66Z"/>
  <path class="cls-1" d="M352.68,157.66c-.46.01-.91,0-1.25-.37.46,0,.94-.1,1.25.37Z"/>
  <path class="cls-1" d="M337.38,160.9c-.31.4-.75.42-1.2.43.27-.52.75-.42,1.2-.43Z"/>
  <path class="cls-1" d="M339.41,160.1c-.31.4-.76.43-1.21.44.26-.53.76-.43,1.21-.44Z"/>
  <path class="cls-1" d="M342.61,158.88c-.31.39-.75.43-1.2.43.27-.51.75-.42,1.2-.43Z"/>
  <path class="cls-1" d="M347.13,157.3c-.36.37-.82.38-1.29.36.33-.48.82-.38,1.29-.36Z"/>
  <path class="cls-1" d="M345.54,157.71c-.23.3-.55.37-.91.37.2-.37.54-.4.91-.37Z"/>
  <path class="cls-1" d="M353.88,158.12c-.36,0-.68-.1-.91-.4.38-.04.73,0,.91.4Z"/>
  <path class="cls-1" d="M344.63,158.08c-.19.28-.46.38-.79.36.18-.3.48-.35.79-.36Z"/>
  <path class="cls-1" d="M343.5,158.51c-.23.29-.54.38-.89.37.2-.36.53-.4.89-.37Z"/>
  <path class="cls-1" d="M341.44,159.3c-.2.3-.49.38-.83.36.19-.32.49-.38.83-.36Z"/>
  <path class="cls-1" d="M340.32,159.73c-.23.3-.56.38-.92.38.2-.39.54-.41.92-.38Z"/>
  <path class="cls-1" d="M338.22,160.52c-.19.32-.5.38-.84.38.18-.34.49-.4.84-.38Z"/>
  <path class="cls-1" d="M357.52,161.68c-.3-.17-.42-.44-.45-.77.35.14.43.44.45.77Z"/>
  <path class="cls-1" d="M335.37,161.68c.13-.13.27-.26.4-.4.14.01.29.02.43.03-.2.3-.5.38-.83.36Z"/>
  <path class="cls-1" d="M358.27,163.04c-.3-.23-.4-.56-.41-.92.43.18.45.54.41.92Z"/>
  <path class="cls-1" d="M358.68,164.22c-.29-.24-.37-.56-.36-.91.36.21.39.55.36.91Z"/>
  <path class="cls-1" d="M354.28,158.43c-.22-.02-.37-.12-.43-.34.14.11.29.22.43.34Z"/>
  <path class="cls-1" d="M355.09,158.91c-.18-.13-.36-.26-.54-.39.25.03.43.15.54.39Z"/>
  <path class="cls-1" d="M355.5,159.27c-.14-.13-.29-.26-.43-.38.14.13.29.26.43.38Z"/>
  <path class="cls-1" d="M355.91,159.66c-.21-.04-.34-.17-.4-.37.13.13.27.25.4.37Z"/>
  <path class="cls-1" d="M356.31,160.06c-.2-.05-.33-.18-.38-.38.13.13.25.25.38.38Z"/>
  <path class="cls-1" d="M356.71,160.49c-.2-.07-.33-.2-.37-.41.12.14.25.27.37.41Z"/>
  <path class="cls-1" d="M357.1,160.93c-.21-.07-.34-.22-.39-.44.13.15.26.29.39.44Z"/>
  <path class="cls-1" d="M357.89,162.15c-.22-.07-.33-.23-.36-.45.12.15.24.3.36.45Z"/>
  <path class="cls-16" d="M249.17,301.04c.32-.62.81-1.05,1.45-1.33,3.48-1.53,6.96-3.08,10.45-4.61,3.92-1.71,7.85-3.38,11.76-5.1,5.2-2.29,10.39-4.58,15.58-6.87,4.03-1.78,8.11-3.47,12.1-5.34,4.6-2.14,9.29-4.1,13.94-6.13,4.04-1.77,8.08-3.52,12.11-5.31,3.97-1.76,7.93-3.55,11.88-5.33.53-.24,1.01-.41,1.4.2.03.12,0,.23-.06.34-.43.48.01,1.17-.37,1.66.04.13.02.25-.05.36-.4.48.03,1.15-.37,1.63.03.14.02.26-.05.39-.31.38-.06.9-.33,1.29.04.11.03.21-.04.31-.44.49,0,1.18-.38,1.68.04.12.02.23-.04.34-.41.48.02,1.16-.37,1.64.03.13.02.26-.05.38-.31.38-.07.91-.33,1.31.04.1.03.2-.04.29-.45.49-.01,1.18-.38,1.69.04.11.03.22-.04.32-.43.49.01,1.17-.37,1.66.03,1.78-.86,3.4-.82,5.18-.07.1-.08.2-.04.31-.28.39-.05.9-.32,1.29-.03.23-.06.46-.09.69-.25.41-.04.93-.33,1.33-.07.11-.08.23-.05.36-.4.49.03,1.17-.37,1.66-.07.1-.08.21-.04.32-.38.51.04,1.2-.38,1.69-.07.09-.08.18-.04.29-.26.4-.05.92-.33,1.31-.66,1.73-.79,3.59-1.24,5.37-.1.38-.08.79-.39,1.09-9.3,3.92-18.49,8.08-27.73,12.12-8.33,3.65-16.66,7.29-24.98,10.97-.67.3-1.31.67-1.94,1.05-.24.14-.5.25-.77.28-.17,0-.34-.01-.5-.06-.14-.06-.28-.15-.4-.25-.06-.05-.11-.1-.17-.15-.1-.09-.21-.2-.3-.3-.05-.04-.1-.09-.15-.14-.16-.12-.33-.22-.5-.31-.12-.05-.23-.12-.33-.21-.1-.08-.2-.16-.29-.26,0,0-.14-.14-.14-.13-.1-.08-.19-.17-.28-.26,0,0-.15-.12-.15-.12-.17-.11-.35-.19-.52-.28-.13-.07-.24-.15-.35-.23-.12-.09-.22-.18-.33-.27-.06-.04-.11-.09-.17-.14-.17-.13-.35-.25-.53-.37-.12-.07-.24-.15-.35-.24-.11-.08-.21-.17-.31-.27-.05-.04-.1-.09-.15-.13-.16-.12-.33-.22-.5-.31-.12-.05-.23-.13-.34-.21-.11-.08-.21-.17-.3-.26,0,0-.14-.14-.14-.14-.1-.09-.2-.18-.3-.26,0,0-.16-.12-.16-.12-.12-.06-.23-.13-.35-.2-.12-.06-.23-.14-.34-.22-.11-.08-.21-.17-.31-.27-.05-.05-.1-.09-.15-.14-.1-.09-.2-.18-.3-.27,0,0-.16-.12-.16-.12-.12-.06-.23-.13-.35-.2-.12-.06-.23-.14-.34-.22-.11-.08-.21-.17-.3-.26,0,0-.14-.14-.14-.14-.1-.09-.2-.18-.3-.27,0,0-.16-.12-.16-.12-.18-.11-.37-.2-.56-.3-.14-.08-.26-.16-.38-.26-.13-.09-.26-.19-.39-.3-.07-.05-.14-.1-.21-.15-1.96-1.55-4.19-2.74-5.96-4.53-.16-.18-.31-.37-.48-.54-.11-.09-.22-.2-.33-.3-.11-.09-.22-.19-.32-.3-.05-.05-.1-.1-.15-.15-.1-.09-.21-.19-.31-.28-.06-.04-.11-.08-.17-.12-.12-.07-.24-.14-.36-.21-.12-.06-.24-.14-.34-.22-.11-.08-.21-.17-.3-.26,0,0-.14-.14-.14-.14-.1-.08-.19-.18-.28-.26,0,0-.15-.12-.15-.12-.17-.1-.34-.19-.51-.29-.13-.06-.22-.16-.27-.29-.03-.14-.09-.25-.2-.34h0c-.2-.25-.58-.17-.78-.42h-.02c-.14-.14-.28-.26-.41-.39h0c-.13-.14-.26-.28-.42-.39h.01c-.19-.26-.58-.17-.78-.42h-.01c-.14-.14-.28-.26-.41-.39h0c-.13-.14-.26-.28-.42-.39h.01c-.19-.26-.58-.18-.78-.42h0c-.14-.13-.27-.27-.42-.39h0c-.13-.14-.25-.29-.42-.39h-.01Z"/>
  <path class="cls-3" d="M339.42,263.22c.03-.58-.21-1.21.37-1.66.02.59.06,1.18-.37,1.66Z"/>
  <path class="cls-3" d="M339,265.21c.04-.56-.2-1.19.37-1.63.03.58.06,1.16-.37,1.63Z"/>
  <path class="cls-3" d="M338.21,268.87c.02-.58-.22-1.23.38-1.68.01.59.06,1.19-.38,1.68Z"/>
  <path class="cls-3" d="M337.8,270.85c.03-.57-.2-1.2.37-1.64.02.58.06,1.16-.37,1.64Z"/>
  <path class="cls-3" d="M337.01,274.52c.02-.59-.23-1.24.38-1.69,0,.59.06,1.2-.38,1.69Z"/>
  <path class="cls-3" d="M336.6,276.51c.03-.58-.21-1.21.37-1.66.02.59.06,1.18-.37,1.66Z"/>
  <path class="cls-3" d="M338.63,266.88c-.02-.46-.14-.95.33-1.29.05.47.04.93-.33,1.29Z"/>
  <path class="cls-3" d="M337.42,272.53c-.03-.47-.14-.96.33-1.31.05.47.04.94-.33,1.31Z"/>
  <path class="cls-17" d="M276.94,321.65c.62-1.2,1.9-1.44,2.96-1.92,4.32-1.97,8.67-3.86,13.02-5.75,4.78-2.08,9.58-4.12,14.35-6.2,3.8-1.66,7.58-3.36,11.36-5.05,3.79-1.69,7.58-3.36,11.36-5.07.72-.32,1.44-.24,2.17-.26-.34,3.1-1.25,6.1-1.8,9.16-.2,1.11-.4,2.21-.6,3.31-1.1,3.98-1.77,8.05-2.67,12.07-.86,3.89-1.69,7.8-2.51,11.7-.08.39-.07.79-.1,1.19-.74,7.83-6.12,12.42-12.61,11.11-3.5-.71-6.56-2.24-9.27-4.51-.15-.1-.3-.22-.44-.34-.06-.06-.13-.12-.19-.18-.12-.11-.24-.23-.35-.35-.05-.05-.11-.11-.16-.17-.16-.15-.34-.28-.52-.4-.12-.07-.24-.15-.35-.23-.11-.08-.21-.17-.31-.27-.05-.04-.09-.09-.14-.14-.1-.09-.19-.18-.29-.27,0,0-.15-.13-.15-.12-.17-.11-.35-.2-.53-.29-.13-.07-.24-.15-.35-.23-.12-.09-.23-.18-.34-.27-.06-.04-.11-.09-.17-.14-.17-.13-.35-.25-.53-.37-.12-.07-.24-.15-.35-.24-.11-.08-.21-.17-.32-.27-.05-.04-.1-.09-.15-.13-.16-.12-.33-.22-.5-.31-.12-.05-.23-.13-.34-.21-.11-.08-.21-.17-.3-.26,0,0-.14-.14-.14-.14-.1-.09-.2-.18-.3-.26,0,0-.16-.12-.16-.12-.12-.06-.23-.13-.35-.2-.12-.06-.23-.14-.34-.22-.11-.08-.21-.17-.31-.27-.05-.05-.1-.09-.15-.14-.1-.09-.2-.18-.3-.27,0,0-.16-.12-.16-.12-.12-.06-.23-.13-.35-.2-.12-.06-.23-.14-.34-.22-.11-.08-.21-.17-.31-.27-.05-.05-.1-.09-.15-.14-.1-.09-.2-.18-.3-.27,0,0-.16-.12-.16-.12-.12-.06-.23-.13-.35-.2-.12-.06-.23-.14-.34-.22-.11-.08-.21-.17-.31-.27-.05-.05-.1-.09-.15-.14-.1-.09-.2-.18-.3-.27-.06-.04-.11-.08-.16-.12-.12-.06-.24-.13-.36-.2-.12-.06-.24-.14-.35-.22-.11-.08-.22-.17-.32-.26-.06-.04-.11-.08-.17-.12-.12-.06-.24-.13-.36-.2-.12-.06-.24-.14-.35-.22-.11-.08-.21-.18-.31-.27-.05-.05-.1-.09-.15-.14-.1-.09-.2-.18-.3-.27,0,0-.16-.12-.16-.12-.12-.06-.23-.13-.35-.2-.12-.06-.23-.14-.34-.22-.11-.08-.21-.17-.31-.27-.05-.05-.1-.09-.15-.14-.1-.09-.2-.18-.3-.27,0,0-.16-.12-.16-.12-.12-.06-.23-.13-.35-.2-.12-.06-.23-.14-.34-.22-.11-.08-.21-.17-.31-.27-.05-.05-.1-.09-.15-.14-.1-.09-.2-.18-.3-.27,0,0-.16-.12-.16-.12-.12-.06-.23-.13-.35-.2-.12-.06-.23-.13-.34-.22-.11-.08-.21-.17-.3-.26,0,0-.14-.14-.14-.14-.1-.08-.19-.18-.28-.26,0,0-.15-.12-.15-.12-.17-.11-.35-.19-.53-.29-.13-.07-.24-.15-.35-.23-.12-.09-.22-.18-.33-.27-.06-.04-.11-.09-.17-.14-.17-.13-.35-.25-.53-.37-.12-.07-.24-.15-.35-.24-.11-.08-.21-.17-.31-.27-.05-.04-.1-.09-.15-.13-.16-.12-.33-.22-.5-.31-.12-.05-.23-.13-.34-.21-.11-.08-.21-.17-.3-.26,0,0-.14-.14-.15-.14-.1-.09-.2-.18-.3-.26,0,0-.16-.12-.16-.12-.12-.06-.24-.13-.36-.2-.12-.06-.24-.14-.35-.22-.11-.09-.21-.18-.31-.28-.05-.05-.1-.1-.15-.15-.1-.1-.18-.22-.25-.35-.02-.07-.03-.14-.05-.21.03-.06.07-.13.1-.19Z"/>
  <path class="cls-13" d="M334.58,287.32c-.02-.58-.06-1.17.37-1.66-.03.57.21,1.21-.37,1.66Z"/>
  <path class="cls-13" d="M334.16,289.34c0-.59-.06-1.2.38-1.69-.02.59.23,1.24-.38,1.69Z"/>
  <path class="cls-13" d="M335.41,283.28c-.05-.47-.04-.92.32-1.29.02.46.13.95-.32,1.29Z"/>
  <path class="cls-13" d="M333.79,290.94c-.04-.47-.03-.94.33-1.31.03.47.14.96-.33,1.31Z"/>
  <path class="cls-13" d="M334.99,285.3c-.04-.48-.03-.95.33-1.33.03.48.15.98-.33,1.33Z"/>
  <path class="cls-22" d="M302.49,340.83c2.17,1.29,4.08,3.02,6.56,3.8,1.47.47,2.95.95,4.48,1.01,3.84.15,6.66-1.57,8.6-4.86,1.1-1.87,1.58-3.97,2.36-5.95,1.89.02,3.42,1.11,5.07,1.79,5.19,2.13,10.3,4.44,15.45,6.65,5.15,2.21,10.33,4.36,15.48,6.57,5.16,2.21,10.29,4.48,15.44,6.69,5.15,2.21,10.33,4.36,15.48,6.57,4.17,1.78,8.33,3.61,12.5,5.41,3.25,1.4,6.5,2.79,9.76,4.17.61.26,1.33.34,1.41,1.21,0,.13,0,.27-.01.4-.13.14-.25.28-.38.42-.26.18-.43.42-.49.73-.21.08-.32.23-.35.45-.21.07-.33.22-.37.43-.28.16-.43.41-.51.72-.12.15-.23.3-.35.44-.12.15-.24.3-.36.44-.13.14-.26.27-.4.41-.25.18-.43.42-.49.73-.12.15-.24.29-.36.44-.12.15-.24.29-.37.44-.13.14-.26.27-.4.41-.26.18-.43.41-.5.72-.12.15-.24.29-.36.44-.12.15-.25.29-.37.44-.21.06-.34.21-.38.42-.44.26-.74.64-.9,1.12-.12.14-.24.29-.37.43-.21.07-.33.22-.37.43-.21.07-.33.22-.38.43-.13.14-.26.27-.4.41-.43.27-.74.63-.91,1.11-.12.14-.25.28-.37.42-.13.14-.25.28-.38.43-.13.14-.25.28-.38.42-.21.07-.34.21-.38.42-.21.06-.34.2-.39.41-.58.38-1.04.87-1.33,1.5-.13.14-.25.28-.38.42-.13.14-.26.28-.39.42-.13.14-.26.28-.39.42-.13.14-.26.28-.39.42-.21.06-.34.2-.39.41-.12.02-.24.03-.37.04-.43-.94-1.31-1.31-2.17-1.68-6.09-2.59-12.19-5.15-18.27-7.76-6.08-2.61-12.14-5.27-18.22-7.88-6.08-2.61-12.19-5.16-18.27-7.76-5.16-2.21-10.3-4.48-15.46-6.69-5.16-2.21-10.34-4.37-15.5-6.58-4.18-1.79-8.34-3.63-12.51-5.42-5.16-2.21-10.33-4.4-15.49-6.61-4.18-1.79-8.35-3.6-12.53-5.39-4.85-2.08-9.72-4.14-14.57-6.22-3.56-1.53-7.12-3.06-10.68-4.6-2.15-.93-4.28-1.9-6.44-2.79-1.06-.44-2.18-.57-3.32-.28,1.03-1.59,2.65-2.57,3.97-3.87,2.74-2.71,5.47-5.42,8.22-8.12.47-.46.87-1.01,1.49-1.3.12-.14.25-.27.39-.38l.02-.02c.12-.14.25-.26.39-.38l.02-.02c1.4-.96,2.72-.3,4.01.25,3.39,1.46,6.75,2.98,10.08,4.56h-.01c.12.16.26.31.45.39l-.03-.04c.15.32.56.22.75.48l.02.02c.15.11.27.26.44.36l-.02-.02c.12.17.25.32.45.4l-.03-.04c.15.33.56.23.76.48h.01c.15.13.27.29.44.38l-.02-.02c.11.18.25.33.45.4l-.03-.04c.14.34.56.24.77.48h0c.14.14.27.29.45.38l-.03-.02c.11.18.24.34.46.4l-.04-.04c.14.35.56.25.78.48h0c.13.14.26.3.45.38l-.03-.03c.33.38.8.56,1.2.85h0c.13.15.25.31.45.39l-.03-.03c.15.31.56.22.74.48l.03.02c.15.12.29.23.44.35h-.01c.12.15.26.3.45.38l-.03-.04c.15.32.56.23.75.48h.02c.15.13.27.28.44.38l-.02-.02c.12.17.25.33.45.4l-.03-.04c.14.34.58.21.76.48h.01c.15.13.27.29.45.38l-.02-.02c.11.18.25.34.46.4l-.04-.04c.14.34.56.25.77.48h0c.14.14.26.3.45.38l-.03-.03c.11.19.24.34.46.4l-.04-.04c.14.35.56.26.78.48h0c.13.15.26.3.45.38l-.03-.03c.33.39.8.57,1.2.85h0c.13.15.26.3.45.39l-.03-.03c.15.31.56.22.75.48l.03.02c.16.11.28.26.44.36l-.02-.02c.12.17.25.32.45.4l-.03-.04c.15.32.56.23.75.48h.02c.15.13.27.28.44.38l-.02-.02c.11.18.25.33.45.4l-.04-.04c.14.33.56.24.76.49h.01c.15.13.27.29.45.38l-.02-.02c.11.18.25.33.46.4l-.04-.04c.14.34.56.25.77.48h0c.14.14.26.3.45.38l-.03-.03c.1.19.24.34.46.41l-.04-.04c.14.35.56.26.78.48h0c.13.15.26.3.45.38l-.03-.03c.15.31.56.21.74.48l.04.03c.15.11.29.23.43.35h-.01c.12.15.26.3.45.38l-.03-.03c.15.31.56.22.75.48l.03.02c.16.11.28.26.44.36l-.02-.02c.12.17.25.32.45.4l-.03-.04c.15.33.56.23.75.48h.02c.15.13.27.28.44.38l-.02-.02c.11.18.25.33.45.4l-.04-.04c.14.34.56.24.76.48h0c.14.14.27.29.44.38l-.02-.02c.11.18.24.34.46.4l-.04-.04c.14.34.56.25.77.48h0c.14.14.26.3.45.38l-.03-.03c.33.38.81.56,1.2.85h0c.13.15.26.3.45.38l-.03-.03c.15.31.56.21.74.48l.04.03c.15.11.29.23.43.35h-.01c.12.15.26.3.45.38l-.03-.04c.15.31.56.22.75.48l.03.02c.16.11.28.26.44.36l-.02-.02c.13.19.3.34.53.39Z"/>
  <path class="cls-10" d="M160.72,228.98c-.23.3-.55.38-.91.38.2-.38.54-.41.91-.38Z"/>
  <path class="cls-25" d="M353.86,196.63c-.04-.11-.03-.21.03-.31.44-.49,0-1.17.38-1.68-.04-.12-.02-.23.04-.34.42-.98,1.08-1.27,2.05-.75.51.27,1.04.5,1.56.75.12.15.28.26.4.4h.81c.12.15.28.26.4.4h.4c.12.15.28.26.4.4h.4c.12.15.28.26.4.4h.81c.12.15.28.26.4.4h.4c.12.15.28.26.4.4h.4c.12.15.28.26.4.4h.81c.12.15.28.26.4.4h.4c.12.15.28.26.4.4h.4c.12.15.28.26.4.4h.81c.12.15.28.26.4.4h.4c.12.15.28.26.4.4h.4c.12.15.28.26.4.4h.81c.12.15.28.26.4.4h.4c.12.15.28.26.4.4h.4c.12.15.28.26.4.4h.81c.12.15.28.26.4.4h.4c.12.15.28.26.4.4h.4c.12.15.28.26.4.4h.81c.12.15.28.26.4.4h.4c.12.15.28.26.4.4h.4c.12.15.28.26.4.4h.81c.12.15.28.26.4.4h.4c.12.15.28.26.4.4h.4c.12.15.28.26.4.4h.81c.12.15.28.26.4.4h.4c.12.15.28.26.4.4h.4c.12.15.28.26.4.4h.81c.12.15.28.26.4.4h.4c.12.15.28.26.4.4h.4c.12.15.28.26.4.4h.81c.12.15.28.26.4.4h.4c.12.15.28.26.4.4h.4c.12.15.28.26.4.4h.81c.12.15.28.26.4.4h.4c.12.15.28.26.4.4h.4c.12.15.28.26.4.4h.81c.12.15.28.26.4.4h.4c.12.15.28.26.4.4h.4c.12.15.28.26.4.4h.81c.12.15.28.26.4.4h.4c.12.15.28.26.4.4h.4c.12.15.28.26.4.4h.81c.12.15.28.26.4.4h.4c.12.15.28.26.4.4h.4c.12.15.28.26.4.4h.81c.12.15.28.26.4.4h.4c.12.15.28.26.4.4h.4c.12.15.28.26.4.4h.81c.12.15.28.26.4.4h.4c.12.15.28.26.4.4h.4c.12.15.28.26.4.4h.81c.12.15.28.26.4.4h.4c.12.15.28.26.4.4h.4c.12.15.28.26.4.4h.81c.12.15.28.26.4.4h.4c.12.15.28.26.4.4h.4c.12.15.28.26.4.4h.81c.12.15.28.26.4.4h.4c.12.15.28.26.4.4h.4c.12.15.28.26.4.4h.81c.12.15.28.26.4.4h.4c.12.15.28.26.4.4h.4c.12.15.28.26.4.4h.81c.12.15.28.26.4.4h.4c.12.15.28.26.4.4h.4c.12.15.28.26.4.4h.81c.12.15.28.26.4.4h.4c.12.15.28.26.4.4h.4c.12.15.28.26.4.4h.81c.12.15.28.26.4.4h.4c.12.15.28.26.4.4h.4c.12.15.28.26.4.4h.81c.12.15.28.26.4.4h.4c.12.15.28.26.4.4h.4c.12.15.28.26.4.4h.81c.12.15.28.26.4.4h.4c.12.15.28.26.4.4h.4c.12.15.28.26.4.4h.81c.12.15.28.26.4.4h.4c.12.15.28.26.4.4h.4c.12.15.28.26.4.4h.81c.12.15.28.26.4.4h.4c.12.15.28.26.4.4h.4c.12.15.28.26.4.4h.81c.12.15.28.26.4.4h.4c.12.15.28.26.4.4h.4c.12.15.28.26.4.4h.81c.12.15.28.26.4.4h.4c.12.15.28.26.4.4h.4c.12.15.28.26.4.4h.81c.12.15.28.26.4.4h.4c.12.15.28.26.4.4h.4c.12.15.28.26.4.4h.81c.12.15.28.26.4.4h.4c.12.15.28.26.4.4h.4c.12.15.28.26.4.4h.81c.12.15.28.26.4.4h.4c.12.15.28.26.4.4h.4c.12.15.28.26.4.4h.81c.12.15.28.26.4.4h.4c.12.15.28.26.4.4h.4c.12.15.28.26.4.4h.81c.12.15.28.26.4.4.65.56.32,1.33.4,2,.09.68-.24,1.44.38,2.01.02.67.04,1.35.05,2.02-2.43-.75-4.68-1.94-7.02-2.91-5.06-2.08-10.09-4.25-15.12-6.4-3.5-1.5-6.98-3.05-10.47-4.56-3.86-1.67-7.73-3.32-11.6-4.97-3.62-1.55-7.24-3.1-10.86-4.65-5.28-2.26-10.57-4.5-15.84-6.76-4.17-1.79-8.33-3.61-12.51-5.4-5.22-2.23-10.44-4.45-15.66-6.67-1.21-.52-2.42-1.05-3.63-1.58.02-.13.04-.26.05-.4.31-.38.06-.9.33-1.29Z"/>
  <path class="cls-8" d="M358.32,194.71c-.13-.13-.27-.27-.4-.4.13.13.27.27.4.4Z"/>
  <path class="cls-8" d="M359.53,195.12c-.13-.13-.27-.27-.4-.4.13.13.27.27.4.4Z"/>
  <path class="cls-8" d="M360.33,195.52c-.13-.13-.27-.27-.4-.4.13.13.27.27.4.4Z"/>
  <path class="cls-8" d="M361.14,195.92c-.13-.13-.27-.27-.4-.4.13.13.27.27.4.4Z"/>
  <path class="cls-8" d="M362.35,196.33c-.13-.13-.27-.27-.4-.4.13.13.27.27.4.4Z"/>
  <path class="cls-8" d="M363.15,196.73c-.13-.13-.27-.27-.4-.4.13.13.27.27.4.4Z"/>
  <path class="cls-8" d="M363.96,197.13c-.13-.13-.27-.27-.4-.4.13.13.27.27.4.4Z"/>
  <path class="cls-8" d="M365.17,197.53c-.13-.13-.27-.27-.4-.4.13.13.27.27.4.4Z"/>
  <path class="cls-8" d="M365.97,197.94c-.13-.13-.27-.27-.4-.4.13.13.27.27.4.4Z"/>
  <path class="cls-8" d="M366.78,198.34c-.13-.13-.27-.27-.4-.4.13.13.27.27.4.4Z"/>
  <path class="cls-8" d="M367.98,198.74c-.13-.13-.27-.27-.4-.4.13.13.27.27.4.4Z"/>
  <path class="cls-8" d="M368.79,199.14c-.13-.13-.27-.27-.4-.4.13.13.27.27.4.4Z"/>
  <path class="cls-8" d="M369.6,199.55c-.13-.13-.27-.27-.4-.4.13.13.27.27.4.4Z"/>
  <path class="cls-8" d="M370.8,199.95c-.13-.13-.27-.27-.4-.4.13.13.27.27.4.4Z"/>
  <path class="cls-8" d="M371.61,200.35c-.13-.13-.27-.27-.4-.4.13.13.27.27.4.4Z"/>
  <path class="cls-8" d="M372.41,200.75c-.13-.13-.27-.27-.4-.4.13.13.27.27.4.4Z"/>
  <path class="cls-8" d="M373.62,201.16c-.13-.13-.27-.27-.4-.4.13.13.27.27.4.4Z"/>
  <path class="cls-8" d="M374.43,201.56c-.13-.13-.27-.27-.4-.4.13.13.27.27.4.4Z"/>
  <path class="cls-8" d="M375.23,201.96c-.13-.13-.27-.27-.4-.4.13.13.27.27.4.4Z"/>
  <path class="cls-8" d="M376.44,202.36c-.13-.13-.27-.27-.4-.4.13.13.27.27.4.4Z"/>
  <path class="cls-8" d="M377.25,202.77c-.13-.13-.27-.27-.4-.4.13.13.27.27.4.4Z"/>
  <path class="cls-8" d="M378.05,203.17c-.13-.13-.27-.27-.4-.4.13.13.27.27.4.4Z"/>
  <path class="cls-8" d="M379.26,203.57c-.13-.13-.27-.27-.4-.4.13.13.27.27.4.4Z"/>
  <path class="cls-8" d="M380.06,203.98c-.13-.13-.27-.27-.4-.4.13.13.27.27.4.4Z"/>
  <path class="cls-8" d="M380.87,204.38c-.13-.13-.27-.27-.4-.4.13.13.27.27.4.4Z"/>
  <path class="cls-8" d="M382.08,204.78c-.13-.13-.27-.27-.4-.4.13.13.27.27.4.4Z"/>
  <path class="cls-8" d="M382.88,205.18c-.13-.13-.27-.27-.4-.4.13.13.27.27.4.4Z"/>
  <path class="cls-8" d="M383.69,205.59c-.13-.13-.27-.27-.4-.4.13.13.27.27.4.4Z"/>
  <path class="cls-8" d="M384.9,205.99c-.13-.13-.27-.27-.4-.4.13.13.27.27.4.4Z"/>
  <path class="cls-8" d="M385.7,206.39c-.13-.13-.27-.27-.4-.4.13.13.27.27.4.4Z"/>
  <path class="cls-8" d="M386.51,206.79c-.13-.13-.27-.27-.4-.4.13.13.27.27.4.4Z"/>
  <path class="cls-8" d="M387.72,207.2c-.13-.13-.27-.27-.4-.4.13.13.27.27.4.4Z"/>
  <path class="cls-8" d="M388.52,207.6c-.13-.13-.27-.27-.4-.4.13.13.27.27.4.4Z"/>
  <path class="cls-8" d="M389.33,208c-.13-.13-.27-.27-.4-.4.13.13.27.27.4.4Z"/>
  <path class="cls-8" d="M390.53,208.4c-.13-.13-.27-.27-.4-.4.13.13.27.27.4.4Z"/>
  <path class="cls-8" d="M391.34,208.81c-.13-.13-.27-.27-.4-.4.13.13.27.27.4.4Z"/>
  <path class="cls-8" d="M392.14,209.21c-.13-.13-.27-.27-.4-.4.13.13.27.27.4.4Z"/>
  <path class="cls-8" d="M393.35,209.61c-.13-.13-.27-.27-.4-.4.13.13.27.27.4.4Z"/>
  <path class="cls-8" d="M394.16,210.01c-.13-.13-.27-.27-.4-.4.13.13.27.27.4.4Z"/>
  <path class="cls-8" d="M394.96,210.42c-.13-.13-.27-.27-.4-.4.13.13.27.27.4.4Z"/>
  <path class="cls-8" d="M396.17,210.82c-.13-.13-.27-.27-.4-.4.13.13.27.27.4.4Z"/>
  <path class="cls-8" d="M396.98,211.22c-.13-.13-.27-.27-.4-.4.13.13.27.27.4.4Z"/>
  <path class="cls-8" d="M397.78,211.63c-.13-.13-.27-.27-.4-.4.13.13.27.27.4.4Z"/>
  <path class="cls-8" d="M398.99,212.03c-.13-.13-.27-.27-.4-.4.13.13.27.27.4.4Z"/>
  <path class="cls-8" d="M399.8,212.43c-.13-.13-.27-.27-.4-.4.13.13.27.27.4.4Z"/>
  <path class="cls-8" d="M400.6,212.83c-.13-.13-.27-.27-.4-.4.13.13.27.27.4.4Z"/>
  <path class="cls-8" d="M401.81,213.24c-.13-.13-.27-.27-.4-.4.13.13.27.27.4.4Z"/>
  <path class="cls-8" d="M402.61,213.64c-.13-.13-.27-.27-.4-.4.13.13.27.27.4.4Z"/>
  <path class="cls-8" d="M403.42,214.04c-.13-.13-.27-.27-.4-.4.13.13.27.27.4.4Z"/>
  <path class="cls-8" d="M404.63,214.44c-.13-.13-.27-.27-.4-.4.13.13.27.27.4.4Z"/>
  <path class="cls-8" d="M405.43,214.85c-.13-.13-.27-.27-.4-.4.13.13.27.27.4.4Z"/>
  <path class="cls-8" d="M406.24,215.25c-.13-.13-.27-.27-.4-.4.13.13.27.27.4.4Z"/>
  <path class="cls-8" d="M407.45,215.65c-.13-.13-.27-.27-.4-.4.13.13.27.27.4.4Z"/>
  <path class="cls-8" d="M408.25,216.05c-.13-.13-.27-.27-.4-.4.13.13.27.27.4.4Z"/>
  <path class="cls-8" d="M409.06,216.46c-.13-.13-.27-.27-.4-.4.13.13.27.27.4.4Z"/>
  <path class="cls-8" d="M410.26,216.86c-.13-.13-.27-.27-.4-.4.13.13.27.27.4.4Z"/>
  <path class="cls-8" d="M411.07,217.26c-.13-.13-.27-.27-.4-.4.13.13.27.27.4.4Z"/>
  <path class="cls-8" d="M411.87,217.67c-.13-.13-.27-.27-.4-.4.13.13.27.27.4.4Z"/>
  <path class="cls-8" d="M413.08,218.07c-.13-.13-.27-.27-.4-.4.13.13.27.27.4.4Z"/>
  <path class="cls-8" d="M413.89,218.47c-.13-.13-.27-.27-.4-.4.13.13.27.27.4.4Z"/>
  <path class="cls-8" d="M414.69,218.87c-.13-.13-.27-.27-.4-.4.13.13.27.27.4.4Z"/>
  <path class="cls-8" d="M415.9,219.28c-.13-.13-.27-.27-.4-.4.13.13.27.27.4.4Z"/>
  <path class="cls-8" d="M416.71,219.68c-.13-.13-.27-.27-.4-.4.13.13.27.27.4.4Z"/>
  <path class="cls-8" d="M417.51,220.08c-.13-.13-.27-.27-.4-.4.13.13.27.27.4.4Z"/>
  <path class="cls-8" d="M418.72,220.48c-.13-.13-.27-.27-.4-.4.13.13.27.27.4.4Z"/>
  <path class="cls-8" d="M419.53,220.89c-.13-.13-.27-.27-.4-.4.13.13.27.27.4.4Z"/>
  <path class="cls-8" d="M420.33,221.29c-.13-.13-.27-.27-.4-.4.13.13.27.27.4.4Z"/>
  <path class="cls-25" d="M352.24,204.26c-.04-.1-.03-.2.03-.29,2.34.97,4.7,1.92,7.03,2.91,5.35,2.27,10.7,4.55,16.05,6.84,4.18,1.79,8.34,3.63,12.52,5.42,5.16,2.21,10.33,4.4,15.49,6.61,4.18,1.79,8.35,3.6,12.53,5.39,4.3,1.84,8.61,3.66,12.91,5.5,4.12,1.76,8.23,3.55,12.34,5.31,4.36,1.87,8.73,3.74,13.1,5.57,1.81.76,1.94.84,1.91,2.77-.02,1.25.17,2.52-.16,3.87-2.03-.33-3.7-1.36-5.46-2.09-5.24-2.19-10.46-4.44-15.68-6.67-4.17-1.79-8.33-3.6-12.51-5.39-4.3-1.84-8.61-3.66-12.91-5.5-4.12-1.76-8.22-3.55-12.34-5.32-5.28-2.26-10.58-4.5-15.86-6.77-4.18-1.79-8.34-3.62-12.52-5.41-4.24-1.82-8.48-3.62-12.73-5.43-1.11-.47-2.2-.98-3.33-1.39-1.13-.41-1.24-1.29-1.2-2.27-.03-.12-.01-.23.04-.34.42-.48-.02-1.16.37-1.65-.03-.13-.02-.25.05-.37.32-.38.07-.91.33-1.31Z"/>
  <path class="cls-8" d="M117.49,91.6c1.94.11,3.55,1.18,5.26,1.89,6.11,2.55,12.16,5.25,18.24,7.85,6.08,2.61,12.19,5.16,18.28,7.76,5.16,2.21,10.3,4.49,15.47,6.7,6.08,2.61,12.19,5.16,18.28,7.76,5.16,2.21,10.3,4.48,15.47,6.7,5.16,2.21,10.35,4.37,15.51,6.58,5.16,2.21,10.3,4.48,15.47,6.7,5.16,2.21,10.35,4.37,15.51,6.58,5.16,2.21,10.3,4.48,15.47,6.7,5.16,2.21,10.35,4.37,15.51,6.58,4.18,1.79,8.34,3.62,12.52,5.42,2.33,1.01,4.67,2.01,7.02,2.95.68.27.78.63.5,1.22,0,0,0,0,0,0-.33.34-.92-.01-1.21.44l.02-.02c-.25.18-.62.12-.84.38h0c-.32.35-.9,0-1.2.43h.02c-.24.18-.6.11-.83.35l-.13.07h-.15c-.3.14-.68.08-.92.37h.01c-.23.2-.59.13-.82.34-.1.07-.2.09-.32.07-.28.17-.66.11-.9.37-2.35,1.11-4.76,2.06-7.25,2.8-4.36-2.54-9.13-4.2-13.74-6.19-23.22-10-46.47-19.95-69.71-29.91-23.8-10.2-47.59-20.39-71.39-30.58-8.69-3.72-17.37-7.47-26.08-11.17-.72-.31-1.54-.55-1.83-1.44,0-.12.01-.23.03-.35.13-.13.27-.25.4-.38.65-.27,1.12-.75,1.51-1.32.13-.13.27-.27.4-.4.21-.05.35-.18.41-.39.22-.04.36-.17.42-.38.14-.13.28-.25.42-.38.14-.13.28-.25.42-.38.13-.02.26-.04.4-.05.31-.38.85-.47,1.13-.89l-.04.03c.19-.1.33-.25.45-.42l-.03.03c.17-.11.31-.26.44-.42l-.02.02c.15-.12.29-.27.43-.4h0c.12-.14.26-.26.42-.37l.02-.02c.33-.36.86-.46,1.15-.88l-.04.03c.19-.1.34-.24.45-.42h-.03Z"/>
  <path class="cls-25" d="M107.06,100.9c.14-.13.28-.26.42-.38.13-.13.26-.26.39-.39,0,0,.02-.02.02-.02.1-.15.23-.27.39-.37l.04-.03c.08-.16.21-.27.37-.35,0,0,.05-.04.05-.04,3.61,1.59,7.21,3.2,10.83,4.76,4.23,1.83,8.49,3.61,12.73,5.42,5.29,2.25,10.57,4.51,15.86,6.77,4.12,1.76,8.22,3.55,12.34,5.31,5.28,2.26,10.57,4.51,15.86,6.77,4.12,1.76,8.22,3.55,12.34,5.32,5.28,2.26,10.58,4.5,15.86,6.77,4.18,1.79,8.34,3.62,12.52,5.41,4.24,1.82,8.49,3.61,12.73,5.43,4.18,1.79,8.35,3.6,12.53,5.39,4.3,1.84,8.61,3.66,12.91,5.5,4.12,1.76,8.23,3.55,12.34,5.31,4.36,1.87,8.73,3.72,13.09,5.58,3.07,1.31,6.15,2.63,9.21,3.98.71.31,1.58.54,1.6,1.58-2.75,1.24-5.54,2.39-8.43,3.24-3.25-1.19-6.38-2.68-9.56-4.04-23.11-9.89-46.22-19.78-69.32-29.7-21.19-9.09-42.39-18.17-63.58-27.26-11.58-4.97-23.18-9.9-34.75-14.91-.85-.37-2.07-.44-2.02-1.85h0c.15-.12.28-.27.42-.42,0-.12.01-.24.02-.35.21-.05.35-.19.4-.4.21-.05.35-.19.4-.4.22-.05.35-.19.41-.4.21-.05.35-.18.41-.4.21-.05.35-.19.41-.4.21-.05.35-.18.41-.39.12-.01.25-.03.38-.04Z"/>
  <path class="cls-8" d="M103.82,104.09c1.06,1.49,2.88,1.63,4.35,2.31,4.37,2.02,8.83,3.83,13.26,5.71,5.17,2.2,10.34,4.37,15.51,6.58,4.18,1.79,8.34,3.63,12.52,5.42,5.22,2.24,10.46,4.43,15.69,6.67,4.18,1.79,8.34,3.63,12.52,5.42,4.24,1.82,8.49,3.61,12.73,5.42,4.12,1.76,8.23,3.54,12.35,5.3,4.36,1.87,8.73,3.71,13.09,5.59,4.18,1.79,8.34,3.62,12.52,5.41,4.24,1.82,8.49,3.61,12.73,5.43,4.18,1.79,8.35,3.6,12.53,5.39,4.3,1.84,8.61,3.66,12.91,5.5,4.18,1.79,8.35,3.61,12.52,5.4,1.41.61,2.89,1.08,4,2.21-1.92,1.03-3.99,1.68-6.05,2.36.23-.43.16-.71-.34-.93-1.47-.64-2.91-1.35-4.39-1.98-8.91-3.8-17.84-7.57-26.75-11.39-7.99-3.42-15.95-6.91-23.94-10.33-7.93-3.4-15.88-6.73-23.8-10.12-6.09-2.6-12.14-5.27-18.23-7.88-6.08-2.61-12.19-5.16-18.27-7.76-5.16-2.21-10.3-4.48-15.46-6.69-5.16-2.21-10.34-4.37-15.51-6.58-4.18-1.79-8.32-3.67-12.52-5.41-5.86-2.44-11.59-5.17-17.55-7.38,0-.12.02-.25.03-.37.13-.14.26-.27.39-.41.13-.14.26-.27.4-.41.21-.06.34-.2.4-.41.21-.06.34-.2.4-.41.21-.06.35-.19.4-.41.13-.14.27-.27.4-.41.21-.05.35-.19.4-.4.21-.05.35-.19.4-.4.12-.01.25-.02.37-.03Z"/>
  <path class="cls-4" d="M233.89,271.61c-.04,1.05-.73,1.25-1.6,1.22.35-.65.79-1.17,1.6-1.22Z"/>
  <path class="cls-4" d="M237.92,267.99c-.21.55-.62.81-1.2.82.22-.53.62-.8,1.2-.82Z"/>
  <path class="cls-4" d="M239.54,266.38c-.14.13-.27.27-.41.4.14-.13.27-.27.41-.4Z"/>
  <path class="cls-4" d="M239.13,266.78c-.14.13-.27.27-.41.4.14-.13.27-.27.41-.4Z"/>
  <path class="cls-4" d="M238.73,267.18c-.14.13-.27.27-.41.4.14-.13.27-.27.41-.4Z"/>
  <path class="cls-4" d="M238.32,267.59c-.14.13-.27.27-.41.4.14-.13.27-.27.41-.4Z"/>
  <path class="cls-4" d="M236.72,268.81c-.13.13-.27.26-.4.4.13-.13.27-.26.4-.4Z"/>
  <path class="cls-4" d="M236.32,269.21c-.13.13-.27.27-.4.4.13-.13.27-.27.4-.4Z"/>
  <path class="cls-4" d="M235.91,269.61c-.13.13-.27.27-.4.4.13-.13.27-.27.4-.4Z"/>
  <path class="cls-4" d="M235.51,270.01c-.14.13-.27.27-.41.4.14-.13.27-.27.41-.4Z"/>
  <path class="cls-4" d="M235.11,270.41c-.14.13-.27.27-.41.4.14-.13.27-.27.41-.4Z"/>
  <path class="cls-4" d="M234.7,270.81c-.14.13-.27.27-.41.4.14-.13.27-.27.41-.4Z"/>
  <path class="cls-4" d="M234.3,271.21c-.14.13-.27.27-.41.4.14-.13.27-.27.41-.4Z"/>
  <path class="cls-19" d="M264.93,313.08c-1.8-.06-3.31-1.01-4.91-1.65-1.8-.71-3.54-1.59-5.29-2.42-1.24-.58-2.52-.87-3.89-.74.89-1.26,2.04-2.26,3.2-3.25.14-.13.27-.13.39.02h0c.2.25.62.15.77.48l-.03-.04c.2.08.34.23.45.4l-.02-.02c.17.1.29.25.44.37h.01c.18.28.6.18.76.49l-.03-.04c.19.08.33.23.45.4l-.02-.02c.16.1.28.26.44.36h.02c.18.29.62.2.74.55,1.73,1.64,3.79,2.83,5.63,4.31.3.24.57.53.86.79Z"/>
  <path class="cls-3" d="M250.02,301.81c.33.02.63.09.78.43-.33-.02-.62-.11-.78-.43Z"/>
  <path class="cls-3" d="M251.63,303.02c.33.02.63.09.78.43-.33-.02-.62-.11-.78-.43Z"/>
  <path class="cls-3" d="M253.25,304.22c.33.02.62.1.78.43-.33-.01-.62-.1-.78-.43Z"/>
  <path class="cls-3" d="M249.18,301.02c.14.13.28.27.42.4-.14-.13-.28-.27-.42-.4Z"/>
  <path class="cls-3" d="M249.59,301.42c.14.13.28.26.42.39-.14-.13-.28-.26-.42-.39Z"/>
  <path class="cls-3" d="M250.79,302.23c.14.13.28.27.42.4-.14-.13-.28-.27-.42-.4Z"/>
  <path class="cls-3" d="M251.21,302.63c.14.13.28.25.41.38-.14-.13-.28-.25-.41-.38Z"/>
  <path class="cls-3" d="M252.4,303.44c.14.13.28.26.42.4-.14-.13-.28-.26-.42-.4Z"/>
  <path class="cls-3" d="M252.82,303.83c.14.13.27.25.41.38-.14-.13-.27-.25-.41-.38Z"/>
  <path class="cls-3" d="M254.43,305.04c-.13,0-.26,0-.39-.02,0-.13-.01-.26-.02-.38.14.13.28.27.41.4Z"/>
  <path class="cls-19" d="M250.82,308.29c-.13.13-.26.25-.39.38.13-.13.26-.25.39-.38Z"/>
  <path class="cls-19" d="M250.41,308.69c-.13.13-.26.26-.39.38.13-.13.26-.26.39-.38Z"/>
  <path class="cls-8" d="M354.27,194.65c-.03.58.22,1.22-.38,1.68,0-.59-.07-1.19.38-1.68Z"/>
  <path class="cls-8" d="M351.86,205.95c-.04.57.21,1.2-.37,1.65-.01-.58-.07-1.17.37-1.65Z"/>
  <path class="cls-8" d="M353.86,196.63c.02.46.13.95-.33,1.29-.05-.47-.04-.92.33-1.29Z"/>
  <path class="cls-23" d="M302.76,174.21c.27-.52.75-.42,1.2-.43-.31.39-.75.43-1.2.43Z"/>
  <path class="cls-8" d="M352.24,204.26c.02.47.14.97-.33,1.31-.04-.48-.03-.94.33-1.31Z"/>
  <path class="cls-23" d="M304.78,173.42c.26-.53.76-.43,1.21-.44-.31.4-.76.43-1.21.44Z"/>
  <path class="cls-23" d="M303.96,173.78c.18-.34.49-.4.84-.38-.19.32-.5.38-.84.38Z"/>
  <path class="cls-23" d="M301.95,174.57c.19-.32.49-.38.83-.36-.2.31-.5.37-.83.36Z"/>
  <path class="cls-23" d="M300.75,175.01c.2-.39.55-.42.92-.38-.24.3-.56.38-.92.38Z"/>
  <path class="cls-23" d="M299.95,175.35c.19-.31.49-.36.82-.35-.2.29-.48.37-.82.35Z"/>
  <path class="cls-23" d="M298.73,175.8c.2-.37.53-.41.9-.37-.23.3-.54.38-.9.37Z"/>
  <path class="cls-19" d="M272.57,318.72c-.6,0-1.02-.26-1.2-.85.53.1.93.39,1.2.85Z"/>
  <path class="cls-3" d="M255.21,305.52c-.34-.03-.61-.17-.77-.48.35,0,.66.09.77.48Z"/>
  <path class="cls-3" d="M256.82,306.72c-.34-.03-.6-.17-.76-.48.34.02.64.11.76.48Z"/>
  <path class="cls-3" d="M258.43,307.97c-.31-.09-.6-.22-.74-.53.35.03.65.14.74.53Z"/>
  <path class="cls-19" d="M266.08,313.91c-.34-.03-.63-.11-.75-.48.33.03.6.17.75.48Z"/>
  <path class="cls-19" d="M267.7,315.11c-.34-.02-.64-.11-.76-.48.34.03.6.17.76.48Z"/>
  <path class="cls-19" d="M269.33,316.32c-.35-.02-.65-.1-.77-.48.34.03.61.17.77.48Z"/>
  <path class="cls-19" d="M270.95,317.52c-.35,0-.66-.09-.78-.48.34.02.61.17.78.48Z"/>
  <path class="cls-19" d="M273.72,319.55c-.33-.03-.62-.12-.74-.48.33.03.59.17.74.48Z"/>
  <path class="cls-19" d="M275.34,320.76c-.34-.03-.63-.11-.75-.48.33.03.6.17.75.48Z"/>
  <path class="cls-19" d="M276.97,321.96c-.34-.02-.64-.1-.76-.48.24.06.49.11.73.17,0,.1.02.21.03.31Z"/>
  <path class="cls-3" d="M255.63,305.88c-.23-.04-.4-.16-.45-.4.23.04.38.18.45.4Z"/>
  <path class="cls-3" d="M256.05,306.23c-.22-.03-.37-.15-.44-.37.15.12.3.24.44.37Z"/>
  <path class="cls-3" d="M257.24,307.08c-.23-.04-.39-.16-.45-.4.23.05.38.18.45.4Z"/>
  <path class="cls-3" d="M257.66,307.43c-.22-.03-.37-.15-.44-.36.15.12.29.24.44.36Z"/>
  <path class="cls-19" d="M265.36,313.47c-.22-.05-.37-.18-.45-.4.23.04.39.16.45.4Z"/>
  <path class="cls-19" d="M266.55,314.29c-.15-.12-.29-.24-.44-.36.22.03.37.15.44.36Z"/>
  <path class="cls-19" d="M266.98,314.67c-.23-.05-.38-.18-.45-.4.23.05.39.16.45.4Z"/>
  <path class="cls-19" d="M268.16,315.49c-.15-.12-.3-.25-.44-.37.22.03.37.15.44.37Z"/>
  <path class="cls-19" d="M268.59,315.87c-.23-.05-.38-.18-.45-.4.23.04.4.16.45.4Z"/>
  <path class="cls-19" d="M269.78,316.7c-.15-.13-.3-.25-.45-.38.22.04.38.16.45.38Z"/>
  <path class="cls-19" d="M270.21,317.08c-.23-.04-.38-.18-.46-.4.23.04.4.16.46.4Z"/>
  <path class="cls-19" d="M271.39,317.9c-.15-.13-.3-.26-.45-.39.23.04.38.16.45.39Z"/>
  <path class="cls-19" d="M273.01,319.1c-.15-.13-.3-.26-.45-.39.23.04.39.16.45.39Z"/>
  <path class="cls-19" d="M274.19,319.93c-.15-.12-.29-.24-.44-.35.22.02.37.14.44.35Z"/>
  <path class="cls-19" d="M274.63,320.31c-.22-.05-.37-.18-.45-.4.23.04.39.16.45.4Z"/>
  <path class="cls-19" d="M275.81,321.13c-.15-.12-.29-.24-.44-.36.22.03.37.15.44.36Z"/>
  <path class="cls-19" d="M276.24,321.51c-.23-.05-.38-.18-.45-.4.23.05.39.16.45.4Z"/>
  <path class="cls-19" d="M281.83,325.56c-.61,0-1.02-.25-1.2-.85.53.1.93.39,1.2.85Z"/>
  <path class="cls-19" d="M298.74,338.05c-.6,0-1.02-.26-1.2-.85.52.11.92.39,1.2.85Z"/>
  <path class="cls-19" d="M278.59,323.16c-.35-.01-.66-.09-.77-.48.34.02.61.17.77.48Z"/>
  <path class="cls-19" d="M280.21,324.36c-.35,0-.66-.09-.78-.48.34.02.61.17.78.48Z"/>
  <path class="cls-19" d="M282.99,326.4c-.33-.03-.63-.12-.75-.48.33.03.59.17.75.48Z"/>
  <path class="cls-19" d="M284.61,327.6c-.34-.03-.64-.11-.75-.48.33.03.6.17.75.48Z"/>
  <path class="cls-19" d="M286.23,328.8c-.34-.02-.65-.1-.76-.48.34.03.6.17.76.48Z"/>
  <path class="cls-19" d="M287.86,330c-.35-.01-.66-.09-.77-.48.34.02.61.17.77.48Z"/>
  <path class="cls-19" d="M289.47,331.2c-.35,0-.66-.08-.78-.48.34.02.62.16.78.48Z"/>
  <path class="cls-19" d="M290.63,332.04c-.33-.03-.62-.12-.74-.48.33.03.59.17.74.48Z"/>
  <path class="cls-19" d="M292.25,333.24c-.33-.03-.63-.12-.75-.48.33.03.59.17.75.48Z"/>
  <path class="cls-19" d="M293.87,334.44c-.34-.03-.64-.11-.75-.48.33.03.6.17.75.48Z"/>
  <path class="cls-19" d="M295.5,335.64c-.34-.02-.65-.1-.76-.48.34.03.61.17.76.48Z"/>
  <path class="cls-19" d="M297.12,336.85c-.35-.01-.66-.09-.77-.48.34.02.61.17.77.48Z"/>
  <path class="cls-19" d="M299.89,338.88c-.33-.03-.62-.12-.74-.48.33.03.59.17.74.48Z"/>
  <path class="cls-19" d="M301.51,340.08c-.33-.03-.63-.12-.75-.48.33.03.59.17.75.48Z"/>
  <path class="cls-19" d="M277.43,322.33c-.15-.12-.3-.25-.45-.37.22.03.38.15.45.37Z"/>
  <path class="cls-19" d="M277.86,322.71c-.23-.04-.38-.18-.46-.4.23.04.4.16.46.4Z"/>
  <path class="cls-19" d="M279.04,323.54c-.15-.13-.3-.25-.45-.38.22.04.38.16.45.38Z"/>
  <path class="cls-19" d="M279.47,323.92c-.24-.04-.39-.18-.46-.4.23.04.4.16.46.4Z"/>
  <path class="cls-19" d="M280.66,324.74c-.15-.13-.3-.26-.45-.39.23.04.38.16.45.39Z"/>
  <path class="cls-19" d="M282.27,325.95c-.15-.13-.3-.26-.45-.39.23.04.39.16.45.39Z"/>
  <path class="cls-19" d="M283.45,326.77c-.15-.12-.29-.24-.44-.36.22.03.36.15.44.36Z"/>
  <path class="cls-19" d="M283.89,327.15c-.22-.05-.37-.18-.45-.4.23.04.39.16.45.4Z"/>
  <path class="cls-19" d="M285.07,327.97c-.15-.12-.3-.24-.44-.36.22.03.37.15.44.36Z"/>
  <path class="cls-19" d="M285.5,328.36c-.23-.05-.38-.18-.45-.4.23.04.4.16.45.4Z"/>
  <path class="cls-19" d="M286.69,329.18c-.15-.12-.3-.25-.45-.37.22.03.37.15.45.37Z"/>
  <path class="cls-19" d="M287.12,329.56c-.23-.04-.38-.18-.46-.4.23.04.4.16.46.4Z"/>
  <path class="cls-19" d="M288.3,330.38c-.15-.13-.3-.25-.45-.38.23.04.38.16.45.38Z"/>
  <path class="cls-19" d="M288.73,330.76c-.24-.04-.39-.18-.46-.41.23.04.4.16.46.41Z"/>
  <path class="cls-19" d="M289.92,331.59l-.45-.39c.23.04.38.16.45.39Z"/>
  <path class="cls-19" d="M291.1,332.41c-.14-.12-.29-.23-.43-.35.22.02.36.14.43.35Z"/>
  <path class="cls-19" d="M291.53,332.79c-.15-.13-.3-.26-.45-.39.23.04.39.16.45.39Z"/>
  <path class="cls-19" d="M292.72,333.61c-.15-.12-.29-.24-.44-.36.22.03.37.15.44.36Z"/>
  <path class="cls-19" d="M293.15,334c-.23-.05-.38-.18-.45-.4.23.04.39.16.45.4Z"/>
  <path class="cls-19" d="M294.33,334.82c-.15-.12-.3-.24-.44-.36.22.03.37.15.44.36Z"/>
  <path class="cls-19" d="M294.77,335.2c-.23-.05-.38-.18-.45-.4.23.04.4.16.45.4Z"/>
  <path class="cls-19" d="M295.95,336.02c-.15-.12-.3-.25-.44-.37.22.04.38.16.44.37Z"/>
  <path class="cls-19" d="M296.38,336.4c-.23-.04-.38-.18-.46-.4.23.04.4.16.46.4Z"/>
  <path class="cls-19" d="M297.57,337.23c-.15-.13-.3-.25-.45-.38.23.04.38.16.45.38Z"/>
  <path class="cls-19" d="M299.18,338.43c-.15-.13-.3-.26-.45-.39.23.04.39.16.45.39Z"/>
  <path class="cls-19" d="M300.36,339.25c-.14-.12-.29-.23-.43-.35.22.02.36.14.43.35Z"/>
  <path class="cls-19" d="M300.8,339.64c-.22-.05-.37-.18-.45-.39.23.04.39.16.45.39Z"/>
  <path class="cls-19" d="M301.98,340.46c-.15-.12-.29-.24-.44-.36.22.03.37.15.44.36Z"/>
  <path class="cls-19" d="M302.49,340.83c-.25-.03-.43-.16-.53-.39.18.13.35.26.53.39Z"/>
</svg>