<?xml version="1.0" encoding="UTF-8"?>
<svg id="Color" xmlns="http://www.w3.org/2000/svg" version="1.1" viewBox="0 0 500 500">
  <defs>
    <style>
      .cls-1 {
        fill: #4cb64a;
      }

      .cls-1, .cls-2 {
        stroke-width: 0px;
      }

      .cls-2 {
        fill: #fff;
      }
    </style>
  </defs>
  <rect class="cls-2" x="98.6" y="80.9" width="285.29" height="336.23"/>
  <path class="cls-1" d="M461.6,244.4c0,36.26-.06,64.43.02,92.59.06,21.55-1.17,42.84-6.7,63.89-5.56,21.16-36.1,48.74-57.99,54.4-22.86,5.91-45.79,5.66-68.86,5.72-58.22.15-116.45.16-174.67,0-25.55-.07-50.93-1.62-73.08-16.65-21.87-14.83-35.34-35.28-38.32-61.65-5.21-46.24-3.19-92.71-3.49-139.1-.16-23.56-.82-47.15.22-70.66.86-19.58-.99-39.46,3.34-58.72,8.22-36.53,29.78-60.82,66.82-70.58,16.64-4.38,33.56-4.32,50.4-4.44,59.93-.42,119.86-.46,179.79-.02,25.19.18,50.68-.12,73.87,12.67,26.61,14.68,41.95,37.1,45.85,67.05,5.77,44.4,1.29,89.06,2.81,125.49ZM282.76,110.9c-3.76,0-7.53.22-11.26-.04-8.59-.61-13.14,3.07-13.75,11.81-.24,3.36-1.55,6.64-1.94,10-.54,4.69-2.1,6.93-7.6,7.16-9.15.39-18.21,2.35-26.89,5.56-26.12,9.68-42.66,27.17-44.14,55.99-1.29,25.07,11.39,42.01,32.67,53.88,17.98,10.02,37.96,14.97,56.51,23.44,7.89,3.6,15.27,8.07,15.51,18.35.29,12.6-10.67,22.78-25.58,24.87-27.37,3.83-51.26-3.29-71.84-21.59-4.38-3.9-8.45-3.98-12.59.03-5.4,5.22-10.75,10.48-16.04,15.81-4.83,4.87-4.48,9.9.61,14.11,12.4,10.26,25.65,19.23,41.41,23.54,5.7,1.56,7.94,3.1,6.22,10.23-5.71,23.69-4.91,24.43,12.5,25.09,1.33.05,2.67-.12,4-.12,30.48-.16,25.25,2.71,30.96-22.65.86-3.84,2.28-5.51,6.17-5.85,12.28-1.06,24.13-3.88,35.53-8.75,29.64-12.64,46.07-43.78,38.38-73.65-5.45-21.16-22.01-31.51-40.09-40.11-17.38-8.27-36.47-12.38-53.42-21.73-7.42-4.09-12.29-10.07-11.65-18.84.66-9.08,6.66-14.45,14.88-16.97,22.41-6.86,43.5-2.37,63.4,8.74,21.5,12.01,21.38,12.22,38.86-5.75.59-.61,1.23-1.19,1.76-1.86,3.51-4.49,3.5-8.79-1.1-12.46-10.43-8.33-21.36-16.08-34.1-20.28-7.29-2.41-9.01-5.39-7.28-13.06,5.59-24.82,5.22-24.9-20.12-24.9Z"/>
</svg>