<?xml version="1.0" encoding="UTF-8"?>
<svg id="Color" xmlns="http://www.w3.org/2000/svg" version="1.1" viewBox="0 0 500 500">
  <defs>
    <style>
      .cls-1 {
        fill: #21aee4;
      }

      .cls-1, .cls-2 {
        stroke-width: 0px;
      }

      .cls-2 {
        fill: #fff;
      }
    </style>
  </defs>
  <rect class="cls-2" x="116.92" y="125.29" width="266.81" height="245.31"/>
  <path class="cls-1" d="M456.8,250.03c.18,54.89-22.26,107.85-60.59,146.2-38.36,38.39-91.62,60.68-146.36,60.62-54.86-.07-107.96-22.35-146.4-60.98-38.08-38.28-60.32-91.19-60.25-146.15.07-54.53,21.87-107.35,60.74-146.14,38.3-38.22,90.74-60.57,146.23-60.43,35.02.09,67.95,8.37,98.66,25.13,33.56,18.31,60.13,44.03,79.51,76.97,19,32.29,28.4,67.29,28.45,104.78ZM331.75,143.92c-3.09.24-6.2.29-9.25.75-5.97.9-11.68,2.73-17.1,5.44-8.71,4.36-15.96,10.44-21.95,18.08-4.05,5.17-7.32,10.81-9.98,16.79-1.76,3.95-3.21,8.04-4.78,12.07-.19.48-.31.99-.36,1.5-.1.95.27,1.4,1.19,1.32.89-.08,1.78-.3,2.63-.57,3.77-1.23,7.67-1.85,11.6-2.05,2.11-.11,4.28.04,6.36.43,6.06,1.15,10.04,4.33,11.51,11.24.53,2.49.43,5.01.4,7.53-.03,2.73-.5,5.4-1.38,7.99-1.76,5.21-3.87,10.28-6.26,15.23-3.89,8.05-8.42,15.73-13.84,22.84-3.05,4-6.33,7.83-9.6,11.67-1.59,1.87-3.35,3.59-5.64,4.66-2.74,1.28-5.34.97-7.54-1.08-.98-.92-1.91-1.95-2.67-3.05-2.66-3.86-4.41-8.18-5.94-12.58-1.68-4.83-3.02-9.75-4.12-14.74-1.39-6.31-2.82-12.61-4.03-18.96-1.32-6.91-2.42-13.87-3.58-20.81-1.04-6.24-2.03-12.49-3.06-18.74-.83-5.03-1.64-10.07-3.04-14.99-1.59-5.57-3.82-10.84-7.16-15.61-1.6-2.3-3.43-4.4-5.62-6.12-6.11-4.8-13.14-6.08-20.68-5.08-4.36.58-8.32,2.36-12.07,4.57-6.59,3.88-12.65,8.51-18.54,13.36-2.94,2.42-5.82,4.92-8.69,7.43-3.07,2.67-6.11,5.38-9.13,8.1-2.21,1.99-4.35,4.05-6.54,6.06-1.71,1.57-3.43,3.14-5.17,4.68-2.71,2.4-5.46,4.74-8.15,7.16-2.55,2.29-2.53,2.56-.44,5.2,2.01,2.53,4,5.07,5.99,7.62.56.71,1.07,1.46,1.64,2.16,1.12,1.39,1.98,1.52,3.51.56.55-.34,1.07-.73,1.61-1.08,2.53-1.68,5.02-3.42,7.61-5.01,1.7-1.05,3.49-1.98,5.32-2.77,1.85-.8,3.79-1.24,5.85-.62,1.47.44,2.68,1.26,3.78,2.27,2.16,1.99,3.86,4.35,5.34,6.86,3.54,5.98,6.22,12.36,8.27,18.98,2.22,7.16,4.14,14.41,6.13,21.63,1.89,6.85,3.7,13.73,5.58,20.58,2.89,10.53,5.8,21.05,8.74,31.57,1.86,6.66,3.7,13.32,6.48,19.68,3.97,9.05,9.25,17.16,16.7,23.74,2.74,2.42,5.89,4.2,9.44,5.18,4.52,1.26,9.07,1.17,13.62.19,7.34-1.57,14.16-4.43,20.58-8.29,8.36-5.02,15.76-11.26,22.86-17.87,3.17-2.94,6.22-6.01,9.21-9.14,3.61-3.78,7.23-7.58,10.62-11.56,4.6-5.41,9.12-10.9,13.43-16.55,9.37-12.28,18.57-24.69,26.78-37.79,3.71-5.92,7.21-11.96,10.36-18.19,1.75-3.46,3.35-6.99,4.92-10.54,2.41-5.44,4.44-11.02,5.99-16.78,1.68-6.2,2.51-12.53,2.92-18.92.15-2.32.08-4.64-.28-6.96-.47-3.06-.75-6.15-1.27-9.2-.83-4.87-2.41-9.51-4.77-13.87-1.82-3.35-4.27-6.15-7.23-8.5-3.36-2.66-7.22-4.29-11.37-5.19-5.18-1.13-10.41-1.95-15.76-1.93Z"/>
</svg>