<?xml version="1.0" encoding="UTF-8"?>
<svg id="Color" xmlns="http://www.w3.org/2000/svg" version="1.1" viewBox="0 0 500 500">
  <defs>
    <style>
      .cls-1 {
        fill: #311646;
      }

      .cls-1, .cls-2 {
        stroke-width: 0px;
      }

      .cls-2 {
        fill: #e63248;
      }
    </style>
  </defs>
  <path class="cls-2" d="M412.7,183.9c-22.3.1-42.89-19.2-42.1-44.73.63-20.2,17.35-42.01,43.74-41.4,25.52.59,42.83,20.16,42.45,43.92-.4,24.71-20.68,43-44.09,42.21Z"/>
  <path class="cls-2" d="M129.23,359.79c.73,20.66-16.6,42.76-43.1,42.48-25.16-.26-43.01-19.31-42.93-43.45.08-24.7,20.28-42.95,43.62-42.78,23.22.17,43.52,19.79,42.41,43.75Z"/>
  <path class="cls-1" d="M326.78,217.03c.27-2.91.47-5.01.69-7.33,1.41-.14,2.55-.34,3.69-.35,5.3-.03,10.61-.02,15.78-.02,1.39,4.43,1.82,70.96.6,80.84-6.48,1.17-13.08.25-19.93.54-.32-2.67-.59-4.91-.91-7.6-1.89,1.42-3.42,2.61-4.99,3.74-8.66,6.32-18.1,8.12-28.49,5.12-18.88-5.46-31.93-21.72-32.11-41.3-.2-22.77,15.54-38.91,34.23-43.16,10.31-2.34,19.46.05,27.61,6.66,1.05.85,2.16,1.62,3.82,2.85ZM327.1,250.56c.19-12.64-9.5-22.62-21.87-23.24-11.08-.56-23.46,8.46-23.59,22.11-.12,12.95,9.63,23.09,22.45,23.21,12.53.12,22.83-9.76,23.01-22.08Z"/>
  <path class="cls-1" d="M195.85,97.37c23.31.67,43.41,18.62,42.99,44.23-.39,24.35-19.23,42.95-43.79,42.71-25.58-.25-43.46-20.49-43.01-44.08.48-24.92,20.06-42.46,43.8-42.86ZM172.89,140.76c-.03,12.5,9.99,22.73,22.32,22.81,12.65.08,22.93-10.23,22.89-22.95-.05-12.56-9.97-21.98-22.7-22.37-10.89-.34-22.95,9.49-22.51,22.51Z"/>
  <path class="cls-1" d="M383.84,371.57c7.35,5.67,14.72,9.26,23.05,10.64,5.31.88,10.6.94,15.8-.65,1.47-.45,3.01-1.05,4.21-1.99,3.23-2.52,2.98-6.43-.82-7.98-3.77-1.54-7.91-2.2-11.89-3.24-6.08-1.58-12.23-2.91-18.21-4.8-4.52-1.43-8.53-4-11.71-7.68-5.28-6.12-6.53-20.79.65-28.54,5.33-5.75,11.85-9.2,19.34-10.6,14-2.62,27.4-.2,40.18,5.94.31.15.49.59,1.12,1.4-1.68,5.62-3.46,11.59-5.24,17.56-4.35-1.63-8.33-3.31-12.43-4.61-6.48-2.06-13.19-2.35-19.89-1.49-5.13.66-7.98,2.68-7.59,5.13.61,3.85,4,4.57,7.02,5.29,4.2,1,8.56,1.4,12.73,2.5,5.3,1.39,10.74,2.68,15.67,4.97,15.66,7.27,18.91,25.59,7.21,38.39-6.09,6.66-13.95,9.44-22.54,10.4-15.5,1.73-29.6-2.15-42.88-11.42,2-6.19,3.97-12.27,6.22-19.23Z"/>
  <path class="cls-1" d="M231.3,216.73c-2.65,5.89-5.23,11.61-7.97,17.67-1.6-1.07-2.99-2.09-4.46-2.97-7.71-4.63-15.99-5.68-24.41-2.76-10.45,3.62-16.31,14.66-14.21,25.66,1.99,10.41,11.09,18.04,21.76,18.26,8.06.17,9.48-.26,21.38-6.58,2.61,5.68,5.21,11.34,7.74,16.85-7.61,11.09-37.21,16.57-55.77,1.1-19.58-16.33-20.74-44.53-5.6-62.4,17.55-20.7,49.24-17.8,61.54-4.84Z"/>
  <path class="cls-2" d="M304.4,110.51c16.79-.08,30.6,13.53,30.57,30.26-.03,17-13.11,30.6-30.27,30.58-19-.02-30.58-14.75-30.58-30.27,0-18.4,14.65-30.53,30.28-30.58Z"/>
  <path class="cls-2" d="M56.01,249.85c-.32-15.19,12.16-30.31,30.52-30.27,16.78.04,30.43,13.15,30.24,30.57-.2,19.17-15.34,30.4-30.56,30.28-18.11-.14-30.61-15.07-30.2-30.59Z"/>
  <path class="cls-2" d="M443.99,250.31c.24,15.18-12.27,30.26-30.64,30.14-16.84-.12-30.39-13.34-30.11-30.7.31-19.43,15.75-30.2,30.68-30.2,16.75,0,30.13,13.83,30.07,30.76Z"/>
  <path class="cls-2" d="M195.41,389.52c-16.76.02-30.48-13.66-30.38-30.44.1-16.27,12.38-30.43,30.45-30.38,18.64.05,30.49,14.51,30.39,30.44-.11,18.56-14.98,30.45-30.46,30.39Z"/>
  <path class="cls-1" d="M291.08,379.2h47.3v19.52c-4.37,1.16-57.3,1.58-67.23.56-1.18-4.1-1.46-73.09-.27-80.34h20.04c.31,6.65.11,13.28.15,19.91.03,6.51,0,13.03,0,19.54v20.81Z"/>
  <path class="cls-1" d="M52.94,100.73c1.44-.12,2.96-.33,4.49-.34,4.69-.05,9.39-.02,14.64-.02v60.74c16.37.26,32.22-.03,48.37.17v19.84H53.05c-1.17-4.67-1.28-74.61-.1-80.38Z"/>
</svg>