<?xml version="1.0" encoding="UTF-8"?>
<svg id="White" xmlns="http://www.w3.org/2000/svg" version="1.1" viewBox="0 0 500 500">
  <defs>
    <style>
      .cls-1 {
        fill: #fff;
        stroke-width: 0px;
      }
    </style>
  </defs>
  <path class="cls-1" d="M343.84,38.15h-187.69c-65.17,0-118,52.83-118,118v187.69c0,65.17,52.83,118,118,118h187.69c65.17,0,118-52.83,118-118v-187.69c0-65.17-52.83-118-118-118ZM370.58,254.04c-34.18,77.26-88.3,141.7-88.3,141.7h-115.95L121.35,120.16l100.4-9.85,24.21,195.7c39.34-65.33,48.78-105.74,50.56-132.45,1.78-26.7-8.54-50.56-8.54-50.56l91.15-19.23c18.51,25.99,25.64,72.99-8.55,150.25Z"/>
</svg>