<?xml version="1.0" encoding="UTF-8"?>
<svg id="White" xmlns="http://www.w3.org/2000/svg" version="1.1" viewBox="0 0 500 500">
  <defs>
    <style>
      .cls-1 {
        fill: #fff;
        stroke-width: 0px;
      }
    </style>
  </defs>
  <path class="cls-1" d="M38.16,462.44c2.61-9.65,4.98-18.55,7.42-27.43,7.13-25.99,14.27-51.98,21.44-77.97.67-2.44.54-4.52-.77-6.87-13.88-24.87-22.29-51.56-25.13-79.84-3.63-36.1,1.31-71.04,15.65-104.54,9.31-21.74,21.91-41.31,37.75-58.87,16.82-18.65,36.39-33.68,58.54-45.46,19.96-10.61,41.17-17.48,63.39-21.32,5.99-1.03,12.09-1.56,18.16-1.91,7.78-.45,15.59-.76,23.38-.66,13.92.19,27.65,2.14,41.2,5.32,33.94,7.96,64.1,23.35,90.29,46.35,36.59,32.13,59.57,72.14,68.83,119.94,1.81,9.32,2.65,18.78,3.21,28.29,1.26,21.45-1.05,42.49-6.28,63.25-5.59,22.22-14.8,42.88-27.31,62.07-6.92,10.61-14.75,20.46-23.41,29.73-20.88,22.35-45.53,39.21-73.71,50.9-15.35,6.37-31.31,10.68-47.79,13.2-14.66,2.24-29.37,3.04-44.12,2.2-12.01-.68-23.93-2.36-35.68-5.12-17.89-4.21-35.01-10.5-51.19-19.21-2.16-1.17-3.88-.43-5.65.02-13.03,3.32-26.03,6.81-39.04,10.23-21.91,5.75-43.82,11.5-65.73,17.23-.9.24-1.86.26-3.46.48ZM89.77,411.8c1.85-.43,3.2-.71,4.53-1.06,18.94-4.96,37.9-9.86,56.8-14.97,3.16-.85,5.62-.43,8.36,1.24,24.84,15.11,51.72,23.63,80.81,25.52,15.32,1,30.44-.02,45.36-3.13,36.86-7.68,68.46-25.17,93.7-53.16,37.89-41.99,52.45-91.38,43.69-147.15-5.8-36.92-22.73-68.61-49.37-94.83-28.72-28.27-63.21-44.85-103.38-49.41-16.22-1.84-32.39-1.42-48.45,1.28-18.06,3.04-35.21,8.88-51.45,17.4-24.09,12.64-44.23,29.87-60.28,51.81-18.09,24.72-28.97,52.29-32.6,82.74-2.55,21.43-1.01,42.55,4.25,63.44,4.73,18.78,12.52,36.23,23.11,52.42,1.68,2.57,2.16,4.84,1.28,7.93-4.94,17.35-9.62,34.77-14.38,52.17-.66,2.41-1.24,4.84-1.99,7.75Z"/>
  <path class="cls-1" d="M181.5,150.86c1.28,0,2.57.08,3.84-.01,6.26-.46,10.28,2.67,12.7,8.1,2.66,5.97,5.18,12,7.69,18.03,3.11,7.47,6.11,14.99,9.25,22.45,1.47,3.49,1.43,6.74-.21,10.24-3.02,6.44-7.93,11.39-12.42,16.7-.73.87-1.56,1.66-2.28,2.53-1.71,2.07-1.89,4.38-.91,6.81.32.79.75,1.53,1.19,2.26,15.6,26.07,36.56,46.25,64.57,58.68,2.6,1.15,5.17,2.36,7.8,3.43,4.44,1.8,6.72,1.38,9.82-2.31,5.22-6.19,10.38-12.45,15.33-18.86,4.42-5.73,6.7-6.72,13.42-3.9,6.41,2.69,12.66,5.78,18.93,8.79,7.55,3.63,15.02,7.43,22.59,11.02,3.64,1.73,5.26,4.28,5.18,8.39-.13,7.06-1.38,13.88-4,20.37-1.14,2.83-2.88,5.66-5.02,7.82-9.87,9.93-21.32,16.7-35.78,17.77-8.67.65-17-.49-25.25-2.72-16.76-4.53-33.15-10.11-48.44-18.45-21.26-11.59-38.9-27.55-54.57-45.82-10.57-12.33-20-25.51-28.39-39.39-5.69-9.42-9.92-19.51-11.79-30.43-3.81-22.33,2.62-41.27,19.23-56.68,3.43-3.18,7.62-4.9,12.41-4.84,1.71.02,3.41,0,5.12,0v.02Z"/>
</svg>