<?xml version="1.0" encoding="UTF-8"?>
<svg id="White" xmlns="http://www.w3.org/2000/svg" version="1.1" viewBox="0 0 500 500">
  <defs>
    <style>
      .cls-1 {
        fill: #fff;
        stroke-width: 0px;
      }
    </style>
  </defs>
  <path class="cls-1" d="M355.86,353.55c-7.08,6.15-13.68,11.92-20.33,17.64-10.18,8.74-20.54,17.29-30.56,26.21-5.25,4.67-11.14,7.85-17.86,9.41-3.34.77-5.7,2.31-7.65,5.15-8.88,12.86-18.02,25.53-26.85,38.43-2.84,4.15-5.98,6.22-11.3,6.2-51.32-.15-102.64-.03-153.97-.04-2.11,0-4.21-.6-6.32-.92.84-1.94,1.42-4.04,2.55-5.79,17.29-26.74,34.34-53.64,52.2-79.99,4.85-7.15,5.8-13.98,4.74-21.96-2.53-19.06-4.78-38.15-7.21-57.22-1.49-11.71-.8-22.98,3.69-34.21,3.09-7.72,4.28-16.2,6.41-24.31,1.12-4.26,1.93-8.69,3.75-12.64,4.07-8.83,4.86-18.05,4.81-27.56-.1-19.44.03-38.88.05-58.33.01-8.12,1.58-9.93,9.57-11.94,10.63-2.68,19.04.07,26.07,8.77,5.02,6.21,7.52,12.43,7.46,20.65-.38,58.32-.29,116.65-.33,174.98-.01,16.72,10.4,27.68,27.23,28.63,3.6.2,7.22.09,10.82.09,35.28,0,70.57.04,105.85-.06,5.34-.02,10.69-.72,17.16-1.18Z"/>
  <path class="cls-1" d="M367.66,196.96c0,42.48-.09,84.96.05,127.44.05,15.79-11.39,25.8-25.5,25.64-39.28-.47-78.57-.58-117.84,0-14.82.22-24.86-12.79-24.81-25.04.32-85.36.31-170.72-.15-256.07-.07-13.32,9.38-25.56,24.88-25.49,39.88.18,79.76-.08,119.64.09,14.36.06,23.59,9.97,23.61,24.81.07,42.88.03,85.76.03,128.64h.09ZM206.94,195.33h-.07c0,40.07,0,80.15,0,120.22,0,1.8-.38,3.76.21,5.36.49,1.35,1.95,2.78,3.31,3.27,1.6.58,3.56.21,5.36.21,44.09,0,88.18,0,132.27,0,2.61,0,5.21-.08,7.81.02,3.63.15,5.87-.96,5.28-5.13-.14-.98-.01-2-.01-3,0-80.15.02-160.29.02-240.44,0-1.4-.09-2.81-.01-4.21.16-2.83-1.21-4.02-3.94-3.97-1.6.03-3.21-.06-4.81-.06-46.09,0-92.19,0-138.28,0-7.11,0-7.14.03-7.14,7.5-.01,40.07,0,80.15,0,120.22ZM284.85,50.27s0,.02,0,.03c-4.78,0-9.6-.3-14.33.16-1.66.16-3.13,2.17-4.69,3.34,1.47,1.32,2.91,3.72,4.43,3.77,9.75.33,19.53.32,29.28-.03,1.49-.05,3.85-2.28,4.13-3.81.52-2.83-2.16-3.39-4.46-3.43-4.78-.08-9.57-.02-14.35-.02Z"/>
  <path class="cls-1" d="M372.18,148.24c0-8.2-.07-16.4.03-24.6.07-5.63,1.03-6.26,6.53-4.55,9.9,3.08,16.42,9.84,19.79,19.42,6.24,17.72,12.21,35.53,18.19,53.33,1.46,4.33.35,6.32-4.08,8.42-8.02,3.81-21,.92-27.07-6.03-.26-.3-.46-.67-.74-.94-10.14-9.71-15.04-21.24-12.75-35.47.5-3.12.07-6.39.07-9.59h.02Z"/>
  <path class="cls-1" d="M413.78,238.59c4.95,5.47,5.71,11.32,4.96,16.93-.98,7.28-3.12,14.42-4.97,21.57-3.96,15.32-8.02,30.6-12.08,45.89-2.07,7.79-6.84,10.4-14.09,6.81-8.54-4.23-14.68-11.31-15.17-20.96-.75-14.99-.19-30.06-.15-45.09,0-.72.33-1.44.45-1.96,4.51,3.25,8.68,6.58,13.16,9.41,4.85,3.07,10.14,1.9,15.08.16,1.54-.54,3.03-2.59,3.6-4.27,2.45-7.2,4.53-14.53,6.79-21.79.62-2.01,1.42-3.96,2.41-6.71Z"/>
  <path class="cls-1" d="M373.33,188.52c1.92,2.24,3.6,4.07,5.13,6.02,9.07,11.54,21.08,15.48,35.03,11.53,1.25-.35,2.64-.23,3.96-.33-.05,1.33.19,2.74-.18,3.98-5.27,17.62-10.59,35.22-15.98,52.8-1.43,4.67-4.53,6.21-9.87,5.24-8.83-1.59-18.84-12.04-19.1-21.65-.5-18.39-.13-36.8-.08-55.2,0-.52.45-1.03,1.09-2.38Z"/>
  <path class="cls-1" d="M373.82,324.23c1.4,1.7,2.59,3.6,4.21,5.01,4.93,4.3,10.28,7.34,17.35,6.5,6.17-.73,7,.53,5.75,6.68-.75,3.72-1.55,7.44-2.33,11.15-1.28,6.09-4.97,8.94-11.07,7.95-9.36-1.52-15.08-7.7-19.02-15.81-.46-.94-.33-2.36-.03-3.44,1.53-5.67,3.2-11.29,5.14-18.04Z"/>
</svg>