<?xml version="1.0" encoding="UTF-8"?>
<svg id="White" xmlns="http://www.w3.org/2000/svg" version="1.1" viewBox="0 0 500 500">
  <defs>
    <style>
      .cls-1 {
        fill: #fff;
        stroke-width: 0px;
      }
    </style>
  </defs>
  <path class="cls-1" d="M231.46,80.16c-27.39,2.08-40.69,27.72-43.41,41.62-2.06,10.54,2.53,41.93,27.04,44.07,24.52,2.14,49-16.52,55.78-23.29,6.79-6.77-2.83-34.98-5.34-41-2.51-6.02-6.69-23.47-34.08-21.39ZM245.4,101.03c-1.9-4.33-3.1-6.03.19-8.09,2.37-1.48,6.52-.85,8.36,2.55,1.84,3.4,4.66,7.55.42,10.09-4.24,2.54-7.07-.23-8.97-4.55ZM264.07,119.32c1.5,3.24,2.7,8.11,2.48,12.27-.21,4.17-.71,9.06-7.34,8.11s-1.42-6.73-2.7-11.05c-1.28-4.32-3.61-9.77.78-11.87,2.44-1.17,5.27-.7,6.77,2.54ZM45.14,271.38c13.95-12.86,40.33-35.55,56.65-43.52,16.32-7.97,60.58-24.08,59.4-25.78-1.17-1.69-17.65-44.52-14.58-79.26,3.07-34.74,28.35-50.6,68.17-64.61,39.82-14.01,60.05,22.58,64.37,33.97,4.32,11.4,18.69,66.75,18.69,66.75,0,0,9.18,4.34,24.73-5,15.55-9.34,12.59-33.54,20.69-52.02,8.1-18.48,14.54-25.82,14.54-25.82l1.63-.84c-31.72-19.91-69.22-31.47-109.44-31.47-113.88,0-206.2,92.32-206.2,206.2,0,7.3.39,14.51,1.13,21.61.08-.07.13-.16.21-.23ZM308.88,94.63c2.34,0,4.24,1.9,4.24,4.24s-1.9,4.24-4.24,4.24-4.24-1.9-4.24-4.24,1.9-4.24,4.24-4.24ZM121.64,126.73c1.16,0,2.1.94,2.1,2.1s-.94,2.1-2.1,2.1-2.1-.94-2.1-2.1.94-2.1,2.1-2.1ZM87.03,193.79c2.45,0,4.44,1.99,4.44,4.44s-1.99,4.44-4.44,4.44-4.44-1.99-4.44-4.44,1.99-4.44,4.44-4.44ZM401.75,110.42l-.14,1.59s-3.17,35.29-14.45,51.83c-11.28,16.54-39.88,53.34-53.09,61.74-13.21,8.4-5.25,18.69,4.42,26.71,9.67,8.02,30.8,25.58,38.75,43.88,7.95,18.31,7.4,34.9,14.94,50.24,5.39,10.96,13.54,24.62,17.23,34.37,29.23-35.59,46.79-81.14,46.79-130.79,0-53.85-20.66-102.85-54.46-139.58ZM362.38,252.1c-2.82,0-5.11-2.29-5.11-5.11s2.29-5.11,5.11-5.11,5.11,2.29,5.11,5.11-2.29,5.11-5.11,5.11ZM397.77,202.34c-1.22,3.18-1.63,9.61-1.63,9.61,0,0-1.46-8.61-4.58-10-3.12-1.39-9.19-1.85-9.19-1.85,0,0,5.88-1.13,8.35-4.34,2.27-2.97,2.38-11.14,2.38-11.14,0,0,1.96,9.89,5.38,10.81,4.09,1.1,8.51.83,8.51.83,0,0-8,2.91-9.22,6.08ZM338.48,413.68c-5.76-6.72-12.42-15.73-10.51-40.13,1.9-24.4-12.58-36.81-19.74-45.13-7.15-8.32-26.36-8.04-26.36-8.04,0,0,6.89,35.78-3.52,60.39-10.42,24.6-14.84,34.73-33.72,42.73-18.88,8.01-69.31,32.7-96.81-1.45-27.5-34.15,4.57-51.98,19.21-53.45,14.63-1.47,35.31-.17,45.13-18.08,9.82-17.91-35.38-84.49-35.38-84.49,0,0-39.76,10.81-61.18,30.95-21.4,20.13-37.55,34.53-58.07,26.97,29.74,77.33,104.68,132.24,192.48,132.24,43.62,0,84.04-13.58,117.36-36.69-9.4-.26-24.06-.22-28.88-5.84ZM126.78,327.38c-1.92,0-3.47-1.55-3.47-3.47s1.55-3.47,3.47-3.47,3.47,1.55,3.47,3.47-1.55,3.47-3.47,3.47ZM295.19,398.72c-2.26,0-4.09-1.83-4.09-4.09s1.83-4.09,4.09-4.09,4.09,1.83,4.09,4.09-1.83,4.09-4.09,4.09Z"/>
</svg>