<?xml version="1.0" encoding="UTF-8"?>
<svg id="White" xmlns="http://www.w3.org/2000/svg" version="1.1" viewBox="0 0 500 500">
  <defs>
    <style>
      .cls-1 {
        fill: #fff;
        stroke-width: 0px;
      }
    </style>
  </defs>
  <path class="cls-1" d="M410.68,204.28c-13.08,0-24.58,5.4-33.04,13.86-31.12-21.53-73.05-35.39-119.51-36.87l24.15-108.79,76.89,17.26c0,18.83,15.34,34.17,34.17,34.17s34.61-15.78,34.61-34.61-15.34-34.61-34.61-34.61c-13.42,0-25.02,8.11-30.77,19.18l-84.91-18.83c-4.27-1.13-8.46,1.92-9.59,6.19l-26.5,119.95c-46.11,1.92-87.61,15.78-118.82,37.31-8.46-8.8-20.4-14.21-33.47-14.21-48.47,0-64.33,65.03-19.96,87.26-1.57,6.89-2.27,14.21-2.27,21.53,0,73.05,82.29,132.24,183.33,132.24s183.76-59.19,183.76-132.24c0-7.32-.78-14.99-2.7-21.88,43.5-22.32,27.46-86.91-20.75-86.91h0ZM139.66,296.16c0-19.18,15.34-34.61,34.61-34.61s34.17,15.34,34.17,34.61-15.34,34.17-34.17,34.17c-19.18.09-34.61-15.34-34.61-34.17ZM326.47,377.67c-31.73,31.73-121.26,31.73-152.99,0-3.49-3.05-3.49-8.46,0-11.94,3.05-3.05,8.46-3.05,11.51,0,24.23,24.84,104.61,25.28,129.89,0,3.05-3.05,8.46-3.05,11.51,0,3.57,3.49,3.57,8.89.09,11.94h0ZM325.77,330.42c-18.83,0-34.17-15.34-34.17-34.17s15.34-34.61,34.17-34.61,34.61,15.34,34.61,34.61c-.09,18.74-15.43,34.17-34.61,34.17Z"/>
</svg>