<?xml version="1.0" encoding="UTF-8"?>
<svg id="White" xmlns="http://www.w3.org/2000/svg" version="1.1" viewBox="0 0 500 500">
  <defs>
    <style>
      .cls-1 {
        fill: #656666;
      }

      .cls-1, .cls-2, .cls-3, .cls-4, .cls-5, .cls-6, .cls-7, .cls-8, .cls-9, .cls-10 {
        stroke-width: 0px;
      }

      .cls-2 {
        fill: #b9b9ba;
      }

      .cls-3 {
        fill: #e8e7e7;
      }

      .cls-4 {
        fill: #dad9d8;
      }

      .cls-5 {
        fill: #a2a1a1;
      }

      .cls-6 {
        fill: #c7c6c5;
      }

      .cls-7 {
        fill: #e2e2e2;
      }

      .cls-8 {
        fill: #5d5d5d;
      }

      .cls-9 {
        fill: #4b4a4b;
      }

      .cls-10 {
        fill: #797979;
      }
    </style>
  </defs>
  <path class="cls-2" d="M297.89,43.2c.1,0,.19,0,.29,0,.1.19.2.37.31.56-.36.24-.25.54-.17.89.96,4.37,1.89,8.75,2.85,13.12,2.43,10.97,4.9,21.93,7.32,32.9,3.1,14.09,6.17,28.18,9.26,42.27,3.08,14.09,6.17,28.18,9.25,42.27.67,3.07,1.57,6.09,1.97,9.21-.09.1-.18.2-.28.29-2.04-1.15-4.26-1.88-6.41-2.78-11.72-4.89-23.44-9.8-35.16-14.67-10.49-4.36-21-8.69-31.5-13.04-8.42-3.49-16.85-6.98-25.27-10.49-7.1-2.95-14.17-5.97-21.29-8.86-2.2-.89-4.3-2.1-6.68-2.54,0-.18,0-.37-.01-.55.62-.94,1.63-1.46,2.43-2.22,3.65-3.44,7.36-6.82,11.04-10.22,6.66-6.17,13.31-12.35,19.97-18.52,3.61-3.34,7.25-6.66,10.85-10.01,6.02-5.6,12.01-11.22,18.02-16.83,2.76-2.58,5.52-5.15,8.3-7.71,6.11-5.64,12.22-11.27,18.33-16.91,2.21-2.04,4.39-4.1,6.58-6.15Z"/>
  <path class="cls-4" d="M202.36,131.78c0,.18,0,.37.01.55.14.65.25,1.31.43,1.95,5.39,18.87,10.8,37.74,16.18,56.61,6.21,21.77,12.4,43.54,18.62,65.31.14.48.14,1.08.75,1.31,0,.18,0,.35,0,.53-.2,0-.39,0-.59.01-.21-.1-.41-.24-.63-.28-4.72-.87-9.44-1.72-14.16-2.59-4.16-.76-8.32-1.55-12.48-2.28-6.5-1.15-13.02-2.24-19.51-3.41-3.74-.68-7.5-1.28-11.23-2.02-5.31-1.04-10.68-1.8-16.02-2.74-3.89-.68-7.75-1.49-11.63-2.19-6.5-1.16-13-2.31-19.52-3.39-3.19-.53-6.32-1.37-9.57-1.52v-.86c.57.01.83-.4,1.12-.78,10.02-13.35,20.04-26.69,30.05-40.05,15.7-20.95,31.39-41.9,47.09-62.85.29-.39.61-.73.58-1.26.1-.01.19-.02.29-.03.07,0,.14-.01.21-.02Z"/>
  <path class="cls-9" d="M190.12,359.26c-.01-.26-.02-.51-.04-.77.65-.04,1.3-.07,1.95-.11.62.03,1.24.08,1.86.08,29.28,0,58.56,0,87.84,0,9.39,0,18.78.01,28.18.02,0,.26-.02.52-.03.78-.6.03-.72.56-.96.96-1.87,3.06-3.73,6.12-5.59,9.18-6.37,10.45-12.76,20.88-19.1,31.35-1.43,2.36-3.05,4.62-4.18,7.16-.15.12-.34.21-.43.36-3.53,5.79-7.05,11.58-10.58,17.37-4.97,8.16-9.97,16.29-14.89,24.48-1.27,2.12-2.78,4.1-3.7,6.43-.03.08-.04.17-.01.26h-.86c.04-.09.04-.18-.01-.26-.1-.31-.15-.66-.32-.94-3.04-5.02-6.1-10.03-9.16-15.05-5.42-8.88-10.83-17.77-16.28-26.64-1.24-2.02-2.24-4.21-3.83-6.01-.05-.5-.35-.88-.6-1.29-1.63-2.64-3.27-5.28-4.88-7.94-7.85-12.9-15.7-25.8-23.55-38.71-.2-.33-.36-.69-.82-.7Z"/>
  <path class="cls-2" d="M201.86,131.83c.03.52-.29.87-.58,1.26-15.7,20.94-31.39,41.9-47.09,62.85-10.01,13.36-20.03,26.7-30.05,40.05-.29.39-.55.8-1.12.78v-1.73c.3-.25.25-.6.26-.93.08-3.25.33-6.48.56-9.72.44-6.33.83-12.67,1.15-19.01.24-4.77.58-9.53.85-14.3.36-6.48.77-12.96,1.16-19.45.29-4.72.58-9.44.85-14.15.37-6.48.75-12.97,1.17-19.45.37-5.82.58-11.64.96-17.46.07-1.07.03-2.19.46-3.22.19.26.46.29.75.34,7.84,1.54,15.68,3.09,23.52,4.66,15.72,3.15,31.43,6.31,47.15,9.47Z"/>
  <path class="cls-7" d="M202.36,131.78c-.07,0-.14,0-.21.02-.02-.62-.05-1.24-.05-1.86,0-14.31,0-28.62,0-42.93,0-14.6.01-29.2.02-43.8,31.93,0,63.85,0,95.78,0-2.19,2.05-4.38,4.11-6.58,6.15-6.1,5.64-12.22,11.27-18.33,16.91-2.77,2.56-5.54,5.13-8.3,7.71-6.01,5.61-12.01,11.23-18.02,16.83-3.6,3.35-7.24,6.67-10.85,10.01-6.66,6.17-13.31,12.35-19.97,18.52-3.68,3.41-7.39,6.78-11.04,10.22-.8.75-1.81,1.27-2.43,2.22Z"/>
  <path class="cls-3" d="M123.02,237.63c3.25.15,6.38.99,9.57,1.52,6.52,1.08,13.02,2.23,19.52,3.39,3.88.69,7.75,1.5,11.63,2.19,5.34.94,10.7,1.69,16.02,2.74,3.73.73,7.49,1.34,11.23,2.02,6.5,1.17,13.01,2.26,19.51,3.41,4.17.74,8.32,1.52,12.48,2.28,4.72.86,9.44,1.72,14.16,2.59.22.04.42.18.63.28-.09.19-.19.38-.28.57l-.31.31v-.02c-1.92,1.72-3.64,3.64-5.41,5.52-4.7,4.98-9.47,9.88-14.21,14.82-4.67,4.87-9.34,9.74-14.02,14.6-5.78,6-11.53,12.02-17.36,17.97-2.64,2.7-5.04,5.63-7.92,8.1-.74-.29-.99-1.02-1.38-1.6-17.53-26.29-35.05-52.59-52.58-78.88-.32-.48-.48-1.22-1.29-1.21v-.58Z"/>
  <path class="cls-2" d="M376.98,237.63c-3.92,5.83-7.86,11.66-11.76,17.51-14.07,21.1-28.13,42.21-42.2,63.31-.29.43-.48.95-.98,1.22.02-5.73.53-11.44.81-17.16.27-5.39.59-10.77.86-16.15.28-5.62.57-11.25.87-16.87.18-3.38.4-6.76.56-10.14.26-5.58.59-11.15.88-16.72.28-5.38.56-10.77.86-16.15.3-5.43.57-10.86.86-16.29.19-3.57.35-7.15.58-10.72.3-4.72.44-9.44.64-14.17.42-.04.68.12.96.46,1.03,1.25,2.21,2.38,3.28,3.6,3.75,4.26,7.58,8.45,11.43,12.62,3.79,4.09,7.54,8.23,11.25,12.4,3.4,3.81,6.98,7.46,10.34,11.3,1.19,1.36,2.46,2.65,3.65,4.02,2.28,2.63,4.72,5.11,7.09,7.65v.29Z"/>
  <path class="cls-5" d="M130.43,117.36c5.64-5.86,11.28-11.73,16.93-17.58,8.68-8.98,17.38-17.96,26.07-26.94,5.36-5.54,10.71-11.08,16.06-16.63,3.95-4.1,7.89-8.21,11.83-12.33.19-.2.34-.45.5-.68h.29c0,14.6-.02,29.2-.02,43.8,0,14.31,0,28.62,0,42.93,0,.62.04,1.24.05,1.86-.1.01-.19.02-.29.03-15.72-3.16-31.43-6.32-47.15-9.47-7.84-1.57-15.68-3.11-23.52-4.66-.29-.06-.57-.09-.75-.34Z"/>
  <path class="cls-6" d="M376.98,237.34c-2.37-2.54-4.81-5.03-7.09-7.65-1.19-1.37-2.46-2.66-3.65-4.02-3.36-3.84-6.94-7.49-10.34-11.3-3.71-4.17-7.46-8.3-11.25-12.4-3.86-4.16-7.69-8.36-11.43-12.62-1.07-1.22-2.25-2.34-3.28-3.6-.28-.34-.54-.51-.96-.46-.11-.11-.23-.22-.34-.32.01-.09.02-.17.04-.26.09-.1.18-.2.28-.29.39-.16.52-.53.72-.86,5.3-8.75,10.6-17.5,15.9-26.24,6.72-11.08,13.42-22.16,20.18-33.21,1.26-2.07,2.29-4.28,3.89-6.14.72,2.46.42,5.02.66,7.53.4,4.13.39,8.3.67,12.45.44,6.52.81,13.05,1.18,19.58.26,4.62.56,9.24.84,13.86.4,6.62.82,13.24,1.18,19.87.25,4.62.55,9.24.84,13.86.41,6.48.85,12.95,1.14,19.44.13,2.81.36,5.62.55,8.43.02.33-.04.68.28.91v.86s-.1.07-.09.09c.02.07.06.13.09.2v2.3Z"/>
  <path class="cls-3" d="M328.64,184.97c.11.11.23.21.34.32-.21,4.72-.34,9.45-.64,14.17-.23,3.57-.39,7.15-.58,10.72-.3,5.43-.56,10.86-.86,16.29-.3,5.38-.57,10.77-.86,16.15-.29,5.57-.62,11.15-.88,16.72-.16,3.38-.38,6.76-.56,10.14-.31,5.62-.59,11.25-.87,16.87-.27,5.38-.6,10.77-.86,16.15-.28,5.72-.8,11.43-.81,17.16-.08.17-.15.34-.23.5-.11-.03-.21-.06-.32-.09-.04-.31-.22-.51-.47-.69-7.13-5.29-14.26-10.59-21.39-15.88-11.31-8.39-22.62-16.77-33.93-25.16-9.12-6.77-18.24-13.55-27.36-20.33,0-.18,0-.35,0-.53,6.81-5.5,13.61-11.02,20.43-16.5,11.67-9.38,23.34-18.76,35.02-28.13,11.61-9.31,23.22-18.6,34.83-27.9Z"/>
  <path class="cls-5" d="M321.5,320.09c.11.03.21.06.32.09-1.55,5.02-3.08,10.04-4.64,15.06-2.41,7.75-4.84,15.5-7.27,23.25-9.39,0-18.78-.02-28.18-.02-29.28,0-58.56,0-87.84,0-.62,0-1.24-.05-1.86-.08,1.05-1.23,2.65-1.17,3.99-1.57,11.07-3.29,22.17-6.45,33.25-9.68,9.34-2.72,18.68-5.49,28.02-8.2,11.73-3.41,23.46-6.78,35.19-10.18,7.29-2.11,14.58-4.18,21.85-6.36,2.4-.72,4.89-1.18,7.16-2.31Z"/>
  <path class="cls-10" d="M280.05,407.9c1.13-2.54,2.75-4.79,4.18-7.16,6.34-10.47,12.73-20.9,19.1-31.35,1.87-3.06,3.73-6.12,5.59-9.18.24-.39.36-.92.96-.96.03.52.08,1.05.08,1.57,0,23.5,0,46.99-.01,70.49,0,.52.3,1.14-.29,1.57-2.03-2.23-4.52-3.94-6.79-5.91-3.77-3.29-7.67-6.44-11.52-9.64-3.77-3.14-7.54-6.29-11.32-9.43Z"/>
  <path class="cls-8" d="M280.05,407.9c3.77,3.14,7.55,6.29,11.32,9.43,3.85,3.21,7.74,6.35,11.52,9.64,2.26,1.97,4.75,3.68,6.79,5.91-6.86,2.78-13.7,5.58-20.57,8.34-12.56,5.03-25.13,10.03-37.7,15.03-.31.12-.63.19-.95.28.92-2.32,2.42-4.31,3.7-6.43,4.92-8.18,9.93-16.32,14.89-24.48,3.53-5.79,7.05-11.59,10.58-17.37.09-.15.29-.24.43-.36Z"/>
  <path class="cls-2" d="M321.5,320.09c-2.27,1.12-4.76,1.59-7.16,2.31-7.26,2.18-14.56,4.25-21.85,6.36-11.73,3.39-23.47,6.77-35.19,10.18-9.35,2.72-18.68,5.48-28.02,8.2-11.09,3.23-22.19,6.39-33.25,9.68-1.35.4-2.94.34-3.99,1.57-.65.04-1.3.07-1.95.11-.02-.12-.03-.24-.05-.35,1-1.41,1.58-3.04,2.31-4.59,4.73-9.99,9.49-19.96,14.24-29.94,2.82-5.92,5.63-11.84,8.45-17.76,5-10.5,10.01-20.99,15.01-31.49,2.27-4.75,4.55-9.49,6.83-14.24.19-.39.37-.78.31-1.23,0,0-.01.02-.01.02.1-.1.2-.21.31-.31.09-.19.19-.38.28-.57.2,0,.39,0,.59-.01,9.12,6.78,18.23,13.56,27.36,20.33,11.31,8.39,22.62,16.77,33.93,25.16,7.13,5.29,14.26,10.59,21.39,15.88.24.18.42.38.47.69Z"/>
  <path class="cls-5" d="M237.19,258.9c.06.45-.12.84-.31,1.23-2.28,4.74-4.56,9.49-6.83,14.24-5.01,10.49-10.01,20.99-15.01,31.49-2.82,5.92-5.63,11.84-8.45,17.76-4.75,9.98-9.51,19.95-14.24,29.94-.73,1.55-1.31,3.18-2.31,4.59-1.97-6.23-3.95-12.45-5.9-18.69-1.9-6.05-3.77-12.11-5.67-18.17-.14-.46-.31-.9-.2-1.4,2.88-2.47,5.28-5.4,7.92-8.1,5.83-5.95,11.58-11.97,17.36-17.97,4.68-4.86,9.35-9.73,14.02-14.6,4.74-4.93,9.51-9.84,14.21-14.82,1.77-1.88,3.49-3.8,5.42-5.52Z"/>
  <path class="cls-10" d="M190.12,359.26c.46.02.62.37.82.7,7.85,12.9,15.69,25.81,23.55,38.71,1.62,2.65,3.25,5.29,4.88,7.94.25.41.54.79.6,1.29-1.67,1.19-3.17,2.58-4.72,3.9-3.33,2.84-6.7,5.61-10.06,8.42-3.39,2.83-6.82,5.62-10.15,8.53-1.57,1.37-3.37,2.49-4.7,4.14-.54-.26-.29-.76-.29-1.14-.01-23.88-.01-47.75,0-71.63,0-.28.05-.57.08-.85Z"/>
  <path class="cls-1" d="M190.33,432.89c1.33-1.65,3.12-2.77,4.7-4.14,3.33-2.9,6.76-5.69,10.15-8.53,3.35-2.8,6.73-5.58,10.06-8.42,1.56-1.33,3.06-2.71,4.72-3.9,1.59,1.8,2.58,3.99,3.83,6.01,5.45,8.86,10.86,17.75,16.28,26.64,3.06,5.01,6.12,10.03,9.16,15.05.17.28.22.62.32.94-4.43-1.51-8.72-3.39-13.06-5.12-15.13-6.04-30.26-12.11-45.38-18.17-.27-.11-.52-.24-.78-.36Z"/>
  <path class="cls-5" d="M328.64,184.97c-11.61,9.3-23.23,18.59-34.83,27.9-11.68,9.37-23.35,18.74-35.02,28.13-6.82,5.49-13.62,11-20.43,16.5-.62-.22-.62-.83-.75-1.31-6.21-21.77-12.41-43.54-18.62-65.31-5.39-18.87-10.79-37.74-16.18-56.61-.18-.64-.29-1.3-.43-1.95,2.38.43,4.47,1.64,6.68,2.54,7.12,2.89,14.19,5.91,21.29,8.86,8.42,3.5,16.84,7,25.27,10.49,10.5,4.35,21,8.68,31.5,13.04,11.73,4.88,23.44,9.78,35.16,14.67,2.15.9,4.37,1.63,6.41,2.78-.01.09-.03.17-.04.26Z"/>
  <path class="cls-5" d="M369.64,117.97c-1.59,1.86-2.63,4.07-3.89,6.14-6.75,11.05-13.46,22.14-20.18,33.21-5.3,8.75-10.61,17.49-15.9,26.24-.2.33-.33.7-.72.86-.4-3.12-1.3-6.14-1.97-9.21-3.08-14.09-6.17-28.18-9.25-42.27-3.08-14.09-6.15-28.19-9.26-42.27-2.42-10.97-4.88-21.93-7.32-32.9-.97-4.37-1.89-8.75-2.85-13.12-.08-.35-.18-.65.17-.89,6.51,6.75,13.02,13.5,19.54,20.23,5.1,5.26,10.22,10.49,15.32,15.75,8.73,9,17.45,18.01,26.16,27.03,3.16,3.27,6.27,6.58,9.42,9.86.37.38.76.74.71,1.34Z"/>
  <path class="cls-5" d="M237.49,258.61c-.1.1-.2.21-.31.31.1-.1.2-.21.31-.31Z"/>
</svg>