<?xml version="1.0" encoding="UTF-8"?>
<svg id="White" xmlns="http://www.w3.org/2000/svg" version="1.1" viewBox="0 0 500 500">
  <defs>
    <style>
      .cls-1 {
        fill: #fff;
        stroke-width: 0px;
      }
    </style>
  </defs>
  <path class="cls-1" d="M184.47,391.5c4.67-2.88,9.38-5.69,14-8.66,14.95-9.61,29.81-19.36,44.87-28.8,2-1.26,5.02-1.62,7.46-1.35,20.83,2.3,40.72-.53,59.57-10.03,16.86-8.5,30.5-20.56,40.72-36.44,2.01-3.12,4.02-3.13,6.95-1.41,22.65,13.28,45.34,26.48,68.03,39.7,4.58,2.67,9.14,5.37,13.78,7.93,2.31,1.27,2.39,2.46,1.01,4.71-13.93,22.79-31.47,42.26-52.83,58.33-15.26,11.48-31.76,20.82-49.53,27.62-24.27,9.29-49.46,13.9-75.56,13.67-33.88-.3-65.7-8.42-95.46-24.43-33.03-17.77-59.43-42.65-79.04-74.74-14.45-23.66-23.79-49.19-27.94-76.51-2.84-18.7-2.88-37.55-.67-56.41,3.38-28.8,12.56-55.61,27.47-80.37,26.36-43.77,63.86-74.02,112.2-90.57,28.69-9.82,58.33-12.55,88.38-9.22,30.64,3.4,59.15,13.42,85.31,29.82,27.31,17.12,49.56,39.34,66.49,66.82,2.86,4.65,2.95,4.88-1.74,7.66-9.93,5.89-19.99,11.55-29.98,17.34-16.52,9.58-33.08,19.11-49.5,28.87-3.52,2.09-5.43,1.76-7.72-1.7-13.1-19.81-30.79-33.94-53.43-41.35-27.41-8.96-54.3-7.32-79.92,6.14-31.39,16.49-50.52,42.59-54.9,77.71-5.17,41.4,9.94,74.89,43.89,99.56.75.55,1.49,1.13,2.3,1.57,3.03,1.62,3.57,3.47,1.72,6.67-8.7,15.01-17.16,30.16-25.7,45.27-.32.57-.55,1.19-.83,1.79.2.26.4.51.6.77Z"/>
</svg>