<?xml version="1.0" encoding="UTF-8"?>
<svg id="White" xmlns="http://www.w3.org/2000/svg" version="1.1" viewBox="0 0 500 500">
  <defs>
    <style>
      .cls-1 {
        fill: #fff;
        stroke-width: 0px;
      }
    </style>
  </defs>
  <path class="cls-1" d="M214.46,43.2h48.47v77.54c-10.62,0-20.84-.06-31.06.03-4.12.03-8.22-.06-12.38.6-5.17.82-9.89,2.24-14.46,4.86-8.6,4.92-14.3,11.92-17.37,21.31-.88,2.69-1.31,5.33-1.64,8.1-.54,4.6-.92,12.41-.2,16.92h206.43v206.73h51.49v77.5c-.64,0-1.14,0-1.65,0-59.51-.01-119.02-.02-178.53-.04-.11,0-.23-.11-.32-.19-.1-.08-.18-.19-.27-.29-.48-30.08-.23-73.88.46-77.01,16.82,0,33.65,0,50.47,0,.27,0,.54-.02.81-.05.12-.02.24-.08.34-.15.11-.08.2-.18.29-.27.65-25.6.36-124.83-.38-128.67-15.02-.6-125.83-.32-129.4.31v128.94h51.35v77.3H56.26v-77.39c3.6,0,7.07,0,10.54,0h20.6c3.37,0,6.73.06,10.1-.02,3.43-.07,6.9.33,10.29-.26.6-35.09.29-125.46-.45-129.02-16.8,0-33.63,0-50.45,0-.12,0-.25-.06-.35-.12-.11-.07-.19-.19-.19-.18v-77.32h51.4c.41-8.66-.51-17.11.85-25.49.45-2.75.41-5.58.97-8.3,1.74-8.49,4.14-16.84,7.54-24.8,4.98-11.67,11.98-22.14,20.29-31.7,6.18-7.11,13.38-13.15,21.06-18.52,11.44-8.01,24.14-13.41,37.61-16.99,2.79-.74,5.66-1.24,8.51-1.66,3.15-.46,6.33-.7,9.49-1.07.15-.02.27-.39.4-.6Z"/>
  <path class="cls-1" d="M358.25,43.2c.26.24.5.68.78.71,7.84.68,14.39,4.12,20.16,9.28,5.59,5,9.52,11.01,11.39,18.32,1.36,5.29,1.88,10.49,1.04,16.05-.86,5.66-2.65,10.83-5.7,15.44-4.89,7.38-11.46,12.86-20.11,15.58-6.02,1.89-11.96,2.58-18.33,1.59-5.66-.88-10.75-2.81-15.38-5.85-7.7-5.05-13.14-12.08-15.73-20.94-1.63-5.57-2.1-11.24-1.16-17.23,1.78-11.42,7.57-20.01,16.8-26.39,4.67-3.23,9.85-5.66,15.77-5.84.27,0,.52-.46.78-.7,3.23,0,6.46,0,9.69,0Z"/>
</svg>