<?xml version="1.0" encoding="UTF-8"?>
<svg id="White" xmlns="http://www.w3.org/2000/svg" viewBox="0 0 500 500">
  <defs>
    <style>
      .cls-1 {
        fill: #fff;
      }
    </style>
  </defs>
  <path class="cls-1" d="M208.22,250.14h5.03c26.4,0,52.8.03,79.19,0,23.31-.03,41.54-19.51,41.85-41.69.28-20.53-16.16-41.56-40.3-42.47-1.95-.07-3.9-.19-5.86-.19-80.9,0-161.81,0-242.71,0h-4.95c-.16-.94-.45-1.76-.41-2.56.85-17.32,4.28-34.04,11.67-49.85,7.06-15.12,16.62-28.43,28.89-39.73,15.35-14.14,33.1-24.03,53.34-29.3,9.59-2.5,19.31-3.92,29.27-3.94,42.02-.09,84.05-.47,126.07-.4,22.48.04,44.4,3.64,65.37,12.21,17.79,7.27,33.96,17.12,48.34,29.88,23.07,20.46,39.47,45.31,48.94,74.69,3.79,11.76,6.18,23.78,7.33,36.09.83,8.9.99,17.8.37,26.68-1.39,19.98-6.09,39.18-14.33,57.5-6.87,15.25-15.78,29.17-26.78,41.75-13.88,15.89-30.22,28.68-48.91,38.5-17.02,8.94-35.09,14.62-54.06,17.35-9.05,1.3-18.21,2.11-27.36,1.55-19.63-1.19-37.01-8.04-51.78-21.21-14.16-12.62-22.99-28.27-26.63-46.83-.79-4.04-1.17-8.21-1.26-12.34-.3-13.91-.38-27.82-.53-41.73-.01-1.19.12-2.37.21-3.92ZM55.48,459.34c16.08-1.91,31.21-6.8,45.29-14.69,24.51-13.73,42.63-33.44,54.22-59.07,6.72-14.85,10.64-30.46,10.75-46.71.29-42.51.1-85.02.09-127.53,0-.93-.2-1.85-.35-3.13-4.14.3-8.02.52-11.89.86-17.5,1.57-33.9,6.73-49.14,15.43-23.37,13.34-40.85,32.17-52.4,56.51-7.76,16.35-11.77,33.63-11.9,51.61-.3,41.16-.1,82.33-.09,123.5,0,1.19.12,2.37.19,3.72,5.32.42,10.26.09,15.24-.5Z"/>
</svg>