<?xml version="1.0" encoding="UTF-8"?>
<svg id="White" xmlns="http://www.w3.org/2000/svg" version="1.1" viewBox="0 0 500 500">
  <defs>
    <style>
      .cls-1 {
        fill: #fff;
        stroke-width: 0px;
      }
    </style>
  </defs>
  <path class="cls-1" d="M67.27,229.77c32.53.08,65.05.22,97.58.23,86.28.03,172.56.1,258.83-.15,6.87-.02,9.01,1.45,8.98,8.64-.28,70.27-.26,140.53-.04,210.8.03,7.84-1.39,8.21-7.99,4.5-55.5-31.24-111.25-62.05-166.76-93.29-5.89-3.31-10.18-3.2-16,.08-55.78,31.37-111.73,62.43-167.64,93.56-2.18,1.21-4.15,3.05-6.97,2.58v-226.96Z"/>
  <path class="cls-1" d="M67.27,43.46c119.68-.04,239.36-.04,359.04-.26,5.68-.01,6.4,2.09,6.28,6.85-.29,11.28-.58,22.61.08,33.86.42,7.24-1.98,8.71-8.91,8.69-100.72-.24-201.45-.17-302.18-.16-18.11,0-36.21.09-54.32.14v-49.12Z"/>
  <path class="cls-1" d="M67.27,136.61c119.12-.02,238.25.02,357.37-.19,6.12-.01,8.4,1.14,8.03,7.74-.62,10.97-.65,22.04,0,33.01.44,7.22-1.93,8.71-8.88,8.69-106.39-.24-212.78-.17-319.17-.16-12.45,0-24.9.02-37.35.02v-49.12Z"/>
</svg>