<?xml version="1.0" encoding="UTF-8"?>
<svg id="White" xmlns="http://www.w3.org/2000/svg" version="1.1" viewBox="0 0 500 500">
  <defs>
    <style>
      .cls-1 {
        fill: #fff;
        stroke-width: 0px;
      }
    </style>
  </defs>
  <path class="cls-1" d="M270.85,233.42c5.87-5.36,11.17-11.03,17.28-15.62,18.86-14.17,40.26-19.16,63.64-16.6,27.73,3.04,48.9,16.63,64.15,39.62,9.1,13.72,13.44,29.12,13.51,45.43.22,55.61.09,111.23.08,166.84,0,.81-.14,1.62-.2,2.37-5.01,1.31-156.54,1.88-175.88.66-.05-6.07-.12-12.23-.14-18.38-.02-6.25,0-12.5,0-18.75v-56.19c-8.99-.37-17.67-.14-26.35-.18-8.77-.04-17.53,0-26.3,0h-52.48v-71.87h-77.24c-.19-2.08-.46-3.67-.46-5.26-.02-26.66-.02-53.32-.01-79.98,0-21.72,16.05-43.12,43.12-43.56,26.97-.44,43.6,20.51,44.36,41.61.06,1.65,0,3.3,0,6.31,17.28-21.91,39.1-29.74,64.89-24.37,26.19,5.45,41.85,22.51,48.03,47.93Z"/>
  <path class="cls-1" d="M337.87,181.39c-36.02.33-69.18-28.69-69.36-68.85-.16-35.84,28.98-69.19,69.26-69.34,41.53-.15,69.65,33.83,69.36,69.54-.33,40.95-33.39,69.2-69.26,68.65Z"/>
  <path class="cls-1" d="M207.07,170.27c-26.84.48-48.5-23.11-47.94-49.35.51-24.08,20.72-47.47,48.86-47.32,25.47.13,48.42,22.34,48.18,48.87-.24,26.37-23.56,48.84-49.1,47.8Z"/>
  <path class="cls-1" d="M79.02,117.67c.08-18.81,16.26-35.19,34.71-34.55,21.61.75,34.78,20.54,34.51,35.22-.31,17.39-15.52,34.43-35.18,34.16-21.43-.3-34.94-18.22-34.04-34.83Z"/>
</svg>