<?xml version="1.0" encoding="UTF-8"?>
<svg id="White" xmlns="http://www.w3.org/2000/svg" version="1.1" viewBox="0 0 500 500">
  <defs>
    <style>
      .cls-1 {
        fill: #fff;
        stroke-width: 0px;
      }
    </style>
  </defs>
  <path class="cls-1" d="M310.63,74.64v-22.36h85.28c.12,2.25.32,4.28.32,6.31,0,79.41.28,158.82-.18,238.22-.14,24.69-4.19,49.01-13.4,72.19-18.37,46.25-52.26,73.83-100.8,83.56-43.1,8.64-84.6,4.5-123.7-16.59-6.87-3.71-13.14-8.53-20.08-13.09,11.63-21.78,22.69-42.48,34.03-63.72,5.73,3.23,10.55,6.05,15.46,8.68,21.42,11.47,44.21,14.69,67.89,10.05,26.74-5.24,48.17-27.99,52.84-56.36,1.88-11.43,1.73-23.2,2.51-34.82-.88-.07-1.75-.14-2.63-.21-13.69,14.05-29.57,24.7-48.92,28.78-38.59,8.13-73.92.27-104.71-24.47-31.3-25.15-47.32-58.66-50.37-98.49-3.09-40.42,7.95-76.45,34.89-106.97,20.52-23.26,46.4-36.96,77.3-40.99,30.34-3.96,58.08,1.73,82.09,21.64,3.36,2.79,6.46,5.9,9.68,8.86.83-.08,1.66-.17,2.5-.25ZM249.82,241.56c33.5,0,61.12-27.48,61.12-60.83,0-33.26-27.75-60.88-61.16-60.89-33.26,0-61.24,27.83-61.24,60.92,0,33.1,27.91,60.79,61.28,60.8Z"/>
  <path class="cls-1" d="M310.63,74.64c-.83.08-1.66.17-2.5.25.83-.08,1.66-.17,2.5-.25Z"/>
  <path class="cls-1" d="M308.18,286.51c.88.07,1.75.14,2.63.21-.88-.07-1.75-.14-2.63-.21Z"/>
</svg>