<?xml version="1.0" encoding="UTF-8"?>
<svg id="White" xmlns="http://www.w3.org/2000/svg" version="1.1" viewBox="0 0 500 500">
  <defs>
    <style>
      .cls-1 {
        fill: #fff;
        stroke-width: 0px;
      }
    </style>
  </defs>
  <path class="cls-1" d="M449.88,370.66h-27.05c-1.38,12.46-9.69,28.43-30.47,28.43-18.93,0-32.59-13.11-45.7-33.05,40.81-31.57,68.96-80.78,68.96-141.25.09-108.48-89.18-181.6-183.16-181.6S49.94,116.78,49.94,224.8c0,123.8,121.22,204.58,229.88,174.49,18.19,31.02,42.19,57.52,87.89,57.52,75.52,0,83.83-69.52,82.17-86.14ZM317.4,317.58c-18-26.96-40.34-48.19-84.47-48.19-28.16,0-50.13,9.23-63.7,21.05l11.26,22.43c5.72-2.77,12-3.69,18.28-3.69,32.77,0,49.58,28.43,63.89,56.59-9.23,2.77-19.11,3.88-30.19,3.88-69.24,0-99.24-48.93-99.24-144.67s30-145.77,99.24-145.77,100.35,49.39,100.35,145.59c.09,38.59-4.99,69.79-15.42,92.78Z"/>
</svg>